<?xml version="1.0" encoding="UTF-8" standalone="no"?>
<!DOCTYPE svg PUBLIC "-//W3C//DTD SVG 1.1//EN"
 "http://www.w3.org/Graphics/SVG/1.1/DTD/svg11.dtd">
<!-- Generated by graphviz version 2.38.0 (20140413.2041)
 -->
<!-- Title: G Pages: 1 -->
<svg width="1938pt" height="999pt"
 viewBox="0.00 0.00 1937.57 999.41" xmlns="http://www.w3.org/2000/svg" xmlns:xlink="http://www.w3.org/1999/xlink">
<g id="graph0" class="graph" transform="scale(1 1) rotate(0) translate(4 995.411)">
<title>G</title><style>.edge>path:hover{stroke-width:8}</style>
<polygon fill="white" stroke="none" points="-4,4 -4,-995.411 1933.57,-995.411 1933.57,4 -4,4"/>
<g id="clust1" class="cluster"><title>cluster_parameterized</title><style>.edge>path:hover{stroke-width:8}</style>
<polygon fill="none" stroke="black" points="8,-637.132 8,-790.558 138,-790.558 138,-637.132 8,-637.132"/>
<text text-anchor="middle" x="73" y="-775.358" font-family="Times New Roman,serif" font-size="14.00">parameterized</text>
</g>
<g id="clust3" class="cluster"><title>cluster_sentrysdk</title><style>.edge>path:hover{stroke-width:8}</style>
<polygon fill="none" stroke="black" points="1385,-217.64 1385,-292.64 1477,-292.64 1477,-217.64 1385,-217.64"/>
<text text-anchor="middle" x="1431" y="-277.44" font-family="Times New Roman,serif" font-size="14.00">sentrysdk</text>
</g>
<g id="clust2" class="cluster"><title>cluster_requests</title><style>.edge>path:hover{stroke-width:8}</style>
<polygon fill="none" stroke="black" points="505,-712.345 505,-787.345 585,-787.345 585,-712.345 505,-712.345"/>
<text text-anchor="middle" x="545" y="-772.145" font-family="Times New Roman,serif" font-size="14.00">requests</text>
</g>
<!-- parameterized -->
<g id="node1" class="node"><title>parameterized</title><style>.edge>path:hover{stroke-width:8}</style>
<ellipse fill="#c04040" stroke="black" cx="62" cy="-663.132" rx="45.8316" ry="18"/>
<text text-anchor="middle" x="62" y="-660.632" font-family="Helvetica,sans-Serif" font-size="10.00" fill="#ffffff">parameterized</text>
</g>
<!-- telereddit_tests_test_services -->
<g id="node23" class="node"><title>telereddit_tests_test_services</title><style>.edge>path:hover{stroke-width:8}</style>
<ellipse fill="#7e3d8f" stroke="black" cx="218" cy="-243.64" rx="52.1524" ry="21.4286"/>
<text text-anchor="middle" x="218" y="-246.64" font-family="Helvetica,sans-Serif" font-size="10.00" fill="#ffffff">tests.</text>
<text text-anchor="middle" x="218" y="-235.64" font-family="Helvetica,sans-Serif" font-size="10.00" fill="#ffffff">test_services</text>
</g>
<!-- parameterized&#45;&gt;telereddit_tests_test_services -->
<g id="edge2" class="edge"><title>parameterized&#45;&gt;telereddit_tests_test_services</title><style>.edge>path:hover{stroke-width:8}</style>
<path fill="none" stroke="black" d="M53.1327,-637.455C43.6623,-608.85 30,-560.101 30,-516.919 30,-516.919 30,-516.919 30,-358.066 30,-296.522 104.776,-267.491 160.01,-254.442"/>
<polygon fill="#000000" stroke="black" points="161.08,-257.789 170.073,-252.187 159.55,-250.959 161.08,-257.789"/>
</g>
<!-- telereddit_tests_test_helpers -->
<g id="node24" class="node"><title>telereddit_tests_test_helpers</title><style>.edge>path:hover{stroke-width:8}</style>
<ellipse fill="#8b439d" stroke="black" cx="107" cy="-437.492" rx="49.4949" ry="21.4286"/>
<text text-anchor="middle" x="107" y="-440.492" font-family="Helvetica,sans-Serif" font-size="10.00" fill="#ffffff">tests.</text>
<text text-anchor="middle" x="107" y="-429.492" font-family="Helvetica,sans-Serif" font-size="10.00" fill="#ffffff">test_helpers</text>
</g>
<!-- parameterized&#45;&gt;telereddit_tests_test_helpers -->
<g id="edge1" class="edge"><title>parameterized&#45;&gt;telereddit_tests_test_helpers</title><style>.edge>path:hover{stroke-width:8}</style>
<path fill="none" stroke="black" d="M67.0006,-637.28C75.2977,-596.045 91.8844,-513.613 100.872,-468.947"/>
<polygon fill="#000000" stroke="black" points="104.349,-469.409 102.891,-458.916 97.4866,-468.029 104.349,-469.409"/>
</g>
<!-- parameterized_parameterized -->
<g id="node2" class="node"><title>parameterized_parameterized</title><style>.edge>path:hover{stroke-width:8}</style>
<ellipse fill="#ce3b3b" stroke="black" cx="73" cy="-738.345" rx="57.0522" ry="21.4286"/>
<text text-anchor="middle" x="73" y="-741.345" font-family="Helvetica,sans-Serif" font-size="10.00" fill="#ffffff">parameterized.</text>
<text text-anchor="middle" x="73" y="-730.345" font-family="Helvetica,sans-Serif" font-size="10.00" fill="#ffffff">parameterized</text>
</g>
<!-- parameterized_parameterized&#45;&gt;parameterized -->
<g id="edge3" class="edge"><title>parameterized_parameterized&#45;&gt;parameterized</title><style>.edge>path:hover{stroke-width:8}</style>
<path fill="none" stroke="black" d="M69.9359,-716.951C68.7559,-709.097 67.3884,-699.996 66.1244,-691.583"/>
<polygon fill="#000000" stroke="black" points="69.5478,-690.811 64.6007,-681.442 62.6255,-691.851 69.5478,-690.811"/>
</g>
<!-- parameterized_parameterized&#45;&gt;telereddit_tests_test_services -->
<g id="edge5" class="edge"><title>parameterized_parameterized&#45;&gt;telereddit_tests_test_services</title><style>.edge>path:hover{stroke-width:8}</style>
<path fill="none" stroke="black" d="M137.676,-686.155C162.052,-660.964 184,-628.254 184,-592.132 184,-592.132 184,-592.132 184,-358.066 184,-328.518 194.718,-296.395 204.118,-273.902"/>
<polygon fill="#000000" stroke="black" points="207.39,-275.155 208.166,-264.589 200.97,-272.365 207.39,-275.155"/>
</g>
<!-- parameterized_parameterized&#45;&gt;telereddit_tests_test_helpers -->
<g id="edge4" class="edge"><title>parameterized_parameterized&#45;&gt;telereddit_tests_test_helpers</title><style>.edge>path:hover{stroke-width:8}</style>
<path fill="none" stroke="black" d="M127.288,-637.276C136.209,-574.148 124.068,-506.377 115.084,-468.523"/>
<polygon fill="#000000" stroke="black" points="118.455,-467.575 112.663,-458.704 111.659,-469.251 118.455,-467.575"/>
</g>
<!-- requests -->
<g id="node3" class="node"><title>requests</title><style>.edge>path:hover{stroke-width:8}</style>
<ellipse fill="#c8f906" stroke="black" cx="545" cy="-738.345" rx="31.577" ry="18"/>
<text text-anchor="middle" x="545" y="-735.845" font-family="Helvetica,sans-Serif" font-size="10.00" fill="#000000">requests</text>
</g>
<!-- telereddit_services_imgur_service -->
<g id="node6" class="node"><title>telereddit_services_imgur_service</title><style>.edge>path:hover{stroke-width:8}</style>
<ellipse fill="#7e3091" stroke="black" cx="536" cy="-437.492" rx="53.9813" ry="21.4286"/>
<text text-anchor="middle" x="536" y="-440.492" font-family="Helvetica,sans-Serif" font-size="10.00" fill="#ffffff">services.</text>
<text text-anchor="middle" x="536" y="-429.492" font-family="Helvetica,sans-Serif" font-size="10.00" fill="#ffffff">imgur_service</text>
</g>
<!-- requests&#45;&gt;telereddit_services_imgur_service -->
<g id="edge9" class="edge"><title>requests&#45;&gt;telereddit_services_imgur_service</title><style>.edge>path:hover{stroke-width:8}</style>
<path fill="none" stroke="black" d="M505.389,-714.951C493.451,-706.068 481.739,-694.7 475,-681.132 437.931,-606.499 458.617,-569.675 495,-494.706 499.876,-484.659 506.577,-474.537 513.15,-465.705"/>
<polygon fill="#000000" stroke="black" points="516.008,-467.731 519.348,-457.676 510.467,-463.453 516.008,-467.731"/>
</g>
<!-- telereddit_services_gfycat_service -->
<g id="node7" class="node"><title>telereddit_services_gfycat_service</title><style>.edge>path:hover{stroke-width:8}</style>
<ellipse fill="#7e3091" stroke="black" cx="934" cy="-437.492" rx="55.3091" ry="21.4286"/>
<text text-anchor="middle" x="934" y="-440.492" font-family="Helvetica,sans-Serif" font-size="10.00" fill="#ffffff">services.</text>
<text text-anchor="middle" x="934" y="-429.492" font-family="Helvetica,sans-Serif" font-size="10.00" fill="#ffffff">gfycat_service</text>
</g>
<!-- requests&#45;&gt;telereddit_services_gfycat_service -->
<g id="edge8" class="edge"><title>requests&#45;&gt;telereddit_services_gfycat_service</title><style>.edge>path:hover{stroke-width:8}</style>
<path fill="none" stroke="black" d="M577.45,-712.415C650.959,-655.941 829.432,-518.828 902.259,-462.877"/>
<polygon fill="#000000" stroke="black" points="904.501,-465.569 910.299,-456.701 900.237,-460.018 904.501,-465.569"/>
</g>
<!-- telereddit_helpers -->
<g id="node13" class="node"><title>telereddit_helpers</title><style>.edge>path:hover{stroke-width:8}</style>
<ellipse fill="#b005db" stroke="black" cx="965" cy="-591.132" rx="28.0137" ry="18"/>
<text text-anchor="middle" x="965" y="-588.632" font-family="Helvetica,sans-Serif" font-size="10.00" fill="#ffffff">helpers</text>
</g>
<!-- requests&#45;&gt;telereddit_helpers -->
<g id="edge6" class="edge"><title>requests&#45;&gt;telereddit_helpers</title><style>.edge>path:hover{stroke-width:8}</style>
<path fill="none" stroke="black" d="M584.542,-734.106C662.68,-727.176 833.742,-709.216 885,-681.132 912.617,-666.001 935.575,-637.588 949.711,-616.926"/>
<polygon fill="#000000" stroke="black" points="952.798,-618.602 955.393,-608.33 946.958,-614.742 952.798,-618.602"/>
</g>
<!-- telereddit_services_service -->
<g id="node15" class="node"><title>telereddit_services_service</title><style>.edge>path:hover{stroke-width:8}</style>
<ellipse fill="#c50cf3" stroke="black" cx="652" cy="-515.919" rx="38.7821" ry="21.4286"/>
<text text-anchor="middle" x="652" y="-518.919" font-family="Helvetica,sans-Serif" font-size="10.00" fill="#ffffff">services.</text>
<text text-anchor="middle" x="652" y="-507.919" font-family="Helvetica,sans-Serif" font-size="10.00" fill="#ffffff">service</text>
</g>
<!-- requests&#45;&gt;telereddit_services_service -->
<g id="edge10" class="edge"><title>requests&#45;&gt;telereddit_services_service</title><style>.edge>path:hover{stroke-width:8}</style>
<path fill="none" stroke="black" d="M514.489,-712.417C505.862,-703.547 497.58,-692.827 493,-681.132 475.497,-636.437 465.287,-612.324 493,-573.132 517.722,-538.17 566.09,-524.808 603.019,-519.778"/>
<polygon fill="#000000" stroke="black" points="603.59,-523.234 613.102,-518.569 602.756,-516.284 603.59,-523.234"/>
</g>
<!-- telereddit_reddit -->
<g id="node19" class="node"><title>telereddit_reddit</title><style>.edge>path:hover{stroke-width:8}</style>
<ellipse fill="#7d2493" stroke="black" cx="1023" cy="-243.64" rx="27" ry="18"/>
<text text-anchor="middle" x="1023" y="-241.14" font-family="Helvetica,sans-Serif" font-size="10.00" fill="#ffffff">reddit</text>
</g>
<!-- requests&#45;&gt;telereddit_reddit -->
<g id="edge7" class="edge"><title>requests&#45;&gt;telereddit_reddit</title><style>.edge>path:hover{stroke-width:8}</style>
<path fill="none" stroke="black" d="M584.855,-722.171C699.67,-677.23 1023,-541.524 1023,-438.492 1023,-438.492 1023,-438.492 1023,-358.066 1023,-328.656 1023,-294.957 1023,-271.983"/>
<polygon fill="#000000" stroke="black" points="1026.5,-271.934 1023,-261.934 1019.5,-271.934 1026.5,-271.934"/>
</g>
<!-- telereddit_services_vreddit_service -->
<g id="node22" class="node"><title>telereddit_services_vreddit_service</title><style>.edge>path:hover{stroke-width:8}</style>
<ellipse fill="#853399" stroke="black" cx="804" cy="-437.492" rx="56.6372" ry="21.4286"/>
<text text-anchor="middle" x="804" y="-440.492" font-family="Helvetica,sans-Serif" font-size="10.00" fill="#ffffff">services.</text>
<text text-anchor="middle" x="804" y="-429.492" font-family="Helvetica,sans-Serif" font-size="10.00" fill="#ffffff">vreddit_service</text>
</g>
<!-- requests&#45;&gt;telereddit_services_vreddit_service -->
<g id="edge11" class="edge"><title>requests&#45;&gt;telereddit_services_vreddit_service</title><style>.edge>path:hover{stroke-width:8}</style>
<path fill="none" stroke="black" d="M540.709,-712.412C536.099,-676.657 533.622,-610.971 569,-573.132 620.855,-517.67 672.9,-579.361 736,-537.132 761.41,-520.127 780.06,-490.127 791.335,-467.663"/>
<polygon fill="#000000" stroke="black" points="794.534,-469.086 795.713,-458.557 788.225,-466.052 794.534,-469.086"/>
</g>
<!-- sentry_sdk -->
<g id="node4" class="node"><title>sentry_sdk</title><style>.edge>path:hover{stroke-width:8}</style>
<ellipse fill="#40c073" stroke="black" cx="1431" cy="-243.64" rx="38.0276" ry="18"/>
<text text-anchor="middle" x="1431" y="-241.14" font-family="Helvetica,sans-Serif" font-size="10.00" fill="#000000">sentry_sdk</text>
</g>
<!-- telereddit_telereddit -->
<g id="node20" class="node"><title>telereddit_telereddit</title><style>.edge>path:hover{stroke-width:8}</style>
<ellipse fill="#632673" stroke="black" cx="1289" cy="-93.2132" rx="32.9303" ry="18"/>
<text text-anchor="middle" x="1289" y="-90.7132" font-family="Helvetica,sans-Serif" font-size="10.00" fill="#ffffff">telereddit</text>
</g>
<!-- sentry_sdk&#45;&gt;telereddit_telereddit -->
<g id="edge12" class="edge"><title>sentry_sdk&#45;&gt;telereddit_telereddit</title><style>.edge>path:hover{stroke-width:8}</style>
<path fill="none" stroke="black" d="M1407.68,-218.263C1380.88,-190.253 1337.24,-144.632 1311,-117.214"/>
<polygon fill="#000000" stroke="black" points="1313.17,-114.414 1303.73,-109.608 1308.11,-119.253 1313.17,-114.414"/>
</g>
<!-- telereddit_config_secret_prod -->
<g id="node5" class="node"><title>telereddit_config_secret_prod</title><style>.edge>path:hover{stroke-width:8}</style>
<ellipse fill="#8b439d" stroke="black" cx="1649" cy="-819.772" rx="48.1667" ry="21.4286"/>
<text text-anchor="middle" x="1649" y="-822.772" font-family="Helvetica,sans-Serif" font-size="10.00" fill="#ffffff">config.</text>
<text text-anchor="middle" x="1649" y="-811.772" font-family="Helvetica,sans-Serif" font-size="10.00" fill="#ffffff">secret_prod</text>
</g>
<!-- telereddit_services_services_wrapper -->
<g id="node28" class="node"><title>telereddit_services_services_wrapper</title><style>.edge>path:hover{stroke-width:8}</style>
<ellipse fill="#84269b" stroke="black" cx="669" cy="-359.066" rx="64.1938" ry="21.4286"/>
<text text-anchor="middle" x="669" y="-362.066" font-family="Helvetica,sans-Serif" font-size="10.00" fill="#ffffff">services.</text>
<text text-anchor="middle" x="669" y="-351.066" font-family="Helvetica,sans-Serif" font-size="10.00" fill="#ffffff">services_wrapper</text>
</g>
<!-- telereddit_services_imgur_service&#45;&gt;telereddit_services_services_wrapper -->
<g id="edge55" class="edge"><title>telereddit_services_imgur_service&#45;&gt;telereddit_services_services_wrapper</title><style>.edge>path:hover{stroke-width:8}</style>
<path fill="none" stroke="black" d="M565.517,-419.531C584.316,-408.728 608.897,-394.603 629.385,-382.83"/>
<polygon fill="#7e3091" stroke="black" points="631.252,-385.794 638.179,-377.777 627.765,-379.725 631.252,-385.794"/>
</g>
<!-- telereddit_services_gfycat_service&#45;&gt;telereddit_services_services_wrapper -->
<g id="edge54" class="edge"><title>telereddit_services_gfycat_service&#45;&gt;telereddit_services_services_wrapper</title><style>.edge>path:hover{stroke-width:8}</style>
<path fill="none" stroke="black" d="M892.749,-423.243C885.195,-420.879 877.371,-418.473 870,-416.279 822.136,-402.032 767.552,-386.833 727.356,-375.836"/>
<polygon fill="#7e3091" stroke="black" points="728.029,-372.391 717.46,-373.134 726.185,-379.144 728.029,-372.391"/>
</g>
<!-- telereddit_tests_test_reddit -->
<g id="node8" class="node"><title>telereddit_tests_test_reddit</title><style>.edge>path:hover{stroke-width:8}</style>
<ellipse fill="#9246a4" stroke="black" cx="483" cy="-93.2132" rx="43.6818" ry="21.4286"/>
<text text-anchor="middle" x="483" y="-96.2132" font-family="Helvetica,sans-Serif" font-size="10.00" fill="#ffffff">tests.</text>
<text text-anchor="middle" x="483" y="-85.2132" font-family="Helvetica,sans-Serif" font-size="10.00" fill="#ffffff">test_reddit</text>
</g>
<!-- telereddit_content_type -->
<g id="node9" class="node"><title>telereddit_content_type</title><style>.edge>path:hover{stroke-width:8}</style>
<ellipse fill="#cb10f9" stroke="black" cx="358" cy="-591.132" rx="42.9448" ry="18"/>
<text text-anchor="middle" x="358" y="-588.632" font-family="Helvetica,sans-Serif" font-size="10.00" fill="#ffffff">content_type</text>
</g>
<!-- telereddit_content_type&#45;&gt;telereddit_services_imgur_service -->
<g id="edge37" class="edge"><title>telereddit_content_type&#45;&gt;telereddit_services_imgur_service</title><style>.edge>path:hover{stroke-width:8}</style>
<path fill="none" stroke="black" d="M365.216,-573.296C374.851,-552.5 393.685,-517.132 419,-494.706 438.409,-477.512 464.007,-464.418 486.309,-455.212"/>
<polygon fill="#cb10f9" stroke="black" points="487.638,-458.45 495.638,-451.504 485.052,-451.945 487.638,-458.45"/>
</g>
<!-- telereddit_content_type&#45;&gt;telereddit_services_gfycat_service -->
<g id="edge36" class="edge"><title>telereddit_content_type&#45;&gt;telereddit_services_gfycat_service</title><style>.edge>path:hover{stroke-width:8}</style>
<path fill="none" stroke="black" d="M400.639,-588.615C471.683,-585.109 618.118,-573.694 736,-537.132 795.427,-518.7 858.937,-484.092 897.561,-461.164"/>
<polygon fill="#cb10f9" stroke="black" points="899.58,-464.034 906.356,-455.889 895.98,-458.031 899.58,-464.034"/>
</g>
<!-- telereddit_content_type&#45;&gt;telereddit_tests_test_reddit -->
<g id="edge40" class="edge"><title>telereddit_content_type&#45;&gt;telereddit_tests_test_reddit</title><style>.edge>path:hover{stroke-width:8}</style>
<path fill="none" stroke="black" d="M343.357,-574.209C335.098,-564.284 325.383,-550.831 320,-537.132 287.444,-454.286 271.822,-422.288 300,-337.853 330.885,-245.306 412.247,-159.655 455.328,-118.995"/>
<polygon fill="#cb10f9" stroke="black" points="457.726,-121.545 462.654,-112.167 452.953,-116.425 457.726,-121.545"/>
</g>
<!-- telereddit_content_type&#45;&gt;telereddit_reddit -->
<g id="edge34" class="edge"><title>telereddit_content_type&#45;&gt;telereddit_reddit</title><style>.edge>path:hover{stroke-width:8}</style>
<path fill="none" stroke="black" d="M349.125,-573.33C332.792,-539.834 302.722,-463.875 338,-416.279 417.263,-309.341 854.908,-260.326 985.929,-247.911"/>
<polygon fill="#cb10f9" stroke="black" points="986.605,-251.363 996.237,-246.95 985.956,-244.393 986.605,-251.363"/>
</g>
<!-- telereddit_content_type&#45;&gt;telereddit_services_vreddit_service -->
<g id="edge38" class="edge"><title>telereddit_content_type&#45;&gt;telereddit_services_vreddit_service</title><style>.edge>path:hover{stroke-width:8}</style>
<path fill="none" stroke="black" d="M398.338,-584.557C485.892,-572.363 686.599,-543.876 700,-537.132 723.982,-525.064 723.57,-513.233 743,-494.706 753.548,-484.648 765.289,-473.757 775.632,-464.264"/>
<polygon fill="#cb10f9" stroke="black" points="778.212,-466.647 783.226,-457.314 773.486,-461.483 778.212,-466.647"/>
</g>
<!-- telereddit_content_type&#45;&gt;telereddit_tests_test_services -->
<g id="edge41" class="edge"><title>telereddit_content_type&#45;&gt;telereddit_tests_test_services</title><style>.edge>path:hover{stroke-width:8}</style>
<path fill="none" stroke="black" d="M327.76,-578.264C308.327,-569.372 283.687,-555.566 267,-537.132 234.662,-501.409 222,-486.679 222,-438.492 222,-438.492 222,-438.492 222,-358.066 222,-329.999 220.762,-298.049 219.663,-275.227"/>
<polygon fill="#cb10f9" stroke="black" points="223.153,-274.935 219.157,-265.123 216.162,-275.285 223.153,-274.935"/>
</g>
<!-- telereddit_services_generic_service -->
<g id="node25" class="node"><title>telereddit_services_generic_service</title><style>.edge>path:hover{stroke-width:8}</style>
<ellipse fill="#9238a8" stroke="black" cx="406" cy="-437.492" rx="58.8803" ry="21.4286"/>
<text text-anchor="middle" x="406" y="-440.492" font-family="Helvetica,sans-Serif" font-size="10.00" fill="#ffffff">services.</text>
<text text-anchor="middle" x="406" y="-429.492" font-family="Helvetica,sans-Serif" font-size="10.00" fill="#ffffff">generic_service</text>
</g>
<!-- telereddit_content_type&#45;&gt;telereddit_services_generic_service -->
<g id="edge35" class="edge"><title>telereddit_content_type&#45;&gt;telereddit_services_generic_service</title><style>.edge>path:hover{stroke-width:8}</style>
<path fill="none" stroke="black" d="M361.155,-572.974C364.931,-553.663 371.9,-521.491 381,-494.706 384.045,-485.741 387.979,-476.245 391.821,-467.661"/>
<polygon fill="#cb10f9" stroke="black" points="395.067,-468.98 396.067,-458.432 388.707,-466.054 395.067,-468.98"/>
</g>
<!-- telereddit_services_youtube_service -->
<g id="node26" class="node"><title>telereddit_services_youtube_service</title><style>.edge>path:hover{stroke-width:8}</style>
<ellipse fill="#8b35a1" stroke="black" cx="669" cy="-437.492" rx="60.623" ry="21.4286"/>
<text text-anchor="middle" x="669" y="-440.492" font-family="Helvetica,sans-Serif" font-size="10.00" fill="#ffffff">services.</text>
<text text-anchor="middle" x="669" y="-429.492" font-family="Helvetica,sans-Serif" font-size="10.00" fill="#ffffff">youtube_service</text>
</g>
<!-- telereddit_content_type&#45;&gt;telereddit_services_youtube_service -->
<g id="edge39" class="edge"><title>telereddit_content_type&#45;&gt;telereddit_services_youtube_service</title><style>.edge>path:hover{stroke-width:8}</style>
<path fill="none" stroke="black" d="M385.055,-576.94C439.003,-550.636 560.364,-491.462 625.586,-459.66"/>
<polygon fill="#cb10f9" stroke="black" points="627.333,-462.703 634.787,-455.174 624.265,-456.411 627.333,-462.703"/>
</g>
<!-- telereddit_config_config -->
<g id="node10" class="node"><title>telereddit_config_config</title><style>.edge>path:hover{stroke-width:8}</style>
<ellipse fill="#c806f9" stroke="black" cx="1289" cy="-738.345" rx="41.5911" ry="18"/>
<text text-anchor="middle" x="1289" y="-735.845" font-family="Helvetica,sans-Serif" font-size="10.00" fill="#ffffff">config.config</text>
</g>
<!-- telereddit_config_config&#45;&gt;telereddit_services_imgur_service -->
<g id="edge26" class="edge"><title>telereddit_config_config&#45;&gt;telereddit_services_imgur_service</title><style>.edge>path:hover{stroke-width:8}</style>
<path fill="none" stroke="black" d="M1247.49,-735.396C1144.15,-729.185 868.975,-704.237 664,-609.132 613.335,-585.624 592.743,-583.088 561,-537.132 547.064,-516.955 540.89,-489.66 538.159,-468.897"/>
<polygon fill="#c806f9" stroke="black" points="541.609,-468.257 537.021,-458.707 534.652,-469.033 541.609,-468.257"/>
</g>
<!-- telereddit_config_config&#45;&gt;telereddit_services_gfycat_service -->
<g id="edge25" class="edge"><title>telereddit_config_config&#45;&gt;telereddit_services_gfycat_service</title><style>.edge>path:hover{stroke-width:8}</style>
<path fill="none" stroke="black" d="M1246.99,-738.222C1185.82,-737.662 1070.54,-729.534 988,-681.132 952.067,-660.062 942.18,-648.299 928,-609.132 911.081,-562.402 918.896,-503.692 926.305,-468.736"/>
<polygon fill="#c806f9" stroke="black" points="929.785,-469.214 928.563,-458.689 922.955,-467.678 929.785,-469.214"/>
</g>
<!-- telereddit_config_config&#45;&gt;telereddit_helpers -->
<g id="edge22" class="edge"><title>telereddit_config_config&#45;&gt;telereddit_helpers</title><style>.edge>path:hover{stroke-width:8}</style>
<path fill="none" stroke="black" d="M1247.33,-736.697C1193.97,-734.058 1100.47,-723.188 1034,-681.132 1009.21,-665.449 989.782,-637.582 977.941,-617.198"/>
<polygon fill="#c806f9" stroke="black" points="980.975,-615.452 973.043,-608.429 974.864,-618.866 980.975,-615.452"/>
</g>
<!-- telereddit_linker -->
<g id="node18" class="node"><title>telereddit_linker</title><style>.edge>path:hover{stroke-width:8}</style>
<ellipse fill="#853399" stroke="black" cx="1234" cy="-168.426" rx="27" ry="18"/>
<text text-anchor="middle" x="1234" y="-165.926" font-family="Helvetica,sans-Serif" font-size="10.00" fill="#ffffff">linker</text>
</g>
<!-- telereddit_config_config&#45;&gt;telereddit_linker -->
<g id="edge23" class="edge"><title>telereddit_config_config&#45;&gt;telereddit_linker</title><style>.edge>path:hover{stroke-width:8}</style>
<path fill="none" stroke="black" d="M1296.51,-720.289C1307.58,-693.534 1327,-639.821 1327,-592.132 1327,-592.132 1327,-592.132 1327,-300.853 1327,-253.99 1287.11,-212.139 1259.58,-188.836"/>
<polygon fill="#c806f9" stroke="black" points="1261.45,-185.84 1251.49,-182.214 1257.01,-191.257 1261.45,-185.84"/>
</g>
<!-- telereddit_config_config&#45;&gt;telereddit_reddit -->
<g id="edge24" class="edge"><title>telereddit_config_config&#45;&gt;telereddit_reddit</title><style>.edge>path:hover{stroke-width:8}</style>
<path fill="none" stroke="black" d="M1285.29,-720.146C1271.17,-657.812 1215.73,-440.102 1103,-300.853 1089.39,-284.044 1069.51,-270.043 1052.98,-260.218"/>
<polygon fill="#c806f9" stroke="black" points="1054.61,-257.122 1044.2,-255.198 1051.14,-263.199 1054.61,-257.122"/>
</g>
<!-- telereddit_config_config&#45;&gt;telereddit_telereddit -->
<g id="edge27" class="edge"><title>telereddit_config_config&#45;&gt;telereddit_telereddit</title><style>.edge>path:hover{stroke-width:8}</style>
<path fill="none" stroke="black" d="M1325.71,-729.455C1385.42,-714.222 1497,-674.708 1497,-592.132 1497,-592.132 1497,-592.132 1497,-242.64 1497,-161.073 1389.71,-120.108 1329.24,-103.498"/>
<polygon fill="#c806f9" stroke="black" points="1329.81,-100.028 1319.24,-100.857 1328.02,-106.796 1329.81,-100.028"/>
</g>
<!-- telereddit_services -->
<g id="node11" class="node"><title>telereddit_services</title><style>.edge>path:hover{stroke-width:8}</style>
<ellipse fill="#cb10f9" stroke="black" cx="340" cy="-359.066" rx="30.7213" ry="18"/>
<text text-anchor="middle" x="340" y="-356.566" font-family="Helvetica,sans-Serif" font-size="10.00" fill="#ffffff">services</text>
</g>
<!-- telereddit_services&#45;&gt;telereddit_reddit -->
<g id="edge51" class="edge"><title>telereddit_services&#45;&gt;telereddit_reddit</title><style>.edge>path:hover{stroke-width:8}</style>
<path fill="none" stroke="black" d="M351.077,-342.154C361.484,-328.614 378.367,-309.955 398,-300.853 503.431,-251.971 867.193,-245.522 985.5,-244.73"/>
<polygon fill="#cb10f9" stroke="black" points="985.867,-248.228 995.847,-244.671 985.828,-241.228 985.867,-248.228"/>
</g>
<!-- telereddit_services&#45;&gt;telereddit_tests_test_services -->
<g id="edge52" class="edge"><title>telereddit_services&#45;&gt;telereddit_tests_test_services</title><style>.edge>path:hover{stroke-width:8}</style>
<path fill="none" stroke="black" d="M324.051,-343.237C304.235,-324.814 270.089,-293.068 245.901,-270.58"/>
<polygon fill="#cb10f9" stroke="black" points="248.136,-267.878 238.429,-263.633 243.369,-273.005 248.136,-267.878"/>
</g>
<!-- telereddit_config_secret -->
<g id="node12" class="node"><title>telereddit_config_secret</title><style>.edge>path:hover{stroke-width:8}</style>
<ellipse fill="#c022e7" stroke="black" cx="1751" cy="-973.411" rx="42.2678" ry="18"/>
<text text-anchor="middle" x="1751" y="-970.911" font-family="Helvetica,sans-Serif" font-size="10.00" fill="#ffffff">config.secret</text>
</g>
<!-- telereddit_config_secret&#45;&gt;telereddit_config_secret_prod -->
<g id="edge31" class="edge"><title>telereddit_config_secret&#45;&gt;telereddit_config_secret_prod</title><style>.edge>path:hover{stroke-width:8}</style>
<path fill="none" stroke="black" d="M1718.23,-961.623C1698.35,-953.307 1674.31,-939.738 1661,-919.411 1647.88,-899.379 1645.46,-872.072 1645.99,-851.267"/>
<polygon fill="#c022e7" stroke="black" points="1649.5,-851.215 1646.5,-841.053 1642.51,-850.867 1649.5,-851.215"/>
</g>
<!-- telereddit_config_secret_dev -->
<g id="node14" class="node"><title>telereddit_config_secret_dev</title><style>.edge>path:hover{stroke-width:8}</style>
<ellipse fill="#a02fbc" stroke="black" cx="1715" cy="-898.198" rx="44.5955" ry="21.4286"/>
<text text-anchor="middle" x="1715" y="-901.198" font-family="Helvetica,sans-Serif" font-size="10.00" fill="#ffffff">config.</text>
<text text-anchor="middle" x="1715" y="-890.198" font-family="Helvetica,sans-Serif" font-size="10.00" fill="#ffffff">secret_dev</text>
</g>
<!-- telereddit_config_secret&#45;&gt;telereddit_config_secret_dev -->
<g id="edge28" class="edge"><title>telereddit_config_secret&#45;&gt;telereddit_config_secret_dev</title><style>.edge>path:hover{stroke-width:8}</style>
<path fill="none" stroke="black" d="M1742.65,-955.431C1738.63,-947.257 1733.7,-937.23 1729.12,-927.917"/>
<polygon fill="#c022e7" stroke="black" points="1732.26,-926.368 1724.71,-918.938 1725.98,-929.456 1732.26,-926.368"/>
</g>
<!-- telereddit_config_secret_github -->
<g id="node16" class="node"><title>telereddit_config_secret_github</title><style>.edge>path:hover{stroke-width:8}</style>
<ellipse fill="#8b439d" stroke="black" cx="1781" cy="-819.772" rx="53.066" ry="21.4286"/>
<text text-anchor="middle" x="1781" y="-822.772" font-family="Helvetica,sans-Serif" font-size="10.00" fill="#ffffff">config.</text>
<text text-anchor="middle" x="1781" y="-811.772" font-family="Helvetica,sans-Serif" font-size="10.00" fill="#ffffff">secret_github</text>
</g>
<!-- telereddit_config_secret&#45;&gt;telereddit_config_secret_github -->
<g id="edge30" class="edge"><title>telereddit_config_secret&#45;&gt;telereddit_config_secret_github</title><style>.edge>path:hover{stroke-width:8}</style>
<path fill="none" stroke="black" d="M1757.75,-955.483C1761.59,-945.203 1766.19,-931.728 1769,-919.411 1774.15,-896.847 1777.19,-870.843 1778.93,-851.202"/>
<polygon fill="#c022e7" stroke="black" points="1782.44,-851.259 1779.76,-841.006 1775.46,-850.688 1782.44,-851.259"/>
</g>
<!-- telereddit_config_secret_generic -->
<g id="node17" class="node"><title>telereddit_config_secret_generic</title><style>.edge>path:hover{stroke-width:8}</style>
<ellipse fill="#9246a4" stroke="black" cx="1873" cy="-898.198" rx="56.6372" ry="21.4286"/>
<text text-anchor="middle" x="1873" y="-901.198" font-family="Helvetica,sans-Serif" font-size="10.00" fill="#ffffff">config.</text>
<text text-anchor="middle" x="1873" y="-890.198" font-family="Helvetica,sans-Serif" font-size="10.00" fill="#ffffff">secret_generic</text>
</g>
<!-- telereddit_config_secret&#45;&gt;telereddit_config_secret_generic -->
<g id="edge29" class="edge"><title>telereddit_config_secret&#45;&gt;telereddit_config_secret_generic</title><style>.edge>path:hover{stroke-width:8}</style>
<path fill="none" stroke="black" d="M1774.52,-958.295C1791.7,-947.989 1815.34,-933.801 1835.15,-921.91"/>
<polygon fill="#c022e7" stroke="black" points="1837.18,-924.777 1843.95,-916.63 1833.58,-918.774 1837.18,-924.777"/>
</g>
<!-- telereddit_helpers&#45;&gt;telereddit_linker -->
<g id="edge42" class="edge"><title>telereddit_helpers&#45;&gt;telereddit_linker</title><style>.edge>path:hover{stroke-width:8}</style>
<path fill="none" stroke="black" d="M993.464,-590.501C1034.38,-589.405 1109.47,-581.04 1151,-537.132 1198.04,-487.398 1223.63,-273.375 1231.41,-196.802"/>
<polygon fill="#b005db" stroke="black" points="1234.92,-196.834 1232.43,-186.537 1227.96,-196.143 1234.92,-196.834"/>
</g>
<!-- telereddit_helpers&#45;&gt;telereddit_reddit -->
<g id="edge43" class="edge"><title>telereddit_helpers&#45;&gt;telereddit_reddit</title><style>.edge>path:hover{stroke-width:8}</style>
<path fill="none" stroke="black" d="M986.835,-579.446C1003.08,-570.38 1024.53,-555.865 1037,-537.132 1062.01,-499.577 1061,-483.611 1061,-438.492 1061,-438.492 1061,-438.492 1061,-358.066 1061,-326.588 1047.68,-292.623 1036.81,-270.151"/>
<polygon fill="#b005db" stroke="black" points="1039.82,-268.337 1032.2,-260.974 1033.56,-271.481 1039.82,-268.337"/>
</g>
<!-- telereddit_helpers&#45;&gt;telereddit_telereddit -->
<g id="edge46" class="edge"><title>telereddit_helpers&#45;&gt;telereddit_telereddit</title><style>.edge>path:hover{stroke-width:8}</style>
<path fill="none" stroke="black" d="M989.811,-582.32C1011.65,-574.256 1042.86,-559.65 1062,-537.132 1179.99,-398.311 1083.75,-292.341 1198,-150.426 1212.64,-132.236 1234.86,-118.353 1253.67,-108.934"/>
<polygon fill="#b005db" stroke="black" points="1255.35,-112.012 1262.87,-104.543 1252.33,-105.695 1255.35,-112.012"/>
</g>
<!-- telereddit_helpers&#45;&gt;telereddit_services_vreddit_service -->
<g id="edge44" class="edge"><title>telereddit_helpers&#45;&gt;telereddit_services_vreddit_service</title><style>.edge>path:hover{stroke-width:8}</style>
<path fill="none" stroke="black" d="M949.854,-575.866C922.781,-550.368 865.734,-496.637 831.559,-464.449"/>
<polygon fill="#b005db" stroke="black" points="833.899,-461.845 824.22,-457.537 829.1,-466.941 833.899,-461.845"/>
</g>
<!-- telereddit_helpers&#45;&gt;telereddit_tests_test_helpers -->
<g id="edge47" class="edge"><title>telereddit_helpers&#45;&gt;telereddit_tests_test_helpers</title><style>.edge>path:hover{stroke-width:8}</style>
<path fill="none" stroke="black" d="M937.298,-586.547C876.707,-578.601 727.91,-558.51 604,-537.132 441.695,-509.129 250.953,-469.325 160.188,-449.96"/>
<polygon fill="#b005db" stroke="black" points="160.919,-446.537 150.408,-447.87 159.456,-453.383 160.919,-446.537"/>
</g>
<!-- telereddit_helpers&#45;&gt;telereddit_services_youtube_service -->
<g id="edge45" class="edge"><title>telereddit_helpers&#45;&gt;telereddit_services_youtube_service</title><style>.edge>path:hover{stroke-width:8}</style>
<path fill="none" stroke="black" d="M943.712,-579.226C895.07,-554.307 775.041,-492.817 710.938,-459.977"/>
<polygon fill="#b005db" stroke="black" points="712.398,-456.792 701.902,-455.348 709.206,-463.022 712.398,-456.792"/>
</g>
<!-- telereddit_config_secret_dev&#45;&gt;telereddit_config_secret_prod -->
<g id="edge33" class="edge"><title>telereddit_config_secret_dev&#45;&gt;telereddit_config_secret_prod</title><style>.edge>path:hover{stroke-width:8}</style>
<path fill="none" stroke="black" d="M1698.69,-878.306C1690.73,-869.098 1681.03,-857.859 1672.31,-847.765"/>
<polygon fill="#a02fbc" stroke="black" points="1674.77,-845.258 1665.59,-839.977 1669.47,-849.833 1674.77,-845.258"/>
</g>
<!-- telereddit_config_secret_dev&#45;&gt;telereddit_config_secret_github -->
<g id="edge32" class="edge"><title>telereddit_config_secret_dev&#45;&gt;telereddit_config_secret_github</title><style>.edge>path:hover{stroke-width:8}</style>
<path fill="none" stroke="black" d="M1731.31,-878.306C1739.27,-869.098 1748.97,-857.859 1757.69,-847.765"/>
<polygon fill="#a02fbc" stroke="black" points="1760.53,-849.833 1764.41,-839.977 1755.23,-845.258 1760.53,-849.833"/>
</g>
<!-- telereddit_services_service&#45;&gt;telereddit_services_imgur_service -->
<g id="edge58" class="edge"><title>telereddit_services_service&#45;&gt;telereddit_services_imgur_service</title><style>.edge>path:hover{stroke-width:8}</style>
<path fill="none" stroke="black" d="M627.965,-499.083C611.654,-488.337 589.811,-473.946 571.505,-461.885"/>
<polygon fill="#c50cf3" stroke="black" points="573.119,-458.757 562.843,-456.178 569.268,-464.602 573.119,-458.757"/>
</g>
<!-- telereddit_services_service&#45;&gt;telereddit_services_gfycat_service -->
<g id="edge57" class="edge"><title>telereddit_services_service&#45;&gt;telereddit_services_gfycat_service</title><style>.edge>path:hover{stroke-width:8}</style>
<path fill="none" stroke="black" d="M686.891,-506.533C730.067,-496.016 805.751,-477.121 870,-458.706 874.339,-457.462 878.83,-456.132 883.327,-454.77"/>
<polygon fill="#c50cf3" stroke="black" points="884.597,-458.042 893.128,-451.759 882.541,-451.35 884.597,-458.042"/>
</g>
<!-- telereddit_services_service&#45;&gt;telereddit_services_vreddit_service -->
<g id="edge59" class="edge"><title>telereddit_services_service&#45;&gt;telereddit_services_vreddit_service</title><style>.edge>path:hover{stroke-width:8}</style>
<path fill="none" stroke="black" d="M679.879,-500.901C702.956,-489.298 736.087,-472.639 762.316,-459.451"/>
<polygon fill="#c50cf3" stroke="black" points="763.916,-462.564 771.278,-454.945 760.772,-456.31 763.916,-462.564"/>
</g>
<!-- telereddit_services_service&#45;&gt;telereddit_services_generic_service -->
<g id="edge56" class="edge"><title>telereddit_services_service&#45;&gt;telereddit_services_generic_service</title><style>.edge>path:hover{stroke-width:8}</style>
<path fill="none" stroke="black" d="M618.823,-504.612C577.843,-491.88 507.614,-470.062 459.101,-454.99"/>
<polygon fill="#c50cf3" stroke="black" points="459.989,-451.6 449.4,-451.976 457.912,-458.285 459.989,-451.6"/>
</g>
<!-- telereddit_services_service&#45;&gt;telereddit_services_youtube_service -->
<g id="edge60" class="edge"><title>telereddit_services_service&#45;&gt;telereddit_services_youtube_service</title><style>.edge>path:hover{stroke-width:8}</style>
<path fill="none" stroke="black" d="M656.467,-494.839C658.248,-486.828 660.338,-477.434 662.295,-468.637"/>
<polygon fill="#c50cf3" stroke="black" points="665.749,-469.225 664.504,-458.704 658.916,-467.705 665.749,-469.225"/>
</g>
<!-- telereddit_linker&#45;&gt;telereddit_telereddit -->
<g id="edge48" class="edge"><title>telereddit_linker&#45;&gt;telereddit_telereddit</title><style>.edge>path:hover{stroke-width:8}</style>
<path fill="none" stroke="black" d="M1245.66,-151.9C1253,-142.133 1262.62,-129.329 1270.93,-118.265"/>
<polygon fill="#853399" stroke="black" points="1273.76,-120.321 1276.97,-110.224 1268.17,-116.117 1273.76,-120.321"/>
</g>
<!-- telereddit_reddit&#45;&gt;telereddit_tests_test_reddit -->
<g id="edge50" class="edge"><title>telereddit_reddit&#45;&gt;telereddit_tests_test_reddit</title><style>.edge>path:hover{stroke-width:8}</style>
<path fill="none" stroke="black" d="M998.394,-235.876C914.86,-212.916 641.171,-137.689 530.286,-107.21"/>
<polygon fill="#7d2493" stroke="black" points="530.958,-103.765 520.388,-104.49 529.103,-110.515 530.958,-103.765"/>
</g>
<!-- telereddit_reddit&#45;&gt;telereddit_linker -->
<g id="edge49" class="edge"><title>telereddit_reddit&#45;&gt;telereddit_linker</title><style>.edge>path:hover{stroke-width:8}</style>
<path fill="none" stroke="black" d="M1046.39,-234.525C1083.94,-221.496 1157.8,-195.866 1200.8,-180.947"/>
<polygon fill="#7d2493" stroke="black" points="1202.21,-184.162 1210.51,-177.578 1199.91,-177.549 1202.21,-184.162"/>
</g>
<!-- telereddit___main__ -->
<g id="node21" class="node"><title>telereddit___main__</title><style>.edge>path:hover{stroke-width:8}</style>
<ellipse fill="#9849ac" stroke="black" cx="1289" cy="-18" rx="34.9638" ry="18"/>
<text text-anchor="middle" x="1289" y="-15.5" font-family="Helvetica,sans-Serif" font-size="10.00" fill="#ffffff">__main__</text>
</g>
<!-- telereddit_telereddit&#45;&gt;telereddit___main__ -->
<g id="edge65" class="edge"><title>telereddit_telereddit&#45;&gt;telereddit___main__</title><style>.edge>path:hover{stroke-width:8}</style>
<path fill="none" stroke="black" d="M1289,-74.8627C1289,-66.3831 1289,-55.9765 1289,-46.4531"/>
<polygon fill="#632673" stroke="black" points="1292.5,-46.2259 1289,-36.226 1285.5,-46.226 1292.5,-46.2259"/>
</g>
<!-- telereddit_services_vreddit_service&#45;&gt;telereddit_services_services_wrapper -->
<g id="edge63" class="edge"><title>telereddit_services_vreddit_service&#45;&gt;telereddit_services_services_wrapper</title><style>.edge>path:hover{stroke-width:8}</style>
<path fill="none" stroke="black" d="M773.703,-419.341C754.607,-408.53 729.733,-394.448 709.021,-382.723"/>
<polygon fill="#853399" stroke="black" points="710.559,-379.571 700.132,-377.69 707.11,-385.663 710.559,-379.571"/>
</g>
<!-- telereddit_services_generic_service&#45;&gt;telereddit_services_services_wrapper -->
<g id="edge53" class="edge"><title>telereddit_services_generic_service&#45;&gt;telereddit_services_services_wrapper</title><style>.edge>path:hover{stroke-width:8}</style>
<path fill="none" stroke="black" d="M449.583,-423.249C457.375,-420.909 465.424,-418.508 473,-416.279 519.647,-402.554 572.664,-387.374 611.786,-376.252"/>
<polygon fill="#9238a8" stroke="black" points="612.757,-379.614 621.42,-373.515 610.844,-372.881 612.757,-379.614"/>
</g>
<!-- telereddit_services_youtube_service&#45;&gt;telereddit_services_services_wrapper -->
<g id="edge64" class="edge"><title>telereddit_services_youtube_service&#45;&gt;telereddit_services_services_wrapper</title><style>.edge>path:hover{stroke-width:8}</style>
<path fill="none" stroke="black" d="M669,-416.012C669,-408.153 669,-399.009 669,-390.418"/>
<polygon fill="#8b35a1" stroke="black" points="672.5,-390.338 669,-380.338 665.5,-390.338 672.5,-390.338"/>
</g>
<!-- telereddit_config -->
<g id="node27" class="node"><title>telereddit_config</title><style>.edge>path:hover{stroke-width:8}</style>
<ellipse fill="#cb10f9" stroke="black" cx="1070" cy="-663.132" rx="27" ry="18"/>
<text text-anchor="middle" x="1070" y="-660.632" font-family="Helvetica,sans-Serif" font-size="10.00" fill="#ffffff">config</text>
</g>
<!-- telereddit_config&#45;&gt;telereddit_services_imgur_service -->
<g id="edge20" class="edge"><title>telereddit_config&#45;&gt;telereddit_services_imgur_service</title><style>.edge>path:hover{stroke-width:8}</style>
<path fill="none" stroke="black" d="M1043.11,-661.248C967.114,-657.516 747.023,-638.087 604,-537.132 579.169,-519.605 560.53,-489.948 549.104,-467.72"/>
<polygon fill="#cb10f9" stroke="black" points="552.218,-466.122 544.652,-458.706 545.942,-469.222 552.218,-466.122"/>
</g>
<!-- telereddit_config&#45;&gt;telereddit_services_gfycat_service -->
<g id="edge19" class="edge"><title>telereddit_config&#45;&gt;telereddit_services_gfycat_service</title><style>.edge>path:hover{stroke-width:8}</style>
<path fill="none" stroke="black" d="M1060.22,-646.048C1037.39,-608.507 980.335,-514.687 951.406,-467.115"/>
<polygon fill="#cb10f9" stroke="black" points="954.366,-465.246 946.179,-458.52 948.385,-468.883 954.366,-465.246"/>
</g>
<!-- telereddit_config&#45;&gt;telereddit_helpers -->
<g id="edge16" class="edge"><title>telereddit_config&#45;&gt;telereddit_helpers</title><style>.edge>path:hover{stroke-width:8}</style>
<path fill="none" stroke="black" d="M1051.23,-649.617C1034.83,-638.686 1010.82,-622.68 992.299,-610.331"/>
<polygon fill="#cb10f9" stroke="black" points="994.225,-607.409 983.963,-604.774 990.342,-613.234 994.225,-607.409"/>
</g>
<!-- telereddit_config&#45;&gt;telereddit_linker -->
<g id="edge17" class="edge"><title>telereddit_config&#45;&gt;telereddit_linker</title><style>.edge>path:hover{stroke-width:8}</style>
<path fill="none" stroke="black" d="M1086.06,-648.246C1130.36,-608.316 1251,-487.84 1251,-360.066 1251,-360.066 1251,-360.066 1251,-300.853 1251,-264.455 1244.51,-222.851 1239.55,-196.377"/>
<polygon fill="#cb10f9" stroke="black" points="1242.94,-195.501 1237.61,-186.349 1236.07,-196.832 1242.94,-195.501"/>
</g>
<!-- telereddit_config&#45;&gt;telereddit_reddit -->
<g id="edge18" class="edge"><title>telereddit_config&#45;&gt;telereddit_reddit</title><style>.edge>path:hover{stroke-width:8}</style>
<path fill="none" stroke="black" d="M1075.59,-645.359C1084.02,-618.544 1099,-564.222 1099,-516.919 1099,-516.919 1099,-516.919 1099,-358.066 1099,-320.323 1069.6,-285.651 1047.37,-264.831"/>
<polygon fill="#cb10f9" stroke="black" points="1049.64,-262.161 1039.87,-258.062 1044.95,-267.359 1049.64,-262.161"/>
</g>
<!-- telereddit_config&#45;&gt;telereddit_telereddit -->
<g id="edge21" class="edge"><title>telereddit_config&#45;&gt;telereddit_telereddit</title><style>.edge>path:hover{stroke-width:8}</style>
<path fill="none" stroke="black" d="M1091.44,-651.816C1109.97,-642.287 1136.86,-626.942 1157,-609.132 1250.84,-526.133 1289,-485.347 1289,-360.066 1289,-360.066 1289,-360.066 1289,-242.64 1289,-200.412 1289,-151.426 1289,-121.638"/>
<polygon fill="#cb10f9" stroke="black" points="1292.5,-121.58 1289,-111.58 1285.5,-121.58 1292.5,-121.58"/>
</g>
<!-- telereddit_services_services_wrapper&#45;&gt;telereddit_reddit -->
<g id="edge61" class="edge"><title>telereddit_services_services_wrapper&#45;&gt;telereddit_reddit</title><style>.edge>path:hover{stroke-width:8}</style>
<path fill="none" stroke="black" d="M713.834,-343.7C785.711,-320.67 925.142,-275.995 989.258,-255.451"/>
<polygon fill="#84269b" stroke="black" points="990.424,-258.753 998.879,-252.368 988.288,-252.087 990.424,-258.753"/>
</g>
<!-- telereddit_services_services_wrapper&#45;&gt;telereddit_tests_test_services -->
<g id="edge62" class="edge"><title>telereddit_services_services_wrapper&#45;&gt;telereddit_tests_test_services</title><style>.edge>path:hover{stroke-width:8}</style>
<path fill="none" stroke="black" d="M619.012,-345.494C533.329,-323.945 359.172,-280.144 271.28,-258.04"/>
<polygon fill="#84269b" stroke="black" points="272.064,-254.628 261.513,-255.583 270.357,-261.416 272.064,-254.628"/>
</g>
<!-- telegram -->
<g id="node29" class="node"><title>telegram</title><style>.edge>path:hover{stroke-width:8}</style>
<polygon fill="#266ed9" stroke="black" points="1562,-991.411 1559,-995.411 1538,-995.411 1535,-991.411 1508,-991.411 1508,-955.411 1562,-955.411 1562,-991.411"/>
<text text-anchor="middle" x="1535" y="-970.911" font-family="Helvetica,sans-Serif" font-size="10.00" fill="#ffffff">telegram</text>
</g>
<!-- telegram&#45;&gt;telereddit_config_config -->
<g id="edge13" class="edge"><title>telegram&#45;&gt;telereddit_config_config</title><style>.edge>path:hover{stroke-width:8}</style>
<path fill="none" stroke="black" d="M1516.91,-955.273C1473.2,-913.862 1361.84,-808.354 1312.8,-761.892"/>
<polygon fill="#266ed9" stroke="black" points="1315.15,-759.299 1305.48,-754.962 1310.34,-764.38 1315.15,-759.299"/>
</g>
<!-- telegram&#45;&gt;telereddit_linker -->
<g id="edge14" class="edge"><title>telegram&#45;&gt;telereddit_linker</title><style>.edge>path:hover{stroke-width:8}</style>
<path fill="none" stroke="black" d="M1535,-955.128C1535,-926.978 1535,-869.475 1535,-820.772 1535,-820.772 1535,-820.772 1535,-358.066 1535,-283.701 1440.07,-337.821 1381,-292.64 1347.31,-266.872 1354.36,-245.05 1322,-217.64 1305.18,-203.39 1283.48,-191.446 1265.84,-183.011"/>
<polygon fill="#266ed9" stroke="black" points="1267.06,-179.718 1256.51,-178.693 1264.12,-186.07 1267.06,-179.718"/>
</g>
<!-- telegram&#45;&gt;telereddit_telereddit -->
<g id="edge15" class="edge"><title>telegram&#45;&gt;telereddit_telereddit</title><style>.edge>path:hover{stroke-width:8}</style>
<path fill="none" stroke="black" d="M1542.33,-955.024C1553.37,-927.199 1573,-870.71 1573,-820.772 1573,-820.772 1573,-820.772 1573,-242.64 1573,-135.089 1411.05,-105.332 1331.74,-97.2074"/>
<polygon fill="#266ed9" stroke="black" points="1331.87,-93.7037 1321.58,-96.2388 1331.2,-100.672 1331.87,-93.7037"/>
</g>
</g>
</svg>
