<?xml version="1.0" encoding="UTF-8" standalone="no"?>
<!DOCTYPE svg PUBLIC "-//W3C//DTD SVG 1.1//EN"
 "http://www.w3.org/Graphics/SVG/1.1/DTD/svg11.dtd">
<!-- Generated by graphviz version 2.38.0 (20140413.2041)
 -->
<!-- Title: G Pages: 1 -->
<svg width="1862pt" height="999pt"
 viewBox="0.00 0.00 1862.03 999.41" xmlns="http://www.w3.org/2000/svg" xmlns:xlink="http://www.w3.org/1999/xlink">
<g id="graph0" class="graph" transform="scale(1 1) rotate(0) translate(4 995.411)">
<title>G</title><style>.edge>path:hover{stroke-width:8}</style>
<polygon fill="white" stroke="none" points="-4,4 -4,-995.411 1858.03,-995.411 1858.03,4 -4,4"/>
<g id="clust1" class="cluster"><title>cluster_parameterized</title><style>.edge>path:hover{stroke-width:8}</style>
<polygon fill="none" stroke="black" points="36,-637.132 36,-790.558 166,-790.558 166,-637.132 36,-637.132"/>
<text text-anchor="middle" x="101" y="-775.358" font-family="Times New Roman,serif" font-size="14.00">parameterized</text>
</g>
<g id="clust3" class="cluster"><title>cluster_sentrysdk</title><style>.edge>path:hover{stroke-width:8}</style>
<polygon fill="none" stroke="black" points="1512,-217.64 1512,-292.64 1604,-292.64 1604,-217.64 1512,-217.64"/>
<text text-anchor="middle" x="1558" y="-277.44" font-family="Times New Roman,serif" font-size="14.00">sentrysdk</text>
</g>
<g id="clust2" class="cluster"><title>cluster_requests</title><style>.edge>path:hover{stroke-width:8}</style>
<polygon fill="none" stroke="black" points="732,-712.345 732,-787.345 812,-787.345 812,-712.345 732,-712.345"/>
<text text-anchor="middle" x="772" y="-772.145" font-family="Times New Roman,serif" font-size="14.00">requests</text>
</g>
<!-- parameterized -->
<g id="node1" class="node"><title>parameterized</title><style>.edge>path:hover{stroke-width:8}</style>
<ellipse fill="#c04040" stroke="black" cx="112" cy="-663.132" rx="45.8316" ry="18"/>
<text text-anchor="middle" x="112" y="-660.632" font-family="Helvetica,sans-Serif" font-size="10.00" fill="#ffffff">parameterized</text>
</g>
<!-- telereddit_tests_test_helpers -->
<g id="node6" class="node"><title>telereddit_tests_test_helpers</title><style>.edge>path:hover{stroke-width:8}</style>
<ellipse fill="#8b439d" stroke="black" cx="93" cy="-437.492" rx="49.4949" ry="21.4286"/>
<text text-anchor="middle" x="93" y="-440.492" font-family="Helvetica,sans-Serif" font-size="10.00" fill="#ffffff">tests.</text>
<text text-anchor="middle" x="93" y="-429.492" font-family="Helvetica,sans-Serif" font-size="10.00" fill="#ffffff">test_helpers</text>
</g>
<!-- parameterized&#45;&gt;telereddit_tests_test_helpers -->
<g id="edge1" class="edge"><title>parameterized&#45;&gt;telereddit_tests_test_helpers</title><style>.edge>path:hover{stroke-width:8}</style>
<path fill="none" stroke="black" d="M109.889,-637.28C106.385,-596.045 99.3821,-513.613 95.5873,-468.947"/>
<polygon fill="#000000" stroke="black" points="99.0692,-468.583 94.7351,-458.916 92.0943,-469.176 99.0692,-468.583"/>
</g>
<!-- telereddit_tests_test_services -->
<g id="node15" class="node"><title>telereddit_tests_test_services</title><style>.edge>path:hover{stroke-width:8}</style>
<ellipse fill="#7e3d8f" stroke="black" cx="220" cy="-243.64" rx="52.1524" ry="21.4286"/>
<text text-anchor="middle" x="220" y="-246.64" font-family="Helvetica,sans-Serif" font-size="10.00" fill="#ffffff">tests.</text>
<text text-anchor="middle" x="220" y="-235.64" font-family="Helvetica,sans-Serif" font-size="10.00" fill="#ffffff">test_services</text>
</g>
<!-- parameterized&#45;&gt;telereddit_tests_test_services -->
<g id="edge2" class="edge"><title>parameterized&#45;&gt;telereddit_tests_test_services</title><style>.edge>path:hover{stroke-width:8}</style>
<path fill="none" stroke="black" d="M118.442,-637.229C137.216,-564.654 191.837,-353.508 212.214,-274.736"/>
<polygon fill="#000000" stroke="black" points="215.605,-275.604 214.721,-265.047 208.828,-273.851 215.605,-275.604"/>
</g>
<!-- parameterized_parameterized -->
<g id="node2" class="node"><title>parameterized_parameterized</title><style>.edge>path:hover{stroke-width:8}</style>
<ellipse fill="#ce3b3b" stroke="black" cx="101" cy="-738.345" rx="57.0522" ry="21.4286"/>
<text text-anchor="middle" x="101" y="-741.345" font-family="Helvetica,sans-Serif" font-size="10.00" fill="#ffffff">parameterized.</text>
<text text-anchor="middle" x="101" y="-730.345" font-family="Helvetica,sans-Serif" font-size="10.00" fill="#ffffff">parameterized</text>
</g>
<!-- parameterized_parameterized&#45;&gt;parameterized -->
<g id="edge3" class="edge"><title>parameterized_parameterized&#45;&gt;parameterized</title><style>.edge>path:hover{stroke-width:8}</style>
<path fill="none" stroke="black" d="M104.064,-716.951C105.244,-709.097 106.612,-699.996 107.876,-691.583"/>
<polygon fill="#000000" stroke="black" points="111.375,-691.851 109.399,-681.442 104.452,-690.811 111.375,-691.851"/>
</g>
<!-- parameterized_parameterized&#45;&gt;telereddit_tests_test_helpers -->
<g id="edge4" class="edge"><title>parameterized_parameterized&#45;&gt;telereddit_tests_test_helpers</title><style>.edge>path:hover{stroke-width:8}</style>
<path fill="none" stroke="black" d="M47.9769,-637.326C42.3869,-573.626 64.6537,-505.725 79.854,-468.051"/>
<polygon fill="#000000" stroke="black" points="83.185,-469.156 83.7869,-458.578 76.72,-466.471 83.185,-469.156"/>
</g>
<!-- parameterized_parameterized&#45;&gt;telereddit_tests_test_services -->
<g id="edge5" class="edge"><title>parameterized_parameterized&#45;&gt;telereddit_tests_test_services</title><style>.edge>path:hover{stroke-width:8}</style>
<path fill="none" stroke="black" d="M36.4098,-678.269C16.6389,-653.969 0,-624.041 0,-592.132 0,-592.132 0,-592.132 0,-358.066 0,-286.276 93.6916,-259.879 158.791,-250.203"/>
<polygon fill="#000000" stroke="black" points="159.551,-253.631 168.975,-248.79 158.588,-246.698 159.551,-253.631"/>
</g>
<!-- requests -->
<g id="node3" class="node"><title>requests</title><style>.edge>path:hover{stroke-width:8}</style>
<ellipse fill="#c8f906" stroke="black" cx="772" cy="-738.345" rx="31.577" ry="18"/>
<text text-anchor="middle" x="772" y="-735.845" font-family="Helvetica,sans-Serif" font-size="10.00" fill="#000000">requests</text>
</g>
<!-- telereddit_helpers -->
<g id="node8" class="node"><title>telereddit_helpers</title><style>.edge>path:hover{stroke-width:8}</style>
<ellipse fill="#b005db" stroke="black" cx="1054" cy="-591.132" rx="28.0137" ry="18"/>
<text text-anchor="middle" x="1054" y="-588.632" font-family="Helvetica,sans-Serif" font-size="10.00" fill="#ffffff">helpers</text>
</g>
<!-- requests&#45;&gt;telereddit_helpers -->
<g id="edge6" class="edge"><title>requests&#45;&gt;telereddit_helpers</title><style>.edge>path:hover{stroke-width:8}</style>
<path fill="none" stroke="black" d="M811.617,-727.563C845.76,-718.257 895.758,-702.504 936,-681.132 971.523,-662.266 1007.78,-633.136 1030.56,-613.384"/>
<polygon fill="#000000" stroke="black" points="1033.12,-615.799 1038.32,-606.568 1028.5,-610.541 1033.12,-615.799"/>
</g>
<!-- telereddit_services_gfycat_service -->
<g id="node9" class="node"><title>telereddit_services_gfycat_service</title><style>.edge>path:hover{stroke-width:8}</style>
<ellipse fill="#7e3091" stroke="black" cx="345" cy="-437.492" rx="55.3091" ry="21.4286"/>
<text text-anchor="middle" x="345" y="-440.492" font-family="Helvetica,sans-Serif" font-size="10.00" fill="#ffffff">services.</text>
<text text-anchor="middle" x="345" y="-429.492" font-family="Helvetica,sans-Serif" font-size="10.00" fill="#ffffff">gfycat_service</text>
</g>
<!-- requests&#45;&gt;telereddit_services_gfycat_service -->
<g id="edge8" class="edge"><title>requests&#45;&gt;telereddit_services_gfycat_service</title><style>.edge>path:hover{stroke-width:8}</style>
<path fill="none" stroke="black" d="M732.005,-736.069C615.114,-731.932 280.246,-717.023 248,-681.132 192.625,-619.498 206.63,-566.495 248,-494.706 258.179,-477.042 276.267,-464.422 294.087,-455.676"/>
<polygon fill="#000000" stroke="black" points="295.698,-458.788 303.339,-451.449 292.789,-452.421 295.698,-458.788"/>
</g>
<!-- telereddit_services_vreddit_service -->
<g id="node13" class="node"><title>telereddit_services_vreddit_service</title><style>.edge>path:hover{stroke-width:8}</style>
<ellipse fill="#853399" stroke="black" cx="610" cy="-437.492" rx="56.6372" ry="21.4286"/>
<text text-anchor="middle" x="610" y="-440.492" font-family="Helvetica,sans-Serif" font-size="10.00" fill="#ffffff">services.</text>
<text text-anchor="middle" x="610" y="-429.492" font-family="Helvetica,sans-Serif" font-size="10.00" fill="#ffffff">vreddit_service</text>
</g>
<!-- requests&#45;&gt;telereddit_services_vreddit_service -->
<g id="edge11" class="edge"><title>requests&#45;&gt;telereddit_services_vreddit_service</title><style>.edge>path:hover{stroke-width:8}</style>
<path fill="none" stroke="black" d="M763.095,-712.491C746.252,-667.118 706.984,-568.726 658,-494.706 651.263,-484.525 642.904,-474.148 635.06,-465.126"/>
<polygon fill="#000000" stroke="black" points="637.614,-462.731 628.352,-457.586 632.384,-467.384 637.614,-462.731"/>
</g>
<!-- telereddit_services_imgur_service -->
<g id="node14" class="node"><title>telereddit_services_imgur_service</title><style>.edge>path:hover{stroke-width:8}</style>
<ellipse fill="#7e3091" stroke="black" cx="878" cy="-437.492" rx="53.9813" ry="21.4286"/>
<text text-anchor="middle" x="878" y="-440.492" font-family="Helvetica,sans-Serif" font-size="10.00" fill="#ffffff">services.</text>
<text text-anchor="middle" x="878" y="-429.492" font-family="Helvetica,sans-Serif" font-size="10.00" fill="#ffffff">imgur_service</text>
</g>
<!-- requests&#45;&gt;telereddit_services_imgur_service -->
<g id="edge9" class="edge"><title>requests&#45;&gt;telereddit_services_imgur_service</title><style>.edge>path:hover{stroke-width:8}</style>
<path fill="none" stroke="black" d="M780.824,-712.466C800.226,-657.766 846.525,-527.233 867.433,-468.285"/>
<polygon fill="#000000" stroke="black" points="870.792,-469.286 870.836,-458.691 864.194,-466.946 870.792,-469.286"/>
</g>
<!-- telereddit_services_service -->
<g id="node17" class="node"><title>telereddit_services_service</title><style>.edge>path:hover{stroke-width:8}</style>
<ellipse fill="#c50cf3" stroke="black" cx="610" cy="-515.919" rx="38.7821" ry="21.4286"/>
<text text-anchor="middle" x="610" y="-518.919" font-family="Helvetica,sans-Serif" font-size="10.00" fill="#ffffff">services.</text>
<text text-anchor="middle" x="610" y="-507.919" font-family="Helvetica,sans-Serif" font-size="10.00" fill="#ffffff">service</text>
</g>
<!-- requests&#45;&gt;telereddit_services_service -->
<g id="edge10" class="edge"><title>requests&#45;&gt;telereddit_services_service</title><style>.edge>path:hover{stroke-width:8}</style>
<path fill="none" stroke="black" d="M753.696,-712.44C723.078,-670.78 661.72,-587.292 630.004,-544.138"/>
<polygon fill="#000000" stroke="black" points="632.776,-541.999 624.034,-536.014 627.135,-546.144 632.776,-541.999"/>
</g>
<!-- telereddit_reddit -->
<g id="node21" class="node"><title>telereddit_reddit</title><style>.edge>path:hover{stroke-width:8}</style>
<ellipse fill="#7d2493" stroke="black" cx="998" cy="-243.64" rx="27" ry="18"/>
<text text-anchor="middle" x="998" y="-241.14" font-family="Helvetica,sans-Serif" font-size="10.00" fill="#ffffff">reddit</text>
</g>
<!-- requests&#45;&gt;telereddit_reddit -->
<g id="edge7" class="edge"><title>requests&#45;&gt;telereddit_reddit</title><style>.edge>path:hover{stroke-width:8}</style>
<path fill="none" stroke="black" d="M790.466,-712.476C797.595,-702.76 805.761,-691.485 813,-681.132 901.007,-555.266 954.615,-531.216 983,-380.279 989.997,-343.074 994.103,-299.469 996.201,-271.949"/>
<polygon fill="#000000" stroke="black" points="999.698,-272.12 996.933,-261.892 992.716,-271.612 999.698,-272.12"/>
</g>
<!-- sentry_sdk -->
<g id="node4" class="node"><title>sentry_sdk</title><style>.edge>path:hover{stroke-width:8}</style>
<ellipse fill="#40c073" stroke="black" cx="1558" cy="-243.64" rx="38.0276" ry="18"/>
<text text-anchor="middle" x="1558" y="-241.14" font-family="Helvetica,sans-Serif" font-size="10.00" fill="#000000">sentry_sdk</text>
</g>
<!-- telereddit_telereddit -->
<g id="node20" class="node"><title>telereddit_telereddit</title><style>.edge>path:hover{stroke-width:8}</style>
<ellipse fill="#632673" stroke="black" cx="1359" cy="-93.2132" rx="32.9303" ry="18"/>
<text text-anchor="middle" x="1359" y="-90.7132" font-family="Helvetica,sans-Serif" font-size="10.00" fill="#ffffff">telereddit</text>
</g>
<!-- sentry_sdk&#45;&gt;telereddit_telereddit -->
<g id="edge12" class="edge"><title>sentry_sdk&#45;&gt;telereddit_telereddit</title><style>.edge>path:hover{stroke-width:8}</style>
<path fill="none" stroke="black" d="M1549.75,-218.499C1541.58,-197.867 1527.2,-168.699 1506,-150.426 1475.65,-124.272 1431.84,-109.637 1399.95,-101.906"/>
<polygon fill="#000000" stroke="black" points="1400.57,-98.4582 1390.04,-99.6321 1399.01,-105.281 1400.57,-98.4582"/>
</g>
<!-- telereddit_config_secret -->
<g id="node5" class="node"><title>telereddit_config_secret</title><style>.edge>path:hover{stroke-width:8}</style>
<ellipse fill="#c022e7" stroke="black" cx="1698" cy="-973.411" rx="42.2678" ry="18"/>
<text text-anchor="middle" x="1698" y="-970.911" font-family="Helvetica,sans-Serif" font-size="10.00" fill="#ffffff">config.secret</text>
</g>
<!-- telereddit_config_secret_generic -->
<g id="node7" class="node"><title>telereddit_config_secret_generic</title><style>.edge>path:hover{stroke-width:8}</style>
<ellipse fill="#9246a4" stroke="black" cx="1577" cy="-898.198" rx="56.6372" ry="21.4286"/>
<text text-anchor="middle" x="1577" y="-901.198" font-family="Helvetica,sans-Serif" font-size="10.00" fill="#ffffff">config.</text>
<text text-anchor="middle" x="1577" y="-890.198" font-family="Helvetica,sans-Serif" font-size="10.00" fill="#ffffff">secret_generic</text>
</g>
<!-- telereddit_config_secret&#45;&gt;telereddit_config_secret_generic -->
<g id="edge29" class="edge"><title>telereddit_config_secret&#45;&gt;telereddit_config_secret_generic</title><style>.edge>path:hover{stroke-width:8}</style>
<path fill="none" stroke="black" d="M1674.67,-958.295C1657.64,-947.989 1634.19,-933.801 1614.54,-921.91"/>
<polygon fill="#c022e7" stroke="black" points="1616.18,-918.812 1605.81,-916.63 1612.55,-924.801 1616.18,-918.812"/>
</g>
<!-- telereddit_config_secret_prod -->
<g id="node23" class="node"><title>telereddit_config_secret_prod</title><style>.edge>path:hover{stroke-width:8}</style>
<ellipse fill="#8b439d" stroke="black" cx="1669" cy="-819.772" rx="48.1667" ry="21.4286"/>
<text text-anchor="middle" x="1669" y="-822.772" font-family="Helvetica,sans-Serif" font-size="10.00" fill="#ffffff">config.</text>
<text text-anchor="middle" x="1669" y="-811.772" font-family="Helvetica,sans-Serif" font-size="10.00" fill="#ffffff">secret_prod</text>
</g>
<!-- telereddit_config_secret&#45;&gt;telereddit_config_secret_prod -->
<g id="edge31" class="edge"><title>telereddit_config_secret&#45;&gt;telereddit_config_secret_prod</title><style>.edge>path:hover{stroke-width:8}</style>
<path fill="none" stroke="black" d="M1691.65,-955.45C1688.03,-945.158 1683.69,-931.682 1681,-919.411 1676.05,-896.804 1672.99,-870.802 1671.2,-851.172"/>
<polygon fill="#c022e7" stroke="black" points="1674.67,-850.652 1670.33,-840.985 1667.69,-851.245 1674.67,-850.652"/>
</g>
<!-- telereddit_config_secret_dev -->
<g id="node25" class="node"><title>telereddit_config_secret_dev</title><style>.edge>path:hover{stroke-width:8}</style>
<ellipse fill="#a02fbc" stroke="black" cx="1735" cy="-898.198" rx="44.5955" ry="21.4286"/>
<text text-anchor="middle" x="1735" y="-901.198" font-family="Helvetica,sans-Serif" font-size="10.00" fill="#ffffff">config.</text>
<text text-anchor="middle" x="1735" y="-890.198" font-family="Helvetica,sans-Serif" font-size="10.00" fill="#ffffff">secret_dev</text>
</g>
<!-- telereddit_config_secret&#45;&gt;telereddit_config_secret_dev -->
<g id="edge28" class="edge"><title>telereddit_config_secret&#45;&gt;telereddit_config_secret_dev</title><style>.edge>path:hover{stroke-width:8}</style>
<path fill="none" stroke="black" d="M1706.58,-955.431C1710.71,-947.257 1715.78,-937.23 1720.49,-927.917"/>
<polygon fill="#c022e7" stroke="black" points="1723.64,-929.442 1725.02,-918.938 1717.39,-926.285 1723.64,-929.442"/>
</g>
<!-- telereddit_config_secret_github -->
<g id="node27" class="node"><title>telereddit_config_secret_github</title><style>.edge>path:hover{stroke-width:8}</style>
<ellipse fill="#8b439d" stroke="black" cx="1801" cy="-819.772" rx="53.066" ry="21.4286"/>
<text text-anchor="middle" x="1801" y="-822.772" font-family="Helvetica,sans-Serif" font-size="10.00" fill="#ffffff">config.</text>
<text text-anchor="middle" x="1801" y="-811.772" font-family="Helvetica,sans-Serif" font-size="10.00" fill="#ffffff">secret_github</text>
</g>
<!-- telereddit_config_secret&#45;&gt;telereddit_config_secret_github -->
<g id="edge30" class="edge"><title>telereddit_config_secret&#45;&gt;telereddit_config_secret_github</title><style>.edge>path:hover{stroke-width:8}</style>
<path fill="none" stroke="black" d="M1730.67,-961.899C1750.86,-953.638 1775.43,-940.026 1789,-919.411 1802.17,-899.411 1804.58,-872.101 1804.04,-851.287"/>
<polygon fill="#c022e7" stroke="black" points="1807.52,-850.879 1803.52,-841.068 1800.53,-851.232 1807.52,-850.879"/>
</g>
<!-- telereddit_helpers&#45;&gt;telereddit_tests_test_helpers -->
<g id="edge47" class="edge"><title>telereddit_helpers&#45;&gt;telereddit_tests_test_helpers</title><style>.edge>path:hover{stroke-width:8}</style>
<path fill="none" stroke="black" d="M1026.13,-588.112C950.918,-582.449 737.64,-564.991 562,-537.132 409.24,-512.902 231.039,-471.851 144.89,-451.183"/>
<polygon fill="#b005db" stroke="black" points="145.638,-447.763 135.097,-448.826 144,-454.569 145.638,-447.763"/>
</g>
<!-- telereddit_helpers&#45;&gt;telereddit_services_vreddit_service -->
<g id="edge44" class="edge"><title>telereddit_helpers&#45;&gt;telereddit_services_vreddit_service</title><style>.edge>path:hover{stroke-width:8}</style>
<path fill="none" stroke="black" d="M1027.71,-584.456C989.839,-575.953 918.017,-558.591 859,-537.132 816.683,-521.746 808.681,-511.739 767,-494.706 732.056,-480.425 691.98,-466.109 661.064,-455.498"/>
<polygon fill="#b005db" stroke="black" points="661.961,-452.106 651.366,-452.188 659.7,-458.731 661.961,-452.106"/>
</g>
<!-- telereddit_linker -->
<g id="node18" class="node"><title>telereddit_linker</title><style>.edge>path:hover{stroke-width:8}</style>
<ellipse fill="#853399" stroke="black" cx="1226" cy="-168.426" rx="27" ry="18"/>
<text text-anchor="middle" x="1226" y="-165.926" font-family="Helvetica,sans-Serif" font-size="10.00" fill="#ffffff">linker</text>
</g>
<!-- telereddit_helpers&#45;&gt;telereddit_linker -->
<g id="edge42" class="edge"><title>telereddit_helpers&#45;&gt;telereddit_linker</title><style>.edge>path:hover{stroke-width:8}</style>
<path fill="none" stroke="black" d="M1065.33,-574.416C1072.43,-564.135 1081.43,-550.227 1088,-537.132 1149.38,-414.687 1199.4,-257.997 1218.1,-196.197"/>
<polygon fill="#b005db" stroke="black" points="1221.5,-197.033 1221.03,-186.449 1214.8,-195.021 1221.5,-197.033"/>
</g>
<!-- telereddit_helpers&#45;&gt;telereddit_telereddit -->
<g id="edge46" class="edge"><title>telereddit_helpers&#45;&gt;telereddit_telereddit</title><style>.edge>path:hover{stroke-width:8}</style>
<path fill="none" stroke="black" d="M1057.18,-572.777C1070.99,-499.207 1127.81,-213.946 1190,-150.426 1223.42,-116.296 1278.04,-102.887 1316.11,-97.6202"/>
<polygon fill="#b005db" stroke="black" points="1316.89,-101.05 1326.38,-96.34 1316.02,-94.1042 1316.89,-101.05"/>
</g>
<!-- telereddit_helpers&#45;&gt;telereddit_reddit -->
<g id="edge43" class="edge"><title>telereddit_helpers&#45;&gt;telereddit_reddit</title><style>.edge>path:hover{stroke-width:8}</style>
<path fill="none" stroke="black" d="M1050.61,-572.927C1045.4,-544.888 1036,-487.538 1036,-438.492 1036,-438.492 1036,-438.492 1036,-358.066 1036,-326.588 1022.68,-292.623 1011.81,-270.151"/>
<polygon fill="#b005db" stroke="black" points="1014.82,-268.337 1007.2,-260.974 1008.56,-271.481 1014.82,-268.337"/>
</g>
<!-- telereddit_services_youtube_service -->
<g id="node24" class="node"><title>telereddit_services_youtube_service</title><style>.edge>path:hover{stroke-width:8}</style>
<ellipse fill="#8b35a1" stroke="black" cx="745" cy="-437.492" rx="60.623" ry="21.4286"/>
<text text-anchor="middle" x="745" y="-440.492" font-family="Helvetica,sans-Serif" font-size="10.00" fill="#ffffff">services.</text>
<text text-anchor="middle" x="745" y="-429.492" font-family="Helvetica,sans-Serif" font-size="10.00" fill="#ffffff">youtube_service</text>
</g>
<!-- telereddit_helpers&#45;&gt;telereddit_services_youtube_service -->
<g id="edge45" class="edge"><title>telereddit_helpers&#45;&gt;telereddit_services_youtube_service</title><style>.edge>path:hover{stroke-width:8}</style>
<path fill="none" stroke="black" d="M1032.27,-579.469C981.628,-554.616 854.977,-492.463 788.032,-459.61"/>
<polygon fill="#b005db" stroke="black" points="789.516,-456.439 778.996,-455.176 786.432,-462.724 789.516,-456.439"/>
</g>
<!-- telereddit_services_services_wrapper -->
<g id="node19" class="node"><title>telereddit_services_services_wrapper</title><style>.edge>path:hover{stroke-width:8}</style>
<ellipse fill="#84269b" stroke="black" cx="610" cy="-359.066" rx="64.1938" ry="21.4286"/>
<text text-anchor="middle" x="610" y="-362.066" font-family="Helvetica,sans-Serif" font-size="10.00" fill="#ffffff">services.</text>
<text text-anchor="middle" x="610" y="-351.066" font-family="Helvetica,sans-Serif" font-size="10.00" fill="#ffffff">services_wrapper</text>
</g>
<!-- telereddit_services_gfycat_service&#45;&gt;telereddit_services_services_wrapper -->
<g id="edge54" class="edge"><title>telereddit_services_gfycat_service&#45;&gt;telereddit_services_services_wrapper</title><style>.edge>path:hover{stroke-width:8}</style>
<path fill="none" stroke="black" d="M386.251,-423.243C393.805,-420.879 401.629,-418.473 409,-416.279 456.864,-402.032 511.448,-386.833 551.644,-375.836"/>
<polygon fill="#7e3091" stroke="black" points="552.815,-379.144 561.54,-373.134 550.971,-372.391 552.815,-379.144"/>
</g>
<!-- telereddit_services_generic_service -->
<g id="node10" class="node"><title>telereddit_services_generic_service</title><style>.edge>path:hover{stroke-width:8}</style>
<ellipse fill="#9238a8" stroke="black" cx="477" cy="-437.492" rx="58.8803" ry="21.4286"/>
<text text-anchor="middle" x="477" y="-440.492" font-family="Helvetica,sans-Serif" font-size="10.00" fill="#ffffff">services.</text>
<text text-anchor="middle" x="477" y="-429.492" font-family="Helvetica,sans-Serif" font-size="10.00" fill="#ffffff">generic_service</text>
</g>
<!-- telereddit_services_generic_service&#45;&gt;telereddit_services_services_wrapper -->
<g id="edge53" class="edge"><title>telereddit_services_generic_service&#45;&gt;telereddit_services_services_wrapper</title><style>.edge>path:hover{stroke-width:8}</style>
<path fill="none" stroke="black" d="M507.18,-419.15C525.873,-408.408 550.09,-394.492 570.326,-382.864"/>
<polygon fill="#9238a8" stroke="black" points="572.09,-385.887 579.017,-377.87 568.602,-379.818 572.09,-385.887"/>
</g>
<!-- telereddit_config -->
<g id="node11" class="node"><title>telereddit_config</title><style>.edge>path:hover{stroke-width:8}</style>
<ellipse fill="#cb10f9" stroke="black" cx="1169" cy="-663.132" rx="27" ry="18"/>
<text text-anchor="middle" x="1169" y="-660.632" font-family="Helvetica,sans-Serif" font-size="10.00" fill="#ffffff">config</text>
</g>
<!-- telereddit_config&#45;&gt;telereddit_helpers -->
<g id="edge16" class="edge"><title>telereddit_config&#45;&gt;telereddit_helpers</title><style>.edge>path:hover{stroke-width:8}</style>
<path fill="none" stroke="black" d="M1149.75,-650.416C1131.37,-639.227 1103.45,-622.23 1082.49,-609.473"/>
<polygon fill="#cb10f9" stroke="black" points="1084.06,-606.331 1073.7,-604.121 1080.42,-612.311 1084.06,-606.331"/>
</g>
<!-- telereddit_config&#45;&gt;telereddit_services_gfycat_service -->
<g id="edge19" class="edge"><title>telereddit_config&#45;&gt;telereddit_services_gfycat_service</title><style>.edge>path:hover{stroke-width:8}</style>
<path fill="none" stroke="black" d="M1142.73,-658.861C1057.36,-647.786 780.674,-608.354 562,-537.132 497.847,-516.237 427.393,-481.949 384.684,-459.802"/>
<polygon fill="#cb10f9" stroke="black" points="386.229,-456.66 375.745,-455.133 382.988,-462.865 386.229,-456.66"/>
</g>
<!-- telereddit_config&#45;&gt;telereddit_services_imgur_service -->
<g id="edge20" class="edge"><title>telereddit_config&#45;&gt;telereddit_services_imgur_service</title><style>.edge>path:hover{stroke-width:8}</style>
<path fill="none" stroke="black" d="M1158.22,-646.506C1135.05,-613.967 1077.25,-538.346 1012,-494.706 986.525,-477.668 955.053,-464.142 929.012,-454.632"/>
<polygon fill="#cb10f9" stroke="black" points="929.917,-451.238 919.322,-451.184 927.57,-457.833 929.917,-451.238"/>
</g>
<!-- telereddit_config&#45;&gt;telereddit_linker -->
<g id="edge17" class="edge"><title>telereddit_config&#45;&gt;telereddit_linker</title><style>.edge>path:hover{stroke-width:8}</style>
<path fill="none" stroke="black" d="M1179.72,-646.38C1196.23,-620.546 1226,-567.023 1226,-516.919 1226,-516.919 1226,-516.919 1226,-300.853 1226,-264.755 1226,-223.081 1226,-196.509"/>
<polygon fill="#cb10f9" stroke="black" points="1229.5,-196.439 1226,-186.439 1222.5,-196.439 1229.5,-196.439"/>
</g>
<!-- telereddit_config&#45;&gt;telereddit_telereddit -->
<g id="edge21" class="edge"><title>telereddit_config&#45;&gt;telereddit_telereddit</title><style>.edge>path:hover{stroke-width:8}</style>
<path fill="none" stroke="black" d="M1186.52,-649.142C1198.48,-639.392 1213.76,-625.032 1223,-609.132 1320.62,-441.164 1349.61,-202.04 1356.87,-121.72"/>
<polygon fill="#cb10f9" stroke="black" points="1360.38,-121.728 1357.75,-111.464 1353.41,-121.126 1360.38,-121.728"/>
</g>
<!-- telereddit_config&#45;&gt;telereddit_reddit -->
<g id="edge18" class="edge"><title>telereddit_config&#45;&gt;telereddit_reddit</title><style>.edge>path:hover{stroke-width:8}</style>
<path fill="none" stroke="black" d="M1165.36,-645.048C1153.5,-591.629 1112.78,-423.979 1044,-300.853 1037.27,-288.812 1027.9,-276.799 1019.36,-266.987"/>
<polygon fill="#cb10f9" stroke="black" points="1021.76,-264.413 1012.47,-259.312 1016.55,-269.09 1021.76,-264.413"/>
</g>
<!-- telereddit_services -->
<g id="node12" class="node"><title>telereddit_services</title><style>.edge>path:hover{stroke-width:8}</style>
<ellipse fill="#cb10f9" stroke="black" cx="397" cy="-359.066" rx="30.7213" ry="18"/>
<text text-anchor="middle" x="397" y="-356.566" font-family="Helvetica,sans-Serif" font-size="10.00" fill="#ffffff">services</text>
</g>
<!-- telereddit_services&#45;&gt;telereddit_tests_test_services -->
<g id="edge52" class="edge"><title>telereddit_services&#45;&gt;telereddit_tests_test_services</title><style>.edge>path:hover{stroke-width:8}</style>
<path fill="none" stroke="black" d="M377.04,-345.275C347.702,-326.474 292.471,-291.081 255.953,-267.679"/>
<polygon fill="#cb10f9" stroke="black" points="257.407,-264.454 247.099,-262.006 253.63,-270.348 257.407,-264.454"/>
</g>
<!-- telereddit_services&#45;&gt;telereddit_reddit -->
<g id="edge51" class="edge"><title>telereddit_services&#45;&gt;telereddit_reddit</title><style>.edge>path:hover{stroke-width:8}</style>
<path fill="none" stroke="black" d="M425.578,-352.08C476.731,-341.416 587.353,-318.586 681,-300.853 782.8,-281.575 903.384,-260.742 962.172,-250.713"/>
<polygon fill="#cb10f9" stroke="black" points="962.805,-254.156 972.075,-249.026 961.63,-247.255 962.805,-254.156"/>
</g>
<!-- telereddit_services_vreddit_service&#45;&gt;telereddit_services_services_wrapper -->
<g id="edge63" class="edge"><title>telereddit_services_vreddit_service&#45;&gt;telereddit_services_services_wrapper</title><style>.edge>path:hover{stroke-width:8}</style>
<path fill="none" stroke="black" d="M610,-416.012C610,-408.153 610,-399.009 610,-390.418"/>
<polygon fill="#853399" stroke="black" points="613.5,-390.338 610,-380.338 606.5,-390.338 613.5,-390.338"/>
</g>
<!-- telereddit_services_imgur_service&#45;&gt;telereddit_services_services_wrapper -->
<g id="edge55" class="edge"><title>telereddit_services_imgur_service&#45;&gt;telereddit_services_services_wrapper</title><style>.edge>path:hover{stroke-width:8}</style>
<path fill="none" stroke="black" d="M837.749,-423.295C830.208,-420.903 822.377,-418.473 815,-416.279 765.982,-401.702 709.964,-386.435 668.887,-375.497"/>
<polygon fill="#7e3091" stroke="black" points="669.607,-372.067 659.044,-372.882 667.81,-378.832 669.607,-372.067"/>
</g>
<!-- telereddit_content_type -->
<g id="node16" class="node"><title>telereddit_content_type</title><style>.edge>path:hover{stroke-width:8}</style>
<ellipse fill="#cb10f9" stroke="black" cx="524" cy="-591.132" rx="42.9448" ry="18"/>
<text text-anchor="middle" x="524" y="-588.632" font-family="Helvetica,sans-Serif" font-size="10.00" fill="#ffffff">content_type</text>
</g>
<!-- telereddit_content_type&#45;&gt;telereddit_services_gfycat_service -->
<g id="edge36" class="edge"><title>telereddit_content_type&#45;&gt;telereddit_services_gfycat_service</title><style>.edge>path:hover{stroke-width:8}</style>
<path fill="none" stroke="black" d="M503.081,-575.351C488.716,-565 469.362,-550.655 453,-537.132 424.585,-513.647 393.667,-485.078 372.222,-464.742"/>
<polygon fill="#cb10f9" stroke="black" points="374.427,-462.009 364.772,-457.648 369.6,-467.078 374.427,-462.009"/>
</g>
<!-- telereddit_content_type&#45;&gt;telereddit_services_generic_service -->
<g id="edge35" class="edge"><title>telereddit_content_type&#45;&gt;telereddit_services_generic_service</title><style>.edge>path:hover{stroke-width:8}</style>
<path fill="none" stroke="black" d="M518.7,-573.032C510.849,-547.701 496.014,-499.84 486.321,-468.565"/>
<polygon fill="#cb10f9" stroke="black" points="489.552,-467.167 483.248,-458.651 482.866,-469.239 489.552,-467.167"/>
</g>
<!-- telereddit_content_type&#45;&gt;telereddit_services_vreddit_service -->
<g id="edge38" class="edge"><title>telereddit_content_type&#45;&gt;telereddit_services_vreddit_service</title><style>.edge>path:hover{stroke-width:8}</style>
<path fill="none" stroke="black" d="M528.898,-573.15C534.995,-553.438 546.524,-520.357 562,-494.706 568.255,-484.337 576.421,-473.975 584.238,-465.023"/>
<polygon fill="#cb10f9" stroke="black" points="586.872,-467.329 590.962,-457.555 581.67,-462.645 586.872,-467.329"/>
</g>
<!-- telereddit_content_type&#45;&gt;telereddit_services_imgur_service -->
<g id="edge37" class="edge"><title>telereddit_content_type&#45;&gt;telereddit_services_imgur_service</title><style>.edge>path:hover{stroke-width:8}</style>
<path fill="none" stroke="black" d="M559.638,-581.034C594.319,-571.699 648.192,-555.911 693,-537.132 746.073,-514.889 804.153,-482.497 840.813,-460.976"/>
<polygon fill="#cb10f9" stroke="black" points="842.826,-463.852 849.655,-455.752 839.265,-457.825 842.826,-463.852"/>
</g>
<!-- telereddit_content_type&#45;&gt;telereddit_tests_test_services -->
<g id="edge41" class="edge"><title>telereddit_content_type&#45;&gt;telereddit_tests_test_services</title><style>.edge>path:hover{stroke-width:8}</style>
<path fill="none" stroke="black" d="M480.927,-590.235C429.958,-588.318 344.631,-578.494 286,-537.132 243.688,-507.283 224,-490.273 224,-438.492 224,-438.492 224,-438.492 224,-358.066 224,-329.999 222.762,-298.049 221.663,-275.227"/>
<polygon fill="#cb10f9" stroke="black" points="225.153,-274.935 221.157,-265.123 218.162,-275.285 225.153,-274.935"/>
</g>
<!-- telereddit_content_type&#45;&gt;telereddit_reddit -->
<g id="edge34" class="edge"><title>telereddit_content_type&#45;&gt;telereddit_reddit</title><style>.edge>path:hover{stroke-width:8}</style>
<path fill="none" stroke="black" d="M567.125,-590.26C652.549,-588.003 843.424,-570.007 941,-458.706 944.148,-455.114 976.747,-328.143 991.183,-271.477"/>
<polygon fill="#cb10f9" stroke="black" points="994.661,-272.003 993.736,-261.449 987.877,-270.277 994.661,-272.003"/>
</g>
<!-- telereddit_tests_test_reddit -->
<g id="node22" class="node"><title>telereddit_tests_test_reddit</title><style>.edge>path:hover{stroke-width:8}</style>
<ellipse fill="#9246a4" stroke="black" cx="484" cy="-93.2132" rx="43.6818" ry="21.4286"/>
<text text-anchor="middle" x="484" y="-96.2132" font-family="Helvetica,sans-Serif" font-size="10.00" fill="#ffffff">tests.</text>
<text text-anchor="middle" x="484" y="-85.2132" font-family="Helvetica,sans-Serif" font-size="10.00" fill="#ffffff">test_reddit</text>
</g>
<!-- telereddit_content_type&#45;&gt;telereddit_tests_test_reddit -->
<g id="edge40" class="edge"><title>telereddit_content_type&#45;&gt;telereddit_tests_test_reddit</title><style>.edge>path:hover{stroke-width:8}</style>
<path fill="none" stroke="black" d="M485.71,-582.89C428.415,-569.704 322.654,-535.691 281,-458.706 210.969,-329.276 379.956,-175.709 452.685,-117.839"/>
<polygon fill="#cb10f9" stroke="black" points="454.947,-120.513 460.646,-111.581 450.621,-115.009 454.947,-120.513"/>
</g>
<!-- telereddit_content_type&#45;&gt;telereddit_services_youtube_service -->
<g id="edge39" class="edge"><title>telereddit_content_type&#45;&gt;telereddit_services_youtube_service</title><style>.edge>path:hover{stroke-width:8}</style>
<path fill="none" stroke="black" d="M559.824,-580.985C588.19,-572.608 627.906,-558.27 658,-537.132 672.753,-526.77 702.408,-491.66 722.968,-466.276"/>
<polygon fill="#cb10f9" stroke="black" points="725.748,-468.404 729.293,-458.42 720.295,-464.014 725.748,-468.404"/>
</g>
<!-- telereddit_services_service&#45;&gt;telereddit_services_gfycat_service -->
<g id="edge57" class="edge"><title>telereddit_services_service&#45;&gt;telereddit_services_gfycat_service</title><style>.edge>path:hover{stroke-width:8}</style>
<path fill="none" stroke="black" d="M575.759,-505.715C535.675,-494.854 467.345,-476.072 409,-458.706 404.739,-457.437 400.326,-456.098 395.902,-454.737"/>
<polygon fill="#c50cf3" stroke="black" points="396.839,-451.363 386.251,-451.742 394.765,-458.049 396.839,-451.363"/>
</g>
<!-- telereddit_services_service&#45;&gt;telereddit_services_generic_service -->
<g id="edge56" class="edge"><title>telereddit_services_service&#45;&gt;telereddit_services_generic_service</title><style>.edge>path:hover{stroke-width:8}</style>
<path fill="none" stroke="black" d="M584.041,-500.002C564.639,-488.853 537.794,-473.427 515.841,-460.812"/>
<polygon fill="#c50cf3" stroke="black" points="517.493,-457.724 507.078,-455.777 514.005,-463.794 517.493,-457.724"/>
</g>
<!-- telereddit_services_service&#45;&gt;telereddit_services_vreddit_service -->
<g id="edge59" class="edge"><title>telereddit_services_service&#45;&gt;telereddit_services_vreddit_service</title><style>.edge>path:hover{stroke-width:8}</style>
<path fill="none" stroke="black" d="M610,-494.438C610,-486.579 610,-477.435 610,-468.845"/>
<polygon fill="#c50cf3" stroke="black" points="613.5,-468.765 610,-458.765 606.5,-468.765 613.5,-468.765"/>
</g>
<!-- telereddit_services_service&#45;&gt;telereddit_services_imgur_service -->
<g id="edge58" class="edge"><title>telereddit_services_service&#45;&gt;telereddit_services_imgur_service</title><style>.edge>path:hover{stroke-width:8}</style>
<path fill="none" stroke="black" d="M644.586,-505.919C685.443,-495.176 755.396,-476.431 815,-458.706 819.265,-457.437 823.681,-456.09 828.106,-454.717"/>
<polygon fill="#c50cf3" stroke="black" points="829.257,-458.024 837.749,-451.69 827.16,-451.345 829.257,-458.024"/>
</g>
<!-- telereddit_services_service&#45;&gt;telereddit_services_youtube_service -->
<g id="edge60" class="edge"><title>telereddit_services_service&#45;&gt;telereddit_services_youtube_service</title><style>.edge>path:hover{stroke-width:8}</style>
<path fill="none" stroke="black" d="M636.35,-500.002C655.908,-488.929 682.919,-473.638 705.116,-461.072"/>
<polygon fill="#c50cf3" stroke="black" points="707.007,-464.023 713.985,-456.051 703.558,-457.932 707.007,-464.023"/>
</g>
<!-- telereddit_linker&#45;&gt;telereddit_telereddit -->
<g id="edge48" class="edge"><title>telereddit_linker&#45;&gt;telereddit_telereddit</title><style>.edge>path:hover{stroke-width:8}</style>
<path fill="none" stroke="black" d="M1246.2,-156.307C1267.82,-144.407 1302.39,-125.375 1327.57,-111.515"/>
<polygon fill="#853399" stroke="black" points="1329.31,-114.554 1336.38,-106.665 1325.93,-108.422 1329.31,-114.554"/>
</g>
<!-- telereddit_services_services_wrapper&#45;&gt;telereddit_tests_test_services -->
<g id="edge62" class="edge"><title>telereddit_services_services_wrapper&#45;&gt;telereddit_tests_test_services</title><style>.edge>path:hover{stroke-width:8}</style>
<path fill="none" stroke="black" d="M562.957,-344.384C489.376,-322.984 347.612,-281.754 271.424,-259.595"/>
<polygon fill="#84269b" stroke="black" points="272.15,-256.162 261.57,-256.73 270.195,-262.883 272.15,-256.162"/>
</g>
<!-- telereddit_services_services_wrapper&#45;&gt;telereddit_reddit -->
<g id="edge61" class="edge"><title>telereddit_services_services_wrapper&#45;&gt;telereddit_reddit</title><style>.edge>path:hover{stroke-width:8}</style>
<path fill="none" stroke="black" d="M656.802,-344.384C735.788,-321.294 893.747,-275.116 963.516,-254.721"/>
<polygon fill="#84269b" stroke="black" points="964.924,-257.955 973.54,-251.79 962.96,-251.237 964.924,-257.955"/>
</g>
<!-- telereddit___main__ -->
<g id="node28" class="node"><title>telereddit___main__</title><style>.edge>path:hover{stroke-width:8}</style>
<ellipse fill="#9849ac" stroke="black" cx="1359" cy="-18" rx="34.9638" ry="18"/>
<text text-anchor="middle" x="1359" y="-15.5" font-family="Helvetica,sans-Serif" font-size="10.00" fill="#ffffff">__main__</text>
</g>
<!-- telereddit_telereddit&#45;&gt;telereddit___main__ -->
<g id="edge65" class="edge"><title>telereddit_telereddit&#45;&gt;telereddit___main__</title><style>.edge>path:hover{stroke-width:8}</style>
<path fill="none" stroke="black" d="M1359,-74.8627C1359,-66.3831 1359,-55.9765 1359,-46.4531"/>
<polygon fill="#632673" stroke="black" points="1362.5,-46.2259 1359,-36.226 1355.5,-46.226 1362.5,-46.2259"/>
</g>
<!-- telereddit_reddit&#45;&gt;telereddit_linker -->
<g id="edge49" class="edge"><title>telereddit_reddit&#45;&gt;telereddit_linker</title><style>.edge>path:hover{stroke-width:8}</style>
<path fill="none" stroke="black" d="M1021.97,-234.943C1062.76,-221.843 1145.79,-195.182 1192.38,-180.224"/>
<polygon fill="#7d2493" stroke="black" points="1193.56,-183.52 1202.01,-177.13 1191.42,-176.855 1193.56,-183.52"/>
</g>
<!-- telereddit_reddit&#45;&gt;telereddit_tests_test_reddit -->
<g id="edge50" class="edge"><title>telereddit_reddit&#45;&gt;telereddit_tests_test_reddit</title><style>.edge>path:hover{stroke-width:8}</style>
<path fill="none" stroke="black" d="M973.555,-235.581C893.249,-212.391 636.64,-138.291 530.567,-107.66"/>
<polygon fill="#7d2493" stroke="black" points="531.361,-104.247 520.782,-104.835 529.419,-110.972 531.361,-104.247"/>
</g>
<!-- telereddit_services_youtube_service&#45;&gt;telereddit_services_services_wrapper -->
<g id="edge64" class="edge"><title>telereddit_services_youtube_service&#45;&gt;telereddit_services_services_wrapper</title><style>.edge>path:hover{stroke-width:8}</style>
<path fill="none" stroke="black" d="M714.366,-419.15C695.392,-408.408 670.811,-394.492 650.271,-382.864"/>
<polygon fill="#8b35a1" stroke="black" points="651.876,-379.751 641.449,-377.87 648.427,-385.842 651.876,-379.751"/>
</g>
<!-- telereddit_config_secret_dev&#45;&gt;telereddit_config_secret_prod -->
<g id="edge33" class="edge"><title>telereddit_config_secret_dev&#45;&gt;telereddit_config_secret_prod</title><style>.edge>path:hover{stroke-width:8}</style>
<path fill="none" stroke="black" d="M1718.69,-878.306C1710.73,-869.098 1701.03,-857.859 1692.31,-847.765"/>
<polygon fill="#a02fbc" stroke="black" points="1694.77,-845.258 1685.59,-839.977 1689.47,-849.833 1694.77,-845.258"/>
</g>
<!-- telereddit_config_secret_dev&#45;&gt;telereddit_config_secret_github -->
<g id="edge32" class="edge"><title>telereddit_config_secret_dev&#45;&gt;telereddit_config_secret_github</title><style>.edge>path:hover{stroke-width:8}</style>
<path fill="none" stroke="black" d="M1751.31,-878.306C1759.27,-869.098 1768.97,-857.859 1777.69,-847.765"/>
<polygon fill="#a02fbc" stroke="black" points="1780.53,-849.833 1784.41,-839.977 1775.23,-845.258 1780.53,-849.833"/>
</g>
<!-- telereddit_config_config -->
<g id="node26" class="node"><title>telereddit_config_config</title><style>.edge>path:hover{stroke-width:8}</style>
<ellipse fill="#c806f9" stroke="black" cx="1302" cy="-738.345" rx="41.5911" ry="18"/>
<text text-anchor="middle" x="1302" y="-735.845" font-family="Helvetica,sans-Serif" font-size="10.00" fill="#ffffff">config.config</text>
</g>
<!-- telereddit_config_config&#45;&gt;telereddit_helpers -->
<g id="edge22" class="edge"><title>telereddit_config_config&#45;&gt;telereddit_helpers</title><style>.edge>path:hover{stroke-width:8}</style>
<path fill="none" stroke="black" d="M1263.91,-730.617C1227.91,-722.945 1173.53,-707.857 1133,-681.132 1107.16,-664.091 1084.5,-636.511 1070.16,-616.566"/>
<polygon fill="#c806f9" stroke="black" points="1072.95,-614.457 1064.35,-608.272 1067.22,-618.471 1072.95,-614.457"/>
</g>
<!-- telereddit_config_config&#45;&gt;telereddit_services_gfycat_service -->
<g id="edge25" class="edge"><title>telereddit_config_config&#45;&gt;telereddit_services_gfycat_service</title><style>.edge>path:hover{stroke-width:8}</style>
<path fill="none" stroke="black" d="M1261.16,-734.437C1114.16,-723.449 613.249,-681.384 472,-609.132 413.38,-579.146 374.809,-508.155 356.796,-467.823"/>
<polygon fill="#c806f9" stroke="black" points="359.948,-466.295 352.76,-458.512 353.526,-469.079 359.948,-466.295"/>
</g>
<!-- telereddit_config_config&#45;&gt;telereddit_services_imgur_service -->
<g id="edge26" class="edge"><title>telereddit_config_config&#45;&gt;telereddit_services_imgur_service</title><style>.edge>path:hover{stroke-width:8}</style>
<path fill="none" stroke="black" d="M1261.38,-733.908C1215.29,-728.49 1139.22,-714.838 1083,-681.132 992.833,-627.077 923.276,-518.977 893.634,-467.298"/>
<polygon fill="#c806f9" stroke="black" points="896.535,-465.316 888.568,-458.331 890.44,-468.759 896.535,-465.316"/>
</g>
<!-- telereddit_config_config&#45;&gt;telereddit_linker -->
<g id="edge23" class="edge"><title>telereddit_config_config&#45;&gt;telereddit_linker</title><style>.edge>path:hover{stroke-width:8}</style>
<path fill="none" stroke="black" d="M1309.51,-720.289C1320.58,-693.534 1340,-639.821 1340,-592.132 1340,-592.132 1340,-592.132 1340,-436.492 1340,-339.605 1275.75,-237.672 1243.72,-192.875"/>
<polygon fill="#c806f9" stroke="black" points="1246.48,-190.725 1237.77,-184.696 1240.82,-194.842 1246.48,-190.725"/>
</g>
<!-- telereddit_config_config&#45;&gt;telereddit_telereddit -->
<g id="edge27" class="edge"><title>telereddit_config_config&#45;&gt;telereddit_telereddit</title><style>.edge>path:hover{stroke-width:8}</style>
<path fill="none" stroke="black" d="M1324.52,-722.964C1357.75,-699.787 1416,-650.786 1416,-592.132 1416,-592.132 1416,-592.132 1416,-242.64 1416,-196.76 1391.97,-147.888 1375.12,-119.25"/>
<polygon fill="#c806f9" stroke="black" points="1377.9,-117.085 1369.72,-110.347 1371.91,-120.713 1377.9,-117.085"/>
</g>
<!-- telereddit_config_config&#45;&gt;telereddit_reddit -->
<g id="edge24" class="edge"><title>telereddit_config_config&#45;&gt;telereddit_reddit</title><style>.edge>path:hover{stroke-width:8}</style>
<path fill="none" stroke="black" d="M1296.02,-720.329C1273.73,-658.622 1190.49,-442.793 1069,-300.853 1056.39,-286.115 1039.44,-272.525 1025.26,-262.4"/>
<polygon fill="#c806f9" stroke="black" points="1027.07,-259.393 1016.86,-256.564 1023.08,-265.143 1027.07,-259.393"/>
</g>
<!-- telegram -->
<g id="node29" class="node"><title>telegram</title><style>.edge>path:hover{stroke-width:8}</style>
<polygon fill="#106df9" stroke="black" points="1481,-991.411 1478,-995.411 1457,-995.411 1454,-991.411 1427,-991.411 1427,-955.411 1481,-955.411 1481,-991.411"/>
<text text-anchor="middle" x="1454" y="-970.911" font-family="Helvetica,sans-Serif" font-size="10.00" fill="#ffffff">telegram</text>
</g>
<!-- telegram&#45;&gt;telereddit_linker -->
<g id="edge14" class="edge"><title>telegram&#45;&gt;telereddit_linker</title><style>.edge>path:hover{stroke-width:8}</style>
<path fill="none" stroke="black" d="M1454,-955.128C1454,-926.978 1454,-869.475 1454,-820.772 1454,-820.772 1454,-820.772 1454,-514.919 1454,-365.293 1395.57,-329.328 1296,-217.64 1284.59,-204.842 1269.12,-193.729 1255.62,-185.409"/>
<polygon fill="#106df9" stroke="black" points="1257.06,-182.19 1246.67,-180.108 1253.49,-188.214 1257.06,-182.19"/>
</g>
<!-- telegram&#45;&gt;telereddit_telereddit -->
<g id="edge15" class="edge"><title>telegram&#45;&gt;telereddit_telereddit</title><style>.edge>path:hover{stroke-width:8}</style>
<path fill="none" stroke="black" d="M1461.33,-955.024C1472.37,-927.199 1492,-870.71 1492,-820.772 1492,-820.772 1492,-820.772 1492,-242.64 1492,-182.419 1430.52,-135.477 1391.16,-111.593"/>
<polygon fill="#106df9" stroke="black" points="1392.56,-108.354 1382.17,-106.298 1389.01,-114.387 1392.56,-108.354"/>
</g>
<!-- telegram&#45;&gt;telereddit_config_config -->
<g id="edge13" class="edge"><title>telegram&#45;&gt;telereddit_config_config</title><style>.edge>path:hover{stroke-width:8}</style>
<path fill="none" stroke="black" d="M1442.82,-955.273C1416.29,-914.584 1349.39,-812.015 1318.33,-764.377"/>
<polygon fill="#106df9" stroke="black" points="1321.18,-762.346 1312.78,-755.882 1315.32,-766.17 1321.18,-762.346"/>
</g>
</g>
</svg>
