<?xml version="1.0" encoding="UTF-8" standalone="no"?>
<!DOCTYPE svg PUBLIC "-//W3C//DTD SVG 1.1//EN"
 "http://www.w3.org/Graphics/SVG/1.1/DTD/svg11.dtd">
<!-- Generated by graphviz version 2.38.0 (20140413.2041)
 -->
<!-- Title: G Pages: 1 -->
<svg width="1863pt" height="999pt"
 viewBox="0.00 0.00 1863.03 999.41" xmlns="http://www.w3.org/2000/svg" xmlns:xlink="http://www.w3.org/1999/xlink">
<g id="graph0" class="graph" transform="scale(1 1) rotate(0) translate(4 995.411)">
<title>G</title><style>.edge>path:hover{stroke-width:8}</style>
<polygon fill="white" stroke="none" points="-4,4 -4,-995.411 1859.03,-995.411 1859.03,4 -4,4"/>
<g id="clust1" class="cluster"><title>cluster_parameterized</title><style>.edge>path:hover{stroke-width:8}</style>
<polygon fill="none" stroke="black" points="8,-637.132 8,-790.558 138,-790.558 138,-637.132 8,-637.132"/>
<text text-anchor="middle" x="73" y="-775.358" font-family="Times New Roman,serif" font-size="14.00">parameterized</text>
</g>
<g id="clust2" class="cluster"><title>cluster_requests</title><style>.edge>path:hover{stroke-width:8}</style>
<polygon fill="none" stroke="black" points="760,-712.345 760,-787.345 840,-787.345 840,-712.345 760,-712.345"/>
<text text-anchor="middle" x="800" y="-772.145" font-family="Times New Roman,serif" font-size="14.00">requests</text>
</g>
<g id="clust3" class="cluster"><title>cluster_sentrysdk</title><style>.edge>path:hover{stroke-width:8}</style>
<polygon fill="none" stroke="black" points="1305,-217.64 1305,-292.64 1397,-292.64 1397,-217.64 1305,-217.64"/>
<text text-anchor="middle" x="1351" y="-277.44" font-family="Times New Roman,serif" font-size="14.00">sentrysdk</text>
</g>
<!-- parameterized -->
<g id="node1" class="node"><title>parameterized</title><style>.edge>path:hover{stroke-width:8}</style>
<ellipse fill="#c04040" stroke="black" cx="62" cy="-663.132" rx="45.8316" ry="18"/>
<text text-anchor="middle" x="62" y="-660.632" font-family="Helvetica,sans-Serif" font-size="10.00" fill="#ffffff">parameterized</text>
</g>
<!-- telereddit_tests_test_helpers -->
<g id="node5" class="node"><title>telereddit_tests_test_helpers</title><style>.edge>path:hover{stroke-width:8}</style>
<ellipse fill="#8b439d" stroke="black" cx="129" cy="-437.492" rx="49.4949" ry="21.4286"/>
<text text-anchor="middle" x="129" y="-440.492" font-family="Helvetica,sans-Serif" font-size="10.00" fill="#ffffff">tests.</text>
<text text-anchor="middle" x="129" y="-429.492" font-family="Helvetica,sans-Serif" font-size="10.00" fill="#ffffff">test_helpers</text>
</g>
<!-- parameterized&#45;&gt;telereddit_tests_test_helpers -->
<g id="edge1" class="edge"><title>parameterized&#45;&gt;telereddit_tests_test_helpers</title><style>.edge>path:hover{stroke-width:8}</style>
<path fill="none" stroke="black" d="M69.4567,-637.242C81.8751,-595.791 106.743,-512.785 120.073,-468.288"/>
<polygon fill="#000000" stroke="black" points="123.463,-469.17 122.98,-458.587 116.757,-467.162 123.463,-469.17"/>
</g>
<!-- telereddit_tests_test_services -->
<g id="node19" class="node"><title>telereddit_tests_test_services</title><style>.edge>path:hover{stroke-width:8}</style>
<ellipse fill="#7e3d8f" stroke="black" cx="328" cy="-243.64" rx="52.1524" ry="21.4286"/>
<text text-anchor="middle" x="328" y="-246.64" font-family="Helvetica,sans-Serif" font-size="10.00" fill="#ffffff">tests.</text>
<text text-anchor="middle" x="328" y="-235.64" font-family="Helvetica,sans-Serif" font-size="10.00" fill="#ffffff">test_services</text>
</g>
<!-- parameterized&#45;&gt;telereddit_tests_test_services -->
<g id="edge2" class="edge"><title>parameterized&#45;&gt;telereddit_tests_test_services</title><style>.edge>path:hover{stroke-width:8}</style>
<path fill="none" stroke="black" d="M59.2668,-637.496C56.306,-608.637 52,-559.37 52,-516.919 52,-516.919 52,-516.919 52,-358.066 52,-266.406 183.839,-247.265 265.278,-244.185"/>
<polygon fill="#000000" stroke="black" points="265.549,-247.678 275.437,-243.873 265.334,-240.682 265.549,-247.678"/>
</g>
<!-- parameterized_parameterized -->
<g id="node2" class="node"><title>parameterized_parameterized</title><style>.edge>path:hover{stroke-width:8}</style>
<ellipse fill="#ce3b3b" stroke="black" cx="73" cy="-738.345" rx="57.0522" ry="21.4286"/>
<text text-anchor="middle" x="73" y="-741.345" font-family="Helvetica,sans-Serif" font-size="10.00" fill="#ffffff">parameterized.</text>
<text text-anchor="middle" x="73" y="-730.345" font-family="Helvetica,sans-Serif" font-size="10.00" fill="#ffffff">parameterized</text>
</g>
<!-- parameterized_parameterized&#45;&gt;parameterized -->
<g id="edge3" class="edge"><title>parameterized_parameterized&#45;&gt;parameterized</title><style>.edge>path:hover{stroke-width:8}</style>
<path fill="none" stroke="black" d="M69.9359,-716.951C68.7559,-709.097 67.3884,-699.996 66.1244,-691.583"/>
<polygon fill="#000000" stroke="black" points="69.5478,-690.811 64.6007,-681.442 62.6255,-691.851 69.5478,-690.811"/>
</g>
<!-- parameterized_parameterized&#45;&gt;telereddit_tests_test_helpers -->
<g id="edge4" class="edge"><title>parameterized_parameterized&#45;&gt;telereddit_tests_test_helpers</title><style>.edge>path:hover{stroke-width:8}</style>
<path fill="none" stroke="black" d="M129.225,-637.408C141.836,-574.733 137.496,-507.016 133.225,-468.97"/>
<polygon fill="#000000" stroke="black" points="136.673,-468.321 132.006,-458.81 129.723,-469.156 136.673,-468.321"/>
</g>
<!-- parameterized_parameterized&#45;&gt;telereddit_tests_test_services -->
<g id="edge5" class="edge"><title>parameterized_parameterized&#45;&gt;telereddit_tests_test_services</title><style>.edge>path:hover{stroke-width:8}</style>
<path fill="none" stroke="black" d="M137.524,-680.348C226.483,-546.908 201.387,-489.878 254,-337.853 259.7,-321.381 257.418,-315.413 267,-300.853 274.76,-289.062 285.52,-278.059 295.845,-268.97"/>
<polygon fill="#000000" stroke="black" points="298.224,-271.541 303.599,-262.411 293.704,-266.197 298.224,-271.541"/>
</g>
<!-- requests -->
<g id="node3" class="node"><title>requests</title><style>.edge>path:hover{stroke-width:8}</style>
<ellipse fill="#c8f906" stroke="black" cx="800" cy="-738.345" rx="31.577" ry="18"/>
<text text-anchor="middle" x="800" y="-735.845" font-family="Helvetica,sans-Serif" font-size="10.00" fill="#000000">requests</text>
</g>
<!-- telereddit_services_service -->
<g id="node6" class="node"><title>telereddit_services_service</title><style>.edge>path:hover{stroke-width:8}</style>
<ellipse fill="#c50cf3" stroke="black" cx="596" cy="-515.919" rx="38.7821" ry="21.4286"/>
<text text-anchor="middle" x="596" y="-518.919" font-family="Helvetica,sans-Serif" font-size="10.00" fill="#ffffff">services.</text>
<text text-anchor="middle" x="596" y="-507.919" font-family="Helvetica,sans-Serif" font-size="10.00" fill="#ffffff">service</text>
</g>
<!-- requests&#45;&gt;telereddit_services_service -->
<g id="edge10" class="edge"><title>requests&#45;&gt;telereddit_services_service</title><style>.edge>path:hover{stroke-width:8}</style>
<path fill="none" stroke="black" d="M762.843,-712.463C750.252,-703.277 736.481,-692.355 725,-681.132 680.617,-637.745 637.904,-578.947 614.476,-544.754"/>
<polygon fill="#000000" stroke="black" points="617.184,-542.512 608.67,-536.206 611.393,-546.445 617.184,-542.512"/>
</g>
<!-- telereddit_services_vreddit_service -->
<g id="node7" class="node"><title>telereddit_services_vreddit_service</title><style>.edge>path:hover{stroke-width:8}</style>
<ellipse fill="#853399" stroke="black" cx="768" cy="-437.492" rx="56.6372" ry="21.4286"/>
<text text-anchor="middle" x="768" y="-440.492" font-family="Helvetica,sans-Serif" font-size="10.00" fill="#ffffff">services.</text>
<text text-anchor="middle" x="768" y="-429.492" font-family="Helvetica,sans-Serif" font-size="10.00" fill="#ffffff">vreddit_service</text>
</g>
<!-- requests&#45;&gt;telereddit_services_vreddit_service -->
<g id="edge11" class="edge"><title>requests&#45;&gt;telereddit_services_vreddit_service</title><style>.edge>path:hover{stroke-width:8}</style>
<path fill="none" stroke="black" d="M797.323,-712.348C791.482,-657.795 777.608,-528.224 771.266,-468.99"/>
<polygon fill="#000000" stroke="black" points="774.741,-468.575 770.196,-459.004 767.781,-469.32 774.741,-468.575"/>
</g>
<!-- telereddit_reddit -->
<g id="node8" class="node"><title>telereddit_reddit</title><style>.edge>path:hover{stroke-width:8}</style>
<ellipse fill="#7d2493" stroke="black" cx="1002" cy="-243.64" rx="27" ry="18"/>
<text text-anchor="middle" x="1002" y="-241.14" font-family="Helvetica,sans-Serif" font-size="10.00" fill="#ffffff">reddit</text>
</g>
<!-- requests&#45;&gt;telereddit_reddit -->
<g id="edge7" class="edge"><title>requests&#45;&gt;telereddit_reddit</title><style>.edge>path:hover{stroke-width:8}</style>
<path fill="none" stroke="black" d="M839.824,-723.389C928.206,-689.589 1133,-594.444 1133,-438.492 1133,-438.492 1133,-438.492 1133,-358.066 1133,-306.205 1073.6,-272.755 1034.79,-256.438"/>
<polygon fill="#000000" stroke="black" points="1036,-253.152 1025.42,-252.657 1033.39,-259.644 1036,-253.152"/>
</g>
<!-- telereddit_services_imgur_service -->
<g id="node12" class="node"><title>telereddit_services_imgur_service</title><style>.edge>path:hover{stroke-width:8}</style>
<ellipse fill="#7e3091" stroke="black" cx="326" cy="-437.492" rx="53.9813" ry="21.4286"/>
<text text-anchor="middle" x="326" y="-440.492" font-family="Helvetica,sans-Serif" font-size="10.00" fill="#ffffff">services.</text>
<text text-anchor="middle" x="326" y="-429.492" font-family="Helvetica,sans-Serif" font-size="10.00" fill="#ffffff">imgur_service</text>
</g>
<!-- requests&#45;&gt;telereddit_services_imgur_service -->
<g id="edge9" class="edge"><title>requests&#45;&gt;telereddit_services_imgur_service</title><style>.edge>path:hover{stroke-width:8}</style>
<path fill="none" stroke="black" d="M760.03,-733.132C647.764,-720.508 333.065,-679.455 261,-609.132 224.104,-573.128 217.714,-540.179 242,-494.706 250.43,-478.92 265.475,-466.79 280.526,-457.909"/>
<polygon fill="#000000" stroke="black" points="282.27,-460.944 289.338,-453.052 278.891,-454.814 282.27,-460.944"/>
</g>
<!-- telereddit_services_gfycat_service -->
<g id="node17" class="node"><title>telereddit_services_gfycat_service</title><style>.edge>path:hover{stroke-width:8}</style>
<ellipse fill="#7e3091" stroke="black" cx="936" cy="-437.492" rx="55.3091" ry="21.4286"/>
<text text-anchor="middle" x="936" y="-440.492" font-family="Helvetica,sans-Serif" font-size="10.00" fill="#ffffff">services.</text>
<text text-anchor="middle" x="936" y="-429.492" font-family="Helvetica,sans-Serif" font-size="10.00" fill="#ffffff">gfycat_service</text>
</g>
<!-- requests&#45;&gt;telereddit_services_gfycat_service -->
<g id="edge8" class="edge"><title>requests&#45;&gt;telereddit_services_gfycat_service</title><style>.edge>path:hover{stroke-width:8}</style>
<path fill="none" stroke="black" d="M811.337,-712.432C836.276,-657.631 895.796,-526.838 922.56,-468.027"/>
<polygon fill="#000000" stroke="black" points="925.812,-469.329 926.769,-458.778 919.441,-466.43 925.812,-469.329"/>
</g>
<!-- telereddit_helpers -->
<g id="node28" class="node"><title>telereddit_helpers</title><style>.edge>path:hover{stroke-width:8}</style>
<ellipse fill="#b005db" stroke="black" cx="992" cy="-591.132" rx="28.0137" ry="18"/>
<text text-anchor="middle" x="992" y="-588.632" font-family="Helvetica,sans-Serif" font-size="10.00" fill="#ffffff">helpers</text>
</g>
<!-- requests&#45;&gt;telereddit_helpers -->
<g id="edge6" class="edge"><title>requests&#45;&gt;telereddit_helpers</title><style>.edge>path:hover{stroke-width:8}</style>
<path fill="none" stroke="black" d="M833.016,-712.375C870.757,-683.83 931.746,-637.704 966.18,-611.66"/>
<polygon fill="#000000" stroke="black" points="968.617,-614.205 974.482,-605.382 964.395,-608.622 968.617,-614.205"/>
</g>
<!-- sentry_sdk -->
<g id="node4" class="node"><title>sentry_sdk</title><style>.edge>path:hover{stroke-width:8}</style>
<ellipse fill="#40c073" stroke="black" cx="1351" cy="-243.64" rx="38.0276" ry="18"/>
<text text-anchor="middle" x="1351" y="-241.14" font-family="Helvetica,sans-Serif" font-size="10.00" fill="#000000">sentry_sdk</text>
</g>
<!-- telereddit_telereddit -->
<g id="node20" class="node"><title>telereddit_telereddit</title><style>.edge>path:hover{stroke-width:8}</style>
<ellipse fill="#632673" stroke="black" cx="1285" cy="-93.2132" rx="32.9303" ry="18"/>
<text text-anchor="middle" x="1285" y="-90.7132" font-family="Helvetica,sans-Serif" font-size="10.00" fill="#ffffff">telereddit</text>
</g>
<!-- sentry_sdk&#45;&gt;telereddit_telereddit -->
<g id="edge12" class="edge"><title>sentry_sdk&#45;&gt;telereddit_telereddit</title><style>.edge>path:hover{stroke-width:8}</style>
<path fill="none" stroke="black" d="M1340.08,-218.077C1328.07,-191.073 1308.86,-147.867 1296.59,-120.279"/>
<polygon fill="#000000" stroke="black" points="1299.78,-118.833 1292.52,-111.118 1293.38,-121.677 1299.78,-118.833"/>
</g>
<!-- telereddit_services_service&#45;&gt;telereddit_services_vreddit_service -->
<g id="edge59" class="edge"><title>telereddit_services_service&#45;&gt;telereddit_services_vreddit_service</title><style>.edge>path:hover{stroke-width:8}</style>
<path fill="none" stroke="black" d="M625.568,-501.781C652.465,-489.829 692.547,-472.019 723.345,-458.334"/>
<polygon fill="#c50cf3" stroke="black" points="724.863,-461.49 732.581,-454.231 722.021,-455.093 724.863,-461.49"/>
</g>
<!-- telereddit_services_service&#45;&gt;telereddit_services_imgur_service -->
<g id="edge58" class="edge"><title>telereddit_services_service&#45;&gt;telereddit_services_imgur_service</title><style>.edge>path:hover{stroke-width:8}</style>
<path fill="none" stroke="black" d="M562.078,-505.317C515.944,-492.258 432.961,-468.769 378.687,-453.406"/>
<polygon fill="#c50cf3" stroke="black" points="379.478,-449.992 368.902,-450.636 377.571,-456.728 379.478,-449.992"/>
</g>
<!-- telereddit_services_service&#45;&gt;telereddit_services_gfycat_service -->
<g id="edge57" class="edge"><title>telereddit_services_service&#45;&gt;telereddit_services_gfycat_service</title><style>.edge>path:hover{stroke-width:8}</style>
<path fill="none" stroke="black" d="M631.424,-506.956C690.27,-493.729 808.667,-467.115 879.26,-451.247"/>
<polygon fill="#c50cf3" stroke="black" points="880.327,-454.594 889.316,-448.986 878.792,-447.765 880.327,-454.594"/>
</g>
<!-- telereddit_services_youtube_service -->
<g id="node18" class="node"><title>telereddit_services_youtube_service</title><style>.edge>path:hover{stroke-width:8}</style>
<ellipse fill="#8b35a1" stroke="black" cx="633" cy="-437.492" rx="60.623" ry="21.4286"/>
<text text-anchor="middle" x="633" y="-440.492" font-family="Helvetica,sans-Serif" font-size="10.00" fill="#ffffff">services.</text>
<text text-anchor="middle" x="633" y="-429.492" font-family="Helvetica,sans-Serif" font-size="10.00" fill="#ffffff">youtube_service</text>
</g>
<!-- telereddit_services_service&#45;&gt;telereddit_services_youtube_service -->
<g id="edge60" class="edge"><title>telereddit_services_service&#45;&gt;telereddit_services_youtube_service</title><style>.edge>path:hover{stroke-width:8}</style>
<path fill="none" stroke="black" d="M605.528,-495.237C609.565,-486.9 614.353,-477.009 618.792,-467.839"/>
<polygon fill="#c50cf3" stroke="black" points="622.039,-469.166 623.246,-458.64 615.738,-466.115 622.039,-469.166"/>
</g>
<!-- telereddit_services_generic_service -->
<g id="node22" class="node"><title>telereddit_services_generic_service</title><style>.edge>path:hover{stroke-width:8}</style>
<ellipse fill="#9238a8" stroke="black" cx="495" cy="-437.492" rx="58.8803" ry="21.4286"/>
<text text-anchor="middle" x="495" y="-440.492" font-family="Helvetica,sans-Serif" font-size="10.00" fill="#ffffff">services.</text>
<text text-anchor="middle" x="495" y="-429.492" font-family="Helvetica,sans-Serif" font-size="10.00" fill="#ffffff">generic_service</text>
</g>
<!-- telereddit_services_service&#45;&gt;telereddit_services_generic_service -->
<g id="edge56" class="edge"><title>telereddit_services_service&#45;&gt;telereddit_services_generic_service</title><style>.edge>path:hover{stroke-width:8}</style>
<path fill="none" stroke="black" d="M574.085,-498.335C560.476,-488.038 542.738,-474.615 527.51,-463.093"/>
<polygon fill="#c50cf3" stroke="black" points="529.437,-460.162 519.351,-456.919 525.213,-465.744 529.437,-460.162"/>
</g>
<!-- telereddit_services_services_wrapper -->
<g id="node21" class="node"><title>telereddit_services_services_wrapper</title><style>.edge>path:hover{stroke-width:8}</style>
<ellipse fill="#84269b" stroke="black" cx="633" cy="-359.066" rx="64.1938" ry="21.4286"/>
<text text-anchor="middle" x="633" y="-362.066" font-family="Helvetica,sans-Serif" font-size="10.00" fill="#ffffff">services.</text>
<text text-anchor="middle" x="633" y="-351.066" font-family="Helvetica,sans-Serif" font-size="10.00" fill="#ffffff">services_wrapper</text>
</g>
<!-- telereddit_services_vreddit_service&#45;&gt;telereddit_services_services_wrapper -->
<g id="edge63" class="edge"><title>telereddit_services_vreddit_service&#45;&gt;telereddit_services_services_wrapper</title><style>.edge>path:hover{stroke-width:8}</style>
<path fill="none" stroke="black" d="M737.703,-419.341C718.607,-408.53 693.733,-394.448 673.021,-382.723"/>
<polygon fill="#853399" stroke="black" points="674.559,-379.571 664.132,-377.69 671.11,-385.663 674.559,-379.571"/>
</g>
<!-- telereddit_linker -->
<g id="node16" class="node"><title>telereddit_linker</title><style>.edge>path:hover{stroke-width:8}</style>
<ellipse fill="#853399" stroke="black" cx="1171" cy="-168.426" rx="27" ry="18"/>
<text text-anchor="middle" x="1171" y="-165.926" font-family="Helvetica,sans-Serif" font-size="10.00" fill="#ffffff">linker</text>
</g>
<!-- telereddit_reddit&#45;&gt;telereddit_linker -->
<g id="edge49" class="edge"><title>telereddit_reddit&#45;&gt;telereddit_linker</title><style>.edge>path:hover{stroke-width:8}</style>
<path fill="none" stroke="black" d="M1024.09,-233.068C1053.57,-220.298 1105.95,-197.609 1139.54,-183.055"/>
<polygon fill="#7d2493" stroke="black" points="1141.12,-186.187 1148.9,-179 1138.33,-179.764 1141.12,-186.187"/>
</g>
<!-- telereddit_tests_test_reddit -->
<g id="node23" class="node"><title>telereddit_tests_test_reddit</title><style>.edge>path:hover{stroke-width:8}</style>
<ellipse fill="#9246a4" stroke="black" cx="557" cy="-93.2132" rx="43.6818" ry="21.4286"/>
<text text-anchor="middle" x="557" y="-96.2132" font-family="Helvetica,sans-Serif" font-size="10.00" fill="#ffffff">tests.</text>
<text text-anchor="middle" x="557" y="-85.2132" font-family="Helvetica,sans-Serif" font-size="10.00" fill="#ffffff">test_reddit</text>
</g>
<!-- telereddit_reddit&#45;&gt;telereddit_tests_test_reddit -->
<g id="edge50" class="edge"><title>telereddit_reddit&#45;&gt;telereddit_tests_test_reddit</title><style>.edge>path:hover{stroke-width:8}</style>
<path fill="none" stroke="black" d="M978.389,-234.764C907.482,-211.114 695.553,-140.426 602.107,-109.258"/>
<polygon fill="#7d2493" stroke="black" points="602.971,-105.857 592.377,-106.013 600.756,-112.497 602.971,-105.857"/>
</g>
<!-- telereddit_config -->
<g id="node9" class="node"><title>telereddit_config</title><style>.edge>path:hover{stroke-width:8}</style>
<ellipse fill="#cb10f9" stroke="black" cx="1171" cy="-663.132" rx="27" ry="18"/>
<text text-anchor="middle" x="1171" y="-660.632" font-family="Helvetica,sans-Serif" font-size="10.00" fill="#ffffff">config</text>
</g>
<!-- telereddit_config&#45;&gt;telereddit_reddit -->
<g id="edge18" class="edge"><title>telereddit_config&#45;&gt;telereddit_reddit</title><style>.edge>path:hover{stroke-width:8}</style>
<path fill="none" stroke="black" d="M1171,-644.697C1171,-617.435 1171,-563.054 1171,-516.919 1171,-516.919 1171,-516.919 1171,-358.066 1171,-330.491 1166.76,-320.083 1147,-300.853 1117.05,-271.715 1070.33,-257.264 1038.05,-250.39"/>
<polygon fill="#cb10f9" stroke="black" points="1038.61,-246.933 1028.12,-248.416 1037.24,-253.798 1038.61,-246.933"/>
</g>
<!-- telereddit_config&#45;&gt;telereddit_services_imgur_service -->
<g id="edge20" class="edge"><title>telereddit_config&#45;&gt;telereddit_services_imgur_service</title><style>.edge>path:hover{stroke-width:8}</style>
<path fill="none" stroke="black" d="M1143.8,-662.415C1027.29,-663.289 570.229,-663.144 439,-609.132 393.53,-590.417 381.702,-578.421 355,-537.132 341.628,-516.455 334.246,-489.419 330.282,-468.881"/>
<polygon fill="#cb10f9" stroke="black" points="333.689,-468.044 328.507,-458.802 326.795,-469.258 333.689,-468.044"/>
</g>
<!-- telereddit_config&#45;&gt;telereddit_linker -->
<g id="edge17" class="edge"><title>telereddit_config&#45;&gt;telereddit_linker</title><style>.edge>path:hover{stroke-width:8}</style>
<path fill="none" stroke="black" d="M1176.68,-645.17C1179.82,-634.877 1183.41,-621.401 1185,-609.132 1205.12,-454.2 1184.15,-266.121 1174.91,-196.789"/>
<polygon fill="#cb10f9" stroke="black" points="1178.35,-196.14 1173.53,-186.704 1171.41,-197.085 1178.35,-196.14"/>
</g>
<!-- telereddit_config&#45;&gt;telereddit_services_gfycat_service -->
<g id="edge19" class="edge"><title>telereddit_config&#45;&gt;telereddit_services_gfycat_service</title><style>.edge>path:hover{stroke-width:8}</style>
<path fill="none" stroke="black" d="M1155.94,-647.802C1117.09,-610.832 1013.05,-511.822 963.273,-464.447"/>
<polygon fill="#cb10f9" stroke="black" points="965.424,-461.662 955.767,-457.304 960.598,-466.733 965.424,-461.662"/>
</g>
<!-- telereddit_config&#45;&gt;telereddit_telereddit -->
<g id="edge21" class="edge"><title>telereddit_config&#45;&gt;telereddit_telereddit</title><style>.edge>path:hover{stroke-width:8}</style>
<path fill="none" stroke="black" d="M1181.27,-646.419C1187.63,-636.138 1195.6,-622.231 1201,-609.132 1254.95,-478.236 1285,-443.432 1285,-301.853 1285,-301.853 1285,-301.853 1285,-242.64 1285,-200.412 1285,-151.426 1285,-121.638"/>
<polygon fill="#cb10f9" stroke="black" points="1288.5,-121.58 1285,-111.58 1281.5,-121.58 1288.5,-121.58"/>
</g>
<!-- telereddit_config&#45;&gt;telereddit_helpers -->
<g id="edge16" class="edge"><title>telereddit_config&#45;&gt;telereddit_helpers</title><style>.edge>path:hover{stroke-width:8}</style>
<path fill="none" stroke="black" d="M1152.79,-649.604C1145.87,-645.232 1137.78,-640.566 1130,-637.132 1089.34,-619.185 1075.99,-623.71 1034,-609.132 1030.88,-608.048 1027.65,-606.863 1024.44,-605.638"/>
<polygon fill="#cb10f9" stroke="black" points="1025.54,-602.309 1014.95,-601.907 1022.97,-608.823 1025.54,-602.309"/>
</g>
<!-- telereddit_config_secret_generic -->
<g id="node10" class="node"><title>telereddit_config_secret_generic</title><style>.edge>path:hover{stroke-width:8}</style>
<ellipse fill="#9246a4" stroke="black" cx="1578" cy="-898.198" rx="56.6372" ry="21.4286"/>
<text text-anchor="middle" x="1578" y="-901.198" font-family="Helvetica,sans-Serif" font-size="10.00" fill="#ffffff">config.</text>
<text text-anchor="middle" x="1578" y="-890.198" font-family="Helvetica,sans-Serif" font-size="10.00" fill="#ffffff">secret_generic</text>
</g>
<!-- telereddit___main__ -->
<g id="node11" class="node"><title>telereddit___main__</title><style>.edge>path:hover{stroke-width:8}</style>
<ellipse fill="#9849ac" stroke="black" cx="1285" cy="-18" rx="34.9638" ry="18"/>
<text text-anchor="middle" x="1285" y="-15.5" font-family="Helvetica,sans-Serif" font-size="10.00" fill="#ffffff">__main__</text>
</g>
<!-- telereddit_services_imgur_service&#45;&gt;telereddit_services_services_wrapper -->
<g id="edge55" class="edge"><title>telereddit_services_imgur_service&#45;&gt;telereddit_services_services_wrapper</title><style>.edge>path:hover{stroke-width:8}</style>
<path fill="none" stroke="black" d="M370.313,-425.461C423.682,-412.175 513.563,-389.799 573.084,-374.982"/>
<polygon fill="#7e3091" stroke="black" points="574.238,-378.302 583.096,-372.489 572.547,-371.509 574.238,-378.302"/>
</g>
<!-- telereddit_config_secret_prod -->
<g id="node13" class="node"><title>telereddit_config_secret_prod</title><style>.edge>path:hover{stroke-width:8}</style>
<ellipse fill="#8b439d" stroke="black" cx="1670" cy="-819.772" rx="48.1667" ry="21.4286"/>
<text text-anchor="middle" x="1670" y="-822.772" font-family="Helvetica,sans-Serif" font-size="10.00" fill="#ffffff">config.</text>
<text text-anchor="middle" x="1670" y="-811.772" font-family="Helvetica,sans-Serif" font-size="10.00" fill="#ffffff">secret_prod</text>
</g>
<!-- telereddit_services -->
<g id="node14" class="node"><title>telereddit_services</title><style>.edge>path:hover{stroke-width:8}</style>
<ellipse fill="#cb10f9" stroke="black" cx="339" cy="-359.066" rx="30.7213" ry="18"/>
<text text-anchor="middle" x="339" y="-356.566" font-family="Helvetica,sans-Serif" font-size="10.00" fill="#ffffff">services</text>
</g>
<!-- telereddit_services&#45;&gt;telereddit_reddit -->
<g id="edge51" class="edge"><title>telereddit_services&#45;&gt;telereddit_reddit</title><style>.edge>path:hover{stroke-width:8}</style>
<path fill="none" stroke="black" d="M367.915,-353.119C474.97,-334.804 848.68,-270.87 966.283,-250.75"/>
<polygon fill="#cb10f9" stroke="black" points="966.951,-254.187 976.217,-249.051 965.77,-247.287 966.951,-254.187"/>
</g>
<!-- telereddit_services&#45;&gt;telereddit_tests_test_services -->
<g id="edge52" class="edge"><title>telereddit_services&#45;&gt;telereddit_tests_test_services</title><style>.edge>path:hover{stroke-width:8}</style>
<path fill="none" stroke="black" d="M337.329,-340.839C335.643,-323.449 333.003,-296.227 330.961,-275.173"/>
<polygon fill="#cb10f9" stroke="black" points="334.434,-274.722 329.985,-265.106 327.467,-275.398 334.434,-274.722"/>
</g>
<!-- telereddit_config_secret_dev -->
<g id="node15" class="node"><title>telereddit_config_secret_dev</title><style>.edge>path:hover{stroke-width:8}</style>
<ellipse fill="#a02fbc" stroke="black" cx="1736" cy="-898.198" rx="44.5955" ry="21.4286"/>
<text text-anchor="middle" x="1736" y="-901.198" font-family="Helvetica,sans-Serif" font-size="10.00" fill="#ffffff">config.</text>
<text text-anchor="middle" x="1736" y="-890.198" font-family="Helvetica,sans-Serif" font-size="10.00" fill="#ffffff">secret_dev</text>
</g>
<!-- telereddit_config_secret_dev&#45;&gt;telereddit_config_secret_prod -->
<g id="edge33" class="edge"><title>telereddit_config_secret_dev&#45;&gt;telereddit_config_secret_prod</title><style>.edge>path:hover{stroke-width:8}</style>
<path fill="none" stroke="black" d="M1719.69,-878.306C1711.73,-869.098 1702.03,-857.859 1693.31,-847.765"/>
<polygon fill="#a02fbc" stroke="black" points="1695.77,-845.258 1686.59,-839.977 1690.47,-849.833 1695.77,-845.258"/>
</g>
<!-- telereddit_config_secret_github -->
<g id="node24" class="node"><title>telereddit_config_secret_github</title><style>.edge>path:hover{stroke-width:8}</style>
<ellipse fill="#8b439d" stroke="black" cx="1802" cy="-819.772" rx="53.066" ry="21.4286"/>
<text text-anchor="middle" x="1802" y="-822.772" font-family="Helvetica,sans-Serif" font-size="10.00" fill="#ffffff">config.</text>
<text text-anchor="middle" x="1802" y="-811.772" font-family="Helvetica,sans-Serif" font-size="10.00" fill="#ffffff">secret_github</text>
</g>
<!-- telereddit_config_secret_dev&#45;&gt;telereddit_config_secret_github -->
<g id="edge32" class="edge"><title>telereddit_config_secret_dev&#45;&gt;telereddit_config_secret_github</title><style>.edge>path:hover{stroke-width:8}</style>
<path fill="none" stroke="black" d="M1752.31,-878.306C1760.27,-869.098 1769.97,-857.859 1778.69,-847.765"/>
<polygon fill="#a02fbc" stroke="black" points="1781.53,-849.833 1785.41,-839.977 1776.23,-845.258 1781.53,-849.833"/>
</g>
<!-- telereddit_linker&#45;&gt;telereddit_telereddit -->
<g id="edge48" class="edge"><title>telereddit_linker&#45;&gt;telereddit_telereddit</title><style>.edge>path:hover{stroke-width:8}</style>
<path fill="none" stroke="black" d="M1189.82,-155.337C1207.75,-143.823 1235.01,-126.319 1255.76,-112.989"/>
<polygon fill="#853399" stroke="black" points="1257.69,-115.911 1264.21,-107.562 1253.91,-110.021 1257.69,-115.911"/>
</g>
<!-- telereddit_services_gfycat_service&#45;&gt;telereddit_services_services_wrapper -->
<g id="edge54" class="edge"><title>telereddit_services_gfycat_service&#45;&gt;telereddit_services_services_wrapper</title><style>.edge>path:hover{stroke-width:8}</style>
<path fill="none" stroke="black" d="M890.965,-425.133C838.291,-411.847 750.897,-389.803 692.631,-375.107"/>
<polygon fill="#7e3091" stroke="black" points="693.376,-371.685 682.823,-372.633 691.664,-378.473 693.376,-371.685"/>
</g>
<!-- telereddit_services_youtube_service&#45;&gt;telereddit_services_services_wrapper -->
<g id="edge64" class="edge"><title>telereddit_services_youtube_service&#45;&gt;telereddit_services_services_wrapper</title><style>.edge>path:hover{stroke-width:8}</style>
<path fill="none" stroke="black" d="M633,-416.012C633,-408.153 633,-399.009 633,-390.418"/>
<polygon fill="#8b35a1" stroke="black" points="636.5,-390.338 633,-380.338 629.5,-390.338 636.5,-390.338"/>
</g>
<!-- telereddit_telereddit&#45;&gt;telereddit___main__ -->
<g id="edge65" class="edge"><title>telereddit_telereddit&#45;&gt;telereddit___main__</title><style>.edge>path:hover{stroke-width:8}</style>
<path fill="none" stroke="black" d="M1285,-74.8627C1285,-66.3831 1285,-55.9765 1285,-46.4531"/>
<polygon fill="#632673" stroke="black" points="1288.5,-46.2259 1285,-36.226 1281.5,-46.226 1288.5,-46.2259"/>
</g>
<!-- telereddit_services_services_wrapper&#45;&gt;telereddit_reddit -->
<g id="edge61" class="edge"><title>telereddit_services_services_wrapper&#45;&gt;telereddit_reddit</title><style>.edge>path:hover{stroke-width:8}</style>
<path fill="none" stroke="black" d="M678.617,-344.044C753.66,-320.976 901.464,-275.543 968.056,-255.073"/>
<polygon fill="#84269b" stroke="black" points="969.493,-258.294 978.023,-252.01 967.436,-251.603 969.493,-258.294"/>
</g>
<!-- telereddit_services_services_wrapper&#45;&gt;telereddit_tests_test_services -->
<g id="edge62" class="edge"><title>telereddit_services_services_wrapper&#45;&gt;telereddit_tests_test_services</title><style>.edge>path:hover{stroke-width:8}</style>
<path fill="none" stroke="black" d="M591.549,-342.651C535.08,-321.651 434.242,-284.15 375.016,-262.124"/>
<polygon fill="#84269b" stroke="black" points="376.12,-258.801 365.527,-258.595 373.68,-265.362 376.12,-258.801"/>
</g>
<!-- telereddit_services_generic_service&#45;&gt;telereddit_services_services_wrapper -->
<g id="edge53" class="edge"><title>telereddit_services_generic_service&#45;&gt;telereddit_services_services_wrapper</title><style>.edge>path:hover{stroke-width:8}</style>
<path fill="none" stroke="black" d="M525.97,-419.341C545.578,-408.481 571.146,-394.322 592.374,-382.565"/>
<polygon fill="#9238a8" stroke="black" points="594.124,-385.597 601.176,-377.69 590.732,-379.474 594.124,-385.597"/>
</g>
<!-- telereddit_config_secret -->
<g id="node25" class="node"><title>telereddit_config_secret</title><style>.edge>path:hover{stroke-width:8}</style>
<ellipse fill="#c022e7" stroke="black" cx="1699" cy="-973.411" rx="42.2678" ry="18"/>
<text text-anchor="middle" x="1699" y="-970.911" font-family="Helvetica,sans-Serif" font-size="10.00" fill="#ffffff">config.secret</text>
</g>
<!-- telereddit_config_secret&#45;&gt;telereddit_config_secret_generic -->
<g id="edge29" class="edge"><title>telereddit_config_secret&#45;&gt;telereddit_config_secret_generic</title><style>.edge>path:hover{stroke-width:8}</style>
<path fill="none" stroke="black" d="M1675.67,-958.295C1658.64,-947.989 1635.19,-933.801 1615.54,-921.91"/>
<polygon fill="#c022e7" stroke="black" points="1617.18,-918.812 1606.81,-916.63 1613.55,-924.801 1617.18,-918.812"/>
</g>
<!-- telereddit_config_secret&#45;&gt;telereddit_config_secret_prod -->
<g id="edge31" class="edge"><title>telereddit_config_secret&#45;&gt;telereddit_config_secret_prod</title><style>.edge>path:hover{stroke-width:8}</style>
<path fill="none" stroke="black" d="M1692.65,-955.45C1689.03,-945.158 1684.69,-931.682 1682,-919.411 1677.05,-896.804 1673.99,-870.802 1672.2,-851.172"/>
<polygon fill="#c022e7" stroke="black" points="1675.67,-850.652 1671.33,-840.985 1668.69,-851.245 1675.67,-850.652"/>
</g>
<!-- telereddit_config_secret&#45;&gt;telereddit_config_secret_dev -->
<g id="edge28" class="edge"><title>telereddit_config_secret&#45;&gt;telereddit_config_secret_dev</title><style>.edge>path:hover{stroke-width:8}</style>
<path fill="none" stroke="black" d="M1707.58,-955.431C1711.71,-947.257 1716.78,-937.23 1721.49,-927.917"/>
<polygon fill="#c022e7" stroke="black" points="1724.64,-929.442 1726.02,-918.938 1718.39,-926.285 1724.64,-929.442"/>
</g>
<!-- telereddit_config_secret&#45;&gt;telereddit_config_secret_github -->
<g id="edge30" class="edge"><title>telereddit_config_secret&#45;&gt;telereddit_config_secret_github</title><style>.edge>path:hover{stroke-width:8}</style>
<path fill="none" stroke="black" d="M1731.67,-961.899C1751.86,-953.638 1776.43,-940.026 1790,-919.411 1803.17,-899.411 1805.58,-872.101 1805.04,-851.287"/>
<polygon fill="#c022e7" stroke="black" points="1808.52,-850.879 1804.52,-841.068 1801.53,-851.232 1808.52,-850.879"/>
</g>
<!-- telereddit_content_type -->
<g id="node26" class="node"><title>telereddit_content_type</title><style>.edge>path:hover{stroke-width:8}</style>
<ellipse fill="#cb10f9" stroke="black" cx="491" cy="-591.132" rx="42.9448" ry="18"/>
<text text-anchor="middle" x="491" y="-588.632" font-family="Helvetica,sans-Serif" font-size="10.00" fill="#ffffff">content_type</text>
</g>
<!-- telereddit_content_type&#45;&gt;telereddit_services_vreddit_service -->
<g id="edge38" class="edge"><title>telereddit_content_type&#45;&gt;telereddit_services_vreddit_service</title><style>.edge>path:hover{stroke-width:8}</style>
<path fill="none" stroke="black" d="M527.384,-581.276C559.331,-572.641 606.435,-557.787 644,-537.132 680.383,-517.127 716.969,-486.422 740.871,-464.589"/>
<polygon fill="#cb10f9" stroke="black" points="743.511,-466.914 748.472,-457.553 738.756,-461.777 743.511,-466.914"/>
</g>
<!-- telereddit_content_type&#45;&gt;telereddit_reddit -->
<g id="edge34" class="edge"><title>telereddit_content_type&#45;&gt;telereddit_reddit</title><style>.edge>path:hover{stroke-width:8}</style>
<path fill="none" stroke="black" d="M534.306,-591.105C630.393,-590.785 853,-575.28 853,-438.492 853,-438.492 853,-438.492 853,-358.066 853,-300.76 923.642,-268.594 967.644,-254.117"/>
<polygon fill="#cb10f9" stroke="black" points="968.905,-257.39 977.396,-251.053 966.806,-250.712 968.905,-257.39"/>
</g>
<!-- telereddit_content_type&#45;&gt;telereddit_services_imgur_service -->
<g id="edge37" class="edge"><title>telereddit_content_type&#45;&gt;telereddit_services_imgur_service</title><style>.edge>path:hover{stroke-width:8}</style>
<path fill="none" stroke="black" d="M460.709,-578.034C440.32,-568.88 413.669,-554.864 394,-537.132 371.93,-517.236 353.316,-488.828 341.174,-467.604"/>
<polygon fill="#cb10f9" stroke="black" points="344.141,-465.738 336.218,-458.704 338.025,-469.144 344.141,-465.738"/>
</g>
<!-- telereddit_content_type&#45;&gt;telereddit_services_gfycat_service -->
<g id="edge36" class="edge"><title>telereddit_content_type&#45;&gt;telereddit_services_gfycat_service</title><style>.edge>path:hover{stroke-width:8}</style>
<path fill="none" stroke="black" d="M527.877,-581.646C567.934,-572.108 633.617,-555.531 689,-537.132 761.098,-513.18 842.548,-479.271 891.548,-458.098"/>
<polygon fill="#cb10f9" stroke="black" points="893.121,-461.231 900.903,-454.04 890.336,-454.809 893.121,-461.231"/>
</g>
<!-- telereddit_content_type&#45;&gt;telereddit_services_youtube_service -->
<g id="edge39" class="edge"><title>telereddit_content_type&#45;&gt;telereddit_services_youtube_service</title><style>.edge>path:hover{stroke-width:8}</style>
<path fill="none" stroke="black" d="M498.304,-573.092C507.64,-552.726 525.341,-518.429 548,-494.706 560.447,-481.674 576.446,-470.113 591.2,-460.916"/>
<polygon fill="#cb10f9" stroke="black" points="593.424,-463.662 600.182,-455.503 589.81,-457.667 593.424,-463.662"/>
</g>
<!-- telereddit_content_type&#45;&gt;telereddit_tests_test_services -->
<g id="edge41" class="edge"><title>telereddit_content_type&#45;&gt;telereddit_tests_test_services</title><style>.edge>path:hover{stroke-width:8}</style>
<path fill="none" stroke="black" d="M453.14,-582.348C397.833,-568.59 297.753,-533.997 263,-458.706 233.519,-394.836 278.288,-314.192 307.002,-272.478"/>
<polygon fill="#cb10f9" stroke="black" points="309.946,-274.376 312.852,-264.188 304.227,-270.34 309.946,-274.376"/>
</g>
<!-- telereddit_content_type&#45;&gt;telereddit_services_generic_service -->
<g id="edge35" class="edge"><title>telereddit_content_type&#45;&gt;telereddit_services_generic_service</title><style>.edge>path:hover{stroke-width:8}</style>
<path fill="none" stroke="black" d="M491.451,-573.032C492.113,-547.95 493.357,-500.778 494.182,-469.491"/>
<polygon fill="#cb10f9" stroke="black" points="497.69,-469.238 494.455,-459.149 490.693,-469.053 497.69,-469.238"/>
</g>
<!-- telereddit_content_type&#45;&gt;telereddit_tests_test_reddit -->
<g id="edge40" class="edge"><title>telereddit_content_type&#45;&gt;telereddit_tests_test_reddit</title><style>.edge>path:hover{stroke-width:8}</style>
<path fill="none" stroke="black" d="M474.997,-573.999C450.878,-547.892 408,-493.714 408,-438.492 408,-438.492 408,-438.492 408,-242.64 408,-181.111 472.562,-136.272 516.689,-112.811"/>
<polygon fill="#cb10f9" stroke="black" points="518.481,-115.825 525.765,-108.131 515.273,-109.604 518.481,-115.825"/>
</g>
<!-- telereddit_config_config -->
<g id="node27" class="node"><title>telereddit_config_config</title><style>.edge>path:hover{stroke-width:8}</style>
<ellipse fill="#c806f9" stroke="black" cx="1285" cy="-738.345" rx="41.5911" ry="18"/>
<text text-anchor="middle" x="1285" y="-735.845" font-family="Helvetica,sans-Serif" font-size="10.00" fill="#ffffff">config.config</text>
</g>
<!-- telereddit_config_config&#45;&gt;telereddit_reddit -->
<g id="edge24" class="edge"><title>telereddit_config_config&#45;&gt;telereddit_reddit</title><style>.edge>path:hover{stroke-width:8}</style>
<path fill="none" stroke="black" d="M1285,-719.91C1285,-692.648 1285,-638.267 1285,-592.132 1285,-592.132 1285,-592.132 1285,-514.919 1285,-407.543 1254.9,-370.287 1173,-300.853 1134.43,-268.158 1076.32,-254.337 1038.76,-248.592"/>
<polygon fill="#c806f9" stroke="black" points="1039.14,-245.111 1028.75,-247.177 1038.16,-252.042 1039.14,-245.111"/>
</g>
<!-- telereddit_config_config&#45;&gt;telereddit_services_imgur_service -->
<g id="edge26" class="edge"><title>telereddit_config_config&#45;&gt;telereddit_services_imgur_service</title><style>.edge>path:hover{stroke-width:8}</style>
<path fill="none" stroke="black" d="M1243.4,-736C1085.61,-730.218 525.482,-703.318 379,-609.132 347.059,-588.595 344.934,-573.181 333,-537.132 325.683,-515.028 324.154,-488.659 324.334,-468.748"/>
<polygon fill="#c806f9" stroke="black" points="327.834,-468.782 324.573,-458.701 320.836,-468.615 327.834,-468.782"/>
</g>
<!-- telereddit_config_config&#45;&gt;telereddit_linker -->
<g id="edge23" class="edge"><title>telereddit_config_config&#45;&gt;telereddit_linker</title><style>.edge>path:hover{stroke-width:8}</style>
<path fill="none" stroke="black" d="M1292.51,-720.289C1303.58,-693.534 1323,-639.821 1323,-592.132 1323,-592.132 1323,-592.132 1323,-358.066 1323,-308.613 1265.02,-330.329 1233,-292.64 1232.13,-291.61 1201.65,-230.76 1183.76,-194.971"/>
<polygon fill="#c806f9" stroke="black" points="1186.68,-192.992 1179.08,-185.612 1180.42,-196.121 1186.68,-192.992"/>
</g>
<!-- telereddit_config_config&#45;&gt;telereddit_services_gfycat_service -->
<g id="edge25" class="edge"><title>telereddit_config_config&#45;&gt;telereddit_services_gfycat_service</title><style>.edge>path:hover{stroke-width:8}</style>
<path fill="none" stroke="black" d="M1243.19,-736.305C1168.49,-731.847 1014.39,-710.219 955,-609.132 929.48,-565.694 929.375,-505.233 932.251,-469.162"/>
<polygon fill="#c806f9" stroke="black" points="935.774,-469.077 933.214,-458.796 928.804,-468.429 935.774,-469.077"/>
</g>
<!-- telereddit_config_config&#45;&gt;telereddit_telereddit -->
<g id="edge27" class="edge"><title>telereddit_config_config&#45;&gt;telereddit_telereddit</title><style>.edge>path:hover{stroke-width:8}</style>
<path fill="none" stroke="black" d="M1310.76,-724.045C1349.18,-702.153 1417,-654.65 1417,-592.132 1417,-592.132 1417,-592.132 1417,-242.64 1417,-182.62 1355.99,-135.605 1316.92,-111.655"/>
<polygon fill="#c806f9" stroke="black" points="1318.38,-108.448 1307.99,-106.344 1314.8,-114.464 1318.38,-108.448"/>
</g>
<!-- telereddit_config_config&#45;&gt;telereddit_helpers -->
<g id="edge22" class="edge"><title>telereddit_config_config&#45;&gt;telereddit_helpers</title><style>.edge>path:hover{stroke-width:8}</style>
<path fill="none" stroke="black" d="M1252.03,-727.089C1221.11,-716.981 1173.92,-700.3 1135,-681.132 1092.63,-660.264 1046.8,-630.3 1018.74,-611.024"/>
<polygon fill="#c806f9" stroke="black" points="1020.5,-607.983 1010.28,-605.167 1016.51,-613.738 1020.5,-607.983"/>
</g>
<!-- telereddit_helpers&#45;&gt;telereddit_tests_test_helpers -->
<g id="edge47" class="edge"><title>telereddit_helpers&#45;&gt;telereddit_tests_test_helpers</title><style>.edge>path:hover{stroke-width:8}</style>
<path fill="none" stroke="black" d="M964.046,-587.895C893.762,-582.032 704.138,-564.74 548,-537.132 413.835,-513.409 258.257,-473.448 179.811,-452.408"/>
<polygon fill="#b005db" stroke="black" points="180.286,-448.912 169.72,-449.692 178.467,-455.671 180.286,-448.912"/>
</g>
<!-- telereddit_helpers&#45;&gt;telereddit_services_vreddit_service -->
<g id="edge44" class="edge"><title>telereddit_helpers&#45;&gt;telereddit_services_vreddit_service</title><style>.edge>path:hover{stroke-width:8}</style>
<path fill="none" stroke="black" d="M973.287,-577.464C935.771,-552.067 850.851,-494.58 802.814,-462.06"/>
<polygon fill="#b005db" stroke="black" points="804.536,-459 794.293,-456.292 800.612,-464.796 804.536,-459"/>
</g>
<!-- telereddit_helpers&#45;&gt;telereddit_reddit -->
<g id="edge43" class="edge"><title>telereddit_helpers&#45;&gt;telereddit_reddit</title><style>.edge>path:hover{stroke-width:8}</style>
<path fill="none" stroke="black" d="M997.078,-573.025C1004.9,-545.124 1019,-487.962 1019,-438.492 1019,-438.492 1019,-438.492 1019,-358.066 1019,-328.156 1013.15,-294.295 1008.31,-271.417"/>
<polygon fill="#b005db" stroke="black" points="1011.68,-270.448 1006.12,-261.433 1004.84,-271.951 1011.68,-270.448"/>
</g>
<!-- telereddit_helpers&#45;&gt;telereddit_linker -->
<g id="edge42" class="edge"><title>telereddit_helpers&#45;&gt;telereddit_linker</title><style>.edge>path:hover{stroke-width:8}</style>
<path fill="none" stroke="black" d="M1014.85,-580.495C1032.79,-571.759 1057.01,-557.177 1071,-537.132 1096.82,-500.132 1095,-483.611 1095,-438.492 1095,-438.492 1095,-438.492 1095,-300.853 1095,-257.329 1126.62,-215.271 1149.07,-190.897"/>
<polygon fill="#b005db" stroke="black" points="1151.63,-193.284 1155.98,-183.626 1146.56,-188.461 1151.63,-193.284"/>
</g>
<!-- telereddit_helpers&#45;&gt;telereddit_services_youtube_service -->
<g id="edge45" class="edge"><title>telereddit_helpers&#45;&gt;telereddit_services_youtube_service</title><style>.edge>path:hover{stroke-width:8}</style>
<path fill="none" stroke="black" d="M967.681,-581.636C939.242,-571.566 890.855,-554.018 850,-537.132 789.25,-512.023 720.343,-480.097 676.791,-459.481"/>
<polygon fill="#b005db" stroke="black" points="678.162,-456.257 667.627,-455.132 675.161,-462.581 678.162,-456.257"/>
</g>
<!-- telereddit_helpers&#45;&gt;telereddit_telereddit -->
<g id="edge46" class="edge"><title>telereddit_helpers&#45;&gt;telereddit_telereddit</title><style>.edge>path:hover{stroke-width:8}</style>
<path fill="none" stroke="black" d="M1003.62,-574.695C1022.32,-548.278 1057,-492.055 1057,-438.492 1057,-438.492 1057,-438.492 1057,-242.64 1057,-154.542 1178.04,-116.027 1243.73,-101.61"/>
<polygon fill="#b005db" stroke="black" points="1244.71,-104.981 1253.78,-99.4992 1243.27,-98.1311 1244.71,-104.981"/>
</g>
<!-- telegram -->
<g id="node29" class="node"><title>telegram</title><style>.edge>path:hover{stroke-width:8}</style>
<polygon fill="#4971ac" stroke="black" points="1482,-991.411 1479,-995.411 1458,-995.411 1455,-991.411 1428,-991.411 1428,-955.411 1482,-955.411 1482,-991.411"/>
<text text-anchor="middle" x="1455" y="-970.911" font-family="Helvetica,sans-Serif" font-size="10.00" fill="#ffffff">telegram</text>
</g>
<!-- telegram&#45;&gt;telereddit_linker -->
<g id="edge14" class="edge"><title>telegram&#45;&gt;telereddit_linker</title><style>.edge>path:hover{stroke-width:8}</style>
<path fill="none" stroke="black" d="M1455,-955.128C1455,-926.978 1455,-869.475 1455,-820.772 1455,-820.772 1455,-820.772 1455,-514.919 1455,-420.349 1394.97,-412.569 1337,-337.853 1292.97,-281.108 1280.75,-267.441 1229,-217.64 1218.65,-207.681 1206.52,-197.406 1196.04,-188.913"/>
<polygon fill="#4971ac" stroke="black" points="1198.05,-186.037 1188.05,-182.525 1193.68,-191.504 1198.05,-186.037"/>
</g>
<!-- telegram&#45;&gt;telereddit_telereddit -->
<g id="edge15" class="edge"><title>telegram&#45;&gt;telereddit_telereddit</title><style>.edge>path:hover{stroke-width:8}</style>
<path fill="none" stroke="black" d="M1462.33,-955.024C1473.37,-927.199 1493,-870.71 1493,-820.772 1493,-820.772 1493,-820.772 1493,-242.64 1493,-161.073 1385.71,-120.108 1325.24,-103.498"/>
<polygon fill="#4971ac" stroke="black" points="1325.81,-100.028 1315.24,-100.857 1324.02,-106.796 1325.81,-100.028"/>
</g>
<!-- telegram&#45;&gt;telereddit_config_config -->
<g id="edge13" class="edge"><title>telegram&#45;&gt;telereddit_config_config</title><style>.edge>path:hover{stroke-width:8}</style>
<path fill="none" stroke="black" d="M1442.5,-955.273C1412.76,-914.5 1337.69,-811.588 1303.04,-764.081"/>
<polygon fill="#4971ac" stroke="black" points="1305.78,-761.899 1297.06,-755.882 1300.13,-766.024 1305.78,-761.899"/>
</g>
</g>
</svg>
