<?xml version="1.0" encoding="UTF-8" standalone="no"?>
<!DOCTYPE svg PUBLIC "-//W3C//DTD SVG 1.1//EN"
 "http://www.w3.org/Graphics/SVG/1.1/DTD/svg11.dtd">
<!-- Generated by graphviz version 2.38.0 (20140413.2041)
 -->
<!-- Title: G Pages: 1 -->
<svg width="1958pt" height="999pt"
 viewBox="0.00 0.00 1958.44 999.41" xmlns="http://www.w3.org/2000/svg" xmlns:xlink="http://www.w3.org/1999/xlink">
<g id="graph0" class="graph" transform="scale(1 1) rotate(0) translate(4 995.411)">
<title>G</title><style>.edge>path:hover{stroke-width:8}</style>
<polygon fill="white" stroke="none" points="-4,4 -4,-995.411 1954.44,-995.411 1954.44,4 -4,4"/>
<g id="clust1" class="cluster"><title>cluster_parameterized</title><style>.edge>path:hover{stroke-width:8}</style>
<polygon fill="none" stroke="black" points="59.3554,-637.132 59.3554,-790.558 189.355,-790.558 189.355,-637.132 59.3554,-637.132"/>
<text text-anchor="middle" x="124.355" y="-775.358" font-family="Times New Roman,serif" font-size="14.00">parameterized</text>
</g>
<g id="clust3" class="cluster"><title>cluster_sentrysdk</title><style>.edge>path:hover{stroke-width:8}</style>
<polygon fill="none" stroke="black" points="1405.36,-217.64 1405.36,-292.64 1497.36,-292.64 1497.36,-217.64 1405.36,-217.64"/>
<text text-anchor="middle" x="1451.36" y="-277.44" font-family="Times New Roman,serif" font-size="14.00">sentrysdk</text>
</g>
<g id="clust2" class="cluster"><title>cluster_requests</title><style>.edge>path:hover{stroke-width:8}</style>
<polygon fill="none" stroke="black" points="730.355,-712.345 730.355,-787.345 810.355,-787.345 810.355,-712.345 730.355,-712.345"/>
<text text-anchor="middle" x="770.355" y="-772.145" font-family="Times New Roman,serif" font-size="14.00">requests</text>
</g>
<!-- parameterized_parameterized -->
<g id="node1" class="node"><title>parameterized_parameterized</title><style>.edge>path:hover{stroke-width:8}</style>
<ellipse fill="#ce3b3b" stroke="black" cx="124.355" cy="-738.345" rx="57.0522" ry="21.4286"/>
<text text-anchor="middle" x="124.355" y="-741.345" font-family="Helvetica,sans-Serif" font-size="10.00" fill="#ffffff">parameterized.</text>
<text text-anchor="middle" x="124.355" y="-730.345" font-family="Helvetica,sans-Serif" font-size="10.00" fill="#ffffff">parameterized</text>
</g>
<!-- parameterized -->
<g id="node2" class="node"><title>parameterized</title><style>.edge>path:hover{stroke-width:8}</style>
<ellipse fill="#c04040" stroke="black" cx="135.355" cy="-663.132" rx="45.8316" ry="18"/>
<text text-anchor="middle" x="135.355" y="-660.632" font-family="Helvetica,sans-Serif" font-size="10.00" fill="#ffffff">parameterized</text>
</g>
<!-- parameterized_parameterized&#45;&gt;parameterized -->
<g id="edge3" class="edge"><title>parameterized_parameterized&#45;&gt;parameterized</title><style>.edge>path:hover{stroke-width:8}</style>
<path fill="none" stroke="black" d="M127.419,-716.951C128.6,-709.097 129.967,-699.996 131.231,-691.583"/>
<polygon fill="#000000" stroke="black" points="134.73,-691.851 132.755,-681.442 127.808,-690.811 134.73,-691.851"/>
</g>
<!-- telereddit_tests_test_helpers -->
<g id="node8" class="node"><title>telereddit_tests_test_helpers</title><style>.edge>path:hover{stroke-width:8}</style>
<ellipse fill="#8b439d" stroke="black" cx="78.3554" cy="-437.492" rx="49.4949" ry="21.4286"/>
<text text-anchor="middle" x="78.3554" y="-440.492" font-family="Helvetica,sans-Serif" font-size="10.00" fill="#ffffff">tests.</text>
<text text-anchor="middle" x="78.3554" y="-429.492" font-family="Helvetica,sans-Serif" font-size="10.00" fill="#ffffff">test_helpers</text>
</g>
<!-- parameterized_parameterized&#45;&gt;telereddit_tests_test_helpers -->
<g id="edge4" class="edge"><title>parameterized_parameterized&#45;&gt;telereddit_tests_test_helpers</title><style>.edge>path:hover{stroke-width:8}</style>
<path fill="none" stroke="black" d="M69.3053,-637.213C58.6851,-574.354 66.2954,-506.786 72.5168,-468.859"/>
<polygon fill="#000000" stroke="black" points="76.0128,-469.181 74.2627,-458.732 69.1146,-467.992 76.0128,-469.181"/>
</g>
<!-- telereddit_tests_test_services -->
<g id="node24" class="node"><title>telereddit_tests_test_services</title><style>.edge>path:hover{stroke-width:8}</style>
<ellipse fill="#7e3d8f" stroke="black" cx="269.355" cy="-243.64" rx="52.1524" ry="21.4286"/>
<text text-anchor="middle" x="269.355" y="-246.64" font-family="Helvetica,sans-Serif" font-size="10.00" fill="#ffffff">tests.</text>
<text text-anchor="middle" x="269.355" y="-235.64" font-family="Helvetica,sans-Serif" font-size="10.00" fill="#ffffff">test_services</text>
</g>
<!-- parameterized_parameterized&#45;&gt;telereddit_tests_test_services -->
<g id="edge5" class="edge"><title>parameterized_parameterized&#45;&gt;telereddit_tests_test_services</title><style>.edge>path:hover{stroke-width:8}</style>
<path fill="none" stroke="black" d="M59.525,-693.627C29.9242,-668.095 1.35537,-632.895 1.35537,-592.132 1.35537,-592.132 1.35537,-592.132 1.35537,-514.919 1.35537,-470.273 -4.0661,-453.653 20.3554,-416.279 70.0391,-340.244 166.278,-288.593 223.466,-263.092"/>
<polygon fill="#000000" stroke="black" points="225.223,-266.143 232.982,-258.929 222.418,-259.73 225.223,-266.143"/>
</g>
<!-- parameterized&#45;&gt;telereddit_tests_test_helpers -->
<g id="edge1" class="edge"><title>parameterized&#45;&gt;telereddit_tests_test_helpers</title><style>.edge>path:hover{stroke-width:8}</style>
<path fill="none" stroke="black" d="M129.017,-637.263C118.482,-595.93 97.4059,-513.237 86.041,-468.647"/>
<polygon fill="#000000" stroke="black" points="89.4221,-467.741 83.5607,-458.916 82.639,-469.47 89.4221,-467.741"/>
</g>
<!-- parameterized&#45;&gt;telereddit_tests_test_services -->
<g id="edge2" class="edge"><title>parameterized&#45;&gt;telereddit_tests_test_services</title><style>.edge>path:hover{stroke-width:8}</style>
<path fill="none" stroke="black" d="M140.818,-637.349C153.018,-582.796 184.038,-448.382 217.355,-337.853 222.386,-321.165 222.427,-316.375 230.355,-300.853 235.299,-291.174 241.691,-281.233 247.864,-272.453"/>
<polygon fill="#000000" stroke="black" points="250.873,-274.266 253.903,-264.113 245.203,-270.16 250.873,-274.266"/>
</g>
<!-- requests -->
<g id="node3" class="node"><title>requests</title><style>.edge>path:hover{stroke-width:8}</style>
<ellipse fill="#c8f906" stroke="black" cx="770.355" cy="-738.345" rx="31.577" ry="18"/>
<text text-anchor="middle" x="770.355" y="-735.845" font-family="Helvetica,sans-Serif" font-size="10.00" fill="#000000">requests</text>
</g>
<!-- telereddit_reddit -->
<g id="node5" class="node"><title>telereddit_reddit</title><style>.edge>path:hover{stroke-width:8}</style>
<ellipse fill="#7d2493" stroke="black" cx="967.355" cy="-243.64" rx="27" ry="18"/>
<text text-anchor="middle" x="967.355" y="-241.14" font-family="Helvetica,sans-Serif" font-size="10.00" fill="#ffffff">reddit</text>
</g>
<!-- requests&#45;&gt;telereddit_reddit -->
<g id="edge7" class="edge"><title>requests&#45;&gt;telereddit_reddit</title><style>.edge>path:hover{stroke-width:8}</style>
<path fill="none" stroke="black" d="M792.368,-712.347C831.662,-666.06 913.06,-562.258 948.355,-458.706 970.234,-394.517 970.623,-313.567 969.009,-272.013"/>
<polygon fill="#000000" stroke="black" points="972.497,-271.686 968.542,-261.857 965.505,-272.007 972.497,-271.686"/>
</g>
<!-- telereddit_services_vreddit_service -->
<g id="node7" class="node"><title>telereddit_services_vreddit_service</title><style>.edge>path:hover{stroke-width:8}</style>
<ellipse fill="#853399" stroke="black" cx="629.355" cy="-437.492" rx="56.6372" ry="21.4286"/>
<text text-anchor="middle" x="629.355" y="-440.492" font-family="Helvetica,sans-Serif" font-size="10.00" fill="#ffffff">services.</text>
<text text-anchor="middle" x="629.355" y="-429.492" font-family="Helvetica,sans-Serif" font-size="10.00" fill="#ffffff">vreddit_service</text>
</g>
<!-- requests&#45;&gt;telereddit_services_vreddit_service -->
<g id="edge11" class="edge"><title>requests&#45;&gt;telereddit_services_vreddit_service</title><style>.edge>path:hover{stroke-width:8}</style>
<path fill="none" stroke="black" d="M758.601,-712.432C732.746,-657.631 671.037,-526.838 643.29,-468.027"/>
<polygon fill="#000000" stroke="black" points="646.358,-466.328 638.926,-458.778 640.028,-469.315 646.358,-466.328"/>
</g>
<!-- telereddit_services_imgur_service -->
<g id="node16" class="node"><title>telereddit_services_imgur_service</title><style>.edge>path:hover{stroke-width:8}</style>
<ellipse fill="#7e3091" stroke="black" cx="757.355" cy="-437.492" rx="53.9813" ry="21.4286"/>
<text text-anchor="middle" x="757.355" y="-440.492" font-family="Helvetica,sans-Serif" font-size="10.00" fill="#ffffff">services.</text>
<text text-anchor="middle" x="757.355" y="-429.492" font-family="Helvetica,sans-Serif" font-size="10.00" fill="#ffffff">imgur_service</text>
</g>
<!-- requests&#45;&gt;telereddit_services_imgur_service -->
<g id="edge9" class="edge"><title>requests&#45;&gt;telereddit_services_imgur_service</title><style>.edge>path:hover{stroke-width:8}</style>
<path fill="none" stroke="black" d="M769.269,-712.365C766.901,-657.941 761.283,-528.792 758.699,-469.376"/>
<polygon fill="#000000" stroke="black" points="762.179,-468.843 758.248,-459.004 755.186,-469.147 762.179,-468.843"/>
</g>
<!-- telereddit_services_gfycat_service -->
<g id="node18" class="node"><title>telereddit_services_gfycat_service</title><style>.edge>path:hover{stroke-width:8}</style>
<ellipse fill="#7e3091" stroke="black" cx="884.355" cy="-437.492" rx="55.3091" ry="21.4286"/>
<text text-anchor="middle" x="884.355" y="-440.492" font-family="Helvetica,sans-Serif" font-size="10.00" fill="#ffffff">services.</text>
<text text-anchor="middle" x="884.355" y="-429.492" font-family="Helvetica,sans-Serif" font-size="10.00" fill="#ffffff">gfycat_service</text>
</g>
<!-- requests&#45;&gt;telereddit_services_gfycat_service -->
<g id="edge8" class="edge"><title>requests&#45;&gt;telereddit_services_gfycat_service</title><style>.edge>path:hover{stroke-width:8}</style>
<path fill="none" stroke="black" d="M774.267,-712.407C783.04,-658.347 805.18,-532.216 826.355,-494.706 832.937,-483.047 842.677,-472.265 852.304,-463.329"/>
<polygon fill="#000000" stroke="black" points="854.767,-465.823 859.938,-456.575 850.129,-460.58 854.767,-465.823"/>
</g>
<!-- telereddit_helpers -->
<g id="node20" class="node"><title>telereddit_helpers</title><style>.edge>path:hover{stroke-width:8}</style>
<ellipse fill="#b005db" stroke="black" cx="1005.36" cy="-591.132" rx="28.0137" ry="18"/>
<text text-anchor="middle" x="1005.36" y="-588.632" font-family="Helvetica,sans-Serif" font-size="10.00" fill="#ffffff">helpers</text>
</g>
<!-- requests&#45;&gt;telereddit_helpers -->
<g id="edge6" class="edge"><title>requests&#45;&gt;telereddit_helpers</title><style>.edge>path:hover{stroke-width:8}</style>
<path fill="none" stroke="black" d="M809.979,-712.861C857.277,-683.634 935.199,-635.483 976.911,-609.709"/>
<polygon fill="#000000" stroke="black" points="978.88,-612.606 985.547,-604.372 975.2,-606.651 978.88,-612.606"/>
</g>
<!-- telereddit_services_service -->
<g id="node22" class="node"><title>telereddit_services_service</title><style>.edge>path:hover{stroke-width:8}</style>
<ellipse fill="#c50cf3" stroke="black" cx="494.355" cy="-515.919" rx="38.7821" ry="21.4286"/>
<text text-anchor="middle" x="494.355" y="-518.919" font-family="Helvetica,sans-Serif" font-size="10.00" fill="#ffffff">services.</text>
<text text-anchor="middle" x="494.355" y="-507.919" font-family="Helvetica,sans-Serif" font-size="10.00" fill="#ffffff">service</text>
</g>
<!-- requests&#45;&gt;telereddit_services_service -->
<g id="edge10" class="edge"><title>requests&#45;&gt;telereddit_services_service</title><style>.edge>path:hover{stroke-width:8}</style>
<path fill="none" stroke="black" d="M738.796,-712.421C726.478,-702.676 712.244,-691.396 699.355,-681.132 636.58,-631.139 563.237,-572.279 523.521,-540.367"/>
<polygon fill="#000000" stroke="black" points="525.559,-537.515 515.572,-533.98 521.174,-542.972 525.559,-537.515"/>
</g>
<!-- sentry_sdk -->
<g id="node4" class="node"><title>sentry_sdk</title><style>.edge>path:hover{stroke-width:8}</style>
<ellipse fill="#40c073" stroke="black" cx="1451.36" cy="-243.64" rx="38.0276" ry="18"/>
<text text-anchor="middle" x="1451.36" y="-241.14" font-family="Helvetica,sans-Serif" font-size="10.00" fill="#000000">sentry_sdk</text>
</g>
<!-- telereddit_telereddit -->
<g id="node17" class="node"><title>telereddit_telereddit</title><style>.edge>path:hover{stroke-width:8}</style>
<ellipse fill="#632673" stroke="black" cx="1309.36" cy="-93.2132" rx="32.9303" ry="18"/>
<text text-anchor="middle" x="1309.36" y="-90.7132" font-family="Helvetica,sans-Serif" font-size="10.00" fill="#ffffff">telereddit</text>
</g>
<!-- sentry_sdk&#45;&gt;telereddit_telereddit -->
<g id="edge12" class="edge"><title>sentry_sdk&#45;&gt;telereddit_telereddit</title><style>.edge>path:hover{stroke-width:8}</style>
<path fill="none" stroke="black" d="M1428.03,-218.263C1401.24,-190.253 1357.59,-144.632 1331.36,-117.214"/>
<polygon fill="#000000" stroke="black" points="1333.53,-114.414 1324.08,-109.608 1328.47,-119.253 1333.53,-114.414"/>
</g>
<!-- telereddit_linker -->
<g id="node13" class="node"><title>telereddit_linker</title><style>.edge>path:hover{stroke-width:8}</style>
<ellipse fill="#853399" stroke="black" cx="1233.36" cy="-168.426" rx="27" ry="18"/>
<text text-anchor="middle" x="1233.36" y="-165.926" font-family="Helvetica,sans-Serif" font-size="10.00" fill="#ffffff">linker</text>
</g>
<!-- telereddit_reddit&#45;&gt;telereddit_linker -->
<g id="edge49" class="edge"><title>telereddit_reddit&#45;&gt;telereddit_linker</title><style>.edge>path:hover{stroke-width:8}</style>
<path fill="none" stroke="black" d="M991.903,-235.883C1039.51,-222.78 1144.48,-193.89 1198.99,-178.886"/>
<polygon fill="#7d2493" stroke="black" points="1200.15,-182.195 1208.87,-176.167 1198.3,-175.446 1200.15,-182.195"/>
</g>
<!-- telereddit_tests_test_reddit -->
<g id="node25" class="node"><title>telereddit_tests_test_reddit</title><style>.edge>path:hover{stroke-width:8}</style>
<ellipse fill="#9246a4" stroke="black" cx="330.355" cy="-93.2132" rx="43.6818" ry="21.4286"/>
<text text-anchor="middle" x="330.355" y="-96.2132" font-family="Helvetica,sans-Serif" font-size="10.00" fill="#ffffff">tests.</text>
<text text-anchor="middle" x="330.355" y="-85.2132" font-family="Helvetica,sans-Serif" font-size="10.00" fill="#ffffff">test_reddit</text>
</g>
<!-- telereddit_reddit&#45;&gt;telereddit_tests_test_reddit -->
<g id="edge50" class="edge"><title>telereddit_reddit&#45;&gt;telereddit_tests_test_reddit</title><style>.edge>path:hover{stroke-width:8}</style>
<path fill="none" stroke="black" d="M941.991,-236.73C846.354,-214.445 506.557,-135.27 379.112,-105.574"/>
<polygon fill="#7d2493" stroke="black" points="379.767,-102.133 369.234,-103.272 378.179,-108.95 379.767,-102.133"/>
</g>
<!-- telereddit_content_type -->
<g id="node6" class="node"><title>telereddit_content_type</title><style>.edge>path:hover{stroke-width:8}</style>
<ellipse fill="#cb10f9" stroke="black" cx="370.355" cy="-591.132" rx="42.9448" ry="18"/>
<text text-anchor="middle" x="370.355" y="-588.632" font-family="Helvetica,sans-Serif" font-size="10.00" fill="#ffffff">content_type</text>
</g>
<!-- telereddit_content_type&#45;&gt;telereddit_reddit -->
<g id="edge34" class="edge"><title>telereddit_content_type&#45;&gt;telereddit_reddit</title><style>.edge>path:hover{stroke-width:8}</style>
<path fill="none" stroke="black" d="M352.49,-574.585C318.037,-542.725 249.134,-468.623 288.355,-416.279 328.242,-363.048 796.052,-275.41 931.08,-251.079"/>
<polygon fill="#cb10f9" stroke="black" points="932.079,-254.456 941.303,-249.244 930.842,-247.566 932.079,-254.456"/>
</g>
<!-- telereddit_content_type&#45;&gt;telereddit_services_vreddit_service -->
<g id="edge38" class="edge"><title>telereddit_content_type&#45;&gt;telereddit_services_vreddit_service</title><style>.edge>path:hover{stroke-width:8}</style>
<path fill="none" stroke="black" d="M383.616,-573.964C392.161,-563.503 403.479,-549.564 413.355,-537.132 428.215,-518.427 426.679,-508.252 446.355,-494.706 491.519,-463.614 511.954,-474.847 564.355,-458.706 568.599,-457.398 572.998,-456.039 577.415,-454.672"/>
<polygon fill="#cb10f9" stroke="black" points="578.543,-457.986 587.058,-451.682 576.47,-451.3 578.543,-457.986"/>
</g>
<!-- telereddit_services_generic_service -->
<g id="node14" class="node"><title>telereddit_services_generic_service</title><style>.edge>path:hover{stroke-width:8}</style>
<ellipse fill="#9238a8" stroke="black" cx="356.355" cy="-437.492" rx="58.8803" ry="21.4286"/>
<text text-anchor="middle" x="356.355" y="-440.492" font-family="Helvetica,sans-Serif" font-size="10.00" fill="#ffffff">services.</text>
<text text-anchor="middle" x="356.355" y="-429.492" font-family="Helvetica,sans-Serif" font-size="10.00" fill="#ffffff">generic_service</text>
</g>
<!-- telereddit_content_type&#45;&gt;telereddit_services_generic_service -->
<g id="edge35" class="edge"><title>telereddit_content_type&#45;&gt;telereddit_services_generic_service</title><style>.edge>path:hover{stroke-width:8}</style>
<path fill="none" stroke="black" d="M368.777,-573.032C366.461,-547.95 362.106,-500.778 359.217,-469.491"/>
<polygon fill="#cb10f9" stroke="black" points="362.667,-468.785 358.262,-459.149 355.697,-469.429 362.667,-468.785"/>
</g>
<!-- telereddit_services_youtube_service -->
<g id="node15" class="node"><title>telereddit_services_youtube_service</title><style>.edge>path:hover{stroke-width:8}</style>
<ellipse fill="#8b35a1" stroke="black" cx="494.355" cy="-437.492" rx="60.623" ry="21.4286"/>
<text text-anchor="middle" x="494.355" y="-440.492" font-family="Helvetica,sans-Serif" font-size="10.00" fill="#ffffff">services.</text>
<text text-anchor="middle" x="494.355" y="-429.492" font-family="Helvetica,sans-Serif" font-size="10.00" fill="#ffffff">youtube_service</text>
</g>
<!-- telereddit_content_type&#45;&gt;telereddit_services_youtube_service -->
<g id="edge39" class="edge"><title>telereddit_content_type&#45;&gt;telereddit_services_youtube_service</title><style>.edge>path:hover{stroke-width:8}</style>
<path fill="none" stroke="black" d="M374.966,-573.101C381.122,-552.744 393.603,-518.457 413.355,-494.706 424.323,-481.518 439.114,-470.042 453.056,-460.958"/>
<polygon fill="#cb10f9" stroke="black" points="454.967,-463.891 461.585,-455.617 451.252,-457.958 454.967,-463.891"/>
</g>
<!-- telereddit_content_type&#45;&gt;telereddit_services_imgur_service -->
<g id="edge37" class="edge"><title>telereddit_content_type&#45;&gt;telereddit_services_imgur_service</title><style>.edge>path:hover{stroke-width:8}</style>
<path fill="none" stroke="black" d="M409.434,-583.638C445.799,-576.353 500.516,-562.143 542.355,-537.132 565.399,-523.356 562.429,-508.676 585.355,-494.706 585.701,-494.495 656.945,-471.239 707.621,-454.71"/>
<polygon fill="#cb10f9" stroke="black" points="708.716,-458.034 717.138,-451.605 706.546,-451.379 708.716,-458.034"/>
</g>
<!-- telereddit_content_type&#45;&gt;telereddit_services_gfycat_service -->
<g id="edge36" class="edge"><title>telereddit_content_type&#45;&gt;telereddit_services_gfycat_service</title><style>.edge>path:hover{stroke-width:8}</style>
<path fill="none" stroke="black" d="M407.17,-581.556C449.071,-571.619 519.466,-554.391 579.355,-537.132 670.282,-510.929 774.975,-476.019 835.035,-455.527"/>
<polygon fill="#cb10f9" stroke="black" points="836.31,-458.79 844.64,-452.243 834.046,-452.166 836.31,-458.79"/>
</g>
<!-- telereddit_content_type&#45;&gt;telereddit_tests_test_services -->
<g id="edge41" class="edge"><title>telereddit_content_type&#45;&gt;telereddit_tests_test_services</title><style>.edge>path:hover{stroke-width:8}</style>
<path fill="none" stroke="black" d="M332.967,-581.983C307.477,-574.515 274.918,-560.892 255.355,-537.132 226.677,-502.3 231.355,-483.611 231.355,-438.492 231.355,-438.492 231.355,-438.492 231.355,-358.066 231.355,-328.216 243.334,-296.13 253.84,-273.728"/>
<polygon fill="#cb10f9" stroke="black" points="257.124,-274.98 258.364,-264.458 250.833,-271.91 257.124,-274.98"/>
</g>
<!-- telereddit_content_type&#45;&gt;telereddit_tests_test_reddit -->
<g id="edge40" class="edge"><title>telereddit_content_type&#45;&gt;telereddit_tests_test_reddit</title><style>.edge>path:hover{stroke-width:8}</style>
<path fill="none" stroke="black" d="M331.149,-583.704C300.242,-576.847 257.762,-563.228 229.355,-537.132 186.712,-497.957 117.355,-359.759 117.355,-301.853 117.355,-301.853 117.355,-301.853 117.355,-242.64 117.355,-163.277 218.123,-122.869 281.039,-105.374"/>
<polygon fill="#cb10f9" stroke="black" points="282.038,-108.73 290.791,-102.761 280.226,-101.969 282.038,-108.73"/>
</g>
<!-- telereddit_services_services_wrapper -->
<g id="node28" class="node"><title>telereddit_services_services_wrapper</title><style>.edge>path:hover{stroke-width:8}</style>
<ellipse fill="#84269b" stroke="black" cx="629.355" cy="-359.066" rx="64.1938" ry="21.4286"/>
<text text-anchor="middle" x="629.355" y="-362.066" font-family="Helvetica,sans-Serif" font-size="10.00" fill="#ffffff">services.</text>
<text text-anchor="middle" x="629.355" y="-351.066" font-family="Helvetica,sans-Serif" font-size="10.00" fill="#ffffff">services_wrapper</text>
</g>
<!-- telereddit_services_vreddit_service&#45;&gt;telereddit_services_services_wrapper -->
<g id="edge63" class="edge"><title>telereddit_services_vreddit_service&#45;&gt;telereddit_services_services_wrapper</title><style>.edge>path:hover{stroke-width:8}</style>
<path fill="none" stroke="black" d="M629.355,-416.012C629.355,-408.153 629.355,-399.009 629.355,-390.418"/>
<polygon fill="#853399" stroke="black" points="632.855,-390.338 629.355,-380.338 625.855,-390.338 632.855,-390.338"/>
</g>
<!-- telereddit_config_secret -->
<g id="node9" class="node"><title>telereddit_config_secret</title><style>.edge>path:hover{stroke-width:8}</style>
<ellipse fill="#c022e7" stroke="black" cx="1799.36" cy="-973.411" rx="42.2678" ry="18"/>
<text text-anchor="middle" x="1799.36" y="-970.911" font-family="Helvetica,sans-Serif" font-size="10.00" fill="#ffffff">config.secret</text>
</g>
<!-- telereddit_config_secret_generic -->
<g id="node10" class="node"><title>telereddit_config_secret_generic</title><style>.edge>path:hover{stroke-width:8}</style>
<ellipse fill="#9246a4" stroke="black" cx="1678.36" cy="-898.198" rx="56.6372" ry="21.4286"/>
<text text-anchor="middle" x="1678.36" y="-901.198" font-family="Helvetica,sans-Serif" font-size="10.00" fill="#ffffff">config.</text>
<text text-anchor="middle" x="1678.36" y="-890.198" font-family="Helvetica,sans-Serif" font-size="10.00" fill="#ffffff">secret_generic</text>
</g>
<!-- telereddit_config_secret&#45;&gt;telereddit_config_secret_generic -->
<g id="edge29" class="edge"><title>telereddit_config_secret&#45;&gt;telereddit_config_secret_generic</title><style>.edge>path:hover{stroke-width:8}</style>
<path fill="none" stroke="black" d="M1776.03,-958.295C1758.99,-947.989 1735.54,-933.801 1715.89,-921.91"/>
<polygon fill="#c022e7" stroke="black" points="1717.53,-918.812 1707.16,-916.63 1713.91,-924.801 1717.53,-918.812"/>
</g>
<!-- telereddit_config_secret_dev -->
<g id="node11" class="node"><title>telereddit_config_secret_dev</title><style>.edge>path:hover{stroke-width:8}</style>
<ellipse fill="#a02fbc" stroke="black" cx="1836.36" cy="-898.198" rx="44.5955" ry="21.4286"/>
<text text-anchor="middle" x="1836.36" y="-901.198" font-family="Helvetica,sans-Serif" font-size="10.00" fill="#ffffff">config.</text>
<text text-anchor="middle" x="1836.36" y="-890.198" font-family="Helvetica,sans-Serif" font-size="10.00" fill="#ffffff">secret_dev</text>
</g>
<!-- telereddit_config_secret&#45;&gt;telereddit_config_secret_dev -->
<g id="edge28" class="edge"><title>telereddit_config_secret&#45;&gt;telereddit_config_secret_dev</title><style>.edge>path:hover{stroke-width:8}</style>
<path fill="none" stroke="black" d="M1807.94,-955.431C1812.07,-947.257 1817.14,-937.23 1821.84,-927.917"/>
<polygon fill="#c022e7" stroke="black" points="1824.99,-929.442 1826.38,-918.938 1818.74,-926.285 1824.99,-929.442"/>
</g>
<!-- telereddit_config_secret_github -->
<g id="node19" class="node"><title>telereddit_config_secret_github</title><style>.edge>path:hover{stroke-width:8}</style>
<ellipse fill="#8b439d" stroke="black" cx="1770.36" cy="-819.772" rx="53.066" ry="21.4286"/>
<text text-anchor="middle" x="1770.36" y="-822.772" font-family="Helvetica,sans-Serif" font-size="10.00" fill="#ffffff">config.</text>
<text text-anchor="middle" x="1770.36" y="-811.772" font-family="Helvetica,sans-Serif" font-size="10.00" fill="#ffffff">secret_github</text>
</g>
<!-- telereddit_config_secret&#45;&gt;telereddit_config_secret_github -->
<g id="edge30" class="edge"><title>telereddit_config_secret&#45;&gt;telereddit_config_secret_github</title><style>.edge>path:hover{stroke-width:8}</style>
<path fill="none" stroke="black" d="M1793.01,-955.45C1789.39,-945.158 1785.04,-931.682 1782.36,-919.411 1777.4,-896.804 1774.34,-870.802 1772.56,-851.172"/>
<polygon fill="#c022e7" stroke="black" points="1776.02,-850.652 1771.69,-840.985 1769.05,-851.245 1776.02,-850.652"/>
</g>
<!-- telereddit_config_secret_prod -->
<g id="node27" class="node"><title>telereddit_config_secret_prod</title><style>.edge>path:hover{stroke-width:8}</style>
<ellipse fill="#8b439d" stroke="black" cx="1902.36" cy="-819.772" rx="48.1667" ry="21.4286"/>
<text text-anchor="middle" x="1902.36" y="-822.772" font-family="Helvetica,sans-Serif" font-size="10.00" fill="#ffffff">config.</text>
<text text-anchor="middle" x="1902.36" y="-811.772" font-family="Helvetica,sans-Serif" font-size="10.00" fill="#ffffff">secret_prod</text>
</g>
<!-- telereddit_config_secret&#45;&gt;telereddit_config_secret_prod -->
<g id="edge31" class="edge"><title>telereddit_config_secret&#45;&gt;telereddit_config_secret_prod</title><style>.edge>path:hover{stroke-width:8}</style>
<path fill="none" stroke="black" d="M1832.03,-961.899C1852.22,-953.638 1876.78,-940.026 1890.36,-919.411 1903.52,-899.411 1905.94,-872.101 1905.39,-851.287"/>
<polygon fill="#c022e7" stroke="black" points="1908.88,-850.879 1904.88,-841.068 1901.88,-851.232 1908.88,-850.879"/>
</g>
<!-- telereddit_config_secret_dev&#45;&gt;telereddit_config_secret_github -->
<g id="edge32" class="edge"><title>telereddit_config_secret_dev&#45;&gt;telereddit_config_secret_github</title><style>.edge>path:hover{stroke-width:8}</style>
<path fill="none" stroke="black" d="M1820.04,-878.306C1812.09,-869.098 1802.38,-857.859 1793.67,-847.765"/>
<polygon fill="#a02fbc" stroke="black" points="1796.13,-845.258 1786.94,-839.977 1790.83,-849.833 1796.13,-845.258"/>
</g>
<!-- telereddit_config_secret_dev&#45;&gt;telereddit_config_secret_prod -->
<g id="edge33" class="edge"><title>telereddit_config_secret_dev&#45;&gt;telereddit_config_secret_prod</title><style>.edge>path:hover{stroke-width:8}</style>
<path fill="none" stroke="black" d="M1852.67,-878.306C1860.62,-869.098 1870.33,-857.859 1879.04,-847.765"/>
<polygon fill="#a02fbc" stroke="black" points="1881.88,-849.833 1885.77,-839.977 1876.59,-845.258 1881.88,-849.833"/>
</g>
<!-- telereddit_services -->
<g id="node12" class="node"><title>telereddit_services</title><style>.edge>path:hover{stroke-width:8}</style>
<ellipse fill="#cb10f9" stroke="black" cx="299.355" cy="-359.066" rx="30.7213" ry="18"/>
<text text-anchor="middle" x="299.355" y="-356.566" font-family="Helvetica,sans-Serif" font-size="10.00" fill="#ffffff">services</text>
</g>
<!-- telereddit_services&#45;&gt;telereddit_reddit -->
<g id="edge51" class="edge"><title>telereddit_services&#45;&gt;telereddit_reddit</title><style>.edge>path:hover{stroke-width:8}</style>
<path fill="none" stroke="black" d="M312.936,-342.69C325.935,-329.116 346.849,-310.09 369.355,-300.853 471.79,-258.81 815.807,-247.837 930.093,-245.318"/>
<polygon fill="#cb10f9" stroke="black" points="930.187,-248.817 940.111,-245.106 930.039,-241.818 930.187,-248.817"/>
</g>
<!-- telereddit_services&#45;&gt;telereddit_tests_test_services -->
<g id="edge52" class="edge"><title>telereddit_services&#45;&gt;telereddit_tests_test_services</title><style>.edge>path:hover{stroke-width:8}</style>
<path fill="none" stroke="black" d="M294.799,-340.839C290.179,-323.37 282.934,-295.979 277.355,-274.885"/>
<polygon fill="#cb10f9" stroke="black" points="280.709,-273.879 274.769,-265.106 273.942,-275.669 280.709,-273.879"/>
</g>
<!-- telereddit_linker&#45;&gt;telereddit_telereddit -->
<g id="edge48" class="edge"><title>telereddit_linker&#45;&gt;telereddit_telereddit</title><style>.edge>path:hover{stroke-width:8}</style>
<path fill="none" stroke="black" d="M1248.37,-152.962C1259.26,-142.471 1274.19,-128.093 1286.55,-116.187"/>
<polygon fill="#853399" stroke="black" points="1289.08,-118.609 1293.85,-109.15 1284.22,-113.568 1289.08,-118.609"/>
</g>
<!-- telereddit_services_generic_service&#45;&gt;telereddit_services_services_wrapper -->
<g id="edge53" class="edge"><title>telereddit_services_generic_service&#45;&gt;telereddit_services_services_wrapper</title><style>.edge>path:hover{stroke-width:8}</style>
<path fill="none" stroke="black" d="M400.211,-423.307C408.234,-420.937 416.539,-418.512 424.355,-416.279 473.691,-402.184 529.906,-386.818 570.975,-375.72"/>
<polygon fill="#9238a8" stroke="black" points="572.07,-379.049 580.813,-373.064 570.246,-372.291 572.07,-379.049"/>
</g>
<!-- telereddit_services_youtube_service&#45;&gt;telereddit_services_services_wrapper -->
<g id="edge64" class="edge"><title>telereddit_services_youtube_service&#45;&gt;telereddit_services_services_wrapper</title><style>.edge>path:hover{stroke-width:8}</style>
<path fill="none" stroke="black" d="M524.989,-419.15C543.963,-408.408 568.544,-394.492 589.084,-382.864"/>
<polygon fill="#8b35a1" stroke="black" points="590.928,-385.842 597.906,-377.87 587.48,-379.751 590.928,-385.842"/>
</g>
<!-- telereddit_services_imgur_service&#45;&gt;telereddit_services_services_wrapper -->
<g id="edge55" class="edge"><title>telereddit_services_imgur_service&#45;&gt;telereddit_services_services_wrapper</title><style>.edge>path:hover{stroke-width:8}</style>
<path fill="none" stroke="black" d="M728.63,-419.341C710.732,-408.655 687.483,-394.773 667.983,-383.13"/>
<polygon fill="#7e3091" stroke="black" points="669.7,-380.079 659.32,-377.957 666.112,-386.089 669.7,-380.079"/>
</g>
<!-- telereddit___main__ -->
<g id="node26" class="node"><title>telereddit___main__</title><style>.edge>path:hover{stroke-width:8}</style>
<ellipse fill="#9849ac" stroke="black" cx="1309.36" cy="-18" rx="34.9638" ry="18"/>
<text text-anchor="middle" x="1309.36" y="-15.5" font-family="Helvetica,sans-Serif" font-size="10.00" fill="#ffffff">__main__</text>
</g>
<!-- telereddit_telereddit&#45;&gt;telereddit___main__ -->
<g id="edge65" class="edge"><title>telereddit_telereddit&#45;&gt;telereddit___main__</title><style>.edge>path:hover{stroke-width:8}</style>
<path fill="none" stroke="black" d="M1309.36,-74.8627C1309.36,-66.3831 1309.36,-55.9765 1309.36,-46.4531"/>
<polygon fill="#632673" stroke="black" points="1312.86,-46.2259 1309.36,-36.226 1305.86,-46.226 1312.86,-46.2259"/>
</g>
<!-- telereddit_services_gfycat_service&#45;&gt;telereddit_services_services_wrapper -->
<g id="edge54" class="edge"><title>telereddit_services_gfycat_service&#45;&gt;telereddit_services_services_wrapper</title><style>.edge>path:hover{stroke-width:8}</style>
<path fill="none" stroke="black" d="M843.079,-423.325C835.528,-420.953 827.711,-418.523 820.355,-416.279 775.437,-402.578 724.402,-387.587 686.392,-376.534"/>
<polygon fill="#7e3091" stroke="black" points="687.108,-373.097 676.528,-373.669 685.155,-379.82 687.108,-373.097"/>
</g>
<!-- telereddit_helpers&#45;&gt;telereddit_reddit -->
<g id="edge43" class="edge"><title>telereddit_helpers&#45;&gt;telereddit_reddit</title><style>.edge>path:hover{stroke-width:8}</style>
<path fill="none" stroke="black" d="M1005.36,-572.849C1005.36,-544.699 1005.36,-487.196 1005.36,-438.492 1005.36,-438.492 1005.36,-438.492 1005.36,-358.066 1005.36,-326.588 992.035,-292.623 981.167,-270.151"/>
<polygon fill="#b005db" stroke="black" points="984.172,-268.337 976.554,-260.974 977.918,-271.481 984.172,-268.337"/>
</g>
<!-- telereddit_helpers&#45;&gt;telereddit_services_vreddit_service -->
<g id="edge44" class="edge"><title>telereddit_helpers&#45;&gt;telereddit_services_vreddit_service</title><style>.edge>path:hover{stroke-width:8}</style>
<path fill="none" stroke="black" d="M982.119,-580.761C921.422,-556.282 757.219,-490.059 676.058,-457.328"/>
<polygon fill="#b005db" stroke="black" points="677.168,-454.001 666.585,-453.507 674.55,-460.493 677.168,-454.001"/>
</g>
<!-- telereddit_helpers&#45;&gt;telereddit_tests_test_helpers -->
<g id="edge47" class="edge"><title>telereddit_helpers&#45;&gt;telereddit_tests_test_helpers</title><style>.edge>path:hover{stroke-width:8}</style>
<path fill="none" stroke="black" d="M977.387,-588.073C917.002,-583.165 770.267,-568.753 651.355,-537.132 601.116,-523.773 592.777,-507.359 542.355,-494.706 466.778,-475.739 243.45,-453.593 136.597,-443.712"/>
<polygon fill="#b005db" stroke="black" points="136.908,-440.226 126.629,-442.795 136.266,-447.197 136.908,-440.226"/>
</g>
<!-- telereddit_helpers&#45;&gt;telereddit_linker -->
<g id="edge42" class="edge"><title>telereddit_helpers&#45;&gt;telereddit_linker</title><style>.edge>path:hover{stroke-width:8}</style>
<path fill="none" stroke="black" d="M1021.81,-576.017C1032.83,-565.964 1047.15,-551.701 1057.36,-537.132 1139.49,-419.907 1201.69,-258.411 1224.2,-195.753"/>
<polygon fill="#b005db" stroke="black" points="1227.53,-196.827 1227.58,-186.233 1220.93,-194.482 1227.53,-196.827"/>
</g>
<!-- telereddit_helpers&#45;&gt;telereddit_services_youtube_service -->
<g id="edge45" class="edge"><title>telereddit_helpers&#45;&gt;telereddit_services_youtube_service</title><style>.edge>path:hover{stroke-width:8}</style>
<path fill="none" stroke="black" d="M978.537,-585.237C934.466,-576.942 844.153,-558.886 769.355,-537.132 715.841,-521.568 703.812,-513.527 651.355,-494.706 615.947,-482.001 576.036,-467.712 545.315,-456.719"/>
<polygon fill="#b005db" stroke="black" points="546.275,-453.345 535.681,-453.272 543.917,-459.936 546.275,-453.345"/>
</g>
<!-- telereddit_helpers&#45;&gt;telereddit_telereddit -->
<g id="edge46" class="edge"><title>telereddit_helpers&#45;&gt;telereddit_telereddit</title><style>.edge>path:hover{stroke-width:8}</style>
<path fill="none" stroke="black" d="M1012.33,-573.642C1023.3,-546.149 1043.36,-488.973 1043.36,-438.492 1043.36,-438.492 1043.36,-438.492 1043.36,-242.64 1043.36,-141.498 1191.82,-108.637 1266.92,-98.4845"/>
<polygon fill="#b005db" stroke="black" points="1267.53,-101.935 1277,-97.1979 1266.64,-94.9914 1267.53,-101.935"/>
</g>
<!-- telereddit_config_config -->
<g id="node21" class="node"><title>telereddit_config_config</title><style>.edge>path:hover{stroke-width:8}</style>
<ellipse fill="#c806f9" stroke="black" cx="1309.36" cy="-738.345" rx="41.5911" ry="18"/>
<text text-anchor="middle" x="1309.36" y="-735.845" font-family="Helvetica,sans-Serif" font-size="10.00" fill="#ffffff">config.config</text>
</g>
<!-- telereddit_config_config&#45;&gt;telereddit_reddit -->
<g id="edge24" class="edge"><title>telereddit_config_config&#45;&gt;telereddit_reddit</title><style>.edge>path:hover{stroke-width:8}</style>
<path fill="none" stroke="black" d="M1301.6,-720.402C1287.8,-690.437 1257.83,-626.24 1230.36,-573.132 1174.02,-464.241 1163.29,-433.306 1086.36,-337.853 1072.53,-320.697 1070.06,-315.228 1053.36,-300.853 1035.79,-285.733 1013.9,-271.48 996.6,-261.109"/>
<polygon fill="#c806f9" stroke="black" points="997.913,-257.82 987.519,-255.766 994.363,-263.853 997.913,-257.82"/>
</g>
<!-- telereddit_config_config&#45;&gt;telereddit_linker -->
<g id="edge23" class="edge"><title>telereddit_config_config&#45;&gt;telereddit_linker</title><style>.edge>path:hover{stroke-width:8}</style>
<path fill="none" stroke="black" d="M1316.86,-720.289C1327.94,-693.534 1347.36,-639.821 1347.36,-592.132 1347.36,-592.132 1347.36,-592.132 1347.36,-300.853 1347.36,-248.865 1295.82,-207.374 1262.05,-185.765"/>
<polygon fill="#c806f9" stroke="black" points="1263.82,-182.743 1253.47,-180.456 1260.13,-188.695 1263.82,-182.743"/>
</g>
<!-- telereddit_config_config&#45;&gt;telereddit_services_imgur_service -->
<g id="edge26" class="edge"><title>telereddit_config_config&#45;&gt;telereddit_services_imgur_service</title><style>.edge>path:hover{stroke-width:8}</style>
<path fill="none" stroke="black" d="M1267.38,-737.761C1204.58,-736.696 1084.11,-728.026 995.355,-681.132 895.239,-628.232 811.484,-518.299 775.818,-466.563"/>
<polygon fill="#c806f9" stroke="black" points="778.638,-464.486 770.117,-458.19 772.852,-468.426 778.638,-464.486"/>
</g>
<!-- telereddit_config_config&#45;&gt;telereddit_telereddit -->
<g id="edge27" class="edge"><title>telereddit_config_config&#45;&gt;telereddit_telereddit</title><style>.edge>path:hover{stroke-width:8}</style>
<path fill="none" stroke="black" d="M1346.06,-729.455C1405.78,-714.222 1517.36,-674.708 1517.36,-592.132 1517.36,-592.132 1517.36,-592.132 1517.36,-242.64 1517.36,-161.073 1410.06,-120.108 1349.59,-103.498"/>
<polygon fill="#c806f9" stroke="black" points="1350.16,-100.028 1339.6,-100.857 1348.37,-106.796 1350.16,-100.028"/>
</g>
<!-- telereddit_config_config&#45;&gt;telereddit_services_gfycat_service -->
<g id="edge25" class="edge"><title>telereddit_config_config&#45;&gt;telereddit_services_gfycat_service</title><style>.edge>path:hover{stroke-width:8}</style>
<path fill="none" stroke="black" d="M1268.39,-734.58C1195.87,-727.354 1045.3,-701.441 968.355,-609.132 949.232,-586.189 915.188,-510.457 896.861,-468.003"/>
<polygon fill="#c806f9" stroke="black" points="900.041,-466.537 892.879,-458.729 893.609,-469.298 900.041,-466.537"/>
</g>
<!-- telereddit_config_config&#45;&gt;telereddit_helpers -->
<g id="edge22" class="edge"><title>telereddit_config_config&#45;&gt;telereddit_helpers</title><style>.edge>path:hover{stroke-width:8}</style>
<path fill="none" stroke="black" d="M1274,-728.498C1239.06,-719.089 1184.58,-702.604 1140.36,-681.132 1099.97,-661.525 1057.36,-631.683 1031.06,-612.045"/>
<polygon fill="#c806f9" stroke="black" points="1032.89,-609.037 1022.8,-605.806 1028.67,-614.624 1032.89,-609.037"/>
</g>
<!-- telereddit_services_service&#45;&gt;telereddit_services_vreddit_service -->
<g id="edge59" class="edge"><title>telereddit_services_service&#45;&gt;telereddit_services_vreddit_service</title><style>.edge>path:hover{stroke-width:8}</style>
<path fill="none" stroke="black" d="M520.705,-500.002C540.533,-488.777 568.021,-473.215 590.387,-460.553"/>
<polygon fill="#c50cf3" stroke="black" points="592.329,-463.476 599.307,-455.504 588.88,-457.384 592.329,-463.476"/>
</g>
<!-- telereddit_services_service&#45;&gt;telereddit_services_generic_service -->
<g id="edge56" class="edge"><title>telereddit_services_service&#45;&gt;telereddit_services_generic_service</title><style>.edge>path:hover{stroke-width:8}</style>
<path fill="none" stroke="black" d="M467.748,-500.183C447.419,-488.925 419.076,-473.228 396.067,-460.485"/>
<polygon fill="#c50cf3" stroke="black" points="397.662,-457.368 387.218,-455.585 394.27,-463.491 397.662,-457.368"/>
</g>
<!-- telereddit_services_service&#45;&gt;telereddit_services_youtube_service -->
<g id="edge60" class="edge"><title>telereddit_services_service&#45;&gt;telereddit_services_youtube_service</title><style>.edge>path:hover{stroke-width:8}</style>
<path fill="none" stroke="black" d="M494.355,-494.438C494.355,-486.579 494.355,-477.435 494.355,-468.845"/>
<polygon fill="#c50cf3" stroke="black" points="497.855,-468.765 494.355,-458.765 490.855,-468.765 497.855,-468.765"/>
</g>
<!-- telereddit_services_service&#45;&gt;telereddit_services_imgur_service -->
<g id="edge58" class="edge"><title>telereddit_services_service&#45;&gt;telereddit_services_imgur_service</title><style>.edge>path:hover{stroke-width:8}</style>
<path fill="none" stroke="black" d="M524.675,-502.605C532.035,-499.825 539.926,-497.016 547.355,-494.706 611.998,-474.604 630.238,-477.211 695.355,-458.706 699.46,-457.539 703.699,-456.278 707.945,-454.976"/>
<polygon fill="#c50cf3" stroke="black" points="709.308,-458.217 717.804,-451.886 707.215,-451.537 709.308,-458.217"/>
</g>
<!-- telereddit_services_service&#45;&gt;telereddit_services_gfycat_service -->
<g id="edge57" class="edge"><title>telereddit_services_service&#45;&gt;telereddit_services_gfycat_service</title><style>.edge>path:hover{stroke-width:8}</style>
<path fill="none" stroke="black" d="M529.68,-506.498C546.489,-502.639 566.904,-498.164 585.355,-494.706 689.21,-475.239 717.45,-482.688 820.355,-458.706 825.005,-457.622 829.805,-456.368 834.589,-455.025"/>
<polygon fill="#c50cf3" stroke="black" points="835.719,-458.341 844.331,-452.171 833.751,-451.623 835.719,-458.341"/>
</g>
<!-- telereddit_config -->
<g id="node23" class="node"><title>telereddit_config</title><style>.edge>path:hover{stroke-width:8}</style>
<ellipse fill="#cb10f9" stroke="black" cx="1176.36" cy="-663.132" rx="27" ry="18"/>
<text text-anchor="middle" x="1176.36" y="-660.632" font-family="Helvetica,sans-Serif" font-size="10.00" fill="#ffffff">config</text>
</g>
<!-- telereddit_config&#45;&gt;telereddit_reddit -->
<g id="edge18" class="edge"><title>telereddit_config&#45;&gt;telereddit_reddit</title><style>.edge>path:hover{stroke-width:8}</style>
<path fill="none" stroke="black" d="M1178.39,-644.975C1179.51,-634.613 1180.79,-621.134 1181.36,-609.132 1183.78,-557.562 1183.85,-541.173 1161.36,-494.706 1115.47,-399.924 1029.56,-306.907 989.269,-266.132"/>
<polygon fill="#cb10f9" stroke="black" points="991.61,-263.523 982.071,-258.913 986.653,-268.465 991.61,-263.523"/>
</g>
<!-- telereddit_config&#45;&gt;telereddit_linker -->
<g id="edge17" class="edge"><title>telereddit_config&#45;&gt;telereddit_linker</title><style>.edge>path:hover{stroke-width:8}</style>
<path fill="none" stroke="black" d="M1187.08,-646.38C1203.59,-620.546 1233.36,-567.023 1233.36,-516.919 1233.36,-516.919 1233.36,-516.919 1233.36,-300.853 1233.36,-264.755 1233.36,-223.081 1233.36,-196.509"/>
<polygon fill="#cb10f9" stroke="black" points="1236.86,-196.439 1233.36,-186.439 1229.86,-196.439 1236.86,-196.439"/>
</g>
<!-- telereddit_config&#45;&gt;telereddit_services_imgur_service -->
<g id="edge20" class="edge"><title>telereddit_config&#45;&gt;telereddit_services_imgur_service</title><style>.edge>path:hover{stroke-width:8}</style>
<path fill="none" stroke="black" d="M1158.67,-649.185C1133.52,-631.049 1085.65,-597.565 1042.36,-573.132 960.363,-526.858 859.854,-481.97 802.75,-457.505"/>
<polygon fill="#cb10f9" stroke="black" points="803.859,-454.173 793.287,-453.468 801.112,-460.612 803.859,-454.173"/>
</g>
<!-- telereddit_config&#45;&gt;telereddit_telereddit -->
<g id="edge21" class="edge"><title>telereddit_config&#45;&gt;telereddit_telereddit</title><style>.edge>path:hover{stroke-width:8}</style>
<path fill="none" stroke="black" d="M1193.64,-648.999C1205.48,-639.183 1220.73,-624.801 1230.36,-609.132 1291.15,-510.185 1309.36,-476.197 1309.36,-360.066 1309.36,-360.066 1309.36,-360.066 1309.36,-242.64 1309.36,-200.412 1309.36,-151.426 1309.36,-121.638"/>
<polygon fill="#cb10f9" stroke="black" points="1312.86,-121.58 1309.36,-111.58 1305.86,-121.58 1312.86,-121.58"/>
</g>
<!-- telereddit_config&#45;&gt;telereddit_services_gfycat_service -->
<g id="edge19" class="edge"><title>telereddit_config&#45;&gt;telereddit_services_gfycat_service</title><style>.edge>path:hover{stroke-width:8}</style>
<path fill="none" stroke="black" d="M1177.35,-645.088C1178.31,-611.278 1175.34,-535.474 1133.36,-494.706 1107.21,-469.32 1011.9,-453.352 947.08,-445.178"/>
<polygon fill="#cb10f9" stroke="black" points="947.306,-441.679 936.954,-443.933 946.452,-448.627 947.306,-441.679"/>
</g>
<!-- telereddit_config&#45;&gt;telereddit_helpers -->
<g id="edge16" class="edge"><title>telereddit_config&#45;&gt;telereddit_helpers</title><style>.edge>path:hover{stroke-width:8}</style>
<path fill="none" stroke="black" d="M1154,-652.981C1124.42,-640.872 1072.06,-619.436 1038.04,-605.51"/>
<polygon fill="#cb10f9" stroke="black" points="1039.12,-602.171 1028.54,-601.621 1036.47,-608.649 1039.12,-602.171"/>
</g>
<!-- telereddit_services_services_wrapper&#45;&gt;telereddit_reddit -->
<g id="edge61" class="edge"><title>telereddit_services_services_wrapper&#45;&gt;telereddit_reddit</title><style>.edge>path:hover{stroke-width:8}</style>
<path fill="none" stroke="black" d="M673.196,-343.354C741.723,-320.357 872.712,-276.4 934.082,-255.805"/>
<polygon fill="#84269b" stroke="black" points="935.295,-259.09 943.662,-252.591 933.068,-252.454 935.295,-259.09"/>
</g>
<!-- telereddit_services_services_wrapper&#45;&gt;telereddit_tests_test_services -->
<g id="edge62" class="edge"><title>telereddit_services_services_wrapper&#45;&gt;telereddit_tests_test_services</title><style>.edge>path:hover{stroke-width:8}</style>
<path fill="none" stroke="black" d="M584.126,-343.815C516.628,-322.549 389.973,-282.643 319.648,-260.485"/>
<polygon fill="#84269b" stroke="black" points="320.284,-257.016 309.694,-257.349 318.18,-263.693 320.284,-257.016"/>
</g>
<!-- telegram -->
<g id="node29" class="node"><title>telegram</title><style>.edge>path:hover{stroke-width:8}</style>
<polygon fill="#266ed9" stroke="black" points="1582.36,-991.411 1579.36,-995.411 1558.36,-995.411 1555.36,-991.411 1528.36,-991.411 1528.36,-955.411 1582.36,-955.411 1582.36,-991.411"/>
<text text-anchor="middle" x="1555.36" y="-970.911" font-family="Helvetica,sans-Serif" font-size="10.00" fill="#ffffff">telegram</text>
</g>
<!-- telegram&#45;&gt;telereddit_linker -->
<g id="edge14" class="edge"><title>telegram&#45;&gt;telereddit_linker</title><style>.edge>path:hover{stroke-width:8}</style>
<path fill="none" stroke="black" d="M1555.36,-955.128C1555.36,-926.978 1555.36,-869.475 1555.36,-820.772 1555.36,-820.772 1555.36,-820.772 1555.36,-358.066 1555.36,-283.701 1460.79,-337.34 1401.36,-292.64 1367.02,-266.813 1374.41,-243.836 1340.36,-217.64 1318.37,-200.727 1289.5,-188.167 1267.3,-180.113"/>
<polygon fill="#266ed9" stroke="black" points="1268.2,-176.723 1257.61,-176.731 1265.9,-183.332 1268.2,-176.723"/>
</g>
<!-- telegram&#45;&gt;telereddit_telereddit -->
<g id="edge15" class="edge"><title>telegram&#45;&gt;telereddit_telereddit</title><style>.edge>path:hover{stroke-width:8}</style>
<path fill="none" stroke="black" d="M1562.68,-955.024C1573.72,-927.199 1593.36,-870.71 1593.36,-820.772 1593.36,-820.772 1593.36,-820.772 1593.36,-242.64 1593.36,-135.089 1431.4,-105.332 1352.09,-97.2074"/>
<polygon fill="#266ed9" stroke="black" points="1352.22,-93.7037 1341.93,-96.2388 1351.56,-100.672 1352.22,-93.7037"/>
</g>
<!-- telegram&#45;&gt;telereddit_config_config -->
<g id="edge13" class="edge"><title>telegram&#45;&gt;telereddit_config_config</title><style>.edge>path:hover{stroke-width:8}</style>
<path fill="none" stroke="black" d="M1537.27,-955.273C1493.56,-913.862 1382.19,-808.354 1333.15,-761.892"/>
<polygon fill="#266ed9" stroke="black" points="1335.5,-759.299 1325.84,-754.962 1330.69,-764.38 1335.5,-759.299"/>
</g>
</g>
</svg>
