<?xml version="1.0" encoding="UTF-8" standalone="no"?>
<!DOCTYPE svg PUBLIC "-//W3C//DTD SVG 1.1//EN"
 "http://www.w3.org/Graphics/SVG/1.1/DTD/svg11.dtd">
<!-- Generated by graphviz version 2.38.0 (20140413.2041)
 -->
<!-- Title: G Pages: 1 -->
<svg width="1890pt" height="999pt"
 viewBox="0.00 0.00 1889.61 999.41" xmlns="http://www.w3.org/2000/svg" xmlns:xlink="http://www.w3.org/1999/xlink">
<g id="graph0" class="graph" transform="scale(1 1) rotate(0) translate(4 995.411)">
<title>G</title><style>.edge>path:hover{stroke-width:8}</style>
<polygon fill="white" stroke="none" points="-4,4 -4,-995.411 1885.61,-995.411 1885.61,4 -4,4"/>
<g id="clust1" class="cluster"><title>cluster_parameterized</title><style>.edge>path:hover{stroke-width:8}</style>
<polygon fill="none" stroke="black" points="57.5218,-637.132 57.5218,-790.558 187.522,-790.558 187.522,-637.132 57.5218,-637.132"/>
<text text-anchor="middle" x="122.522" y="-775.358" font-family="Times New Roman,serif" font-size="14.00">parameterized</text>
</g>
<g id="clust2" class="cluster"><title>cluster_requests</title><style>.edge>path:hover{stroke-width:8}</style>
<polygon fill="none" stroke="black" points="680.522,-712.345 680.522,-787.345 760.522,-787.345 760.522,-712.345 680.522,-712.345"/>
<text text-anchor="middle" x="720.522" y="-772.145" font-family="Times New Roman,serif" font-size="14.00">requests</text>
</g>
<g id="clust3" class="cluster"><title>cluster_sentrysdk</title><style>.edge>path:hover{stroke-width:8}</style>
<polygon fill="none" stroke="black" points="1367.52,-217.64 1367.52,-292.64 1459.52,-292.64 1459.52,-217.64 1367.52,-217.64"/>
<text text-anchor="middle" x="1413.52" y="-277.44" font-family="Times New Roman,serif" font-size="14.00">sentrysdk</text>
</g>
<!-- parameterized_parameterized -->
<g id="node1" class="node"><title>parameterized_parameterized</title><style>.edge>path:hover{stroke-width:8}</style>
<ellipse fill="#ce3b3b" stroke="black" cx="122.522" cy="-738.345" rx="57.0522" ry="21.4286"/>
<text text-anchor="middle" x="122.522" y="-741.345" font-family="Helvetica,sans-Serif" font-size="10.00" fill="#ffffff">parameterized.</text>
<text text-anchor="middle" x="122.522" y="-730.345" font-family="Helvetica,sans-Serif" font-size="10.00" fill="#ffffff">parameterized</text>
</g>
<!-- parameterized -->
<g id="node2" class="node"><title>parameterized</title><style>.edge>path:hover{stroke-width:8}</style>
<ellipse fill="#c04040" stroke="black" cx="133.522" cy="-663.132" rx="45.8316" ry="18"/>
<text text-anchor="middle" x="133.522" y="-660.632" font-family="Helvetica,sans-Serif" font-size="10.00" fill="#ffffff">parameterized</text>
</g>
<!-- parameterized_parameterized&#45;&gt;parameterized -->
<g id="edge3" class="edge"><title>parameterized_parameterized&#45;&gt;parameterized</title><style>.edge>path:hover{stroke-width:8}</style>
<path fill="none" stroke="black" d="M125.586,-716.951C126.766,-709.097 128.133,-699.996 129.397,-691.583"/>
<polygon fill="#000000" stroke="black" points="132.896,-691.851 130.921,-681.442 125.974,-690.811 132.896,-691.851"/>
</g>
<!-- telereddit_tests_test_services -->
<g id="node8" class="node"><title>telereddit_tests_test_services</title><style>.edge>path:hover{stroke-width:8}</style>
<ellipse fill="#7e3d8f" stroke="black" cx="624.522" cy="-243.64" rx="52.1524" ry="21.4286"/>
<text text-anchor="middle" x="624.522" y="-246.64" font-family="Helvetica,sans-Serif" font-size="10.00" fill="#ffffff">tests.</text>
<text text-anchor="middle" x="624.522" y="-235.64" font-family="Helvetica,sans-Serif" font-size="10.00" fill="#ffffff">test_services</text>
</g>
<!-- parameterized_parameterized&#45;&gt;telereddit_tests_test_services -->
<g id="edge5" class="edge"><title>parameterized_parameterized&#45;&gt;telereddit_tests_test_services</title><style>.edge>path:hover{stroke-width:8}</style>
<path fill="none" stroke="black" d="M57.7806,-692.553C29.0085,-667.031 1.52176,-632.172 1.52176,-592.132 1.52176,-592.132 1.52176,-592.132 1.52176,-514.919 1.52176,-470.273 -4.56529,-453.21 20.5218,-416.279 74.134,-337.357 111.893,-333.56 201.522,-300.853 323.78,-256.238 477.436,-246.384 561.828,-244.592"/>
<polygon fill="#000000" stroke="black" points="562.083,-248.088 572.018,-244.408 561.957,-241.09 562.083,-248.088"/>
</g>
<!-- telereddit_tests_test_helpers -->
<g id="node19" class="node"><title>telereddit_tests_test_helpers</title><style>.edge>path:hover{stroke-width:8}</style>
<ellipse fill="#8b439d" stroke="black" cx="78.5218" cy="-437.492" rx="49.4949" ry="21.4286"/>
<text text-anchor="middle" x="78.5218" y="-440.492" font-family="Helvetica,sans-Serif" font-size="10.00" fill="#ffffff">tests.</text>
<text text-anchor="middle" x="78.5218" y="-429.492" font-family="Helvetica,sans-Serif" font-size="10.00" fill="#ffffff">test_helpers</text>
</g>
<!-- parameterized_parameterized&#45;&gt;telereddit_tests_test_helpers -->
<g id="edge4" class="edge"><title>parameterized_parameterized&#45;&gt;telereddit_tests_test_helpers</title><style>.edge>path:hover{stroke-width:8}</style>
<path fill="none" stroke="black" d="M67.7051,-637.169C57.4814,-574.269 65.7469,-506.734 72.3596,-468.834"/>
<polygon fill="#000000" stroke="black" points="75.8542,-469.181 74.2109,-458.715 68.9684,-467.921 75.8542,-469.181"/>
</g>
<!-- parameterized&#45;&gt;telereddit_tests_test_services -->
<g id="edge2" class="edge"><title>parameterized&#45;&gt;telereddit_tests_test_services</title><style>.edge>path:hover{stroke-width:8}</style>
<path fill="none" stroke="black" d="M136.417,-637.48C145.652,-563.389 176.928,-345.086 229.522,-300.853 278.673,-259.515 463.876,-248.569 562.238,-245.676"/>
<polygon fill="#000000" stroke="black" points="562.445,-249.171 572.345,-245.398 562.253,-242.174 562.445,-249.171"/>
</g>
<!-- parameterized&#45;&gt;telereddit_tests_test_helpers -->
<g id="edge1" class="edge"><title>parameterized&#45;&gt;telereddit_tests_test_helpers</title><style>.edge>path:hover{stroke-width:8}</style>
<path fill="none" stroke="black" d="M127.406,-637.263C117.241,-595.93 96.9039,-513.237 85.9377,-468.647"/>
<polygon fill="#000000" stroke="black" points="89.3314,-467.79 83.5444,-458.916 82.5339,-469.462 89.3314,-467.79"/>
</g>
<!-- requests -->
<g id="node3" class="node"><title>requests</title><style>.edge>path:hover{stroke-width:8}</style>
<ellipse fill="#c8f906" stroke="black" cx="720.522" cy="-738.345" rx="31.577" ry="18"/>
<text text-anchor="middle" x="720.522" y="-735.845" font-family="Helvetica,sans-Serif" font-size="10.00" fill="#000000">requests</text>
</g>
<!-- telereddit_reddit -->
<g id="node13" class="node"><title>telereddit_reddit</title><style>.edge>path:hover{stroke-width:8}</style>
<ellipse fill="#7d2493" stroke="black" cx="967.522" cy="-243.64" rx="27" ry="18"/>
<text text-anchor="middle" x="967.522" y="-241.14" font-family="Helvetica,sans-Serif" font-size="10.00" fill="#ffffff">reddit</text>
</g>
<!-- requests&#45;&gt;telereddit_reddit -->
<g id="edge7" class="edge"><title>requests&#45;&gt;telereddit_reddit</title><style>.edge>path:hover{stroke-width:8}</style>
<path fill="none" stroke="black" d="M742.631,-712.388C803.234,-643.749 967.522,-456.059 967.522,-438.492 967.522,-438.492 967.522,-438.492 967.522,-358.066 967.522,-328.656 967.522,-294.957 967.522,-271.983"/>
<polygon fill="#000000" stroke="black" points="971.022,-271.934 967.522,-261.934 964.022,-271.934 971.022,-271.934"/>
</g>
<!-- telereddit_services_imgur_service -->
<g id="node14" class="node"><title>telereddit_services_imgur_service</title><style>.edge>path:hover{stroke-width:8}</style>
<ellipse fill="#7e3091" stroke="black" cx="757.522" cy="-437.492" rx="53.9813" ry="21.4286"/>
<text text-anchor="middle" x="757.522" y="-440.492" font-family="Helvetica,sans-Serif" font-size="10.00" fill="#ffffff">services.</text>
<text text-anchor="middle" x="757.522" y="-429.492" font-family="Helvetica,sans-Serif" font-size="10.00" fill="#ffffff">imgur_service</text>
</g>
<!-- requests&#45;&gt;telereddit_services_imgur_service -->
<g id="edge9" class="edge"><title>requests&#45;&gt;telereddit_services_imgur_service</title><style>.edge>path:hover{stroke-width:8}</style>
<path fill="none" stroke="black" d="M721.005,-712.435C721.581,-692.123 722.831,-662.712 725.522,-637.132 731.834,-577.118 744.199,-507.642 751.574,-468.805"/>
<polygon fill="#000000" stroke="black" points="755.066,-469.177 753.512,-458.697 748.192,-467.859 755.066,-469.177"/>
</g>
<!-- telereddit_helpers -->
<g id="node17" class="node"><title>telereddit_helpers</title><style>.edge>path:hover{stroke-width:8}</style>
<ellipse fill="#b005db" stroke="black" cx="947.522" cy="-591.132" rx="28.0137" ry="18"/>
<text text-anchor="middle" x="947.522" y="-588.632" font-family="Helvetica,sans-Serif" font-size="10.00" fill="#ffffff">helpers</text>
</g>
<!-- requests&#45;&gt;telereddit_helpers -->
<g id="edge6" class="edge"><title>requests&#45;&gt;telereddit_helpers</title><style>.edge>path:hover{stroke-width:8}</style>
<path fill="none" stroke="black" d="M759.476,-712.426C805.032,-683.284 879.316,-635.763 919.531,-610.038"/>
<polygon fill="#000000" stroke="black" points="921.617,-612.858 928.155,-604.521 917.845,-606.962 921.617,-612.858"/>
</g>
<!-- telereddit_services_service -->
<g id="node21" class="node"><title>telereddit_services_service</title><style>.edge>path:hover{stroke-width:8}</style>
<ellipse fill="#c50cf3" stroke="black" cx="520.522" cy="-515.919" rx="38.7821" ry="21.4286"/>
<text text-anchor="middle" x="520.522" y="-518.919" font-family="Helvetica,sans-Serif" font-size="10.00" fill="#ffffff">services.</text>
<text text-anchor="middle" x="520.522" y="-507.919" font-family="Helvetica,sans-Serif" font-size="10.00" fill="#ffffff">service</text>
</g>
<!-- requests&#45;&gt;telereddit_services_service -->
<g id="edge10" class="edge"><title>requests&#45;&gt;telereddit_services_service</title><style>.edge>path:hover{stroke-width:8}</style>
<path fill="none" stroke="black" d="M697.944,-712.461C659.708,-670.321 582.6,-585.337 543.857,-542.638"/>
<polygon fill="#000000" stroke="black" points="546.368,-540.196 537.056,-535.142 541.184,-544.9 546.368,-540.196"/>
</g>
<!-- telereddit_services_gfycat_service -->
<g id="node22" class="node"><title>telereddit_services_gfycat_service</title><style>.edge>path:hover{stroke-width:8}</style>
<ellipse fill="#7e3091" stroke="black" cx="884.522" cy="-437.492" rx="55.3091" ry="21.4286"/>
<text text-anchor="middle" x="884.522" y="-440.492" font-family="Helvetica,sans-Serif" font-size="10.00" fill="#ffffff">services.</text>
<text text-anchor="middle" x="884.522" y="-429.492" font-family="Helvetica,sans-Serif" font-size="10.00" fill="#ffffff">gfycat_service</text>
</g>
<!-- requests&#45;&gt;telereddit_services_gfycat_service -->
<g id="edge8" class="edge"><title>requests&#45;&gt;telereddit_services_gfycat_service</title><style>.edge>path:hover{stroke-width:8}</style>
<path fill="none" stroke="black" d="M730.663,-712.366C739.086,-691.959 751.58,-662.453 763.522,-637.132 777.173,-608.187 780.413,-600.785 796.522,-573.132 818.496,-535.411 846.448,-493.552 864.883,-466.675"/>
<polygon fill="#000000" stroke="black" points="867.957,-468.383 870.748,-458.162 862.192,-464.411 867.957,-468.383"/>
</g>
<!-- telereddit_services_vreddit_service -->
<g id="node28" class="node"><title>telereddit_services_vreddit_service</title><style>.edge>path:hover{stroke-width:8}</style>
<ellipse fill="#853399" stroke="black" cx="489.522" cy="-437.492" rx="56.6372" ry="21.4286"/>
<text text-anchor="middle" x="489.522" y="-440.492" font-family="Helvetica,sans-Serif" font-size="10.00" fill="#ffffff">services.</text>
<text text-anchor="middle" x="489.522" y="-429.492" font-family="Helvetica,sans-Serif" font-size="10.00" fill="#ffffff">vreddit_service</text>
</g>
<!-- requests&#45;&gt;telereddit_services_vreddit_service -->
<g id="edge11" class="edge"><title>requests&#45;&gt;telereddit_services_vreddit_service</title><style>.edge>path:hover{stroke-width:8}</style>
<path fill="none" stroke="black" d="M680.777,-720.072C621.647,-691.82 513.125,-629.468 472.522,-537.132 462.844,-515.123 468.593,-488.091 475.92,-467.895"/>
<polygon fill="#000000" stroke="black" points="479.18,-469.168 479.583,-458.581 472.666,-466.606 479.18,-469.168"/>
</g>
<!-- sentry_sdk -->
<g id="node4" class="node"><title>sentry_sdk</title><style>.edge>path:hover{stroke-width:8}</style>
<ellipse fill="#40c073" stroke="black" cx="1413.52" cy="-243.64" rx="38.0276" ry="18"/>
<text text-anchor="middle" x="1413.52" y="-241.14" font-family="Helvetica,sans-Serif" font-size="10.00" fill="#000000">sentry_sdk</text>
</g>
<!-- telereddit_telereddit -->
<g id="node5" class="node"><title>telereddit_telereddit</title><style>.edge>path:hover{stroke-width:8}</style>
<ellipse fill="#632673" stroke="black" cx="1271.52" cy="-93.2132" rx="32.9303" ry="18"/>
<text text-anchor="middle" x="1271.52" y="-90.7132" font-family="Helvetica,sans-Serif" font-size="10.00" fill="#ffffff">telereddit</text>
</g>
<!-- sentry_sdk&#45;&gt;telereddit_telereddit -->
<g id="edge12" class="edge"><title>sentry_sdk&#45;&gt;telereddit_telereddit</title><style>.edge>path:hover{stroke-width:8}</style>
<path fill="none" stroke="black" d="M1390.2,-218.263C1363.4,-190.253 1319.76,-144.632 1293.53,-117.214"/>
<polygon fill="#000000" stroke="black" points="1295.69,-114.414 1286.25,-109.608 1290.63,-119.253 1295.69,-114.414"/>
</g>
<!-- telereddit___main__ -->
<g id="node15" class="node"><title>telereddit___main__</title><style>.edge>path:hover{stroke-width:8}</style>
<ellipse fill="#9849ac" stroke="black" cx="1271.52" cy="-18" rx="34.9638" ry="18"/>
<text text-anchor="middle" x="1271.52" y="-15.5" font-family="Helvetica,sans-Serif" font-size="10.00" fill="#ffffff">__main__</text>
</g>
<!-- telereddit_telereddit&#45;&gt;telereddit___main__ -->
<g id="edge65" class="edge"><title>telereddit_telereddit&#45;&gt;telereddit___main__</title><style>.edge>path:hover{stroke-width:8}</style>
<path fill="none" stroke="black" d="M1271.52,-74.8627C1271.52,-66.3831 1271.52,-55.9765 1271.52,-46.4531"/>
<polygon fill="#632673" stroke="black" points="1275.02,-46.2259 1271.52,-36.226 1268.02,-46.226 1275.02,-46.2259"/>
</g>
<!-- telereddit_services_generic_service -->
<g id="node6" class="node"><title>telereddit_services_generic_service</title><style>.edge>path:hover{stroke-width:8}</style>
<ellipse fill="#9238a8" stroke="black" cx="356.522" cy="-437.492" rx="58.8803" ry="21.4286"/>
<text text-anchor="middle" x="356.522" y="-440.492" font-family="Helvetica,sans-Serif" font-size="10.00" fill="#ffffff">services.</text>
<text text-anchor="middle" x="356.522" y="-429.492" font-family="Helvetica,sans-Serif" font-size="10.00" fill="#ffffff">generic_service</text>
</g>
<!-- telereddit_services_services_wrapper -->
<g id="node16" class="node"><title>telereddit_services_services_wrapper</title><style>.edge>path:hover{stroke-width:8}</style>
<ellipse fill="#84269b" stroke="black" cx="624.522" cy="-359.066" rx="64.1938" ry="21.4286"/>
<text text-anchor="middle" x="624.522" y="-362.066" font-family="Helvetica,sans-Serif" font-size="10.00" fill="#ffffff">services.</text>
<text text-anchor="middle" x="624.522" y="-351.066" font-family="Helvetica,sans-Serif" font-size="10.00" fill="#ffffff">services_wrapper</text>
</g>
<!-- telereddit_services_generic_service&#45;&gt;telereddit_services_services_wrapper -->
<g id="edge53" class="edge"><title>telereddit_services_generic_service&#45;&gt;telereddit_services_services_wrapper</title><style>.edge>path:hover{stroke-width:8}</style>
<path fill="none" stroke="black" d="M400.093,-423.208C407.886,-420.871 415.938,-418.483 423.522,-416.279 471.637,-402.295 526.419,-387.017 566.626,-375.922"/>
<polygon fill="#9238a8" stroke="black" points="567.811,-379.227 576.522,-373.195 565.951,-372.478 567.811,-379.227"/>
</g>
<!-- telereddit_config -->
<g id="node7" class="node"><title>telereddit_config</title><style>.edge>path:hover{stroke-width:8}</style>
<ellipse fill="#cb10f9" stroke="black" cx="1100.52" cy="-663.132" rx="27" ry="18"/>
<text text-anchor="middle" x="1100.52" y="-660.632" font-family="Helvetica,sans-Serif" font-size="10.00" fill="#ffffff">config</text>
</g>
<!-- telereddit_config&#45;&gt;telereddit_telereddit -->
<g id="edge21" class="edge"><title>telereddit_config&#45;&gt;telereddit_telereddit</title><style>.edge>path:hover{stroke-width:8}</style>
<path fill="none" stroke="black" d="M1115.7,-648.062C1157.55,-607.645 1271.52,-486.014 1271.52,-360.066 1271.52,-360.066 1271.52,-360.066 1271.52,-242.64 1271.52,-200.412 1271.52,-151.426 1271.52,-121.638"/>
<polygon fill="#cb10f9" stroke="black" points="1275.02,-121.58 1271.52,-111.58 1268.02,-121.58 1275.02,-121.58"/>
</g>
<!-- telereddit_config&#45;&gt;telereddit_reddit -->
<g id="edge18" class="edge"><title>telereddit_config&#45;&gt;telereddit_reddit</title><style>.edge>path:hover{stroke-width:8}</style>
<path fill="none" stroke="black" d="M1104.19,-645.235C1109.71,-618.252 1119.52,-563.702 1119.52,-516.919 1119.52,-516.919 1119.52,-516.919 1119.52,-358.066 1119.52,-299.905 1047.15,-268.003 1002.29,-253.814"/>
<polygon fill="#cb10f9" stroke="black" points="1003.21,-250.436 992.621,-250.895 1001.18,-257.137 1003.21,-250.436"/>
</g>
<!-- telereddit_config&#45;&gt;telereddit_services_imgur_service -->
<g id="edge20" class="edge"><title>telereddit_config&#45;&gt;telereddit_services_imgur_service</title><style>.edge>path:hover{stroke-width:8}</style>
<path fill="none" stroke="black" d="M1080.06,-651.077C1062.62,-641.191 1037.29,-625.735 1017.52,-609.132 1000.9,-595.173 1000.99,-587.275 984.522,-573.132 937.034,-532.341 921.488,-526.433 867.522,-494.706 845.717,-481.887 820.657,-468.948 799.969,-458.721"/>
<polygon fill="#cb10f9" stroke="black" points="801.317,-455.485 790.798,-454.223 798.235,-461.769 801.317,-455.485"/>
</g>
<!-- telereddit_config&#45;&gt;telereddit_helpers -->
<g id="edge16" class="edge"><title>telereddit_config&#45;&gt;telereddit_helpers</title><style>.edge>path:hover{stroke-width:8}</style>
<path fill="none" stroke="black" d="M1078.93,-652.251C1052.84,-640.315 1008.74,-620.141 978.9,-606.488"/>
<polygon fill="#cb10f9" stroke="black" points="980.303,-603.281 969.753,-602.303 977.391,-609.647 980.303,-603.281"/>
</g>
<!-- telereddit_linker -->
<g id="node20" class="node"><title>telereddit_linker</title><style>.edge>path:hover{stroke-width:8}</style>
<ellipse fill="#853399" stroke="black" cx="1216.52" cy="-168.426" rx="27" ry="18"/>
<text text-anchor="middle" x="1216.52" y="-165.926" font-family="Helvetica,sans-Serif" font-size="10.00" fill="#ffffff">linker</text>
</g>
<!-- telereddit_config&#45;&gt;telereddit_linker -->
<g id="edge17" class="edge"><title>telereddit_config&#45;&gt;telereddit_linker</title><style>.edge>path:hover{stroke-width:8}</style>
<path fill="none" stroke="black" d="M1110.29,-645.856C1116.15,-635.585 1123.44,-621.893 1128.52,-609.132 1187.74,-460.505 1208.59,-267.146 1214.51,-196.651"/>
<polygon fill="#cb10f9" stroke="black" points="1218.02,-196.667 1215.34,-186.418 1211.05,-196.104 1218.02,-196.667"/>
</g>
<!-- telereddit_config&#45;&gt;telereddit_services_gfycat_service -->
<g id="edge19" class="edge"><title>telereddit_config&#45;&gt;telereddit_services_gfycat_service</title><style>.edge>path:hover{stroke-width:8}</style>
<path fill="none" stroke="black" d="M1086.95,-647.07C1060.1,-617.396 998.052,-549.5 943.522,-494.706 933.501,-484.637 922.265,-473.819 912.309,-464.388"/>
<polygon fill="#cb10f9" stroke="black" points="914.662,-461.797 904.985,-457.483 909.859,-466.89 914.662,-461.797"/>
</g>
<!-- telereddit_config_config -->
<g id="node9" class="node"><title>telereddit_config_config</title><style>.edge>path:hover{stroke-width:8}</style>
<ellipse fill="#c806f9" stroke="black" cx="1271.52" cy="-738.345" rx="41.5911" ry="18"/>
<text text-anchor="middle" x="1271.52" y="-735.845" font-family="Helvetica,sans-Serif" font-size="10.00" fill="#ffffff">config.config</text>
</g>
<!-- telereddit_config_config&#45;&gt;telereddit_telereddit -->
<g id="edge27" class="edge"><title>telereddit_config_config&#45;&gt;telereddit_telereddit</title><style>.edge>path:hover{stroke-width:8}</style>
<path fill="none" stroke="black" d="M1308.23,-729.455C1367.94,-714.222 1479.52,-674.708 1479.52,-592.132 1479.52,-592.132 1479.52,-592.132 1479.52,-242.64 1479.52,-161.073 1372.23,-120.108 1311.76,-103.498"/>
<polygon fill="#c806f9" stroke="black" points="1312.33,-100.028 1301.77,-100.857 1310.54,-106.796 1312.33,-100.028"/>
</g>
<!-- telereddit_config_config&#45;&gt;telereddit_reddit -->
<g id="edge24" class="edge"><title>telereddit_config_config&#45;&gt;telereddit_reddit</title><style>.edge>path:hover{stroke-width:8}</style>
<path fill="none" stroke="black" d="M1270.91,-720.155C1267.62,-655.013 1246.96,-420.975 1118.52,-300.853 1086.49,-270.896 1037.06,-256.548 1003.55,-249.927"/>
<polygon fill="#c806f9" stroke="black" points="1004.17,-246.482 993.702,-248.111 1002.9,-253.366 1004.17,-246.482"/>
</g>
<!-- telereddit_config_config&#45;&gt;telereddit_services_imgur_service -->
<g id="edge26" class="edge"><title>telereddit_config_config&#45;&gt;telereddit_services_imgur_service</title><style>.edge>path:hover{stroke-width:8}</style>
<path fill="none" stroke="black" d="M1230.49,-734.687C1150.19,-728.843 975.695,-712.807 925.522,-681.132 843.1,-629.098 790.402,-520.406 768.767,-467.999"/>
<polygon fill="#c806f9" stroke="black" points="771.961,-466.56 764.972,-458.598 765.47,-469.181 771.961,-466.56"/>
</g>
<!-- telereddit_config_config&#45;&gt;telereddit_helpers -->
<g id="edge22" class="edge"><title>telereddit_config_config&#45;&gt;telereddit_helpers</title><style>.edge>path:hover{stroke-width:8}</style>
<path fill="none" stroke="black" d="M1232.54,-731.379C1189.7,-723.789 1119.64,-708.285 1064.52,-681.132 1028.43,-663.353 992.423,-633.722 970.082,-613.577"/>
<polygon fill="#c806f9" stroke="black" points="972.231,-610.8 962.494,-606.624 967.502,-615.961 972.231,-610.8"/>
</g>
<!-- telereddit_config_config&#45;&gt;telereddit_linker -->
<g id="edge23" class="edge"><title>telereddit_config_config&#45;&gt;telereddit_linker</title><style>.edge>path:hover{stroke-width:8}</style>
<path fill="none" stroke="black" d="M1279.03,-720.289C1290.1,-693.534 1309.52,-639.821 1309.52,-592.132 1309.52,-592.132 1309.52,-592.132 1309.52,-300.853 1309.52,-253.99 1269.63,-212.139 1242.1,-188.836"/>
<polygon fill="#c806f9" stroke="black" points="1243.97,-185.84 1234.01,-182.214 1239.54,-191.257 1243.97,-185.84"/>
</g>
<!-- telereddit_config_config&#45;&gt;telereddit_services_gfycat_service -->
<g id="edge25" class="edge"><title>telereddit_config_config&#45;&gt;telereddit_services_gfycat_service</title><style>.edge>path:hover{stroke-width:8}</style>
<path fill="none" stroke="black" d="M1230.01,-735.414C1173.95,-731.395 1072.12,-719.041 994.522,-681.132 950.341,-659.549 934.384,-652.125 910.522,-609.132 886.009,-564.966 882.504,-504.981 882.97,-469.157"/>
<polygon fill="#c806f9" stroke="black" points="886.476,-468.942 883.223,-458.859 879.479,-468.77 886.476,-468.942"/>
</g>
<!-- telereddit_content_type -->
<g id="node10" class="node"><title>telereddit_content_type</title><style>.edge>path:hover{stroke-width:8}</style>
<ellipse fill="#cb10f9" stroke="black" cx="358.522" cy="-591.132" rx="42.9448" ry="18"/>
<text text-anchor="middle" x="358.522" y="-588.632" font-family="Helvetica,sans-Serif" font-size="10.00" fill="#ffffff">content_type</text>
</g>
<!-- telereddit_content_type&#45;&gt;telereddit_services_generic_service -->
<g id="edge35" class="edge"><title>telereddit_content_type&#45;&gt;telereddit_services_generic_service</title><style>.edge>path:hover{stroke-width:8}</style>
<path fill="none" stroke="black" d="M358.296,-573.032C357.965,-547.95 357.343,-500.778 356.931,-469.491"/>
<polygon fill="#cb10f9" stroke="black" points="360.426,-469.102 356.794,-459.149 353.426,-469.195 360.426,-469.102"/>
</g>
<!-- telereddit_content_type&#45;&gt;telereddit_tests_test_services -->
<g id="edge41" class="edge"><title>telereddit_content_type&#45;&gt;telereddit_tests_test_services</title><style>.edge>path:hover{stroke-width:8}</style>
<path fill="none" stroke="black" d="M323.495,-580.453C300.868,-572.433 272.568,-558.777 255.522,-537.132 227.606,-501.686 231.522,-483.611 231.522,-438.492 231.522,-438.492 231.522,-438.492 231.522,-358.066 231.522,-330.491 233.778,-317.811 255.522,-300.853 302.187,-264.456 470.107,-251.381 562.499,-246.876"/>
<polygon fill="#cb10f9" stroke="black" points="562.735,-250.368 572.56,-246.404 562.407,-243.376 562.735,-250.368"/>
</g>
<!-- telereddit_content_type&#45;&gt;telereddit_reddit -->
<g id="edge34" class="edge"><title>telereddit_content_type&#45;&gt;telereddit_reddit</title><style>.edge>path:hover{stroke-width:8}</style>
<path fill="none" stroke="black" d="M341.362,-574.223C315.499,-548.424 269.522,-494.66 269.522,-438.492 269.522,-438.492 269.522,-438.492 269.522,-358.066 269.522,-264.485 593.171,-307.761 685.522,-292.64 773.969,-278.157 877.857,-260.24 931.461,-250.927"/>
<polygon fill="#cb10f9" stroke="black" points="932.239,-254.345 941.491,-249.183 931.04,-247.448 932.239,-254.345"/>
</g>
<!-- telereddit_content_type&#45;&gt;telereddit_services_imgur_service -->
<g id="edge37" class="edge"><title>telereddit_content_type&#45;&gt;telereddit_services_imgur_service</title><style>.edge>path:hover{stroke-width:8}</style>
<path fill="none" stroke="black" d="M397.286,-583.178C440.067,-574.857 510.547,-559.227 568.522,-537.132 623.681,-516.11 683.466,-482.998 720.706,-461.018"/>
<polygon fill="#cb10f9" stroke="black" points="722.867,-463.805 729.671,-455.684 719.288,-457.789 722.867,-463.805"/>
</g>
<!-- telereddit_tests_test_reddit -->
<g id="node18" class="node"><title>telereddit_tests_test_reddit</title><style>.edge>path:hover{stroke-width:8}</style>
<ellipse fill="#9246a4" stroke="black" cx="330.522" cy="-93.2132" rx="43.6818" ry="21.4286"/>
<text text-anchor="middle" x="330.522" y="-96.2132" font-family="Helvetica,sans-Serif" font-size="10.00" fill="#ffffff">tests.</text>
<text text-anchor="middle" x="330.522" y="-85.2132" font-family="Helvetica,sans-Serif" font-size="10.00" fill="#ffffff">test_reddit</text>
</g>
<!-- telereddit_content_type&#45;&gt;telereddit_tests_test_reddit -->
<g id="edge40" class="edge"><title>telereddit_content_type&#45;&gt;telereddit_tests_test_reddit</title><style>.edge>path:hover{stroke-width:8}</style>
<path fill="none" stroke="black" d="M320.905,-582.244C293.034,-574.731 255.678,-560.938 230.522,-537.132 188.393,-497.266 117.522,-359.855 117.522,-301.853 117.522,-301.853 117.522,-301.853 117.522,-242.64 117.522,-163.277 218.289,-122.869 281.206,-105.374"/>
<polygon fill="#cb10f9" stroke="black" points="282.204,-108.73 290.957,-102.761 280.392,-101.969 282.204,-108.73"/>
</g>
<!-- telereddit_content_type&#45;&gt;telereddit_services_gfycat_service -->
<g id="edge36" class="edge"><title>telereddit_content_type&#45;&gt;telereddit_services_gfycat_service</title><style>.edge>path:hover{stroke-width:8}</style>
<path fill="none" stroke="black" d="M398.841,-584.461C452.074,-576.466 548.429,-560.233 628.522,-537.132 704.62,-515.183 789.868,-480.131 840.273,-458.258"/>
<polygon fill="#cb10f9" stroke="black" points="841.807,-461.408 849.573,-454.201 839.008,-454.992 841.807,-461.408"/>
</g>
<!-- telereddit_services_youtube_service -->
<g id="node26" class="node"><title>telereddit_services_youtube_service</title><style>.edge>path:hover{stroke-width:8}</style>
<ellipse fill="#8b35a1" stroke="black" cx="624.522" cy="-437.492" rx="60.623" ry="21.4286"/>
<text text-anchor="middle" x="624.522" y="-440.492" font-family="Helvetica,sans-Serif" font-size="10.00" fill="#ffffff">services.</text>
<text text-anchor="middle" x="624.522" y="-429.492" font-family="Helvetica,sans-Serif" font-size="10.00" fill="#ffffff">youtube_service</text>
</g>
<!-- telereddit_content_type&#45;&gt;telereddit_services_youtube_service -->
<g id="edge39" class="edge"><title>telereddit_content_type&#45;&gt;telereddit_services_youtube_service</title><style>.edge>path:hover{stroke-width:8}</style>
<path fill="none" stroke="black" d="M374.16,-573.967C394.969,-553.225 433.673,-517.238 472.522,-494.706 489.892,-484.631 535.15,-468.314 571.795,-455.848"/>
<polygon fill="#cb10f9" stroke="black" points="573.034,-459.124 581.386,-452.606 570.792,-452.493 573.034,-459.124"/>
</g>
<!-- telereddit_content_type&#45;&gt;telereddit_services_vreddit_service -->
<g id="edge38" class="edge"><title>telereddit_content_type&#45;&gt;telereddit_services_vreddit_service</title><style>.edge>path:hover{stroke-width:8}</style>
<path fill="none" stroke="black" d="M362.98,-572.972C368.986,-552.488 381.319,-518.075 401.522,-494.706 413.811,-480.49 430.576,-468.57 446.177,-459.418"/>
<polygon fill="#cb10f9" stroke="black" points="448.185,-462.304 455.186,-454.352 444.754,-456.203 448.185,-462.304"/>
</g>
<!-- telereddit_config_secret_github -->
<g id="node11" class="node"><title>telereddit_config_secret_github</title><style>.edge>path:hover{stroke-width:8}</style>
<ellipse fill="#8b439d" stroke="black" cx="1693.52" cy="-819.772" rx="53.066" ry="21.4286"/>
<text text-anchor="middle" x="1693.52" y="-822.772" font-family="Helvetica,sans-Serif" font-size="10.00" fill="#ffffff">config.</text>
<text text-anchor="middle" x="1693.52" y="-811.772" font-family="Helvetica,sans-Serif" font-size="10.00" fill="#ffffff">secret_github</text>
</g>
<!-- telereddit_services -->
<g id="node12" class="node"><title>telereddit_services</title><style>.edge>path:hover{stroke-width:8}</style>
<ellipse fill="#cb10f9" stroke="black" cx="871.522" cy="-359.066" rx="30.7213" ry="18"/>
<text text-anchor="middle" x="871.522" y="-356.566" font-family="Helvetica,sans-Serif" font-size="10.00" fill="#ffffff">services</text>
</g>
<!-- telereddit_services&#45;&gt;telereddit_tests_test_services -->
<g id="edge52" class="edge"><title>telereddit_services&#45;&gt;telereddit_tests_test_services</title><style>.edge>path:hover{stroke-width:8}</style>
<path fill="none" stroke="black" d="M847.838,-347.19C806.348,-328.137 719.966,-288.469 667.634,-264.438"/>
<polygon fill="#cb10f9" stroke="black" points="668.826,-261.133 658.278,-260.141 665.905,-267.495 668.826,-261.133"/>
</g>
<!-- telereddit_services&#45;&gt;telereddit_reddit -->
<g id="edge51" class="edge"><title>telereddit_services&#45;&gt;telereddit_reddit</title><style>.edge>path:hover{stroke-width:8}</style>
<path fill="none" stroke="black" d="M884.87,-342.295C901.389,-322.777 929.631,-289.409 948.436,-267.19"/>
<polygon fill="#cb10f9" stroke="black" points="951.109,-269.45 954.897,-259.556 945.765,-264.928 951.109,-269.45"/>
</g>
<!-- telereddit_reddit&#45;&gt;telereddit_tests_test_reddit -->
<g id="edge50" class="edge"><title>telereddit_reddit&#45;&gt;telereddit_tests_test_reddit</title><style>.edge>path:hover{stroke-width:8}</style>
<path fill="none" stroke="black" d="M942.158,-236.73C846.52,-214.445 506.723,-135.27 379.278,-105.574"/>
<polygon fill="#7d2493" stroke="black" points="379.934,-102.133 369.4,-103.272 378.345,-108.95 379.934,-102.133"/>
</g>
<!-- telereddit_reddit&#45;&gt;telereddit_linker -->
<g id="edge49" class="edge"><title>telereddit_reddit&#45;&gt;telereddit_linker</title><style>.edge>path:hover{stroke-width:8}</style>
<path fill="none" stroke="black" d="M991.85,-235.486C1036.39,-222.392 1131.12,-194.537 1182.19,-179.52"/>
<polygon fill="#7d2493" stroke="black" points="1183.49,-182.788 1192.09,-176.609 1181.51,-176.072 1183.49,-182.788"/>
</g>
<!-- telereddit_services_imgur_service&#45;&gt;telereddit_services_services_wrapper -->
<g id="edge55" class="edge"><title>telereddit_services_imgur_service&#45;&gt;telereddit_services_services_wrapper</title><style>.edge>path:hover{stroke-width:8}</style>
<path fill="none" stroke="black" d="M728.005,-419.531C709.206,-408.728 684.625,-394.603 664.137,-382.83"/>
<polygon fill="#7e3091" stroke="black" points="665.757,-379.725 655.343,-377.777 662.269,-385.794 665.757,-379.725"/>
</g>
<!-- telereddit_services_services_wrapper&#45;&gt;telereddit_tests_test_services -->
<g id="edge62" class="edge"><title>telereddit_services_services_wrapper&#45;&gt;telereddit_tests_test_services</title><style>.edge>path:hover{stroke-width:8}</style>
<path fill="none" stroke="black" d="M624.522,-337.788C624.522,-320.395 624.522,-295.074 624.522,-275.221"/>
<polygon fill="#84269b" stroke="black" points="628.022,-275.125 624.522,-265.125 621.022,-275.125 628.022,-275.125"/>
</g>
<!-- telereddit_services_services_wrapper&#45;&gt;telereddit_reddit -->
<g id="edge61" class="edge"><title>telereddit_services_services_wrapper&#45;&gt;telereddit_reddit</title><style>.edge>path:hover{stroke-width:8}</style>
<path fill="none" stroke="black" d="M668.661,-343.47C738.247,-320.458 871.92,-276.254 934.139,-255.679"/>
<polygon fill="#84269b" stroke="black" points="935.447,-258.933 943.842,-252.47 933.249,-252.287 935.447,-258.933"/>
</g>
<!-- telereddit_helpers&#45;&gt;telereddit_telereddit -->
<g id="edge46" class="edge"><title>telereddit_helpers&#45;&gt;telereddit_telereddit</title><style>.edge>path:hover{stroke-width:8}</style>
<path fill="none" stroke="black" d="M965.454,-576.971C977.807,-567.141 993.854,-552.755 1004.52,-537.132 1031.11,-498.201 1043.52,-485.634 1043.52,-438.492 1043.52,-438.492 1043.52,-438.492 1043.52,-242.64 1043.52,-154.542 1164.56,-116.027 1230.26,-101.61"/>
<polygon fill="#b005db" stroke="black" points="1231.23,-104.981 1240.3,-99.4992 1229.79,-98.1311 1231.23,-104.981"/>
</g>
<!-- telereddit_helpers&#45;&gt;telereddit_reddit -->
<g id="edge43" class="edge"><title>telereddit_helpers&#45;&gt;telereddit_reddit</title><style>.edge>path:hover{stroke-width:8}</style>
<path fill="none" stroke="black" d="M959.399,-574.669C966.711,-564.489 975.756,-550.599 981.522,-537.132 999.28,-495.655 1005.52,-483.611 1005.52,-438.492 1005.52,-438.492 1005.52,-438.492 1005.52,-358.066 1005.52,-326.588 992.201,-292.623 981.333,-270.151"/>
<polygon fill="#b005db" stroke="black" points="984.339,-268.337 976.721,-260.974 978.084,-271.481 984.339,-268.337"/>
</g>
<!-- telereddit_helpers&#45;&gt;telereddit_tests_test_helpers -->
<g id="edge47" class="edge"><title>telereddit_helpers&#45;&gt;telereddit_tests_test_helpers</title><style>.edge>path:hover{stroke-width:8}</style>
<path fill="none" stroke="black" d="M919.446,-588.741C864.215,-585.268 738.237,-573.672 639.522,-537.132 605.048,-524.371 603.341,-506.493 568.522,-494.706 548.282,-487.854 261.62,-457.503 136.375,-444.471"/>
<polygon fill="#b005db" stroke="black" points="136.513,-440.966 126.204,-443.414 135.789,-447.929 136.513,-440.966"/>
</g>
<!-- telereddit_helpers&#45;&gt;telereddit_linker -->
<g id="edge42" class="edge"><title>telereddit_helpers&#45;&gt;telereddit_linker</title><style>.edge>path:hover{stroke-width:8}</style>
<path fill="none" stroke="black" d="M973.694,-584.343C1029.99,-570.184 1157.52,-528.207 1157.52,-438.492 1157.52,-438.492 1157.52,-438.492 1157.52,-300.853 1157.52,-260.134 1181.38,-218.052 1198.76,-192.809"/>
<polygon fill="#b005db" stroke="black" points="1201.64,-194.791 1204.58,-184.612 1195.94,-190.736 1201.64,-194.791"/>
</g>
<!-- telereddit_helpers&#45;&gt;telereddit_services_youtube_service -->
<g id="edge45" class="edge"><title>telereddit_helpers&#45;&gt;telereddit_services_youtube_service</title><style>.edge>path:hover{stroke-width:8}</style>
<path fill="none" stroke="black" d="M925.321,-579.709C872.572,-554.945 738.915,-492.197 668.878,-459.316"/>
<polygon fill="#b005db" stroke="black" points="669.972,-455.964 659.433,-454.882 666.997,-462.3 669.972,-455.964"/>
</g>
<!-- telereddit_helpers&#45;&gt;telereddit_services_vreddit_service -->
<g id="edge44" class="edge"><title>telereddit_helpers&#45;&gt;telereddit_services_vreddit_service</title><style>.edge>path:hover{stroke-width:8}</style>
<path fill="none" stroke="black" d="M921.253,-584.413C882.255,-575.668 806.937,-557.794 744.522,-537.132 696.74,-521.314 686.425,-512.967 639.522,-494.706 605.877,-481.607 567.78,-467.337 538.399,-456.452"/>
<polygon fill="#b005db" stroke="black" points="539.382,-453.084 528.789,-452.897 536.953,-459.649 539.382,-453.084"/>
</g>
<!-- telereddit_linker&#45;&gt;telereddit_telereddit -->
<g id="edge48" class="edge"><title>telereddit_linker&#45;&gt;telereddit_telereddit</title><style>.edge>path:hover{stroke-width:8}</style>
<path fill="none" stroke="black" d="M1228.19,-151.9C1235.52,-142.133 1245.14,-129.329 1253.45,-118.265"/>
<polygon fill="#853399" stroke="black" points="1256.29,-120.321 1259.49,-110.224 1250.69,-116.117 1256.29,-120.321"/>
</g>
<!-- telereddit_services_service&#45;&gt;telereddit_services_generic_service -->
<g id="edge56" class="edge"><title>telereddit_services_service&#45;&gt;telereddit_services_generic_service</title><style>.edge>path:hover{stroke-width:8}</style>
<path fill="none" stroke="black" d="M491.579,-501.431C466.272,-489.638 429.148,-472.337 400.224,-458.858"/>
<polygon fill="#c50cf3" stroke="black" points="401.689,-455.68 391.146,-454.628 398.732,-462.024 401.689,-455.68"/>
</g>
<!-- telereddit_services_service&#45;&gt;telereddit_services_imgur_service -->
<g id="edge58" class="edge"><title>telereddit_services_service&#45;&gt;telereddit_services_imgur_service</title><style>.edge>path:hover{stroke-width:8}</style>
<path fill="none" stroke="black" d="M551.208,-502.768C558.485,-500.011 566.247,-497.171 573.522,-494.706 626.66,-476.696 640.917,-475.277 694.522,-458.706 698.773,-457.392 703.179,-456.012 707.598,-454.618"/>
<polygon fill="#c50cf3" stroke="black" points="708.759,-457.921 717.232,-451.56 706.642,-451.249 708.759,-457.921"/>
</g>
<!-- telereddit_services_service&#45;&gt;telereddit_services_gfycat_service -->
<g id="edge57" class="edge"><title>telereddit_services_service&#45;&gt;telereddit_services_gfycat_service</title><style>.edge>path:hover{stroke-width:8}</style>
<path fill="none" stroke="black" d="M557.781,-509.421C614.81,-500.672 726.974,-482.152 820.522,-458.706 825.085,-457.562 829.801,-456.276 834.508,-454.922"/>
<polygon fill="#c50cf3" stroke="black" points="835.517,-458.273 844.105,-452.068 833.522,-451.563 835.517,-458.273"/>
</g>
<!-- telereddit_services_service&#45;&gt;telereddit_services_youtube_service -->
<g id="edge60" class="edge"><title>telereddit_services_service&#45;&gt;telereddit_services_youtube_service</title><style>.edge>path:hover{stroke-width:8}</style>
<path fill="none" stroke="black" d="M542.832,-498.523C556.832,-488.235 575.15,-474.774 590.891,-463.207"/>
<polygon fill="#c50cf3" stroke="black" points="593.341,-465.75 599.327,-457.008 589.196,-460.109 593.341,-465.75"/>
</g>
<!-- telereddit_services_service&#45;&gt;telereddit_services_vreddit_service -->
<g id="edge59" class="edge"><title>telereddit_services_service&#45;&gt;telereddit_services_vreddit_service</title><style>.edge>path:hover{stroke-width:8}</style>
<path fill="none" stroke="black" d="M512.377,-494.839C509.057,-486.654 505.151,-477.025 501.517,-468.064"/>
<polygon fill="#c50cf3" stroke="black" points="504.722,-466.655 497.72,-458.704 498.235,-469.286 504.722,-466.655"/>
</g>
<!-- telereddit_services_gfycat_service&#45;&gt;telereddit_services_services_wrapper -->
<g id="edge54" class="edge"><title>telereddit_services_gfycat_service&#45;&gt;telereddit_services_services_wrapper</title><style>.edge>path:hover{stroke-width:8}</style>
<path fill="none" stroke="black" d="M843.258,-423.283C835.706,-420.916 827.885,-418.498 820.522,-416.279 773.964,-402.253 720.94,-387.095 681.794,-376.058"/>
<polygon fill="#7e3091" stroke="black" points="682.727,-372.685 672.152,-373.344 680.83,-379.423 682.727,-372.685"/>
</g>
<!-- telereddit_config_secret -->
<g id="node23" class="node"><title>telereddit_config_secret</title><style>.edge>path:hover{stroke-width:8}</style>
<ellipse fill="#c022e7" stroke="black" cx="1737.52" cy="-973.411" rx="42.2678" ry="18"/>
<text text-anchor="middle" x="1737.52" y="-970.911" font-family="Helvetica,sans-Serif" font-size="10.00" fill="#ffffff">config.secret</text>
</g>
<!-- telereddit_config_secret&#45;&gt;telereddit_config_secret_github -->
<g id="edge30" class="edge"><title>telereddit_config_secret&#45;&gt;telereddit_config_secret_github</title><style>.edge>path:hover{stroke-width:8}</style>
<path fill="none" stroke="black" d="M1697.74,-967.169C1668.73,-961.036 1631.33,-947.81 1612.52,-919.411 1602.11,-903.689 1603.78,-893.692 1612.52,-876.985 1620.54,-861.662 1634.84,-849.678 1649.23,-840.785"/>
<polygon fill="#c022e7" stroke="black" points="1651.22,-843.674 1658.13,-835.644 1647.72,-837.611 1651.22,-843.674"/>
</g>
<!-- telereddit_config_secret_generic -->
<g id="node24" class="node"><title>telereddit_config_secret_generic</title><style>.edge>path:hover{stroke-width:8}</style>
<ellipse fill="#9246a4" stroke="black" cx="1678.52" cy="-898.198" rx="56.6372" ry="21.4286"/>
<text text-anchor="middle" x="1678.52" y="-901.198" font-family="Helvetica,sans-Serif" font-size="10.00" fill="#ffffff">config.</text>
<text text-anchor="middle" x="1678.52" y="-890.198" font-family="Helvetica,sans-Serif" font-size="10.00" fill="#ffffff">secret_generic</text>
</g>
<!-- telereddit_config_secret&#45;&gt;telereddit_config_secret_generic -->
<g id="edge29" class="edge"><title>telereddit_config_secret&#45;&gt;telereddit_config_secret_generic</title><style>.edge>path:hover{stroke-width:8}</style>
<path fill="none" stroke="black" d="M1724.43,-956.163C1717.48,-947.54 1708.75,-936.707 1700.77,-926.81"/>
<polygon fill="#c022e7" stroke="black" points="1703.31,-924.375 1694.31,-918.785 1697.86,-928.767 1703.31,-924.375"/>
</g>
<!-- telereddit_config_secret_dev -->
<g id="node25" class="node"><title>telereddit_config_secret_dev</title><style>.edge>path:hover{stroke-width:8}</style>
<ellipse fill="#a02fbc" stroke="black" cx="1797.52" cy="-898.198" rx="44.5955" ry="21.4286"/>
<text text-anchor="middle" x="1797.52" y="-901.198" font-family="Helvetica,sans-Serif" font-size="10.00" fill="#ffffff">config.</text>
<text text-anchor="middle" x="1797.52" y="-890.198" font-family="Helvetica,sans-Serif" font-size="10.00" fill="#ffffff">secret_dev</text>
</g>
<!-- telereddit_config_secret&#45;&gt;telereddit_config_secret_dev -->
<g id="edge28" class="edge"><title>telereddit_config_secret&#45;&gt;telereddit_config_secret_dev</title><style>.edge>path:hover{stroke-width:8}</style>
<path fill="none" stroke="black" d="M1750.84,-956.163C1758.08,-947.321 1767.23,-936.155 1775.51,-926.057"/>
<polygon fill="#c022e7" stroke="black" points="1778.28,-928.205 1781.91,-918.252 1772.86,-923.768 1778.28,-928.205"/>
</g>
<!-- telereddit_config_secret_prod -->
<g id="node27" class="node"><title>telereddit_config_secret_prod</title><style>.edge>path:hover{stroke-width:8}</style>
<ellipse fill="#8b439d" stroke="black" cx="1833.52" cy="-819.772" rx="48.1667" ry="21.4286"/>
<text text-anchor="middle" x="1833.52" y="-822.772" font-family="Helvetica,sans-Serif" font-size="10.00" fill="#ffffff">config.</text>
<text text-anchor="middle" x="1833.52" y="-811.772" font-family="Helvetica,sans-Serif" font-size="10.00" fill="#ffffff">secret_prod</text>
</g>
<!-- telereddit_config_secret&#45;&gt;telereddit_config_secret_prod -->
<g id="edge31" class="edge"><title>telereddit_config_secret&#45;&gt;telereddit_config_secret_prod</title><style>.edge>path:hover{stroke-width:8}</style>
<path fill="none" stroke="black" d="M1775.85,-965.642C1802.07,-958.8 1834.97,-945.357 1851.52,-919.411 1864.78,-898.633 1857.86,-870.668 1849.04,-849.82"/>
<polygon fill="#c022e7" stroke="black" points="1852.12,-848.142 1844.77,-840.508 1845.76,-851.057 1852.12,-848.142"/>
</g>
<!-- telereddit_config_secret_dev&#45;&gt;telereddit_config_secret_github -->
<g id="edge32" class="edge"><title>telereddit_config_secret_dev&#45;&gt;telereddit_config_secret_github</title><style>.edge>path:hover{stroke-width:8}</style>
<path fill="none" stroke="black" d="M1774.18,-880.046C1760.03,-869.649 1741.77,-856.227 1726.2,-844.784"/>
<polygon fill="#a02fbc" stroke="black" points="1728,-841.764 1717.87,-838.663 1723.85,-847.405 1728,-841.764"/>
</g>
<!-- telereddit_config_secret_dev&#45;&gt;telereddit_config_secret_prod -->
<g id="edge33" class="edge"><title>telereddit_config_secret_dev&#45;&gt;telereddit_config_secret_prod</title><style>.edge>path:hover{stroke-width:8}</style>
<path fill="none" stroke="black" d="M1806.98,-877.118C1810.91,-868.781 1815.54,-858.944 1819.83,-849.843"/>
<polygon fill="#a02fbc" stroke="black" points="1823.03,-851.256 1824.13,-840.718 1816.7,-848.273 1823.03,-851.256"/>
</g>
<!-- telereddit_services_youtube_service&#45;&gt;telereddit_services_services_wrapper -->
<g id="edge64" class="edge"><title>telereddit_services_youtube_service&#45;&gt;telereddit_services_services_wrapper</title><style>.edge>path:hover{stroke-width:8}</style>
<path fill="none" stroke="black" d="M624.522,-416.012C624.522,-408.153 624.522,-399.009 624.522,-390.418"/>
<polygon fill="#8b35a1" stroke="black" points="628.022,-390.338 624.522,-380.338 621.022,-390.338 628.022,-390.338"/>
</g>
<!-- telereddit_services_vreddit_service&#45;&gt;telereddit_services_services_wrapper -->
<g id="edge63" class="edge"><title>telereddit_services_vreddit_service&#45;&gt;telereddit_services_services_wrapper</title><style>.edge>path:hover{stroke-width:8}</style>
<path fill="none" stroke="black" d="M519.818,-419.341C538.915,-408.53 563.789,-394.448 584.501,-382.723"/>
<polygon fill="#853399" stroke="black" points="586.412,-385.663 593.39,-377.69 582.963,-379.571 586.412,-385.663"/>
</g>
<!-- telegram -->
<g id="node29" class="node"><title>telegram</title><style>.edge>path:hover{stroke-width:8}</style>
<polygon fill="#4971ac" stroke="black" points="1544.52,-991.411 1541.52,-995.411 1520.52,-995.411 1517.52,-991.411 1490.52,-991.411 1490.52,-955.411 1544.52,-955.411 1544.52,-991.411"/>
<text text-anchor="middle" x="1517.52" y="-970.911" font-family="Helvetica,sans-Serif" font-size="10.00" fill="#ffffff">telegram</text>
</g>
<!-- telegram&#45;&gt;telereddit_telereddit -->
<g id="edge15" class="edge"><title>telegram&#45;&gt;telereddit_telereddit</title><style>.edge>path:hover{stroke-width:8}</style>
<path fill="none" stroke="black" d="M1524.85,-955.024C1535.89,-927.199 1555.52,-870.71 1555.52,-820.772 1555.52,-820.772 1555.52,-820.772 1555.52,-242.64 1555.52,-135.089 1393.57,-105.332 1314.26,-97.2074"/>
<polygon fill="#4971ac" stroke="black" points="1314.39,-93.7037 1304.1,-96.2388 1313.72,-100.672 1314.39,-93.7037"/>
</g>
<!-- telegram&#45;&gt;telereddit_config_config -->
<g id="edge13" class="edge"><title>telegram&#45;&gt;telereddit_config_config</title><style>.edge>path:hover{stroke-width:8}</style>
<path fill="none" stroke="black" d="M1499.43,-955.273C1455.72,-913.862 1344.36,-808.354 1295.32,-761.892"/>
<polygon fill="#4971ac" stroke="black" points="1297.67,-759.299 1288,-754.962 1292.86,-764.38 1297.67,-759.299"/>
</g>
<!-- telegram&#45;&gt;telereddit_linker -->
<g id="edge14" class="edge"><title>telegram&#45;&gt;telereddit_linker</title><style>.edge>path:hover{stroke-width:8}</style>
<path fill="none" stroke="black" d="M1517.52,-955.128C1517.52,-926.978 1517.52,-869.475 1517.52,-820.772 1517.52,-820.772 1517.52,-820.772 1517.52,-358.066 1517.52,-283.701 1422.59,-337.821 1363.52,-292.64 1329.84,-266.872 1336.89,-245.05 1304.52,-217.64 1287.7,-203.39 1266,-191.446 1248.36,-183.011"/>
<polygon fill="#4971ac" stroke="black" points="1249.58,-179.718 1239.03,-178.693 1246.64,-186.07 1249.58,-179.718"/>
</g>
</g>
</svg>
