<?xml version="1.0" encoding="UTF-8" standalone="no"?>
<!DOCTYPE svg PUBLIC "-//W3C//DTD SVG 1.1//EN"
 "http://www.w3.org/Graphics/SVG/1.1/DTD/svg11.dtd">
<!-- Generated by graphviz version 2.38.0 (20140413.2041)
 -->
<!-- Title: G Pages: 1 -->
<svg width="1867pt" height="999pt"
 viewBox="0.00 0.00 1866.91 999.41" xmlns="http://www.w3.org/2000/svg" xmlns:xlink="http://www.w3.org/1999/xlink">
<g id="graph0" class="graph" transform="scale(1 1) rotate(0) translate(4 995.411)">
<title>G</title><style>.edge>path:hover{stroke-width:8}</style>
<polygon fill="white" stroke="none" points="-4,4 -4,-995.411 1862.91,-995.411 1862.91,4 -4,4"/>
<g id="clust1" class="cluster"><title>cluster_parameterized</title><style>.edge>path:hover{stroke-width:8}</style>
<polygon fill="none" stroke="black" points="8,-637.132 8,-790.558 138,-790.558 138,-637.132 8,-637.132"/>
<text text-anchor="middle" x="73" y="-775.358" font-family="Times New Roman,serif" font-size="14.00">parameterized</text>
</g>
<g id="clust2" class="cluster"><title>cluster_requests</title><style>.edge>path:hover{stroke-width:8}</style>
<polygon fill="none" stroke="black" points="750,-712.345 750,-787.345 830,-787.345 830,-712.345 750,-712.345"/>
<text text-anchor="middle" x="790" y="-772.145" font-family="Times New Roman,serif" font-size="14.00">requests</text>
</g>
<g id="clust3" class="cluster"><title>cluster_sentrysdk</title><style>.edge>path:hover{stroke-width:8}</style>
<polygon fill="none" stroke="black" points="1549,-217.64 1549,-292.64 1641,-292.64 1641,-217.64 1549,-217.64"/>
<text text-anchor="middle" x="1595" y="-277.44" font-family="Times New Roman,serif" font-size="14.00">sentrysdk</text>
</g>
<!-- parameterized_parameterized -->
<g id="node1" class="node"><title>parameterized_parameterized</title><style>.edge>path:hover{stroke-width:8}</style>
<ellipse fill="#ce3b3b" stroke="black" cx="73" cy="-738.345" rx="57.0522" ry="21.4286"/>
<text text-anchor="middle" x="73" y="-741.345" font-family="Helvetica,sans-Serif" font-size="10.00" fill="#ffffff">parameterized.</text>
<text text-anchor="middle" x="73" y="-730.345" font-family="Helvetica,sans-Serif" font-size="10.00" fill="#ffffff">parameterized</text>
</g>
<!-- parameterized -->
<g id="node2" class="node"><title>parameterized</title><style>.edge>path:hover{stroke-width:8}</style>
<ellipse fill="#c04040" stroke="black" cx="62" cy="-663.132" rx="45.8316" ry="18"/>
<text text-anchor="middle" x="62" y="-660.632" font-family="Helvetica,sans-Serif" font-size="10.00" fill="#ffffff">parameterized</text>
</g>
<!-- parameterized_parameterized&#45;&gt;parameterized -->
<g id="edge3" class="edge"><title>parameterized_parameterized&#45;&gt;parameterized</title><style>.edge>path:hover{stroke-width:8}</style>
<path fill="none" stroke="black" d="M69.9359,-716.951C68.7559,-709.097 67.3884,-699.996 66.1244,-691.583"/>
<polygon fill="#000000" stroke="black" points="69.5478,-690.811 64.6007,-681.442 62.6255,-691.851 69.5478,-690.811"/>
</g>
<!-- telereddit_tests_test_helpers -->
<g id="node5" class="node"><title>telereddit_tests_test_helpers</title><style>.edge>path:hover{stroke-width:8}</style>
<ellipse fill="#8b439d" stroke="black" cx="117" cy="-437.492" rx="49.4949" ry="21.4286"/>
<text text-anchor="middle" x="117" y="-440.492" font-family="Helvetica,sans-Serif" font-size="10.00" fill="#ffffff">tests.</text>
<text text-anchor="middle" x="117" y="-429.492" font-family="Helvetica,sans-Serif" font-size="10.00" fill="#ffffff">test_helpers</text>
</g>
<!-- parameterized_parameterized&#45;&gt;telereddit_tests_test_helpers -->
<g id="edge4" class="edge"><title>parameterized_parameterized&#45;&gt;telereddit_tests_test_helpers</title><style>.edge>path:hover{stroke-width:8}</style>
<path fill="none" stroke="black" d="M127.817,-637.169C138.04,-574.269 129.775,-506.734 123.162,-468.834"/>
<polygon fill="#000000" stroke="black" points="126.553,-467.921 121.311,-458.715 119.668,-469.181 126.553,-467.921"/>
</g>
<!-- telereddit_tests_test_services -->
<g id="node6" class="node"><title>telereddit_tests_test_services</title><style>.edge>path:hover{stroke-width:8}</style>
<ellipse fill="#7e3d8f" stroke="black" cx="266" cy="-243.64" rx="52.1524" ry="21.4286"/>
<text text-anchor="middle" x="266" y="-246.64" font-family="Helvetica,sans-Serif" font-size="10.00" fill="#ffffff">tests.</text>
<text text-anchor="middle" x="266" y="-235.64" font-family="Helvetica,sans-Serif" font-size="10.00" fill="#ffffff">test_services</text>
</g>
<!-- parameterized_parameterized&#45;&gt;telereddit_tests_test_services -->
<g id="edge5" class="edge"><title>parameterized_parameterized&#45;&gt;telereddit_tests_test_services</title><style>.edge>path:hover{stroke-width:8}</style>
<path fill="none" stroke="black" d="M137.741,-692.553C166.513,-667.031 194,-632.172 194,-592.132 194,-592.132 194,-592.132 194,-358.066 194,-323.998 217.439,-291.881 237.57,-270.579"/>
<polygon fill="#000000" stroke="black" points="240.273,-272.822 244.787,-263.237 235.281,-267.915 240.273,-272.822"/>
</g>
<!-- parameterized&#45;&gt;telereddit_tests_test_helpers -->
<g id="edge1" class="edge"><title>parameterized&#45;&gt;telereddit_tests_test_helpers</title><style>.edge>path:hover{stroke-width:8}</style>
<path fill="none" stroke="black" d="M68.1161,-637.263C78.2812,-595.93 98.6179,-513.237 109.584,-468.647"/>
<polygon fill="#000000" stroke="black" points="112.988,-469.462 111.977,-458.916 106.19,-467.79 112.988,-469.462"/>
</g>
<!-- parameterized&#45;&gt;telereddit_tests_test_services -->
<g id="edge2" class="edge"><title>parameterized&#45;&gt;telereddit_tests_test_services</title><style>.edge>path:hover{stroke-width:8}</style>
<path fill="none" stroke="black" d="M55.9037,-637.263C49.3928,-608.482 40,-559.571 40,-516.919 40,-516.919 40,-516.919 40,-358.066 40,-284.156 137.745,-258.403 204.671,-249.432"/>
<polygon fill="#000000" stroke="black" points="205.227,-252.89 214.717,-248.179 204.361,-245.943 205.227,-252.89"/>
</g>
<!-- requests -->
<g id="node3" class="node"><title>requests</title><style>.edge>path:hover{stroke-width:8}</style>
<ellipse fill="#c8f906" stroke="black" cx="790" cy="-738.345" rx="31.577" ry="18"/>
<text text-anchor="middle" x="790" y="-735.845" font-family="Helvetica,sans-Serif" font-size="10.00" fill="#000000">requests</text>
</g>
<!-- telereddit_reddit -->
<g id="node7" class="node"><title>telereddit_reddit</title><style>.edge>path:hover{stroke-width:8}</style>
<ellipse fill="#7d2493" stroke="black" cx="1007" cy="-243.64" rx="27" ry="18"/>
<text text-anchor="middle" x="1007" y="-241.14" font-family="Helvetica,sans-Serif" font-size="10.00" fill="#ffffff">reddit</text>
</g>
<!-- requests&#45;&gt;telereddit_reddit -->
<g id="edge7" class="edge"><title>requests&#45;&gt;telereddit_reddit</title><style>.edge>path:hover{stroke-width:8}</style>
<path fill="none" stroke="black" d="M803.331,-712.372C808.382,-702.687 814.095,-691.461 819,-681.132 841.457,-633.845 835.842,-615.921 866,-573.132 908.827,-512.368 955.466,-525.548 988,-458.706 1017.89,-397.292 1014.75,-314.246 1010.53,-271.911"/>
<polygon fill="#000000" stroke="black" points="1013.99,-271.382 1009.43,-261.822 1007.04,-272.144 1013.99,-271.382"/>
</g>
<!-- telereddit_helpers -->
<g id="node12" class="node"><title>telereddit_helpers</title><style>.edge>path:hover{stroke-width:8}</style>
<ellipse fill="#b005db" stroke="black" cx="903" cy="-591.132" rx="28.0137" ry="18"/>
<text text-anchor="middle" x="903" y="-588.632" font-family="Helvetica,sans-Serif" font-size="10.00" fill="#ffffff">helpers</text>
</g>
<!-- requests&#45;&gt;telereddit_helpers -->
<g id="edge6" class="edge"><title>requests&#45;&gt;telereddit_helpers</title><style>.edge>path:hover{stroke-width:8}</style>
<path fill="none" stroke="black" d="M828.089,-712.349C839.669,-703.473 851.762,-692.768 861,-681.132 876.038,-662.19 887.288,-636.983 894.34,-618.232"/>
<polygon fill="#000000" stroke="black" points="897.634,-619.415 897.734,-608.821 891.049,-617.041 897.634,-619.415"/>
</g>
<!-- telereddit_services_gfycat_service -->
<g id="node15" class="node"><title>telereddit_services_gfycat_service</title><style>.edge>path:hover{stroke-width:8}</style>
<ellipse fill="#7e3091" stroke="black" cx="798" cy="-437.492" rx="55.3091" ry="21.4286"/>
<text text-anchor="middle" x="798" y="-440.492" font-family="Helvetica,sans-Serif" font-size="10.00" fill="#ffffff">services.</text>
<text text-anchor="middle" x="798" y="-429.492" font-family="Helvetica,sans-Serif" font-size="10.00" fill="#ffffff">gfycat_service</text>
</g>
<!-- requests&#45;&gt;telereddit_services_gfycat_service -->
<g id="edge8" class="edge"><title>requests&#45;&gt;telereddit_services_gfycat_service</title><style>.edge>path:hover{stroke-width:8}</style>
<path fill="none" stroke="black" d="M790.669,-712.365C792.126,-657.941 795.583,-528.792 797.173,-469.376"/>
<polygon fill="#000000" stroke="black" points="800.682,-469.094 797.451,-459.004 793.684,-468.907 800.682,-469.094"/>
</g>
<!-- telereddit_services_service -->
<g id="node20" class="node"><title>telereddit_services_service</title><style>.edge>path:hover{stroke-width:8}</style>
<ellipse fill="#c50cf3" stroke="black" cx="664" cy="-515.919" rx="38.7821" ry="21.4286"/>
<text text-anchor="middle" x="664" y="-518.919" font-family="Helvetica,sans-Serif" font-size="10.00" fill="#ffffff">services.</text>
<text text-anchor="middle" x="664" y="-507.919" font-family="Helvetica,sans-Serif" font-size="10.00" fill="#ffffff">service</text>
</g>
<!-- requests&#45;&gt;telereddit_services_service -->
<g id="edge10" class="edge"><title>requests&#45;&gt;telereddit_services_service</title><style>.edge>path:hover{stroke-width:8}</style>
<path fill="none" stroke="black" d="M775.227,-712.371C769.501,-702.641 762.912,-691.384 757,-681.132 729.665,-633.729 698.414,-578.284 679.99,-545.467"/>
<polygon fill="#000000" stroke="black" points="682.871,-543.448 674.926,-536.439 676.766,-546.873 682.871,-543.448"/>
</g>
<!-- telereddit_services_vreddit_service -->
<g id="node21" class="node"><title>telereddit_services_vreddit_service</title><style>.edge>path:hover{stroke-width:8}</style>
<ellipse fill="#853399" stroke="black" cx="355" cy="-437.492" rx="56.6372" ry="21.4286"/>
<text text-anchor="middle" x="355" y="-440.492" font-family="Helvetica,sans-Serif" font-size="10.00" fill="#ffffff">services.</text>
<text text-anchor="middle" x="355" y="-429.492" font-family="Helvetica,sans-Serif" font-size="10.00" fill="#ffffff">vreddit_service</text>
</g>
<!-- requests&#45;&gt;telereddit_services_vreddit_service -->
<g id="edge11" class="edge"><title>requests&#45;&gt;telereddit_services_vreddit_service</title><style>.edge>path:hover{stroke-width:8}</style>
<path fill="none" stroke="black" d="M750.068,-733.34C677.659,-724.087 523.636,-694.983 431,-609.132 389.907,-571.049 369.666,-506.656 360.847,-468.806"/>
<polygon fill="#000000" stroke="black" points="364.228,-467.888 358.654,-458.878 357.393,-469.397 364.228,-467.888"/>
</g>
<!-- telereddit_services_imgur_service -->
<g id="node26" class="node"><title>telereddit_services_imgur_service</title><style>.edge>path:hover{stroke-width:8}</style>
<ellipse fill="#7e3091" stroke="black" cx="925" cy="-437.492" rx="53.9813" ry="21.4286"/>
<text text-anchor="middle" x="925" y="-440.492" font-family="Helvetica,sans-Serif" font-size="10.00" fill="#ffffff">services.</text>
<text text-anchor="middle" x="925" y="-429.492" font-family="Helvetica,sans-Serif" font-size="10.00" fill="#ffffff">imgur_service</text>
</g>
<!-- requests&#45;&gt;telereddit_services_imgur_service -->
<g id="edge9" class="edge"><title>requests&#45;&gt;telereddit_services_imgur_service</title><style>.edge>path:hover{stroke-width:8}</style>
<path fill="none" stroke="black" d="M793.785,-712.401C799.397,-679.418 811.632,-620.001 833,-573.132 851.334,-532.92 881.517,-491.685 902.282,-465.627"/>
<polygon fill="#000000" stroke="black" points="905.107,-467.7 908.666,-457.721 899.66,-463.302 905.107,-467.7"/>
</g>
<!-- sentry_sdk -->
<g id="node4" class="node"><title>sentry_sdk</title><style>.edge>path:hover{stroke-width:8}</style>
<ellipse fill="#40c073" stroke="black" cx="1595" cy="-243.64" rx="38.0276" ry="18"/>
<text text-anchor="middle" x="1595" y="-241.14" font-family="Helvetica,sans-Serif" font-size="10.00" fill="#000000">sentry_sdk</text>
</g>
<!-- telereddit_telereddit -->
<g id="node17" class="node"><title>telereddit_telereddit</title><style>.edge>path:hover{stroke-width:8}</style>
<ellipse fill="#632673" stroke="black" cx="1339" cy="-93.2132" rx="32.9303" ry="18"/>
<text text-anchor="middle" x="1339" y="-90.7132" font-family="Helvetica,sans-Serif" font-size="10.00" fill="#ffffff">telereddit</text>
</g>
<!-- sentry_sdk&#45;&gt;telereddit_telereddit -->
<g id="edge12" class="edge"><title>sentry_sdk&#45;&gt;telereddit_telereddit</title><style>.edge>path:hover{stroke-width:8}</style>
<path fill="none" stroke="black" d="M1587.31,-218.353C1579.44,-197.366 1565.19,-167.758 1543,-150.426 1495.96,-113.684 1426.46,-100.937 1381.95,-96.5276"/>
<polygon fill="#000000" stroke="black" points="1382.03,-93.0204 1371.76,-95.6197 1381.41,-99.9928 1382.03,-93.0204"/>
</g>
<!-- telereddit_tests_test_reddit -->
<g id="node10" class="node"><title>telereddit_tests_test_reddit</title><style>.edge>path:hover{stroke-width:8}</style>
<ellipse fill="#9246a4" stroke="black" cx="521" cy="-93.2132" rx="43.6818" ry="21.4286"/>
<text text-anchor="middle" x="521" y="-96.2132" font-family="Helvetica,sans-Serif" font-size="10.00" fill="#ffffff">tests.</text>
<text text-anchor="middle" x="521" y="-85.2132" font-family="Helvetica,sans-Serif" font-size="10.00" fill="#ffffff">test_reddit</text>
</g>
<!-- telereddit_reddit&#45;&gt;telereddit_tests_test_reddit -->
<g id="edge50" class="edge"><title>telereddit_reddit&#45;&gt;telereddit_tests_test_reddit</title><style>.edge>path:hover{stroke-width:8}</style>
<path fill="none" stroke="black" d="M982.899,-235.279C906.345,-211.899 667.83,-139.056 566.874,-108.223"/>
<polygon fill="#7d2493" stroke="black" points="567.844,-104.86 557.257,-105.286 565.799,-111.555 567.844,-104.86"/>
</g>
<!-- telereddit_linker -->
<g id="node23" class="node"><title>telereddit_linker</title><style>.edge>path:hover{stroke-width:8}</style>
<ellipse fill="#853399" stroke="black" cx="1339" cy="-168.426" rx="27" ry="18"/>
<text text-anchor="middle" x="1339" y="-165.926" font-family="Helvetica,sans-Serif" font-size="10.00" fill="#ffffff">linker</text>
</g>
<!-- telereddit_reddit&#45;&gt;telereddit_linker -->
<g id="edge49" class="edge"><title>telereddit_reddit&#45;&gt;telereddit_linker</title><style>.edge>path:hover{stroke-width:8}</style>
<path fill="none" stroke="black" d="M1032.23,-237.077C1090.83,-224.153 1236.3,-192.074 1303.69,-177.213"/>
<polygon fill="#7d2493" stroke="black" points="1304.8,-180.552 1313.81,-174.981 1303.29,-173.717 1304.8,-180.552"/>
</g>
<!-- telereddit_config -->
<g id="node8" class="node"><title>telereddit_config</title><style>.edge>path:hover{stroke-width:8}</style>
<ellipse fill="#cb10f9" stroke="black" cx="1177" cy="-663.132" rx="27" ry="18"/>
<text text-anchor="middle" x="1177" y="-660.632" font-family="Helvetica,sans-Serif" font-size="10.00" fill="#ffffff">config</text>
</g>
<!-- telereddit_config&#45;&gt;telereddit_reddit -->
<g id="edge18" class="edge"><title>telereddit_config&#45;&gt;telereddit_reddit</title><style>.edge>path:hover{stroke-width:8}</style>
<path fill="none" stroke="black" d="M1176.64,-645.109C1175.9,-626.977 1173.68,-597.581 1167,-573.132 1132.07,-445.21 1109.48,-416.723 1045,-300.853 1038.95,-289.977 1031.42,-278.504 1024.66,-268.778"/>
<polygon fill="#cb10f9" stroke="black" points="1027.37,-266.548 1018.74,-260.405 1021.66,-270.59 1027.37,-266.548"/>
</g>
<!-- telereddit_config&#45;&gt;telereddit_helpers -->
<g id="edge16" class="edge"><title>telereddit_config&#45;&gt;telereddit_helpers</title><style>.edge>path:hover{stroke-width:8}</style>
<path fill="none" stroke="black" d="M1152.2,-655.797C1103.46,-643.345 995.04,-615.646 938.638,-601.237"/>
<polygon fill="#cb10f9" stroke="black" points="939.293,-597.792 928.738,-598.707 937.56,-604.574 939.293,-597.792"/>
</g>
<!-- telereddit_config&#45;&gt;telereddit_services_gfycat_service -->
<g id="edge19" class="edge"><title>telereddit_config&#45;&gt;telereddit_services_gfycat_service</title><style>.edge>path:hover{stroke-width:8}</style>
<path fill="none" stroke="black" d="M1160.5,-648.827C1122.48,-618.594 1025.03,-543.572 935,-494.706 907.028,-479.522 874.072,-465.878 847.493,-455.835"/>
<polygon fill="#cb10f9" stroke="black" points="848.604,-452.514 838.011,-452.302 846.16,-459.074 848.604,-452.514"/>
</g>
<!-- telereddit_config&#45;&gt;telereddit_telereddit -->
<g id="edge21" class="edge"><title>telereddit_config&#45;&gt;telereddit_telereddit</title><style>.edge>path:hover{stroke-width:8}</style>
<path fill="none" stroke="black" d="M1192.38,-648.112C1217.11,-623.938 1263,-571.71 1263,-516.919 1263,-516.919 1263,-516.919 1263,-436.492 1263,-308.115 1258.47,-270.832 1303,-150.426 1307.19,-139.109 1313.92,-127.698 1320.44,-118.142"/>
<polygon fill="#cb10f9" stroke="black" points="1323.33,-120.118 1326.29,-109.944 1317.63,-116.053 1323.33,-120.118"/>
</g>
<!-- telereddit_config&#45;&gt;telereddit_linker -->
<g id="edge17" class="edge"><title>telereddit_config&#45;&gt;telereddit_linker</title><style>.edge>path:hover{stroke-width:8}</style>
<path fill="none" stroke="black" d="M1201.91,-655.951C1225.26,-648.779 1259.17,-634.547 1277,-609.132 1368.81,-478.267 1352.57,-270.921 1343.08,-196.847"/>
<polygon fill="#cb10f9" stroke="black" points="1346.49,-195.964 1341.69,-186.521 1339.55,-196.899 1346.49,-195.964"/>
</g>
<!-- telereddit_config&#45;&gt;telereddit_services_imgur_service -->
<g id="edge20" class="edge"><title>telereddit_config&#45;&gt;telereddit_services_imgur_service</title><style>.edge>path:hover{stroke-width:8}</style>
<path fill="none" stroke="black" d="M1172.45,-645.254C1162.56,-611.741 1135.98,-536.445 1087,-494.706 1058.15,-470.119 1017.92,-456.084 984.772,-448.186"/>
<polygon fill="#cb10f9" stroke="black" points="985.256,-444.708 974.732,-445.927 983.72,-451.537 985.256,-444.708"/>
</g>
<!-- telereddit_services_youtube_service -->
<g id="node9" class="node"><title>telereddit_services_youtube_service</title><style>.edge>path:hover{stroke-width:8}</style>
<ellipse fill="#8b35a1" stroke="black" cx="664" cy="-437.492" rx="60.623" ry="21.4286"/>
<text text-anchor="middle" x="664" y="-440.492" font-family="Helvetica,sans-Serif" font-size="10.00" fill="#ffffff">services.</text>
<text text-anchor="middle" x="664" y="-429.492" font-family="Helvetica,sans-Serif" font-size="10.00" fill="#ffffff">youtube_service</text>
</g>
<!-- telereddit_services_services_wrapper -->
<g id="node27" class="node"><title>telereddit_services_services_wrapper</title><style>.edge>path:hover{stroke-width:8}</style>
<ellipse fill="#84269b" stroke="black" cx="420" cy="-359.066" rx="64.1938" ry="21.4286"/>
<text text-anchor="middle" x="420" y="-362.066" font-family="Helvetica,sans-Serif" font-size="10.00" fill="#ffffff">services.</text>
<text text-anchor="middle" x="420" y="-351.066" font-family="Helvetica,sans-Serif" font-size="10.00" fill="#ffffff">services_wrapper</text>
</g>
<!-- telereddit_services_youtube_service&#45;&gt;telereddit_services_services_wrapper -->
<g id="edge64" class="edge"><title>telereddit_services_youtube_service&#45;&gt;telereddit_services_services_wrapper</title><style>.edge>path:hover{stroke-width:8}</style>
<path fill="none" stroke="black" d="M620.096,-422.741C579.405,-409.995 518.718,-390.987 474.852,-377.247"/>
<polygon fill="#8b35a1" stroke="black" points="475.793,-373.874 465.204,-374.225 473.701,-380.554 475.793,-373.874"/>
</g>
<!-- telereddit___main__ -->
<g id="node11" class="node"><title>telereddit___main__</title><style>.edge>path:hover{stroke-width:8}</style>
<ellipse fill="#9849ac" stroke="black" cx="1339" cy="-18" rx="34.9638" ry="18"/>
<text text-anchor="middle" x="1339" y="-15.5" font-family="Helvetica,sans-Serif" font-size="10.00" fill="#ffffff">__main__</text>
</g>
<!-- telereddit_helpers&#45;&gt;telereddit_tests_test_helpers -->
<g id="edge47" class="edge"><title>telereddit_helpers&#45;&gt;telereddit_tests_test_helpers</title><style>.edge>path:hover{stroke-width:8}</style>
<path fill="none" stroke="black" d="M875.242,-587.708C809.249,-581.684 637.954,-564.517 497,-537.132 376.705,-513.761 237.945,-474.564 165.993,-453.298"/>
<polygon fill="#b005db" stroke="black" points="166.875,-449.909 156.292,-450.42 164.884,-456.62 166.875,-449.909"/>
</g>
<!-- telereddit_helpers&#45;&gt;telereddit_reddit -->
<g id="edge43" class="edge"><title>telereddit_helpers&#45;&gt;telereddit_reddit</title><style>.edge>path:hover{stroke-width:8}</style>
<path fill="none" stroke="black" d="M929.447,-584.706C954.701,-578.049 991.685,-564.146 1011,-537.132 1069.27,-455.63 1035.35,-326.037 1016.73,-270.878"/>
<polygon fill="#b005db" stroke="black" points="1019.94,-269.466 1013.35,-261.174 1013.33,-271.769 1019.94,-269.466"/>
</g>
<!-- telereddit_helpers&#45;&gt;telereddit_services_youtube_service -->
<g id="edge45" class="edge"><title>telereddit_helpers&#45;&gt;telereddit_services_youtube_service</title><style>.edge>path:hover{stroke-width:8}</style>
<path fill="none" stroke="black" d="M883.442,-577.723C843.5,-552.38 752.006,-494.33 700.666,-461.756"/>
<polygon fill="#b005db" stroke="black" points="702.495,-458.772 692.176,-456.37 698.745,-464.682 702.495,-458.772"/>
</g>
<!-- telereddit_helpers&#45;&gt;telereddit_telereddit -->
<g id="edge46" class="edge"><title>telereddit_helpers&#45;&gt;telereddit_telereddit</title><style>.edge>path:hover{stroke-width:8}</style>
<path fill="none" stroke="black" d="M930.987,-588.565C968.337,-585.063 1034.57,-573.741 1076,-537.132 1217.09,-412.457 1125.33,-292.404 1249,-150.426 1264.22,-132.957 1286.2,-119.086 1304.63,-109.494"/>
<polygon fill="#b005db" stroke="black" points="1306.24,-112.603 1313.62,-105.002 1303.11,-106.342 1306.24,-112.603"/>
</g>
<!-- telereddit_helpers&#45;&gt;telereddit_services_vreddit_service -->
<g id="edge44" class="edge"><title>telereddit_helpers&#45;&gt;telereddit_services_vreddit_service</title><style>.edge>path:hover{stroke-width:8}</style>
<path fill="none" stroke="black" d="M875.323,-586.698C823.695,-579.924 709.464,-563.198 616,-537.132 574.614,-525.59 465.26,-482.68 402.006,-457.417"/>
<polygon fill="#b005db" stroke="black" points="403.229,-454.136 392.644,-453.672 400.629,-460.636 403.229,-454.136"/>
</g>
<!-- telereddit_helpers&#45;&gt;telereddit_linker -->
<g id="edge42" class="edge"><title>telereddit_helpers&#45;&gt;telereddit_linker</title><style>.edge>path:hover{stroke-width:8}</style>
<path fill="none" stroke="black" d="M929.168,-583.897C957.473,-576.245 1002.97,-561.234 1036,-537.132 1173.88,-436.516 1286.35,-259.194 1324.79,-194.2"/>
<polygon fill="#b005db" stroke="black" points="1327.88,-195.845 1329.92,-185.448 1321.84,-192.306 1327.88,-195.845"/>
</g>
<!-- telereddit_services_generic_service -->
<g id="node13" class="node"><title>telereddit_services_generic_service</title><style>.edge>path:hover{stroke-width:8}</style>
<ellipse fill="#9238a8" stroke="black" cx="488" cy="-437.492" rx="58.8803" ry="21.4286"/>
<text text-anchor="middle" x="488" y="-440.492" font-family="Helvetica,sans-Serif" font-size="10.00" fill="#ffffff">services.</text>
<text text-anchor="middle" x="488" y="-429.492" font-family="Helvetica,sans-Serif" font-size="10.00" fill="#ffffff">generic_service</text>
</g>
<!-- telereddit_services_generic_service&#45;&gt;telereddit_services_services_wrapper -->
<g id="edge53" class="edge"><title>telereddit_services_generic_service&#45;&gt;telereddit_services_services_wrapper</title><style>.edge>path:hover{stroke-width:8}</style>
<path fill="none" stroke="black" d="M470.488,-416.811C462.477,-407.807 452.855,-396.992 444.169,-387.23"/>
<polygon fill="#9238a8" stroke="black" points="446.714,-384.825 437.452,-379.681 441.485,-389.478 446.714,-384.825"/>
</g>
<!-- telereddit_config_secret -->
<g id="node14" class="node"><title>telereddit_config_secret</title><style>.edge>path:hover{stroke-width:8}</style>
<ellipse fill="#c022e7" stroke="black" cx="1726" cy="-973.411" rx="42.2678" ry="18"/>
<text text-anchor="middle" x="1726" y="-970.911" font-family="Helvetica,sans-Serif" font-size="10.00" fill="#ffffff">config.secret</text>
</g>
<!-- telereddit_config_secret_dev -->
<g id="node16" class="node"><title>telereddit_config_secret_dev</title><style>.edge>path:hover{stroke-width:8}</style>
<ellipse fill="#a02fbc" stroke="black" cx="1667" cy="-898.198" rx="44.5955" ry="21.4286"/>
<text text-anchor="middle" x="1667" y="-901.198" font-family="Helvetica,sans-Serif" font-size="10.00" fill="#ffffff">config.</text>
<text text-anchor="middle" x="1667" y="-890.198" font-family="Helvetica,sans-Serif" font-size="10.00" fill="#ffffff">secret_dev</text>
</g>
<!-- telereddit_config_secret&#45;&gt;telereddit_config_secret_dev -->
<g id="edge28" class="edge"><title>telereddit_config_secret&#45;&gt;telereddit_config_secret_dev</title><style>.edge>path:hover{stroke-width:8}</style>
<path fill="none" stroke="black" d="M1712.91,-956.163C1705.78,-947.321 1696.78,-936.155 1688.64,-926.057"/>
<polygon fill="#c022e7" stroke="black" points="1691.35,-923.842 1682.35,-918.252 1685.9,-928.234 1691.35,-923.842"/>
</g>
<!-- telereddit_config_secret_prod -->
<g id="node19" class="node"><title>telereddit_config_secret_prod</title><style>.edge>path:hover{stroke-width:8}</style>
<ellipse fill="#8b439d" stroke="black" cx="1622" cy="-819.772" rx="48.1667" ry="21.4286"/>
<text text-anchor="middle" x="1622" y="-822.772" font-family="Helvetica,sans-Serif" font-size="10.00" fill="#ffffff">config.</text>
<text text-anchor="middle" x="1622" y="-811.772" font-family="Helvetica,sans-Serif" font-size="10.00" fill="#ffffff">secret_prod</text>
</g>
<!-- telereddit_config_secret&#45;&gt;telereddit_config_secret_prod -->
<g id="edge31" class="edge"><title>telereddit_config_secret&#45;&gt;telereddit_config_secret_prod</title><style>.edge>path:hover{stroke-width:8}</style>
<path fill="none" stroke="black" d="M1687.72,-965.472C1661.77,-958.561 1629.33,-945.106 1613,-919.411 1600.08,-899.081 1603.99,-871.466 1610.19,-850.626"/>
<polygon fill="#c022e7" stroke="black" points="1613.55,-851.593 1613.35,-841.001 1606.9,-849.41 1613.55,-851.593"/>
</g>
<!-- telereddit_config_secret_generic -->
<g id="node24" class="node"><title>telereddit_config_secret_generic</title><style>.edge>path:hover{stroke-width:8}</style>
<ellipse fill="#9246a4" stroke="black" cx="1786" cy="-898.198" rx="56.6372" ry="21.4286"/>
<text text-anchor="middle" x="1786" y="-901.198" font-family="Helvetica,sans-Serif" font-size="10.00" fill="#ffffff">config.</text>
<text text-anchor="middle" x="1786" y="-890.198" font-family="Helvetica,sans-Serif" font-size="10.00" fill="#ffffff">secret_generic</text>
</g>
<!-- telereddit_config_secret&#45;&gt;telereddit_config_secret_generic -->
<g id="edge29" class="edge"><title>telereddit_config_secret&#45;&gt;telereddit_config_secret_generic</title><style>.edge>path:hover{stroke-width:8}</style>
<path fill="none" stroke="black" d="M1739.32,-956.163C1746.38,-947.54 1755.26,-936.707 1763.37,-926.81"/>
<polygon fill="#c022e7" stroke="black" points="1766.32,-928.738 1769.95,-918.785 1760.9,-924.301 1766.32,-928.738"/>
</g>
<!-- telereddit_config_secret_github -->
<g id="node28" class="node"><title>telereddit_config_secret_github</title><style>.edge>path:hover{stroke-width:8}</style>
<ellipse fill="#8b439d" stroke="black" cx="1792" cy="-819.772" rx="53.066" ry="21.4286"/>
<text text-anchor="middle" x="1792" y="-822.772" font-family="Helvetica,sans-Serif" font-size="10.00" fill="#ffffff">config.</text>
<text text-anchor="middle" x="1792" y="-811.772" font-family="Helvetica,sans-Serif" font-size="10.00" fill="#ffffff">secret_github</text>
</g>
<!-- telereddit_config_secret&#45;&gt;telereddit_config_secret_github -->
<g id="edge30" class="edge"><title>telereddit_config_secret&#45;&gt;telereddit_config_secret_github</title><style>.edge>path:hover{stroke-width:8}</style>
<path fill="none" stroke="black" d="M1766.09,-967.263C1795.33,-961.18 1833.03,-947.976 1852,-919.411 1862.43,-903.704 1859.5,-894.286 1852,-876.985 1846.63,-864.584 1837.02,-853.666 1827.04,-844.831"/>
<polygon fill="#c022e7" stroke="black" points="1828.98,-841.886 1819.04,-838.203 1824.51,-847.277 1828.98,-841.886"/>
</g>
<!-- telereddit_services_gfycat_service&#45;&gt;telereddit_services_services_wrapper -->
<g id="edge54" class="edge"><title>telereddit_services_gfycat_service&#45;&gt;telereddit_services_services_wrapper</title><style>.edge>path:hover{stroke-width:8}</style>
<path fill="none" stroke="black" d="M757.981,-422.791C750.094,-420.392 741.834,-418.089 734,-416.279 628.481,-391.895 598.938,-402.771 493,-380.279 487.613,-379.136 482.036,-377.825 476.474,-376.433"/>
<polygon fill="#7e3091" stroke="black" points="477.081,-372.975 466.523,-373.858 475.328,-379.752 477.081,-372.975"/>
</g>
<!-- telereddit_config_secret_dev&#45;&gt;telereddit_config_secret_prod -->
<g id="edge33" class="edge"><title>telereddit_config_secret_dev&#45;&gt;telereddit_config_secret_prod</title><style>.edge>path:hover{stroke-width:8}</style>
<path fill="none" stroke="black" d="M1655.41,-877.516C1650.32,-868.869 1644.24,-858.551 1638.68,-849.1"/>
<polygon fill="#a02fbc" stroke="black" points="1641.64,-847.228 1633.55,-840.387 1635.61,-850.78 1641.64,-847.228"/>
</g>
<!-- telereddit_config_secret_dev&#45;&gt;telereddit_config_secret_github -->
<g id="edge32" class="edge"><title>telereddit_config_secret_dev&#45;&gt;telereddit_config_secret_github</title><style>.edge>path:hover{stroke-width:8}</style>
<path fill="none" stroke="black" d="M1693.51,-880.99C1711.41,-870.047 1735.28,-855.451 1755.04,-843.37"/>
<polygon fill="#a02fbc" stroke="black" points="1757.09,-846.221 1763.79,-838.019 1753.43,-840.249 1757.09,-846.221"/>
</g>
<!-- telereddit_telereddit&#45;&gt;telereddit___main__ -->
<g id="edge65" class="edge"><title>telereddit_telereddit&#45;&gt;telereddit___main__</title><style>.edge>path:hover{stroke-width:8}</style>
<path fill="none" stroke="black" d="M1339,-74.8627C1339,-66.3831 1339,-55.9765 1339,-46.4531"/>
<polygon fill="#632673" stroke="black" points="1342.5,-46.2259 1339,-36.226 1335.5,-46.226 1342.5,-46.2259"/>
</g>
<!-- telereddit_services -->
<g id="node18" class="node"><title>telereddit_services</title><style>.edge>path:hover{stroke-width:8}</style>
<ellipse fill="#cb10f9" stroke="black" cx="533" cy="-359.066" rx="30.7213" ry="18"/>
<text text-anchor="middle" x="533" y="-356.566" font-family="Helvetica,sans-Serif" font-size="10.00" fill="#ffffff">services</text>
</g>
<!-- telereddit_services&#45;&gt;telereddit_tests_test_services -->
<g id="edge52" class="edge"><title>telereddit_services&#45;&gt;telereddit_tests_test_services</title><style>.edge>path:hover{stroke-width:8}</style>
<path fill="none" stroke="black" d="M510.725,-346.422C504.992,-343.533 498.803,-340.505 493,-337.853 431.324,-309.659 358.584,-280.488 312.384,-262.456"/>
<polygon fill="#cb10f9" stroke="black" points="313.531,-259.146 302.942,-258.781 310.992,-265.67 313.531,-259.146"/>
</g>
<!-- telereddit_services&#45;&gt;telereddit_reddit -->
<g id="edge51" class="edge"><title>telereddit_services&#45;&gt;telereddit_reddit</title><style>.edge>path:hover{stroke-width:8}</style>
<path fill="none" stroke="black" d="M541.282,-341.584C548.907,-328.259 561.525,-310.227 578,-300.853 644.726,-262.886 878.402,-249.711 969.88,-245.943"/>
<polygon fill="#cb10f9" stroke="black" points="970.205,-249.433 980.058,-245.538 969.927,-242.438 970.205,-249.433"/>
</g>
<!-- telereddit_services_service&#45;&gt;telereddit_services_youtube_service -->
<g id="edge60" class="edge"><title>telereddit_services_service&#45;&gt;telereddit_services_youtube_service</title><style>.edge>path:hover{stroke-width:8}</style>
<path fill="none" stroke="black" d="M664,-494.438C664,-486.579 664,-477.435 664,-468.845"/>
<polygon fill="#c50cf3" stroke="black" points="667.5,-468.765 664,-458.765 660.5,-468.765 667.5,-468.765"/>
</g>
<!-- telereddit_services_service&#45;&gt;telereddit_services_generic_service -->
<g id="edge56" class="edge"><title>telereddit_services_service&#45;&gt;telereddit_services_generic_service</title><style>.edge>path:hover{stroke-width:8}</style>
<path fill="none" stroke="black" d="M634.144,-501.954C606.68,-490.028 565.541,-472.164 533.901,-458.425"/>
<polygon fill="#c50cf3" stroke="black" points="534.979,-455.077 524.412,-454.304 532.191,-461.498 534.979,-455.077"/>
</g>
<!-- telereddit_services_service&#45;&gt;telereddit_services_gfycat_service -->
<g id="edge57" class="edge"><title>telereddit_services_service&#45;&gt;telereddit_services_gfycat_service</title><style>.edge>path:hover{stroke-width:8}</style>
<path fill="none" stroke="black" d="M690.155,-500.002C709.836,-488.777 737.12,-473.215 759.32,-460.553"/>
<polygon fill="#c50cf3" stroke="black" points="761.221,-463.498 768.174,-455.504 757.753,-457.418 761.221,-463.498"/>
</g>
<!-- telereddit_services_service&#45;&gt;telereddit_services_vreddit_service -->
<g id="edge59" class="edge"><title>telereddit_services_service&#45;&gt;telereddit_services_vreddit_service</title><style>.edge>path:hover{stroke-width:8}</style>
<path fill="none" stroke="black" d="M628.466,-507.078C570.747,-494.283 459.132,-469.282 420,-458.706 415.647,-457.529 411.148,-456.254 406.642,-454.937"/>
<polygon fill="#c50cf3" stroke="black" points="407.407,-451.512 396.824,-452.005 405.404,-458.22 407.407,-451.512"/>
</g>
<!-- telereddit_services_service&#45;&gt;telereddit_services_imgur_service -->
<g id="edge58" class="edge"><title>telereddit_services_service&#45;&gt;telereddit_services_imgur_service</title><style>.edge>path:hover{stroke-width:8}</style>
<path fill="none" stroke="black" d="M698.087,-505.619C737.622,-494.745 804.707,-476.024 862,-458.706 866.259,-457.418 870.671,-456.058 875.093,-454.676"/>
<polygon fill="#c50cf3" stroke="black" points="876.249,-457.981 884.733,-451.635 874.144,-451.305 876.249,-457.981"/>
</g>
<!-- telereddit_services_vreddit_service&#45;&gt;telereddit_services_services_wrapper -->
<g id="edge63" class="edge"><title>telereddit_services_vreddit_service&#45;&gt;telereddit_services_services_wrapper</title><style>.edge>path:hover{stroke-width:8}</style>
<path fill="none" stroke="black" d="M371.739,-416.811C379.321,-407.896 388.413,-397.206 396.651,-387.52"/>
<polygon fill="#853399" stroke="black" points="399.505,-389.566 403.318,-379.681 394.173,-385.031 399.505,-389.566"/>
</g>
<!-- telereddit_config_config -->
<g id="node22" class="node"><title>telereddit_config_config</title><style>.edge>path:hover{stroke-width:8}</style>
<ellipse fill="#c806f9" stroke="black" cx="1339" cy="-738.345" rx="41.5911" ry="18"/>
<text text-anchor="middle" x="1339" y="-735.845" font-family="Helvetica,sans-Serif" font-size="10.00" fill="#ffffff">config.config</text>
</g>
<!-- telereddit_config_config&#45;&gt;telereddit_reddit -->
<g id="edge24" class="edge"><title>telereddit_config_config&#45;&gt;telereddit_reddit</title><style>.edge>path:hover{stroke-width:8}</style>
<path fill="none" stroke="black" d="M1339,-719.91C1339,-692.648 1339,-638.267 1339,-592.132 1339,-592.132 1339,-592.132 1339,-514.919 1339,-362.436 1125.77,-280.767 1041.08,-254.343"/>
<polygon fill="#c806f9" stroke="black" points="1042,-250.964 1031.41,-251.394 1039.96,-257.659 1042,-250.964"/>
</g>
<!-- telereddit_config_config&#45;&gt;telereddit_helpers -->
<g id="edge22" class="edge"><title>telereddit_config_config&#45;&gt;telereddit_helpers</title><style>.edge>path:hover{stroke-width:8}</style>
<path fill="none" stroke="black" d="M1297.26,-736.183C1208.02,-732.944 1002.32,-721.22 947,-681.132 926.582,-666.337 915.132,-639.39 909.067,-619.009"/>
<polygon fill="#c806f9" stroke="black" points="912.437,-618.064 906.437,-609.332 905.682,-619.9 912.437,-618.064"/>
</g>
<!-- telereddit_config_config&#45;&gt;telereddit_services_gfycat_service -->
<g id="edge25" class="edge"><title>telereddit_config_config&#45;&gt;telereddit_services_gfycat_service</title><style>.edge>path:hover{stroke-width:8}</style>
<path fill="none" stroke="black" d="M1297.96,-734.487C1245.63,-729.498 1153.51,-716.131 1083,-681.132 1024.93,-652.308 884.232,-521.002 824.998,-464.486"/>
<polygon fill="#c806f9" stroke="black" points="827.174,-461.724 817.527,-457.342 822.336,-466.783 827.174,-461.724"/>
</g>
<!-- telereddit_config_config&#45;&gt;telereddit_telereddit -->
<g id="edge27" class="edge"><title>telereddit_config_config&#45;&gt;telereddit_telereddit</title><style>.edge>path:hover{stroke-width:8}</style>
<path fill="none" stroke="black" d="M1361.52,-722.964C1394.75,-699.787 1453,-650.786 1453,-592.132 1453,-592.132 1453,-592.132 1453,-242.64 1453,-186.627 1401.3,-138.745 1367.54,-113.444"/>
<polygon fill="#c806f9" stroke="black" points="1369.53,-110.562 1359.38,-107.507 1365.41,-116.222 1369.53,-110.562"/>
</g>
<!-- telereddit_config_config&#45;&gt;telereddit_linker -->
<g id="edge23" class="edge"><title>telereddit_config_config&#45;&gt;telereddit_linker</title><style>.edge>path:hover{stroke-width:8}</style>
<path fill="none" stroke="black" d="M1346.51,-720.289C1357.58,-693.534 1377,-639.821 1377,-592.132 1377,-592.132 1377,-592.132 1377,-300.853 1377,-263.273 1373.53,-253.408 1362,-217.64 1359.54,-209.993 1356.11,-202.001 1352.65,-194.773"/>
<polygon fill="#c806f9" stroke="black" points="1355.61,-192.866 1348,-185.494 1349.35,-196.002 1355.61,-192.866"/>
</g>
<!-- telereddit_config_config&#45;&gt;telereddit_services_imgur_service -->
<g id="edge26" class="edge"><title>telereddit_config_config&#45;&gt;telereddit_services_imgur_service</title><style>.edge>path:hover{stroke-width:8}</style>
<path fill="none" stroke="black" d="M1299.13,-732.729C1257.13,-726.402 1190.35,-712.072 1141,-681.132 1049.95,-624.043 974.765,-517.501 942.278,-466.761"/>
<polygon fill="#c806f9" stroke="black" points="945.197,-464.829 936.894,-458.248 939.281,-468.571 945.197,-464.829"/>
</g>
<!-- telereddit_linker&#45;&gt;telereddit_telereddit -->
<g id="edge48" class="edge"><title>telereddit_linker&#45;&gt;telereddit_telereddit</title><style>.edge>path:hover{stroke-width:8}</style>
<path fill="none" stroke="black" d="M1339,-150.076C1339,-141.596 1339,-131.19 1339,-121.666"/>
<polygon fill="#853399" stroke="black" points="1342.5,-121.439 1339,-111.439 1335.5,-121.439 1342.5,-121.439"/>
</g>
<!-- telereddit_content_type -->
<g id="node25" class="node"><title>telereddit_content_type</title><style>.edge>path:hover{stroke-width:8}</style>
<ellipse fill="#cb10f9" stroke="black" cx="483" cy="-591.132" rx="42.9448" ry="18"/>
<text text-anchor="middle" x="483" y="-588.632" font-family="Helvetica,sans-Serif" font-size="10.00" fill="#ffffff">content_type</text>
</g>
<!-- telereddit_content_type&#45;&gt;telereddit_tests_test_services -->
<g id="edge41" class="edge"><title>telereddit_content_type&#45;&gt;telereddit_tests_test_services</title><style>.edge>path:hover{stroke-width:8}</style>
<path fill="none" stroke="black" d="M441.7,-585.67C383.588,-578.555 281.874,-562.767 256,-537.132 223.948,-505.377 232,-483.611 232,-438.492 232,-438.492 232,-438.492 232,-358.066 232,-328.518 242.718,-296.395 252.118,-273.902"/>
<polygon fill="#cb10f9" stroke="black" points="255.39,-275.155 256.166,-264.589 248.97,-272.365 255.39,-275.155"/>
</g>
<!-- telereddit_content_type&#45;&gt;telereddit_reddit -->
<g id="edge34" class="edge"><title>telereddit_content_type&#45;&gt;telereddit_reddit</title><style>.edge>path:hover{stroke-width:8}</style>
<path fill="none" stroke="black" d="M492.022,-573.277C513.161,-534.284 566.199,-439.414 594,-416.279 712.282,-317.85 894.936,-268.955 971.413,-251.889"/>
<polygon fill="#cb10f9" stroke="black" points="972.458,-255.243 981.481,-249.69 970.965,-248.404 972.458,-255.243"/>
</g>
<!-- telereddit_content_type&#45;&gt;telereddit_services_youtube_service -->
<g id="edge39" class="edge"><title>telereddit_content_type&#45;&gt;telereddit_services_youtube_service</title><style>.edge>path:hover{stroke-width:8}</style>
<path fill="none" stroke="black" d="M501.351,-574.758C532.35,-548.787 595.397,-495.968 633.244,-464.259"/>
<polygon fill="#cb10f9" stroke="black" points="635.957,-466.553 641.374,-457.448 631.461,-461.187 635.957,-466.553"/>
</g>
<!-- telereddit_content_type&#45;&gt;telereddit_tests_test_reddit -->
<g id="edge40" class="edge"><title>telereddit_content_type&#45;&gt;telereddit_tests_test_reddit</title><style>.edge>path:hover{stroke-width:8}</style>
<path fill="none" stroke="black" d="M450.114,-579.346C388.007,-556.857 261.988,-499.993 289,-416.279 329.961,-289.338 441.614,-170.235 493.64,-119.689"/>
<polygon fill="#cb10f9" stroke="black" points="496.381,-121.909 501.164,-112.454 491.529,-116.863 496.381,-121.909"/>
</g>
<!-- telereddit_content_type&#45;&gt;telereddit_services_generic_service -->
<g id="edge35" class="edge"><title>telereddit_content_type&#45;&gt;telereddit_services_generic_service</title><style>.edge>path:hover{stroke-width:8}</style>
<path fill="none" stroke="black" d="M483.564,-573.032C484.391,-547.95 485.946,-500.778 486.978,-469.491"/>
<polygon fill="#cb10f9" stroke="black" points="490.487,-469.259 487.319,-459.149 483.491,-469.028 490.487,-469.259"/>
</g>
<!-- telereddit_content_type&#45;&gt;telereddit_services_gfycat_service -->
<g id="edge36" class="edge"><title>telereddit_content_type&#45;&gt;telereddit_services_gfycat_service</title><style>.edge>path:hover{stroke-width:8}</style>
<path fill="none" stroke="black" d="M525.602,-588.086C573.92,-584.073 653.569,-572.205 712,-537.132 740.891,-519.791 765.172,-489.435 780.487,-466.965"/>
<polygon fill="#cb10f9" stroke="black" points="783.5,-468.753 786.101,-458.483 777.663,-464.889 783.5,-468.753"/>
</g>
<!-- telereddit_content_type&#45;&gt;telereddit_services_vreddit_service -->
<g id="edge38" class="edge"><title>telereddit_content_type&#45;&gt;telereddit_services_vreddit_service</title><style>.edge>path:hover{stroke-width:8}</style>
<path fill="none" stroke="black" d="M469.302,-573.904C447.515,-548.094 404.72,-497.394 378.122,-465.885"/>
<polygon fill="#cb10f9" stroke="black" points="380.531,-463.313 371.406,-457.929 375.182,-467.828 380.531,-463.313"/>
</g>
<!-- telereddit_content_type&#45;&gt;telereddit_services_imgur_service -->
<g id="edge37" class="edge"><title>telereddit_content_type&#45;&gt;telereddit_services_imgur_service</title><style>.edge>path:hover{stroke-width:8}</style>
<path fill="none" stroke="black" d="M524.359,-586.037C577.801,-579.826 673.108,-565.602 750,-537.132 801.94,-517.901 856.783,-484.57 890.94,-462.034"/>
<polygon fill="#cb10f9" stroke="black" points="893.207,-464.729 899.585,-456.269 889.323,-458.905 893.207,-464.729"/>
</g>
<!-- telereddit_services_imgur_service&#45;&gt;telereddit_services_services_wrapper -->
<g id="edge55" class="edge"><title>telereddit_services_imgur_service&#45;&gt;telereddit_services_services_wrapper</title><style>.edge>path:hover{stroke-width:8}</style>
<path fill="none" stroke="black" d="M886.362,-422.668C878.389,-420.22 869.987,-417.93 862,-416.279 700.634,-382.919 655.006,-410.377 493,-380.279 487.285,-379.217 481.367,-377.92 475.487,-376.499"/>
<polygon fill="#7e3091" stroke="black" points="476.222,-373.075 465.668,-374.012 474.503,-379.861 476.222,-373.075"/>
</g>
<!-- telereddit_services_services_wrapper&#45;&gt;telereddit_tests_test_services -->
<g id="edge62" class="edge"><title>telereddit_services_services_wrapper&#45;&gt;telereddit_tests_test_services</title><style>.edge>path:hover{stroke-width:8}</style>
<path fill="none" stroke="black" d="M371.094,-345.094C345.602,-336.313 315.372,-322.479 294,-301.853 286.122,-294.25 280.15,-283.971 275.788,-274.223"/>
<polygon fill="#84269b" stroke="black" points="278.955,-272.72 271.951,-264.771 272.469,-275.353 278.955,-272.72"/>
</g>
<!-- telereddit_services_services_wrapper&#45;&gt;telereddit_reddit -->
<g id="edge61" class="edge"><title>telereddit_services_services_wrapper&#45;&gt;telereddit_reddit</title><style>.edge>path:hover{stroke-width:8}</style>
<path fill="none" stroke="black" d="M450.754,-340.121C474.584,-327.071 508.85,-310.128 541,-300.853 695.922,-256.159 889.748,-246.973 969.789,-245.105"/>
<polygon fill="#84269b" stroke="black" points="969.943,-248.603 979.868,-244.895 969.798,-241.604 969.943,-248.603"/>
</g>
<!-- telegram -->
<g id="node29" class="node"><title>telegram</title><style>.edge>path:hover{stroke-width:8}</style>
<polygon fill="#4971ac" stroke="black" points="1518,-991.411 1515,-995.411 1494,-995.411 1491,-991.411 1464,-991.411 1464,-955.411 1518,-955.411 1518,-991.411"/>
<text text-anchor="middle" x="1491" y="-970.911" font-family="Helvetica,sans-Serif" font-size="10.00" fill="#ffffff">telegram</text>
</g>
<!-- telegram&#45;&gt;telereddit_telereddit -->
<g id="edge15" class="edge"><title>telegram&#45;&gt;telereddit_telereddit</title><style>.edge>path:hover{stroke-width:8}</style>
<path fill="none" stroke="black" d="M1498.33,-955.024C1509.37,-927.199 1529,-870.71 1529,-820.772 1529,-820.772 1529,-820.772 1529,-242.64 1529,-166.429 1432.9,-123.545 1377.39,-105.132"/>
<polygon fill="#4971ac" stroke="black" points="1378.45,-101.797 1367.86,-102.078 1376.31,-108.463 1378.45,-101.797"/>
</g>
<!-- telegram&#45;&gt;telereddit_config_config -->
<g id="edge13" class="edge"><title>telegram&#45;&gt;telereddit_config_config</title><style>.edge>path:hover{stroke-width:8}</style>
<path fill="none" stroke="black" d="M1479.82,-955.273C1453.29,-914.584 1386.39,-812.015 1355.33,-764.377"/>
<polygon fill="#4971ac" stroke="black" points="1358.18,-762.346 1349.78,-755.882 1352.32,-766.17 1358.18,-762.346"/>
</g>
<!-- telegram&#45;&gt;telereddit_linker -->
<g id="edge14" class="edge"><title>telegram&#45;&gt;telereddit_linker</title><style>.edge>path:hover{stroke-width:8}</style>
<path fill="none" stroke="black" d="M1491,-955.128C1491,-926.978 1491,-869.475 1491,-820.772 1491,-820.772 1491,-820.772 1491,-358.066 1491,-279.961 1411.01,-215.906 1367.09,-186.618"/>
<polygon fill="#4971ac" stroke="black" points="1368.85,-183.589 1358.56,-181.066 1365.03,-189.455 1368.85,-183.589"/>
</g>
</g>
</svg>
