<?xml version="1.0" encoding="UTF-8" standalone="no"?>
<!DOCTYPE svg PUBLIC "-//W3C//DTD SVG 1.1//EN"
 "http://www.w3.org/Graphics/SVG/1.1/DTD/svg11.dtd">
<!-- Generated by graphviz version 2.40.1 (20161225.0304)
 -->
<!-- Title: G Pages: 1 -->
<svg width="1121pt" height="774pt"
 viewBox="0.00 0.00 1120.81 773.98" xmlns="http://www.w3.org/2000/svg" xmlns:xlink="http://www.w3.org/1999/xlink">
<g id="graph0" class="graph" transform="scale(1 1) rotate(0) translate(4 769.9848)">
<title>G</title><style>.edge>path:hover{stroke-width:8}</style>
<polygon fill="#ffffff" stroke="transparent" points="-4,4 -4,-769.9848 1116.8144,-769.9848 1116.8144,4 -4,4"/>
<!-- telereddit___main__ -->
<g id="node1" class="node">
<title>telereddit___main__</title><style>.edge>path:hover{stroke-width:8}</style>
<ellipse fill="#ac4949" stroke="#000000" cx="34.7311" cy="-18" rx="34.9638" ry="18"/>
<text text-anchor="middle" x="34.7311" y="-15.5" font-family="Helvetica,sans-Serif" font-size="10.00" fill="#ffffff">__main__</text>
</g>
<!-- telereddit_config_config -->
<g id="node2" class="node">
<title>telereddit_config_config</title><style>.edge>path:hover{stroke-width:8}</style>
<ellipse fill="#f91010" stroke="#000000" cx="393.7311" cy="-747.9848" rx="42.2678" ry="18"/>
<text text-anchor="middle" x="393.7311" y="-745.4848" font-family="Helvetica,sans-Serif" font-size="10.00" fill="#ffffff">config.config</text>
</g>
<!-- telereddit_helpers -->
<g id="node9" class="node">
<title>telereddit_helpers</title><style>.edge>path:hover{stroke-width:8}</style>
<ellipse fill="#ef0606" stroke="#000000" cx="393.7311" cy="-594.3452" rx="28.0137" ry="18"/>
<text text-anchor="middle" x="393.7311" y="-591.8452" font-family="Helvetica,sans-Serif" font-size="10.00" fill="#ffffff">helpers</text>
</g>
<!-- telereddit_config_config&#45;&gt;telereddit_helpers -->
<g id="edge1" class="edge">
<title>telereddit_config_config&#45;&gt;telereddit_helpers</title><style>.edge>path:hover{stroke-width:8}</style>
<path fill="none" stroke="#000000" d="M393.7311,-672.7716C399.8394,-656.8677 399.9766,-637.7747 398.5204,-622.4095"/>
<polygon fill="#f91010" stroke="#000000" points="401.9914,-621.9579 397.3115,-612.4527 395.0424,-622.8016 401.9914,-621.9579"/>
</g>
<!-- telereddit_linker -->
<g id="node10" class="node">
<title>telereddit_linker</title><style>.edge>path:hover{stroke-width:8}</style>
<ellipse fill="#a83838" stroke="#000000" cx="61.7311" cy="-168.4264" rx="27" ry="18"/>
<text text-anchor="middle" x="61.7311" y="-165.9264" font-family="Helvetica,sans-Serif" font-size="10.00" fill="#ffffff">linker</text>
</g>
<!-- telereddit_config_config&#45;&gt;telereddit_linker -->
<g id="edge2" class="edge">
<title>telereddit_config_config&#45;&gt;telereddit_linker</title><style>.edge>path:hover{stroke-width:8}</style>
<path fill="none" stroke="#000000" d="M6.7311,-301.3528C11.5942,-271.0292 36.5346,-273.2368 44.7311,-243.6396"/>
<path fill="none" stroke="#000000" d="M44.7311,-243.6396C49.0019,-228.2181 52.9906,-210.8003 56.0297,-196.6125"/>
<polygon fill="#f91010" stroke="#000000" points="59.5277,-196.9851 58.1575,-186.4792 52.6771,-195.5465 59.5277,-196.9851"/>
</g>
<!-- telereddit_reddit -->
<g id="node11" class="node">
<title>telereddit_reddit</title><style>.edge>path:hover{stroke-width:8}</style>
<ellipse fill="#ac2b2b" stroke="#000000" cx="374.7311" cy="-243.6396" rx="27" ry="18"/>
<text text-anchor="middle" x="374.7311" y="-241.1396" font-family="Helvetica,sans-Serif" font-size="10.00" fill="#ffffff">reddit</text>
</g>
<!-- telereddit_config_config&#45;&gt;telereddit_reddit -->
<g id="edge3" class="edge">
<title>telereddit_config_config&#45;&gt;telereddit_reddit</title><style>.edge>path:hover{stroke-width:8}</style>
<path fill="none" stroke="#000000" d="M784.7311,-594.3452C800.2312,-563.125 759.4039,-539.8664 784.7311,-515.9188"/>
</g>
<!-- telereddit_services_gfycat_service -->
<g id="node13" class="node">
<title>telereddit_services_gfycat_service</title><style>.edge>path:hover{stroke-width:8}</style>
<ellipse fill="#a83838" stroke="#000000" cx="902.7311" cy="-437.4924" rx="56.6372" ry="21.4286"/>
<text text-anchor="middle" x="902.7311" y="-440.4924" font-family="Helvetica,sans-Serif" font-size="10.00" fill="#ffffff">services.</text>
<text text-anchor="middle" x="902.7311" y="-429.4924" font-family="Helvetica,sans-Serif" font-size="10.00" fill="#ffffff">gfycat_service</text>
</g>
<!-- telereddit_config_config&#45;&gt;telereddit_services_gfycat_service -->
<g id="edge4" class="edge">
<title>telereddit_config_config&#45;&gt;telereddit_services_gfycat_service</title><style>.edge>path:hover{stroke-width:8}</style>
<path fill="none" stroke="#000000" d="M784.7311,-594.3452C801.9548,-559.6533 726.4044,-548.8887 746.7311,-515.9188"/>
</g>
<!-- telereddit_services_imgur_service -->
<g id="node14" class="node">
<title>telereddit_services_imgur_service</title><style>.edge>path:hover{stroke-width:8}</style>
<ellipse fill="#a83838" stroke="#000000" cx="773.7311" cy="-437.4924" rx="54.3945" ry="21.4286"/>
<text text-anchor="middle" x="773.7311" y="-440.4924" font-family="Helvetica,sans-Serif" font-size="10.00" fill="#ffffff">services.</text>
<text text-anchor="middle" x="773.7311" y="-429.4924" font-family="Helvetica,sans-Serif" font-size="10.00" fill="#ffffff">imgur_service</text>
</g>
<!-- telereddit_config_config&#45;&gt;telereddit_services_imgur_service -->
<g id="edge5" class="edge">
<title>telereddit_config_config&#45;&gt;telereddit_services_imgur_service</title><style>.edge>path:hover{stroke-width:8}</style>
<path fill="none" stroke="#000000" d="M393.7311,-672.7716C425.5044,-590.0439 745.3232,-673.7205 784.7311,-594.3452"/>
<path fill="none" stroke="#000000" d="M784.7311,-594.3452C806.3151,-550.8708 702.8998,-564.1048 708.7311,-515.9188"/>
</g>
<!-- telereddit_telereddit -->
<g id="node19" class="node">
<title>telereddit_telereddit</title><style>.edge>path:hover{stroke-width:8}</style>
<ellipse fill="#a83838" stroke="#000000" cx="34.7311" cy="-93.2132" rx="32.9303" ry="18"/>
<text text-anchor="middle" x="34.7311" y="-90.7132" font-family="Helvetica,sans-Serif" font-size="10.00" fill="#ffffff">telereddit</text>
</g>
<!-- telereddit_config_config&#45;&gt;telereddit_telereddit -->
<g id="edge6" class="edge">
<title>telereddit_config_config&#45;&gt;telereddit_telereddit</title><style>.edge>path:hover{stroke-width:8}</style>
<path fill="none" stroke="#000000" d="M390.2078,-730.0049C387.9492,-714.3415 386.6149,-691.3 393.7311,-672.7716"/>
<path fill="none" stroke="#000000" d="M393.7311,-672.7716C410.1774,-629.9507 67.3551,-496.0591 40.7311,-458.7056 -.7966,-400.4421 -4.5986,-371.9986 6.7311,-301.3528"/>
<path fill="none" stroke="#000000" d="M6.7311,-301.3528C11.6665,-276.1818 10.7928,-268.9663 6.7311,-243.6396"/>
<path fill="none" stroke="#000000" d="M6.7311,-243.6396C-.1849,-200.5153 13.3319,-150.7363 23.8886,-120.6382"/>
<polygon fill="#f91010" stroke="#000000" points="27.1839,-121.8175 27.3214,-111.2236 20.6075,-119.4195 27.1839,-121.8175"/>
</g>
<!-- telereddit_config_secret -->
<g id="node3" class="node">
<title>telereddit_config_secret</title><style>.edge>path:hover{stroke-width:8}</style>
<ellipse fill="#e72222" stroke="#000000" cx="966.7311" cy="-747.9848" rx="42.9448" ry="18"/>
<text text-anchor="middle" x="966.7311" y="-745.4848" font-family="Helvetica,sans-Serif" font-size="10.00" fill="#ffffff">config.secret</text>
</g>
<!-- telereddit_config_secret_dev -->
<g id="node4" class="node">
<title>telereddit_config_secret_dev</title><style>.edge>path:hover{stroke-width:8}</style>
<ellipse fill="#c43131" stroke="#000000" cx="1027.7311" cy="-672.7716" rx="45.9239" ry="21.4286"/>
<text text-anchor="middle" x="1027.7311" y="-675.7716" font-family="Helvetica,sans-Serif" font-size="10.00" fill="#ffffff">config.</text>
<text text-anchor="middle" x="1027.7311" y="-664.7716" font-family="Helvetica,sans-Serif" font-size="10.00" fill="#ffffff">secret_dev</text>
</g>
<!-- telereddit_config_secret&#45;&gt;telereddit_config_secret_dev -->
<g id="edge7" class="edge">
<title>telereddit_config_secret&#45;&gt;telereddit_config_secret_dev</title><style>.edge>path:hover{stroke-width:8}</style>
<path fill="none" stroke="#000000" d="M980.573,-730.9178C987.84,-721.9575 996.927,-710.7532 1005.1794,-700.5779"/>
<polygon fill="#e72222" stroke="#000000" points="1007.9874,-702.6721 1011.5681,-692.7007 1002.5507,-698.2628 1007.9874,-702.6721"/>
</g>
<!-- telereddit_config_secret_generic -->
<g id="node5" class="node">
<title>telereddit_config_secret_generic</title><style>.edge>path:hover{stroke-width:8}</style>
<ellipse fill="#ac4949" stroke="#000000" cx="906.7311" cy="-672.7716" rx="56.6372" ry="21.4286"/>
<text text-anchor="middle" x="906.7311" y="-675.7716" font-family="Helvetica,sans-Serif" font-size="10.00" fill="#ffffff">config.</text>
<text text-anchor="middle" x="906.7311" y="-664.7716" font-family="Helvetica,sans-Serif" font-size="10.00" fill="#ffffff">secret_generic</text>
</g>
<!-- telereddit_config_secret&#45;&gt;telereddit_config_secret_generic -->
<g id="edge8" class="edge">
<title>telereddit_config_secret&#45;&gt;telereddit_config_secret_generic</title><style>.edge>path:hover{stroke-width:8}</style>
<path fill="none" stroke="#000000" d="M952.8151,-730.5404C945.8914,-721.8612 937.345,-711.1478 929.5001,-701.3138"/>
<polygon fill="#e72222" stroke="#000000" points="932.0986,-698.9587 923.1264,-693.324 926.6265,-703.324 932.0986,-698.9587"/>
</g>
<!-- telereddit_config_secret_github -->
<g id="node6" class="node">
<title>telereddit_config_secret_github</title><style>.edge>path:hover{stroke-width:8}</style>
<ellipse fill="#a44646" stroke="#000000" cx="865.7311" cy="-594.3452" rx="53.066" ry="21.4286"/>
<text text-anchor="middle" x="865.7311" y="-597.3452" font-family="Helvetica,sans-Serif" font-size="10.00" fill="#ffffff">config.</text>
<text text-anchor="middle" x="865.7311" y="-586.3452" font-family="Helvetica,sans-Serif" font-size="10.00" fill="#ffffff">secret_github</text>
</g>
<!-- telereddit_config_secret&#45;&gt;telereddit_config_secret_github -->
<g id="edge9" class="edge">
<title>telereddit_config_secret&#45;&gt;telereddit_config_secret_github</title><style>.edge>path:hover{stroke-width:8}</style>
<path fill="none" stroke="#000000" d="M925.7055,-742.3166C896.5859,-735.9169 859.466,-722.397 840.7311,-693.9848 826.8764,-672.9737 835.8928,-644.8499 846.7754,-623.8396"/>
<polygon fill="#e72222" stroke="#000000" points="849.8741,-625.4686 851.6612,-615.0256 843.7518,-622.0749 849.8741,-625.4686"/>
</g>
<!-- telereddit_config_secret_prod -->
<g id="node7" class="node">
<title>telereddit_config_secret_prod</title><style>.edge>path:hover{stroke-width:8}</style>
<ellipse fill="#a44646" stroke="#000000" cx="1064.7311" cy="-594.3452" rx="48.1667" ry="21.4286"/>
<text text-anchor="middle" x="1064.7311" y="-597.3452" font-family="Helvetica,sans-Serif" font-size="10.00" fill="#ffffff">config.</text>
<text text-anchor="middle" x="1064.7311" y="-586.3452" font-family="Helvetica,sans-Serif" font-size="10.00" fill="#ffffff">secret_prod</text>
</g>
<!-- telereddit_config_secret&#45;&gt;telereddit_config_secret_prod -->
<g id="edge10" class="edge">
<title>telereddit_config_secret&#45;&gt;telereddit_config_secret_prod</title><style>.edge>path:hover{stroke-width:8}</style>
<path fill="none" stroke="#000000" d="M1006.3008,-740.9236C1032.8877,-733.9001 1066.0127,-720.2087 1082.7311,-693.9848 1095.9467,-673.2553 1089.3512,-645.4384 1080.646,-624.4642"/>
<polygon fill="#e72222" stroke="#000000" points="1083.7147,-622.7543 1076.4215,-615.0692 1077.3304,-625.625 1083.7147,-622.7543"/>
</g>
<!-- telereddit_config_secret_dev&#45;&gt;telereddit_config_secret_github -->
<g id="edge11" class="edge">
<title>telereddit_config_secret_dev&#45;&gt;telereddit_config_secret_github</title><style>.edge>path:hover{stroke-width:8}</style>
<path fill="none" stroke="#000000" d="M995.7251,-657.2771C970.8971,-645.2575 936.2318,-628.4756 908.9422,-615.2643"/>
<polygon fill="#c43131" stroke="#000000" points="910.1512,-611.9611 899.6253,-610.7539 907.101,-618.2616 910.1512,-611.9611"/>
</g>
<!-- telereddit_config_secret_dev&#45;&gt;telereddit_config_secret_prod -->
<g id="edge12" class="edge">
<title>telereddit_config_secret_dev&#45;&gt;telereddit_config_secret_prod</title><style>.edge>path:hover{stroke-width:8}</style>
<path fill="none" stroke="#000000" d="M1037.6464,-651.7548C1041.6182,-643.336 1046.2684,-633.4795 1050.5836,-624.3329"/>
<polygon fill="#c43131" stroke="#000000" points="1053.8153,-625.6856 1054.9167,-615.1481 1047.4845,-622.6988 1053.8153,-625.6856"/>
</g>
<!-- telereddit_content_type -->
<g id="node8" class="node">
<title>telereddit_content_type</title><style>.edge>path:hover{stroke-width:8}</style>
<ellipse fill="#f91010" stroke="#000000" cx="708.7311" cy="-594.3452" rx="42.9448" ry="18"/>
<text text-anchor="middle" x="708.7311" y="-591.8452" font-family="Helvetica,sans-Serif" font-size="10.00" fill="#ffffff">content_type</text>
</g>
<!-- telereddit_content_type&#45;&gt;telereddit_reddit -->
<g id="edge13" class="edge">
<title>telereddit_content_type&#45;&gt;telereddit_reddit</title><style>.edge>path:hover{stroke-width:8}</style>
<path fill="none" stroke="#000000" d="M724.213,-577.2763C739.209,-561.0104 762.8322,-536.0812 784.7311,-515.9188"/>
<path fill="none" stroke="#000000" d="M784.7311,-515.9188C847.7341,-457.9118 917.9545,-527.6688 968.7311,-458.7056 979.9111,-443.5213 979.9177,-431.4587 968.7311,-416.2792 900.4698,-323.6534 530.304,-265.1329 411.4737,-248.5198"/>
<polygon fill="#f91010" stroke="#000000" points="411.8014,-245.0319 401.4164,-247.1304 410.8433,-251.9661 411.8014,-245.0319"/>
</g>
<!-- telereddit_services_generic_service -->
<g id="node12" class="node">
<title>telereddit_services_generic_service</title><style>.edge>path:hover{stroke-width:8}</style>
<ellipse fill="#b03a3a" stroke="#000000" cx="640.7311" cy="-437.4924" rx="60.2083" ry="21.4286"/>
<text text-anchor="middle" x="640.7311" y="-440.4924" font-family="Helvetica,sans-Serif" font-size="10.00" fill="#ffffff">services.</text>
<text text-anchor="middle" x="640.7311" y="-429.4924" font-family="Helvetica,sans-Serif" font-size="10.00" fill="#ffffff">generic_service</text>
</g>
<!-- telereddit_content_type&#45;&gt;telereddit_services_generic_service -->
<g id="edge14" class="edge">
<title>telereddit_content_type&#45;&gt;telereddit_services_generic_service</title><style>.edge>path:hover{stroke-width:8}</style>
<path fill="none" stroke="#000000" d="M431.7311,-515.9188C427.2617,-508.8975 522.9275,-475.9764 586.3346,-455.0821"/>
<polygon fill="#f91010" stroke="#000000" points="587.805,-458.2832 596.2138,-451.8378 585.6209,-451.6326 587.805,-458.2832"/>
</g>
<!-- telereddit_content_type&#45;&gt;telereddit_services_gfycat_service -->
<g id="edge15" class="edge">
<title>telereddit_content_type&#45;&gt;telereddit_services_gfycat_service</title><style>.edge>path:hover{stroke-width:8}</style>
<path fill="none" stroke="#000000" d="M716.1981,-576.3613C723.2357,-560.1043 734.5033,-535.7523 746.7311,-515.9188"/>
<path fill="none" stroke="#000000" d="M746.7311,-515.9188C754.2022,-503.8007 758.7183,-502.3449 770.7311,-494.7056 795.7738,-478.7804 826.0062,-465.313 851.2159,-455.4526"/>
<polygon fill="#f91010" stroke="#000000" points="852.5251,-458.6992 860.6106,-451.8525 850.0203,-452.1627 852.5251,-458.6992"/>
</g>
<!-- telereddit_content_type&#45;&gt;telereddit_services_imgur_service -->
<g id="edge16" class="edge">
<title>telereddit_content_type&#45;&gt;telereddit_services_imgur_service</title><style>.edge>path:hover{stroke-width:8}</style>
<path fill="none" stroke="#000000" d="M707.5001,-576.2042C706.7109,-560.2608 706.2447,-536.4648 708.7311,-515.9188"/>
<path fill="none" stroke="#000000" d="M708.7311,-515.9188C711.2459,-495.1381 725.3314,-476.8076 739.75,-463.1042"/>
<polygon fill="#f91010" stroke="#000000" points="742.1507,-465.6526 747.2608,-456.3715 737.4783,-460.4402 742.1507,-465.6526"/>
</g>
<!-- telereddit_services_vreddit_service -->
<g id="node17" class="node">
<title>telereddit_services_vreddit_service</title><style>.edge>path:hover{stroke-width:8}</style>
<ellipse fill="#a83838" stroke="#000000" cx="361.7311" cy="-437.4924" rx="58.8803" ry="21.4286"/>
<text text-anchor="middle" x="361.7311" y="-440.4924" font-family="Helvetica,sans-Serif" font-size="10.00" fill="#ffffff">services.</text>
<text text-anchor="middle" x="361.7311" y="-429.4924" font-family="Helvetica,sans-Serif" font-size="10.00" fill="#ffffff">vreddit_service</text>
</g>
<!-- telereddit_content_type&#45;&gt;telereddit_services_vreddit_service -->
<g id="edge17" class="edge">
<title>telereddit_content_type&#45;&gt;telereddit_services_vreddit_service</title><style>.edge>path:hover{stroke-width:8}</style>
<path fill="none" stroke="#000000" d="M431.7311,-515.9188C420.0719,-497.6026 404.1316,-479.3728 390.4073,-465.1048"/>
<polygon fill="#f91010" stroke="#000000" points="392.5544,-462.2957 383.0519,-457.6103 387.5585,-467.1989 392.5544,-462.2957"/>
</g>
<!-- telereddit_services_youtube_service -->
<g id="node18" class="node">
<title>telereddit_services_youtube_service</title><style>.edge>path:hover{stroke-width:8}</style>
<ellipse fill="#a83838" stroke="#000000" cx="500.7311" cy="-437.4924" rx="62.4516" ry="21.4286"/>
<text text-anchor="middle" x="500.7311" y="-440.4924" font-family="Helvetica,sans-Serif" font-size="10.00" fill="#ffffff">services.</text>
<text text-anchor="middle" x="500.7311" y="-429.4924" font-family="Helvetica,sans-Serif" font-size="10.00" fill="#ffffff">youtube_service</text>
</g>
<!-- telereddit_content_type&#45;&gt;telereddit_services_youtube_service -->
<g id="edge18" class="edge">
<title>telereddit_content_type&#45;&gt;telereddit_services_youtube_service</title><style>.edge>path:hover{stroke-width:8}</style>
<path fill="none" stroke="#000000" d="M431.7311,-515.9188C419.0072,-495.9301 437.2447,-475.9161 458.1539,-461.1094"/>
<polygon fill="#f91010" stroke="#000000" points="460.1821,-463.9637 466.5557,-455.5004 456.2954,-458.1419 460.1821,-463.9637"/>
</g>
<!-- telereddit_tests_test_reddit -->
<g id="node21" class="node">
<title>telereddit_tests_test_reddit</title><style>.edge>path:hover{stroke-width:8}</style>
<ellipse fill="#a44646" stroke="#000000" cx="195.7311" cy="-93.2132" rx="43.6818" ry="21.4286"/>
<text text-anchor="middle" x="195.7311" y="-96.2132" font-family="Helvetica,sans-Serif" font-size="10.00" fill="#ffffff">tests.</text>
<text text-anchor="middle" x="195.7311" y="-85.2132" font-family="Helvetica,sans-Serif" font-size="10.00" fill="#ffffff">test_reddit</text>
</g>
<!-- telereddit_content_type&#45;&gt;telereddit_tests_test_reddit -->
<g id="edge19" class="edge">
<title>telereddit_content_type&#45;&gt;telereddit_tests_test_reddit</title><style>.edge>path:hover{stroke-width:8}</style>
<path fill="none" stroke="#000000" d="M666.7507,-590.0051C609.255,-583.1888 503.3837,-567.4989 417.7311,-537.132 347.5678,-512.2566 316.5389,-516.5908 269.7311,-458.7056 213.4193,-389.0673 235.6277,-351.9382 214.7311,-264.8528 204.5391,-222.3783 214.1764,-208.021 195.7311,-168.4264"/>
<path fill="none" stroke="#000000" d="M195.7311,-168.4264C189.1506,-155.0808 188.4284,-138.7135 189.653,-124.6588"/>
<polygon fill="#f91010" stroke="#000000" points="193.1616,-124.8019 190.9042,-114.4503 186.2136,-123.9503 193.1616,-124.8019"/>
</g>
<!-- telereddit_tests_test_services -->
<g id="node22" class="node">
<title>telereddit_tests_test_services</title><style>.edge>path:hover{stroke-width:8}</style>
<ellipse fill="#a44646" stroke="#000000" cx="276.7311" cy="-243.6396" rx="53.066" ry="21.4286"/>
<text text-anchor="middle" x="276.7311" y="-246.6396" font-family="Helvetica,sans-Serif" font-size="10.00" fill="#ffffff">tests.</text>
<text text-anchor="middle" x="276.7311" y="-235.6396" font-family="Helvetica,sans-Serif" font-size="10.00" fill="#ffffff">test_services</text>
</g>
<!-- telereddit_content_type&#45;&gt;telereddit_tests_test_services -->
<g id="edge20" class="edge">
<title>telereddit_content_type&#45;&gt;telereddit_tests_test_services</title><style>.edge>path:hover{stroke-width:8}</style>
<path fill="none" stroke="#000000" d="M667.2349,-589.2673C596.356,-579.5846 457.1275,-555.8157 431.7311,-515.9188"/>
<path fill="none" stroke="#000000" d="M431.7311,-515.9188C396.0775,-459.9083 332.758,-512.4203 293.7311,-458.7056 254.1911,-404.2847 261.7638,-320.3686 269.8051,-275.129"/>
<polygon fill="#f91010" stroke="#000000" points="273.2958,-275.5071 271.7241,-265.0295 266.4189,-274.2003 273.2958,-275.5071"/>
</g>
<!-- telereddit_helpers&#45;&gt;telereddit_linker -->
<g id="edge21" class="edge">
<title>telereddit_helpers&#45;&gt;telereddit_linker</title><style>.edge>path:hover{stroke-width:8}</style>
<path fill="none" stroke="#000000" d="M44.7311,-301.3528C40.6694,-276.0261 37.8853,-268.3595 44.7311,-243.6396"/>
</g>
<!-- telereddit_helpers&#45;&gt;telereddit_reddit -->
<g id="edge22" class="edge">
<title>telereddit_helpers&#45;&gt;telereddit_reddit</title><style>.edge>path:hover{stroke-width:8}</style>
<path fill="none" stroke="#000000" d="M198.7311,-515.9188C161.4607,-471.7536 297.2175,-323.2577 352.405,-266.2174"/>
<polygon fill="#ef0606" stroke="#000000" points="355.1625,-268.4025 359.6311,-258.7961 350.1472,-263.5191 355.1625,-268.4025"/>
</g>
<!-- telereddit_helpers&#45;&gt;telereddit_services_vreddit_service -->
<g id="edge23" class="edge">
<title>telereddit_helpers&#45;&gt;telereddit_services_vreddit_service</title><style>.edge>path:hover{stroke-width:8}</style>
<path fill="none" stroke="#000000" d="M198.7311,-515.9188C166.3749,-477.5769 237.882,-456.5472 296.2207,-446.1542"/>
<polygon fill="#ef0606" stroke="#000000" points="296.9204,-449.5855 306.1907,-444.456 295.745,-442.6849 296.9204,-449.5855"/>
</g>
<!-- telereddit_helpers&#45;&gt;telereddit_services_youtube_service -->
<g id="edge24" class="edge">
<title>telereddit_helpers&#45;&gt;telereddit_services_youtube_service</title><style>.edge>path:hover{stroke-width:8}</style>
<path fill="none" stroke="#000000" d="M394.2641,-576.232C395.7005,-554.9769 400.7068,-519.493 417.7311,-494.7056 427.3314,-480.7276 441.5541,-469.1348 455.5251,-460.124"/>
<polygon fill="#ef0606" stroke="#000000" points="457.444,-463.0531 464.1479,-454.8489 453.791,-457.0819 457.444,-463.0531"/>
</g>
<!-- telereddit_helpers&#45;&gt;telereddit_telereddit -->
<g id="edge25" class="edge">
<title>telereddit_helpers&#45;&gt;telereddit_telereddit</title><style>.edge>path:hover{stroke-width:8}</style>
<path fill="none" stroke="#000000" d="M365.7548,-591.6022C322.6609,-585.7913 240.6431,-568.1378 198.7311,-515.9188"/>
<path fill="none" stroke="#000000" d="M198.7311,-515.9188C157.9412,-465.0979 102.9115,-510.7775 63.7311,-458.7056 21.3781,-402.4173 55.8857,-370.9066 44.7311,-301.3528"/>
<path fill="none" stroke="#000000" d="M44.7311,-301.3528C39.6055,-271.0724 11.5942,-273.9633 6.7311,-243.6396"/>
</g>
<!-- telereddit_tests_test_helpers -->
<g id="node20" class="node">
<title>telereddit_tests_test_helpers</title><style>.edge>path:hover{stroke-width:8}</style>
<ellipse fill="#ac4949" stroke="#000000" cx="121.7311" cy="-437.4924" rx="49.4949" ry="21.4286"/>
<text text-anchor="middle" x="121.7311" y="-440.4924" font-family="Helvetica,sans-Serif" font-size="10.00" fill="#ffffff">tests.</text>
<text text-anchor="middle" x="121.7311" y="-429.4924" font-family="Helvetica,sans-Serif" font-size="10.00" fill="#ffffff">test_helpers</text>
</g>
<!-- telereddit_helpers&#45;&gt;telereddit_tests_test_helpers -->
<g id="edge26" class="edge">
<title>telereddit_helpers&#45;&gt;telereddit_tests_test_helpers</title><style>.edge>path:hover{stroke-width:8}</style>
<path fill="none" stroke="#000000" d="M198.7311,-515.9188C183.536,-497.9127 165.0855,-479.0311 150.0551,-464.3075"/>
<polygon fill="#ef0606" stroke="#000000" points="152.1551,-461.4682 142.5422,-457.0137 147.2791,-466.4906 152.1551,-461.4682"/>
</g>
<!-- telereddit_linker&#45;&gt;telereddit_telereddit -->
<g id="edge27" class="edge">
<title>telereddit_linker&#45;&gt;telereddit_telereddit</title><style>.edge>path:hover{stroke-width:8}</style>
<path fill="none" stroke="#000000" d="M55.3325,-150.6019C52.1045,-141.6097 48.1192,-130.508 44.5166,-120.4724"/>
<polygon fill="#a83838" stroke="#000000" points="47.7567,-119.1391 41.0838,-110.9097 41.1684,-121.5042 47.7567,-119.1391"/>
</g>
<!-- telereddit_reddit&#45;&gt;telereddit_linker -->
<g id="edge28" class="edge">
<title>telereddit_reddit&#45;&gt;telereddit_linker</title><style>.edge>path:hover{stroke-width:8}</style>
<path fill="none" stroke="#000000" d="M355.5315,-230.7058C350.2633,-227.6141 344.4288,-224.5873 338.7311,-222.4264 295.1186,-205.8856 163.1528,-184.0783 98.3844,-173.9883"/>
<polygon fill="#ac2b2b" stroke="#000000" points="98.6367,-170.4857 88.219,-172.415 97.566,-177.4034 98.6367,-170.4857"/>
</g>
<!-- telereddit_reddit&#45;&gt;telereddit_tests_test_reddit -->
<g id="edge29" class="edge">
<title>telereddit_reddit&#45;&gt;telereddit_tests_test_reddit</title><style>.edge>path:hover{stroke-width:8}</style>
<path fill="none" stroke="#000000" d="M354.8808,-231.1236C349.7174,-228.0967 344.0958,-224.9965 338.7311,-222.4264 277.4633,-193.074 224.4192,-230.0081 195.7311,-168.4264"/>
</g>
<!-- telereddit_services_services_wrapper -->
<g id="node16" class="node">
<title>telereddit_services_services_wrapper</title><style>.edge>path:hover{stroke-width:8}</style>
<ellipse fill="#a32828" stroke="#000000" cx="640.7311" cy="-359.066" rx="65.5227" ry="21.4286"/>
<text text-anchor="middle" x="640.7311" y="-362.066" font-family="Helvetica,sans-Serif" font-size="10.00" fill="#ffffff">services.</text>
<text text-anchor="middle" x="640.7311" y="-351.066" font-family="Helvetica,sans-Serif" font-size="10.00" fill="#ffffff">services_wrapper</text>
</g>
<!-- telereddit_services_generic_service&#45;&gt;telereddit_services_services_wrapper -->
<g id="edge30" class="edge">
<title>telereddit_services_generic_service&#45;&gt;telereddit_services_services_wrapper</title><style>.edge>path:hover{stroke-width:8}</style>
<path fill="none" stroke="#000000" d="M640.7311,-416.0621C640.7311,-408.1948 640.7311,-399.1159 640.7311,-390.5495"/>
<polygon fill="#b03a3a" stroke="#000000" points="644.2312,-390.4704 640.7311,-380.4705 637.2312,-390.4705 644.2312,-390.4704"/>
</g>
<!-- telereddit_services_gfycat_service&#45;&gt;telereddit_services_services_wrapper -->
<g id="edge31" class="edge">
<title>telereddit_services_gfycat_service&#45;&gt;telereddit_services_services_wrapper</title><style>.edge>path:hover{stroke-width:8}</style>
<path fill="none" stroke="#000000" d="M859.8257,-423.5171C852.1469,-421.0687 844.2106,-418.5724 836.7311,-416.2792 791.154,-402.3054 739.3734,-387.2244 700.4846,-376.0556"/>
<polygon fill="#a83838" stroke="#000000" points="700.959,-372.5507 690.3816,-373.1588 699.0295,-379.2795 700.959,-372.5507"/>
</g>
<!-- telereddit_services_imgur_service&#45;&gt;telereddit_services_services_wrapper -->
<g id="edge32" class="edge">
<title>telereddit_services_imgur_service&#45;&gt;telereddit_services_services_wrapper</title><style>.edge>path:hover{stroke-width:8}</style>
<path fill="none" stroke="#000000" d="M743.5514,-419.6963C725.125,-408.8307 701.3319,-394.8006 681.2752,-382.9737"/>
<polygon fill="#a83838" stroke="#000000" points="683.0378,-379.9499 672.6461,-377.8854 679.4822,-385.9797 683.0378,-379.9499"/>
</g>
<!-- telereddit_services_service -->
<g id="node15" class="node">
<title>telereddit_services_service</title><style>.edge>path:hover{stroke-width:8}</style>
<ellipse fill="#f31616" stroke="#000000" cx="640.7311" cy="-515.9188" rx="39.6962" ry="21.4286"/>
<text text-anchor="middle" x="640.7311" y="-518.9188" font-family="Helvetica,sans-Serif" font-size="10.00" fill="#ffffff">services.</text>
<text text-anchor="middle" x="640.7311" y="-507.9188" font-family="Helvetica,sans-Serif" font-size="10.00" fill="#ffffff">service</text>
</g>
<!-- telereddit_services_service&#45;&gt;telereddit_services_generic_service -->
<g id="edge33" class="edge">
<title>telereddit_services_service&#45;&gt;telereddit_services_generic_service</title><style>.edge>path:hover{stroke-width:8}</style>
<path fill="none" stroke="#000000" d="M640.7311,-494.4885C640.7311,-486.6212 640.7311,-477.5423 640.7311,-468.9759"/>
<polygon fill="#f31616" stroke="#000000" points="644.2312,-468.8968 640.7311,-458.8969 637.2312,-468.8969 644.2312,-468.8968"/>
</g>
<!-- telereddit_services_service&#45;&gt;telereddit_services_gfycat_service -->
<g id="edge34" class="edge">
<title>telereddit_services_service&#45;&gt;telereddit_services_gfycat_service</title><style>.edge>path:hover{stroke-width:8}</style>
<path fill="none" stroke="#000000" d="M675.8679,-505.9712C715.1577,-494.7761 780.6419,-475.9024 836.7311,-458.7056 841.0552,-457.3799 845.532,-455.9862 850.0234,-454.5732"/>
<polygon fill="#f31616" stroke="#000000" points="851.3497,-457.8246 859.8257,-451.4678 849.2356,-451.1514 851.3497,-457.8246"/>
</g>
<!-- telereddit_services_service&#45;&gt;telereddit_services_imgur_service -->
<g id="edge35" class="edge">
<title>telereddit_services_service&#45;&gt;telereddit_services_imgur_service</title><style>.edge>path:hover{stroke-width:8}</style>
<path fill="none" stroke="#000000" d="M667.6456,-500.0481C686.9923,-488.6399 713.3672,-473.0874 734.9781,-460.344"/>
<polygon fill="#f31616" stroke="#000000" points="736.7724,-463.3492 743.6085,-455.2549 733.2167,-457.3195 736.7724,-463.3492"/>
</g>
<!-- telereddit_services_service&#45;&gt;telereddit_services_vreddit_service -->
<g id="edge36" class="edge">
<title>telereddit_services_service&#45;&gt;telereddit_services_vreddit_service</title><style>.edge>path:hover{stroke-width:8}</style>
<path fill="none" stroke="#000000" d="M604.7754,-506.6097C562.6879,-495.6112 490.9482,-476.547 429.7311,-458.7056 425.149,-457.3702 420.403,-455.9553 415.6466,-454.5152"/>
<polygon fill="#f31616" stroke="#000000" points="416.5045,-451.1177 405.9182,-451.5414 414.4581,-457.8119 416.5045,-451.1177"/>
</g>
<!-- telereddit_services_service&#45;&gt;telereddit_services_youtube_service -->
<g id="edge37" class="edge">
<title>telereddit_services_service&#45;&gt;telereddit_services_youtube_service</title><style>.edge>path:hover{stroke-width:8}</style>
<path fill="none" stroke="#000000" d="M613.0716,-500.4243C592.8109,-489.0745 564.97,-473.4783 542.0733,-460.6519"/>
<polygon fill="#f31616" stroke="#000000" points="543.6808,-457.5406 533.2459,-455.7068 540.2597,-463.6477 543.6808,-457.5406"/>
</g>
<!-- telereddit_services_services_wrapper&#45;&gt;telereddit_reddit -->
<g id="edge38" class="edge">
<title>telereddit_services_services_wrapper&#45;&gt;telereddit_reddit</title><style>.edge>path:hover{stroke-width:8}</style>
<path fill="none" stroke="#000000" d="M374.7311,-301.3528C364.7624,-295.3737 363.829,-282.9609 365.789,-271.1737"/>
<polygon fill="#a32828" stroke="#000000" points="369.263,-271.6847 368.1018,-261.1537 362.4423,-270.1103 369.263,-271.6847"/>
</g>
<!-- telereddit_services_services_wrapper&#45;&gt;telereddit_tests_test_services -->
<g id="edge39" class="edge">
<title>telereddit_services_services_wrapper&#45;&gt;telereddit_tests_test_services</title><style>.edge>path:hover{stroke-width:8}</style>
<path fill="none" stroke="#000000" d="M580.4134,-350.5792C513.0002,-340.2996 408.8225,-321.8003 374.7311,-301.3528"/>
<path fill="none" stroke="#000000" d="M374.7311,-301.3528C355.4092,-289.7638 333.8413,-277.0395 315.8687,-266.4945"/>
<polygon fill="#a32828" stroke="#000000" points="317.2261,-263.2332 306.8288,-261.1963 313.6865,-269.2724 317.2261,-263.2332"/>
</g>
<!-- telereddit_services_vreddit_service&#45;&gt;telereddit_services_services_wrapper -->
<g id="edge40" class="edge">
<title>telereddit_services_vreddit_service&#45;&gt;telereddit_services_services_wrapper</title><style>.edge>path:hover{stroke-width:8}</style>
<path fill="none" stroke="#000000" d="M405.9182,-423.4435C413.8317,-421.003 422.0139,-418.5284 429.7311,-416.2792 479.9952,-401.6301 537.3534,-386.1564 579.5669,-375.0001"/>
<polygon fill="#a83838" stroke="#000000" points="580.6391,-378.3371 589.416,-372.4028 578.8541,-371.5685 580.6391,-378.3371"/>
</g>
<!-- telereddit_services_youtube_service&#45;&gt;telereddit_services_services_wrapper -->
<g id="edge41" class="edge">
<title>telereddit_services_youtube_service&#45;&gt;telereddit_services_services_wrapper</title><style>.edge>path:hover{stroke-width:8}</style>
<path fill="none" stroke="#000000" d="M533.2018,-419.3027C552.7093,-408.3749 577.7375,-394.3543 598.7384,-382.5899"/>
<polygon fill="#a83838" stroke="#000000" points="600.4505,-385.6426 607.4643,-377.7017 597.0294,-379.5355 600.4505,-385.6426"/>
</g>
<!-- telereddit_telereddit&#45;&gt;telereddit___main__ -->
<g id="edge42" class="edge">
<title>telereddit_telereddit&#45;&gt;telereddit___main__</title><style>.edge>path:hover{stroke-width:8}</style>
<path fill="none" stroke="#000000" d="M34.7311,-75.0062C34.7311,-66.3219 34.7311,-55.737 34.7311,-46.0563"/>
<polygon fill="#a83838" stroke="#000000" points="38.2312,-46.0393 34.7311,-36.0393 31.2312,-46.0394 38.2312,-46.0393"/>
</g>
</g>
</svg>
