<?xml version="1.0" encoding="UTF-8" standalone="no"?>
<!DOCTYPE svg PUBLIC "-//W3C//DTD SVG 1.1//EN"
 "http://www.w3.org/Graphics/SVG/1.1/DTD/svg11.dtd">
<!-- Generated by graphviz version 2.40.1 (20161225.0304)
 -->
<!-- Title: G Pages: 1 -->
<svg width="1363pt" height="1216pt"
 viewBox="0.00 0.00 1363.00 1215.98" xmlns="http://www.w3.org/2000/svg" xmlns:xlink="http://www.w3.org/1999/xlink">
<g id="graph0" class="graph" transform="scale(1 1) rotate(0) translate(4 1211.9848)">
<title>G</title><style>.edge>path:hover{stroke-width:8}</style>
<polygon fill="#ffffff" stroke="transparent" points="-4,4 -4,-1211.9848 1359,-1211.9848 1359,4 -4,4"/>
<g id="clust1" class="cluster">
<title>cluster_chardet</title><style>.edge>path:hover{stroke-width:8}</style>
<polygon fill="none" stroke="#000000" points="608,-749.132 608,-824.132 682,-824.132 682,-749.132 608,-749.132"/>
<text text-anchor="middle" x="645" y="-808.932" font-family="Times,serif" font-size="14.00" fill="#000000">chardet</text>
</g>
<g id="clust2" class="cluster">
<title>cluster_cryptography</title><style>.edge>path:hover{stroke-width:8}</style>
<polygon fill="none" stroke="#000000" points="490,-1124.9848 490,-1199.9848 592,-1199.9848 592,-1124.9848 490,-1124.9848"/>
<text text-anchor="middle" x="541" y="-1184.7848" font-family="Times,serif" font-size="14.00" fill="#000000">cryptography</text>
</g>
<g id="clust3" class="cluster">
<title>cluster_parameterized</title><style>.edge>path:hover{stroke-width:8}</style>
<polygon fill="none" stroke="#000000" points="1178,-411.4924 1178,-568.132 1308,-568.132 1308,-411.4924 1178,-411.4924"/>
<text text-anchor="middle" x="1243" y="-552.932" font-family="Times,serif" font-size="14.00" fill="#000000">parameterized</text>
</g>
<!-- chardet -->
<g id="node1" class="node">
<title>chardet</title><style>.edge>path:hover{stroke-width:8}</style>
<ellipse fill="#b65353" stroke="#000000" cx="645" cy="-775.132" rx="28.6898" ry="18"/>
<text text-anchor="middle" x="645" y="-772.632" font-family="Helvetica,sans-Serif" font-size="10.00" fill="#ffffff">chardet</text>
</g>
<!-- requests -->
<g id="node27" class="node">
<title>requests</title><style>.edge>path:hover{stroke-width:8}</style>
<polygon fill="#039528" stroke="#000000" points="615,-721.132 612,-725.132 591,-725.132 588,-721.132 561,-721.132 561,-685.132 615,-685.132 615,-721.132"/>
<text text-anchor="middle" x="588" y="-700.632" font-family="Helvetica,sans-Serif" font-size="10.00" fill="#ffffff">requests</text>
</g>
<!-- chardet&#45;&gt;requests -->
<g id="edge1" class="edge">
<title>chardet&#45;&gt;requests</title><style>.edge>path:hover{stroke-width:8}</style>
<path fill="none" stroke="#000000" d="M624.4174,-749.1329C619.2711,-742.6324 613.7508,-735.6593 608.6035,-729.1575"/>
<polygon fill="#000000" stroke="#000000" points="611.2348,-726.8424 602.2835,-721.1744 605.7464,-731.1873 611.2348,-726.8424"/>
</g>
<!-- cryptography -->
<g id="node2" class="node">
<title>cryptography</title><style>.edge>path:hover{stroke-width:8}</style>
<ellipse fill="#e6b319" stroke="#000000" cx="541" cy="-1150.9848" rx="42.9448" ry="18"/>
<text text-anchor="middle" x="541" y="-1148.4848" font-family="Helvetica,sans-Serif" font-size="10.00" fill="#000000">cryptography</text>
</g>
<!-- cryptography&#45;&gt;requests -->
<g id="edge2" class="edge">
<title>cryptography&#45;&gt;requests</title><style>.edge>path:hover{stroke-width:8}</style>
<path fill="none" stroke="#000000" d="M541,-1124.9877C541,-1094.4344 541,-1042.2058 541,-997.3452 541,-997.3452 541,-997.3452 541,-850.132 541,-806.8018 559.7559,-759.554 573.571,-730.6297"/>
<polygon fill="#000000" stroke="#000000" points="576.7613,-732.0735 578.0325,-721.5552 570.4795,-728.985 576.7613,-732.0735"/>
</g>
<!-- telegram -->
<g id="node29" class="node">
<title>telegram</title><style>.edge>path:hover{stroke-width:8}</style>
<polygon fill="#032895" stroke="#000000" points="132,-940.132 129,-944.132 108,-944.132 105,-940.132 78,-940.132 78,-904.132 132,-904.132 132,-940.132"/>
<text text-anchor="middle" x="105" y="-919.632" font-family="Helvetica,sans-Serif" font-size="10.00" fill="#ffffff">telegram</text>
</g>
<!-- cryptography&#45;&gt;telegram -->
<g id="edge3" class="edge">
<title>cryptography&#45;&gt;telegram</title><style>.edge>path:hover{stroke-width:8}</style>
<path fill="none" stroke="#000000" d="M491.4724,-1124.9882C402.8006,-1078.4451 218.9388,-981.9376 141.0833,-941.0719"/>
<polygon fill="#000000" stroke="#000000" points="142.5242,-937.8754 132.0432,-936.3268 139.2709,-944.0735 142.5242,-937.8754"/>
</g>
<!-- urllib3 -->
<g id="node30" class="node">
<title>urllib3</title><style>.edge>path:hover{stroke-width:8}</style>
<polygon fill="#e90cb2" stroke="#000000" points="623,-868.132 620,-872.132 599,-872.132 596,-868.132 569,-868.132 569,-832.132 623,-832.132 623,-868.132"/>
<text text-anchor="middle" x="596" y="-847.632" font-family="Helvetica,sans-Serif" font-size="10.00" fill="#ffffff">urllib3</text>
</g>
<!-- cryptography&#45;&gt;urllib3 -->
<g id="edge4" class="edge">
<title>cryptography&#45;&gt;urllib3</title><style>.edge>path:hover{stroke-width:8}</style>
<path fill="none" stroke="#000000" d="M548.2406,-1124.9859C550.5705,-1116.1401 553.0509,-1106.1686 555,-1096.9848 571.6998,-1018.2991 585.6905,-924.3026 592.155,-878.3045"/>
<polygon fill="#000000" stroke="#000000" points="595.6493,-878.587 593.5621,-868.1998 588.7162,-877.6214 595.6493,-878.587"/>
</g>
<!-- parameterized -->
<g id="node3" class="node">
<title>parameterized</title><style>.edge>path:hover{stroke-width:8}</style>
<ellipse fill="#80c040" stroke="#000000" cx="1243" cy="-437.4924" rx="45.8316" ry="18"/>
<text text-anchor="middle" x="1243" y="-434.9924" font-family="Helvetica,sans-Serif" font-size="10.00" fill="#000000">parameterized</text>
</g>
<!-- telereddit_tests_test_helpers -->
<g id="node24" class="node">
<title>telereddit_tests_test_helpers</title><style>.edge>path:hover{stroke-width:8}</style>
<ellipse fill="#70439d" stroke="#000000" cx="1243" cy="-243.6396" rx="49.4949" ry="21.4286"/>
<text text-anchor="middle" x="1243" y="-246.6396" font-family="Helvetica,sans-Serif" font-size="10.00" fill="#ffffff">tests.</text>
<text text-anchor="middle" x="1243" y="-235.6396" font-family="Helvetica,sans-Serif" font-size="10.00" fill="#ffffff">test_helpers</text>
</g>
<!-- parameterized&#45;&gt;telereddit_tests_test_helpers -->
<g id="edge5" class="edge">
<title>parameterized&#45;&gt;telereddit_tests_test_helpers</title><style>.edge>path:hover{stroke-width:8}</style>
<path fill="none" stroke="#000000" d="M1243,-411.4953C1243,-376.1718 1243,-313.0774 1243,-275.1176"/>
<polygon fill="#000000" stroke="#000000" points="1246.5001,-274.8919 1243,-264.8919 1239.5001,-274.8919 1246.5001,-274.8919"/>
</g>
<!-- telereddit_tests_test_services -->
<g id="node26" class="node">
<title>telereddit_tests_test_services</title><style>.edge>path:hover{stroke-width:8}</style>
<ellipse fill="#6b4096" stroke="#000000" cx="1082" cy="-243.6396" rx="53.066" ry="21.4286"/>
<text text-anchor="middle" x="1082" y="-246.6396" font-family="Helvetica,sans-Serif" font-size="10.00" fill="#ffffff">tests.</text>
<text text-anchor="middle" x="1082" y="-235.6396" font-family="Helvetica,sans-Serif" font-size="10.00" fill="#ffffff">test_services</text>
</g>
<!-- parameterized&#45;&gt;telereddit_tests_test_services -->
<g id="edge6" class="edge">
<title>parameterized&#45;&gt;telereddit_tests_test_services</title><style>.edge>path:hover{stroke-width:8}</style>
<path fill="none" stroke="#000000" d="M1221.4086,-411.4952C1191.2265,-375.1542 1136.6323,-309.4199 1105.4723,-271.9015"/>
<polygon fill="#000000" stroke="#000000" points="1107.9669,-269.4271 1098.8853,-263.9704 1102.5819,-273.8994 1107.9669,-269.4271"/>
</g>
<!-- parameterized_parameterized -->
<g id="node4" class="node">
<title>parameterized_parameterized</title><style>.edge>path:hover{stroke-width:8}</style>
<ellipse fill="#85ce3b" stroke="#000000" cx="1243" cy="-515.9188" rx="57.0522" ry="21.4286"/>
<text text-anchor="middle" x="1243" y="-518.9188" font-family="Helvetica,sans-Serif" font-size="10.00" fill="#000000">parameterized.</text>
<text text-anchor="middle" x="1243" y="-507.9188" font-family="Helvetica,sans-Serif" font-size="10.00" fill="#000000">parameterized</text>
</g>
<!-- parameterized_parameterized&#45;&gt;parameterized -->
<g id="edge7" class="edge">
<title>parameterized_parameterized&#45;&gt;parameterized</title><style>.edge>path:hover{stroke-width:8}</style>
<path fill="none" stroke="#000000" d="M1243,-494.4885C1243,-485.6574 1243,-475.2998 1243,-465.854"/>
<polygon fill="#000000" stroke="#000000" points="1246.5001,-465.7068 1243,-455.7068 1239.5001,-465.7069 1246.5001,-465.7068"/>
</g>
<!-- parameterized_parameterized&#45;&gt;telereddit_tests_test_helpers -->
<g id="edge8" class="edge">
<title>parameterized_parameterized&#45;&gt;telereddit_tests_test_helpers</title><style>.edge>path:hover{stroke-width:8}</style>
<path fill="none" stroke="#000000" d="M1306.7217,-411.4951C1306.9311,-359.0875 1280.658,-304.8548 1261.7875,-272.6977"/>
<polygon fill="#000000" stroke="#000000" points="1264.7476,-270.8286 1256.5886,-264.0698 1258.752,-274.4415 1264.7476,-270.8286"/>
</g>
<!-- parameterized_parameterized&#45;&gt;telereddit_tests_test_services -->
<g id="edge9" class="edge">
<title>parameterized_parameterized&#45;&gt;telereddit_tests_test_services</title><style>.edge>path:hover{stroke-width:8}</style>
<path fill="none" stroke="#000000" d="M1178.0035,-443.8925C1139.9116,-385.3067 1109.2372,-313.8137 1093.5031,-274.0485"/>
<polygon fill="#000000" stroke="#000000" points="1096.7356,-272.704 1089.8352,-264.6644 1090.2159,-275.2524 1096.7356,-272.704"/>
</g>
<!-- telereddit___main__ -->
<g id="node5" class="node">
<title>telereddit___main__</title><style>.edge>path:hover{stroke-width:8}</style>
<ellipse fill="#7a49ac" stroke="#000000" cx="171" cy="-18" rx="34.9638" ry="18"/>
<text text-anchor="middle" x="171" y="-15.5" font-family="Helvetica,sans-Serif" font-size="10.00" fill="#ffffff">__main__</text>
</g>
<!-- telereddit_config_config -->
<g id="node6" class="node">
<title>telereddit_config_config</title><style>.edge>path:hover{stroke-width:8}</style>
<ellipse fill="#7f06f9" stroke="#000000" cx="152" cy="-703.132" rx="42.2678" ry="18"/>
<text text-anchor="middle" x="152" y="-700.632" font-family="Helvetica,sans-Serif" font-size="10.00" fill="#ffffff">config.config</text>
</g>
<!-- telereddit_helpers -->
<g id="node13" class="node">
<title>telereddit_helpers</title><style>.edge>path:hover{stroke-width:8}</style>
<ellipse fill="#7505e5" stroke="#000000" cx="299" cy="-594.132" rx="28.0137" ry="18"/>
<text text-anchor="middle" x="299" y="-591.632" font-family="Helvetica,sans-Serif" font-size="10.00" fill="#ffffff">helpers</text>
</g>
<!-- telereddit_config_config&#45;&gt;telereddit_helpers -->
<g id="edge20" class="edge">
<title>telereddit_config_config&#45;&gt;telereddit_helpers</title><style>.edge>path:hover{stroke-width:8}</style>
<path fill="none" stroke="#000000" d="M173.3751,-687.2825C199.4984,-667.9121 243.721,-635.1212 272.1237,-614.0608"/>
<polygon fill="#7f06f9" stroke="#000000" points="274.4448,-616.6969 280.3928,-607.9292 270.2755,-611.074 274.4448,-616.6969"/>
</g>
<!-- telereddit_linker -->
<g id="node14" class="node">
<title>telereddit_linker</title><style>.edge>path:hover{stroke-width:8}</style>
<ellipse fill="#6b35a1" stroke="#000000" cx="171" cy="-168.4264" rx="27" ry="18"/>
<text text-anchor="middle" x="171" y="-165.9264" font-family="Helvetica,sans-Serif" font-size="10.00" fill="#ffffff">linker</text>
</g>
<!-- telereddit_config_config&#45;&gt;telereddit_linker -->
<g id="edge21" class="edge">
<title>telereddit_config_config&#45;&gt;telereddit_linker</title><style>.edge>path:hover{stroke-width:8}</style>
<path fill="none" stroke="#000000" d="M131.2327,-687.0862C108.7305,-667.7196 76,-632.8886 76,-594.132 76,-594.132 76,-594.132 76,-359.066 76,-292.9315 122.3651,-226.1589 150.3132,-191.9169"/>
<polygon fill="#7f06f9" stroke="#000000" points="153.258,-193.851 156.9824,-183.9324 147.8856,-189.3636 153.258,-193.851"/>
</g>
<!-- telereddit_reddit -->
<g id="node15" class="node">
<title>telereddit_reddit</title><style>.edge>path:hover{stroke-width:8}</style>
<ellipse fill="#6628a3" stroke="#000000" cx="304" cy="-243.6396" rx="27" ry="18"/>
<text text-anchor="middle" x="304" y="-241.1396" font-family="Helvetica,sans-Serif" font-size="10.00" fill="#ffffff">reddit</text>
</g>
<!-- telereddit_config_config&#45;&gt;telereddit_reddit -->
<g id="edge22" class="edge">
<title>telereddit_config_config&#45;&gt;telereddit_reddit</title><style>.edge>path:hover{stroke-width:8}</style>
<path fill="none" stroke="#000000" d="M152,-685.0028C152,-663.3719 152,-626.1129 152,-594.132 152,-594.132 152,-594.132 152,-359.066 152,-300.6897 223.9873,-267.9949 268.8806,-253.2814"/>
<polygon fill="#7f06f9" stroke="#000000" points="270.063,-256.5787 278.5586,-250.2483 267.9695,-249.8991 270.063,-256.5787"/>
</g>
<!-- telereddit_services_gfycat_service -->
<g id="node17" class="node">
<title>telereddit_services_gfycat_service</title><style>.edge>path:hover{stroke-width:8}</style>
<ellipse fill="#6b35a1" stroke="#000000" cx="1084" cy="-437.4924" rx="56.6372" ry="21.4286"/>
<text text-anchor="middle" x="1084" y="-440.4924" font-family="Helvetica,sans-Serif" font-size="10.00" fill="#ffffff">services.</text>
<text text-anchor="middle" x="1084" y="-429.4924" font-family="Helvetica,sans-Serif" font-size="10.00" fill="#ffffff">gfycat_service</text>
</g>
<!-- telereddit_config_config&#45;&gt;telereddit_services_gfycat_service -->
<g id="edge23" class="edge">
<title>telereddit_config_config&#45;&gt;telereddit_services_gfycat_service</title><style>.edge>path:hover{stroke-width:8}</style>
<path fill="none" stroke="#000000" d="M193.9294,-700.2807C307.04,-692.0897 627.5358,-665.5778 889,-612.132 945.6424,-600.5538 958.0204,-590.5788 1014,-576.132 1029.4505,-572.1447 1037.5098,-579.2042 1049,-568.132 1075.6537,-542.4482 1082.7532,-498.8585 1084.274,-469.1543"/>
<polygon fill="#7f06f9" stroke="#000000" points="1087.7806,-469.0064 1084.6078,-458.8978 1080.7843,-468.7787 1087.7806,-469.0064"/>
</g>
<!-- telereddit_services_imgur_service -->
<g id="node18" class="node">
<title>telereddit_services_imgur_service</title><style>.edge>path:hover{stroke-width:8}</style>
<ellipse fill="#6b35a1" stroke="#000000" cx="598" cy="-437.4924" rx="54.3945" ry="21.4286"/>
<text text-anchor="middle" x="598" y="-440.4924" font-family="Helvetica,sans-Serif" font-size="10.00" fill="#ffffff">services.</text>
<text text-anchor="middle" x="598" y="-429.4924" font-family="Helvetica,sans-Serif" font-size="10.00" fill="#ffffff">imgur_service</text>
</g>
<!-- telereddit_config_config&#45;&gt;telereddit_services_imgur_service -->
<g id="edge24" class="edge">
<title>telereddit_config_config&#45;&gt;telereddit_services_imgur_service</title><style>.edge>path:hover{stroke-width:8}</style>
<path fill="none" stroke="#000000" d="M181.2849,-690.0685C218.1029,-673.3243 282.9158,-642.7811 336,-612.132 420.6297,-563.2697 514.8241,-497.4892 563.9568,-462.2456"/>
<polygon fill="#7f06f9" stroke="#000000" points="566.2341,-464.919 572.3077,-456.2379 562.1461,-459.2366 566.2341,-464.919"/>
</g>
<!-- telereddit_telereddit -->
<g id="node23" class="node">
<title>telereddit_telereddit</title><style>.edge>path:hover{stroke-width:8}</style>
<ellipse fill="#613091" stroke="#000000" cx="171" cy="-93.2132" rx="32.9303" ry="18"/>
<text text-anchor="middle" x="171" y="-90.7132" font-family="Helvetica,sans-Serif" font-size="10.00" fill="#ffffff">telereddit</text>
</g>
<!-- telereddit_config_config&#45;&gt;telereddit_telereddit -->
<g id="edge25" class="edge">
<title>telereddit_config_config&#45;&gt;telereddit_telereddit</title><style>.edge>path:hover{stroke-width:8}</style>
<path fill="none" stroke="#000000" d="M141.8167,-685.6569C130.5606,-664.655 114,-628.0007 114,-594.132 114,-594.132 114,-594.132 114,-243.6396 114,-201.1732 118.7915,-189.6779 135,-150.4264 139.5954,-139.2979 146.2893,-127.9003 152.6618,-118.2365"/>
<polygon fill="#7f06f9" stroke="#000000" points="155.6018,-120.1376 158.3542,-109.9065 149.8223,-116.1881 155.6018,-120.1376"/>
</g>
<!-- telereddit_config_secret -->
<g id="node7" class="node">
<title>telereddit_config_secret</title><style>.edge>path:hover{stroke-width:8}</style>
<ellipse fill="#8522e7" stroke="#000000" cx="770" cy="-1150.9848" rx="42.9448" ry="18"/>
<text text-anchor="middle" x="770" y="-1148.4848" font-family="Helvetica,sans-Serif" font-size="10.00" fill="#ffffff">config.secret</text>
</g>
<!-- telereddit_config_secret_dev -->
<g id="node8" class="node">
<title>telereddit_config_secret_dev</title><style>.edge>path:hover{stroke-width:8}</style>
<ellipse fill="#7a31c4" stroke="#000000" cx="831" cy="-1075.7716" rx="45.9239" ry="21.4286"/>
<text text-anchor="middle" x="831" y="-1078.7716" font-family="Helvetica,sans-Serif" font-size="10.00" fill="#ffffff">config.</text>
<text text-anchor="middle" x="831" y="-1067.7716" font-family="Helvetica,sans-Serif" font-size="10.00" fill="#ffffff">secret_dev</text>
</g>
<!-- telereddit_config_secret&#45;&gt;telereddit_config_secret_dev -->
<g id="edge26" class="edge">
<title>telereddit_config_secret&#45;&gt;telereddit_config_secret_dev</title><style>.edge>path:hover{stroke-width:8}</style>
<path fill="none" stroke="#000000" d="M783.8418,-1133.9178C791.1089,-1124.9575 800.1959,-1113.7532 808.4483,-1103.5779"/>
<polygon fill="#8522e7" stroke="#000000" points="811.2563,-1105.6721 814.837,-1095.7007 805.8196,-1101.2628 811.2563,-1105.6721"/>
</g>
<!-- telereddit_config_secret_generic -->
<g id="node9" class="node">
<title>telereddit_config_secret_generic</title><style>.edge>path:hover{stroke-width:8}</style>
<ellipse fill="#7a49ac" stroke="#000000" cx="710" cy="-1075.7716" rx="56.6372" ry="21.4286"/>
<text text-anchor="middle" x="710" y="-1078.7716" font-family="Helvetica,sans-Serif" font-size="10.00" fill="#ffffff">config.</text>
<text text-anchor="middle" x="710" y="-1067.7716" font-family="Helvetica,sans-Serif" font-size="10.00" fill="#ffffff">secret_generic</text>
</g>
<!-- telereddit_config_secret&#45;&gt;telereddit_config_secret_generic -->
<g id="edge27" class="edge">
<title>telereddit_config_secret&#45;&gt;telereddit_config_secret_generic</title><style>.edge>path:hover{stroke-width:8}</style>
<path fill="none" stroke="#000000" d="M756.084,-1133.5404C749.1603,-1124.8612 740.6139,-1114.1478 732.769,-1104.3138"/>
<polygon fill="#8522e7" stroke="#000000" points="735.3675,-1101.9587 726.3953,-1096.324 729.8954,-1106.324 735.3675,-1101.9587"/>
</g>
<!-- telereddit_config_secret_github -->
<g id="node10" class="node">
<title>telereddit_config_secret_github</title><style>.edge>path:hover{stroke-width:8}</style>
<ellipse fill="#7546a4" stroke="#000000" cx="727" cy="-997.3452" rx="53.066" ry="21.4286"/>
<text text-anchor="middle" x="727" y="-1000.3452" font-family="Helvetica,sans-Serif" font-size="10.00" fill="#ffffff">config.</text>
<text text-anchor="middle" x="727" y="-989.3452" font-family="Helvetica,sans-Serif" font-size="10.00" fill="#ffffff">secret_github</text>
</g>
<!-- telereddit_config_secret&#45;&gt;telereddit_config_secret_github -->
<g id="edge28" class="edge">
<title>telereddit_config_secret&#45;&gt;telereddit_config_secret_github</title><style>.edge>path:hover{stroke-width:8}</style>
<path fill="none" stroke="#000000" d="M728.9744,-1145.3166C699.8548,-1138.9169 662.7349,-1125.397 644,-1096.9848 633.6198,-1081.2429 635.2318,-1071.252 644,-1054.5584 652.0874,-1039.1611 666.403,-1027.0965 680.8927,-1018.0973"/>
<polygon fill="#8522e7" stroke="#000000" points="682.9854,-1020.9299 689.883,-1012.8879 679.4759,-1014.8732 682.9854,-1020.9299"/>
</g>
<!-- telereddit_config_secret_prod -->
<g id="node11" class="node">
<title>telereddit_config_secret_prod</title><style>.edge>path:hover{stroke-width:8}</style>
<ellipse fill="#7546a4" stroke="#000000" cx="868" cy="-997.3452" rx="48.1667" ry="21.4286"/>
<text text-anchor="middle" x="868" y="-1000.3452" font-family="Helvetica,sans-Serif" font-size="10.00" fill="#ffffff">config.</text>
<text text-anchor="middle" x="868" y="-989.3452" font-family="Helvetica,sans-Serif" font-size="10.00" fill="#ffffff">secret_prod</text>
</g>
<!-- telereddit_config_secret&#45;&gt;telereddit_config_secret_prod -->
<g id="edge29" class="edge">
<title>telereddit_config_secret&#45;&gt;telereddit_config_secret_prod</title><style>.edge>path:hover{stroke-width:8}</style>
<path fill="none" stroke="#000000" d="M809.5697,-1143.9236C836.1566,-1136.9001 869.2816,-1123.2087 886,-1096.9848 899.2156,-1076.2553 892.6201,-1048.4384 883.9148,-1027.4642"/>
<polygon fill="#8522e7" stroke="#000000" points="886.9836,-1025.7543 879.6904,-1018.0692 880.5993,-1028.625 886.9836,-1025.7543"/>
</g>
<!-- telereddit_config_secret_dev&#45;&gt;telereddit_config_secret_github -->
<g id="edge30" class="edge">
<title>telereddit_config_secret_dev&#45;&gt;telereddit_config_secret_github</title><style>.edge>path:hover{stroke-width:8}</style>
<path fill="none" stroke="#000000" d="M806.8789,-1057.5819C793.0065,-1047.1207 775.3756,-1033.8253 760.209,-1022.3881"/>
<polygon fill="#7a31c4" stroke="#000000" points="762.1677,-1019.4816 752.0761,-1016.2551 757.953,-1025.0706 762.1677,-1019.4816"/>
</g>
<!-- telereddit_config_secret_dev&#45;&gt;telereddit_config_secret_prod -->
<g id="edge31" class="edge">
<title>telereddit_config_secret_dev&#45;&gt;telereddit_config_secret_prod</title><style>.edge>path:hover{stroke-width:8}</style>
<path fill="none" stroke="#000000" d="M840.9153,-1054.7548C844.8871,-1046.336 849.5373,-1036.4795 853.8524,-1027.3329"/>
<polygon fill="#7a31c4" stroke="#000000" points="857.0842,-1028.6856 858.1856,-1018.1481 850.7533,-1025.6988 857.0842,-1028.6856"/>
</g>
<!-- telereddit_content_type -->
<g id="node12" class="node">
<title>telereddit_content_type</title><style>.edge>path:hover{stroke-width:8}</style>
<ellipse fill="#8510f9" stroke="#000000" cx="837" cy="-594.132" rx="42.9448" ry="18"/>
<text text-anchor="middle" x="837" y="-591.632" font-family="Helvetica,sans-Serif" font-size="10.00" fill="#ffffff">content_type</text>
</g>
<!-- telereddit_content_type&#45;&gt;telereddit_reddit -->
<g id="edge32" class="edge">
<title>telereddit_content_type&#45;&gt;telereddit_reddit</title><style>.edge>path:hover{stroke-width:8}</style>
<path fill="none" stroke="#000000" d="M794.0996,-592.1668C713.1153,-588.2317 543.6021,-578.8384 519,-568.132 392.5389,-513.0987 331.0693,-339.5884 311.338,-271.4745"/>
<polygon fill="#8510f9" stroke="#000000" points="314.6041,-270.1599 308.526,-261.4819 307.8658,-272.0562 314.6041,-270.1599"/>
</g>
<!-- telereddit_services_generic_service -->
<g id="node16" class="node">
<title>telereddit_services_generic_service</title><style>.edge>path:hover{stroke-width:8}</style>
<ellipse fill="#753ab0" stroke="#000000" cx="873" cy="-437.4924" rx="60.2083" ry="21.4286"/>
<text text-anchor="middle" x="873" y="-440.4924" font-family="Helvetica,sans-Serif" font-size="10.00" fill="#ffffff">services.</text>
<text text-anchor="middle" x="873" y="-429.4924" font-family="Helvetica,sans-Serif" font-size="10.00" fill="#ffffff">generic_service</text>
</g>
<!-- telereddit_content_type&#45;&gt;telereddit_services_generic_service -->
<g id="edge33" class="edge">
<title>telereddit_content_type&#45;&gt;telereddit_services_generic_service</title><style>.edge>path:hover{stroke-width:8}</style>
<path fill="none" stroke="#000000" d="M841.1297,-576.1635C847.1625,-549.9141 858.4696,-500.7156 865.8657,-468.5344"/>
<polygon fill="#8510f9" stroke="#000000" points="869.2891,-469.2646 868.118,-458.7347 862.4669,-467.6966 869.2891,-469.2646"/>
</g>
<!-- telereddit_content_type&#45;&gt;telereddit_services_gfycat_service -->
<g id="edge34" class="edge">
<title>telereddit_content_type&#45;&gt;telereddit_services_gfycat_service</title><style>.edge>path:hover{stroke-width:8}</style>
<path fill="none" stroke="#000000" d="M879.1709,-589.892C927.7214,-584.7017 1002.2074,-575.6723 1013,-568.132 1030.94,-555.5983 1056.2624,-502.3571 1071.3178,-467.8312"/>
<polygon fill="#8510f9" stroke="#000000" points="1074.5358,-469.2076 1075.2773,-458.6388 1068.1068,-466.4384 1074.5358,-469.2076"/>
</g>
<!-- telereddit_content_type&#45;&gt;telereddit_services_imgur_service -->
<g id="edge35" class="edge">
<title>telereddit_content_type&#45;&gt;telereddit_services_imgur_service</title><style>.edge>path:hover{stroke-width:8}</style>
<path fill="none" stroke="#000000" d="M794.7373,-590.7349C755.9259,-586.9459 701.8221,-579.7695 684,-568.132 674.0966,-561.6653 637.8368,-503.4862 615.6846,-466.9814"/>
<polygon fill="#8510f9" stroke="#000000" points="618.5511,-464.9578 610.3812,-458.2122 612.5613,-468.5803 618.5511,-464.9578"/>
</g>
<!-- telereddit_services_vreddit_service -->
<g id="node21" class="node">
<title>telereddit_services_vreddit_service</title><style>.edge>path:hover{stroke-width:8}</style>
<ellipse fill="#6b35a1" stroke="#000000" cx="467" cy="-437.4924" rx="58.8803" ry="21.4286"/>
<text text-anchor="middle" x="467" y="-440.4924" font-family="Helvetica,sans-Serif" font-size="10.00" fill="#ffffff">services.</text>
<text text-anchor="middle" x="467" y="-429.4924" font-family="Helvetica,sans-Serif" font-size="10.00" fill="#ffffff">vreddit_service</text>
</g>
<!-- telereddit_content_type&#45;&gt;telereddit_services_vreddit_service -->
<g id="edge36" class="edge">
<title>telereddit_content_type&#45;&gt;telereddit_services_vreddit_service</title><style>.edge>path:hover{stroke-width:8}</style>
<path fill="none" stroke="#000000" d="M794.2707,-591.5532C742.2888,-587.9391 657.8921,-580.3985 629,-568.132 573.507,-544.5719 521.5306,-496.2241 492.0621,-465.4107"/>
<polygon fill="#8510f9" stroke="#000000" points="494.4697,-462.8621 485.0666,-457.9804 489.3731,-467.6605 494.4697,-462.8621"/>
</g>
<!-- telereddit_services_youtube_service -->
<g id="node22" class="node">
<title>telereddit_services_youtube_service</title><style>.edge>path:hover{stroke-width:8}</style>
<ellipse fill="#7038a8" stroke="#000000" cx="733" cy="-437.4924" rx="62.4516" ry="21.4286"/>
<text text-anchor="middle" x="733" y="-440.4924" font-family="Helvetica,sans-Serif" font-size="10.00" fill="#ffffff">services.</text>
<text text-anchor="middle" x="733" y="-429.4924" font-family="Helvetica,sans-Serif" font-size="10.00" fill="#ffffff">youtube_service</text>
</g>
<!-- telereddit_content_type&#45;&gt;telereddit_services_youtube_service -->
<g id="edge37" class="edge">
<title>telereddit_content_type&#45;&gt;telereddit_services_youtube_service</title><style>.edge>path:hover{stroke-width:8}</style>
<path fill="none" stroke="#000000" d="M828.4905,-576.2492C818.4663,-555.8341 800.7843,-521.7687 782,-494.7056 775.079,-484.7343 766.7357,-474.473 758.9112,-465.4426"/>
<polygon fill="#8510f9" stroke="#000000" points="761.46,-463.0412 752.2175,-457.8618 756.2128,-467.6745 761.46,-463.0412"/>
</g>
<!-- telereddit_tests_test_reddit -->
<g id="node25" class="node">
<title>telereddit_tests_test_reddit</title><style>.edge>path:hover{stroke-width:8}</style>
<ellipse fill="#7546a4" stroke="#000000" cx="777" cy="-93.2132" rx="43.6818" ry="21.4286"/>
<text text-anchor="middle" x="777" y="-96.2132" font-family="Helvetica,sans-Serif" font-size="10.00" fill="#ffffff">tests.</text>
<text text-anchor="middle" x="777" y="-85.2132" font-family="Helvetica,sans-Serif" font-size="10.00" fill="#ffffff">test_reddit</text>
</g>
<!-- telereddit_content_type&#45;&gt;telereddit_tests_test_reddit -->
<g id="edge38" class="edge">
<title>telereddit_content_type&#45;&gt;telereddit_tests_test_reddit</title><style>.edge>path:hover{stroke-width:8}</style>
<path fill="none" stroke="#000000" d="M860.9084,-579.0748C896.9414,-554.3106 961,-501.311 961,-437.4924 961,-437.4924 961,-437.4924 961,-243.6396 961,-172.7979 878.2372,-129.3175 823.7246,-108.362"/>
<polygon fill="#8510f9" stroke="#000000" points="824.8279,-105.0382 814.2351,-104.83 822.3861,-111.5985 824.8279,-105.0382"/>
</g>
<!-- telereddit_content_type&#45;&gt;telereddit_tests_test_services -->
<g id="edge39" class="edge">
<title>telereddit_content_type&#45;&gt;telereddit_tests_test_services</title><style>.edge>path:hover{stroke-width:8}</style>
<path fill="none" stroke="#000000" d="M867.3499,-581.3487C873.1268,-579.3183 879.1856,-577.4549 885,-576.132 904.5785,-571.6775 960.1573,-581.6544 975,-568.132 1018.639,-528.375 999,-496.5261 999,-437.4924 999,-437.4924 999,-437.4924 999,-359.066 999,-323.1418 1025.829,-290.7559 1048.9801,-269.4972"/>
<polygon fill="#8510f9" stroke="#000000" points="1051.4687,-271.9689 1056.6463,-262.7253 1046.8344,-266.7226 1051.4687,-271.9689"/>
</g>
<!-- telereddit_helpers&#45;&gt;telereddit_linker -->
<g id="edge40" class="edge">
<title>telereddit_helpers&#45;&gt;telereddit_linker</title><style>.edge>path:hover{stroke-width:8}</style>
<path fill="none" stroke="#000000" d="M271.7435,-588.9885C249.9309,-584.3137 221.7508,-576.831 214,-568.132 174.7283,-524.0559 190,-496.5261 190,-437.4924 190,-437.4924 190,-437.4924 190,-301.3528 190,-264.7201 182.841,-222.9749 177.3119,-196.1963"/>
<polygon fill="#7505e5" stroke="#000000" points="180.7253,-195.4207 175.2167,-186.3705 173.8792,-196.8805 180.7253,-195.4207"/>
</g>
<!-- telereddit_helpers&#45;&gt;telereddit_reddit -->
<g id="edge41" class="edge">
<title>telereddit_helpers&#45;&gt;telereddit_reddit</title><style>.edge>path:hover{stroke-width:8}</style>
<path fill="none" stroke="#000000" d="M292.793,-576.5335C283.2337,-547.8133 266,-488.9064 266,-437.4924 266,-437.4924 266,-437.4924 266,-359.066 266,-327.1299 279.2865,-292.6037 290.1467,-269.7167"/>
<polygon fill="#7505e5" stroke="#000000" points="293.3277,-271.1795 294.6067,-260.6621 287.0482,-268.0863 293.3277,-271.1795"/>
</g>
<!-- telereddit_helpers&#45;&gt;telereddit_services_vreddit_service -->
<g id="edge42" class="edge">
<title>telereddit_helpers&#45;&gt;telereddit_services_vreddit_service</title><style>.edge>path:hover{stroke-width:8}</style>
<path fill="none" stroke="#000000" d="M314.9978,-579.2895C318.9245,-575.6429 323.1155,-571.7479 327,-568.132 365.4789,-532.3138 409.8391,-490.8989 438.1326,-464.4683"/>
<polygon fill="#7505e5" stroke="#000000" points="440.7506,-466.8123 445.6686,-457.428 435.9719,-461.6972 440.7506,-466.8123"/>
</g>
<!-- telereddit_helpers&#45;&gt;telereddit_services_youtube_service -->
<g id="edge43" class="edge">
<title>telereddit_helpers&#45;&gt;telereddit_services_youtube_service</title><style>.edge>path:hover{stroke-width:8}</style>
<path fill="none" stroke="#000000" d="M324.6659,-586.0733C340.4004,-581.0629 360.9253,-574.4016 379,-568.132 487.3959,-530.5329 613.1614,-483.2356 681.7978,-457.1073"/>
<polygon fill="#7505e5" stroke="#000000" points="683.403,-460.2412 691.5011,-453.4096 680.9103,-453.7 683.403,-460.2412"/>
</g>
<!-- telereddit_helpers&#45;&gt;telereddit_telereddit -->
<g id="edge44" class="edge">
<title>telereddit_helpers&#45;&gt;telereddit_telereddit</title><style>.edge>path:hover{stroke-width:8}</style>
<path fill="none" stroke="#000000" d="M279.59,-580.8054C275.2941,-577.1129 271.1031,-572.817 268,-568.132 234.4685,-517.507 228,-498.2152 228,-437.4924 228,-437.4924 228,-437.4924 228,-243.6396 228,-201.1732 223.2085,-189.6779 207,-150.4264 202.4046,-139.2979 195.7107,-127.9003 189.3382,-118.2365"/>
<polygon fill="#7505e5" stroke="#000000" points="192.1777,-116.1881 183.6458,-109.9065 186.3982,-120.1376 192.1777,-116.1881"/>
</g>
<!-- telereddit_helpers&#45;&gt;telereddit_tests_test_helpers -->
<g id="edge45" class="edge">
<title>telereddit_helpers&#45;&gt;telereddit_tests_test_helpers</title><style>.edge>path:hover{stroke-width:8}</style>
<path fill="none" stroke="#000000" d="M301.6518,-575.9975C305.2131,-555.3515 312.8029,-521.0747 327,-494.7056 350.1842,-451.6442 357.754,-437.7709 399,-411.4924 683.6085,-230.1637 811.9932,-325.2978 1144,-264.8528 1158.7534,-262.1668 1174.6682,-258.9152 1189.3319,-255.7732"/>
<polygon fill="#7505e5" stroke="#000000" points="1190.2219,-259.1617 1199.2542,-253.6238 1188.7399,-252.3203 1190.2219,-259.1617"/>
</g>
<!-- telereddit_linker&#45;&gt;telereddit_telereddit -->
<g id="edge46" class="edge">
<title>telereddit_linker&#45;&gt;telereddit_telereddit</title><style>.edge>path:hover{stroke-width:8}</style>
<path fill="none" stroke="#000000" d="M171,-150.2194C171,-141.5351 171,-130.9502 171,-121.2695"/>
<polygon fill="#6b35a1" stroke="#000000" points="174.5001,-121.2525 171,-111.2526 167.5001,-121.2526 174.5001,-121.2525"/>
</g>
<!-- telereddit_reddit&#45;&gt;telereddit_linker -->
<g id="edge47" class="edge">
<title>telereddit_reddit&#45;&gt;telereddit_linker</title><style>.edge>path:hover{stroke-width:8}</style>
<path fill="none" stroke="#000000" d="M283.2188,-231.8875C260.9654,-219.303 225.4733,-199.2318 200.3701,-185.0356"/>
<polygon fill="#6628a3" stroke="#000000" points="202.0628,-181.9719 191.6353,-180.0959 198.617,-188.0651 202.0628,-181.9719"/>
</g>
<!-- telereddit_reddit&#45;&gt;telereddit_tests_test_reddit -->
<g id="edge48" class="edge">
<title>telereddit_reddit&#45;&gt;telereddit_tests_test_reddit</title><style>.edge>path:hover{stroke-width:8}</style>
<path fill="none" stroke="#000000" d="M328.4345,-235.8688C403.5121,-211.9922 631.7137,-139.418 730.5458,-107.9869"/>
<polygon fill="#6628a3" stroke="#000000" points="731.7904,-111.2639 740.2593,-104.8977 729.6688,-104.5931 731.7904,-111.2639"/>
</g>
<!-- telereddit_services_services_wrapper -->
<g id="node20" class="node">
<title>telereddit_services_services_wrapper</title><style>.edge>path:hover{stroke-width:8}</style>
<ellipse fill="#6628a3" stroke="#000000" cx="733" cy="-359.066" rx="65.5227" ry="21.4286"/>
<text text-anchor="middle" x="733" y="-362.066" font-family="Helvetica,sans-Serif" font-size="10.00" fill="#ffffff">services.</text>
<text text-anchor="middle" x="733" y="-351.066" font-family="Helvetica,sans-Serif" font-size="10.00" fill="#ffffff">services_wrapper</text>
</g>
<!-- telereddit_services_generic_service&#45;&gt;telereddit_services_services_wrapper -->
<g id="edge49" class="edge">
<title>telereddit_services_generic_service&#45;&gt;telereddit_services_services_wrapper</title><style>.edge>path:hover{stroke-width:8}</style>
<path fill="none" stroke="#000000" d="M840.8812,-419.4998C821.2441,-408.4993 795.9153,-394.3105 774.7356,-382.4458"/>
<polygon fill="#753ab0" stroke="#000000" points="776.3762,-379.3532 765.9413,-377.5193 772.9551,-385.4602 776.3762,-379.3532"/>
</g>
<!-- telereddit_services_gfycat_service&#45;&gt;telereddit_services_services_wrapper -->
<g id="edge50" class="edge">
<title>telereddit_services_gfycat_service&#45;&gt;telereddit_services_services_wrapper</title><style>.edge>path:hover{stroke-width:8}</style>
<path fill="none" stroke="#000000" d="M1035.195,-426.5876C973.0742,-412.7075 865.6063,-388.6952 796.9798,-373.3615"/>
<polygon fill="#6b35a1" stroke="#000000" points="797.6691,-369.9292 787.1465,-371.1643 796.1426,-376.7608 797.6691,-369.9292"/>
</g>
<!-- telereddit_services_imgur_service&#45;&gt;telereddit_services_services_wrapper -->
<g id="edge51" class="edge">
<title>telereddit_services_imgur_service&#45;&gt;telereddit_services_services_wrapper</title><style>.edge>path:hover{stroke-width:8}</style>
<path fill="none" stroke="#000000" d="M628.6336,-419.6963C647.337,-408.8307 671.4879,-394.8006 691.8462,-382.9737"/>
<polygon fill="#6b35a1" stroke="#000000" points="693.7165,-385.9351 700.6051,-377.8854 690.2002,-379.8823 693.7165,-385.9351"/>
</g>
<!-- telereddit_services_service -->
<g id="node19" class="node">
<title>telereddit_services_service</title><style>.edge>path:hover{stroke-width:8}</style>
<ellipse fill="#7f0cf3" stroke="#000000" cx="733" cy="-515.9188" rx="39.6962" ry="21.4286"/>
<text text-anchor="middle" x="733" y="-518.9188" font-family="Helvetica,sans-Serif" font-size="10.00" fill="#ffffff">services.</text>
<text text-anchor="middle" x="733" y="-507.9188" font-family="Helvetica,sans-Serif" font-size="10.00" fill="#ffffff">service</text>
</g>
<!-- telereddit_services_service&#45;&gt;telereddit_services_generic_service -->
<g id="edge52" class="edge">
<title>telereddit_services_service&#45;&gt;telereddit_services_generic_service</title><style>.edge>path:hover{stroke-width:8}</style>
<path fill="none" stroke="#000000" d="M760.6595,-500.4243C780.9905,-489.0351 808.9546,-473.3699 831.8961,-460.5184"/>
<polygon fill="#7f0cf3" stroke="#000000" points="833.7232,-463.5067 840.737,-455.5658 830.3021,-457.3996 833.7232,-463.5067"/>
</g>
<!-- telereddit_services_service&#45;&gt;telereddit_services_gfycat_service -->
<g id="edge53" class="edge">
<title>telereddit_services_service&#45;&gt;telereddit_services_gfycat_service</title><style>.edge>path:hover{stroke-width:8}</style>
<path fill="none" stroke="#000000" d="M769.5698,-507.7478C830.2765,-494.1837 952.3733,-466.9027 1025.2688,-450.6152"/>
<polygon fill="#7f0cf3" stroke="#000000" points="1026.2205,-453.9889 1035.2166,-448.3924 1024.694,-447.1574 1026.2205,-453.9889"/>
</g>
<!-- telereddit_services_service&#45;&gt;telereddit_services_imgur_service -->
<g id="edge54" class="edge">
<title>telereddit_services_service&#45;&gt;telereddit_services_imgur_service</title><style>.edge>path:hover{stroke-width:8}</style>
<path fill="none" stroke="#000000" d="M706.0052,-500.2366C686.3929,-488.8431 659.5412,-473.2439 637.5182,-460.45"/>
<polygon fill="#7f0cf3" stroke="#000000" points="639.1269,-457.3368 628.722,-455.3399 635.6106,-463.3896 639.1269,-457.3368"/>
</g>
<!-- telereddit_services_service&#45;&gt;telereddit_services_vreddit_service -->
<g id="edge55" class="edge">
<title>telereddit_services_service&#45;&gt;telereddit_services_vreddit_service</title><style>.edge>path:hover{stroke-width:8}</style>
<path fill="none" stroke="#000000" d="M697.8832,-506.0135C658.2508,-494.7782 591.8854,-475.7952 535,-458.7056 530.4994,-457.3535 525.8366,-455.9355 521.1589,-454.5008"/>
<polygon fill="#7f0cf3" stroke="#000000" points="522.1711,-451.1503 511.5838,-451.5483 520.1085,-457.8395 522.1711,-451.1503"/>
</g>
<!-- telereddit_services_service&#45;&gt;telereddit_services_youtube_service -->
<g id="edge56" class="edge">
<title>telereddit_services_service&#45;&gt;telereddit_services_youtube_service</title><style>.edge>path:hover{stroke-width:8}</style>
<path fill="none" stroke="#000000" d="M733,-494.4885C733,-486.6212 733,-477.5423 733,-468.9759"/>
<polygon fill="#7f0cf3" stroke="#000000" points="736.5001,-468.8968 733,-458.8969 729.5001,-468.8969 736.5001,-468.8968"/>
</g>
<!-- telereddit_services_services_wrapper&#45;&gt;telereddit_reddit -->
<g id="edge57" class="edge">
<title>telereddit_services_services_wrapper&#45;&gt;telereddit_reddit</title><style>.edge>path:hover{stroke-width:8}</style>
<path fill="none" stroke="#000000" d="M682.1034,-345.3718C593.9205,-321.6454 414.9123,-273.4816 339.1416,-253.0948"/>
<polygon fill="#6628a3" stroke="#000000" points="339.7213,-249.6263 329.1553,-250.4079 337.9025,-256.386 339.7213,-249.6263"/>
</g>
<!-- telereddit_services_services_wrapper&#45;&gt;telereddit_tests_test_services -->
<g id="edge58" class="edge">
<title>telereddit_services_services_wrapper&#45;&gt;telereddit_tests_test_services</title><style>.edge>path:hover{stroke-width:8}</style>
<path fill="none" stroke="#000000" d="M778.9845,-343.8573C844.3476,-322.2395 963.6927,-282.7679 1031.4622,-260.3542"/>
<polygon fill="#6628a3" stroke="#000000" points="1032.679,-263.6383 1041.0742,-257.1752 1030.481,-256.9923 1032.679,-263.6383"/>
</g>
<!-- telereddit_services_vreddit_service&#45;&gt;telereddit_services_services_wrapper -->
<g id="edge59" class="edge">
<title>telereddit_services_vreddit_service&#45;&gt;telereddit_services_services_wrapper</title><style>.edge>path:hover{stroke-width:8}</style>
<path fill="none" stroke="#000000" d="M506.3005,-421.6521C515.6398,-418.1147 525.6175,-414.5188 535,-411.4924 579.425,-397.1628 630.3513,-383.7441 669.4307,-374.0699"/>
<polygon fill="#6b35a1" stroke="#000000" points="670.7347,-377.3537 679.6104,-371.5681 669.064,-370.5559 670.7347,-377.3537"/>
</g>
<!-- telereddit_services_youtube_service&#45;&gt;telereddit_services_services_wrapper -->
<g id="edge60" class="edge">
<title>telereddit_services_youtube_service&#45;&gt;telereddit_services_services_wrapper</title><style>.edge>path:hover{stroke-width:8}</style>
<path fill="none" stroke="#000000" d="M733,-416.0621C733,-408.1948 733,-399.1159 733,-390.5495"/>
<polygon fill="#7038a8" stroke="#000000" points="736.5001,-390.4704 733,-380.4705 729.5001,-390.4705 736.5001,-390.4704"/>
</g>
<!-- telereddit_telereddit&#45;&gt;telereddit___main__ -->
<g id="edge61" class="edge">
<title>telereddit_telereddit&#45;&gt;telereddit___main__</title><style>.edge>path:hover{stroke-width:8}</style>
<path fill="none" stroke="#000000" d="M171,-75.0062C171,-66.3219 171,-55.737 171,-46.0563"/>
<polygon fill="#613091" stroke="#000000" points="174.5001,-46.0393 171,-36.0393 167.5001,-46.0394 174.5001,-46.0393"/>
</g>
<!-- requests&#45;&gt;telereddit_helpers -->
<g id="edge10" class="edge">
<title>requests&#45;&gt;telereddit_helpers</title><style>.edge>path:hover{stroke-width:8}</style>
<path fill="none" stroke="#000000" d="M560.854,-693.3209C531.3138,-682.607 482.7181,-664.8724 441,-649.132 403.8274,-635.1067 361.3633,-618.5945 332.6304,-607.3485"/>
<polygon fill="#039528" stroke="#000000" points="333.6588,-603.9924 323.0711,-603.603 331.105,-610.51 333.6588,-603.9924"/>
</g>
<!-- requests&#45;&gt;telereddit_reddit -->
<g id="edge11" class="edge">
<title>requests&#45;&gt;telereddit_reddit</title><style>.edge>path:hover{stroke-width:8}</style>
<path fill="none" stroke="#000000" d="M564.4336,-684.9363C509.052,-640.3869 372.0516,-519.2772 329,-380.2792 317.662,-343.6731 310.7671,-299.8642 307.1679,-271.8989"/>
<polygon fill="#039528" stroke="#000000" points="310.6023,-271.1509 305.9061,-261.6538 303.6548,-272.0066 310.6023,-271.1509"/>
</g>
<!-- requests&#45;&gt;telereddit_services_gfycat_service -->
<g id="edge12" class="edge">
<title>requests&#45;&gt;telereddit_services_gfycat_service</title><style>.edge>path:hover{stroke-width:8}</style>
<path fill="none" stroke="#000000" d="M615.0294,-700.3922C683.7011,-692.7926 869.661,-668.1997 1014,-612.132 1050.0239,-598.1388 1069.7935,-601.6677 1089,-568.132 1106.4039,-537.7438 1101.0133,-496.5319 1093.9825,-468.5811"/>
<polygon fill="#039528" stroke="#000000" points="1097.2596,-467.2949 1091.2517,-458.5682 1090.5063,-469.1368 1097.2596,-467.2949"/>
</g>
<!-- requests&#45;&gt;telereddit_services_imgur_service -->
<g id="edge13" class="edge">
<title>requests&#45;&gt;telereddit_services_imgur_service</title><style>.edge>path:hover{stroke-width:8}</style>
<path fill="none" stroke="#000000" d="M588.6873,-684.8735C590.3704,-640.1646 594.714,-524.7813 596.8201,-468.834"/>
<polygon fill="#039528" stroke="#000000" points="600.3194,-468.9169 597.1982,-458.7923 593.3244,-468.6535 600.3194,-468.9169"/>
</g>
<!-- requests&#45;&gt;telereddit_services_service -->
<g id="edge14" class="edge">
<title>requests&#45;&gt;telereddit_services_service</title><style>.edge>path:hover{stroke-width:8}</style>
<path fill="none" stroke="#000000" d="M602.8142,-684.7064C611.1446,-674.3008 621.7065,-661.0334 631,-649.132 659.1474,-613.0863 691.1359,-571.1468 711.6663,-544.1016"/>
<polygon fill="#039528" stroke="#000000" points="714.6551,-545.9529 717.9101,-535.8704 709.078,-541.7224 714.6551,-545.9529"/>
</g>
<!-- requests&#45;&gt;telereddit_services_vreddit_service -->
<g id="edge15" class="edge">
<title>requests&#45;&gt;telereddit_services_vreddit_service</title><style>.edge>path:hover{stroke-width:8}</style>
<path fill="none" stroke="#000000" d="M578.0746,-685.0553C564.1478,-659.4019 538.3461,-610.8034 519,-568.132 503.716,-534.4205 488.2948,-494.8127 478.2609,-468.1201"/>
<polygon fill="#039528" stroke="#000000" points="481.4684,-466.7046 474.6906,-458.5614 474.9109,-469.154 481.4684,-466.7046"/>
</g>
<!-- sentrysdk -->
<g id="node28" class="node">
<title>sentrysdk</title><style>.edge>path:hover{stroke-width:8}</style>
<polygon fill="#04b3b3" stroke="#000000" points="1341.5,-721.132 1338.5,-725.132 1317.5,-725.132 1314.5,-721.132 1282.5,-721.132 1282.5,-685.132 1341.5,-685.132 1341.5,-721.132"/>
<text text-anchor="middle" x="1312" y="-700.632" font-family="Helvetica,sans-Serif" font-size="10.00" fill="#ffffff">sentrysdk</text>
</g>
<!-- sentrysdk&#45;&gt;telereddit_telereddit -->
<g id="edge16" class="edge">
<title>sentrysdk&#45;&gt;telereddit_telereddit</title><style>.edge>path:hover{stroke-width:8}</style>
<path fill="none" stroke="#000000" d="M1323.9779,-685.0878C1336.7012,-664.1388 1355,-628.1047 1355,-594.132 1355,-594.132 1355,-594.132 1355,-359.066 1355,-293.7669 1352.8194,-262.1596 1301,-222.4264 1213.0558,-154.9939 410.3729,-106.4626 214.1356,-95.5387"/>
<polygon fill="#04b3b3" stroke="#000000" points="214.1062,-92.0318 203.9281,-94.974 213.7195,-99.0211 214.1062,-92.0318"/>
</g>
<!-- telegram&#45;&gt;telereddit_config_config -->
<g id="edge17" class="edge">
<title>telegram&#45;&gt;telereddit_config_config</title><style>.edge>path:hover{stroke-width:8}</style>
<path fill="none" stroke="#000000" d="M108.9264,-903.8369C117.1545,-865.4971 136.2501,-776.5199 146.0153,-731.0182"/>
<polygon fill="#032895" stroke="#000000" points="149.4415,-731.7329 148.1179,-721.2211 142.5974,-730.264 149.4415,-731.7329"/>
</g>
<!-- telegram&#45;&gt;telereddit_linker -->
<g id="edge18" class="edge">
<title>telegram&#45;&gt;telereddit_linker</title><style>.edge>path:hover{stroke-width:8}</style>
<path fill="none" stroke="#000000" d="M87.3517,-903.99C78.5954,-894.094 68.5238,-881.2166 62,-868.132 42.9528,-829.9296 38,-817.8195 38,-775.132 38,-775.132 38,-775.132 38,-301.3528 38,-244.3831 99.8032,-203.3145 139.1498,-182.9411"/>
<polygon fill="#032895" stroke="#000000" points="140.7609,-186.0486 148.1365,-178.4426 137.6275,-179.7891 140.7609,-186.0486"/>
</g>
<!-- telegram&#45;&gt;telereddit_telereddit -->
<g id="edge19" class="edge">
<title>telegram&#45;&gt;telereddit_telereddit</title><style>.edge>path:hover{stroke-width:8}</style>
<path fill="none" stroke="#000000" d="M97.6166,-904.1233C73.7164,-845.1988 0,-658.258 0,-594.132 0,-594.132 0,-594.132 0,-243.6396 0,-172.8773 83.5711,-127.5363 133.8667,-106.6563"/>
<polygon fill="#032895" stroke="#000000" points="135.1741,-109.9031 143.1453,-102.9238 132.5616,-103.4088 135.1741,-109.9031"/>
</g>
<!-- urllib3&#45;&gt;requests -->
<g id="edge62" class="edge">
<title>urllib3&#45;&gt;requests</title><style>.edge>path:hover{stroke-width:8}</style>
<path fill="none" stroke="#000000" d="M595.019,-832.1069C593.6516,-806.9795 591.1586,-761.1714 589.5414,-731.4561"/>
<polygon fill="#e90cb2" stroke="#000000" points="593.0273,-731.0996 588.989,-721.3046 586.0377,-731.48 593.0273,-731.0996"/>
</g>
<!-- urllib3&#45;&gt;sentrysdk -->
<g id="edge63" class="edge">
<title>urllib3&#45;&gt;sentrysdk</title><style>.edge>path:hover{stroke-width:8}</style>
<path fill="none" stroke="#000000" d="M623.1937,-844.549C732.8731,-822.031 1143.0174,-737.8254 1272.5413,-711.2332"/>
<polygon fill="#e90cb2" stroke="#000000" points="1273.3436,-714.6416 1282.4353,-709.2019 1271.9357,-707.7846 1273.3436,-714.6416"/>
</g>
</g>
</svg>
