<?xml version="1.0" encoding="UTF-8" standalone="no"?>
<!DOCTYPE svg PUBLIC "-//W3C//DTD SVG 1.1//EN"
 "http://www.w3.org/Graphics/SVG/1.1/DTD/svg11.dtd">
<!-- Generated by graphviz version 2.40.1 (20161225.0304)
 -->
<!-- Title: G Pages: 1 -->
<svg width="1211pt" height="617pt"
 viewBox="0.00 0.00 1210.81 617.13" xmlns="http://www.w3.org/2000/svg" xmlns:xlink="http://www.w3.org/1999/xlink">
<g id="graph0" class="graph" transform="scale(1 1) rotate(0) translate(4 613.132)">
<title>G</title><style>.edge>path:hover{stroke-width:8}</style>
<polygon fill="#ffffff" stroke="transparent" points="-4,4 -4,-613.132 1206.8144,-613.132 1206.8144,4 -4,4"/>
<!-- telereddit___main__ -->
<g id="node1" class="node">
<title>telereddit___main__</title><style>.edge>path:hover{stroke-width:8}</style>
<ellipse fill="#ac4949" stroke="#000000" cx="34.7311" cy="-18" rx="34.9638" ry="18"/>
<text text-anchor="middle" x="34.7311" y="-15.5" font-family="Helvetica,sans-Serif" font-size="10.00" fill="#ffffff">__main__</text>
</g>
<!-- telereddit_config_secret -->
<g id="node2" class="node">
<title>telereddit_config_secret</title><style>.edge>path:hover{stroke-width:8}</style>
<ellipse fill="#e72222" stroke="#000000" cx="1028.7311" cy="-591.132" rx="42.9448" ry="18"/>
<text text-anchor="middle" x="1028.7311" y="-588.632" font-family="Helvetica,sans-Serif" font-size="10.00" fill="#ffffff">config.secret</text>
</g>
<!-- telereddit_config_secret_dev -->
<g id="node3" class="node">
<title>telereddit_config_secret_dev</title><style>.edge>path:hover{stroke-width:8}</style>
<ellipse fill="#c43131" stroke="#000000" cx="1089.7311" cy="-515.9188" rx="45.9239" ry="21.4286"/>
<text text-anchor="middle" x="1089.7311" y="-518.9188" font-family="Helvetica,sans-Serif" font-size="10.00" fill="#ffffff">config.</text>
<text text-anchor="middle" x="1089.7311" y="-507.9188" font-family="Helvetica,sans-Serif" font-size="10.00" fill="#ffffff">secret_dev</text>
</g>
<!-- telereddit_config_secret&#45;&gt;telereddit_config_secret_dev -->
<g id="edge1" class="edge">
<title>telereddit_config_secret&#45;&gt;telereddit_config_secret_dev</title><style>.edge>path:hover{stroke-width:8}</style>
<path fill="none" stroke="#000000" d="M1042.573,-574.065C1049.84,-565.1047 1058.927,-553.9004 1067.1794,-543.7251"/>
<polygon fill="#e72222" stroke="#000000" points="1069.9874,-545.8193 1073.5681,-535.8479 1064.5507,-541.4099 1069.9874,-545.8193"/>
</g>
<!-- telereddit_config_secret_generic -->
<g id="node4" class="node">
<title>telereddit_config_secret_generic</title><style>.edge>path:hover{stroke-width:8}</style>
<ellipse fill="#ac4949" stroke="#000000" cx="968.7311" cy="-515.9188" rx="56.6372" ry="21.4286"/>
<text text-anchor="middle" x="968.7311" y="-518.9188" font-family="Helvetica,sans-Serif" font-size="10.00" fill="#ffffff">config.</text>
<text text-anchor="middle" x="968.7311" y="-507.9188" font-family="Helvetica,sans-Serif" font-size="10.00" fill="#ffffff">secret_generic</text>
</g>
<!-- telereddit_config_secret&#45;&gt;telereddit_config_secret_generic -->
<g id="edge2" class="edge">
<title>telereddit_config_secret&#45;&gt;telereddit_config_secret_generic</title><style>.edge>path:hover{stroke-width:8}</style>
<path fill="none" stroke="#000000" d="M1014.8151,-573.6876C1007.8914,-565.0084 999.345,-554.295 991.5001,-544.461"/>
<polygon fill="#e72222" stroke="#000000" points="994.0986,-542.1059 985.1264,-536.4712 988.6265,-546.4712 994.0986,-542.1059"/>
</g>
<!-- telereddit_config_secret_github -->
<g id="node5" class="node">
<title>telereddit_config_secret_github</title><style>.edge>path:hover{stroke-width:8}</style>
<ellipse fill="#a44646" stroke="#000000" cx="1017.7311" cy="-437.4924" rx="53.066" ry="21.4286"/>
<text text-anchor="middle" x="1017.7311" y="-440.4924" font-family="Helvetica,sans-Serif" font-size="10.00" fill="#ffffff">config.</text>
<text text-anchor="middle" x="1017.7311" y="-429.4924" font-family="Helvetica,sans-Serif" font-size="10.00" fill="#ffffff">secret_github</text>
</g>
<!-- telereddit_config_secret&#45;&gt;telereddit_config_secret_github -->
<g id="edge3" class="edge">
<title>telereddit_config_secret&#45;&gt;telereddit_config_secret_github</title><style>.edge>path:hover{stroke-width:8}</style>
<path fill="none" stroke="#000000" d="M987.7055,-585.4638C958.5859,-579.0641 921.466,-565.5442 902.7311,-537.132 892.351,-521.3901 892.8018,-510.7357 902.7311,-494.7056 915.8828,-473.4732 939.5384,-459.8682 961.9898,-451.2806"/>
<polygon fill="#e72222" stroke="#000000" points="963.2531,-454.5462 971.504,-447.8998 960.9092,-447.9503 963.2531,-454.5462"/>
</g>
<!-- telereddit_config_secret_prod -->
<g id="node6" class="node">
<title>telereddit_config_secret_prod</title><style>.edge>path:hover{stroke-width:8}</style>
<ellipse fill="#a44646" stroke="#000000" cx="1154.7311" cy="-437.4924" rx="48.1667" ry="21.4286"/>
<text text-anchor="middle" x="1154.7311" y="-440.4924" font-family="Helvetica,sans-Serif" font-size="10.00" fill="#ffffff">config.</text>
<text text-anchor="middle" x="1154.7311" y="-429.4924" font-family="Helvetica,sans-Serif" font-size="10.00" fill="#ffffff">secret_prod</text>
</g>
<!-- telereddit_config_secret&#45;&gt;telereddit_config_secret_prod -->
<g id="edge4" class="edge">
<title>telereddit_config_secret&#45;&gt;telereddit_config_secret_prod</title><style>.edge>path:hover{stroke-width:8}</style>
<path fill="none" stroke="#000000" d="M1067.7872,-583.4576C1093.9541,-576.1616 1126.787,-562.3967 1144.7311,-537.132 1158.5966,-517.6099 1160.4371,-490.2529 1159.1783,-469.1422"/>
<polygon fill="#e72222" stroke="#000000" points="1162.6544,-468.7117 1158.3179,-459.045 1155.6797,-469.3061 1162.6544,-468.7117"/>
</g>
<!-- telereddit_config_secret_dev&#45;&gt;telereddit_config_secret_github -->
<g id="edge5" class="edge">
<title>telereddit_config_secret_dev&#45;&gt;telereddit_config_secret_github</title><style>.edge>path:hover{stroke-width:8}</style>
<path fill="none" stroke="#000000" d="M1071.5625,-496.1285C1062.9313,-486.7269 1052.4705,-475.3325 1043.0743,-465.0976"/>
<polygon fill="#c43131" stroke="#000000" points="1045.4855,-462.5486 1036.1444,-457.5492 1040.329,-467.2826 1045.4855,-462.5486"/>
</g>
<!-- telereddit_config_secret_dev&#45;&gt;telereddit_config_secret_prod -->
<g id="edge6" class="edge">
<title>telereddit_config_secret_dev&#45;&gt;telereddit_config_secret_prod</title><style>.edge>path:hover{stroke-width:8}</style>
<path fill="none" stroke="#000000" d="M1106.4702,-495.7221C1114.1279,-486.4827 1123.3258,-475.3848 1131.6286,-465.367"/>
<polygon fill="#c43131" stroke="#000000" points="1134.3622,-467.5535 1138.0487,-457.6207 1128.9727,-463.0867 1134.3622,-467.5535"/>
</g>
<!-- telereddit_content_type -->
<g id="node7" class="node">
<title>telereddit_content_type</title><style>.edge>path:hover{stroke-width:8}</style>
<ellipse fill="#f91010" stroke="#000000" cx="444.7311" cy="-591.132" rx="42.9448" ry="18"/>
<text text-anchor="middle" x="444.7311" y="-588.632" font-family="Helvetica,sans-Serif" font-size="10.00" fill="#ffffff">content_type</text>
</g>
<!-- telereddit_reddit -->
<g id="node10" class="node">
<title>telereddit_reddit</title><style>.edge>path:hover{stroke-width:8}</style>
<ellipse fill="#b42d2d" stroke="#000000" cx="349.7311" cy="-243.6396" rx="27" ry="18"/>
<text text-anchor="middle" x="349.7311" y="-241.1396" font-family="Helvetica,sans-Serif" font-size="10.00" fill="#ffffff">reddit</text>
</g>
<!-- telereddit_content_type&#45;&gt;telereddit_reddit -->
<g id="edge7" class="edge">
<title>telereddit_content_type&#45;&gt;telereddit_reddit</title><style>.edge>path:hover{stroke-width:8}</style>
<path fill="none" stroke="#000000" d="M405.159,-583.8608C332.5172,-568.2787 187.7666,-525.685 215.7311,-437.4924"/>
</g>
<!-- telereddit_services_generic_service -->
<g id="node11" class="node">
<title>telereddit_services_generic_service</title><style>.edge>path:hover{stroke-width:8}</style>
<ellipse fill="#b03a3a" stroke="#000000" cx="581.7311" cy="-437.4924" rx="60.2083" ry="21.4286"/>
<text text-anchor="middle" x="581.7311" y="-440.4924" font-family="Helvetica,sans-Serif" font-size="10.00" fill="#ffffff">services.</text>
<text text-anchor="middle" x="581.7311" y="-429.4924" font-family="Helvetica,sans-Serif" font-size="10.00" fill="#ffffff">generic_service</text>
</g>
<!-- telereddit_content_type&#45;&gt;telereddit_services_generic_service -->
<g id="edge8" class="edge">
<title>telereddit_content_type&#45;&gt;telereddit_services_generic_service</title><style>.edge>path:hover{stroke-width:8}</style>
<path fill="none" stroke="#000000" d="M487.0555,-587.2804C587.9405,-577.5568 835.0075,-550.3221 845.7311,-515.9188"/>
<path fill="none" stroke="#000000" d="M845.7311,-515.9188C872.6088,-429.6907 737.2323,-484.6911 650.7311,-458.7056 646.1701,-457.3355 641.4428,-455.9047 636.6991,-454.4614"/>
<polygon fill="#f91010" stroke="#000000" points="637.5732,-451.0689 626.987,-451.497 635.5296,-457.7639 637.5732,-451.0689"/>
</g>
<!-- telereddit_services_gfycat_service -->
<g id="node12" class="node">
<title>telereddit_services_gfycat_service</title><style>.edge>path:hover{stroke-width:8}</style>
<ellipse fill="#b03a3a" stroke="#000000" cx="716.7311" cy="-437.4924" rx="56.6372" ry="21.4286"/>
<text text-anchor="middle" x="716.7311" y="-440.4924" font-family="Helvetica,sans-Serif" font-size="10.00" fill="#ffffff">services.</text>
<text text-anchor="middle" x="716.7311" y="-429.4924" font-family="Helvetica,sans-Serif" font-size="10.00" fill="#ffffff">gfycat_service</text>
</g>
<!-- telereddit_content_type&#45;&gt;telereddit_services_gfycat_service -->
<g id="edge9" class="edge">
<title>telereddit_content_type&#45;&gt;telereddit_services_gfycat_service</title><style>.edge>path:hover{stroke-width:8}</style>
<path fill="none" stroke="#000000" d="M845.7311,-515.9188C851.6451,-496.9457 805.2851,-472.9304 766.5076,-456.5046"/>
<polygon fill="#f91010" stroke="#000000" points="767.4267,-453.0968 756.8487,-452.4997 764.7455,-459.563 767.4267,-453.0968"/>
</g>
<!-- telereddit_services_imgur_service -->
<g id="node13" class="node">
<title>telereddit_services_imgur_service</title><style>.edge>path:hover{stroke-width:8}</style>
<ellipse fill="#b03a3a" stroke="#000000" cx="845.7311" cy="-437.4924" rx="54.3945" ry="21.4286"/>
<text text-anchor="middle" x="845.7311" y="-440.4924" font-family="Helvetica,sans-Serif" font-size="10.00" fill="#ffffff">services.</text>
<text text-anchor="middle" x="845.7311" y="-429.4924" font-family="Helvetica,sans-Serif" font-size="10.00" fill="#ffffff">imgur_service</text>
</g>
<!-- telereddit_content_type&#45;&gt;telereddit_services_imgur_service -->
<g id="edge10" class="edge">
<title>telereddit_content_type&#45;&gt;telereddit_services_imgur_service</title><style>.edge>path:hover{stroke-width:8}</style>
<path fill="none" stroke="#000000" d="M845.7311,-515.9188C850.3935,-500.961 850.8645,-483.6045 849.9701,-469.0278"/>
<polygon fill="#f91010" stroke="#000000" points="853.4505,-468.6474 849.1179,-458.979 846.4755,-469.239 853.4505,-468.6474"/>
</g>
<!-- telereddit_services_vreddit_service -->
<g id="node16" class="node">
<title>telereddit_services_vreddit_service</title><style>.edge>path:hover{stroke-width:8}</style>
<ellipse fill="#a83838" stroke="#000000" cx="444.7311" cy="-437.4924" rx="58.8803" ry="21.4286"/>
<text text-anchor="middle" x="444.7311" y="-440.4924" font-family="Helvetica,sans-Serif" font-size="10.00" fill="#ffffff">services.</text>
<text text-anchor="middle" x="444.7311" y="-429.4924" font-family="Helvetica,sans-Serif" font-size="10.00" fill="#ffffff">vreddit_service</text>
</g>
<!-- telereddit_content_type&#45;&gt;telereddit_services_vreddit_service -->
<g id="edge11" class="edge">
<title>telereddit_content_type&#45;&gt;telereddit_services_vreddit_service</title><style>.edge>path:hover{stroke-width:8}</style>
<path fill="none" stroke="#000000" d="M444.7311,-515.9188C439.1354,-501.1673 438.6053,-483.7019 439.7016,-469.0018"/>
<polygon fill="#f91010" stroke="#000000" points="443.2026,-469.1691 440.738,-458.8649 436.2389,-468.457 443.2026,-469.1691"/>
</g>
<!-- telereddit_services_youtube_service -->
<g id="node17" class="node">
<title>telereddit_services_youtube_service</title><style>.edge>path:hover{stroke-width:8}</style>
<ellipse fill="#a83838" stroke="#000000" cx="305.7311" cy="-437.4924" rx="62.4516" ry="21.4286"/>
<text text-anchor="middle" x="305.7311" y="-440.4924" font-family="Helvetica,sans-Serif" font-size="10.00" fill="#ffffff">services.</text>
<text text-anchor="middle" x="305.7311" y="-429.4924" font-family="Helvetica,sans-Serif" font-size="10.00" fill="#ffffff">youtube_service</text>
</g>
<!-- telereddit_content_type&#45;&gt;telereddit_services_youtube_service -->
<g id="edge12" class="edge">
<title>telereddit_content_type&#45;&gt;telereddit_services_youtube_service</title><style>.edge>path:hover{stroke-width:8}</style>
<path fill="none" stroke="#000000" d="M448.2165,-573.1665C450.4507,-557.5125 451.7706,-534.4765 444.7311,-515.9188"/>
<path fill="none" stroke="#000000" d="M444.7311,-515.9188C437.5142,-496.8935 392.8242,-473.8837 356.0357,-457.7239"/>
<polygon fill="#f91010" stroke="#000000" points="356.9632,-454.3122 346.3949,-453.5635 354.1897,-460.7393 356.9632,-454.3122"/>
</g>
<!-- telereddit_tests_test_reddit -->
<g id="node20" class="node">
<title>telereddit_tests_test_reddit</title><style>.edge>path:hover{stroke-width:8}</style>
<ellipse fill="#a44646" stroke="#000000" cx="927.7311" cy="-93.2132" rx="43.6818" ry="21.4286"/>
<text text-anchor="middle" x="927.7311" y="-96.2132" font-family="Helvetica,sans-Serif" font-size="10.00" fill="#ffffff">tests.</text>
<text text-anchor="middle" x="927.7311" y="-85.2132" font-family="Helvetica,sans-Serif" font-size="10.00" fill="#ffffff">test_reddit</text>
</g>
<!-- telereddit_content_type&#45;&gt;telereddit_tests_test_reddit -->
<g id="edge13" class="edge">
<title>telereddit_content_type&#45;&gt;telereddit_tests_test_reddit</title><style>.edge>path:hover{stroke-width:8}</style>
<path fill="none" stroke="#000000" d="M927.7311,-301.3528C886.039,-259.4956 891.5981,-215.1668 927.7311,-168.4264"/>
</g>
<!-- telereddit_tests_test_services -->
<g id="node21" class="node">
<title>telereddit_tests_test_services</title><style>.edge>path:hover{stroke-width:8}</style>
<ellipse fill="#a44646" stroke="#000000" cx="581.7311" cy="-243.6396" rx="53.066" ry="21.4286"/>
<text text-anchor="middle" x="581.7311" y="-246.6396" font-family="Helvetica,sans-Serif" font-size="10.00" fill="#ffffff">tests.</text>
<text text-anchor="middle" x="581.7311" y="-235.6396" font-family="Helvetica,sans-Serif" font-size="10.00" fill="#ffffff">test_services</text>
</g>
<!-- telereddit_content_type&#45;&gt;telereddit_tests_test_services -->
<g id="edge14" class="edge">
<title>telereddit_content_type&#45;&gt;telereddit_tests_test_services</title><style>.edge>path:hover{stroke-width:8}</style>
<path fill="none" stroke="#000000" d="M845.7311,-515.9188C856.9866,-479.8093 891.3715,-492.3097 908.7311,-458.7056 941.0619,-396.1207 968.9127,-358.5038 927.7311,-301.3528"/>
<path fill="none" stroke="#000000" d="M927.7311,-301.3528C889.0779,-262.5465 733.9187,-249.7807 645.0626,-245.62"/>
<polygon fill="#f91010" stroke="#000000" points="644.9769,-242.1129 634.8313,-245.1652 644.666,-249.106 644.9769,-242.1129"/>
</g>
<!-- telereddit_helpers -->
<g id="node8" class="node">
<title>telereddit_helpers</title><style>.edge>path:hover{stroke-width:8}</style>
<ellipse fill="#f90606" stroke="#000000" cx="266.7311" cy="-591.132" rx="28.0137" ry="18"/>
<text text-anchor="middle" x="266.7311" y="-588.632" font-family="Helvetica,sans-Serif" font-size="10.00" fill="#ffffff">helpers</text>
</g>
<!-- telereddit_linker -->
<g id="node9" class="node">
<title>telereddit_linker</title><style>.edge>path:hover{stroke-width:8}</style>
<ellipse fill="#b03a3a" stroke="#000000" cx="61.7311" cy="-168.4264" rx="27" ry="18"/>
<text text-anchor="middle" x="61.7311" y="-165.9264" font-family="Helvetica,sans-Serif" font-size="10.00" fill="#ffffff">linker</text>
</g>
<!-- telereddit_helpers&#45;&gt;telereddit_linker -->
<g id="edge15" class="edge">
<title>telereddit_helpers&#45;&gt;telereddit_linker</title><style>.edge>path:hover{stroke-width:8}</style>
<path fill="none" stroke="#000000" d="M61.7311,-243.6396C59.0095,-228.2705 58.8295,-210.8562 59.4109,-196.6572"/>
<polygon fill="#f90606" stroke="#000000" points="62.9143,-196.6918 59.9745,-186.513 55.9251,-196.3035 62.9143,-196.6918"/>
</g>
<!-- telereddit_helpers&#45;&gt;telereddit_reddit -->
<g id="edge16" class="edge">
<title>telereddit_helpers&#45;&gt;telereddit_reddit</title><style>.edge>path:hover{stroke-width:8}</style>
<path fill="none" stroke="#000000" d="M177.7311,-515.9188C162.0419,-480.5065 211.1389,-475.9515 215.7311,-437.4924"/>
<path fill="none" stroke="#000000" d="M215.7311,-437.4924C224.5476,-363.6561 288.39,-296.9492 324.68,-264.4667"/>
<polygon fill="#f90606" stroke="#000000" points="327.192,-266.9191 332.4053,-257.6957 322.578,-261.6549 327.192,-266.9191"/>
</g>
<!-- telereddit_helpers&#45;&gt;telereddit_services_vreddit_service -->
<g id="edge17" class="edge">
<title>telereddit_helpers&#45;&gt;telereddit_services_vreddit_service</title><style>.edge>path:hover{stroke-width:8}</style>
<path fill="none" stroke="#000000" d="M283.7985,-576.4004C313.8563,-550.4563 376.6087,-496.2919 414.2582,-463.7949"/>
<polygon fill="#f90606" stroke="#000000" points="416.6072,-466.3909 421.8904,-457.2073 412.0333,-461.0918 416.6072,-466.3909"/>
</g>
<!-- telereddit_helpers&#45;&gt;telereddit_services_youtube_service -->
<g id="edge18" class="edge">
<title>telereddit_helpers&#45;&gt;telereddit_services_youtube_service</title><style>.edge>path:hover{stroke-width:8}</style>
<path fill="none" stroke="#000000" d="M177.7311,-515.9188C169.7659,-497.9404 215.6667,-473.9067 254.6972,-457.2033"/>
<polygon fill="#f90606" stroke="#000000" points="256.0529,-460.4302 263.9205,-453.3343 253.345,-453.9751 256.0529,-460.4302"/>
</g>
<!-- telereddit_telereddit -->
<g id="node18" class="node">
<title>telereddit_telereddit</title><style>.edge>path:hover{stroke-width:8}</style>
<ellipse fill="#b03a3a" stroke="#000000" cx="34.7311" cy="-93.2132" rx="32.9303" ry="18"/>
<text text-anchor="middle" x="34.7311" y="-90.7132" font-family="Helvetica,sans-Serif" font-size="10.00" fill="#ffffff">telereddit</text>
</g>
<!-- telereddit_helpers&#45;&gt;telereddit_telereddit -->
<g id="edge19" class="edge">
<title>telereddit_helpers&#45;&gt;telereddit_telereddit</title><style>.edge>path:hover{stroke-width:8}</style>
<path fill="none" stroke="#000000" d="M244.1023,-579.8189C222.3302,-567.4942 190.8424,-545.5124 177.7311,-515.9188"/>
<path fill="none" stroke="#000000" d="M177.7311,-515.9188C157.4568,-470.1574 107.445,-501.032 80.7311,-458.7056 29.516,-377.5589 78.463,-338.1268 61.7311,-243.6396"/>
<path fill="none" stroke="#000000" d="M61.7311,-243.6396C55.4724,-214.2557 34.0573,-215.2927 25.7311,-186.4264 19.5343,-164.9423 22.5933,-139.6391 26.7516,-120.821"/>
<polygon fill="#f90606" stroke="#000000" points="30.1534,-121.6437 29.123,-111.0991 23.3528,-119.9847 30.1534,-121.6437"/>
</g>
<!-- telereddit_tests_test_helpers -->
<g id="node19" class="node">
<title>telereddit_tests_test_helpers</title><style>.edge>path:hover{stroke-width:8}</style>
<ellipse fill="#ac4949" stroke="#000000" cx="138.7311" cy="-437.4924" rx="49.4949" ry="21.4286"/>
<text text-anchor="middle" x="138.7311" y="-440.4924" font-family="Helvetica,sans-Serif" font-size="10.00" fill="#ffffff">tests.</text>
<text text-anchor="middle" x="138.7311" y="-429.4924" font-family="Helvetica,sans-Serif" font-size="10.00" fill="#ffffff">test_helpers</text>
</g>
<!-- telereddit_helpers&#45;&gt;telereddit_tests_test_helpers -->
<g id="edge20" class="edge">
<title>telereddit_helpers&#45;&gt;telereddit_tests_test_helpers</title><style>.edge>path:hover{stroke-width:8}</style>
<path fill="none" stroke="#000000" d="M177.7311,-515.9188C170.5056,-499.6101 161.7132,-481.7804 154.3069,-467.248"/>
<polygon fill="#f90606" stroke="#000000" points="157.3535,-465.5187 149.6705,-458.2233 151.1271,-468.7176 157.3535,-465.5187"/>
</g>
<!-- telereddit_linker&#45;&gt;telereddit_telereddit -->
<g id="edge21" class="edge">
<title>telereddit_linker&#45;&gt;telereddit_telereddit</title><style>.edge>path:hover{stroke-width:8}</style>
<path fill="none" stroke="#000000" d="M55.3325,-150.6019C52.1045,-141.6097 48.1192,-130.508 44.5166,-120.4724"/>
<polygon fill="#b03a3a" stroke="#000000" points="47.7567,-119.1391 41.0838,-110.9097 41.1684,-121.5042 47.7567,-119.1391"/>
</g>
<!-- telereddit_reddit&#45;&gt;telereddit_linker -->
<g id="edge22" class="edge">
<title>telereddit_reddit&#45;&gt;telereddit_linker</title><style>.edge>path:hover{stroke-width:8}</style>
<path fill="none" stroke="#000000" d="M324.4254,-237.0309C272.8901,-223.572 155.6741,-192.9603 96.8197,-177.59"/>
<polygon fill="#b42d2d" stroke="#000000" points="97.4365,-174.1338 86.8766,-174.9933 95.6677,-180.9066 97.4365,-174.1338"/>
</g>
<!-- telereddit_reddit&#45;&gt;telereddit_tests_test_reddit -->
<g id="edge23" class="edge">
<title>telereddit_reddit&#45;&gt;telereddit_tests_test_reddit</title><style>.edge>path:hover{stroke-width:8}</style>
<path fill="none" stroke="#000000" d="M376.341,-240.3038C489.5655,-226.0944 925.577,-171.2129 927.7311,-168.4264"/>
<path fill="none" stroke="#000000" d="M927.7311,-168.4264C937.1781,-156.2062 937.8948,-139.2206 935.9322,-124.4826"/>
<polygon fill="#b42d2d" stroke="#000000" points="939.3096,-123.4832 934.1161,-114.2486 932.4173,-124.7063 939.3096,-123.4832"/>
</g>
<!-- telereddit_services_services_wrapper -->
<g id="node15" class="node">
<title>telereddit_services_services_wrapper</title><style>.edge>path:hover{stroke-width:8}</style>
<ellipse fill="#a32828" stroke="#000000" cx="581.7311" cy="-359.066" rx="65.5227" ry="21.4286"/>
<text text-anchor="middle" x="581.7311" y="-362.066" font-family="Helvetica,sans-Serif" font-size="10.00" fill="#ffffff">services.</text>
<text text-anchor="middle" x="581.7311" y="-351.066" font-family="Helvetica,sans-Serif" font-size="10.00" fill="#ffffff">services_wrapper</text>
</g>
<!-- telereddit_services_generic_service&#45;&gt;telereddit_services_services_wrapper -->
<g id="edge24" class="edge">
<title>telereddit_services_generic_service&#45;&gt;telereddit_services_services_wrapper</title><style>.edge>path:hover{stroke-width:8}</style>
<path fill="none" stroke="#000000" d="M581.7311,-416.0621C581.7311,-408.1948 581.7311,-399.1159 581.7311,-390.5495"/>
<polygon fill="#b03a3a" stroke="#000000" points="585.2312,-390.4704 581.7311,-380.4705 578.2312,-390.4705 585.2312,-390.4704"/>
</g>
<!-- telereddit_services_gfycat_service&#45;&gt;telereddit_services_services_wrapper -->
<g id="edge25" class="edge">
<title>telereddit_services_gfycat_service&#45;&gt;telereddit_services_services_wrapper</title><style>.edge>path:hover{stroke-width:8}</style>
<path fill="none" stroke="#000000" d="M685.7594,-419.4998C667.0438,-408.6272 642.9667,-394.64 622.6901,-382.8606"/>
<polygon fill="#b03a3a" stroke="#000000" points="624.3727,-379.7904 613.9678,-377.7935 620.8564,-385.8431 624.3727,-379.7904"/>
</g>
<!-- telereddit_services_imgur_service&#45;&gt;telereddit_services_services_wrapper -->
<g id="edge26" class="edge">
<title>telereddit_services_imgur_service&#45;&gt;telereddit_services_services_wrapper</title><style>.edge>path:hover{stroke-width:8}</style>
<path fill="none" stroke="#000000" d="M804.8171,-423.4022C797.483,-420.966 789.8953,-418.5036 782.7311,-416.2792 735.7747,-401.6998 682.2076,-386.5236 642.1868,-375.4678"/>
<polygon fill="#b03a3a" stroke="#000000" points="642.8866,-372.0303 632.3161,-372.7487 641.0274,-378.7789 642.8866,-372.0303"/>
</g>
<!-- telereddit_services_service -->
<g id="node14" class="node">
<title>telereddit_services_service</title><style>.edge>path:hover{stroke-width:8}</style>
<ellipse fill="#f31616" stroke="#000000" cx="581.7311" cy="-515.9188" rx="39.6962" ry="21.4286"/>
<text text-anchor="middle" x="581.7311" y="-518.9188" font-family="Helvetica,sans-Serif" font-size="10.00" fill="#ffffff">services.</text>
<text text-anchor="middle" x="581.7311" y="-507.9188" font-family="Helvetica,sans-Serif" font-size="10.00" fill="#ffffff">service</text>
</g>
<!-- telereddit_services_service&#45;&gt;telereddit_services_generic_service -->
<g id="edge27" class="edge">
<title>telereddit_services_service&#45;&gt;telereddit_services_generic_service</title><style>.edge>path:hover{stroke-width:8}</style>
<path fill="none" stroke="#000000" d="M581.7311,-494.4885C581.7311,-486.6212 581.7311,-477.5423 581.7311,-468.9759"/>
<polygon fill="#f31616" stroke="#000000" points="585.2312,-468.8968 581.7311,-458.8969 578.2312,-468.8969 585.2312,-468.8968"/>
</g>
<!-- telereddit_services_service&#45;&gt;telereddit_services_gfycat_service -->
<g id="edge28" class="edge">
<title>telereddit_services_service&#45;&gt;telereddit_services_gfycat_service</title><style>.edge>path:hover{stroke-width:8}</style>
<path fill="none" stroke="#000000" d="M608.7259,-500.2366C628.3382,-488.8431 655.1899,-473.2439 677.2129,-460.45"/>
<polygon fill="#f31616" stroke="#000000" points="679.1205,-463.3896 686.0091,-455.3399 675.6042,-457.3368 679.1205,-463.3896"/>
</g>
<!-- telereddit_services_service&#45;&gt;telereddit_services_imgur_service -->
<g id="edge29" class="edge">
<title>telereddit_services_service&#45;&gt;telereddit_services_imgur_service</title><style>.edge>path:hover{stroke-width:8}</style>
<path fill="none" stroke="#000000" d="M617.4645,-506.2988C657.7731,-495.3193 725.2118,-476.5647 782.7311,-458.7056 786.761,-457.4544 790.9248,-456.1279 795.1022,-454.7731"/>
<polygon fill="#f31616" stroke="#000000" points="796.4084,-458.0281 804.8171,-451.5827 794.2243,-451.3775 796.4084,-458.0281"/>
</g>
<!-- telereddit_services_service&#45;&gt;telereddit_services_vreddit_service -->
<g id="edge30" class="edge">
<title>telereddit_services_service&#45;&gt;telereddit_services_vreddit_service</title><style>.edge>path:hover{stroke-width:8}</style>
<path fill="none" stroke="#000000" d="M554.6643,-500.4243C534.9255,-489.1247 507.8344,-473.6162 485.4851,-460.8223"/>
<polygon fill="#f31616" stroke="#000000" points="486.9666,-457.6375 476.5491,-455.7068 483.4889,-463.7125 486.9666,-457.6375"/>
</g>
<!-- telereddit_services_service&#45;&gt;telereddit_services_youtube_service -->
<g id="edge31" class="edge">
<title>telereddit_services_service&#45;&gt;telereddit_services_youtube_service</title><style>.edge>path:hover{stroke-width:8}</style>
<path fill="none" stroke="#000000" d="M546.1227,-506.192C505.1893,-494.9616 436.0137,-475.8328 376.7311,-458.7056 372.1079,-457.37 367.32,-455.9717 362.514,-454.5577"/>
<polygon fill="#f31616" stroke="#000000" points="363.253,-451.1265 352.671,-451.648 361.2686,-457.8393 363.253,-451.1265"/>
</g>
<!-- telereddit_services_services_wrapper&#45;&gt;telereddit_reddit -->
<g id="edge32" class="edge">
<title>telereddit_services_services_wrapper&#45;&gt;telereddit_reddit</title><style>.edge>path:hover{stroke-width:8}</style>
<path fill="none" stroke="#000000" d="M586.874,-337.8362C588.4828,-326.2341 588.379,-312.0855 581.7311,-301.3528"/>
<path fill="none" stroke="#000000" d="M581.7311,-301.3528C561.3196,-268.3993 447.1864,-252.8093 386.962,-246.7881"/>
<polygon fill="#a32828" stroke="#000000" points="387.018,-243.2775 376.7291,-245.8054 386.3487,-250.2454 387.018,-243.2775"/>
</g>
<!-- telereddit_services_services_wrapper&#45;&gt;telereddit_tests_test_services -->
<g id="edge33" class="edge">
<title>telereddit_services_services_wrapper&#45;&gt;telereddit_tests_test_services</title><style>.edge>path:hover{stroke-width:8}</style>
<path fill="none" stroke="#000000" d="M581.7311,-301.3528C576.901,-293.5548 575.5255,-283.9536 575.7514,-274.8361"/>
<polygon fill="#a32828" stroke="#000000" points="579.2392,-275.1273 576.5882,-264.8695 572.2637,-274.5415 579.2392,-275.1273"/>
</g>
<!-- telereddit_services_vreddit_service&#45;&gt;telereddit_services_services_wrapper -->
<g id="edge34" class="edge">
<title>telereddit_services_vreddit_service&#45;&gt;telereddit_services_services_wrapper</title><style>.edge>path:hover{stroke-width:8}</style>
<path fill="none" stroke="#000000" d="M476.1617,-419.4998C495.1546,-408.6272 519.5884,-394.64 540.1653,-382.8606"/>
<polygon fill="#a83838" stroke="#000000" points="542.0771,-385.7991 549.0169,-377.7935 538.5994,-379.7241 542.0771,-385.7991"/>
</g>
<!-- telereddit_services_youtube_service&#45;&gt;telereddit_services_services_wrapper -->
<g id="edge35" class="edge">
<title>telereddit_services_youtube_service&#45;&gt;telereddit_services_services_wrapper</title><style>.edge>path:hover{stroke-width:8}</style>
<path fill="none" stroke="#000000" d="M352.671,-423.3368C360.6908,-420.9558 368.9447,-418.5288 376.7311,-416.2792 425.4311,-402.2095 480.8072,-386.7889 521.7184,-375.5059"/>
<polygon fill="#a83838" stroke="#000000" points="522.82,-378.8329 531.5312,-372.8024 520.9607,-372.0843 522.82,-378.8329"/>
</g>
<!-- telereddit_telereddit&#45;&gt;telereddit___main__ -->
<g id="edge36" class="edge">
<title>telereddit_telereddit&#45;&gt;telereddit___main__</title><style>.edge>path:hover{stroke-width:8}</style>
<path fill="none" stroke="#000000" d="M34.7311,-75.0062C34.7311,-66.3219 34.7311,-55.737 34.7311,-46.0563"/>
<polygon fill="#b03a3a" stroke="#000000" points="38.2312,-46.0393 34.7311,-36.0393 31.2312,-46.0394 38.2312,-46.0393"/>
</g>
</g>
</svg>
