<?xml version="1.0" encoding="UTF-8" standalone="no"?>
<!DOCTYPE svg PUBLIC "-//W3C//DTD SVG 1.1//EN"
 "http://www.w3.org/Graphics/SVG/1.1/DTD/svg11.dtd">
<!-- Generated by graphviz version 2.38.0 (20140413.2041)
 -->
<!-- Title: G Pages: 1 -->
<svg width="1890pt" height="999pt"
 viewBox="0.00 0.00 1889.90 999.41" xmlns="http://www.w3.org/2000/svg" xmlns:xlink="http://www.w3.org/1999/xlink">
<g id="graph0" class="graph" transform="scale(1 1) rotate(0) translate(4 995.411)">
<title>G</title><style>.edge>path:hover{stroke-width:8}</style>
<polygon fill="white" stroke="none" points="-4,4 -4,-995.411 1885.9,-995.411 1885.9,4 -4,4"/>
<g id="clust1" class="cluster"><title>cluster_parameterized</title><style>.edge>path:hover{stroke-width:8}</style>
<polygon fill="none" stroke="black" points="57.819,-637.132 57.819,-790.558 187.819,-790.558 187.819,-637.132 57.819,-637.132"/>
<text text-anchor="middle" x="122.819" y="-775.358" font-family="Times New Roman,serif" font-size="14.00">parameterized</text>
</g>
<g id="clust2" class="cluster"><title>cluster_requests</title><style>.edge>path:hover{stroke-width:8}</style>
<polygon fill="none" stroke="black" points="773.819,-712.345 773.819,-787.345 853.819,-787.345 853.819,-712.345 773.819,-712.345"/>
<text text-anchor="middle" x="813.819" y="-772.145" font-family="Times New Roman,serif" font-size="14.00">requests</text>
</g>
<g id="clust3" class="cluster"><title>cluster_sentrysdk</title><style>.edge>path:hover{stroke-width:8}</style>
<polygon fill="none" stroke="black" points="1367.82,-217.64 1367.82,-292.64 1459.82,-292.64 1459.82,-217.64 1367.82,-217.64"/>
<text text-anchor="middle" x="1413.82" y="-277.44" font-family="Times New Roman,serif" font-size="14.00">sentrysdk</text>
</g>
<!-- parameterized -->
<g id="node1" class="node"><title>parameterized</title><style>.edge>path:hover{stroke-width:8}</style>
<ellipse fill="#c04040" stroke="black" cx="133.819" cy="-663.132" rx="45.8316" ry="18"/>
<text text-anchor="middle" x="133.819" y="-660.632" font-family="Helvetica,sans-Serif" font-size="10.00" fill="#ffffff">parameterized</text>
</g>
<!-- telereddit_tests_test_services -->
<g id="node9" class="node"><title>telereddit_tests_test_services</title><style>.edge>path:hover{stroke-width:8}</style>
<ellipse fill="#7e3d8f" stroke="black" cx="662.819" cy="-243.64" rx="52.1524" ry="21.4286"/>
<text text-anchor="middle" x="662.819" y="-246.64" font-family="Helvetica,sans-Serif" font-size="10.00" fill="#ffffff">tests.</text>
<text text-anchor="middle" x="662.819" y="-235.64" font-family="Helvetica,sans-Serif" font-size="10.00" fill="#ffffff">test_services</text>
</g>
<!-- parameterized&#45;&gt;telereddit_tests_test_services -->
<g id="edge2" class="edge"><title>parameterized&#45;&gt;telereddit_tests_test_services</title><style>.edge>path:hover{stroke-width:8}</style>
<path fill="none" stroke="black" d="M164.085,-637.401C192.873,-610.91 231.819,-566.003 231.819,-516.919 231.819,-516.919 231.819,-516.919 231.819,-358.066 231.819,-328.023 242.611,-317.198 267.819,-300.853 321.511,-266.038 503.463,-252.195 600.562,-247.188"/>
<polygon fill="#000000" stroke="black" points="601.015,-250.67 610.828,-246.675 600.666,-243.678 601.015,-250.67"/>
</g>
<!-- telereddit_tests_test_helpers -->
<g id="node21" class="node"><title>telereddit_tests_test_helpers</title><style>.edge>path:hover{stroke-width:8}</style>
<ellipse fill="#8b439d" stroke="black" cx="78.819" cy="-437.492" rx="49.4949" ry="21.4286"/>
<text text-anchor="middle" x="78.819" y="-440.492" font-family="Helvetica,sans-Serif" font-size="10.00" fill="#ffffff">tests.</text>
<text text-anchor="middle" x="78.819" y="-429.492" font-family="Helvetica,sans-Serif" font-size="10.00" fill="#ffffff">test_helpers</text>
</g>
<!-- parameterized&#45;&gt;telereddit_tests_test_helpers -->
<g id="edge1" class="edge"><title>parameterized&#45;&gt;telereddit_tests_test_helpers</title><style>.edge>path:hover{stroke-width:8}</style>
<path fill="none" stroke="black" d="M127.703,-637.263C117.538,-595.93 97.2011,-513.237 86.235,-468.647"/>
<polygon fill="#000000" stroke="black" points="89.6286,-467.79 83.8417,-458.916 82.8312,-469.462 89.6286,-467.79"/>
</g>
<!-- parameterized_parameterized -->
<g id="node2" class="node"><title>parameterized_parameterized</title><style>.edge>path:hover{stroke-width:8}</style>
<ellipse fill="#ce3b3b" stroke="black" cx="122.819" cy="-738.345" rx="57.0522" ry="21.4286"/>
<text text-anchor="middle" x="122.819" y="-741.345" font-family="Helvetica,sans-Serif" font-size="10.00" fill="#ffffff">parameterized.</text>
<text text-anchor="middle" x="122.819" y="-730.345" font-family="Helvetica,sans-Serif" font-size="10.00" fill="#ffffff">parameterized</text>
</g>
<!-- parameterized_parameterized&#45;&gt;parameterized -->
<g id="edge3" class="edge"><title>parameterized_parameterized&#45;&gt;parameterized</title><style>.edge>path:hover{stroke-width:8}</style>
<path fill="none" stroke="black" d="M125.883,-716.951C127.063,-709.097 128.431,-699.996 129.695,-691.583"/>
<polygon fill="#000000" stroke="black" points="133.194,-691.851 131.218,-681.442 126.271,-690.811 133.194,-691.851"/>
</g>
<!-- parameterized_parameterized&#45;&gt;telereddit_tests_test_services -->
<g id="edge5" class="edge"><title>parameterized_parameterized&#45;&gt;telereddit_tests_test_services</title><style>.edge>path:hover{stroke-width:8}</style>
<path fill="none" stroke="black" d="M58.0779,-692.553C29.3057,-667.031 1.81898,-632.172 1.81898,-592.132 1.81898,-592.132 1.81898,-592.132 1.81898,-514.919 1.81898,-470.273 -5.45695,-452.374 20.819,-416.279 83.5006,-330.175 129.589,-333.949 230.819,-300.853 357.753,-259.353 515.103,-248.358 600.524,-245.531"/>
<polygon fill="#000000" stroke="black" points="600.688,-249.028 610.577,-245.225 600.476,-242.031 600.688,-249.028"/>
</g>
<!-- parameterized_parameterized&#45;&gt;telereddit_tests_test_helpers -->
<g id="edge4" class="edge"><title>parameterized_parameterized&#45;&gt;telereddit_tests_test_helpers</title><style>.edge>path:hover{stroke-width:8}</style>
<path fill="none" stroke="black" d="M68.0023,-637.169C57.7787,-574.269 66.0441,-506.734 72.6568,-468.834"/>
<polygon fill="#000000" stroke="black" points="76.1514,-469.181 74.5082,-458.715 69.2657,-467.921 76.1514,-469.181"/>
</g>
<!-- requests -->
<g id="node3" class="node"><title>requests</title><style>.edge>path:hover{stroke-width:8}</style>
<ellipse fill="#c8f906" stroke="black" cx="813.819" cy="-738.345" rx="31.577" ry="18"/>
<text text-anchor="middle" x="813.819" y="-735.845" font-family="Helvetica,sans-Serif" font-size="10.00" fill="#000000">requests</text>
</g>
<!-- telereddit_helpers -->
<g id="node7" class="node"><title>telereddit_helpers</title><style>.edge>path:hover{stroke-width:8}</style>
<ellipse fill="#b005db" stroke="black" cx="983.819" cy="-591.132" rx="28.0137" ry="18"/>
<text text-anchor="middle" x="983.819" y="-588.632" font-family="Helvetica,sans-Serif" font-size="10.00" fill="#ffffff">helpers</text>
</g>
<!-- requests&#45;&gt;telereddit_helpers -->
<g id="edge6" class="edge"><title>requests&#45;&gt;telereddit_helpers</title><style>.edge>path:hover{stroke-width:8}</style>
<path fill="none" stroke="black" d="M853.369,-727.921C881.054,-719.589 917.328,-704.968 941.819,-681.132 959.359,-664.061 970.42,-638.227 976.761,-618.782"/>
<polygon fill="#000000" stroke="black" points="980.174,-619.59 979.733,-609.005 973.476,-617.555 980.174,-619.59"/>
</g>
<!-- telereddit_reddit -->
<g id="node10" class="node"><title>telereddit_reddit</title><style>.edge>path:hover{stroke-width:8}</style>
<ellipse fill="#7d2493" stroke="black" cx="1005.82" cy="-243.64" rx="27" ry="18"/>
<text text-anchor="middle" x="1005.82" y="-241.14" font-family="Helvetica,sans-Serif" font-size="10.00" fill="#ffffff">reddit</text>
</g>
<!-- requests&#45;&gt;telereddit_reddit -->
<g id="edge7" class="edge"><title>requests&#45;&gt;telereddit_reddit</title><style>.edge>path:hover{stroke-width:8}</style>
<path fill="none" stroke="black" d="M835.319,-712.45C873.828,-666.167 953.638,-562.149 986.819,-458.706 1007.53,-394.132 1008.41,-313.344 1007.18,-271.916"/>
<polygon fill="#000000" stroke="black" points="1010.67,-271.659 1006.81,-261.793 1003.68,-271.913 1010.67,-271.659"/>
</g>
<!-- telereddit_services_vreddit_service -->
<g id="node17" class="node"><title>telereddit_services_vreddit_service</title><style>.edge>path:hover{stroke-width:8}</style>
<ellipse fill="#853399" stroke="black" cx="527.819" cy="-437.492" rx="56.6372" ry="21.4286"/>
<text text-anchor="middle" x="527.819" y="-440.492" font-family="Helvetica,sans-Serif" font-size="10.00" fill="#ffffff">services.</text>
<text text-anchor="middle" x="527.819" y="-429.492" font-family="Helvetica,sans-Serif" font-size="10.00" fill="#ffffff">vreddit_service</text>
</g>
<!-- requests&#45;&gt;telereddit_services_vreddit_service -->
<g id="edge11" class="edge"><title>requests&#45;&gt;telereddit_services_vreddit_service</title><style>.edge>path:hover{stroke-width:8}</style>
<path fill="none" stroke="black" d="M773.926,-724.15C747.836,-714.477 713.731,-699.794 686.819,-681.132 613.213,-630.09 586.997,-616.677 545.819,-537.132 534.897,-516.035 530.505,-489.398 528.784,-469.125"/>
<polygon fill="#000000" stroke="black" points="532.258,-468.621 528.093,-458.879 525.274,-469.092 532.258,-468.621"/>
</g>
<!-- telereddit_services_imgur_service -->
<g id="node19" class="node"><title>telereddit_services_imgur_service</title><style>.edge>path:hover{stroke-width:8}</style>
<ellipse fill="#7e3091" stroke="black" cx="923.819" cy="-437.492" rx="53.9813" ry="21.4286"/>
<text text-anchor="middle" x="923.819" y="-440.492" font-family="Helvetica,sans-Serif" font-size="10.00" fill="#ffffff">services.</text>
<text text-anchor="middle" x="923.819" y="-429.492" font-family="Helvetica,sans-Serif" font-size="10.00" fill="#ffffff">imgur_service</text>
</g>
<!-- requests&#45;&gt;telereddit_services_imgur_service -->
<g id="edge9" class="edge"><title>requests&#45;&gt;telereddit_services_imgur_service</title><style>.edge>path:hover{stroke-width:8}</style>
<path fill="none" stroke="black" d="M822.976,-712.466C843.11,-657.766 891.156,-527.233 912.853,-468.285"/>
<polygon fill="#000000" stroke="black" points="916.215,-469.284 916.384,-458.691 909.646,-466.866 916.215,-469.284"/>
</g>
<!-- telereddit_services_gfycat_service -->
<g id="node22" class="node"><title>telereddit_services_gfycat_service</title><style>.edge>path:hover{stroke-width:8}</style>
<ellipse fill="#7e3091" stroke="black" cx="796.819" cy="-437.492" rx="55.3091" ry="21.4286"/>
<text text-anchor="middle" x="796.819" y="-440.492" font-family="Helvetica,sans-Serif" font-size="10.00" fill="#ffffff">services.</text>
<text text-anchor="middle" x="796.819" y="-429.492" font-family="Helvetica,sans-Serif" font-size="10.00" fill="#ffffff">gfycat_service</text>
</g>
<!-- requests&#45;&gt;telereddit_services_gfycat_service -->
<g id="edge8" class="edge"><title>requests&#45;&gt;telereddit_services_gfycat_service</title><style>.edge>path:hover{stroke-width:8}</style>
<path fill="none" stroke="black" d="M812.397,-712.348C809.294,-657.795 801.923,-528.224 798.554,-468.99"/>
<polygon fill="#000000" stroke="black" points="802.048,-468.789 797.986,-459.004 795.059,-469.187 802.048,-468.789"/>
</g>
<!-- telereddit_services_service -->
<g id="node25" class="node"><title>telereddit_services_service</title><style>.edge>path:hover{stroke-width:8}</style>
<ellipse fill="#c50cf3" stroke="black" cx="632.819" cy="-515.919" rx="38.7821" ry="21.4286"/>
<text text-anchor="middle" x="632.819" y="-518.919" font-family="Helvetica,sans-Serif" font-size="10.00" fill="#ffffff">services.</text>
<text text-anchor="middle" x="632.819" y="-507.919" font-family="Helvetica,sans-Serif" font-size="10.00" fill="#ffffff">service</text>
</g>
<!-- requests&#45;&gt;telereddit_services_service -->
<g id="edge10" class="edge"><title>requests&#45;&gt;telereddit_services_service</title><style>.edge>path:hover{stroke-width:8}</style>
<path fill="none" stroke="black" d="M774.058,-718.286C757.137,-708.803 738.065,-696.142 723.819,-681.132 685.733,-641.001 658.145,-581.892 643.879,-546.616"/>
<polygon fill="#000000" stroke="black" points="646.973,-544.924 640.046,-536.907 640.462,-547.494 646.973,-544.924"/>
</g>
<!-- sentry_sdk -->
<g id="node4" class="node"><title>sentry_sdk</title><style>.edge>path:hover{stroke-width:8}</style>
<ellipse fill="#40c073" stroke="black" cx="1413.82" cy="-243.64" rx="38.0276" ry="18"/>
<text text-anchor="middle" x="1413.82" y="-241.14" font-family="Helvetica,sans-Serif" font-size="10.00" fill="#000000">sentry_sdk</text>
</g>
<!-- telereddit_telereddit -->
<g id="node14" class="node"><title>telereddit_telereddit</title><style>.edge>path:hover{stroke-width:8}</style>
<ellipse fill="#632673" stroke="black" cx="1271.82" cy="-93.2132" rx="32.9303" ry="18"/>
<text text-anchor="middle" x="1271.82" y="-90.7132" font-family="Helvetica,sans-Serif" font-size="10.00" fill="#ffffff">telereddit</text>
</g>
<!-- sentry_sdk&#45;&gt;telereddit_telereddit -->
<g id="edge12" class="edge"><title>sentry_sdk&#45;&gt;telereddit_telereddit</title><style>.edge>path:hover{stroke-width:8}</style>
<path fill="none" stroke="black" d="M1390.5,-218.263C1363.7,-190.253 1320.05,-144.632 1293.82,-117.214"/>
<polygon fill="#000000" stroke="black" points="1295.99,-114.414 1286.55,-109.608 1290.93,-119.253 1295.99,-114.414"/>
</g>
<!-- telereddit_config_secret -->
<g id="node5" class="node"><title>telereddit_config_secret</title><style>.edge>path:hover{stroke-width:8}</style>
<ellipse fill="#c022e7" stroke="black" cx="1737.82" cy="-973.411" rx="42.2678" ry="18"/>
<text text-anchor="middle" x="1737.82" y="-970.911" font-family="Helvetica,sans-Serif" font-size="10.00" fill="#ffffff">config.secret</text>
</g>
<!-- telereddit_config_secret_github -->
<g id="node20" class="node"><title>telereddit_config_secret_github</title><style>.edge>path:hover{stroke-width:8}</style>
<ellipse fill="#8b439d" stroke="black" cx="1693.82" cy="-819.772" rx="53.066" ry="21.4286"/>
<text text-anchor="middle" x="1693.82" y="-822.772" font-family="Helvetica,sans-Serif" font-size="10.00" fill="#ffffff">config.</text>
<text text-anchor="middle" x="1693.82" y="-811.772" font-family="Helvetica,sans-Serif" font-size="10.00" fill="#ffffff">secret_github</text>
</g>
<!-- telereddit_config_secret&#45;&gt;telereddit_config_secret_github -->
<g id="edge30" class="edge"><title>telereddit_config_secret&#45;&gt;telereddit_config_secret_github</title><style>.edge>path:hover{stroke-width:8}</style>
<path fill="none" stroke="black" d="M1698.04,-967.169C1669.03,-961.036 1631.62,-947.81 1612.82,-919.411 1602.41,-903.689 1604.08,-893.692 1612.82,-876.985 1620.84,-861.662 1635.14,-849.678 1649.52,-840.785"/>
<polygon fill="#c022e7" stroke="black" points="1651.52,-843.674 1658.43,-835.644 1648.02,-837.611 1651.52,-843.674"/>
</g>
<!-- telereddit_config_secret_generic -->
<g id="node23" class="node"><title>telereddit_config_secret_generic</title><style>.edge>path:hover{stroke-width:8}</style>
<ellipse fill="#9246a4" stroke="black" cx="1678.82" cy="-898.198" rx="56.6372" ry="21.4286"/>
<text text-anchor="middle" x="1678.82" y="-901.198" font-family="Helvetica,sans-Serif" font-size="10.00" fill="#ffffff">config.</text>
<text text-anchor="middle" x="1678.82" y="-890.198" font-family="Helvetica,sans-Serif" font-size="10.00" fill="#ffffff">secret_generic</text>
</g>
<!-- telereddit_config_secret&#45;&gt;telereddit_config_secret_generic -->
<g id="edge29" class="edge"><title>telereddit_config_secret&#45;&gt;telereddit_config_secret_generic</title><style>.edge>path:hover{stroke-width:8}</style>
<path fill="none" stroke="black" d="M1724.72,-956.163C1717.78,-947.54 1709.05,-936.707 1701.07,-926.81"/>
<polygon fill="#c022e7" stroke="black" points="1703.6,-924.375 1694.6,-918.785 1698.15,-928.767 1703.6,-924.375"/>
</g>
<!-- telereddit_config_secret_prod -->
<g id="node24" class="node"><title>telereddit_config_secret_prod</title><style>.edge>path:hover{stroke-width:8}</style>
<ellipse fill="#8b439d" stroke="black" cx="1833.82" cy="-819.772" rx="48.1667" ry="21.4286"/>
<text text-anchor="middle" x="1833.82" y="-822.772" font-family="Helvetica,sans-Serif" font-size="10.00" fill="#ffffff">config.</text>
<text text-anchor="middle" x="1833.82" y="-811.772" font-family="Helvetica,sans-Serif" font-size="10.00" fill="#ffffff">secret_prod</text>
</g>
<!-- telereddit_config_secret&#45;&gt;telereddit_config_secret_prod -->
<g id="edge31" class="edge"><title>telereddit_config_secret&#45;&gt;telereddit_config_secret_prod</title><style>.edge>path:hover{stroke-width:8}</style>
<path fill="none" stroke="black" d="M1776.15,-965.642C1802.37,-958.8 1835.27,-945.357 1851.82,-919.411 1865.07,-898.633 1858.16,-870.668 1849.34,-849.82"/>
<polygon fill="#c022e7" stroke="black" points="1852.42,-848.142 1845.07,-840.508 1846.05,-851.057 1852.42,-848.142"/>
</g>
<!-- telereddit_config_secret_dev -->
<g id="node28" class="node"><title>telereddit_config_secret_dev</title><style>.edge>path:hover{stroke-width:8}</style>
<ellipse fill="#a02fbc" stroke="black" cx="1797.82" cy="-898.198" rx="44.5955" ry="21.4286"/>
<text text-anchor="middle" x="1797.82" y="-901.198" font-family="Helvetica,sans-Serif" font-size="10.00" fill="#ffffff">config.</text>
<text text-anchor="middle" x="1797.82" y="-890.198" font-family="Helvetica,sans-Serif" font-size="10.00" fill="#ffffff">secret_dev</text>
</g>
<!-- telereddit_config_secret&#45;&gt;telereddit_config_secret_dev -->
<g id="edge28" class="edge"><title>telereddit_config_secret&#45;&gt;telereddit_config_secret_dev</title><style>.edge>path:hover{stroke-width:8}</style>
<path fill="none" stroke="black" d="M1751.13,-956.163C1758.38,-947.321 1767.53,-936.155 1775.81,-926.057"/>
<polygon fill="#c022e7" stroke="black" points="1778.57,-928.205 1782.2,-918.252 1773.16,-923.768 1778.57,-928.205"/>
</g>
<!-- telereddit_content_type -->
<g id="node6" class="node"><title>telereddit_content_type</title><style>.edge>path:hover{stroke-width:8}</style>
<ellipse fill="#cb10f9" stroke="black" cx="394.819" cy="-591.132" rx="42.9448" ry="18"/>
<text text-anchor="middle" x="394.819" y="-588.632" font-family="Helvetica,sans-Serif" font-size="10.00" fill="#ffffff">content_type</text>
</g>
<!-- telereddit_content_type&#45;&gt;telereddit_tests_test_services -->
<g id="edge41" class="edge"><title>telereddit_content_type&#45;&gt;telereddit_tests_test_services</title><style>.edge>path:hover{stroke-width:8}</style>
<path fill="none" stroke="black" d="M360.462,-580.282C338.27,-572.188 310.519,-558.512 293.819,-537.132 266.045,-501.575 269.819,-483.611 269.819,-438.492 269.819,-438.492 269.819,-438.492 269.819,-358.066 269.819,-330.491 272.076,-317.811 293.819,-300.853 340.485,-264.456 508.404,-251.381 600.796,-246.876"/>
<polygon fill="#cb10f9" stroke="black" points="601.032,-250.368 610.858,-246.404 600.705,-243.376 601.032,-250.368"/>
</g>
<!-- telereddit_content_type&#45;&gt;telereddit_reddit -->
<g id="edge34" class="edge"><title>telereddit_content_type&#45;&gt;telereddit_reddit</title><style>.edge>path:hover{stroke-width:8}</style>
<path fill="none" stroke="black" d="M378.045,-574.147C352.763,-548.243 307.819,-494.339 307.819,-438.492 307.819,-438.492 307.819,-438.492 307.819,-358.066 307.819,-264.485 631.468,-307.761 723.819,-292.64 812.266,-278.157 916.154,-260.24 969.758,-250.927"/>
<polygon fill="#cb10f9" stroke="black" points="970.536,-254.345 979.789,-249.183 969.337,-247.448 970.536,-254.345"/>
</g>
<!-- telereddit_tests_test_reddit -->
<g id="node12" class="node"><title>telereddit_tests_test_reddit</title><style>.edge>path:hover{stroke-width:8}</style>
<ellipse fill="#9246a4" stroke="black" cx="368.819" cy="-93.2132" rx="43.6818" ry="21.4286"/>
<text text-anchor="middle" x="368.819" y="-96.2132" font-family="Helvetica,sans-Serif" font-size="10.00" fill="#ffffff">tests.</text>
<text text-anchor="middle" x="368.819" y="-85.2132" font-family="Helvetica,sans-Serif" font-size="10.00" fill="#ffffff">test_reddit</text>
</g>
<!-- telereddit_content_type&#45;&gt;telereddit_tests_test_reddit -->
<g id="edge40" class="edge"><title>telereddit_content_type&#45;&gt;telereddit_tests_test_reddit</title><style>.edge>path:hover{stroke-width:8}</style>
<path fill="none" stroke="black" d="M355.353,-583.709C287.47,-570.164 155.819,-531.859 155.819,-438.492 155.819,-438.492 155.819,-438.492 155.819,-242.64 155.819,-163.277 256.586,-122.869 319.503,-105.374"/>
<polygon fill="#cb10f9" stroke="black" points="320.501,-108.73 329.255,-102.761 318.689,-101.969 320.501,-108.73"/>
</g>
<!-- telereddit_content_type&#45;&gt;telereddit_services_vreddit_service -->
<g id="edge38" class="edge"><title>telereddit_content_type&#45;&gt;telereddit_services_vreddit_service</title><style>.edge>path:hover{stroke-width:8}</style>
<path fill="none" stroke="black" d="M399.237,-572.937C405.204,-552.419 417.498,-517.972 437.819,-494.706 450.381,-480.323 467.525,-468.372 483.482,-459.24"/>
<polygon fill="#cb10f9" stroke="black" points="485.607,-462.067 492.696,-454.193 482.244,-455.928 485.607,-462.067"/>
</g>
<!-- telereddit_services_youtube_service -->
<g id="node18" class="node"><title>telereddit_services_youtube_service</title><style>.edge>path:hover{stroke-width:8}</style>
<ellipse fill="#8b35a1" stroke="black" cx="662.819" cy="-437.492" rx="60.623" ry="21.4286"/>
<text text-anchor="middle" x="662.819" y="-440.492" font-family="Helvetica,sans-Serif" font-size="10.00" fill="#ffffff">services.</text>
<text text-anchor="middle" x="662.819" y="-429.492" font-family="Helvetica,sans-Serif" font-size="10.00" fill="#ffffff">youtube_service</text>
</g>
<!-- telereddit_content_type&#45;&gt;telereddit_services_youtube_service -->
<g id="edge39" class="edge"><title>telereddit_content_type&#45;&gt;telereddit_services_youtube_service</title><style>.edge>path:hover{stroke-width:8}</style>
<path fill="none" stroke="black" d="M419.551,-576.138C466.073,-549.815 566.962,-492.73 623.101,-460.966"/>
<polygon fill="#cb10f9" stroke="black" points="625.064,-463.877 632.043,-455.906 621.616,-457.784 625.064,-463.877"/>
</g>
<!-- telereddit_content_type&#45;&gt;telereddit_services_imgur_service -->
<g id="edge37" class="edge"><title>telereddit_content_type&#45;&gt;telereddit_services_imgur_service</title><style>.edge>path:hover{stroke-width:8}</style>
<path fill="none" stroke="black" d="M436.86,-587.007C499.187,-581.531 619.243,-567.734 716.819,-537.132 778.795,-517.695 845.856,-482.966 886.345,-460.333"/>
<polygon fill="#cb10f9" stroke="black" points="888.071,-463.378 895.062,-455.417 884.632,-457.281 888.071,-463.378"/>
</g>
<!-- telereddit_content_type&#45;&gt;telereddit_services_gfycat_service -->
<g id="edge36" class="edge"><title>telereddit_content_type&#45;&gt;telereddit_services_gfycat_service</title><style>.edge>path:hover{stroke-width:8}</style>
<path fill="none" stroke="black" d="M438.068,-589.886C496.393,-587.881 602.025,-578.249 680.819,-537.132 704.621,-524.712 703.59,-512.357 723.819,-494.706 736.474,-483.663 751.029,-472.222 763.796,-462.568"/>
<polygon fill="#cb10f9" stroke="black" points="765.985,-465.3 771.889,-456.503 761.788,-459.699 765.985,-465.3"/>
</g>
<!-- telereddit_services_generic_service -->
<g id="node26" class="node"><title>telereddit_services_generic_service</title><style>.edge>path:hover{stroke-width:8}</style>
<ellipse fill="#9238a8" stroke="black" cx="394.819" cy="-437.492" rx="58.8803" ry="21.4286"/>
<text text-anchor="middle" x="394.819" y="-440.492" font-family="Helvetica,sans-Serif" font-size="10.00" fill="#ffffff">services.</text>
<text text-anchor="middle" x="394.819" y="-429.492" font-family="Helvetica,sans-Serif" font-size="10.00" fill="#ffffff">generic_service</text>
</g>
<!-- telereddit_content_type&#45;&gt;telereddit_services_generic_service -->
<g id="edge35" class="edge"><title>telereddit_content_type&#45;&gt;telereddit_services_generic_service</title><style>.edge>path:hover{stroke-width:8}</style>
<path fill="none" stroke="black" d="M394.819,-573.032C394.819,-547.95 394.819,-500.778 394.819,-469.491"/>
<polygon fill="#cb10f9" stroke="black" points="398.319,-469.149 394.819,-459.149 391.319,-469.149 398.319,-469.149"/>
</g>
<!-- telereddit_helpers&#45;&gt;telereddit_reddit -->
<g id="edge43" class="edge"><title>telereddit_helpers&#45;&gt;telereddit_reddit</title><style>.edge>path:hover{stroke-width:8}</style>
<path fill="none" stroke="black" d="M989.953,-573.419C998.651,-548.739 1014.14,-500.909 1019.82,-458.706 1029.17,-389.175 1028.36,-370.488 1019.82,-300.853 1018.63,-291.134 1016.32,-280.677 1013.91,-271.449"/>
<polygon fill="#b005db" stroke="black" points="1017.24,-270.366 1011.21,-261.657 1010.5,-272.228 1017.24,-270.366"/>
</g>
<!-- telereddit_helpers&#45;&gt;telereddit_telereddit -->
<g id="edge46" class="edge"><title>telereddit_helpers&#45;&gt;telereddit_telereddit</title><style>.edge>path:hover{stroke-width:8}</style>
<path fill="none" stroke="black" d="M996.473,-574.535C1004.4,-564.301 1014.46,-550.402 1021.82,-537.132 1111.9,-374.594 1060.57,-292.105 1180.82,-150.426 1195.93,-132.622 1218.15,-118.746 1236.86,-109.234"/>
<polygon fill="#b005db" stroke="black" points="1238.52,-112.314 1245.98,-104.789 1235.46,-106.021 1238.52,-112.314"/>
</g>
<!-- telereddit_linker -->
<g id="node15" class="node"><title>telereddit_linker</title><style>.edge>path:hover{stroke-width:8}</style>
<ellipse fill="#853399" stroke="black" cx="1216.82" cy="-168.426" rx="27" ry="18"/>
<text text-anchor="middle" x="1216.82" y="-165.926" font-family="Helvetica,sans-Serif" font-size="10.00" fill="#ffffff">linker</text>
</g>
<!-- telereddit_helpers&#45;&gt;telereddit_linker -->
<g id="edge42" class="edge"><title>telereddit_helpers&#45;&gt;telereddit_linker</title><style>.edge>path:hover{stroke-width:8}</style>
<path fill="none" stroke="black" d="M1009.97,-583.708C1034.73,-576.356 1071.38,-561.994 1093.82,-537.132 1149.89,-475.018 1157.82,-443.745 1157.82,-360.066 1157.82,-360.066 1157.82,-360.066 1157.82,-300.853 1157.82,-260.134 1181.68,-218.052 1199.05,-192.809"/>
<polygon fill="#b005db" stroke="black" points="1201.94,-194.791 1204.88,-184.612 1196.23,-190.736 1201.94,-194.791"/>
</g>
<!-- telereddit_helpers&#45;&gt;telereddit_services_vreddit_service -->
<g id="edge44" class="edge"><title>telereddit_helpers&#45;&gt;telereddit_services_vreddit_service</title><style>.edge>path:hover{stroke-width:8}</style>
<path fill="none" stroke="black" d="M955.42,-589.557C874.684,-587.432 645.738,-577.871 584.819,-537.132 560.759,-521.042 545.58,-491.113 536.991,-468.426"/>
<polygon fill="#b005db" stroke="black" points="540.251,-467.148 533.603,-458.898 533.655,-469.493 540.251,-467.148"/>
</g>
<!-- telereddit_helpers&#45;&gt;telereddit_services_youtube_service -->
<g id="edge45" class="edge"><title>telereddit_helpers&#45;&gt;telereddit_services_youtube_service</title><style>.edge>path:hover{stroke-width:8}</style>
<path fill="none" stroke="black" d="M961.755,-579.709C909.401,-554.977 776.847,-492.359 707.17,-459.444"/>
<polygon fill="#b005db" stroke="black" points="708.308,-456.11 697.771,-455.004 705.318,-462.44 708.308,-456.11"/>
</g>
<!-- telereddit_helpers&#45;&gt;telereddit_tests_test_helpers -->
<g id="edge47" class="edge"><title>telereddit_helpers&#45;&gt;telereddit_tests_test_helpers</title><style>.edge>path:hover{stroke-width:8}</style>
<path fill="none" stroke="black" d="M956.026,-587.623C886.578,-581.17 699.972,-562.688 545.819,-537.132 394.052,-511.971 216.808,-471.428 130.854,-451.045"/>
<polygon fill="#b005db" stroke="black" points="131.619,-447.63 121.08,-448.721 129.999,-454.44 131.619,-447.63"/>
</g>
<!-- telereddit_services_services_wrapper -->
<g id="node8" class="node"><title>telereddit_services_services_wrapper</title><style>.edge>path:hover{stroke-width:8}</style>
<ellipse fill="#84269b" stroke="black" cx="662.819" cy="-359.066" rx="64.1938" ry="21.4286"/>
<text text-anchor="middle" x="662.819" y="-362.066" font-family="Helvetica,sans-Serif" font-size="10.00" fill="#ffffff">services.</text>
<text text-anchor="middle" x="662.819" y="-351.066" font-family="Helvetica,sans-Serif" font-size="10.00" fill="#ffffff">services_wrapper</text>
</g>
<!-- telereddit_services_services_wrapper&#45;&gt;telereddit_tests_test_services -->
<g id="edge62" class="edge"><title>telereddit_services_services_wrapper&#45;&gt;telereddit_tests_test_services</title><style>.edge>path:hover{stroke-width:8}</style>
<path fill="none" stroke="black" d="M662.819,-337.788C662.819,-320.395 662.819,-295.074 662.819,-275.221"/>
<polygon fill="#84269b" stroke="black" points="666.319,-275.125 662.819,-265.125 659.319,-275.125 666.319,-275.125"/>
</g>
<!-- telereddit_services_services_wrapper&#45;&gt;telereddit_reddit -->
<g id="edge61" class="edge"><title>telereddit_services_services_wrapper&#45;&gt;telereddit_reddit</title><style>.edge>path:hover{stroke-width:8}</style>
<path fill="none" stroke="black" d="M706.958,-343.47C776.544,-320.458 910.217,-276.254 972.436,-255.679"/>
<polygon fill="#84269b" stroke="black" points="973.744,-258.933 982.14,-252.47 971.546,-252.287 973.744,-258.933"/>
</g>
<!-- telereddit_reddit&#45;&gt;telereddit_tests_test_reddit -->
<g id="edge50" class="edge"><title>telereddit_reddit&#45;&gt;telereddit_tests_test_reddit</title><style>.edge>path:hover{stroke-width:8}</style>
<path fill="none" stroke="black" d="M980.455,-236.73C884.817,-214.445 545.02,-135.27 417.575,-105.574"/>
<polygon fill="#7d2493" stroke="black" points="418.231,-102.133 407.698,-103.272 416.642,-108.95 418.231,-102.133"/>
</g>
<!-- telereddit_reddit&#45;&gt;telereddit_linker -->
<g id="edge49" class="edge"><title>telereddit_reddit&#45;&gt;telereddit_linker</title><style>.edge>path:hover{stroke-width:8}</style>
<path fill="none" stroke="black" d="M1029.21,-234.525C1066.75,-221.496 1140.62,-195.866 1183.62,-180.947"/>
<polygon fill="#7d2493" stroke="black" points="1185.03,-184.162 1193.33,-177.578 1182.73,-177.549 1185.03,-184.162"/>
</g>
<!-- telereddit_config -->
<g id="node11" class="node"><title>telereddit_config</title><style>.edge>path:hover{stroke-width:8}</style>
<ellipse fill="#cb10f9" stroke="black" cx="1136.82" cy="-663.132" rx="27" ry="18"/>
<text text-anchor="middle" x="1136.82" y="-660.632" font-family="Helvetica,sans-Serif" font-size="10.00" fill="#ffffff">config</text>
</g>
<!-- telereddit_config&#45;&gt;telereddit_helpers -->
<g id="edge16" class="edge"><title>telereddit_config&#45;&gt;telereddit_helpers</title><style>.edge>path:hover{stroke-width:8}</style>
<path fill="none" stroke="black" d="M1115.22,-652.251C1089.13,-640.315 1045.04,-620.141 1015.2,-606.488"/>
<polygon fill="#cb10f9" stroke="black" points="1016.6,-603.281 1006.05,-602.303 1013.69,-609.647 1016.6,-603.281"/>
</g>
<!-- telereddit_config&#45;&gt;telereddit_reddit -->
<g id="edge18" class="edge"><title>telereddit_config&#45;&gt;telereddit_reddit</title><style>.edge>path:hover{stroke-width:8}</style>
<path fill="none" stroke="black" d="M1133.31,-644.991C1129.55,-627.011 1123.25,-597.968 1116.82,-573.132 1085.2,-451.032 1085.34,-417.275 1036.82,-300.853 1032.34,-290.095 1026.34,-278.745 1020.82,-269.083"/>
<polygon fill="#cb10f9" stroke="black" points="1023.81,-267.267 1015.74,-260.411 1017.77,-270.807 1023.81,-267.267"/>
</g>
<!-- telereddit_config&#45;&gt;telereddit_telereddit -->
<g id="edge21" class="edge"><title>telereddit_config&#45;&gt;telereddit_telereddit</title><style>.edge>path:hover{stroke-width:8}</style>
<path fill="none" stroke="black" d="M1152.7,-648.556C1163.68,-638.53 1178.01,-624.081 1187.82,-609.132 1224.86,-552.648 1271.82,-364.843 1271.82,-360.066 1271.82,-360.066 1271.82,-360.066 1271.82,-242.64 1271.82,-200.412 1271.82,-151.426 1271.82,-121.638"/>
<polygon fill="#cb10f9" stroke="black" points="1275.32,-121.58 1271.82,-111.58 1268.32,-121.58 1275.32,-121.58"/>
</g>
<!-- telereddit_config&#45;&gt;telereddit_linker -->
<g id="edge17" class="edge"><title>telereddit_config&#45;&gt;telereddit_linker</title><style>.edge>path:hover{stroke-width:8}</style>
<path fill="none" stroke="black" d="M1145.94,-646.021C1170.09,-601.824 1233.82,-474.356 1233.82,-360.066 1233.82,-360.066 1233.82,-360.066 1233.82,-300.853 1233.82,-264.455 1227.33,-222.851 1222.37,-196.377"/>
<polygon fill="#cb10f9" stroke="black" points="1225.76,-195.501 1220.42,-186.349 1218.89,-196.832 1225.76,-195.501"/>
</g>
<!-- telereddit_config&#45;&gt;telereddit_services_imgur_service -->
<g id="edge20" class="edge"><title>telereddit_config&#45;&gt;telereddit_services_imgur_service</title><style>.edge>path:hover{stroke-width:8}</style>
<path fill="none" stroke="black" d="M1130.17,-645.588C1122.35,-627.092 1108.34,-596.653 1091.82,-573.132 1064.28,-533.914 1055.18,-524.716 1017.82,-494.706 1001.56,-481.645 981.975,-469.456 964.901,-459.79"/>
<polygon fill="#cb10f9" stroke="black" points="966.154,-456.483 955.711,-454.691 962.757,-462.603 966.154,-456.483"/>
</g>
<!-- telereddit_config&#45;&gt;telereddit_services_gfycat_service -->
<g id="edge19" class="edge"><title>telereddit_config&#45;&gt;telereddit_services_gfycat_service</title><style>.edge>path:hover{stroke-width:8}</style>
<path fill="none" stroke="black" d="M1120.36,-648.549C1098.26,-630.543 1057.54,-598.134 1020.82,-573.132 958.014,-530.365 881.524,-485.936 836.129,-460.32"/>
<polygon fill="#cb10f9" stroke="black" points="837.635,-457.152 827.204,-455.3 834.204,-463.253 837.635,-457.152"/>
</g>
<!-- telereddit___main__ -->
<g id="node13" class="node"><title>telereddit___main__</title><style>.edge>path:hover{stroke-width:8}</style>
<ellipse fill="#9849ac" stroke="black" cx="1271.82" cy="-18" rx="34.9638" ry="18"/>
<text text-anchor="middle" x="1271.82" y="-15.5" font-family="Helvetica,sans-Serif" font-size="10.00" fill="#ffffff">__main__</text>
</g>
<!-- telereddit_telereddit&#45;&gt;telereddit___main__ -->
<g id="edge65" class="edge"><title>telereddit_telereddit&#45;&gt;telereddit___main__</title><style>.edge>path:hover{stroke-width:8}</style>
<path fill="none" stroke="black" d="M1271.82,-74.8627C1271.82,-66.3831 1271.82,-55.9765 1271.82,-46.4531"/>
<polygon fill="#632673" stroke="black" points="1275.32,-46.2259 1271.82,-36.226 1268.32,-46.226 1275.32,-46.2259"/>
</g>
<!-- telereddit_linker&#45;&gt;telereddit_telereddit -->
<g id="edge48" class="edge"><title>telereddit_linker&#45;&gt;telereddit_telereddit</title><style>.edge>path:hover{stroke-width:8}</style>
<path fill="none" stroke="black" d="M1228.48,-151.9C1235.82,-142.133 1245.44,-129.329 1253.75,-118.265"/>
<polygon fill="#853399" stroke="black" points="1256.58,-120.321 1259.79,-110.224 1250.99,-116.117 1256.58,-120.321"/>
</g>
<!-- telereddit_services -->
<g id="node16" class="node"><title>telereddit_services</title><style>.edge>path:hover{stroke-width:8}</style>
<ellipse fill="#cb10f9" stroke="black" cx="852.819" cy="-359.066" rx="30.7213" ry="18"/>
<text text-anchor="middle" x="852.819" y="-356.566" font-family="Helvetica,sans-Serif" font-size="10.00" fill="#ffffff">services</text>
</g>
<!-- telereddit_services&#45;&gt;telereddit_tests_test_services -->
<g id="edge52" class="edge"><title>telereddit_services&#45;&gt;telereddit_tests_test_services</title><style>.edge>path:hover{stroke-width:8}</style>
<path fill="none" stroke="black" d="M832.124,-345.711C800.514,-326.841 739.726,-290.551 700.242,-266.981"/>
<polygon fill="#cb10f9" stroke="black" points="701.563,-263.693 691.183,-261.572 697.975,-269.703 701.563,-263.693"/>
</g>
<!-- telereddit_services&#45;&gt;telereddit_reddit -->
<g id="edge51" class="edge"><title>telereddit_services&#45;&gt;telereddit_reddit</title><style>.edge>path:hover{stroke-width:8}</style>
<path fill="none" stroke="black" d="M871.274,-344.384C898.445,-324.241 949.314,-286.529 980.122,-263.69"/>
<polygon fill="#cb10f9" stroke="black" points="982.295,-266.436 988.243,-257.669 978.126,-260.813 982.295,-266.436"/>
</g>
<!-- telereddit_services_vreddit_service&#45;&gt;telereddit_services_services_wrapper -->
<g id="edge63" class="edge"><title>telereddit_services_vreddit_service&#45;&gt;telereddit_services_services_wrapper</title><style>.edge>path:hover{stroke-width:8}</style>
<path fill="none" stroke="black" d="M558.116,-419.341C577.212,-408.53 602.086,-394.448 622.798,-382.723"/>
<polygon fill="#853399" stroke="black" points="624.709,-385.663 631.687,-377.69 621.26,-379.571 624.709,-385.663"/>
</g>
<!-- telereddit_services_youtube_service&#45;&gt;telereddit_services_services_wrapper -->
<g id="edge64" class="edge"><title>telereddit_services_youtube_service&#45;&gt;telereddit_services_services_wrapper</title><style>.edge>path:hover{stroke-width:8}</style>
<path fill="none" stroke="black" d="M662.819,-416.012C662.819,-408.153 662.819,-399.009 662.819,-390.418"/>
<polygon fill="#8b35a1" stroke="black" points="666.319,-390.338 662.819,-380.338 659.319,-390.338 666.319,-390.338"/>
</g>
<!-- telereddit_services_imgur_service&#45;&gt;telereddit_services_services_wrapper -->
<g id="edge55" class="edge"><title>telereddit_services_imgur_service&#45;&gt;telereddit_services_services_wrapper</title><style>.edge>path:hover{stroke-width:8}</style>
<path fill="none" stroke="black" d="M883.552,-423.349C876.012,-420.952 868.186,-418.506 860.819,-416.279 813.835,-402.077 760.267,-386.932 720.707,-375.944"/>
<polygon fill="#7e3091" stroke="black" points="721.535,-372.542 710.964,-373.244 719.665,-379.288 721.535,-372.542"/>
</g>
<!-- telereddit_services_gfycat_service&#45;&gt;telereddit_services_services_wrapper -->
<g id="edge54" class="edge"><title>telereddit_services_gfycat_service&#45;&gt;telereddit_services_services_wrapper</title><style>.edge>path:hover{stroke-width:8}</style>
<path fill="none" stroke="black" d="M767.08,-419.531C748.139,-408.728 723.374,-394.603 702.732,-382.83"/>
<polygon fill="#7e3091" stroke="black" points="704.292,-379.691 693.872,-377.777 700.824,-385.771 704.292,-379.691"/>
</g>
<!-- telereddit_services_service&#45;&gt;telereddit_services_vreddit_service -->
<g id="edge59" class="edge"><title>telereddit_services_service&#45;&gt;telereddit_services_vreddit_service</title><style>.edge>path:hover{stroke-width:8}</style>
<path fill="none" stroke="black" d="M610.294,-498.523C595.926,-488.065 577.054,-474.329 560.988,-462.635"/>
<polygon fill="#c50cf3" stroke="black" points="563.026,-459.79 552.882,-456.735 558.907,-465.449 563.026,-459.79"/>
</g>
<!-- telereddit_services_service&#45;&gt;telereddit_services_youtube_service -->
<g id="edge60" class="edge"><title>telereddit_services_service&#45;&gt;telereddit_services_youtube_service</title><style>.edge>path:hover{stroke-width:8}</style>
<path fill="none" stroke="black" d="M640.701,-494.839C643.914,-486.654 647.694,-477.025 651.211,-468.064"/>
<polygon fill="#c50cf3" stroke="black" points="654.489,-469.291 654.885,-458.704 647.973,-466.733 654.489,-469.291"/>
</g>
<!-- telereddit_services_service&#45;&gt;telereddit_services_imgur_service -->
<g id="edge58" class="edge"><title>telereddit_services_service&#45;&gt;telereddit_services_imgur_service</title><style>.edge>path:hover{stroke-width:8}</style>
<path fill="none" stroke="black" d="M668.169,-506.998C713.158,-496.735 793.157,-477.877 860.819,-458.706 865.164,-457.475 869.66,-456.145 874.158,-454.776"/>
<polygon fill="#c50cf3" stroke="black" points="875.437,-458.044 883.952,-451.74 873.364,-451.358 875.437,-458.044"/>
</g>
<!-- telereddit_services_service&#45;&gt;telereddit_services_gfycat_service -->
<g id="edge57" class="edge"><title>telereddit_services_service&#45;&gt;telereddit_services_gfycat_service</title><style>.edge>path:hover{stroke-width:8}</style>
<path fill="none" stroke="black" d="M661.761,-501.431C687.235,-489.56 724.68,-472.11 753.685,-458.594"/>
<polygon fill="#c50cf3" stroke="black" points="755.194,-461.752 762.78,-454.355 752.237,-455.407 755.194,-461.752"/>
</g>
<!-- telereddit_services_service&#45;&gt;telereddit_services_generic_service -->
<g id="edge56" class="edge"><title>telereddit_services_service&#45;&gt;telereddit_services_generic_service</title><style>.edge>path:hover{stroke-width:8}</style>
<path fill="none" stroke="black" d="M599.726,-504.292C560.256,-491.618 493.788,-470.273 447.289,-455.342"/>
<polygon fill="#c50cf3" stroke="black" points="448.278,-451.983 437.686,-452.258 446.138,-458.648 448.278,-451.983"/>
</g>
<!-- telereddit_services_generic_service&#45;&gt;telereddit_services_services_wrapper -->
<g id="edge53" class="edge"><title>telereddit_services_generic_service&#45;&gt;telereddit_services_services_wrapper</title><style>.edge>path:hover{stroke-width:8}</style>
<path fill="none" stroke="black" d="M438.39,-423.208C446.184,-420.871 454.235,-418.483 461.819,-416.279 509.934,-402.295 564.716,-387.017 604.923,-375.922"/>
<polygon fill="#9238a8" stroke="black" points="606.108,-379.227 614.819,-373.195 604.248,-372.478 606.108,-379.227"/>
</g>
<!-- telereddit_config_config -->
<g id="node27" class="node"><title>telereddit_config_config</title><style>.edge>path:hover{stroke-width:8}</style>
<ellipse fill="#c806f9" stroke="black" cx="1307.82" cy="-738.345" rx="41.5911" ry="18"/>
<text text-anchor="middle" x="1307.82" y="-735.845" font-family="Helvetica,sans-Serif" font-size="10.00" fill="#ffffff">config.config</text>
</g>
<!-- telereddit_config_config&#45;&gt;telereddit_helpers -->
<g id="edge22" class="edge"><title>telereddit_config_config&#45;&gt;telereddit_helpers</title><style>.edge>path:hover{stroke-width:8}</style>
<path fill="none" stroke="black" d="M1267.42,-733.618C1199.17,-726.619 1064.88,-709.594 1027.82,-681.132 1007.91,-665.845 996.416,-639.153 990.203,-618.976"/>
<polygon fill="#c806f9" stroke="black" points="993.504,-617.787 987.419,-609.114 986.767,-619.689 993.504,-617.787"/>
</g>
<!-- telereddit_config_config&#45;&gt;telereddit_reddit -->
<g id="edge24" class="edge"><title>telereddit_config_config&#45;&gt;telereddit_reddit</title><style>.edge>path:hover{stroke-width:8}</style>
<path fill="none" stroke="black" d="M1302.53,-720.328C1286.66,-670.754 1236.17,-523.202 1165.82,-416.279 1125.6,-355.158 1063.06,-295.318 1029.32,-265.044"/>
<polygon fill="#c806f9" stroke="black" points="1031.58,-262.375 1021.78,-258.348 1026.93,-267.607 1031.58,-262.375"/>
</g>
<!-- telereddit_config_config&#45;&gt;telereddit_telereddit -->
<g id="edge27" class="edge"><title>telereddit_config_config&#45;&gt;telereddit_telereddit</title><style>.edge>path:hover{stroke-width:8}</style>
<path fill="none" stroke="black" d="M1340.17,-726.715C1390,-708.07 1479.82,-664.43 1479.82,-592.132 1479.82,-592.132 1479.82,-592.132 1479.82,-242.64 1479.82,-161.073 1372.53,-120.108 1312.06,-103.498"/>
<polygon fill="#c806f9" stroke="black" points="1312.63,-100.028 1302.06,-100.857 1310.84,-106.796 1312.63,-100.028"/>
</g>
<!-- telereddit_config_config&#45;&gt;telereddit_linker -->
<g id="edge23" class="edge"><title>telereddit_config_config&#45;&gt;telereddit_linker</title><style>.edge>path:hover{stroke-width:8}</style>
<path fill="none" stroke="black" d="M1308.54,-720.007C1310.51,-664.049 1314.1,-483.432 1285.82,-337.853 1275.06,-282.438 1268.22,-269.011 1244.82,-217.64 1241.26,-209.836 1236.82,-201.659 1232.52,-194.302"/>
<polygon fill="#c806f9" stroke="black" points="1235.39,-192.279 1227.24,-185.512 1229.39,-195.886 1235.39,-192.279"/>
</g>
<!-- telereddit_config_config&#45;&gt;telereddit_services_imgur_service -->
<g id="edge26" class="edge"><title>telereddit_config_config&#45;&gt;telereddit_services_imgur_service</title><style>.edge>path:hover{stroke-width:8}</style>
<path fill="none" stroke="black" d="M1266.73,-734.247C1222.36,-729.172 1151.28,-715.866 1100.82,-681.132 1098.11,-679.27 989.986,-529.982 944.087,-466.528"/>
<polygon fill="#c806f9" stroke="black" points="946.737,-464.22 938.041,-458.168 941.065,-468.322 946.737,-464.22"/>
</g>
<!-- telereddit_config_config&#45;&gt;telereddit_services_gfycat_service -->
<g id="edge25" class="edge"><title>telereddit_config_config&#45;&gt;telereddit_services_gfycat_service</title><style>.edge>path:hover{stroke-width:8}</style>
<path fill="none" stroke="black" d="M1267.34,-733.627C1193.34,-726.259 1039.61,-708.146 993.819,-681.132 904.727,-628.573 839.081,-519.741 811.365,-467.591"/>
<polygon fill="#c806f9" stroke="black" points="814.369,-465.781 806.635,-458.539 808.165,-469.023 814.369,-465.781"/>
</g>
<!-- telereddit_config_secret_dev&#45;&gt;telereddit_config_secret_github -->
<g id="edge32" class="edge"><title>telereddit_config_secret_dev&#45;&gt;telereddit_config_secret_github</title><style>.edge>path:hover{stroke-width:8}</style>
<path fill="none" stroke="black" d="M1774.48,-880.046C1760.33,-869.649 1742.07,-856.227 1726.5,-844.784"/>
<polygon fill="#a02fbc" stroke="black" points="1728.3,-841.764 1718.17,-838.663 1724.15,-847.405 1728.3,-841.764"/>
</g>
<!-- telereddit_config_secret_dev&#45;&gt;telereddit_config_secret_prod -->
<g id="edge33" class="edge"><title>telereddit_config_secret_dev&#45;&gt;telereddit_config_secret_prod</title><style>.edge>path:hover{stroke-width:8}</style>
<path fill="none" stroke="black" d="M1807.28,-877.118C1811.2,-868.781 1815.84,-858.944 1820.13,-849.843"/>
<polygon fill="#a02fbc" stroke="black" points="1823.33,-851.256 1824.42,-840.718 1817,-848.273 1823.33,-851.256"/>
</g>
<!-- telegram -->
<g id="node29" class="node"><title>telegram</title><style>.edge>path:hover{stroke-width:8}</style>
<polygon fill="#106df9" stroke="black" points="1544.82,-991.411 1541.82,-995.411 1520.82,-995.411 1517.82,-991.411 1490.82,-991.411 1490.82,-955.411 1544.82,-955.411 1544.82,-991.411"/>
<text text-anchor="middle" x="1517.82" y="-970.911" font-family="Helvetica,sans-Serif" font-size="10.00" fill="#ffffff">telegram</text>
</g>
<!-- telegram&#45;&gt;telereddit_telereddit -->
<g id="edge15" class="edge"><title>telegram&#45;&gt;telereddit_telereddit</title><style>.edge>path:hover{stroke-width:8}</style>
<path fill="none" stroke="black" d="M1525.15,-955.024C1536.19,-927.199 1555.82,-870.71 1555.82,-820.772 1555.82,-820.772 1555.82,-820.772 1555.82,-242.64 1555.82,-135.089 1393.86,-105.332 1314.56,-97.2074"/>
<polygon fill="#106df9" stroke="black" points="1314.68,-93.7037 1304.4,-96.2388 1314.02,-100.672 1314.68,-93.7037"/>
</g>
<!-- telegram&#45;&gt;telereddit_linker -->
<g id="edge14" class="edge"><title>telegram&#45;&gt;telereddit_linker</title><style>.edge>path:hover{stroke-width:8}</style>
<path fill="none" stroke="black" d="M1517.82,-955.128C1517.82,-926.978 1517.82,-869.475 1517.82,-820.772 1517.82,-820.772 1517.82,-820.772 1517.82,-358.066 1517.82,-283.701 1427.18,-331.572 1363.82,-292.64 1319.75,-265.559 1314.49,-250.84 1274.82,-217.64 1263.73,-208.356 1251.41,-198.106 1240.99,-189.454"/>
<polygon fill="#106df9" stroke="black" points="1243.02,-186.598 1233.09,-182.906 1238.55,-191.985 1243.02,-186.598"/>
</g>
<!-- telegram&#45;&gt;telereddit_config_config -->
<g id="edge13" class="edge"><title>telegram&#45;&gt;telereddit_config_config</title><style>.edge>path:hover{stroke-width:8}</style>
<path fill="none" stroke="black" d="M1502.38,-955.273C1465.31,-914.132 1371.23,-809.726 1328.96,-762.808"/>
<polygon fill="#106df9" stroke="black" points="1331.46,-760.352 1322.16,-755.266 1326.26,-765.038 1331.46,-760.352"/>
</g>
</g>
</svg>
