<?xml version="1.0" encoding="UTF-8" standalone="no"?>
<!DOCTYPE svg PUBLIC "-//W3C//DTD SVG 1.1//EN"
 "http://www.w3.org/Graphics/SVG/1.1/DTD/svg11.dtd">
<!-- Generated by graphviz version 2.38.0 (20140413.2041)
 -->
<!-- Title: G Pages: 1 -->
<svg width="1851pt" height="999pt"
 viewBox="0.00 0.00 1851.11 999.41" xmlns="http://www.w3.org/2000/svg" xmlns:xlink="http://www.w3.org/1999/xlink">
<g id="graph0" class="graph" transform="scale(1 1) rotate(0) translate(4 995.411)">
<title>G</title><style>.edge>path:hover{stroke-width:8}</style>
<polygon fill="white" stroke="none" points="-4,4 -4,-995.411 1847.11,-995.411 1847.11,4 -4,4"/>
<g id="clust1" class="cluster"><title>cluster_parameterized</title><style>.edge>path:hover{stroke-width:8}</style>
<polygon fill="none" stroke="black" points="9.03031,-637.132 9.03031,-790.558 139.03,-790.558 139.03,-637.132 9.03031,-637.132"/>
<text text-anchor="middle" x="74.0303" y="-775.358" font-family="Times New Roman,serif" font-size="14.00">parameterized</text>
</g>
<g id="clust3" class="cluster"><title>cluster_sentrysdk</title><style>.edge>path:hover{stroke-width:8}</style>
<polygon fill="none" stroke="black" points="1374.03,-217.64 1374.03,-292.64 1466.03,-292.64 1466.03,-217.64 1374.03,-217.64"/>
<text text-anchor="middle" x="1420.03" y="-277.44" font-family="Times New Roman,serif" font-size="14.00">sentrysdk</text>
</g>
<g id="clust2" class="cluster"><title>cluster_requests</title><style>.edge>path:hover{stroke-width:8}</style>
<polygon fill="none" stroke="black" points="562.03,-712.345 562.03,-787.345 642.03,-787.345 642.03,-712.345 562.03,-712.345"/>
<text text-anchor="middle" x="602.03" y="-772.145" font-family="Times New Roman,serif" font-size="14.00">requests</text>
</g>
<!-- parameterized_parameterized -->
<g id="node1" class="node"><title>parameterized_parameterized</title><style>.edge>path:hover{stroke-width:8}</style>
<ellipse fill="#ce3b3b" stroke="black" cx="74.0303" cy="-738.345" rx="57.0522" ry="21.4286"/>
<text text-anchor="middle" x="74.0303" y="-741.345" font-family="Helvetica,sans-Serif" font-size="10.00" fill="#ffffff">parameterized.</text>
<text text-anchor="middle" x="74.0303" y="-730.345" font-family="Helvetica,sans-Serif" font-size="10.00" fill="#ffffff">parameterized</text>
</g>
<!-- parameterized -->
<g id="node2" class="node"><title>parameterized</title><style>.edge>path:hover{stroke-width:8}</style>
<ellipse fill="#c04040" stroke="black" cx="74.0303" cy="-663.132" rx="45.8316" ry="18"/>
<text text-anchor="middle" x="74.0303" y="-660.632" font-family="Helvetica,sans-Serif" font-size="10.00" fill="#ffffff">parameterized</text>
</g>
<!-- parameterized_parameterized&#45;&gt;parameterized -->
<g id="edge3" class="edge"><title>parameterized_parameterized&#45;&gt;parameterized</title><style>.edge>path:hover{stroke-width:8}</style>
<path fill="none" stroke="black" d="M74.0303,-716.951C74.0303,-709.097 74.0303,-699.996 74.0303,-691.583"/>
<polygon fill="#000000" stroke="black" points="77.5304,-691.442 74.0303,-681.442 70.5304,-691.442 77.5304,-691.442"/>
</g>
<!-- telereddit_tests_test_helpers -->
<g id="node25" class="node"><title>telereddit_tests_test_helpers</title><style>.edge>path:hover{stroke-width:8}</style>
<ellipse fill="#8b439d" stroke="black" cx="123.03" cy="-437.492" rx="49.4949" ry="21.4286"/>
<text text-anchor="middle" x="123.03" y="-440.492" font-family="Helvetica,sans-Serif" font-size="10.00" fill="#ffffff">tests.</text>
<text text-anchor="middle" x="123.03" y="-429.492" font-family="Helvetica,sans-Serif" font-size="10.00" fill="#ffffff">test_helpers</text>
</g>
<!-- parameterized_parameterized&#45;&gt;telereddit_tests_test_helpers -->
<g id="edge4" class="edge"><title>parameterized_parameterized&#45;&gt;telereddit_tests_test_helpers</title><style>.edge>path:hover{stroke-width:8}</style>
<path fill="none" stroke="black" d="M138.825,-649.79C153.899,-584.057 140.884,-509.15 131.206,-468.537"/>
<polygon fill="#000000" stroke="black" points="134.556,-467.504 128.751,-458.641 127.762,-469.19 134.556,-467.504"/>
</g>
<!-- telereddit_tests_test_services -->
<g id="node27" class="node"><title>telereddit_tests_test_services</title><style>.edge>path:hover{stroke-width:8}</style>
<ellipse fill="#7e3d8f" stroke="black" cx="546.03" cy="-243.64" rx="52.1524" ry="21.4286"/>
<text text-anchor="middle" x="546.03" y="-246.64" font-family="Helvetica,sans-Serif" font-size="10.00" fill="#ffffff">tests.</text>
<text text-anchor="middle" x="546.03" y="-235.64" font-family="Helvetica,sans-Serif" font-size="10.00" fill="#ffffff">test_services</text>
</g>
<!-- parameterized_parameterized&#45;&gt;telereddit_tests_test_services -->
<g id="edge5" class="edge"><title>parameterized_parameterized&#45;&gt;telereddit_tests_test_services</title><style>.edge>path:hover{stroke-width:8}</style>
<path fill="none" stroke="black" d="M9.04166,-660.479C-0.0436841,-638.524 0.0303066,-623.731 0.0303066,-592.132 0.0303066,-592.132 0.0303066,-592.132 0.0303066,-358.066 0.0303066,-324.296 20.1189,-316.528 50.0303,-300.853 123.983,-262.097 367.604,-249.836 483.588,-246.142"/>
<polygon fill="#000000" stroke="black" points="483.845,-249.636 493.733,-245.831 483.63,-242.639 483.845,-249.636"/>
</g>
<!-- parameterized&#45;&gt;telereddit_tests_test_helpers -->
<g id="edge1" class="edge"><title>parameterized&#45;&gt;telereddit_tests_test_helpers</title><style>.edge>path:hover{stroke-width:8}</style>
<path fill="none" stroke="black" d="M79.4754,-637.28C88.5101,-596.045 106.571,-513.613 116.358,-468.947"/>
<polygon fill="#000000" stroke="black" points="119.834,-469.433 118.556,-458.916 112.996,-467.935 119.834,-469.433"/>
</g>
<!-- parameterized&#45;&gt;telereddit_tests_test_services -->
<g id="edge2" class="edge"><title>parameterized&#45;&gt;telereddit_tests_test_services</title><style>.edge>path:hover{stroke-width:8}</style>
<path fill="none" stroke="black" d="M66.2714,-637.37C57.9848,-608.687 46.0303,-559.866 46.0303,-516.919 46.0303,-516.919 46.0303,-516.919 46.0303,-358.066 46.0303,-269.363 349.097,-250.027 483.328,-245.813"/>
<polygon fill="#000000" stroke="black" points="483.574,-249.308 493.467,-245.514 483.368,-242.311 483.574,-249.308"/>
</g>
<!-- requests -->
<g id="node3" class="node"><title>requests</title><style>.edge>path:hover{stroke-width:8}</style>
<ellipse fill="#c8f906" stroke="black" cx="602.03" cy="-738.345" rx="31.577" ry="18"/>
<text text-anchor="middle" x="602.03" y="-735.845" font-family="Helvetica,sans-Serif" font-size="10.00" fill="#000000">requests</text>
</g>
<!-- telereddit_services_imgur_service -->
<g id="node5" class="node"><title>telereddit_services_imgur_service</title><style>.edge>path:hover{stroke-width:8}</style>
<ellipse fill="#7e3091" stroke="black" cx="244.03" cy="-437.492" rx="53.9813" ry="21.4286"/>
<text text-anchor="middle" x="244.03" y="-440.492" font-family="Helvetica,sans-Serif" font-size="10.00" fill="#ffffff">services.</text>
<text text-anchor="middle" x="244.03" y="-429.492" font-family="Helvetica,sans-Serif" font-size="10.00" fill="#ffffff">imgur_service</text>
</g>
<!-- requests&#45;&gt;telereddit_services_imgur_service -->
<g id="edge9" class="edge"><title>requests&#45;&gt;telereddit_services_imgur_service</title><style>.edge>path:hover{stroke-width:8}</style>
<path fill="none" stroke="black" d="M562.261,-737.459C483.254,-735.263 307.485,-717.753 230.03,-609.132 200.374,-567.543 216.841,-504.899 230.872,-468.207"/>
<polygon fill="#000000" stroke="black" points="234.256,-469.169 234.724,-458.585 227.758,-466.567 234.256,-469.169"/>
</g>
<!-- telereddit_reddit -->
<g id="node6" class="node"><title>telereddit_reddit</title><style>.edge>path:hover{stroke-width:8}</style>
<ellipse fill="#7d2493" stroke="black" cx="957.03" cy="-243.64" rx="27" ry="18"/>
<text text-anchor="middle" x="957.03" y="-241.14" font-family="Helvetica,sans-Serif" font-size="10.00" fill="#ffffff">reddit</text>
</g>
<!-- requests&#45;&gt;telereddit_reddit -->
<g id="edge7" class="edge"><title>requests&#45;&gt;telereddit_reddit</title><style>.edge>path:hover{stroke-width:8}</style>
<path fill="none" stroke="black" d="M641.871,-736.527C751.603,-733.757 1056.05,-722.455 1146.03,-681.132 1198.31,-657.121 1240.03,-649.665 1240.03,-592.132 1240.03,-592.132 1240.03,-592.132 1240.03,-514.919 1240.03,-444.554 1054.75,-311.104 984.021,-262.728"/>
<polygon fill="#000000" stroke="black" points="985.836,-259.729 975.599,-256.999 981.899,-265.517 985.836,-259.729"/>
</g>
<!-- telereddit_services_gfycat_service -->
<g id="node13" class="node"><title>telereddit_services_gfycat_service</title><style>.edge>path:hover{stroke-width:8}</style>
<ellipse fill="#7e3091" stroke="black" cx="891.03" cy="-437.492" rx="55.3091" ry="21.4286"/>
<text text-anchor="middle" x="891.03" y="-440.492" font-family="Helvetica,sans-Serif" font-size="10.00" fill="#ffffff">services.</text>
<text text-anchor="middle" x="891.03" y="-429.492" font-family="Helvetica,sans-Serif" font-size="10.00" fill="#ffffff">gfycat_service</text>
</g>
<!-- requests&#45;&gt;telereddit_services_gfycat_service -->
<g id="edge8" class="edge"><title>requests&#45;&gt;telereddit_services_gfycat_service</title><style>.edge>path:hover{stroke-width:8}</style>
<path fill="none" stroke="black" d="M633.546,-712.459C678.177,-676.407 761.136,-606.362 822.03,-537.132 841.508,-514.988 860.479,-487.284 873.583,-466.879"/>
<polygon fill="#000000" stroke="black" points="876.597,-468.66 878.997,-458.341 870.686,-464.911 876.597,-468.66"/>
</g>
<!-- telereddit_services_vreddit_service -->
<g id="node15" class="node"><title>telereddit_services_vreddit_service</title><style>.edge>path:hover{stroke-width:8}</style>
<ellipse fill="#853399" stroke="black" cx="546.03" cy="-437.492" rx="56.6372" ry="21.4286"/>
<text text-anchor="middle" x="546.03" y="-440.492" font-family="Helvetica,sans-Serif" font-size="10.00" fill="#ffffff">services.</text>
<text text-anchor="middle" x="546.03" y="-429.492" font-family="Helvetica,sans-Serif" font-size="10.00" fill="#ffffff">vreddit_service</text>
</g>
<!-- requests&#45;&gt;telereddit_services_vreddit_service -->
<g id="edge11" class="edge"><title>requests&#45;&gt;telereddit_services_vreddit_service</title><style>.edge>path:hover{stroke-width:8}</style>
<path fill="none" stroke="black" d="M584.013,-712.437C558.923,-676.054 514.673,-605.273 498.03,-537.132 493.557,-518.814 491.505,-512.397 498.03,-494.706 502.077,-483.736 509.322,-473.454 516.978,-464.76"/>
<polygon fill="#000000" stroke="black" points="519.742,-466.931 524.044,-457.248 514.643,-462.135 519.742,-466.931"/>
</g>
<!-- telereddit_services_service -->
<g id="node20" class="node"><title>telereddit_services_service</title><style>.edge>path:hover{stroke-width:8}</style>
<ellipse fill="#c50cf3" stroke="black" cx="546.03" cy="-515.919" rx="38.7821" ry="21.4286"/>
<text text-anchor="middle" x="546.03" y="-518.919" font-family="Helvetica,sans-Serif" font-size="10.00" fill="#ffffff">services.</text>
<text text-anchor="middle" x="546.03" y="-507.919" font-family="Helvetica,sans-Serif" font-size="10.00" fill="#ffffff">service</text>
</g>
<!-- requests&#45;&gt;telereddit_services_service -->
<g id="edge10" class="edge"><title>requests&#45;&gt;telereddit_services_service</title><style>.edge>path:hover{stroke-width:8}</style>
<path fill="none" stroke="black" d="M595.71,-712.468C585.353,-671.701 564.806,-590.823 553.656,-546.936"/>
<polygon fill="#000000" stroke="black" points="556.999,-545.879 551.144,-537.048 550.214,-547.602 556.999,-545.879"/>
</g>
<!-- telereddit_helpers -->
<g id="node26" class="node"><title>telereddit_helpers</title><style>.edge>path:hover{stroke-width:8}</style>
<ellipse fill="#b005db" stroke="black" cx="978.03" cy="-591.132" rx="28.0137" ry="18"/>
<text text-anchor="middle" x="978.03" y="-588.632" font-family="Helvetica,sans-Serif" font-size="10.00" fill="#ffffff">helpers</text>
</g>
<!-- requests&#45;&gt;telereddit_helpers -->
<g id="edge6" class="edge"><title>requests&#45;&gt;telereddit_helpers</title><style>.edge>path:hover{stroke-width:8}</style>
<path fill="none" stroke="black" d="M641.583,-734.043C693.698,-728.526 787.265,-714.536 860.03,-681.132 897,-664.161 933.433,-634.078 955.817,-613.632"/>
<polygon fill="#000000" stroke="black" points="958.464,-615.95 963.403,-606.577 953.696,-610.824 958.464,-615.95"/>
</g>
<!-- sentry_sdk -->
<g id="node4" class="node"><title>sentry_sdk</title><style>.edge>path:hover{stroke-width:8}</style>
<ellipse fill="#40c073" stroke="black" cx="1420.03" cy="-243.64" rx="38.0276" ry="18"/>
<text text-anchor="middle" x="1420.03" y="-241.14" font-family="Helvetica,sans-Serif" font-size="10.00" fill="#000000">sentry_sdk</text>
</g>
<!-- telereddit_telereddit -->
<g id="node28" class="node"><title>telereddit_telereddit</title><style>.edge>path:hover{stroke-width:8}</style>
<ellipse fill="#632673" stroke="black" cx="1316.03" cy="-93.2132" rx="32.9303" ry="18"/>
<text text-anchor="middle" x="1316.03" y="-90.7132" font-family="Helvetica,sans-Serif" font-size="10.00" fill="#ffffff">telereddit</text>
</g>
<!-- sentry_sdk&#45;&gt;telereddit_telereddit -->
<g id="edge12" class="edge"><title>sentry_sdk&#45;&gt;telereddit_telereddit</title><style>.edge>path:hover{stroke-width:8}</style>
<path fill="none" stroke="black" d="M1408.26,-218.254C1398.55,-199.099 1383.85,-172.128 1368.03,-150.426 1359.29,-138.442 1348.3,-126.227 1338.67,-116.259"/>
<polygon fill="#000000" stroke="black" points="1341.14,-113.784 1331.63,-109.115 1336.15,-118.696 1341.14,-113.784"/>
</g>
<!-- telereddit_services_services_wrapper -->
<g id="node24" class="node"><title>telereddit_services_services_wrapper</title><style>.edge>path:hover{stroke-width:8}</style>
<ellipse fill="#84269b" stroke="black" cx="546.03" cy="-359.066" rx="64.1938" ry="21.4286"/>
<text text-anchor="middle" x="546.03" y="-362.066" font-family="Helvetica,sans-Serif" font-size="10.00" fill="#ffffff">services.</text>
<text text-anchor="middle" x="546.03" y="-351.066" font-family="Helvetica,sans-Serif" font-size="10.00" fill="#ffffff">services_wrapper</text>
</g>
<!-- telereddit_services_imgur_service&#45;&gt;telereddit_services_services_wrapper -->
<g id="edge55" class="edge"><title>telereddit_services_imgur_service&#45;&gt;telereddit_services_services_wrapper</title><style>.edge>path:hover{stroke-width:8}</style>
<path fill="none" stroke="black" d="M288.267,-425.298C340.692,-412.03 428.27,-389.867 486.584,-375.11"/>
<polygon fill="#7e3091" stroke="black" points="487.562,-378.473 496.398,-372.626 485.845,-371.687 487.562,-378.473"/>
</g>
<!-- telereddit_tests_test_reddit -->
<g id="node11" class="node"><title>telereddit_tests_test_reddit</title><style>.edge>path:hover{stroke-width:8}</style>
<ellipse fill="#9246a4" stroke="black" cx="827.03" cy="-93.2132" rx="43.6818" ry="21.4286"/>
<text text-anchor="middle" x="827.03" y="-96.2132" font-family="Helvetica,sans-Serif" font-size="10.00" fill="#ffffff">tests.</text>
<text text-anchor="middle" x="827.03" y="-85.2132" font-family="Helvetica,sans-Serif" font-size="10.00" fill="#ffffff">test_reddit</text>
</g>
<!-- telereddit_reddit&#45;&gt;telereddit_tests_test_reddit -->
<g id="edge50" class="edge"><title>telereddit_reddit&#45;&gt;telereddit_tests_test_reddit</title><style>.edge>path:hover{stroke-width:8}</style>
<path fill="none" stroke="black" d="M943.85,-227.591C921.925,-202.559 877.681,-152.043 850.378,-120.87"/>
<polygon fill="#7d2493" stroke="black" points="852.713,-118.225 843.492,-113.008 847.448,-122.837 852.713,-118.225"/>
</g>
<!-- telereddit_linker -->
<g id="node17" class="node"><title>telereddit_linker</title><style>.edge>path:hover{stroke-width:8}</style>
<ellipse fill="#853399" stroke="black" cx="1202.03" cy="-168.426" rx="27" ry="18"/>
<text text-anchor="middle" x="1202.03" y="-165.926" font-family="Helvetica,sans-Serif" font-size="10.00" fill="#ffffff">linker</text>
</g>
<!-- telereddit_reddit&#45;&gt;telereddit_linker -->
<g id="edge49" class="edge"><title>telereddit_reddit&#45;&gt;telereddit_linker</title><style>.edge>path:hover{stroke-width:8}</style>
<path fill="none" stroke="black" d="M981.418,-235.352C1025.35,-222.223 1117.88,-194.573 1168.01,-179.592"/>
<polygon fill="#7d2493" stroke="black" points="1169.16,-182.901 1177.74,-176.685 1167.16,-176.194 1169.16,-182.901"/>
</g>
<!-- telereddit_services_generic_service -->
<g id="node7" class="node"><title>telereddit_services_generic_service</title><style>.edge>path:hover{stroke-width:8}</style>
<ellipse fill="#9238a8" stroke="black" cx="413.03" cy="-437.492" rx="58.8803" ry="21.4286"/>
<text text-anchor="middle" x="413.03" y="-440.492" font-family="Helvetica,sans-Serif" font-size="10.00" fill="#ffffff">services.</text>
<text text-anchor="middle" x="413.03" y="-429.492" font-family="Helvetica,sans-Serif" font-size="10.00" fill="#ffffff">generic_service</text>
</g>
<!-- telereddit_services_generic_service&#45;&gt;telereddit_services_services_wrapper -->
<g id="edge53" class="edge"><title>telereddit_services_generic_service&#45;&gt;telereddit_services_services_wrapper</title><style>.edge>path:hover{stroke-width:8}</style>
<path fill="none" stroke="black" d="M443.21,-419.15C461.903,-408.408 486.12,-394.492 506.356,-382.864"/>
<polygon fill="#9238a8" stroke="black" points="508.12,-385.887 515.047,-377.87 504.633,-379.818 508.12,-385.887"/>
</g>
<!-- telereddit___main__ -->
<g id="node8" class="node"><title>telereddit___main__</title><style>.edge>path:hover{stroke-width:8}</style>
<ellipse fill="#9849ac" stroke="black" cx="1316.03" cy="-18" rx="34.9638" ry="18"/>
<text text-anchor="middle" x="1316.03" y="-15.5" font-family="Helvetica,sans-Serif" font-size="10.00" fill="#ffffff">__main__</text>
</g>
<!-- telereddit_config_secret_generic -->
<g id="node9" class="node"><title>telereddit_config_secret_generic</title><style>.edge>path:hover{stroke-width:8}</style>
<ellipse fill="#9246a4" stroke="black" cx="1571.03" cy="-898.198" rx="56.6372" ry="21.4286"/>
<text text-anchor="middle" x="1571.03" y="-901.198" font-family="Helvetica,sans-Serif" font-size="10.00" fill="#ffffff">config.</text>
<text text-anchor="middle" x="1571.03" y="-890.198" font-family="Helvetica,sans-Serif" font-size="10.00" fill="#ffffff">secret_generic</text>
</g>
<!-- telereddit_config_secret_dev -->
<g id="node10" class="node"><title>telereddit_config_secret_dev</title><style>.edge>path:hover{stroke-width:8}</style>
<ellipse fill="#a02fbc" stroke="black" cx="1729.03" cy="-898.198" rx="44.5955" ry="21.4286"/>
<text text-anchor="middle" x="1729.03" y="-901.198" font-family="Helvetica,sans-Serif" font-size="10.00" fill="#ffffff">config.</text>
<text text-anchor="middle" x="1729.03" y="-890.198" font-family="Helvetica,sans-Serif" font-size="10.00" fill="#ffffff">secret_dev</text>
</g>
<!-- telereddit_config_secret_github -->
<g id="node21" class="node"><title>telereddit_config_secret_github</title><style>.edge>path:hover{stroke-width:8}</style>
<ellipse fill="#8b439d" stroke="black" cx="1663.03" cy="-819.772" rx="53.066" ry="21.4286"/>
<text text-anchor="middle" x="1663.03" y="-822.772" font-family="Helvetica,sans-Serif" font-size="10.00" fill="#ffffff">config.</text>
<text text-anchor="middle" x="1663.03" y="-811.772" font-family="Helvetica,sans-Serif" font-size="10.00" fill="#ffffff">secret_github</text>
</g>
<!-- telereddit_config_secret_dev&#45;&gt;telereddit_config_secret_github -->
<g id="edge32" class="edge"><title>telereddit_config_secret_dev&#45;&gt;telereddit_config_secret_github</title><style>.edge>path:hover{stroke-width:8}</style>
<path fill="none" stroke="black" d="M1712.72,-878.306C1704.76,-869.098 1695.06,-857.859 1686.34,-847.765"/>
<polygon fill="#a02fbc" stroke="black" points="1688.8,-845.258 1679.62,-839.977 1683.5,-849.833 1688.8,-845.258"/>
</g>
<!-- telereddit_config_secret_prod -->
<g id="node23" class="node"><title>telereddit_config_secret_prod</title><style>.edge>path:hover{stroke-width:8}</style>
<ellipse fill="#8b439d" stroke="black" cx="1795.03" cy="-819.772" rx="48.1667" ry="21.4286"/>
<text text-anchor="middle" x="1795.03" y="-822.772" font-family="Helvetica,sans-Serif" font-size="10.00" fill="#ffffff">config.</text>
<text text-anchor="middle" x="1795.03" y="-811.772" font-family="Helvetica,sans-Serif" font-size="10.00" fill="#ffffff">secret_prod</text>
</g>
<!-- telereddit_config_secret_dev&#45;&gt;telereddit_config_secret_prod -->
<g id="edge33" class="edge"><title>telereddit_config_secret_dev&#45;&gt;telereddit_config_secret_prod</title><style>.edge>path:hover{stroke-width:8}</style>
<path fill="none" stroke="black" d="M1745.34,-878.306C1753.3,-869.098 1763,-857.859 1771.72,-847.765"/>
<polygon fill="#a02fbc" stroke="black" points="1774.56,-849.833 1778.44,-839.977 1769.26,-845.258 1774.56,-849.833"/>
</g>
<!-- telereddit_services -->
<g id="node12" class="node"><title>telereddit_services</title><style>.edge>path:hover{stroke-width:8}</style>
<ellipse fill="#cb10f9" stroke="black" cx="700.03" cy="-359.066" rx="30.7213" ry="18"/>
<text text-anchor="middle" x="700.03" y="-356.566" font-family="Helvetica,sans-Serif" font-size="10.00" fill="#ffffff">services</text>
</g>
<!-- telereddit_services&#45;&gt;telereddit_reddit -->
<g id="edge51" class="edge"><title>telereddit_services&#45;&gt;telereddit_reddit</title><style>.edge>path:hover{stroke-width:8}</style>
<path fill="none" stroke="black" d="M719.152,-344.74C737.681,-332.241 766.886,-313.613 794.03,-300.853 836.871,-280.714 888.984,-264.005 922.565,-254.174"/>
<polygon fill="#cb10f9" stroke="black" points="923.724,-257.483 932.361,-251.347 921.783,-250.757 923.724,-257.483"/>
</g>
<!-- telereddit_services&#45;&gt;telereddit_tests_test_services -->
<g id="edge52" class="edge"><title>telereddit_services&#45;&gt;telereddit_tests_test_services</title><style>.edge>path:hover{stroke-width:8}</style>
<path fill="none" stroke="black" d="M681.76,-344.609C656.416,-325.943 610.174,-291.883 578.783,-268.763"/>
<polygon fill="#cb10f9" stroke="black" points="580.48,-265.666 570.352,-262.554 576.329,-271.302 580.48,-265.666"/>
</g>
<!-- telereddit_services_gfycat_service&#45;&gt;telereddit_services_services_wrapper -->
<g id="edge54" class="edge"><title>telereddit_services_gfycat_service&#45;&gt;telereddit_services_services_wrapper</title><style>.edge>path:hover{stroke-width:8}</style>
<path fill="none" stroke="black" d="M844.143,-426.106C783.071,-412.577 676.121,-388.884 608.297,-373.86"/>
<polygon fill="#7e3091" stroke="black" points="608.693,-370.363 598.173,-371.617 607.179,-377.197 608.693,-370.363"/>
</g>
<!-- telereddit_services_youtube_service -->
<g id="node14" class="node"><title>telereddit_services_youtube_service</title><style>.edge>path:hover{stroke-width:8}</style>
<ellipse fill="#8b35a1" stroke="black" cx="681.03" cy="-437.492" rx="60.623" ry="21.4286"/>
<text text-anchor="middle" x="681.03" y="-440.492" font-family="Helvetica,sans-Serif" font-size="10.00" fill="#ffffff">services.</text>
<text text-anchor="middle" x="681.03" y="-429.492" font-family="Helvetica,sans-Serif" font-size="10.00" fill="#ffffff">youtube_service</text>
</g>
<!-- telereddit_services_youtube_service&#45;&gt;telereddit_services_services_wrapper -->
<g id="edge64" class="edge"><title>telereddit_services_youtube_service&#45;&gt;telereddit_services_services_wrapper</title><style>.edge>path:hover{stroke-width:8}</style>
<path fill="none" stroke="black" d="M650.397,-419.15C631.422,-408.408 606.841,-394.492 586.301,-382.864"/>
<polygon fill="#8b35a1" stroke="black" points="587.906,-379.751 577.48,-377.87 584.457,-385.842 587.906,-379.751"/>
</g>
<!-- telereddit_services_vreddit_service&#45;&gt;telereddit_services_services_wrapper -->
<g id="edge63" class="edge"><title>telereddit_services_vreddit_service&#45;&gt;telereddit_services_services_wrapper</title><style>.edge>path:hover{stroke-width:8}</style>
<path fill="none" stroke="black" d="M546.03,-416.012C546.03,-408.153 546.03,-399.009 546.03,-390.418"/>
<polygon fill="#853399" stroke="black" points="549.53,-390.338 546.03,-380.338 542.53,-390.338 549.53,-390.338"/>
</g>
<!-- telereddit_config_config -->
<g id="node16" class="node"><title>telereddit_config_config</title><style>.edge>path:hover{stroke-width:8}</style>
<ellipse fill="#c806f9" stroke="black" cx="1278.03" cy="-738.345" rx="41.5911" ry="18"/>
<text text-anchor="middle" x="1278.03" y="-735.845" font-family="Helvetica,sans-Serif" font-size="10.00" fill="#ffffff">config.config</text>
</g>
<!-- telereddit_config_config&#45;&gt;telereddit_services_imgur_service -->
<g id="edge26" class="edge"><title>telereddit_config_config&#45;&gt;telereddit_services_imgur_service</title><style>.edge>path:hover{stroke-width:8}</style>
<path fill="none" stroke="black" d="M1236.24,-737.181C1107.29,-735.446 705.7,-720.802 398.03,-609.132 340.636,-588.301 319.849,-584.261 281.03,-537.132 264.816,-517.446 255.288,-489.94 249.972,-468.974"/>
<polygon fill="#c806f9" stroke="black" points="253.319,-467.913 247.627,-458.977 246.504,-469.512 253.319,-467.913"/>
</g>
<!-- telereddit_config_config&#45;&gt;telereddit_reddit -->
<g id="edge24" class="edge"><title>telereddit_config_config&#45;&gt;telereddit_reddit</title><style>.edge>path:hover{stroke-width:8}</style>
<path fill="none" stroke="black" d="M1278.03,-719.91C1278.03,-692.648 1278.03,-638.267 1278.03,-592.132 1278.03,-592.132 1278.03,-592.132 1278.03,-514.919 1278.03,-391.751 1209.55,-360.944 1102.03,-300.853 1065.93,-280.675 1021.11,-264.518 990.94,-254.794"/>
<polygon fill="#c806f9" stroke="black" points="991.892,-251.424 981.302,-251.747 989.782,-258.099 991.892,-251.424"/>
</g>
<!-- telereddit_config_config&#45;&gt;telereddit_services_gfycat_service -->
<g id="edge25" class="edge"><title>telereddit_config_config&#45;&gt;telereddit_services_gfycat_service</title><style>.edge>path:hover{stroke-width:8}</style>
<path fill="none" stroke="black" d="M1236.42,-735.531C1182.42,-731.647 1086.67,-719.448 1015.03,-681.132 974.567,-659.49 964.704,-648.441 941.03,-609.132 914.185,-564.556 901.014,-504.7 895.149,-469.013"/>
<polygon fill="#c806f9" stroke="black" points="898.55,-468.102 893.557,-458.757 891.633,-469.176 898.55,-468.102"/>
</g>
<!-- telereddit_config_config&#45;&gt;telereddit_linker -->
<g id="edge23" class="edge"><title>telereddit_config_config&#45;&gt;telereddit_linker</title><style>.edge>path:hover{stroke-width:8}</style>
<path fill="none" stroke="black" d="M1285.54,-720.289C1296.61,-693.534 1316.03,-639.821 1316.03,-592.132 1316.03,-592.132 1316.03,-592.132 1316.03,-514.919 1316.03,-449.584 1241.58,-264.217 1213.01,-195.488"/>
<polygon fill="#c806f9" stroke="black" points="1216.07,-193.737 1208.99,-185.858 1209.61,-196.434 1216.07,-193.737"/>
</g>
<!-- telereddit_config_config&#45;&gt;telereddit_helpers -->
<g id="edge22" class="edge"><title>telereddit_config_config&#45;&gt;telereddit_helpers</title><style>.edge>path:hover{stroke-width:8}</style>
<path fill="none" stroke="black" d="M1238.71,-732.206C1196,-725.365 1126.82,-710.54 1074.03,-681.132 1043.49,-664.121 1015,-635.424 997.111,-615.224"/>
<polygon fill="#c806f9" stroke="black" points="999.538,-612.679 990.346,-607.411 994.246,-617.262 999.538,-612.679"/>
</g>
<!-- telereddit_config_config&#45;&gt;telereddit_telereddit -->
<g id="edge27" class="edge"><title>telereddit_config_config&#45;&gt;telereddit_telereddit</title><style>.edge>path:hover{stroke-width:8}</style>
<path fill="none" stroke="black" d="M1293.05,-721.358C1315.19,-696.034 1354.03,-644.204 1354.03,-592.132 1354.03,-592.132 1354.03,-592.132 1354.03,-242.64 1354.03,-198.858 1338.32,-150.019 1327.1,-120.724"/>
<polygon fill="#c806f9" stroke="black" points="1330.28,-119.237 1323.36,-111.217 1323.77,-121.804 1330.28,-119.237"/>
</g>
<!-- telereddit_linker&#45;&gt;telereddit_telereddit -->
<g id="edge48" class="edge"><title>telereddit_linker&#45;&gt;telereddit_telereddit</title><style>.edge>path:hover{stroke-width:8}</style>
<path fill="none" stroke="black" d="M1220.86,-155.337C1238.78,-143.823 1266.04,-126.319 1286.79,-112.989"/>
<polygon fill="#853399" stroke="black" points="1288.72,-115.911 1295.25,-107.562 1284.94,-110.021 1288.72,-115.911"/>
</g>
<!-- telereddit_content_type -->
<g id="node18" class="node"><title>telereddit_content_type</title><style>.edge>path:hover{stroke-width:8}</style>
<ellipse fill="#cb10f9" stroke="black" cx="634.03" cy="-591.132" rx="42.9448" ry="18"/>
<text text-anchor="middle" x="634.03" y="-588.632" font-family="Helvetica,sans-Serif" font-size="10.00" fill="#ffffff">content_type</text>
</g>
<!-- telereddit_content_type&#45;&gt;telereddit_services_imgur_service -->
<g id="edge37" class="edge"><title>telereddit_content_type&#45;&gt;telereddit_services_imgur_service</title><style>.edge>path:hover{stroke-width:8}</style>
<path fill="none" stroke="black" d="M594.79,-583.683C551.115,-575.763 478.932,-560.44 420.03,-537.132 368.606,-516.783 313.665,-484.013 279.107,-461.884"/>
<polygon fill="#cb10f9" stroke="black" points="280.647,-458.712 270.348,-456.223 276.847,-464.591 280.647,-458.712"/>
</g>
<!-- telereddit_content_type&#45;&gt;telereddit_reddit -->
<g id="edge34" class="edge"><title>telereddit_content_type&#45;&gt;telereddit_reddit</title><style>.edge>path:hover{stroke-width:8}</style>
<path fill="none" stroke="black" d="M675.597,-586.206C709.527,-580.781 756.251,-567.868 784.03,-537.132 814.284,-503.659 808.03,-483.611 808.03,-438.492 808.03,-438.492 808.03,-438.492 808.03,-358.066 808.03,-300.76 878.672,-268.594 922.674,-254.117"/>
<polygon fill="#cb10f9" stroke="black" points="923.935,-257.39 932.426,-251.053 921.837,-250.712 923.935,-257.39"/>
</g>
<!-- telereddit_content_type&#45;&gt;telereddit_services_generic_service -->
<g id="edge35" class="edge"><title>telereddit_content_type&#45;&gt;telereddit_services_generic_service</title><style>.edge>path:hover{stroke-width:8}</style>
<path fill="none" stroke="black" d="M597.894,-581.272C569.046,-573.021 528.547,-558.715 498.03,-537.132 470.983,-518.003 447.048,-488.451 431.525,-466.677"/>
<polygon fill="#cb10f9" stroke="black" points="434.388,-464.665 425.8,-458.46 428.645,-468.666 434.388,-464.665"/>
</g>
<!-- telereddit_content_type&#45;&gt;telereddit_tests_test_reddit -->
<g id="edge40" class="edge"><title>telereddit_content_type&#45;&gt;telereddit_tests_test_reddit</title><style>.edge>path:hover{stroke-width:8}</style>
<path fill="none" stroke="black" d="M659.931,-576.522C699.39,-553.702 770.03,-503.738 770.03,-438.492 770.03,-438.492 770.03,-438.492 770.03,-242.64 770.03,-198.553 792.217,-151.704 808.906,-122.699"/>
<polygon fill="#cb10f9" stroke="black" points="812.012,-124.323 814.096,-113.935 805.989,-120.756 812.012,-124.323"/>
</g>
<!-- telereddit_content_type&#45;&gt;telereddit_services_gfycat_service -->
<g id="edge36" class="edge"><title>telereddit_content_type&#45;&gt;telereddit_services_gfycat_service</title><style>.edge>path:hover{stroke-width:8}</style>
<path fill="none" stroke="black" d="M658.208,-575.866C703.094,-549.382 799.601,-492.439 853.199,-460.814"/>
<polygon fill="#cb10f9" stroke="black" points="855.219,-463.687 862.053,-455.59 851.661,-457.658 855.219,-463.687"/>
</g>
<!-- telereddit_content_type&#45;&gt;telereddit_services_youtube_service -->
<g id="edge39" class="edge"><title>telereddit_content_type&#45;&gt;telereddit_services_youtube_service</title><style>.edge>path:hover{stroke-width:8}</style>
<path fill="none" stroke="black" d="M639.33,-573.032C647.182,-547.701 662.016,-499.84 671.709,-468.565"/>
<polygon fill="#cb10f9" stroke="black" points="675.165,-469.239 674.782,-458.651 668.479,-467.167 675.165,-469.239"/>
</g>
<!-- telereddit_content_type&#45;&gt;telereddit_services_vreddit_service -->
<g id="edge38" class="edge"><title>telereddit_content_type&#45;&gt;telereddit_services_vreddit_service</title><style>.edge>path:hover{stroke-width:8}</style>
<path fill="none" stroke="black" d="M628.709,-573.167C622.134,-553.471 609.852,-520.405 594.03,-494.706 587.682,-484.394 579.492,-474.047 571.681,-465.091"/>
<polygon fill="#cb10f9" stroke="black" points="574.255,-462.719 564.97,-457.615 569.046,-467.395 574.255,-462.719"/>
</g>
<!-- telereddit_content_type&#45;&gt;telereddit_tests_test_services -->
<g id="edge41" class="edge"><title>telereddit_content_type&#45;&gt;telereddit_tests_test_services</title><style>.edge>path:hover{stroke-width:8}</style>
<path fill="none" stroke="black" d="M595.423,-583.116C557.345,-575.251 498.168,-560.454 451.03,-537.132 447.747,-535.508 346.679,-461.976 345.03,-458.706 301.932,-373.206 430.263,-297.939 501.679,-263.911"/>
<polygon fill="#cb10f9" stroke="black" points="503.36,-266.989 510.934,-259.58 500.393,-260.649 503.36,-266.989"/>
</g>
<!-- telereddit_config_secret -->
<g id="node19" class="node"><title>telereddit_config_secret</title><style>.edge>path:hover{stroke-width:8}</style>
<ellipse fill="#c022e7" stroke="black" cx="1692.03" cy="-973.411" rx="42.2678" ry="18"/>
<text text-anchor="middle" x="1692.03" y="-970.911" font-family="Helvetica,sans-Serif" font-size="10.00" fill="#ffffff">config.secret</text>
</g>
<!-- telereddit_config_secret&#45;&gt;telereddit_config_secret_generic -->
<g id="edge29" class="edge"><title>telereddit_config_secret&#45;&gt;telereddit_config_secret_generic</title><style>.edge>path:hover{stroke-width:8}</style>
<path fill="none" stroke="black" d="M1668.7,-958.295C1651.67,-947.989 1628.22,-933.801 1608.57,-921.91"/>
<polygon fill="#c022e7" stroke="black" points="1610.21,-918.812 1599.84,-916.63 1606.58,-924.801 1610.21,-918.812"/>
</g>
<!-- telereddit_config_secret&#45;&gt;telereddit_config_secret_dev -->
<g id="edge28" class="edge"><title>telereddit_config_secret&#45;&gt;telereddit_config_secret_dev</title><style>.edge>path:hover{stroke-width:8}</style>
<path fill="none" stroke="black" d="M1700.61,-955.431C1704.74,-947.257 1709.81,-937.23 1714.52,-927.917"/>
<polygon fill="#c022e7" stroke="black" points="1717.67,-929.442 1719.05,-918.938 1711.42,-926.285 1717.67,-929.442"/>
</g>
<!-- telereddit_config_secret&#45;&gt;telereddit_config_secret_github -->
<g id="edge30" class="edge"><title>telereddit_config_secret&#45;&gt;telereddit_config_secret_github</title><style>.edge>path:hover{stroke-width:8}</style>
<path fill="none" stroke="black" d="M1685.68,-955.45C1682.06,-945.158 1677.72,-931.682 1675.03,-919.411 1670.08,-896.804 1667.02,-870.802 1665.23,-851.172"/>
<polygon fill="#c022e7" stroke="black" points="1668.7,-850.652 1664.36,-840.985 1661.72,-851.245 1668.7,-850.652"/>
</g>
<!-- telereddit_config_secret&#45;&gt;telereddit_config_secret_prod -->
<g id="edge31" class="edge"><title>telereddit_config_secret&#45;&gt;telereddit_config_secret_prod</title><style>.edge>path:hover{stroke-width:8}</style>
<path fill="none" stroke="black" d="M1724.71,-961.899C1744.89,-953.638 1769.46,-940.026 1783.03,-919.411 1796.2,-899.411 1798.61,-872.101 1798.07,-851.287"/>
<polygon fill="#c022e7" stroke="black" points="1801.55,-850.879 1797.55,-841.068 1794.56,-851.232 1801.55,-850.879"/>
</g>
<!-- telereddit_services_service&#45;&gt;telereddit_services_imgur_service -->
<g id="edge58" class="edge"><title>telereddit_services_service&#45;&gt;telereddit_services_imgur_service</title><style>.edge>path:hover{stroke-width:8}</style>
<path fill="none" stroke="black" d="M511.387,-506.152C459.213,-492.948 360.013,-467.844 298.218,-452.205"/>
<polygon fill="#c50cf3" stroke="black" points="298.813,-448.746 288.26,-449.685 297.095,-455.532 298.813,-448.746"/>
</g>
<!-- telereddit_services_service&#45;&gt;telereddit_services_generic_service -->
<g id="edge56" class="edge"><title>telereddit_services_service&#45;&gt;telereddit_services_generic_service</title><style>.edge>path:hover{stroke-width:8}</style>
<path fill="none" stroke="black" d="M520.071,-500.002C500.67,-488.853 473.824,-473.427 451.872,-460.812"/>
<polygon fill="#c50cf3" stroke="black" points="453.523,-457.724 443.109,-455.777 450.035,-463.794 453.523,-457.724"/>
</g>
<!-- telereddit_services_service&#45;&gt;telereddit_services_gfycat_service -->
<g id="edge57" class="edge"><title>telereddit_services_service&#45;&gt;telereddit_services_gfycat_service</title><style>.edge>path:hover{stroke-width:8}</style>
<path fill="none" stroke="black" d="M581.652,-507.028C641.504,-493.769 762.713,-466.918 834.362,-451.046"/>
<polygon fill="#c50cf3" stroke="black" points="835.125,-454.462 844.132,-448.882 833.611,-447.627 835.125,-454.462"/>
</g>
<!-- telereddit_services_service&#45;&gt;telereddit_services_youtube_service -->
<g id="edge60" class="edge"><title>telereddit_services_service&#45;&gt;telereddit_services_youtube_service</title><style>.edge>path:hover{stroke-width:8}</style>
<path fill="none" stroke="black" d="M572.38,-500.002C591.938,-488.929 618.949,-473.638 641.146,-461.072"/>
<polygon fill="#c50cf3" stroke="black" points="643.037,-464.023 650.015,-456.051 639.588,-457.932 643.037,-464.023"/>
</g>
<!-- telereddit_services_service&#45;&gt;telereddit_services_vreddit_service -->
<g id="edge59" class="edge"><title>telereddit_services_service&#45;&gt;telereddit_services_vreddit_service</title><style>.edge>path:hover{stroke-width:8}</style>
<path fill="none" stroke="black" d="M546.03,-494.438C546.03,-486.579 546.03,-477.435 546.03,-468.845"/>
<polygon fill="#c50cf3" stroke="black" points="549.53,-468.765 546.03,-458.765 542.53,-468.765 549.53,-468.765"/>
</g>
<!-- telereddit_config -->
<g id="node22" class="node"><title>telereddit_config</title><style>.edge>path:hover{stroke-width:8}</style>
<ellipse fill="#cb10f9" stroke="black" cx="1110.03" cy="-663.132" rx="27" ry="18"/>
<text text-anchor="middle" x="1110.03" y="-660.632" font-family="Helvetica,sans-Serif" font-size="10.00" fill="#ffffff">config</text>
</g>
<!-- telereddit_config&#45;&gt;telereddit_services_imgur_service -->
<g id="edge20" class="edge"><title>telereddit_config&#45;&gt;telereddit_services_imgur_service</title><style>.edge>path:hover{stroke-width:8}</style>
<path fill="none" stroke="black" d="M1083.14,-661.145C1005.05,-657.914 771.782,-645.67 582.03,-609.132 468.489,-587.269 429.911,-598.687 332.03,-537.132 303.217,-519.012 278.253,-488.78 262.349,-466.552"/>
<polygon fill="#cb10f9" stroke="black" points="265.097,-464.373 256.507,-458.17 259.354,-468.375 265.097,-464.373"/>
</g>
<!-- telereddit_config&#45;&gt;telereddit_reddit -->
<g id="edge18" class="edge"><title>telereddit_config&#45;&gt;telereddit_reddit</title><style>.edge>path:hover{stroke-width:8}</style>
<path fill="none" stroke="black" d="M1105.21,-645.235C1090.11,-593.033 1041.42,-430.068 986.03,-300.853 981.618,-290.558 976.117,-279.542 971.097,-270.015"/>
<polygon fill="#cb10f9" stroke="black" points="974.107,-268.223 966.294,-261.066 967.939,-271.533 974.107,-268.223"/>
</g>
<!-- telereddit_config&#45;&gt;telereddit_services_gfycat_service -->
<g id="edge19" class="edge"><title>telereddit_config&#45;&gt;telereddit_services_gfycat_service</title><style>.edge>path:hover{stroke-width:8}</style>
<path fill="none" stroke="black" d="M1095.66,-647.458C1059.33,-610.362 963.419,-512.415 916.969,-464.981"/>
<polygon fill="#cb10f9" stroke="black" points="919.188,-462.244 909.69,-457.548 914.186,-467.141 919.188,-462.244"/>
</g>
<!-- telereddit_config&#45;&gt;telereddit_linker -->
<g id="edge17" class="edge"><title>telereddit_config&#45;&gt;telereddit_linker</title><style>.edge>path:hover{stroke-width:8}</style>
<path fill="none" stroke="black" d="M1120.19,-646.301C1135.83,-620.355 1164.03,-566.679 1164.03,-516.919 1164.03,-516.919 1164.03,-516.919 1164.03,-436.492 1164.03,-430.503 1188.31,-263.484 1198.05,-196.668"/>
<polygon fill="#cb10f9" stroke="black" points="1201.56,-196.887 1199.54,-186.486 1194.63,-195.876 1201.56,-196.887"/>
</g>
<!-- telereddit_config&#45;&gt;telereddit_helpers -->
<g id="edge16" class="edge"><title>telereddit_config&#45;&gt;telereddit_helpers</title><style>.edge>path:hover{stroke-width:8}</style>
<path fill="none" stroke="black" d="M1089.41,-651.195C1067.67,-639.67 1033.22,-621.399 1008.39,-608.23"/>
<polygon fill="#cb10f9" stroke="black" points="1009.86,-605.05 999.385,-603.457 1006.58,-611.234 1009.86,-605.05"/>
</g>
<!-- telereddit_config&#45;&gt;telereddit_telereddit -->
<g id="edge21" class="edge"><title>telereddit_config&#45;&gt;telereddit_telereddit</title><style>.edge>path:hover{stroke-width:8}</style>
<path fill="none" stroke="black" d="M1126.48,-648.334C1152.94,-624.487 1202.03,-572.728 1202.03,-516.919 1202.03,-516.919 1202.03,-516.919 1202.03,-436.492 1202.03,-312.157 1270.58,-174.832 1301.37,-119.43"/>
<polygon fill="#cb10f9" stroke="black" points="1304.45,-121.086 1306.31,-110.655 1298.35,-117.65 1304.45,-121.086"/>
</g>
<!-- telereddit_services_services_wrapper&#45;&gt;telereddit_reddit -->
<g id="edge61" class="edge"><title>telereddit_services_services_wrapper&#45;&gt;telereddit_reddit</title><style>.edge>path:hover{stroke-width:8}</style>
<path fill="none" stroke="black" d="M589.676,-343.373C626.186,-331.299 679.743,-314.089 727.03,-300.853 795.52,-281.681 876.493,-262.747 921.79,-252.486"/>
<polygon fill="#84269b" stroke="black" points="922.718,-255.865 931.703,-250.25 921.177,-249.036 922.718,-255.865"/>
</g>
<!-- telereddit_services_services_wrapper&#45;&gt;telereddit_tests_test_services -->
<g id="edge62" class="edge"><title>telereddit_services_services_wrapper&#45;&gt;telereddit_tests_test_services</title><style>.edge>path:hover{stroke-width:8}</style>
<path fill="none" stroke="black" d="M546.03,-337.788C546.03,-320.395 546.03,-295.074 546.03,-275.221"/>
<polygon fill="#84269b" stroke="black" points="549.53,-275.125 546.03,-265.125 542.53,-275.125 549.53,-275.125"/>
</g>
<!-- telereddit_helpers&#45;&gt;telereddit_reddit -->
<g id="edge43" class="edge"><title>telereddit_helpers&#45;&gt;telereddit_reddit</title><style>.edge>path:hover{stroke-width:8}</style>
<path fill="none" stroke="black" d="M977.278,-572.852C976.119,-544.708 974.03,-487.213 974.03,-438.492 974.03,-438.492 974.03,-438.492 974.03,-358.066 974.03,-328.156 968.177,-294.295 963.34,-271.417"/>
<polygon fill="#b005db" stroke="black" points="966.711,-270.448 961.146,-261.433 959.874,-271.951 966.711,-270.448"/>
</g>
<!-- telereddit_helpers&#45;&gt;telereddit_services_youtube_service -->
<g id="edge45" class="edge"><title>telereddit_helpers&#45;&gt;telereddit_services_youtube_service</title><style>.edge>path:hover{stroke-width:8}</style>
<path fill="none" stroke="black" d="M956.671,-579.226C907.864,-554.307 787.43,-492.817 723.11,-459.977"/>
<polygon fill="#b005db" stroke="black" points="724.541,-456.778 714.043,-455.348 721.358,-463.012 724.541,-456.778"/>
</g>
<!-- telereddit_helpers&#45;&gt;telereddit_services_vreddit_service -->
<g id="edge44" class="edge"><title>telereddit_helpers&#45;&gt;telereddit_services_vreddit_service</title><style>.edge>path:hover{stroke-width:8}</style>
<path fill="none" stroke="black" d="M952.051,-583.704C915.687,-574.496 847.704,-556.511 791.03,-537.132 720.053,-512.863 639.739,-479.33 591.007,-458.284"/>
<polygon fill="#b005db" stroke="black" points="592.261,-455.013 581.694,-454.248 589.477,-461.436 592.261,-455.013"/>
</g>
<!-- telereddit_helpers&#45;&gt;telereddit_linker -->
<g id="edge42" class="edge"><title>telereddit_helpers&#45;&gt;telereddit_linker</title><style>.edge>path:hover{stroke-width:8}</style>
<path fill="none" stroke="black" d="M993.138,-575.797C1003.28,-565.646 1016.48,-551.356 1026.03,-537.132 1105.8,-418.29 1169.38,-257.732 1192.56,-195.539"/>
<polygon fill="#b005db" stroke="black" points="1195.87,-196.685 1196.05,-186.091 1189.3,-194.258 1195.87,-196.685"/>
</g>
<!-- telereddit_helpers&#45;&gt;telereddit_tests_test_helpers -->
<g id="edge47" class="edge"><title>telereddit_helpers&#45;&gt;telereddit_tests_test_helpers</title><style>.edge>path:hover{stroke-width:8}</style>
<path fill="none" stroke="black" d="M949.981,-588.34C875.763,-583.318 668.271,-567.452 498.03,-537.132 355.142,-511.684 320.151,-500.06 181.03,-458.706 177.229,-457.576 173.309,-456.348 169.383,-455.074"/>
<polygon fill="#b005db" stroke="black" points="170.276,-451.682 159.682,-451.842 168.063,-458.323 170.276,-451.682"/>
</g>
<!-- telereddit_helpers&#45;&gt;telereddit_telereddit -->
<g id="edge46" class="edge"><title>telereddit_helpers&#45;&gt;telereddit_telereddit</title><style>.edge>path:hover{stroke-width:8}</style>
<path fill="none" stroke="black" d="M984.266,-573.575C994.082,-545.986 1012.03,-488.675 1012.03,-438.492 1012.03,-438.492 1012.03,-438.492 1012.03,-242.64 1012.03,-127.88 1189.13,-101.835 1272.98,-95.9352"/>
<polygon fill="#b005db" stroke="black" points="1273.45,-99.4125 1283.21,-95.2833 1273.01,-92.4266 1273.45,-99.4125"/>
</g>
<!-- telereddit_telereddit&#45;&gt;telereddit___main__ -->
<g id="edge65" class="edge"><title>telereddit_telereddit&#45;&gt;telereddit___main__</title><style>.edge>path:hover{stroke-width:8}</style>
<path fill="none" stroke="black" d="M1316.03,-74.8627C1316.03,-66.3831 1316.03,-55.9765 1316.03,-46.4531"/>
<polygon fill="#632673" stroke="black" points="1319.53,-46.2259 1316.03,-36.226 1312.53,-46.226 1319.53,-46.2259"/>
</g>
<!-- telegram -->
<g id="node29" class="node"><title>telegram</title><style>.edge>path:hover{stroke-width:8}</style>
<polygon fill="#106df9" stroke="black" points="1419.03,-991.411 1416.03,-995.411 1395.03,-995.411 1392.03,-991.411 1365.03,-991.411 1365.03,-955.411 1419.03,-955.411 1419.03,-991.411"/>
<text text-anchor="middle" x="1392.03" y="-970.911" font-family="Helvetica,sans-Serif" font-size="10.00" fill="#ffffff">telegram</text>
</g>
<!-- telegram&#45;&gt;telereddit_config_config -->
<g id="edge13" class="edge"><title>telegram&#45;&gt;telereddit_config_config</title><style>.edge>path:hover{stroke-width:8}</style>
<path fill="none" stroke="black" d="M1383.65,-955.273C1363.88,-914.852 1314.23,-813.361 1290.74,-765.324"/>
<polygon fill="#106df9" stroke="black" points="1293.81,-763.639 1286.27,-756.194 1287.52,-766.715 1293.81,-763.639"/>
</g>
<!-- telegram&#45;&gt;telereddit_linker -->
<g id="edge14" class="edge"><title>telegram&#45;&gt;telereddit_linker</title><style>.edge>path:hover{stroke-width:8}</style>
<path fill="none" stroke="black" d="M1392.03,-955.128C1392.03,-926.978 1392.03,-869.475 1392.03,-820.772 1392.03,-820.772 1392.03,-820.772 1392.03,-514.919 1392.03,-368.687 1335.78,-336.809 1251.03,-217.64 1243.93,-207.662 1234.66,-197.938 1226.08,-189.867"/>
<polygon fill="#106df9" stroke="black" points="1228.25,-187.102 1218.49,-182.96 1223.53,-192.279 1228.25,-187.102"/>
</g>
<!-- telegram&#45;&gt;telereddit_telereddit -->
<g id="edge15" class="edge"><title>telegram&#45;&gt;telereddit_telereddit</title><style>.edge>path:hover{stroke-width:8}</style>
<path fill="none" stroke="black" d="M1411.97,-954.994C1439.56,-928.844 1486.03,-876.525 1486.03,-820.772 1486.03,-820.772 1486.03,-820.772 1486.03,-242.64 1486.03,-172.483 1402.86,-127.853 1352.87,-107.364"/>
<polygon fill="#106df9" stroke="black" points="1353.93,-104.02 1343.34,-103.587 1351.35,-110.527 1353.93,-104.02"/>
</g>
</g>
</svg>
