<?xml version="1.0" encoding="UTF-8" standalone="no"?>
<!DOCTYPE svg PUBLIC "-//W3C//DTD SVG 1.1//EN"
 "http://www.w3.org/Graphics/SVG/1.1/DTD/svg11.dtd">
<!-- Generated by graphviz version 2.38.0 (20140413.2041)
 -->
<!-- Title: G Pages: 1 -->
<svg width="770pt" height="634pt"
 viewBox="0.00 0.00 770.00 634.43" xmlns="http://www.w3.org/2000/svg" xmlns:xlink="http://www.w3.org/1999/xlink">
<g id="graph0" class="graph" transform="scale(1 1) rotate(0) translate(4 630.426)">
<title>G</title><style>.edge>path:hover{stroke-width:8}</style>
<polygon fill="white" stroke="none" points="-4,4 -4,-630.426 766,-630.426 766,4 -4,4"/>
<g id="clust1" class="cluster"><title>cluster_requests</title><style>.edge>path:hover{stroke-width:8}</style>
<polygon fill="none" stroke="black" points="551,-433.426 551,-508.426 631,-508.426 631,-433.426 551,-433.426"/>
<text text-anchor="middle" x="591" y="-493.226" font-family="Times New Roman,serif" font-size="14.00">requests</text>
</g>
<g id="clust2" class="cluster"><title>cluster_sentrysdk</title><style>.edge>path:hover{stroke-width:8}</style>
<polygon fill="none" stroke="black" points="8,-208 8,-283 100,-283 100,-208 8,-208"/>
<text text-anchor="middle" x="54" y="-267.8" font-family="Times New Roman,serif" font-size="14.00">sentrysdk</text>
</g>
<!-- requests -->
<g id="node1" class="node"><title>requests</title><style>.edge>path:hover{stroke-width:8}</style>
<ellipse fill="#cc3333" stroke="black" cx="591" cy="-459.426" rx="31.577" ry="18"/>
<text text-anchor="middle" x="591" y="-456.926" font-family="Helvetica,sans-Serif" font-size="10.00" fill="#ffffff">requests</text>
</g>
<!-- telereddit_reddit -->
<g id="node6" class="node"><title>telereddit_reddit</title><style>.edge>path:hover{stroke-width:8}</style>
<ellipse fill="#5c2e8a" stroke="black" cx="367" cy="-234" rx="27" ry="18"/>
<text text-anchor="middle" x="367" y="-231.5" font-family="Helvetica,sans-Serif" font-size="10.00" fill="#ffffff">reddit</text>
</g>
<!-- requests&#45;&gt;telereddit_reddit -->
<g id="edge2" class="edge"><title>requests&#45;&gt;telereddit_reddit</title><style>.edge>path:hover{stroke-width:8}</style>
<path fill="none" stroke="black" d="M613.717,-433.47C619.905,-425.147 625.784,-415.431 629,-405.426 634.77,-387.475 635.346,-380.756 629,-363 615.077,-324.042 604.68,-313.56 570,-291 518.332,-257.389 446.671,-243.76 403.761,-238.372"/>
<polygon fill="#000000" stroke="black" points="404.101,-234.888 393.761,-237.201 403.286,-241.84 404.101,-234.888"/>
</g>
<!-- telereddit_helpers -->
<g id="node10" class="node"><title>telereddit_helpers</title><style>.edge>path:hover{stroke-width:8}</style>
<ellipse fill="#7021bf" stroke="black" cx="290" cy="-309" rx="28.0137" ry="18"/>
<text text-anchor="middle" x="290" y="-306.5" font-family="Helvetica,sans-Serif" font-size="10.00" fill="#ffffff">helpers</text>
</g>
<!-- requests&#45;&gt;telereddit_helpers -->
<g id="edge1" class="edge"><title>requests&#45;&gt;telereddit_helpers</title><style>.edge>path:hover{stroke-width:8}</style>
<path fill="none" stroke="black" d="M551.314,-438.986C530.894,-428.974 505.607,-416.562 483,-405.426 425.658,-377.181 358.804,-344.09 320.733,-325.231"/>
<polygon fill="#000000" stroke="black" points="322.212,-322.057 311.698,-320.754 319.104,-328.33 322.212,-322.057"/>
</g>
<!-- sentry_sdk -->
<g id="node2" class="node"><title>sentry_sdk</title><style>.edge>path:hover{stroke-width:8}</style>
<ellipse fill="#80c040" stroke="black" cx="54" cy="-234" rx="38.0276" ry="18"/>
<text text-anchor="middle" x="54" y="-231.5" font-family="Helvetica,sans-Serif" font-size="10.00" fill="#000000">sentry_sdk</text>
</g>
<!-- telereddit_telereddit -->
<g id="node8" class="node"><title>telereddit_telereddit</title><style>.edge>path:hover{stroke-width:8}</style>
<ellipse fill="#4c2673" stroke="black" cx="196" cy="-90" rx="32.9303" ry="18"/>
<text text-anchor="middle" x="196" y="-87.5" font-family="Helvetica,sans-Serif" font-size="10.00" fill="#ffffff">telereddit</text>
</g>
<!-- sentry_sdk&#45;&gt;telereddit_telereddit -->
<g id="edge3" class="edge"><title>sentry_sdk&#45;&gt;telereddit_telereddit</title><style>.edge>path:hover{stroke-width:8}</style>
<path fill="none" stroke="black" d="M64.1542,-208.469C73.0412,-189.213 87.4306,-162.633 106,-144 121.805,-128.141 143.301,-115.25 161.322,-106.154"/>
<polygon fill="#000000" stroke="black" points="162.919,-109.27 170.38,-101.748 159.857,-102.975 162.919,-109.27"/>
</g>
<!-- telereddit_services -->
<g id="node3" class="node"><title>telereddit_services</title><style>.edge>path:hover{stroke-width:8}</style>
<ellipse fill="#8547c2" stroke="black" cx="367" cy="-309" rx="30.7213" ry="18"/>
<text text-anchor="middle" x="367" y="-306.5" font-family="Helvetica,sans-Serif" font-size="10.00" fill="#ffffff">services</text>
</g>
<!-- telereddit_services&#45;&gt;telereddit_reddit -->
<g id="edge21" class="edge"><title>telereddit_services&#45;&gt;telereddit_reddit</title><style>.edge>path:hover{stroke-width:8}</style>
<path fill="none" stroke="black" d="M367,-290.7C367,-282.245 367,-271.869 367,-262.373"/>
<polygon fill="#8547c2" stroke="black" points="370.5,-262.176 367,-252.176 363.5,-262.176 370.5,-262.176"/>
</g>
<!-- telereddit_config -->
<g id="node4" class="node"><title>telereddit_config</title><style>.edge>path:hover{stroke-width:8}</style>
<ellipse fill="#8522e7" stroke="black" cx="215" cy="-384.213" rx="27" ry="18"/>
<text text-anchor="middle" x="215" y="-381.713" font-family="Helvetica,sans-Serif" font-size="10.00" fill="#ffffff">config</text>
</g>
<!-- telereddit_config&#45;&gt;telereddit_reddit -->
<g id="edge9" class="edge"><title>telereddit_config&#45;&gt;telereddit_reddit</title><style>.edge>path:hover{stroke-width:8}</style>
<path fill="none" stroke="black" d="M218.172,-366.26C222.725,-346.101 232.881,-312.487 253,-291 274.459,-268.082 307.313,-253.334 332.248,-244.758"/>
<polygon fill="#8522e7" stroke="black" points="333.631,-247.988 342.053,-241.559 331.46,-241.333 333.631,-247.988"/>
</g>
<!-- telereddit_linker -->
<g id="node7" class="node"><title>telereddit_linker</title><style>.edge>path:hover{stroke-width:8}</style>
<ellipse fill="#663399" stroke="black" cx="290" cy="-162" rx="27" ry="18"/>
<text text-anchor="middle" x="290" y="-159.5" font-family="Helvetica,sans-Serif" font-size="10.00" fill="#ffffff">linker</text>
</g>
<!-- telereddit_config&#45;&gt;telereddit_linker -->
<g id="edge8" class="edge"><title>telereddit_config&#45;&gt;telereddit_linker</title><style>.edge>path:hover{stroke-width:8}</style>
<path fill="none" stroke="black" d="M215.815,-366.215C217.075,-347.45 220.23,-316.52 228,-291 239.479,-253.298 260.745,-212.853 275.132,-187.74"/>
<polygon fill="#8522e7" stroke="black" points="278.27,-189.307 280.274,-178.904 272.219,-185.786 278.27,-189.307"/>
</g>
<!-- telereddit_config&#45;&gt;telereddit_telereddit -->
<g id="edge10" class="edge"><title>telereddit_config&#45;&gt;telereddit_telereddit</title><style>.edge>path:hover{stroke-width:8}</style>
<path fill="none" stroke="black" d="M213.868,-365.809C210.687,-316.881 201.645,-177.826 197.784,-118.436"/>
<polygon fill="#8522e7" stroke="black" points="201.267,-118.065 197.126,-108.313 194.282,-118.519 201.267,-118.065"/>
</g>
<!-- telereddit_config&#45;&gt;telereddit_helpers -->
<g id="edge7" class="edge"><title>telereddit_config&#45;&gt;telereddit_helpers</title><style>.edge>path:hover{stroke-width:8}</style>
<path fill="none" stroke="black" d="M229.818,-368.749C240.706,-358.119 255.682,-343.501 267.97,-331.505"/>
<polygon fill="#8522e7" stroke="black" points="270.502,-333.924 275.213,-324.435 265.613,-328.915 270.502,-333.924"/>
</g>
<!-- telereddit_config_config -->
<g id="node5" class="node"><title>telereddit_config_config</title><style>.edge>path:hover{stroke-width:8}</style>
<ellipse fill="#7f19e6" stroke="black" cx="426" cy="-459.426" rx="41.5911" ry="18"/>
<text text-anchor="middle" x="426" y="-456.926" font-family="Helvetica,sans-Serif" font-size="10.00" fill="#ffffff">config.config</text>
</g>
<!-- telereddit_config_config&#45;&gt;telereddit_reddit -->
<g id="edge13" class="edge"><title>telereddit_config_config&#45;&gt;telereddit_reddit</title><style>.edge>path:hover{stroke-width:8}</style>
<path fill="none" stroke="black" d="M426.835,-441.126C427.739,-409.98 426.924,-342.888 407,-291 402.429,-279.095 394.716,-267.383 387.276,-257.772"/>
<polygon fill="#7f19e6" stroke="black" points="389.915,-255.47 380.894,-249.915 384.482,-259.883 389.915,-255.47"/>
</g>
<!-- telereddit_config_config&#45;&gt;telereddit_linker -->
<g id="edge12" class="edge"><title>telereddit_config_config&#45;&gt;telereddit_linker</title><style>.edge>path:hover{stroke-width:8}</style>
<path fill="none" stroke="black" d="M463.621,-451.172C519.457,-440.031 618.813,-418.614 629,-405.426 640.527,-390.504 635.346,-380.756 629,-363 583.26,-235.016 403.965,-185.177 326.251,-169.311"/>
<polygon fill="#7f19e6" stroke="black" points="326.471,-165.787 315.984,-167.293 325.121,-172.655 326.471,-165.787"/>
</g>
<!-- telereddit_config_config&#45;&gt;telereddit_telereddit -->
<g id="edge14" class="edge"><title>telereddit_config_config&#45;&gt;telereddit_telereddit</title><style>.edge>path:hover{stroke-width:8}</style>
<path fill="none" stroke="black" d="M384.042,-459.105C331.482,-457.934 240.828,-449.027 179,-405.426 138.25,-376.69 120,-359.863 120,-310 120,-310 120,-310 120,-233 120,-186.374 152.245,-140.242 174.729,-113.742"/>
<polygon fill="#7f19e6" stroke="black" points="177.401,-116.003 181.346,-106.17 172.131,-111.396 177.401,-116.003"/>
</g>
<!-- telereddit_config_config&#45;&gt;telereddit_helpers -->
<g id="edge11" class="edge"><title>telereddit_config_config&#45;&gt;telereddit_helpers</title><style>.edge>path:hover{stroke-width:8}</style>
<path fill="none" stroke="black" d="M411.446,-442.542C387.165,-416.043 338.325,-362.741 310.549,-332.426"/>
<polygon fill="#7f19e6" stroke="black" points="312.976,-329.894 303.639,-324.886 307.814,-334.623 312.976,-329.894"/>
</g>
<!-- telereddit_reddit&#45;&gt;telereddit_linker -->
<g id="edge20" class="edge"><title>telereddit_reddit&#45;&gt;telereddit_linker</title><style>.edge>path:hover{stroke-width:8}</style>
<path fill="none" stroke="black" d="M351.418,-218.834C340.387,-208.806 325.41,-195.191 313.007,-183.916"/>
<polygon fill="#5c2e8a" stroke="black" points="315.05,-181.043 305.296,-176.906 310.341,-186.222 315.05,-181.043"/>
</g>
<!-- telereddit_linker&#45;&gt;telereddit_telereddit -->
<g id="edge19" class="edge"><title>telereddit_linker&#45;&gt;telereddit_telereddit</title><style>.edge>path:hover{stroke-width:8}</style>
<path fill="none" stroke="black" d="M272.319,-147.834C258.498,-137.541 239.046,-123.055 223.239,-111.284"/>
<polygon fill="#663399" stroke="black" points="225.002,-108.234 214.892,-105.068 220.822,-113.848 225.002,-108.234"/>
</g>
<!-- telereddit___main__ -->
<g id="node12" class="node"><title>telereddit___main__</title><style>.edge>path:hover{stroke-width:8}</style>
<ellipse fill="#7a49ac" stroke="black" cx="196" cy="-18" rx="34.9638" ry="18"/>
<text text-anchor="middle" x="196" y="-15.5" font-family="Helvetica,sans-Serif" font-size="10.00" fill="#ffffff">__main__</text>
</g>
<!-- telereddit_telereddit&#45;&gt;telereddit___main__ -->
<g id="edge23" class="edge"><title>telereddit_telereddit&#45;&gt;telereddit___main__</title><style>.edge>path:hover{stroke-width:8}</style>
<path fill="none" stroke="black" d="M196,-71.6966C196,-63.9827 196,-54.7125 196,-46.1124"/>
<polygon fill="#4c2673" stroke="black" points="199.5,-46.1043 196,-36.1043 192.5,-46.1044 199.5,-46.1043"/>
</g>
<!-- telereddit_services_services_wrapper -->
<g id="node9" class="node"><title>telereddit_services_services_wrapper</title><style>.edge>path:hover{stroke-width:8}</style>
<ellipse fill="#7a49ac" stroke="black" cx="556" cy="-384.213" rx="64.1938" ry="21.4286"/>
<text text-anchor="middle" x="556" y="-387.213" font-family="Helvetica,sans-Serif" font-size="10.00" fill="#ffffff">services.</text>
<text text-anchor="middle" x="556" y="-376.213" font-family="Helvetica,sans-Serif" font-size="10.00" fill="#ffffff">services_wrapper</text>
</g>
<!-- telereddit_services_services_wrapper&#45;&gt;telereddit_reddit -->
<g id="edge22" class="edge"><title>telereddit_services_services_wrapper&#45;&gt;telereddit_reddit</title><style>.edge>path:hover{stroke-width:8}</style>
<path fill="none" stroke="black" d="M560.489,-362.886C563.743,-342.462 565.133,-311.196 549,-291 514.286,-247.544 446.593,-237.019 404.261,-234.91"/>
<polygon fill="#7a49ac" stroke="black" points="404.201,-231.406 394.081,-234.541 403.947,-238.401 404.201,-231.406"/>
</g>
<!-- telereddit_helpers&#45;&gt;telereddit_reddit -->
<g id="edge17" class="edge"><title>telereddit_helpers&#45;&gt;telereddit_reddit</title><style>.edge>path:hover{stroke-width:8}</style>
<path fill="none" stroke="black" d="M305.213,-293.578C316.464,-282.91 331.966,-268.214 344.628,-256.21"/>
<polygon fill="#7021bf" stroke="black" points="347.232,-258.564 352.081,-249.144 342.416,-253.484 347.232,-258.564"/>
</g>
<!-- telereddit_helpers&#45;&gt;telereddit_linker -->
<g id="edge16" class="edge"><title>telereddit_helpers&#45;&gt;telereddit_linker</title><style>.edge>path:hover{stroke-width:8}</style>
<path fill="none" stroke="black" d="M290,-290.797C290,-265.943 290,-219.742 290,-190.228"/>
<polygon fill="#7021bf" stroke="black" points="293.5,-190.18 290,-180.18 286.5,-190.18 293.5,-190.18"/>
</g>
<!-- telereddit_helpers&#45;&gt;telereddit_telereddit -->
<g id="edge18" class="edge"><title>telereddit_helpers&#45;&gt;telereddit_telereddit</title><style>.edge>path:hover{stroke-width:8}</style>
<path fill="none" stroke="black" d="M282.78,-291.333C266.513,-253.78 226.894,-162.318 207.322,-117.138"/>
<polygon fill="#7021bf" stroke="black" points="210.431,-115.509 203.245,-107.724 204.008,-118.291 210.431,-115.509"/>
</g>
<!-- telereddit_content_type -->
<g id="node11" class="node"><title>telereddit_content_type</title><style>.edge>path:hover{stroke-width:8}</style>
<ellipse fill="#8547c2" stroke="black" cx="497" cy="-309" rx="42.9448" ry="18"/>
<text text-anchor="middle" x="497" y="-306.5" font-family="Helvetica,sans-Serif" font-size="10.00" fill="#ffffff">content_type</text>
</g>
<!-- telereddit_content_type&#45;&gt;telereddit_reddit -->
<g id="edge15" class="edge"><title>telereddit_content_type&#45;&gt;telereddit_reddit</title><style>.edge>path:hover{stroke-width:8}</style>
<path fill="none" stroke="black" d="M472.242,-294.097C450.487,-281.881 418.816,-264.097 395.905,-251.231"/>
<polygon fill="#8547c2" stroke="black" points="397.416,-248.066 386.983,-246.221 393.989,-254.169 397.416,-248.066"/>
</g>
<!-- telegram -->
<g id="node13" class="node"><title>telegram</title><style>.edge>path:hover{stroke-width:8}</style>
<polygon fill="#26d9d9" stroke="black" points="751,-626.426 748,-630.426 727,-630.426 724,-626.426 697,-626.426 697,-590.426 751,-590.426 751,-626.426"/>
<text text-anchor="middle" x="724" y="-605.926" font-family="Helvetica,sans-Serif" font-size="10.00" fill="#000000">telegram</text>
</g>
<!-- telegram&#45;&gt;telereddit_config_config -->
<g id="edge4" class="edge"><title>telegram&#45;&gt;telereddit_config_config</title><style>.edge>path:hover{stroke-width:8}</style>
<path fill="none" stroke="black" d="M696.764,-593.991C642.756,-567.35 522.109,-507.836 461.781,-478.077"/>
<polygon fill="#26d9d9" stroke="black" points="463.153,-474.851 452.636,-473.566 460.056,-481.128 463.153,-474.851"/>
</g>
<!-- telegram&#45;&gt;telereddit_linker -->
<g id="edge5" class="edge"><title>telegram&#45;&gt;telereddit_linker</title><style>.edge>path:hover{stroke-width:8}</style>
<path fill="none" stroke="black" d="M724,-590.173C724,-572.056 724,-542.739 724,-517.426 724,-517.426 724,-517.426 724,-308 724,-224.476 431.181,-180.334 326.586,-167.231"/>
<polygon fill="#26d9d9" stroke="black" points="326.848,-163.737 316.495,-165.99 325.994,-170.684 326.848,-163.737"/>
</g>
<!-- telegram&#45;&gt;telereddit_telereddit -->
<g id="edge6" class="edge"><title>telegram&#45;&gt;telereddit_telereddit</title><style>.edge>path:hover{stroke-width:8}</style>
<path fill="none" stroke="black" d="M736.023,-590.398C747.156,-572.935 762,-544.563 762,-517.426 762,-517.426 762,-517.426 762,-233 762,-125.238 371.132,-98.5166 239.027,-92.5627"/>
<polygon fill="#26d9d9" stroke="black" points="239.019,-89.0591 228.877,-92.1235 238.716,-96.0526 239.019,-89.0591"/>
</g>
</g>
</svg>
