<?xml version="1.0" encoding="UTF-8" standalone="no"?>
<!DOCTYPE svg PUBLIC "-//W3C//DTD SVG 1.1//EN"
 "http://www.w3.org/Graphics/SVG/1.1/DTD/svg11.dtd">
<!-- Generated by graphviz version 2.40.1 (20161225.0304)
 -->
<!-- Title: G Pages: 1 -->
<svg width="793pt" height="783pt"
 viewBox="0.00 0.00 793.49 783.28" xmlns="http://www.w3.org/2000/svg" xmlns:xlink="http://www.w3.org/1999/xlink">
<g id="graph0" class="graph" transform="scale(1 1) rotate(0) translate(4 779.2792)">
<title>G</title><style>.edge>path:hover{stroke-width:8}</style>
<polygon fill="#ffffff" stroke="transparent" points="-4,4 -4,-779.2792 789.4887,-779.2792 789.4887,4 -4,4"/>
<!-- telereddit_services_service -->
<g id="node1" class="node">
<title>telereddit_services_service</title><style>.edge>path:hover{stroke-width:8}</style>
<ellipse fill="#f31616" stroke="#000000" cx="412.4887" cy="-538.066" rx="39.6962" ry="21.4286"/>
<text text-anchor="middle" x="412.4887" y="-541.066" font-family="Helvetica,sans-Serif" font-size="10.00" fill="#ffffff">services.</text>
<text text-anchor="middle" x="412.4887" y="-530.066" font-family="Helvetica,sans-Serif" font-size="10.00" fill="#ffffff">service</text>
</g>
<!-- telereddit_services_imgur_service -->
<g id="node8" class="node">
<title>telereddit_services_imgur_service</title><style>.edge>path:hover{stroke-width:8}</style>
<ellipse fill="#993333" stroke="#000000" cx="210.4887" cy="-459.6396" rx="54.3945" ry="21.4286"/>
<text text-anchor="middle" x="210.4887" y="-462.6396" font-family="Helvetica,sans-Serif" font-size="10.00" fill="#ffffff">services.</text>
<text text-anchor="middle" x="210.4887" y="-451.6396" font-family="Helvetica,sans-Serif" font-size="10.00" fill="#ffffff">imgur_service</text>
</g>
<!-- telereddit_services_service&#45;&gt;telereddit_services_imgur_service -->
<g id="edge32" class="edge">
<title>telereddit_services_service&#45;&gt;telereddit_services_imgur_service</title><style>.edge>path:hover{stroke-width:8}</style>
<path fill="none" stroke="#000000" d="M380.5194,-525.4741C373.2782,-522.6312 365.6213,-519.6324 358.4887,-516.8528 325.2816,-503.9119 287.8391,-489.4387 258.9232,-478.287"/>
<polygon fill="#f31616" stroke="#000000" points="260.0519,-474.9711 249.4623,-474.6395 257.5338,-481.5025 260.0519,-474.9711"/>
</g>
<!-- telereddit_services_generic_service -->
<g id="node12" class="node">
<title>telereddit_services_generic_service</title><style>.edge>path:hover{stroke-width:8}</style>
<ellipse fill="#a83838" stroke="#000000" cx="343.4887" cy="-459.6396" rx="60.2083" ry="21.4286"/>
<text text-anchor="middle" x="343.4887" y="-462.6396" font-family="Helvetica,sans-Serif" font-size="10.00" fill="#ffffff">services.</text>
<text text-anchor="middle" x="343.4887" y="-451.6396" font-family="Helvetica,sans-Serif" font-size="10.00" fill="#ffffff">generic_service</text>
</g>
<!-- telereddit_services_service&#45;&gt;telereddit_services_generic_service -->
<g id="edge30" class="edge">
<title>telereddit_services_service&#45;&gt;telereddit_services_generic_service</title><style>.edge>path:hover{stroke-width:8}</style>
<path fill="none" stroke="#000000" d="M395.4325,-518.6797C387.2277,-509.354 377.2366,-497.998 368.2168,-487.7459"/>
<polygon fill="#f31616" stroke="#000000" points="370.7875,-485.3691 361.5543,-480.1732 365.532,-489.993 370.7875,-485.3691"/>
</g>
<!-- telereddit_services_gfycat_service -->
<g id="node13" class="node">
<title>telereddit_services_gfycat_service</title><style>.edge>path:hover{stroke-width:8}</style>
<ellipse fill="#993333" stroke="#000000" cx="81.4887" cy="-459.6396" rx="56.6372" ry="21.4286"/>
<text text-anchor="middle" x="81.4887" y="-462.6396" font-family="Helvetica,sans-Serif" font-size="10.00" fill="#ffffff">services.</text>
<text text-anchor="middle" x="81.4887" y="-451.6396" font-family="Helvetica,sans-Serif" font-size="10.00" fill="#ffffff">gfycat_service</text>
</g>
<!-- telereddit_services_service&#45;&gt;telereddit_services_gfycat_service -->
<g id="edge31" class="edge">
<title>telereddit_services_service&#45;&gt;telereddit_services_gfycat_service</title><style>.edge>path:hover{stroke-width:8}</style>
<path fill="none" stroke="#000000" d="M375.8195,-529.421C358.9813,-525.5002 338.741,-520.8557 320.4887,-516.8528 243.7759,-500.029 223.4239,-500.8967 147.4887,-480.8528 142.8593,-479.6308 138.075,-478.2764 133.2956,-476.8602"/>
<polygon fill="#f31616" stroke="#000000" points="134.1295,-473.4554 123.5435,-473.889 132.0893,-480.1516 134.1295,-473.4554"/>
</g>
<!-- telereddit_services_youtube_service -->
<g id="node14" class="node">
<title>telereddit_services_youtube_service</title><style>.edge>path:hover{stroke-width:8}</style>
<ellipse fill="#a13535" stroke="#000000" cx="619.4887" cy="-459.6396" rx="62.4516" ry="21.4286"/>
<text text-anchor="middle" x="619.4887" y="-462.6396" font-family="Helvetica,sans-Serif" font-size="10.00" fill="#ffffff">services.</text>
<text text-anchor="middle" x="619.4887" y="-451.6396" font-family="Helvetica,sans-Serif" font-size="10.00" fill="#ffffff">youtube_service</text>
</g>
<!-- telereddit_services_service&#45;&gt;telereddit_services_youtube_service -->
<g id="edge34" class="edge">
<title>telereddit_services_service&#45;&gt;telereddit_services_youtube_service</title><style>.edge>path:hover{stroke-width:8}</style>
<path fill="none" stroke="#000000" d="M444.4354,-525.4157C451.6778,-522.5758 459.3409,-519.593 466.4887,-516.8528 500.0332,-503.9932 537.8442,-489.8508 567.4852,-478.8441"/>
<polygon fill="#f31616" stroke="#000000" points="569.0478,-481.9976 577.2062,-475.238 566.6132,-475.4346 569.0478,-481.9976"/>
</g>
<!-- telereddit_services_vreddit_service -->
<g id="node16" class="node">
<title>telereddit_services_vreddit_service</title><style>.edge>path:hover{stroke-width:8}</style>
<ellipse fill="#a13535" stroke="#000000" cx="480.4887" cy="-459.6396" rx="58.8803" ry="21.4286"/>
<text text-anchor="middle" x="480.4887" y="-462.6396" font-family="Helvetica,sans-Serif" font-size="10.00" fill="#ffffff">services.</text>
<text text-anchor="middle" x="480.4887" y="-451.6396" font-family="Helvetica,sans-Serif" font-size="10.00" fill="#ffffff">vreddit_service</text>
</g>
<!-- telereddit_services_service&#45;&gt;telereddit_services_vreddit_service -->
<g id="edge33" class="edge">
<title>telereddit_services_service&#45;&gt;telereddit_services_vreddit_service</title><style>.edge>path:hover{stroke-width:8}</style>
<path fill="none" stroke="#000000" d="M429.2977,-518.6797C437.4463,-509.2817 447.3827,-497.8218 456.3256,-487.5077"/>
<polygon fill="#f31616" stroke="#000000" points="459.0179,-489.7452 462.9245,-479.8969 453.7291,-485.1595 459.0179,-489.7452"/>
</g>
<!-- telereddit_linker -->
<g id="node2" class="node">
<title>telereddit_linker</title><style>.edge>path:hover{stroke-width:8}</style>
<ellipse fill="#a13535" stroke="#000000" cx="690.4887" cy="-162" rx="27" ry="18"/>
<text text-anchor="middle" x="690.4887" y="-159.5" font-family="Helvetica,sans-Serif" font-size="10.00" fill="#ffffff">linker</text>
</g>
<!-- telereddit_telereddit -->
<g id="node15" class="node">
<title>telereddit_telereddit</title><style>.edge>path:hover{stroke-width:8}</style>
<ellipse fill="#a13535" stroke="#000000" cx="717.4887" cy="-90" rx="32.9303" ry="18"/>
<text text-anchor="middle" x="717.4887" y="-87.5" font-family="Helvetica,sans-Serif" font-size="10.00" fill="#ffffff">telereddit</text>
</g>
<!-- telereddit_linker&#45;&gt;telereddit_telereddit -->
<g id="edge24" class="edge">
<title>telereddit_linker&#45;&gt;telereddit_telereddit</title><style>.edge>path:hover{stroke-width:8}</style>
<path fill="none" stroke="#000000" d="M697.1629,-144.2022C700.2134,-136.0675 703.8949,-126.2501 707.2819,-117.2181"/>
<polygon fill="#a13535" stroke="#000000" points="710.5636,-118.4348 710.7978,-107.8425 704.0093,-115.9769 710.5636,-118.4348"/>
</g>
<!-- telereddit_helpers -->
<g id="node3" class="node">
<title>telereddit_helpers</title><style>.edge>path:hover{stroke-width:8}</style>
<ellipse fill="#df0b0b" stroke="#000000" cx="518.4887" cy="-613.2792" rx="28.0137" ry="18"/>
<text text-anchor="middle" x="518.4887" y="-610.7792" font-family="Helvetica,sans-Serif" font-size="10.00" fill="#ffffff">helpers</text>
</g>
<!-- telereddit_helpers&#45;&gt;telereddit_linker -->
<g id="edge19" class="edge">
<title>telereddit_helpers&#45;&gt;telereddit_linker</title><style>.edge>path:hover{stroke-width:8}</style>
<path fill="none" stroke="#000000" d="M747.4887,-306C739.9491,-274.9009 753.4836,-265.4334 747.4887,-234"/>
<path fill="none" stroke="#000000" d="M747.4887,-234C743.6437,-213.8393 729.2518,-195.7479 715.8927,-182.7427"/>
<polygon fill="#df0b0b" stroke="#000000" points="717.9628,-179.8913 708.2339,-175.696 713.2231,-185.0426 717.9628,-179.8913"/>
</g>
<!-- telereddit_reddit -->
<g id="node11" class="node">
<title>telereddit_reddit</title><style>.edge>path:hover{stroke-width:8}</style>
<ellipse fill="#913030" stroke="#000000" cx="689.4887" cy="-234" rx="27" ry="18"/>
<text text-anchor="middle" x="689.4887" y="-231.5" font-family="Helvetica,sans-Serif" font-size="10.00" fill="#ffffff">reddit</text>
</g>
<!-- telereddit_helpers&#45;&gt;telereddit_reddit -->
<g id="edge20" class="edge">
<title>telereddit_helpers&#45;&gt;telereddit_reddit</title><style>.edge>path:hover{stroke-width:8}</style>
<path fill="none" stroke="#000000" d="M541.2992,-602.5841C547.4422,-599.9585 554.1449,-597.3192 560.4887,-595.2792 631.117,-572.567 674.3488,-614.8622 723.4887,-559.2792 760.9356,-516.9225 758.2466,-361.5034 747.4887,-306"/>
<path fill="none" stroke="#000000" d="M747.4887,-306C742.6201,-285.9182 727.9812,-267.8263 714.6295,-254.8012"/>
<polygon fill="#df0b0b" stroke="#000000" points="716.7172,-251.9644 707.0005,-247.7409 711.9626,-257.102 716.7172,-251.9644"/>
</g>
<!-- telereddit_helpers&#45;&gt;telereddit_services_youtube_service -->
<g id="edge22" class="edge">
<title>telereddit_helpers&#45;&gt;telereddit_services_youtube_service</title><style>.edge>path:hover{stroke-width:8}</style>
<path fill="none" stroke="#000000" d="M524.1226,-595.3557C530.0366,-578.8642 540.6919,-554.538 556.4887,-538.066"/>
</g>
<!-- telereddit_helpers&#45;&gt;telereddit_telereddit -->
<g id="edge23" class="edge">
<title>telereddit_helpers&#45;&gt;telereddit_telereddit</title><style>.edge>path:hover{stroke-width:8}</style>
<path fill="none" stroke="#000000" d="M747.4887,-234C741.4938,-202.5666 757.749,-192.3105 747.4887,-162"/>
<path fill="none" stroke="#000000" d="M747.4887,-162C742.3178,-146.7242 735.4654,-130.079 729.6151,-116.6446"/>
<polygon fill="#df0b0b" stroke="#000000" points="732.8149,-115.2264 725.5706,-107.4952 726.4125,-118.0565 732.8149,-115.2264"/>
</g>
<!-- telereddit_helpers&#45;&gt;telereddit_services_vreddit_service -->
<g id="edge21" class="edge">
<title>telereddit_helpers&#45;&gt;telereddit_services_vreddit_service</title><style>.edge>path:hover{stroke-width:8}</style>
<path fill="none" stroke="#000000" d="M514.0553,-595.3541C507.723,-569.7517 495.9959,-522.3376 488.217,-490.8862"/>
<polygon fill="#df0b0b" stroke="#000000" points="491.5424,-489.7537 485.7438,-480.8866 484.7472,-491.4344 491.5424,-489.7537"/>
</g>
<!-- telereddit_config -->
<g id="node4" class="node">
<title>telereddit_config</title><style>.edge>path:hover{stroke-width:8}</style>
<ellipse fill="#f91010" stroke="#000000" cx="431.4887" cy="-685.2792" rx="27" ry="18"/>
<text text-anchor="middle" x="431.4887" y="-682.7792" font-family="Helvetica,sans-Serif" font-size="10.00" fill="#ffffff">config</text>
</g>
<!-- telereddit_config&#45;&gt;telereddit_linker -->
<g id="edge2" class="edge">
<title>telereddit_config&#45;&gt;telereddit_linker</title><style>.edge>path:hover{stroke-width:8}</style>
<path fill="none" stroke="#000000" d="M405.5467,-679.7303C327.4187,-662.3065 98.6614,-605.7982 81.4887,-538.066"/>
<path fill="none" stroke="#000000" d="M81.4887,-538.066C72.0706,-527.3906 68.2268,-526.1995 57.4887,-516.8528 38.9443,-500.7113 25.7619,-503.189 15.4887,-480.8528 7.6095,-463.7217 5.3653,-454.3346 15.4887,-438.4264 43.1865,-394.9013 97.7248,-429.2706 116.4887,-381.2132"/>
<path fill="none" stroke="#000000" d="M116.4887,-381.2132C128.9298,-345.8877 83.1105,-343.166 78.4887,-306"/>
</g>
<!-- telereddit_config&#45;&gt;telereddit_helpers -->
<g id="edge1" class="edge">
<title>telereddit_config&#45;&gt;telereddit_helpers</title><style>.edge>path:hover{stroke-width:8}</style>
<path fill="none" stroke="#000000" d="M448.6771,-671.0543C461.3443,-660.5712 478.7796,-646.142 493.0568,-634.3263"/>
<polygon fill="#f91010" stroke="#000000" points="495.5658,-636.7931 501.0382,-627.721 491.1028,-631.4003 495.5658,-636.7931"/>
</g>
<!-- telereddit_config&#45;&gt;telereddit_services_imgur_service -->
<g id="edge5" class="edge">
<title>telereddit_config&#45;&gt;telereddit_services_imgur_service</title><style>.edge>path:hover{stroke-width:8}</style>
<path fill="none" stroke="#000000" d="M412.0231,-672.6131C398.4975,-662.8496 381.0668,-648.1852 370.4887,-631.2792 347.6753,-594.8188 374.1132,-569.2463 344.4887,-538.066"/>
<path fill="none" stroke="#000000" d="M344.4887,-538.066C318.7508,-513.6463 284.0567,-493.6055 256.4197,-479.896"/>
<polygon fill="#f91010" stroke="#000000" points="257.8657,-476.7075 247.3408,-475.4923 254.8107,-483.0057 257.8657,-476.7075"/>
</g>
<!-- telereddit_config&#45;&gt;telereddit_reddit -->
<g id="edge3" class="edge">
<title>telereddit_config&#45;&gt;telereddit_reddit</title><style>.edge>path:hover{stroke-width:8}</style>
<path fill="none" stroke="#000000" d="M116.4887,-381.2132C128.6467,-350.0745 107.2238,-338.1185 116.4887,-306"/>
</g>
<!-- telereddit_config&#45;&gt;telereddit_services_gfycat_service -->
<g id="edge4" class="edge">
<title>telereddit_config&#45;&gt;telereddit_services_gfycat_service</title><style>.edge>path:hover{stroke-width:8}</style>
<path fill="none" stroke="#000000" d="M81.4887,-538.066C77.6382,-522.8789 77.2493,-505.4992 77.9879,-490.9665"/>
<polygon fill="#f91010" stroke="#000000" points="81.4814,-491.1806 78.6917,-480.9596 74.4987,-490.6894 81.4814,-491.1806"/>
</g>
<!-- telereddit_config&#45;&gt;telereddit_telereddit -->
<g id="edge6" class="edge">
<title>telereddit_config&#45;&gt;telereddit_telereddit</title><style>.edge>path:hover{stroke-width:8}</style>
<path fill="none" stroke="#000000" d="M456.0557,-677.4393C482.027,-668.5164 523.5703,-652.3993 555.4887,-631.2792 565.1895,-624.8603 564.6683,-619.5137 574.4887,-613.2792"/>
<path fill="none" stroke="#000000" d="M574.4887,-613.2792C642.4902,-570.1086 688.8008,-614.4483 747.4887,-559.2792 782.0217,-526.8168 785.4887,-507.0351 785.4887,-459.6396 785.4887,-459.6396 785.4887,-459.6396 785.4887,-306 785.4887,-239.8091 768.7118,-224.6962 747.4887,-162"/>
</g>
<!-- telereddit_services -->
<g id="node5" class="node">
<title>telereddit_services</title><style>.edge>path:hover{stroke-width:8}</style>
<ellipse fill="#f91010" stroke="#000000" cx="688.4887" cy="-306" rx="31.3996" ry="18"/>
<text text-anchor="middle" x="688.4887" y="-303.5" font-family="Helvetica,sans-Serif" font-size="10.00" fill="#ffffff">services</text>
</g>
<!-- telereddit_services&#45;&gt;telereddit_reddit -->
<g id="edge26" class="edge">
<title>telereddit_services&#45;&gt;telereddit_reddit</title><style>.edge>path:hover{stroke-width:8}</style>
<path fill="none" stroke="#000000" d="M688.7411,-287.8314C688.848,-280.131 688.9752,-270.9743 689.094,-262.4166"/>
<polygon fill="#f91010" stroke="#000000" points="692.5937,-262.4609 689.233,-252.4133 685.5943,-262.3637 692.5937,-262.4609"/>
</g>
<!-- telereddit_services_services_wrapper -->
<g id="node6" class="node">
<title>telereddit_services_services_wrapper</title><style>.edge>path:hover{stroke-width:8}</style>
<ellipse fill="#913030" stroke="#000000" cx="210.4887" cy="-381.2132" rx="65.5227" ry="21.4286"/>
<text text-anchor="middle" x="210.4887" y="-384.2132" font-family="Helvetica,sans-Serif" font-size="10.00" fill="#ffffff">services.</text>
<text text-anchor="middle" x="210.4887" y="-373.2132" font-family="Helvetica,sans-Serif" font-size="10.00" fill="#ffffff">services_wrapper</text>
</g>
<!-- telereddit_services_services_wrapper&#45;&gt;telereddit_reddit -->
<g id="edge35" class="edge">
<title>telereddit_services_services_wrapper&#45;&gt;telereddit_reddit</title><style>.edge>path:hover{stroke-width:8}</style>
<path fill="none" stroke="#000000" d="M164.2774,-366.0022C135.3408,-353.5252 105.4591,-333.4405 116.4887,-306"/>
</g>
<!-- telereddit___main__ -->
<g id="node7" class="node">
<title>telereddit___main__</title><style>.edge>path:hover{stroke-width:8}</style>
<ellipse fill="#ac4949" stroke="#000000" cx="717.4887" cy="-18" rx="34.9638" ry="18"/>
<text text-anchor="middle" x="717.4887" y="-15.5" font-family="Helvetica,sans-Serif" font-size="10.00" fill="#ffffff">__main__</text>
</g>
<!-- telereddit_services_imgur_service&#45;&gt;telereddit_services_services_wrapper -->
<g id="edge29" class="edge">
<title>telereddit_services_imgur_service&#45;&gt;telereddit_services_services_wrapper</title><style>.edge>path:hover{stroke-width:8}</style>
<path fill="none" stroke="#000000" d="M210.4887,-438.2092C210.4887,-430.342 210.4887,-421.2631 210.4887,-412.6967"/>
<polygon fill="#993333" stroke="#000000" points="213.9888,-412.6176 210.4887,-402.6177 206.9888,-412.6177 213.9888,-412.6176"/>
</g>
<!-- telereddit_content_type -->
<g id="node9" class="node">
<title>telereddit_content_type</title><style>.edge>path:hover{stroke-width:8}</style>
<ellipse fill="#f91010" stroke="#000000" cx="422.4887" cy="-613.2792" rx="42.9448" ry="18"/>
<text text-anchor="middle" x="422.4887" y="-610.7792" font-family="Helvetica,sans-Serif" font-size="10.00" fill="#ffffff">content_type</text>
</g>
<!-- telereddit_content_type&#45;&gt;telereddit_services_imgur_service -->
<g id="edge16" class="edge">
<title>telereddit_content_type&#45;&gt;telereddit_services_imgur_service</title><style>.edge>path:hover{stroke-width:8}</style>
<path fill="none" stroke="#000000" d="M403.7114,-596.9528C391.8945,-586.4705 376.477,-572.4081 363.4887,-559.2792 354.5872,-550.2814 353.2067,-547.2418 344.4887,-538.066"/>
</g>
<!-- telereddit_content_type&#45;&gt;telereddit_reddit -->
<g id="edge13" class="edge">
<title>telereddit_content_type&#45;&gt;telereddit_reddit</title><style>.edge>path:hover{stroke-width:8}</style>
<path fill="none" stroke="#000000" d="M457.8182,-602.9081C488.4083,-593.342 533.4394,-577.837 570.4887,-559.2792 627.4553,-530.745 660.1688,-536.8894 690.4887,-480.8528 699.462,-464.2686 702.2281,-453.1825 690.4887,-438.4264 670.114,-412.8159 104.2834,-336.3654 116.4887,-306"/>
</g>
<!-- telereddit_content_type&#45;&gt;telereddit_services_generic_service -->
<g id="edge14" class="edge">
<title>telereddit_content_type&#45;&gt;telereddit_services_generic_service</title><style>.edge>path:hover{stroke-width:8}</style>
<path fill="none" stroke="#000000" d="M444.809,-597.7149C461.4674,-584.0741 481.2385,-562.6238 480.4887,-538.066"/>
<path fill="none" stroke="#000000" d="M480.4887,-538.066C479.868,-517.7371 433.9163,-494.6185 395.4056,-478.7783"/>
<polygon fill="#f91010" stroke="#000000" points="396.3908,-475.402 385.8072,-474.914 393.7766,-481.8955 396.3908,-475.402"/>
</g>
<!-- telereddit_content_type&#45;&gt;telereddit_services_gfycat_service -->
<g id="edge15" class="edge">
<title>telereddit_content_type&#45;&gt;telereddit_services_gfycat_service</title><style>.edge>path:hover{stroke-width:8}</style>
<path fill="none" stroke="#000000" d="M393.1201,-600.047C333.5181,-573.193 198.003,-512.1358 126.9245,-480.111"/>
<polygon fill="#f91010" stroke="#000000" points="128.3081,-476.8956 117.753,-475.9787 125.4326,-483.2777 128.3081,-476.8956"/>
</g>
<!-- telereddit_content_type&#45;&gt;telereddit_services_youtube_service -->
<g id="edge18" class="edge">
<title>telereddit_content_type&#45;&gt;telereddit_services_youtube_service</title><style>.edge>path:hover{stroke-width:8}</style>
<path fill="none" stroke="#000000" d="M454.9532,-601.4488C484.5031,-589.3251 527.7749,-568.007 556.4887,-538.066"/>
<path fill="none" stroke="#000000" d="M556.4887,-538.066C571.3801,-522.5382 586.5279,-503.7944 598.2372,-488.5252"/>
<polygon fill="#f91010" stroke="#000000" points="601.1128,-490.5256 604.3652,-480.4423 595.5346,-486.2966 601.1128,-490.5256"/>
</g>
<!-- telereddit_content_type&#45;&gt;telereddit_services_vreddit_service -->
<g id="edge17" class="edge">
<title>telereddit_content_type&#45;&gt;telereddit_services_vreddit_service</title><style>.edge>path:hover{stroke-width:8}</style>
<path fill="none" stroke="#000000" d="M480.4887,-538.066C480.0185,-522.6662 479.964,-505.5575 480.0495,-491.2594"/>
<polygon fill="#f91010" stroke="#000000" points="483.552,-490.9778 480.1377,-480.9483 476.5522,-490.9179 483.552,-490.9778"/>
</g>
<!-- telereddit_config_config -->
<g id="node10" class="node">
<title>telereddit_config_config</title><style>.edge>path:hover{stroke-width:8}</style>
<ellipse fill="#f31616" stroke="#000000" cx="308.4887" cy="-757.2792" rx="42.2678" ry="18"/>
<text text-anchor="middle" x="308.4887" y="-754.7792" font-family="Helvetica,sans-Serif" font-size="10.00" fill="#ffffff">config.config</text>
</g>
<!-- telereddit_config_config&#45;&gt;telereddit_linker -->
<g id="edge8" class="edge">
<title>telereddit_config_config&#45;&gt;telereddit_linker</title><style>.edge>path:hover{stroke-width:8}</style>
<path fill="none" stroke="#000000" d="M274.9552,-746.071C207.5313,-721.1827 60.507,-654.1513 43.4887,-538.066"/>
<path fill="none" stroke="#000000" d="M43.4887,-538.066C32.9557,-509.4151 14.3094,-510.0764 5.4887,-480.8528 .04,-462.801 -2.7644,-455.3805 5.4887,-438.4264 23.5309,-401.3628 54.5481,-414.7703 78.4887,-381.2132"/>
<path fill="none" stroke="#000000" d="M78.4887,-381.2132C94.6689,-351.9619 82.6139,-339.1726 78.4887,-306"/>
<path fill="none" stroke="#000000" d="M78.4887,-306C63.8004,-187.8834 518.3178,-166.508 653.2418,-162.7675"/>
<polygon fill="#f31616" stroke="#000000" points="653.5792,-166.26 663.4847,-162.5008 653.3969,-159.2624 653.5792,-166.26"/>
</g>
<!-- telereddit_config_config&#45;&gt;telereddit_helpers -->
<g id="edge7" class="edge">
<title>telereddit_config_config&#45;&gt;telereddit_helpers</title><style>.edge>path:hover{stroke-width:8}</style>
<path fill="none" stroke="#000000" d="M574.4887,-685.2792C577.628,-664.3416 562.2148,-645.6358 546.7708,-632.5412"/>
<polygon fill="#f31616" stroke="#000000" points="548.8028,-629.6859 538.7899,-626.223 544.4579,-635.1742 548.8028,-629.6859"/>
</g>
<!-- telereddit_config_config&#45;&gt;telereddit_services_imgur_service -->
<g id="edge11" class="edge">
<title>telereddit_config_config&#45;&gt;telereddit_services_imgur_service</title><style>.edge>path:hover{stroke-width:8}</style>
<path fill="none" stroke="#000000" d="M350.4912,-754.4016C423.7348,-748.2101 567.7316,-730.3453 574.4887,-685.2792"/>
<path fill="none" stroke="#000000" d="M574.4887,-685.2792C588.3957,-592.5267 450.9507,-679.4696 370.4887,-631.2792 309.1759,-594.5577 256.7572,-527.5593 229.8366,-489.0268"/>
<polygon fill="#f31616" stroke="#000000" points="232.4123,-486.5953 223.8623,-480.3386 226.6444,-490.5616 232.4123,-486.5953"/>
</g>
<!-- telereddit_config_config&#45;&gt;telereddit_reddit -->
<g id="edge9" class="edge">
<title>telereddit_config_config&#45;&gt;telereddit_reddit</title><style>.edge>path:hover{stroke-width:8}</style>
<path fill="none" stroke="#000000" d="M78.4887,-381.2132C100.2401,-350.7247 106.1084,-341.985 116.4887,-306"/>
<path fill="none" stroke="#000000" d="M116.4887,-306C131.4577,-254.1075 527.1558,-238.5622 652.0747,-234.9406"/>
<polygon fill="#f31616" stroke="#000000" points="652.3933,-238.4331 662.2911,-234.6537 652.1968,-231.4359 652.3933,-238.4331"/>
</g>
<!-- telereddit_config_config&#45;&gt;telereddit_services_gfycat_service -->
<g id="edge10" class="edge">
<title>telereddit_config_config&#45;&gt;telereddit_services_gfycat_service</title><style>.edge>path:hover{stroke-width:8}</style>
<path fill="none" stroke="#000000" d="M43.4887,-538.066C40.908,-520.4625 48.7163,-502.4831 57.9138,-488.1876"/>
<polygon fill="#f31616" stroke="#000000" points="60.9101,-490.009 63.7395,-479.799 55.1606,-486.0161 60.9101,-490.009"/>
</g>
<!-- telereddit_config_config&#45;&gt;telereddit_telereddit -->
<g id="edge12" class="edge">
<title>telereddit_config_config&#45;&gt;telereddit_telereddit</title><style>.edge>path:hover{stroke-width:8}</style>
<path fill="none" stroke="#000000" d="M574.4887,-685.2792C580.6513,-653.8782 547.7889,-630.9179 574.4887,-613.2792"/>
</g>
<!-- telereddit_reddit&#45;&gt;telereddit_linker -->
<g id="edge25" class="edge">
<title>telereddit_reddit&#45;&gt;telereddit_linker</title><style>.edge>path:hover{stroke-width:8}</style>
<path fill="none" stroke="#000000" d="M689.7411,-215.8314C689.848,-208.131 689.9752,-198.9743 690.094,-190.4166"/>
<polygon fill="#913030" stroke="#000000" points="693.5937,-190.4609 690.233,-180.4133 686.5943,-190.3637 693.5937,-190.4609"/>
</g>
<!-- telereddit_services_generic_service&#45;&gt;telereddit_services_services_wrapper -->
<g id="edge27" class="edge">
<title>telereddit_services_generic_service&#45;&gt;telereddit_services_services_wrapper</title><style>.edge>path:hover{stroke-width:8}</style>
<path fill="none" stroke="#000000" d="M312.3061,-441.2521C294.0627,-430.4945 270.8236,-416.791 251.1548,-405.1928"/>
<polygon fill="#a83838" stroke="#000000" points="252.7915,-402.0948 242.3997,-400.0302 249.2358,-408.1246 252.7915,-402.0948"/>
</g>
<!-- telereddit_services_gfycat_service&#45;&gt;telereddit_services_services_wrapper -->
<g id="edge28" class="edge">
<title>telereddit_services_gfycat_service&#45;&gt;telereddit_services_services_wrapper</title><style>.edge>path:hover{stroke-width:8}</style>
<path fill="none" stroke="#000000" d="M111.4081,-441.4499C129.0136,-430.7465 151.4993,-417.0762 170.5982,-405.4649"/>
<polygon fill="#993333" stroke="#000000" points="172.6582,-408.3086 179.3848,-400.1231 169.0217,-402.3273 172.6582,-408.3086"/>
</g>
<!-- telereddit_services_youtube_service&#45;&gt;telereddit_services_services_wrapper -->
<g id="edge37" class="edge">
<title>telereddit_services_youtube_service&#45;&gt;telereddit_services_services_wrapper</title><style>.edge>path:hover{stroke-width:8}</style>
<path fill="none" stroke="#000000" d="M574.3042,-445.0249C565.7875,-442.5884 556.9106,-440.261 548.4887,-438.4264 435.3641,-413.7836 403.9832,-425.3053 290.4887,-402.4264 283.7695,-401.0719 276.7766,-399.4856 269.8452,-397.801"/>
<polygon fill="#a13535" stroke="#000000" points="270.324,-394.3128 259.7732,-395.2779 268.623,-401.103 270.324,-394.3128"/>
</g>
<!-- telereddit_telereddit&#45;&gt;telereddit___main__ -->
<g id="edge38" class="edge">
<title>telereddit_telereddit&#45;&gt;telereddit___main__</title><style>.edge>path:hover{stroke-width:8}</style>
<path fill="none" stroke="#000000" d="M717.4887,-71.8314C717.4887,-64.131 717.4887,-54.9743 717.4887,-46.4166"/>
<polygon fill="#a13535" stroke="#000000" points="720.9888,-46.4132 717.4887,-36.4133 713.9888,-46.4133 720.9888,-46.4132"/>
</g>
<!-- telereddit_services_vreddit_service&#45;&gt;telereddit_services_services_wrapper -->
<g id="edge36" class="edge">
<title>telereddit_services_vreddit_service&#45;&gt;telereddit_services_services_wrapper</title><style>.edge>path:hover{stroke-width:8}</style>
<path fill="none" stroke="#000000" d="M436.2804,-445.6629C428.3692,-443.2147 420.1932,-440.7188 412.4887,-438.4264 364.8842,-424.2622 310.726,-408.9667 270.4786,-397.7574"/>
<polygon fill="#a13535" stroke="#000000" points="271.3905,-394.3782 260.8183,-395.071 269.515,-401.1223 271.3905,-394.3782"/>
</g>
</g>
</svg>
