<?xml version="1.0" encoding="UTF-8" standalone="no"?>
<!DOCTYPE svg PUBLIC "-//W3C//DTD SVG 1.1//EN"
 "http://www.w3.org/Graphics/SVG/1.1/DTD/svg11.dtd">
<!-- Generated by graphviz version 2.38.0 (20140413.2041)
 -->
<!-- Title: G Pages: 1 -->
<svg width="1849pt" height="999pt"
 viewBox="0.00 0.00 1849.03 999.41" xmlns="http://www.w3.org/2000/svg" xmlns:xlink="http://www.w3.org/1999/xlink">
<g id="graph0" class="graph" transform="scale(1 1) rotate(0) translate(4 995.411)">
<title>G</title><style>.edge>path:hover{stroke-width:8}</style>
<polygon fill="white" stroke="none" points="-4,4 -4,-995.411 1845.03,-995.411 1845.03,4 -4,4"/>
<g id="clust1" class="cluster"><title>cluster_parameterized</title><style>.edge>path:hover{stroke-width:8}</style>
<polygon fill="none" stroke="black" points="36,-637.132 36,-790.558 166,-790.558 166,-637.132 36,-637.132"/>
<text text-anchor="middle" x="101" y="-775.358" font-family="Times New Roman,serif" font-size="14.00">parameterized</text>
</g>
<g id="clust3" class="cluster"><title>cluster_sentrysdk</title><style>.edge>path:hover{stroke-width:8}</style>
<polygon fill="none" stroke="black" points="1011,-217.64 1011,-292.64 1103,-292.64 1103,-217.64 1011,-217.64"/>
<text text-anchor="middle" x="1057" y="-277.44" font-family="Times New Roman,serif" font-size="14.00">sentrysdk</text>
</g>
<g id="clust2" class="cluster"><title>cluster_requests</title><style>.edge>path:hover{stroke-width:8}</style>
<polygon fill="none" stroke="black" points="712,-712.345 712,-787.345 792,-787.345 792,-712.345 712,-712.345"/>
<text text-anchor="middle" x="752" y="-772.145" font-family="Times New Roman,serif" font-size="14.00">requests</text>
</g>
<!-- parameterized -->
<g id="node1" class="node"><title>parameterized</title><style>.edge>path:hover{stroke-width:8}</style>
<ellipse fill="#c04040" stroke="black" cx="112" cy="-663.132" rx="45.8316" ry="18"/>
<text text-anchor="middle" x="112" y="-660.632" font-family="Helvetica,sans-Serif" font-size="10.00" fill="#ffffff">parameterized</text>
</g>
<!-- telereddit_tests_test_helpers -->
<g id="node15" class="node"><title>telereddit_tests_test_helpers</title><style>.edge>path:hover{stroke-width:8}</style>
<ellipse fill="#8b439d" stroke="black" cx="102" cy="-437.492" rx="49.4949" ry="21.4286"/>
<text text-anchor="middle" x="102" y="-440.492" font-family="Helvetica,sans-Serif" font-size="10.00" fill="#ffffff">tests.</text>
<text text-anchor="middle" x="102" y="-429.492" font-family="Helvetica,sans-Serif" font-size="10.00" fill="#ffffff">test_helpers</text>
</g>
<!-- parameterized&#45;&gt;telereddit_tests_test_helpers -->
<g id="edge1" class="edge"><title>parameterized&#45;&gt;telereddit_tests_test_helpers</title><style>.edge>path:hover{stroke-width:8}</style>
<path fill="none" stroke="black" d="M110.889,-637.28C109.045,-596.045 105.359,-513.613 103.362,-468.947"/>
<polygon fill="#000000" stroke="black" points="106.857,-468.749 102.913,-458.916 99.8635,-469.062 106.857,-468.749"/>
</g>
<!-- telereddit_tests_test_services -->
<g id="node24" class="node"><title>telereddit_tests_test_services</title><style>.edge>path:hover{stroke-width:8}</style>
<ellipse fill="#7e3d8f" stroke="black" cx="603" cy="-243.64" rx="52.1524" ry="21.4286"/>
<text text-anchor="middle" x="603" y="-246.64" font-family="Helvetica,sans-Serif" font-size="10.00" fill="#ffffff">tests.</text>
<text text-anchor="middle" x="603" y="-235.64" font-family="Helvetica,sans-Serif" font-size="10.00" fill="#ffffff">test_services</text>
</g>
<!-- parameterized&#45;&gt;telereddit_tests_test_services -->
<g id="edge2" class="edge"><title>parameterized&#45;&gt;telereddit_tests_test_services</title><style>.edge>path:hover{stroke-width:8}</style>
<path fill="none" stroke="black" d="M118.01,-637.284C131.868,-581.704 167.231,-449.61 198,-416.279 292.297,-314.131 457.279,-270.466 544.735,-253.762"/>
<polygon fill="#000000" stroke="black" points="545.556,-257.17 554.75,-251.903 544.279,-250.287 545.556,-257.17"/>
</g>
<!-- parameterized_parameterized -->
<g id="node2" class="node"><title>parameterized_parameterized</title><style>.edge>path:hover{stroke-width:8}</style>
<ellipse fill="#ce3b3b" stroke="black" cx="101" cy="-738.345" rx="57.0522" ry="21.4286"/>
<text text-anchor="middle" x="101" y="-741.345" font-family="Helvetica,sans-Serif" font-size="10.00" fill="#ffffff">parameterized.</text>
<text text-anchor="middle" x="101" y="-730.345" font-family="Helvetica,sans-Serif" font-size="10.00" fill="#ffffff">parameterized</text>
</g>
<!-- parameterized_parameterized&#45;&gt;parameterized -->
<g id="edge3" class="edge"><title>parameterized_parameterized&#45;&gt;parameterized</title><style>.edge>path:hover{stroke-width:8}</style>
<path fill="none" stroke="black" d="M104.064,-716.951C105.244,-709.097 106.612,-699.996 107.876,-691.583"/>
<polygon fill="#000000" stroke="black" points="111.375,-691.851 109.399,-681.442 104.452,-690.811 111.375,-691.851"/>
</g>
<!-- parameterized_parameterized&#45;&gt;telereddit_tests_test_helpers -->
<g id="edge4" class="edge"><title>parameterized_parameterized&#45;&gt;telereddit_tests_test_helpers</title><style>.edge>path:hover{stroke-width:8}</style>
<path fill="none" stroke="black" d="M48.3783,-637.273C43.8984,-573.183 69.8219,-505.176 87.1965,-467.653"/>
<polygon fill="#000000" stroke="black" points="90.4143,-469.036 91.5468,-458.501 84.0923,-466.03 90.4143,-469.036"/>
</g>
<!-- parameterized_parameterized&#45;&gt;telereddit_tests_test_services -->
<g id="edge5" class="edge"><title>parameterized_parameterized&#45;&gt;telereddit_tests_test_services</title><style>.edge>path:hover{stroke-width:8}</style>
<path fill="none" stroke="black" d="M36.4098,-678.269C16.6389,-653.969 0,-624.041 0,-592.132 0,-592.132 0,-592.132 0,-358.066 0,-303.332 388.667,-263.374 541.924,-249.745"/>
<polygon fill="#000000" stroke="black" points="542.454,-253.212 552.108,-248.848 541.84,-246.239 542.454,-253.212"/>
</g>
<!-- requests -->
<g id="node3" class="node"><title>requests</title><style>.edge>path:hover{stroke-width:8}</style>
<ellipse fill="#c8f906" stroke="black" cx="752" cy="-738.345" rx="31.577" ry="18"/>
<text text-anchor="middle" x="752" y="-735.845" font-family="Helvetica,sans-Serif" font-size="10.00" fill="#000000">requests</text>
</g>
<!-- telereddit_reddit -->
<g id="node7" class="node"><title>telereddit_reddit</title><style>.edge>path:hover{stroke-width:8}</style>
<ellipse fill="#7d2493" stroke="black" cx="1140" cy="-243.64" rx="27" ry="18"/>
<text text-anchor="middle" x="1140" y="-241.14" font-family="Helvetica,sans-Serif" font-size="10.00" fill="#ffffff">reddit</text>
</g>
<!-- requests&#45;&gt;telereddit_reddit -->
<g id="edge7" class="edge"><title>requests&#45;&gt;telereddit_reddit</title><style>.edge>path:hover{stroke-width:8}</style>
<path fill="none" stroke="black" d="M791.565,-734.268C870.631,-727.579 1045.03,-709.955 1097,-681.132 1143,-655.623 1175,-644.729 1175,-592.132 1175,-592.132 1175,-592.132 1175,-436.492 1175,-376.71 1158.35,-308.126 1148.02,-271.321"/>
<polygon fill="#000000" stroke="black" points="1151.29,-270.035 1145.16,-261.39 1144.56,-271.968 1151.29,-270.035"/>
</g>
<!-- telereddit_helpers -->
<g id="node8" class="node"><title>telereddit_helpers</title><style>.edge>path:hover{stroke-width:8}</style>
<ellipse fill="#b005db" stroke="black" cx="967" cy="-591.132" rx="28.0137" ry="18"/>
<text text-anchor="middle" x="967" y="-588.632" font-family="Helvetica,sans-Serif" font-size="10.00" fill="#ffffff">helpers</text>
</g>
<!-- requests&#45;&gt;telereddit_helpers -->
<g id="edge6" class="edge"><title>requests&#45;&gt;telereddit_helpers</title><style>.edge>path:hover{stroke-width:8}</style>
<path fill="none" stroke="black" d="M791.776,-715.043C809.006,-705.067 829.253,-692.918 847,-681.132 880.677,-658.767 917.827,-630.645 941.739,-612.067"/>
<polygon fill="#000000" stroke="black" points="944.189,-614.594 949.918,-605.682 939.882,-609.076 944.189,-614.594"/>
</g>
<!-- telereddit_services_vreddit_service -->
<g id="node13" class="node"><title>telereddit_services_vreddit_service</title><style>.edge>path:hover{stroke-width:8}</style>
<ellipse fill="#853399" stroke="black" cx="603" cy="-437.492" rx="56.6372" ry="21.4286"/>
<text text-anchor="middle" x="603" y="-440.492" font-family="Helvetica,sans-Serif" font-size="10.00" fill="#ffffff">services.</text>
<text text-anchor="middle" x="603" y="-429.492" font-family="Helvetica,sans-Serif" font-size="10.00" fill="#ffffff">vreddit_service</text>
</g>
<!-- requests&#45;&gt;telereddit_services_vreddit_service -->
<g id="edge11" class="edge"><title>requests&#45;&gt;telereddit_services_vreddit_service</title><style>.edge>path:hover{stroke-width:8}</style>
<path fill="none" stroke="black" d="M744.509,-712.465C730.248,-667.112 696.51,-568.835 651,-494.706 644.665,-484.386 636.478,-474.037 628.666,-465.082"/>
<polygon fill="#000000" stroke="black" points="631.239,-462.708 621.953,-457.607 626.031,-467.386 631.239,-462.708"/>
</g>
<!-- telereddit_services_service -->
<g id="node16" class="node"><title>telereddit_services_service</title><style>.edge>path:hover{stroke-width:8}</style>
<ellipse fill="#c50cf3" stroke="black" cx="603" cy="-515.919" rx="38.7821" ry="21.4286"/>
<text text-anchor="middle" x="603" y="-518.919" font-family="Helvetica,sans-Serif" font-size="10.00" fill="#ffffff">services.</text>
<text text-anchor="middle" x="603" y="-507.919" font-family="Helvetica,sans-Serif" font-size="10.00" fill="#ffffff">service</text>
</g>
<!-- requests&#45;&gt;telereddit_services_service -->
<g id="edge10" class="edge"><title>requests&#45;&gt;telereddit_services_service</title><style>.edge>path:hover{stroke-width:8}</style>
<path fill="none" stroke="black" d="M712.437,-720.442C694.611,-711.108 674.567,-697.961 661,-681.132 629.014,-641.454 614.004,-582.833 607.482,-547.417"/>
<polygon fill="#000000" stroke="black" points="610.872,-546.476 605.721,-537.217 603.974,-547.667 610.872,-546.476"/>
</g>
<!-- telereddit_services_gfycat_service -->
<g id="node26" class="node"><title>telereddit_services_gfycat_service</title><style>.edge>path:hover{stroke-width:8}</style>
<ellipse fill="#7e3091" stroke="black" cx="262" cy="-437.492" rx="55.3091" ry="21.4286"/>
<text text-anchor="middle" x="262" y="-440.492" font-family="Helvetica,sans-Serif" font-size="10.00" fill="#ffffff">services.</text>
<text text-anchor="middle" x="262" y="-429.492" font-family="Helvetica,sans-Serif" font-size="10.00" fill="#ffffff">gfycat_service</text>
</g>
<!-- requests&#45;&gt;telereddit_services_gfycat_service -->
<g id="edge8" class="edge"><title>requests&#45;&gt;telereddit_services_gfycat_service</title><style>.edge>path:hover{stroke-width:8}</style>
<path fill="none" stroke="black" d="M712.182,-733.398C603.449,-721.716 305.742,-683.402 248,-609.132 216.43,-568.526 233.935,-504.852 248.595,-467.847"/>
<polygon fill="#000000" stroke="black" points="251.832,-469.179 252.42,-458.6 245.363,-466.503 251.832,-469.179"/>
</g>
<!-- telereddit_services_imgur_service -->
<g id="node28" class="node"><title>telereddit_services_imgur_service</title><style>.edge>path:hover{stroke-width:8}</style>
<ellipse fill="#7e3091" stroke="black" cx="909" cy="-437.492" rx="53.9813" ry="21.4286"/>
<text text-anchor="middle" x="909" y="-440.492" font-family="Helvetica,sans-Serif" font-size="10.00" fill="#ffffff">services.</text>
<text text-anchor="middle" x="909" y="-429.492" font-family="Helvetica,sans-Serif" font-size="10.00" fill="#ffffff">imgur_service</text>
</g>
<!-- requests&#45;&gt;telereddit_services_imgur_service -->
<g id="edge9" class="edge"><title>requests&#45;&gt;telereddit_services_imgur_service</title><style>.edge>path:hover{stroke-width:8}</style>
<path fill="none" stroke="black" d="M765.1,-712.41C793.968,-657.457 862.94,-526.168 893.718,-467.581"/>
<polygon fill="#000000" stroke="black" points="897.001,-468.858 898.553,-458.378 890.804,-465.603 897.001,-468.858"/>
</g>
<!-- sentry_sdk -->
<g id="node4" class="node"><title>sentry_sdk</title><style>.edge>path:hover{stroke-width:8}</style>
<ellipse fill="#40c073" stroke="black" cx="1057" cy="-243.64" rx="38.0276" ry="18"/>
<text text-anchor="middle" x="1057" y="-241.14" font-family="Helvetica,sans-Serif" font-size="10.00" fill="#000000">sentry_sdk</text>
</g>
<!-- telereddit_telereddit -->
<g id="node12" class="node"><title>telereddit_telereddit</title><style>.edge>path:hover{stroke-width:8}</style>
<ellipse fill="#632673" stroke="black" cx="1308" cy="-93.2132" rx="32.9303" ry="18"/>
<text text-anchor="middle" x="1308" y="-90.7132" font-family="Helvetica,sans-Serif" font-size="10.00" fill="#ffffff">telereddit</text>
</g>
<!-- sentry_sdk&#45;&gt;telereddit_telereddit -->
<g id="edge12" class="edge"><title>sentry_sdk&#45;&gt;telereddit_telereddit</title><style>.edge>path:hover{stroke-width:8}</style>
<path fill="none" stroke="black" d="M1098.26,-218.238C1148.6,-188.471 1232.53,-138.843 1277.44,-112.286"/>
<polygon fill="#000000" stroke="black" points="1279.5,-115.131 1286.33,-107.029 1275.94,-109.106 1279.5,-115.131"/>
</g>
<!-- telereddit_config_secret_generic -->
<g id="node5" class="node"><title>telereddit_config_secret_generic</title><style>.edge>path:hover{stroke-width:8}</style>
<ellipse fill="#9246a4" stroke="black" cx="1564" cy="-898.198" rx="56.6372" ry="21.4286"/>
<text text-anchor="middle" x="1564" y="-901.198" font-family="Helvetica,sans-Serif" font-size="10.00" fill="#ffffff">config.</text>
<text text-anchor="middle" x="1564" y="-890.198" font-family="Helvetica,sans-Serif" font-size="10.00" fill="#ffffff">secret_generic</text>
</g>
<!-- telereddit_services_youtube_service -->
<g id="node6" class="node"><title>telereddit_services_youtube_service</title><style>.edge>path:hover{stroke-width:8}</style>
<ellipse fill="#8b35a1" stroke="black" cx="738" cy="-437.492" rx="60.623" ry="21.4286"/>
<text text-anchor="middle" x="738" y="-440.492" font-family="Helvetica,sans-Serif" font-size="10.00" fill="#ffffff">services.</text>
<text text-anchor="middle" x="738" y="-429.492" font-family="Helvetica,sans-Serif" font-size="10.00" fill="#ffffff">youtube_service</text>
</g>
<!-- telereddit_services_services_wrapper -->
<g id="node14" class="node"><title>telereddit_services_services_wrapper</title><style>.edge>path:hover{stroke-width:8}</style>
<ellipse fill="#84269b" stroke="black" cx="603" cy="-359.066" rx="64.1938" ry="21.4286"/>
<text text-anchor="middle" x="603" y="-362.066" font-family="Helvetica,sans-Serif" font-size="10.00" fill="#ffffff">services.</text>
<text text-anchor="middle" x="603" y="-351.066" font-family="Helvetica,sans-Serif" font-size="10.00" fill="#ffffff">services_wrapper</text>
</g>
<!-- telereddit_services_youtube_service&#45;&gt;telereddit_services_services_wrapper -->
<g id="edge64" class="edge"><title>telereddit_services_youtube_service&#45;&gt;telereddit_services_services_wrapper</title><style>.edge>path:hover{stroke-width:8}</style>
<path fill="none" stroke="black" d="M707.366,-419.15C688.392,-408.408 663.811,-394.492 643.271,-382.864"/>
<polygon fill="#8b35a1" stroke="black" points="644.876,-379.751 634.449,-377.87 641.427,-385.842 644.876,-379.751"/>
</g>
<!-- telereddit_tests_test_reddit -->
<g id="node9" class="node"><title>telereddit_tests_test_reddit</title><style>.edge>path:hover{stroke-width:8}</style>
<ellipse fill="#9246a4" stroke="black" cx="732" cy="-93.2132" rx="43.6818" ry="21.4286"/>
<text text-anchor="middle" x="732" y="-96.2132" font-family="Helvetica,sans-Serif" font-size="10.00" fill="#ffffff">tests.</text>
<text text-anchor="middle" x="732" y="-85.2132" font-family="Helvetica,sans-Serif" font-size="10.00" fill="#ffffff">test_reddit</text>
</g>
<!-- telereddit_reddit&#45;&gt;telereddit_tests_test_reddit -->
<g id="edge50" class="edge"><title>telereddit_reddit&#45;&gt;telereddit_tests_test_reddit</title><style>.edge>path:hover{stroke-width:8}</style>
<path fill="none" stroke="black" d="M1123.93,-228.787C1118.76,-224.804 1112.86,-220.712 1107,-217.64 997.151,-160.01 855.191,-122.175 781.428,-104.951"/>
<polygon fill="#7d2493" stroke="black" points="782.014,-101.494 771.483,-102.657 780.441,-108.315 782.014,-101.494"/>
</g>
<!-- telereddit_linker -->
<g id="node11" class="node"><title>telereddit_linker</title><style>.edge>path:hover{stroke-width:8}</style>
<ellipse fill="#853399" stroke="black" cx="1251" cy="-168.426" rx="27" ry="18"/>
<text text-anchor="middle" x="1251" y="-165.926" font-family="Helvetica,sans-Serif" font-size="10.00" fill="#ffffff">linker</text>
</g>
<!-- telereddit_reddit&#45;&gt;telereddit_linker -->
<g id="edge49" class="edge"><title>telereddit_reddit&#45;&gt;telereddit_linker</title><style>.edge>path:hover{stroke-width:8}</style>
<path fill="none" stroke="black" d="M1158.58,-230.385C1176.43,-218.613 1203.6,-200.69 1223.87,-187.322"/>
<polygon fill="#7d2493" stroke="black" points="1225.94,-190.148 1232.36,-181.721 1222.09,-184.305 1225.94,-190.148"/>
</g>
<!-- telereddit_helpers&#45;&gt;telereddit_services_youtube_service -->
<g id="edge45" class="edge"><title>telereddit_helpers&#45;&gt;telereddit_services_youtube_service</title><style>.edge>path:hover{stroke-width:8}</style>
<path fill="none" stroke="black" d="M947.869,-577.464C909.538,-552.081 822.799,-494.645 773.675,-462.116"/>
<polygon fill="#b005db" stroke="black" points="775.522,-459.141 765.252,-456.538 771.657,-464.977 775.522,-459.141"/>
</g>
<!-- telereddit_helpers&#45;&gt;telereddit_reddit -->
<g id="edge43" class="edge"><title>telereddit_helpers&#45;&gt;telereddit_reddit</title><style>.edge>path:hover{stroke-width:8}</style>
<path fill="none" stroke="black" d="M983.374,-576.044C1010.31,-551.208 1061,-496.724 1061,-438.492 1061,-438.492 1061,-438.492 1061,-358.066 1061,-330.491 1065.12,-319.958 1085,-300.853 1092.53,-293.621 1098.77,-299.063 1107,-292.64 1114.84,-286.515 1121.53,-278.007 1126.8,-269.852"/>
<polygon fill="#b005db" stroke="black" points="1129.8,-271.649 1131.94,-261.271 1123.8,-268.052 1129.8,-271.649"/>
</g>
<!-- telereddit_helpers&#45;&gt;telereddit_linker -->
<g id="edge42" class="edge"><title>telereddit_helpers&#45;&gt;telereddit_linker</title><style>.edge>path:hover{stroke-width:8}</style>
<path fill="none" stroke="black" d="M989.053,-579.528C1006.65,-570.231 1031.08,-555.366 1048,-537.132 1148.98,-428.287 1217.74,-259.981 1241.66,-195.65"/>
<polygon fill="#b005db" stroke="black" points="1244.95,-196.836 1245.11,-186.242 1238.38,-194.425 1244.95,-196.836"/>
</g>
<!-- telereddit_helpers&#45;&gt;telereddit_telereddit -->
<g id="edge46" class="edge"><title>telereddit_helpers&#45;&gt;telereddit_telereddit</title><style>.edge>path:hover{stroke-width:8}</style>
<path fill="none" stroke="black" d="M969.991,-573.167C976.425,-535.15 991,-440.183 991,-360.066 991,-360.066 991,-360.066 991,-242.64 991,-123.076 1178.25,-99.6229 1264.92,-95.1712"/>
<polygon fill="#b005db" stroke="black" points="1265.14,-98.6649 1274.97,-94.7173 1264.82,-91.6721 1265.14,-98.6649"/>
</g>
<!-- telereddit_helpers&#45;&gt;telereddit_services_vreddit_service -->
<g id="edge44" class="edge"><title>telereddit_helpers&#45;&gt;telereddit_services_vreddit_service</title><style>.edge>path:hover{stroke-width:8}</style>
<path fill="none" stroke="black" d="M942.677,-581.85C913.705,-571.844 863.95,-554.22 822,-537.132 760.117,-511.925 689.899,-479.627 646.026,-458.991"/>
<polygon fill="#b005db" stroke="black" points="647.346,-455.743 636.808,-454.644 644.36,-462.075 647.346,-455.743"/>
</g>
<!-- telereddit_helpers&#45;&gt;telereddit_tests_test_helpers -->
<g id="edge47" class="edge"><title>telereddit_helpers&#45;&gt;telereddit_tests_test_helpers</title><style>.edge>path:hover{stroke-width:8}</style>
<path fill="none" stroke="black" d="M938.9,-587.365C872.079,-580.599 698.548,-561.946 555,-537.132 408.478,-511.804 237.521,-471.663 153.7,-451.279"/>
<polygon fill="#b005db" stroke="black" points="154.462,-447.862 143.917,-448.893 152.804,-454.663 154.462,-447.862"/>
</g>
<!-- telereddit_config_secret -->
<g id="node10" class="node"><title>telereddit_config_secret</title><style>.edge>path:hover{stroke-width:8}</style>
<ellipse fill="#c022e7" stroke="black" cx="1685" cy="-973.411" rx="42.2678" ry="18"/>
<text text-anchor="middle" x="1685" y="-970.911" font-family="Helvetica,sans-Serif" font-size="10.00" fill="#ffffff">config.secret</text>
</g>
<!-- telereddit_config_secret&#45;&gt;telereddit_config_secret_generic -->
<g id="edge29" class="edge"><title>telereddit_config_secret&#45;&gt;telereddit_config_secret_generic</title><style>.edge>path:hover{stroke-width:8}</style>
<path fill="none" stroke="black" d="M1661.67,-958.295C1644.64,-947.989 1621.19,-933.801 1601.54,-921.91"/>
<polygon fill="#c022e7" stroke="black" points="1603.18,-918.812 1592.81,-916.63 1599.55,-924.801 1603.18,-918.812"/>
</g>
<!-- telereddit_config_secret_prod -->
<g id="node17" class="node"><title>telereddit_config_secret_prod</title><style>.edge>path:hover{stroke-width:8}</style>
<ellipse fill="#8b439d" stroke="black" cx="1656" cy="-819.772" rx="48.1667" ry="21.4286"/>
<text text-anchor="middle" x="1656" y="-822.772" font-family="Helvetica,sans-Serif" font-size="10.00" fill="#ffffff">config.</text>
<text text-anchor="middle" x="1656" y="-811.772" font-family="Helvetica,sans-Serif" font-size="10.00" fill="#ffffff">secret_prod</text>
</g>
<!-- telereddit_config_secret&#45;&gt;telereddit_config_secret_prod -->
<g id="edge31" class="edge"><title>telereddit_config_secret&#45;&gt;telereddit_config_secret_prod</title><style>.edge>path:hover{stroke-width:8}</style>
<path fill="none" stroke="black" d="M1678.65,-955.45C1675.03,-945.158 1670.69,-931.682 1668,-919.411 1663.05,-896.804 1659.99,-870.802 1658.2,-851.172"/>
<polygon fill="#c022e7" stroke="black" points="1661.67,-850.652 1657.33,-840.985 1654.69,-851.245 1661.67,-850.652"/>
</g>
<!-- telereddit_config_secret_dev -->
<g id="node25" class="node"><title>telereddit_config_secret_dev</title><style>.edge>path:hover{stroke-width:8}</style>
<ellipse fill="#a02fbc" stroke="black" cx="1722" cy="-898.198" rx="44.5955" ry="21.4286"/>
<text text-anchor="middle" x="1722" y="-901.198" font-family="Helvetica,sans-Serif" font-size="10.00" fill="#ffffff">config.</text>
<text text-anchor="middle" x="1722" y="-890.198" font-family="Helvetica,sans-Serif" font-size="10.00" fill="#ffffff">secret_dev</text>
</g>
<!-- telereddit_config_secret&#45;&gt;telereddit_config_secret_dev -->
<g id="edge28" class="edge"><title>telereddit_config_secret&#45;&gt;telereddit_config_secret_dev</title><style>.edge>path:hover{stroke-width:8}</style>
<path fill="none" stroke="black" d="M1693.58,-955.431C1697.71,-947.257 1702.78,-937.23 1707.49,-927.917"/>
<polygon fill="#c022e7" stroke="black" points="1710.64,-929.442 1712.02,-918.938 1704.39,-926.285 1710.64,-929.442"/>
</g>
<!-- telereddit_config_secret_github -->
<g id="node27" class="node"><title>telereddit_config_secret_github</title><style>.edge>path:hover{stroke-width:8}</style>
<ellipse fill="#8b439d" stroke="black" cx="1788" cy="-819.772" rx="53.066" ry="21.4286"/>
<text text-anchor="middle" x="1788" y="-822.772" font-family="Helvetica,sans-Serif" font-size="10.00" fill="#ffffff">config.</text>
<text text-anchor="middle" x="1788" y="-811.772" font-family="Helvetica,sans-Serif" font-size="10.00" fill="#ffffff">secret_github</text>
</g>
<!-- telereddit_config_secret&#45;&gt;telereddit_config_secret_github -->
<g id="edge30" class="edge"><title>telereddit_config_secret&#45;&gt;telereddit_config_secret_github</title><style>.edge>path:hover{stroke-width:8}</style>
<path fill="none" stroke="black" d="M1717.67,-961.899C1737.86,-953.638 1762.43,-940.026 1776,-919.411 1789.17,-899.411 1791.58,-872.101 1791.04,-851.287"/>
<polygon fill="#c022e7" stroke="black" points="1794.52,-850.879 1790.52,-841.068 1787.53,-851.232 1794.52,-850.879"/>
</g>
<!-- telereddit_linker&#45;&gt;telereddit_telereddit -->
<g id="edge48" class="edge"><title>telereddit_linker&#45;&gt;telereddit_telereddit</title><style>.edge>path:hover{stroke-width:8}</style>
<path fill="none" stroke="black" d="M1263.09,-151.9C1270.74,-142.066 1280.8,-129.153 1289.45,-118.038"/>
<polygon fill="#853399" stroke="black" points="1292.35,-120.011 1295.73,-109.97 1286.83,-115.71 1292.35,-120.011"/>
</g>
<!-- telereddit___main__ -->
<g id="node23" class="node"><title>telereddit___main__</title><style>.edge>path:hover{stroke-width:8}</style>
<ellipse fill="#9849ac" stroke="black" cx="1308" cy="-18" rx="34.9638" ry="18"/>
<text text-anchor="middle" x="1308" y="-15.5" font-family="Helvetica,sans-Serif" font-size="10.00" fill="#ffffff">__main__</text>
</g>
<!-- telereddit_telereddit&#45;&gt;telereddit___main__ -->
<g id="edge65" class="edge"><title>telereddit_telereddit&#45;&gt;telereddit___main__</title><style>.edge>path:hover{stroke-width:8}</style>
<path fill="none" stroke="black" d="M1308,-74.8627C1308,-66.3831 1308,-55.9765 1308,-46.4531"/>
<polygon fill="#632673" stroke="black" points="1311.5,-46.2259 1308,-36.226 1304.5,-46.226 1311.5,-46.2259"/>
</g>
<!-- telereddit_services_vreddit_service&#45;&gt;telereddit_services_services_wrapper -->
<g id="edge63" class="edge"><title>telereddit_services_vreddit_service&#45;&gt;telereddit_services_services_wrapper</title><style>.edge>path:hover{stroke-width:8}</style>
<path fill="none" stroke="black" d="M603,-416.012C603,-408.153 603,-399.009 603,-390.418"/>
<polygon fill="#853399" stroke="black" points="606.5,-390.338 603,-380.338 599.5,-390.338 606.5,-390.338"/>
</g>
<!-- telereddit_services_services_wrapper&#45;&gt;telereddit_reddit -->
<g id="edge61" class="edge"><title>telereddit_services_services_wrapper&#45;&gt;telereddit_reddit</title><style>.edge>path:hover{stroke-width:8}</style>
<path fill="none" stroke="black" d="M638.123,-341.183C668.725,-327.416 714.704,-308.969 757,-300.853 776.101,-297.187 1089.89,-301.896 1107,-292.64 1116.24,-287.639 1123.42,-278.79 1128.68,-270.041"/>
<polygon fill="#84269b" stroke="black" points="1131.82,-271.588 1133.48,-261.124 1125.66,-268.27 1131.82,-271.588"/>
</g>
<!-- telereddit_services_services_wrapper&#45;&gt;telereddit_tests_test_services -->
<g id="edge62" class="edge"><title>telereddit_services_services_wrapper&#45;&gt;telereddit_tests_test_services</title><style>.edge>path:hover{stroke-width:8}</style>
<path fill="none" stroke="black" d="M603,-337.788C603,-320.395 603,-295.074 603,-275.221"/>
<polygon fill="#84269b" stroke="black" points="606.5,-275.125 603,-265.125 599.5,-275.125 606.5,-275.125"/>
</g>
<!-- telereddit_services_service&#45;&gt;telereddit_services_youtube_service -->
<g id="edge60" class="edge"><title>telereddit_services_service&#45;&gt;telereddit_services_youtube_service</title><style>.edge>path:hover{stroke-width:8}</style>
<path fill="none" stroke="black" d="M629.35,-500.002C648.908,-488.929 675.919,-473.638 698.116,-461.072"/>
<polygon fill="#c50cf3" stroke="black" points="700.007,-464.023 706.985,-456.051 696.558,-457.932 700.007,-464.023"/>
</g>
<!-- telereddit_services_service&#45;&gt;telereddit_services_vreddit_service -->
<g id="edge59" class="edge"><title>telereddit_services_service&#45;&gt;telereddit_services_vreddit_service</title><style>.edge>path:hover{stroke-width:8}</style>
<path fill="none" stroke="black" d="M603,-494.438C603,-486.579 603,-477.435 603,-468.845"/>
<polygon fill="#c50cf3" stroke="black" points="606.5,-468.765 603,-458.765 599.5,-468.765 606.5,-468.765"/>
</g>
<!-- telereddit_services_generic_service -->
<g id="node22" class="node"><title>telereddit_services_generic_service</title><style>.edge>path:hover{stroke-width:8}</style>
<ellipse fill="#9238a8" stroke="black" cx="470" cy="-437.492" rx="58.8803" ry="21.4286"/>
<text text-anchor="middle" x="470" y="-440.492" font-family="Helvetica,sans-Serif" font-size="10.00" fill="#ffffff">services.</text>
<text text-anchor="middle" x="470" y="-429.492" font-family="Helvetica,sans-Serif" font-size="10.00" fill="#ffffff">generic_service</text>
</g>
<!-- telereddit_services_service&#45;&gt;telereddit_services_generic_service -->
<g id="edge56" class="edge"><title>telereddit_services_service&#45;&gt;telereddit_services_generic_service</title><style>.edge>path:hover{stroke-width:8}</style>
<path fill="none" stroke="black" d="M577.041,-500.002C557.639,-488.853 530.794,-473.427 508.841,-460.812"/>
<polygon fill="#c50cf3" stroke="black" points="510.493,-457.724 500.078,-455.777 507.005,-463.794 510.493,-457.724"/>
</g>
<!-- telereddit_services_service&#45;&gt;telereddit_services_gfycat_service -->
<g id="edge57" class="edge"><title>telereddit_services_service&#45;&gt;telereddit_services_gfycat_service</title><style>.edge>path:hover{stroke-width:8}</style>
<path fill="none" stroke="black" d="M567.472,-506.956C508.372,-493.71 389.381,-467.042 318.615,-451.181"/>
<polygon fill="#c50cf3" stroke="black" points="319.06,-447.694 308.536,-448.922 317.529,-454.525 319.06,-447.694"/>
</g>
<!-- telereddit_services_service&#45;&gt;telereddit_services_imgur_service -->
<g id="edge58" class="edge"><title>telereddit_services_service&#45;&gt;telereddit_services_imgur_service</title><style>.edge>path:hover{stroke-width:8}</style>
<path fill="none" stroke="black" d="M637.804,-506.226C690.812,-492.987 792.217,-467.66 854.89,-452.007"/>
<polygon fill="#c50cf3" stroke="black" points="855.749,-455.4 864.602,-449.581 854.052,-448.609 855.749,-455.4"/>
</g>
<!-- telereddit_config_config -->
<g id="node18" class="node"><title>telereddit_config_config</title><style>.edge>path:hover{stroke-width:8}</style>
<ellipse fill="#c806f9" stroke="black" cx="1251" cy="-738.345" rx="41.5911" ry="18"/>
<text text-anchor="middle" x="1251" y="-735.845" font-family="Helvetica,sans-Serif" font-size="10.00" fill="#ffffff">config.config</text>
</g>
<!-- telereddit_config_config&#45;&gt;telereddit_reddit -->
<g id="edge24" class="edge"><title>telereddit_config_config&#45;&gt;telereddit_reddit</title><style>.edge>path:hover{stroke-width:8}</style>
<path fill="none" stroke="black" d="M1251,-719.91C1251,-692.648 1251,-638.267 1251,-592.132 1251,-592.132 1251,-592.132 1251,-514.919 1251,-417.429 1188.44,-313.988 1157.25,-268.476"/>
<polygon fill="#c806f9" stroke="black" points="1160.05,-266.368 1151.46,-260.165 1154.31,-270.37 1160.05,-266.368"/>
</g>
<!-- telereddit_config_config&#45;&gt;telereddit_helpers -->
<g id="edge22" class="edge"><title>telereddit_config_config&#45;&gt;telereddit_helpers</title><style>.edge>path:hover{stroke-width:8}</style>
<path fill="none" stroke="black" d="M1209.29,-735.978C1160.85,-732.488 1080.51,-720.634 1025,-681.132 1002.92,-665.417 987.076,-638.417 977.586,-618.266"/>
<polygon fill="#c806f9" stroke="black" points="980.72,-616.7 973.438,-609.004 974.331,-619.561 980.72,-616.7"/>
</g>
<!-- telereddit_config_config&#45;&gt;telereddit_linker -->
<g id="edge23" class="edge"><title>telereddit_config_config&#45;&gt;telereddit_linker</title><style>.edge>path:hover{stroke-width:8}</style>
<path fill="none" stroke="black" d="M1258.51,-720.289C1269.58,-693.534 1289,-639.821 1289,-592.132 1289,-592.132 1289,-592.132 1289,-300.853 1289,-262.943 1274.23,-221.217 1263.11,-195.169"/>
<polygon fill="#c806f9" stroke="black" points="1266.3,-193.732 1259.06,-185.994 1259.89,-196.557 1266.3,-193.732"/>
</g>
<!-- telereddit_config_config&#45;&gt;telereddit_telereddit -->
<g id="edge27" class="edge"><title>telereddit_config_config&#45;&gt;telereddit_telereddit</title><style>.edge>path:hover{stroke-width:8}</style>
<path fill="none" stroke="black" d="M1280.31,-725.282C1324.48,-704.923 1403,-659.284 1403,-592.132 1403,-592.132 1403,-592.132 1403,-242.64 1403,-190.624 1361.1,-142.233 1332.95,-115.594"/>
<polygon fill="#c806f9" stroke="black" points="1335.15,-112.865 1325.42,-108.673 1330.42,-118.018 1335.15,-112.865"/>
</g>
<!-- telereddit_config_config&#45;&gt;telereddit_services_gfycat_service -->
<g id="edge25" class="edge"><title>telereddit_config_config&#45;&gt;telereddit_services_gfycat_service</title><style>.edge>path:hover{stroke-width:8}</style>
<path fill="none" stroke="black" d="M1209.59,-735.285C1053.1,-726.921 498.881,-691.928 346,-609.132 308.611,-588.883 302.04,-575.151 283,-537.132 272.3,-515.767 267.04,-489.149 264.461,-468.95"/>
<polygon fill="#c806f9" stroke="black" points="267.91,-468.295 263.314,-458.749 260.954,-469.077 267.91,-468.295"/>
</g>
<!-- telereddit_config_config&#45;&gt;telereddit_services_imgur_service -->
<g id="edge26" class="edge"><title>telereddit_config_config&#45;&gt;telereddit_services_imgur_service</title><style>.edge>path:hover{stroke-width:8}</style>
<path fill="none" stroke="black" d="M1209.2,-737.42C1153.57,-735.65 1054.11,-725.812 984,-681.132 913.063,-635.923 906.203,-523.34 907.311,-468.91"/>
<polygon fill="#c806f9" stroke="black" points="910.812,-468.94 907.622,-458.837 903.815,-468.724 910.812,-468.94"/>
</g>
<!-- telereddit_content_type -->
<g id="node19" class="node"><title>telereddit_content_type</title><style>.edge>path:hover{stroke-width:8}</style>
<ellipse fill="#cb10f9" stroke="black" cx="470" cy="-591.132" rx="42.9448" ry="18"/>
<text text-anchor="middle" x="470" y="-588.632" font-family="Helvetica,sans-Serif" font-size="10.00" fill="#ffffff">content_type</text>
</g>
<!-- telereddit_content_type&#45;&gt;telereddit_services_youtube_service -->
<g id="edge39" class="edge"><title>telereddit_content_type&#45;&gt;telereddit_services_youtube_service</title><style>.edge>path:hover{stroke-width:8}</style>
<path fill="none" stroke="black" d="M510.441,-584.922C549.002,-578.489 607.484,-564.806 651,-537.132 679.407,-519.067 703.949,-489.094 719.656,-466.921"/>
<polygon fill="#cb10f9" stroke="black" points="722.634,-468.768 725.433,-458.549 716.873,-464.792 722.634,-468.768"/>
</g>
<!-- telereddit_content_type&#45;&gt;telereddit_reddit -->
<g id="edge34" class="edge"><title>telereddit_content_type&#45;&gt;telereddit_reddit</title><style>.edge>path:hover{stroke-width:8}</style>
<path fill="none" stroke="black" d="M510.496,-584.621C555.492,-577.532 629.627,-562.943 689,-537.132 747.09,-511.879 760.028,-500.068 808,-458.706 827.172,-442.176 826.135,-431.969 846,-416.279 930.497,-349.543 957.243,-336.053 1059,-300.853 1079.45,-293.777 1088.77,-304.301 1107,-292.64 1115.63,-287.118 1122.6,-278.446 1127.87,-269.982"/>
<polygon fill="#cb10f9" stroke="black" points="1131.05,-271.469 1132.92,-261.04 1124.96,-268.027 1131.05,-271.469"/>
</g>
<!-- telereddit_content_type&#45;&gt;telereddit_tests_test_reddit -->
<g id="edge40" class="edge"><title>telereddit_content_type&#45;&gt;telereddit_tests_test_reddit</title><style>.edge>path:hover{stroke-width:8}</style>
<path fill="none" stroke="black" d="M445.168,-576.368C430.427,-567.043 412.44,-553.463 401,-537.132 353.645,-469.53 345,-442.604 345,-360.066 345,-360.066 345,-360.066 345,-242.64 345,-171.519 575.729,-121.737 680.877,-102.743"/>
<polygon fill="#cb10f9" stroke="black" points="681.72,-106.148 690.951,-100.948 680.492,-99.2562 681.72,-106.148"/>
</g>
<!-- telereddit_content_type&#45;&gt;telereddit_services_vreddit_service -->
<g id="edge38" class="edge"><title>telereddit_content_type&#45;&gt;telereddit_services_vreddit_service</title><style>.edge>path:hover{stroke-width:8}</style>
<path fill="none" stroke="black" d="M484.233,-573.904C506.967,-547.984 551.717,-496.962 579.326,-465.484"/>
<polygon fill="#cb10f9" stroke="black" points="581.99,-467.755 585.953,-457.929 576.727,-463.139 581.99,-467.755"/>
</g>
<!-- telereddit_content_type&#45;&gt;telereddit_services_generic_service -->
<g id="edge35" class="edge"><title>telereddit_content_type&#45;&gt;telereddit_services_generic_service</title><style>.edge>path:hover{stroke-width:8}</style>
<path fill="none" stroke="black" d="M470,-573.032C470,-547.95 470,-500.778 470,-469.491"/>
<polygon fill="#cb10f9" stroke="black" points="473.5,-469.149 470,-459.149 466.5,-469.149 473.5,-469.149"/>
</g>
<!-- telereddit_content_type&#45;&gt;telereddit_tests_test_services -->
<g id="edge41" class="edge"><title>telereddit_content_type&#45;&gt;telereddit_tests_test_services</title><style>.edge>path:hover{stroke-width:8}</style>
<path fill="none" stroke="black" d="M454.914,-574.048C427.759,-543.051 375.81,-473.083 402,-416.279 434.76,-345.225 513.05,-292.678 561.686,-265.507"/>
<polygon fill="#cb10f9" stroke="black" points="563.609,-268.444 570.7,-260.571 560.247,-262.304 563.609,-268.444"/>
</g>
<!-- telereddit_content_type&#45;&gt;telereddit_services_gfycat_service -->
<g id="edge36" class="edge"><title>telereddit_content_type&#45;&gt;telereddit_services_gfycat_service</title><style>.edge>path:hover{stroke-width:8}</style>
<path fill="none" stroke="black" d="M439.211,-578.176C416.767,-568.73 386.183,-554.301 362,-537.132 346.142,-525.874 311.226,-490.354 287.156,-465.175"/>
<polygon fill="#cb10f9" stroke="black" points="289.498,-462.559 280.067,-457.731 284.429,-467.386 289.498,-462.559"/>
</g>
<!-- telereddit_content_type&#45;&gt;telereddit_services_imgur_service -->
<g id="edge37" class="edge"><title>telereddit_content_type&#45;&gt;telereddit_services_imgur_service</title><style>.edge>path:hover{stroke-width:8}</style>
<path fill="none" stroke="black" d="M511.854,-586.809C590.623,-580.033 757.6,-563.036 809,-537.132 818.007,-532.593 857.139,-492.722 883.696,-465.084"/>
<polygon fill="#cb10f9" stroke="black" points="886.425,-467.294 890.817,-457.652 881.371,-462.45 886.425,-467.294"/>
</g>
<!-- telereddit_services -->
<g id="node20" class="node"><title>telereddit_services</title><style>.edge>path:hover{stroke-width:8}</style>
<ellipse fill="#cb10f9" stroke="black" cx="742" cy="-359.066" rx="30.7213" ry="18"/>
<text text-anchor="middle" x="742" y="-356.566" font-family="Helvetica,sans-Serif" font-size="10.00" fill="#ffffff">services</text>
</g>
<!-- telereddit_services&#45;&gt;telereddit_reddit -->
<g id="edge51" class="edge"><title>telereddit_services&#45;&gt;telereddit_reddit</title><style>.edge>path:hover{stroke-width:8}</style>
<path fill="none" stroke="black" d="M755.43,-342.606C768.532,-328.77 789.828,-309.393 813,-300.853 843.663,-289.552 1078.29,-308.256 1107,-292.64 1116.23,-287.618 1123.4,-278.766 1128.67,-270.019"/>
<polygon fill="#cb10f9" stroke="black" points="1131.81,-271.571 1133.47,-261.107 1125.65,-268.249 1131.81,-271.571"/>
</g>
<!-- telereddit_services&#45;&gt;telereddit_tests_test_services -->
<g id="edge52" class="edge"><title>telereddit_services&#45;&gt;telereddit_tests_test_services</title><style>.edge>path:hover{stroke-width:8}</style>
<path fill="none" stroke="black" d="M724.677,-343.93C701.891,-325.336 661.472,-292.354 633.507,-269.533"/>
<polygon fill="#cb10f9" stroke="black" points="635.579,-266.707 625.618,-263.096 631.153,-272.13 635.579,-266.707"/>
</g>
<!-- telereddit_config -->
<g id="node21" class="node"><title>telereddit_config</title><style>.edge>path:hover{stroke-width:8}</style>
<ellipse fill="#cb10f9" stroke="black" cx="1061" cy="-663.132" rx="27" ry="18"/>
<text text-anchor="middle" x="1061" y="-660.632" font-family="Helvetica,sans-Serif" font-size="10.00" fill="#ffffff">config</text>
</g>
<!-- telereddit_config&#45;&gt;telereddit_reddit -->
<g id="edge18" class="edge"><title>telereddit_config&#45;&gt;telereddit_reddit</title><style>.edge>path:hover{stroke-width:8}</style>
<path fill="none" stroke="black" d="M1068.33,-645.512C1079.37,-618.908 1099,-564.868 1099,-516.919 1099,-516.919 1099,-516.919 1099,-358.066 1099,-326.003 1113.67,-291.715 1125.46,-269.336"/>
<polygon fill="#cb10f9" stroke="black" points="1128.56,-270.968 1130.28,-260.515 1122.41,-267.608 1128.56,-270.968"/>
</g>
<!-- telereddit_config&#45;&gt;telereddit_helpers -->
<g id="edge16" class="edge"><title>telereddit_config&#45;&gt;telereddit_helpers</title><style>.edge>path:hover{stroke-width:8}</style>
<path fill="none" stroke="black" d="M1043.32,-648.966C1029.14,-638.406 1009.03,-623.432 993.015,-611.505"/>
<polygon fill="#cb10f9" stroke="black" points="994.712,-608.405 984.601,-605.239 990.531,-614.019 994.712,-608.405"/>
</g>
<!-- telereddit_config&#45;&gt;telereddit_linker -->
<g id="edge17" class="edge"><title>telereddit_config&#45;&gt;telereddit_linker</title><style>.edge>path:hover{stroke-width:8}</style>
<path fill="none" stroke="black" d="M1074.36,-647.142C1083.01,-636.932 1094.08,-622.83 1102,-609.132 1178.1,-477.475 1191.24,-439.142 1232,-292.64 1241,-260.308 1246.06,-221.941 1248.66,-196.71"/>
<polygon fill="#cb10f9" stroke="black" points="1252.18,-196.725 1249.66,-186.434 1245.21,-196.05 1252.18,-196.725"/>
</g>
<!-- telereddit_config&#45;&gt;telereddit_telereddit -->
<g id="edge21" class="edge"><title>telereddit_config&#45;&gt;telereddit_telereddit</title><style>.edge>path:hover{stroke-width:8}</style>
<path fill="none" stroke="black" d="M1086.4,-656.52C1159.46,-638.727 1365,-576.414 1365,-438.492 1365,-438.492 1365,-438.492 1365,-242.64 1365,-196.76 1340.97,-147.888 1324.12,-119.25"/>
<polygon fill="#cb10f9" stroke="black" points="1326.9,-117.085 1318.72,-110.347 1320.91,-120.713 1326.9,-117.085"/>
</g>
<!-- telereddit_config&#45;&gt;telereddit_services_gfycat_service -->
<g id="edge19" class="edge"><title>telereddit_config&#45;&gt;telereddit_services_gfycat_service</title><style>.edge>path:hover{stroke-width:8}</style>
<path fill="none" stroke="black" d="M1034.04,-661.759C927.277,-659.999 534.261,-650.768 418,-609.132 365.073,-590.178 351.289,-579.204 314,-537.132 295.932,-516.746 282.015,-488.969 273.146,-468.085"/>
<polygon fill="#cb10f9" stroke="black" points="276.346,-466.664 269.315,-458.738 269.869,-469.318 276.346,-466.664"/>
</g>
<!-- telereddit_config&#45;&gt;telereddit_services_imgur_service -->
<g id="edge20" class="edge"><title>telereddit_config&#45;&gt;telereddit_services_imgur_service</title><style>.edge>path:hover{stroke-width:8}</style>
<path fill="none" stroke="black" d="M1051.12,-646.238C1039.92,-628.325 1021,-598.407 1004,-573.132 978.934,-535.86 948.88,-493.662 929.385,-466.6"/>
<polygon fill="#cb10f9" stroke="black" points="932.137,-464.432 923.446,-458.371 926.46,-468.528 932.137,-464.432"/>
</g>
<!-- telereddit_services_generic_service&#45;&gt;telereddit_services_services_wrapper -->
<g id="edge53" class="edge"><title>telereddit_services_generic_service&#45;&gt;telereddit_services_services_wrapper</title><style>.edge>path:hover{stroke-width:8}</style>
<path fill="none" stroke="black" d="M500.18,-419.15C518.873,-408.408 543.09,-394.492 563.326,-382.864"/>
<polygon fill="#9238a8" stroke="black" points="565.09,-385.887 572.017,-377.87 561.602,-379.818 565.09,-385.887"/>
</g>
<!-- telereddit_config_secret_dev&#45;&gt;telereddit_config_secret_prod -->
<g id="edge33" class="edge"><title>telereddit_config_secret_dev&#45;&gt;telereddit_config_secret_prod</title><style>.edge>path:hover{stroke-width:8}</style>
<path fill="none" stroke="black" d="M1705.69,-878.306C1697.73,-869.098 1688.03,-857.859 1679.31,-847.765"/>
<polygon fill="#a02fbc" stroke="black" points="1681.77,-845.258 1672.59,-839.977 1676.47,-849.833 1681.77,-845.258"/>
</g>
<!-- telereddit_config_secret_dev&#45;&gt;telereddit_config_secret_github -->
<g id="edge32" class="edge"><title>telereddit_config_secret_dev&#45;&gt;telereddit_config_secret_github</title><style>.edge>path:hover{stroke-width:8}</style>
<path fill="none" stroke="black" d="M1738.31,-878.306C1746.27,-869.098 1755.97,-857.859 1764.69,-847.765"/>
<polygon fill="#a02fbc" stroke="black" points="1767.53,-849.833 1771.41,-839.977 1762.23,-845.258 1767.53,-849.833"/>
</g>
<!-- telereddit_services_gfycat_service&#45;&gt;telereddit_services_services_wrapper -->
<g id="edge54" class="edge"><title>telereddit_services_gfycat_service&#45;&gt;telereddit_services_services_wrapper</title><style>.edge>path:hover{stroke-width:8}</style>
<path fill="none" stroke="black" d="M308.7,-426.026C368.99,-412.513 474.09,-388.958 541.018,-373.958"/>
<polygon fill="#7e3091" stroke="black" points="542.019,-377.32 551.012,-371.718 540.488,-370.49 542.019,-377.32"/>
</g>
<!-- telereddit_services_imgur_service&#45;&gt;telereddit_services_services_wrapper -->
<g id="edge55" class="edge"><title>telereddit_services_imgur_service&#45;&gt;telereddit_services_services_wrapper</title><style>.edge>path:hover{stroke-width:8}</style>
<path fill="none" stroke="black" d="M864.505,-425.379C811.307,-412.093 722.054,-389.801 662.847,-375.013"/>
<polygon fill="#7e3091" stroke="black" points="663.436,-371.553 652.886,-372.525 661.74,-378.344 663.436,-371.553"/>
</g>
<!-- telegram -->
<g id="node29" class="node"><title>telegram</title><style>.edge>path:hover{stroke-width:8}</style>
<polygon fill="#43679d" stroke="black" points="1468,-991.411 1465,-995.411 1444,-995.411 1441,-991.411 1414,-991.411 1414,-955.411 1468,-955.411 1468,-991.411"/>
<text text-anchor="middle" x="1441" y="-970.911" font-family="Helvetica,sans-Serif" font-size="10.00" fill="#ffffff">telegram</text>
</g>
<!-- telegram&#45;&gt;telereddit_linker -->
<g id="edge14" class="edge"><title>telegram&#45;&gt;telereddit_linker</title><style>.edge>path:hover{stroke-width:8}</style>
<path fill="none" stroke="black" d="M1441,-955.128C1441,-926.978 1441,-869.475 1441,-820.772 1441,-820.772 1441,-820.772 1441,-737.345 1441,-595.186 1327,-580.651 1327,-438.492 1327,-438.492 1327,-438.492 1327,-300.853 1327,-261.229 1315.83,-251.349 1295,-217.64 1289.1,-208.096 1281.19,-198.723 1273.7,-190.816"/>
<polygon fill="#43679d" stroke="black" points="1275.95,-188.114 1266.44,-183.446 1270.96,-193.027 1275.95,-188.114"/>
</g>
<!-- telegram&#45;&gt;telereddit_telereddit -->
<g id="edge15" class="edge"><title>telegram&#45;&gt;telereddit_telereddit</title><style>.edge>path:hover{stroke-width:8}</style>
<path fill="none" stroke="black" d="M1448.33,-955.024C1459.37,-927.199 1479,-870.71 1479,-820.772 1479,-820.772 1479,-820.772 1479,-242.64 1479,-172.248 1395.34,-127.712 1345.05,-107.3"/>
<polygon fill="#43679d" stroke="black" points="1346.06,-103.936 1335.47,-103.539 1343.5,-110.452 1346.06,-103.936"/>
</g>
<!-- telegram&#45;&gt;telereddit_config_config -->
<g id="edge13" class="edge"><title>telegram&#45;&gt;telereddit_config_config</title><style>.edge>path:hover{stroke-width:8}</style>
<path fill="none" stroke="black" d="M1427.03,-955.273C1393.64,-914.316 1309.14,-810.659 1270.64,-763.442"/>
<polygon fill="#43679d" stroke="black" points="1273.26,-761.112 1264.23,-755.573 1267.83,-765.535 1273.26,-761.112"/>
</g>
</g>
</svg>
