<?xml version="1.0" encoding="UTF-8" standalone="no"?>
<!DOCTYPE svg PUBLIC "-//W3C//DTD SVG 1.1//EN"
 "http://www.w3.org/Graphics/SVG/1.1/DTD/svg11.dtd">
<!-- Generated by graphviz version 2.38.0 (20140413.2041)
 -->
<!-- Title: G Pages: 1 -->
<svg width="1993pt" height="999pt"
 viewBox="0.00 0.00 1993.07 999.41" xmlns="http://www.w3.org/2000/svg" xmlns:xlink="http://www.w3.org/1999/xlink">
<g id="graph0" class="graph" transform="scale(1 1) rotate(0) translate(4 995.411)">
<title>G</title><style>.edge>path:hover{stroke-width:8}</style>
<polygon fill="white" stroke="none" points="-4,4 -4,-995.411 1989.07,-995.411 1989.07,4 -4,4"/>
<g id="clust1" class="cluster"><title>cluster_parameterized</title><style>.edge>path:hover{stroke-width:8}</style>
<polygon fill="none" stroke="black" points="25.4975,-637.132 25.4975,-790.558 155.497,-790.558 155.497,-637.132 25.4975,-637.132"/>
<text text-anchor="middle" x="90.4975" y="-775.358" font-family="Times New Roman,serif" font-size="14.00">parameterized</text>
</g>
<g id="clust3" class="cluster"><title>cluster_sentrysdk</title><style>.edge>path:hover{stroke-width:8}</style>
<polygon fill="none" stroke="black" points="1516.5,-217.64 1516.5,-292.64 1608.5,-292.64 1608.5,-217.64 1516.5,-217.64"/>
<text text-anchor="middle" x="1562.5" y="-277.44" font-family="Times New Roman,serif" font-size="14.00">sentrysdk</text>
</g>
<g id="clust2" class="cluster"><title>cluster_requests</title><style>.edge>path:hover{stroke-width:8}</style>
<polygon fill="none" stroke="black" points="781.497,-712.345 781.497,-787.345 861.497,-787.345 861.497,-712.345 781.497,-712.345"/>
<text text-anchor="middle" x="821.497" y="-772.145" font-family="Times New Roman,serif" font-size="14.00">requests</text>
</g>
<!-- parameterized_parameterized -->
<g id="node1" class="node"><title>parameterized_parameterized</title><style>.edge>path:hover{stroke-width:8}</style>
<ellipse fill="#ce3b3b" stroke="black" cx="90.4975" cy="-738.345" rx="57.0522" ry="21.4286"/>
<text text-anchor="middle" x="90.4975" y="-741.345" font-family="Helvetica,sans-Serif" font-size="10.00" fill="#ffffff">parameterized.</text>
<text text-anchor="middle" x="90.4975" y="-730.345" font-family="Helvetica,sans-Serif" font-size="10.00" fill="#ffffff">parameterized</text>
</g>
<!-- parameterized -->
<g id="node2" class="node"><title>parameterized</title><style>.edge>path:hover{stroke-width:8}</style>
<ellipse fill="#c04040" stroke="black" cx="90.4975" cy="-663.132" rx="45.8316" ry="18"/>
<text text-anchor="middle" x="90.4975" y="-660.632" font-family="Helvetica,sans-Serif" font-size="10.00" fill="#ffffff">parameterized</text>
</g>
<!-- parameterized_parameterized&#45;&gt;parameterized -->
<g id="edge3" class="edge"><title>parameterized_parameterized&#45;&gt;parameterized</title><style>.edge>path:hover{stroke-width:8}</style>
<path fill="none" stroke="black" d="M90.4975,-716.951C90.4975,-709.097 90.4975,-699.996 90.4975,-691.583"/>
<polygon fill="#000000" stroke="black" points="93.9976,-691.442 90.4975,-681.442 86.9976,-691.442 93.9976,-691.442"/>
</g>
<!-- telereddit_tests_test_helpers -->
<g id="node11" class="node"><title>telereddit_tests_test_helpers</title><style>.edge>path:hover{stroke-width:8}</style>
<ellipse fill="#8b439d" stroke="black" cx="49.4975" cy="-437.492" rx="49.4949" ry="21.4286"/>
<text text-anchor="middle" x="49.4975" y="-440.492" font-family="Helvetica,sans-Serif" font-size="10.00" fill="#ffffff">tests.</text>
<text text-anchor="middle" x="49.4975" y="-429.492" font-family="Helvetica,sans-Serif" font-size="10.00" fill="#ffffff">test_helpers</text>
</g>
<!-- parameterized_parameterized&#45;&gt;telereddit_tests_test_helpers -->
<g id="edge4" class="edge"><title>parameterized_parameterized&#45;&gt;telereddit_tests_test_helpers</title><style>.edge>path:hover{stroke-width:8}</style>
<path fill="none" stroke="black" d="M25.9026,-649.689C11.6922,-583.759 28.1504,-508.719 39.8403,-468.217"/>
<polygon fill="#000000" stroke="black" points="43.1969,-469.208 42.7083,-458.625 36.4902,-467.203 43.1969,-469.208"/>
</g>
<!-- telereddit_tests_test_services -->
<g id="node12" class="node"><title>telereddit_tests_test_services</title><style>.edge>path:hover{stroke-width:8}</style>
<ellipse fill="#7e3d8f" stroke="black" cx="240.497" cy="-243.64" rx="52.1524" ry="21.4286"/>
<text text-anchor="middle" x="240.497" y="-246.64" font-family="Helvetica,sans-Serif" font-size="10.00" fill="#ffffff">tests.</text>
<text text-anchor="middle" x="240.497" y="-235.64" font-family="Helvetica,sans-Serif" font-size="10.00" fill="#ffffff">test_services</text>
</g>
<!-- parameterized_parameterized&#45;&gt;telereddit_tests_test_services -->
<g id="edge5" class="edge"><title>parameterized_parameterized&#45;&gt;telereddit_tests_test_services</title><style>.edge>path:hover{stroke-width:8}</style>
<path fill="none" stroke="black" d="M155.486,-660.479C164.571,-638.524 164.497,-623.731 164.497,-592.132 164.497,-592.132 164.497,-592.132 164.497,-358.066 164.497,-323.292 189.456,-291.124 210.767,-269.995"/>
<polygon fill="#000000" stroke="black" points="213.285,-272.43 218.106,-262.996 208.454,-267.365 213.285,-272.43"/>
</g>
<!-- parameterized&#45;&gt;telereddit_tests_test_helpers -->
<g id="edge1" class="edge"><title>parameterized&#45;&gt;telereddit_tests_test_helpers</title><style>.edge>path:hover{stroke-width:8}</style>
<path fill="none" stroke="black" d="M85.9414,-637.28C78.3818,-596.045 63.2694,-513.613 55.0807,-468.947"/>
<polygon fill="#000000" stroke="black" points="58.4876,-468.12 53.2417,-458.916 51.6024,-469.383 58.4876,-468.12"/>
</g>
<!-- parameterized&#45;&gt;telereddit_tests_test_services -->
<g id="edge2" class="edge"><title>parameterized&#45;&gt;telereddit_tests_test_services</title><style>.edge>path:hover{stroke-width:8}</style>
<path fill="none" stroke="black" d="M100.61,-637.183C111.258,-608.618 126.497,-560.18 126.497,-516.919 126.497,-516.919 126.497,-516.919 126.497,-358.066 126.497,-330.491 132.631,-321.857 150.497,-300.853 163.187,-285.934 180.858,-273.712 197.186,-264.52"/>
<polygon fill="#000000" stroke="black" points="198.936,-267.552 206.078,-259.726 195.614,-261.391 198.936,-267.552"/>
</g>
<!-- requests -->
<g id="node3" class="node"><title>requests</title><style>.edge>path:hover{stroke-width:8}</style>
<ellipse fill="#c8f906" stroke="black" cx="821.497" cy="-738.345" rx="31.577" ry="18"/>
<text text-anchor="middle" x="821.497" y="-735.845" font-family="Helvetica,sans-Serif" font-size="10.00" fill="#000000">requests</text>
</g>
<!-- telereddit_helpers -->
<g id="node6" class="node"><title>telereddit_helpers</title><style>.edge>path:hover{stroke-width:8}</style>
<ellipse fill="#b005db" stroke="black" cx="1134.5" cy="-591.132" rx="28.0137" ry="18"/>
<text text-anchor="middle" x="1134.5" y="-588.632" font-family="Helvetica,sans-Serif" font-size="10.00" fill="#ffffff">helpers</text>
</g>
<!-- requests&#45;&gt;telereddit_helpers -->
<g id="edge6" class="edge"><title>requests&#45;&gt;telereddit_helpers</title><style>.edge>path:hover{stroke-width:8}</style>
<path fill="none" stroke="black" d="M861.201,-734.929C909.853,-730.428 993.344,-717.595 1054.5,-681.132 1081.39,-665.097 1104.34,-637.1 1118.68,-616.78"/>
<polygon fill="#000000" stroke="black" points="1121.7,-618.557 1124.46,-608.327 1115.92,-614.605 1121.7,-618.557"/>
</g>
<!-- telereddit_services_vreddit_service -->
<g id="node8" class="node"><title>telereddit_services_vreddit_service</title><style>.edge>path:hover{stroke-width:8}</style>
<ellipse fill="#853399" stroke="black" cx="880.497" cy="-437.492" rx="56.6372" ry="21.4286"/>
<text text-anchor="middle" x="880.497" y="-440.492" font-family="Helvetica,sans-Serif" font-size="10.00" fill="#ffffff">services.</text>
<text text-anchor="middle" x="880.497" y="-429.492" font-family="Helvetica,sans-Serif" font-size="10.00" fill="#ffffff">vreddit_service</text>
</g>
<!-- requests&#45;&gt;telereddit_services_vreddit_service -->
<g id="edge11" class="edge"><title>requests&#45;&gt;telereddit_services_vreddit_service</title><style>.edge>path:hover{stroke-width:8}</style>
<path fill="none" stroke="black" d="M826.406,-712.484C837.179,-657.913 862.865,-527.805 874.54,-468.67"/>
<polygon fill="#000000" stroke="black" points="878.007,-469.179 876.51,-458.691 871.139,-467.824 878.007,-469.179"/>
</g>
<!-- telereddit_services_imgur_service -->
<g id="node17" class="node"><title>telereddit_services_imgur_service</title><style>.edge>path:hover{stroke-width:8}</style>
<ellipse fill="#7e3091" stroke="black" cx="1008.5" cy="-437.492" rx="53.9813" ry="21.4286"/>
<text text-anchor="middle" x="1008.5" y="-440.492" font-family="Helvetica,sans-Serif" font-size="10.00" fill="#ffffff">services.</text>
<text text-anchor="middle" x="1008.5" y="-429.492" font-family="Helvetica,sans-Serif" font-size="10.00" fill="#ffffff">imgur_service</text>
</g>
<!-- requests&#45;&gt;telereddit_services_imgur_service -->
<g id="edge9" class="edge"><title>requests&#45;&gt;telereddit_services_imgur_service</title><style>.edge>path:hover{stroke-width:8}</style>
<path fill="none" stroke="black" d="M837.112,-712.391C871.579,-657.308 953.998,-525.59 990.534,-467.201"/>
<polygon fill="#000000" stroke="black" points="993.717,-468.712 996.055,-458.378 987.783,-464.998 993.717,-468.712"/>
</g>
<!-- telereddit_reddit -->
<g id="node24" class="node"><title>telereddit_reddit</title><style>.edge>path:hover{stroke-width:8}</style>
<ellipse fill="#7d2493" stroke="black" cx="1090.5" cy="-243.64" rx="27" ry="18"/>
<text text-anchor="middle" x="1090.5" y="-241.14" font-family="Helvetica,sans-Serif" font-size="10.00" fill="#ffffff">reddit</text>
</g>
<!-- requests&#45;&gt;telereddit_reddit -->
<g id="edge7" class="edge"><title>requests&#45;&gt;telereddit_reddit</title><style>.edge>path:hover{stroke-width:8}</style>
<path fill="none" stroke="black" d="M855.366,-712.465C912.053,-668.569 1024.54,-571.292 1071.5,-458.706 1097.72,-395.825 1096.2,-313.734 1093.17,-271.831"/>
<polygon fill="#000000" stroke="black" points="1096.66,-271.527 1092.37,-261.841 1089.68,-272.091 1096.66,-271.527"/>
</g>
<!-- telereddit_services_gfycat_service -->
<g id="node26" class="node"><title>telereddit_services_gfycat_service</title><style>.edge>path:hover{stroke-width:8}</style>
<ellipse fill="#7e3091" stroke="black" cx="611.497" cy="-437.492" rx="55.3091" ry="21.4286"/>
<text text-anchor="middle" x="611.497" y="-440.492" font-family="Helvetica,sans-Serif" font-size="10.00" fill="#ffffff">services.</text>
<text text-anchor="middle" x="611.497" y="-429.492" font-family="Helvetica,sans-Serif" font-size="10.00" fill="#ffffff">gfycat_service</text>
</g>
<!-- requests&#45;&gt;telereddit_services_gfycat_service -->
<g id="edge8" class="edge"><title>requests&#45;&gt;telereddit_services_gfycat_service</title><style>.edge>path:hover{stroke-width:8}</style>
<path fill="none" stroke="black" d="M781.918,-731.195C723.46,-719.566 617.782,-688.019 588.497,-609.132 570.799,-561.455 578.684,-544.606 588.497,-494.706 590.267,-485.708 593.489,-476.336 596.972,-467.882"/>
<polygon fill="#000000" stroke="black" points="600.294,-469.021 601.109,-458.458 593.884,-466.208 600.294,-469.021"/>
</g>
<!-- telereddit_services_service -->
<g id="node27" class="node"><title>telereddit_services_service</title><style>.edge>path:hover{stroke-width:8}</style>
<ellipse fill="#c50cf3" stroke="black" cx="745.497" cy="-515.919" rx="38.7821" ry="21.4286"/>
<text text-anchor="middle" x="745.497" y="-518.919" font-family="Helvetica,sans-Serif" font-size="10.00" fill="#ffffff">services.</text>
<text text-anchor="middle" x="745.497" y="-507.919" font-family="Helvetica,sans-Serif" font-size="10.00" fill="#ffffff">service</text>
</g>
<!-- requests&#45;&gt;telereddit_services_service -->
<g id="edge10" class="edge"><title>requests&#45;&gt;telereddit_services_service</title><style>.edge>path:hover{stroke-width:8}</style>
<path fill="none" stroke="black" d="M781.701,-735.386C744.497,-731.188 690.841,-718.545 664.497,-681.132 632.17,-635.22 683.019,-574.484 717.652,-541.24"/>
<polygon fill="#000000" stroke="black" points="720.278,-543.576 725.188,-534.188 715.495,-538.465 720.278,-543.576"/>
</g>
<!-- sentry_sdk -->
<g id="node4" class="node"><title>sentry_sdk</title><style>.edge>path:hover{stroke-width:8}</style>
<ellipse fill="#40c073" stroke="black" cx="1562.5" cy="-243.64" rx="38.0276" ry="18"/>
<text text-anchor="middle" x="1562.5" y="-241.14" font-family="Helvetica,sans-Serif" font-size="10.00" fill="#000000">sentry_sdk</text>
</g>
<!-- telereddit_telereddit -->
<g id="node14" class="node"><title>telereddit_telereddit</title><style>.edge>path:hover{stroke-width:8}</style>
<ellipse fill="#632673" stroke="black" cx="1382.5" cy="-93.2132" rx="32.9303" ry="18"/>
<text text-anchor="middle" x="1382.5" y="-90.7132" font-family="Helvetica,sans-Serif" font-size="10.00" fill="#ffffff">telereddit</text>
</g>
<!-- sentry_sdk&#45;&gt;telereddit_telereddit -->
<g id="edge12" class="edge"><title>sentry_sdk&#45;&gt;telereddit_telereddit</title><style>.edge>path:hover{stroke-width:8}</style>
<path fill="none" stroke="black" d="M1553.88,-218.39C1545.55,-197.94 1531.13,-169.099 1510.5,-150.426 1485.25,-127.582 1449.24,-112.895 1421.85,-104.284"/>
<polygon fill="#000000" stroke="black" points="1422.76,-100.905 1412.18,-101.383 1420.75,-107.609 1422.76,-100.905"/>
</g>
<!-- telereddit_services_services_wrapper -->
<g id="node5" class="node"><title>telereddit_services_services_wrapper</title><style>.edge>path:hover{stroke-width:8}</style>
<ellipse fill="#84269b" stroke="black" cx="745.497" cy="-359.066" rx="64.1938" ry="21.4286"/>
<text text-anchor="middle" x="745.497" y="-362.066" font-family="Helvetica,sans-Serif" font-size="10.00" fill="#ffffff">services.</text>
<text text-anchor="middle" x="745.497" y="-351.066" font-family="Helvetica,sans-Serif" font-size="10.00" fill="#ffffff">services_wrapper</text>
</g>
<!-- telereddit_services_services_wrapper&#45;&gt;telereddit_tests_test_services -->
<g id="edge62" class="edge"><title>telereddit_services_services_wrapper&#45;&gt;telereddit_tests_test_services</title><style>.edge>path:hover{stroke-width:8}</style>
<path fill="none" stroke="black" d="M693.356,-346.355C597.338,-324.788 393.438,-278.991 295.396,-256.97"/>
<polygon fill="#84269b" stroke="black" points="295.918,-253.5 285.394,-254.724 294.384,-260.33 295.918,-253.5"/>
</g>
<!-- telereddit_services_services_wrapper&#45;&gt;telereddit_reddit -->
<g id="edge61" class="edge"><title>telereddit_services_services_wrapper&#45;&gt;telereddit_reddit</title><style>.edge>path:hover{stroke-width:8}</style>
<path fill="none" stroke="black" d="M789.542,-343.585C859.405,-320.616 994.121,-276.326 1056.84,-255.705"/>
<polygon fill="#84269b" stroke="black" points="1058.22,-258.937 1066.62,-252.489 1056.03,-252.287 1058.22,-258.937"/>
</g>
<!-- telereddit_helpers&#45;&gt;telereddit_services_vreddit_service -->
<g id="edge44" class="edge"><title>telereddit_helpers&#45;&gt;telereddit_services_vreddit_service</title><style>.edge>path:hover{stroke-width:8}</style>
<path fill="none" stroke="black" d="M1114.57,-578.233C1072.25,-552.969 972.83,-493.616 918.161,-460.978"/>
<polygon fill="#b005db" stroke="black" points="919.845,-457.907 909.464,-455.786 916.257,-463.917 919.845,-457.907"/>
</g>
<!-- telereddit_helpers&#45;&gt;telereddit_tests_test_helpers -->
<g id="edge47" class="edge"><title>telereddit_helpers&#45;&gt;telereddit_tests_test_helpers</title><style>.edge>path:hover{stroke-width:8}</style>
<path fill="none" stroke="black" d="M1106.85,-587.074C1037.75,-579.367 851.965,-558.251 697.497,-537.132 477.736,-507.086 216.97,-465.611 105.037,-447.529"/>
<polygon fill="#b005db" stroke="black" points="105.426,-444.046 94.9951,-445.905 104.308,-450.956 105.426,-444.046"/>
</g>
<!-- telereddit_helpers&#45;&gt;telereddit_telereddit -->
<g id="edge46" class="edge"><title>telereddit_helpers&#45;&gt;telereddit_telereddit</title><style>.edge>path:hover{stroke-width:8}</style>
<path fill="none" stroke="black" d="M1145.14,-574.078C1161.88,-547.213 1192.5,-490.919 1192.5,-438.492 1192.5,-438.492 1192.5,-438.492 1192.5,-242.64 1192.5,-166.429 1288.6,-123.545 1344.11,-105.132"/>
<polygon fill="#b005db" stroke="black" points="1345.19,-108.463 1353.64,-102.078 1343.05,-101.797 1345.19,-108.463"/>
</g>
<!-- telereddit_linker -->
<g id="node18" class="node"><title>telereddit_linker</title><style>.edge>path:hover{stroke-width:8}</style>
<ellipse fill="#853399" stroke="black" cx="1382.5" cy="-168.426" rx="27" ry="18"/>
<text text-anchor="middle" x="1382.5" y="-165.926" font-family="Helvetica,sans-Serif" font-size="10.00" fill="#ffffff">linker</text>
</g>
<!-- telereddit_helpers&#45;&gt;telereddit_linker -->
<g id="edge42" class="edge"><title>telereddit_helpers&#45;&gt;telereddit_linker</title><style>.edge>path:hover{stroke-width:8}</style>
<path fill="none" stroke="black" d="M1155.27,-578.659C1170.96,-569.171 1192.15,-554.471 1206.5,-537.132 1297.97,-426.604 1354.93,-260.556 1374.69,-196.221"/>
<polygon fill="#b005db" stroke="black" points="1378.1,-197.034 1377.64,-186.449 1371.39,-195.009 1378.1,-197.034"/>
</g>
<!-- telereddit_services_youtube_service -->
<g id="node23" class="node"><title>telereddit_services_youtube_service</title><style>.edge>path:hover{stroke-width:8}</style>
<ellipse fill="#8b35a1" stroke="black" cx="745.497" cy="-437.492" rx="60.623" ry="21.4286"/>
<text text-anchor="middle" x="745.497" y="-440.492" font-family="Helvetica,sans-Serif" font-size="10.00" fill="#ffffff">services.</text>
<text text-anchor="middle" x="745.497" y="-429.492" font-family="Helvetica,sans-Serif" font-size="10.00" fill="#ffffff">youtube_service</text>
</g>
<!-- telereddit_helpers&#45;&gt;telereddit_services_youtube_service -->
<g id="edge45" class="edge"><title>telereddit_helpers&#45;&gt;telereddit_services_youtube_service</title><style>.edge>path:hover{stroke-width:8}</style>
<path fill="none" stroke="black" d="M1109.43,-582.65C1077.55,-572.96 1020.95,-555.164 973.497,-537.132 908.759,-512.53 835.529,-479.982 789.931,-459.135"/>
<polygon fill="#b005db" stroke="black" points="791.183,-455.859 780.634,-454.872 788.265,-462.222 791.183,-455.859"/>
</g>
<!-- telereddit_helpers&#45;&gt;telereddit_reddit -->
<g id="edge43" class="edge"><title>telereddit_helpers&#45;&gt;telereddit_reddit</title><style>.edge>path:hover{stroke-width:8}</style>
<path fill="none" stroke="black" d="M1133.57,-573.061C1130.95,-528.186 1122.47,-403.3 1104.5,-300.853 1102.81,-291.208 1100.38,-280.769 1098.01,-271.535"/>
<polygon fill="#b005db" stroke="black" points="1101.36,-270.5 1095.42,-261.727 1094.59,-272.29 1101.36,-270.5"/>
</g>
<!-- telereddit_services_generic_service -->
<g id="node7" class="node"><title>telereddit_services_generic_service</title><style>.edge>path:hover{stroke-width:8}</style>
<ellipse fill="#9238a8" stroke="black" cx="479.497" cy="-437.492" rx="58.8803" ry="21.4286"/>
<text text-anchor="middle" x="479.497" y="-440.492" font-family="Helvetica,sans-Serif" font-size="10.00" fill="#ffffff">services.</text>
<text text-anchor="middle" x="479.497" y="-429.492" font-family="Helvetica,sans-Serif" font-size="10.00" fill="#ffffff">generic_service</text>
</g>
<!-- telereddit_services_generic_service&#45;&gt;telereddit_services_services_wrapper -->
<g id="edge53" class="edge"><title>telereddit_services_generic_service&#45;&gt;telereddit_services_services_wrapper</title><style>.edge>path:hover{stroke-width:8}</style>
<path fill="none" stroke="black" d="M523.369,-423.365C531.391,-420.989 539.692,-418.547 547.497,-416.279 594.79,-402.538 648.548,-387.3 688.104,-376.159"/>
<polygon fill="#9238a8" stroke="black" points="689.164,-379.497 697.842,-373.418 687.267,-372.758 689.164,-379.497"/>
</g>
<!-- telereddit_services_vreddit_service&#45;&gt;telereddit_services_services_wrapper -->
<g id="edge63" class="edge"><title>telereddit_services_vreddit_service&#45;&gt;telereddit_services_services_wrapper</title><style>.edge>path:hover{stroke-width:8}</style>
<path fill="none" stroke="black" d="M850.201,-419.341C831.104,-408.53 806.23,-394.448 785.519,-382.723"/>
<polygon fill="#853399" stroke="black" points="787.056,-379.571 776.629,-377.69 783.607,-385.663 787.056,-379.571"/>
</g>
<!-- telereddit___main__ -->
<g id="node9" class="node"><title>telereddit___main__</title><style>.edge>path:hover{stroke-width:8}</style>
<ellipse fill="#9849ac" stroke="black" cx="1382.5" cy="-18" rx="34.9638" ry="18"/>
<text text-anchor="middle" x="1382.5" y="-15.5" font-family="Helvetica,sans-Serif" font-size="10.00" fill="#ffffff">__main__</text>
</g>
<!-- telereddit_config_secret_prod -->
<g id="node10" class="node"><title>telereddit_config_secret_prod</title><style>.edge>path:hover{stroke-width:8}</style>
<ellipse fill="#8b439d" stroke="black" cx="1704.5" cy="-819.772" rx="48.1667" ry="21.4286"/>
<text text-anchor="middle" x="1704.5" y="-822.772" font-family="Helvetica,sans-Serif" font-size="10.00" fill="#ffffff">config.</text>
<text text-anchor="middle" x="1704.5" y="-811.772" font-family="Helvetica,sans-Serif" font-size="10.00" fill="#ffffff">secret_prod</text>
</g>
<!-- telereddit_content_type -->
<g id="node13" class="node"><title>telereddit_content_type</title><style>.edge>path:hover{stroke-width:8}</style>
<ellipse fill="#cb10f9" stroke="black" cx="469.497" cy="-591.132" rx="42.9448" ry="18"/>
<text text-anchor="middle" x="469.497" y="-588.632" font-family="Helvetica,sans-Serif" font-size="10.00" fill="#ffffff">content_type</text>
</g>
<!-- telereddit_content_type&#45;&gt;telereddit_services_generic_service -->
<g id="edge35" class="edge"><title>telereddit_content_type&#45;&gt;telereddit_services_generic_service</title><style>.edge>path:hover{stroke-width:8}</style>
<path fill="none" stroke="black" d="M470.212,-572.881C471.049,-553.76 472.568,-522.011 474.497,-494.706 475.09,-486.322 475.847,-477.245 476.591,-468.881"/>
<polygon fill="#cb10f9" stroke="black" points="480.09,-469.05 477.514,-458.773 473.119,-468.413 480.09,-469.05"/>
</g>
<!-- telereddit_content_type&#45;&gt;telereddit_services_vreddit_service -->
<g id="edge38" class="edge"><title>telereddit_content_type&#45;&gt;telereddit_services_vreddit_service</title><style>.edge>path:hover{stroke-width:8}</style>
<path fill="none" stroke="black" d="M511.442,-586.789C587.717,-580.14 745.674,-563.574 793.497,-537.132 809.455,-528.309 839.365,-492.101 859.606,-466.113"/>
<polygon fill="#cb10f9" stroke="black" points="862.466,-468.136 865.808,-458.082 856.926,-463.857 862.466,-468.136"/>
</g>
<!-- telereddit_content_type&#45;&gt;telereddit_tests_test_services -->
<g id="edge41" class="edge"><title>telereddit_content_type&#45;&gt;telereddit_tests_test_services</title><style>.edge>path:hover{stroke-width:8}</style>
<path fill="none" stroke="black" d="M428.364,-585.712C353.468,-575.143 202.497,-541.111 202.497,-438.492 202.497,-438.492 202.497,-438.492 202.497,-358.066 202.497,-328.216 214.476,-296.13 224.982,-273.728"/>
<polygon fill="#cb10f9" stroke="black" points="228.266,-274.98 229.506,-264.458 221.975,-271.91 228.266,-274.98"/>
</g>
<!-- telereddit_content_type&#45;&gt;telereddit_services_imgur_service -->
<g id="edge37" class="edge"><title>telereddit_content_type&#45;&gt;telereddit_services_imgur_service</title><style>.edge>path:hover{stroke-width:8}</style>
<path fill="none" stroke="black" d="M512.08,-588.697C580.475,-585.328 718.305,-574.131 828.497,-537.132 882.685,-518.938 939.636,-484.817 974.613,-461.872"/>
<polygon fill="#cb10f9" stroke="black" points="976.619,-464.741 983.017,-456.296 972.749,-458.908 976.619,-464.741"/>
</g>
<!-- telereddit_tests_test_reddit -->
<g id="node22" class="node"><title>telereddit_tests_test_reddit</title><style>.edge>path:hover{stroke-width:8}</style>
<ellipse fill="#9246a4" stroke="black" cx="548.497" cy="-93.2132" rx="43.6818" ry="21.4286"/>
<text text-anchor="middle" x="548.497" y="-96.2132" font-family="Helvetica,sans-Serif" font-size="10.00" fill="#ffffff">tests.</text>
<text text-anchor="middle" x="548.497" y="-85.2132" font-family="Helvetica,sans-Serif" font-size="10.00" fill="#ffffff">test_reddit</text>
</g>
<!-- telereddit_content_type&#45;&gt;telereddit_tests_test_reddit -->
<g id="edge40" class="edge"><title>telereddit_content_type&#45;&gt;telereddit_tests_test_reddit</title><style>.edge>path:hover{stroke-width:8}</style>
<path fill="none" stroke="black" d="M446.122,-575.933C431.831,-566.352 413.964,-552.653 401.497,-537.132 371.087,-499.271 354.497,-487.055 354.497,-438.492 354.497,-438.492 354.497,-438.492 354.497,-242.64 354.497,-168.877 444.056,-126.829 501.474,-107.452"/>
<polygon fill="#cb10f9" stroke="black" points="502.671,-110.743 511.092,-104.314 500.5,-104.088 502.671,-110.743"/>
</g>
<!-- telereddit_content_type&#45;&gt;telereddit_services_youtube_service -->
<g id="edge39" class="edge"><title>telereddit_content_type&#45;&gt;telereddit_services_youtube_service</title><style>.edge>path:hover{stroke-width:8}</style>
<path fill="none" stroke="black" d="M494.477,-576.408C542.341,-550.11 647.351,-492.416 705.232,-460.615"/>
<polygon fill="#cb10f9" stroke="black" points="707.022,-463.625 714.101,-455.742 703.652,-457.49 707.022,-463.625"/>
</g>
<!-- telereddit_content_type&#45;&gt;telereddit_reddit -->
<g id="edge34" class="edge"><title>telereddit_content_type&#45;&gt;telereddit_reddit</title><style>.edge>path:hover{stroke-width:8}</style>
<path fill="none" stroke="black" d="M454.651,-573.787C432.276,-547.389 392.497,-492.82 392.497,-438.492 392.497,-438.492 392.497,-438.492 392.497,-358.066 392.497,-290.469 909.107,-255.23 1053.44,-246.704"/>
<polygon fill="#cb10f9" stroke="black" points="1053.78,-250.19 1063.56,-246.114 1053.38,-243.202 1053.78,-250.19"/>
</g>
<!-- telereddit_content_type&#45;&gt;telereddit_services_gfycat_service -->
<g id="edge36" class="edge"><title>telereddit_content_type&#45;&gt;telereddit_services_gfycat_service</title><style>.edge>path:hover{stroke-width:8}</style>
<path fill="none" stroke="black" d="M473.65,-573.154C479.415,-552.537 491.571,-517.676 512.497,-494.706 526.78,-479.029 546.481,-466.618 564.55,-457.49"/>
<polygon fill="#cb10f9" stroke="black" points="566.33,-460.517 573.812,-453.016 563.285,-454.214 566.33,-460.517"/>
</g>
<!-- telereddit_telereddit&#45;&gt;telereddit___main__ -->
<g id="edge65" class="edge"><title>telereddit_telereddit&#45;&gt;telereddit___main__</title><style>.edge>path:hover{stroke-width:8}</style>
<path fill="none" stroke="black" d="M1382.5,-74.8627C1382.5,-66.3831 1382.5,-55.9765 1382.5,-46.4531"/>
<polygon fill="#632673" stroke="black" points="1386,-46.2259 1382.5,-36.226 1379,-46.226 1386,-46.2259"/>
</g>
<!-- telereddit_config_config -->
<g id="node15" class="node"><title>telereddit_config_config</title><style>.edge>path:hover{stroke-width:8}</style>
<ellipse fill="#c806f9" stroke="black" cx="1382.5" cy="-738.345" rx="41.5911" ry="18"/>
<text text-anchor="middle" x="1382.5" y="-735.845" font-family="Helvetica,sans-Serif" font-size="10.00" fill="#ffffff">config.config</text>
</g>
<!-- telereddit_config_config&#45;&gt;telereddit_helpers -->
<g id="edge22" class="edge"><title>telereddit_config_config&#45;&gt;telereddit_helpers</title><style>.edge>path:hover{stroke-width:8}</style>
<path fill="none" stroke="black" d="M1346.29,-729.29C1312.9,-720.779 1262.84,-705.212 1224.5,-681.132 1196.33,-663.44 1170,-635.552 1153.19,-615.712"/>
<polygon fill="#c806f9" stroke="black" points="1155.67,-613.218 1146.59,-607.756 1150.28,-617.687 1155.67,-613.218"/>
</g>
<!-- telereddit_config_config&#45;&gt;telereddit_telereddit -->
<g id="edge27" class="edge"><title>telereddit_config_config&#45;&gt;telereddit_telereddit</title><style>.edge>path:hover{stroke-width:8}</style>
<path fill="none" stroke="black" d="M1405.02,-722.964C1438.24,-699.787 1496.5,-650.786 1496.5,-592.132 1496.5,-592.132 1496.5,-592.132 1496.5,-242.64 1496.5,-186.627 1444.8,-138.745 1411.03,-113.444"/>
<polygon fill="#c806f9" stroke="black" points="1413.02,-110.562 1402.88,-107.507 1408.9,-116.222 1413.02,-110.562"/>
</g>
<!-- telereddit_config_config&#45;&gt;telereddit_services_imgur_service -->
<g id="edge26" class="edge"><title>telereddit_config_config&#45;&gt;telereddit_services_imgur_service</title><style>.edge>path:hover{stroke-width:8}</style>
<path fill="none" stroke="black" d="M1342.49,-732.844C1298.27,-726.514 1226.07,-712.09 1171.5,-681.132 1087.32,-633.377 1038.1,-522.118 1018.47,-468.472"/>
<polygon fill="#c806f9" stroke="black" points="1021.7,-467.095 1015.04,-458.85 1015.1,-469.445 1021.7,-467.095"/>
</g>
<!-- telereddit_config_config&#45;&gt;telereddit_linker -->
<g id="edge23" class="edge"><title>telereddit_config_config&#45;&gt;telereddit_linker</title><style>.edge>path:hover{stroke-width:8}</style>
<path fill="none" stroke="black" d="M1390.01,-720.289C1401.08,-693.534 1420.5,-639.821 1420.5,-592.132 1420.5,-592.132 1420.5,-592.132 1420.5,-300.853 1420.5,-262.943 1405.73,-221.217 1394.6,-195.169"/>
<polygon fill="#c806f9" stroke="black" points="1397.79,-193.732 1390.56,-185.994 1391.39,-196.557 1397.79,-193.732"/>
</g>
<!-- telereddit_config_config&#45;&gt;telereddit_reddit -->
<g id="edge24" class="edge"><title>telereddit_config_config&#45;&gt;telereddit_reddit</title><style>.edge>path:hover{stroke-width:8}</style>
<path fill="none" stroke="black" d="M1380.67,-720.3C1375.76,-679.437 1359.89,-573.445 1320.5,-494.706 1271.02,-395.803 1243.78,-377.95 1164.5,-300.853 1150.13,-286.881 1132.28,-273.233 1117.71,-262.884"/>
<polygon fill="#c806f9" stroke="black" points="1119.33,-259.746 1109.13,-256.894 1115.33,-265.486 1119.33,-259.746"/>
</g>
<!-- telereddit_config_config&#45;&gt;telereddit_services_gfycat_service -->
<g id="edge25" class="edge"><title>telereddit_config_config&#45;&gt;telereddit_services_gfycat_service</title><style>.edge>path:hover{stroke-width:8}</style>
<path fill="none" stroke="black" d="M1342.11,-733.21C1242.66,-722.106 979.106,-687.044 773.497,-609.132 712.823,-586.141 688.198,-586.841 646.497,-537.132 630.113,-517.601 621.175,-489.852 616.443,-468.758"/>
<polygon fill="#c806f9" stroke="black" points="619.82,-467.805 614.389,-458.708 612.962,-469.207 619.82,-467.805"/>
</g>
<!-- telereddit_config_secret_github -->
<g id="node16" class="node"><title>telereddit_config_secret_github</title><style>.edge>path:hover{stroke-width:8}</style>
<ellipse fill="#8b439d" stroke="black" cx="1836.5" cy="-819.772" rx="53.066" ry="21.4286"/>
<text text-anchor="middle" x="1836.5" y="-822.772" font-family="Helvetica,sans-Serif" font-size="10.00" fill="#ffffff">config.</text>
<text text-anchor="middle" x="1836.5" y="-811.772" font-family="Helvetica,sans-Serif" font-size="10.00" fill="#ffffff">secret_github</text>
</g>
<!-- telereddit_services_imgur_service&#45;&gt;telereddit_services_services_wrapper -->
<g id="edge55" class="edge"><title>telereddit_services_imgur_service&#45;&gt;telereddit_services_services_wrapper</title><style>.edge>path:hover{stroke-width:8}</style>
<path fill="none" stroke="black" d="M968.554,-423.194C961.234,-420.836 953.649,-418.444 946.497,-416.279 898.7,-401.811 844.111,-386.629 803.896,-375.695"/>
<polygon fill="#7e3091" stroke="black" points="804.562,-372.249 793.995,-373.009 802.73,-379.005 804.562,-372.249"/>
</g>
<!-- telereddit_linker&#45;&gt;telereddit_telereddit -->
<g id="edge48" class="edge"><title>telereddit_linker&#45;&gt;telereddit_telereddit</title><style>.edge>path:hover{stroke-width:8}</style>
<path fill="none" stroke="black" d="M1382.5,-150.076C1382.5,-141.596 1382.5,-131.19 1382.5,-121.666"/>
<polygon fill="#853399" stroke="black" points="1386,-121.439 1382.5,-111.439 1379,-121.439 1386,-121.439"/>
</g>
<!-- telereddit_config_secret -->
<g id="node19" class="node"><title>telereddit_config_secret</title><style>.edge>path:hover{stroke-width:8}</style>
<ellipse fill="#c022e7" stroke="black" cx="1806.5" cy="-973.411" rx="42.2678" ry="18"/>
<text text-anchor="middle" x="1806.5" y="-970.911" font-family="Helvetica,sans-Serif" font-size="10.00" fill="#ffffff">config.secret</text>
</g>
<!-- telereddit_config_secret&#45;&gt;telereddit_config_secret_prod -->
<g id="edge31" class="edge"><title>telereddit_config_secret&#45;&gt;telereddit_config_secret_prod</title><style>.edge>path:hover{stroke-width:8}</style>
<path fill="none" stroke="black" d="M1773.73,-961.623C1753.84,-953.307 1729.81,-939.738 1716.5,-919.411 1703.38,-899.379 1700.96,-872.072 1701.49,-851.267"/>
<polygon fill="#c022e7" stroke="black" points="1705,-851.215 1702,-841.053 1698.01,-850.867 1705,-851.215"/>
</g>
<!-- telereddit_config_secret&#45;&gt;telereddit_config_secret_github -->
<g id="edge30" class="edge"><title>telereddit_config_secret&#45;&gt;telereddit_config_secret_github</title><style>.edge>path:hover{stroke-width:8}</style>
<path fill="none" stroke="black" d="M1813.25,-955.483C1817.09,-945.203 1821.69,-931.728 1824.5,-919.411 1829.64,-896.847 1832.69,-870.843 1834.43,-851.202"/>
<polygon fill="#c022e7" stroke="black" points="1837.93,-851.259 1835.26,-841.006 1830.96,-850.688 1837.93,-851.259"/>
</g>
<!-- telereddit_config_secret_dev -->
<g id="node20" class="node"><title>telereddit_config_secret_dev</title><style>.edge>path:hover{stroke-width:8}</style>
<ellipse fill="#a02fbc" stroke="black" cx="1770.5" cy="-898.198" rx="44.5955" ry="21.4286"/>
<text text-anchor="middle" x="1770.5" y="-901.198" font-family="Helvetica,sans-Serif" font-size="10.00" fill="#ffffff">config.</text>
<text text-anchor="middle" x="1770.5" y="-890.198" font-family="Helvetica,sans-Serif" font-size="10.00" fill="#ffffff">secret_dev</text>
</g>
<!-- telereddit_config_secret&#45;&gt;telereddit_config_secret_dev -->
<g id="edge28" class="edge"><title>telereddit_config_secret&#45;&gt;telereddit_config_secret_dev</title><style>.edge>path:hover{stroke-width:8}</style>
<path fill="none" stroke="black" d="M1798.15,-955.431C1794.13,-947.257 1789.2,-937.23 1784.62,-927.917"/>
<polygon fill="#c022e7" stroke="black" points="1787.76,-926.368 1780.2,-918.938 1781.48,-929.456 1787.76,-926.368"/>
</g>
<!-- telereddit_config_secret_generic -->
<g id="node25" class="node"><title>telereddit_config_secret_generic</title><style>.edge>path:hover{stroke-width:8}</style>
<ellipse fill="#9246a4" stroke="black" cx="1928.5" cy="-898.198" rx="56.6372" ry="21.4286"/>
<text text-anchor="middle" x="1928.5" y="-901.198" font-family="Helvetica,sans-Serif" font-size="10.00" fill="#ffffff">config.</text>
<text text-anchor="middle" x="1928.5" y="-890.198" font-family="Helvetica,sans-Serif" font-size="10.00" fill="#ffffff">secret_generic</text>
</g>
<!-- telereddit_config_secret&#45;&gt;telereddit_config_secret_generic -->
<g id="edge29" class="edge"><title>telereddit_config_secret&#45;&gt;telereddit_config_secret_generic</title><style>.edge>path:hover{stroke-width:8}</style>
<path fill="none" stroke="black" d="M1830.02,-958.295C1847.19,-947.989 1870.84,-933.801 1890.65,-921.91"/>
<polygon fill="#c022e7" stroke="black" points="1892.68,-924.777 1899.45,-916.63 1889.07,-918.774 1892.68,-924.777"/>
</g>
<!-- telereddit_config_secret_dev&#45;&gt;telereddit_config_secret_prod -->
<g id="edge33" class="edge"><title>telereddit_config_secret_dev&#45;&gt;telereddit_config_secret_prod</title><style>.edge>path:hover{stroke-width:8}</style>
<path fill="none" stroke="black" d="M1754.18,-878.306C1746.23,-869.098 1736.53,-857.859 1727.81,-847.765"/>
<polygon fill="#a02fbc" stroke="black" points="1730.27,-845.258 1721.08,-839.977 1724.97,-849.833 1730.27,-845.258"/>
</g>
<!-- telereddit_config_secret_dev&#45;&gt;telereddit_config_secret_github -->
<g id="edge32" class="edge"><title>telereddit_config_secret_dev&#45;&gt;telereddit_config_secret_github</title><style>.edge>path:hover{stroke-width:8}</style>
<path fill="none" stroke="black" d="M1786.81,-878.306C1794.76,-869.098 1804.47,-857.859 1813.19,-847.765"/>
<polygon fill="#a02fbc" stroke="black" points="1816.03,-849.833 1819.91,-839.977 1810.73,-845.258 1816.03,-849.833"/>
</g>
<!-- telereddit_config -->
<g id="node21" class="node"><title>telereddit_config</title><style>.edge>path:hover{stroke-width:8}</style>
<ellipse fill="#cb10f9" stroke="black" cx="1260.5" cy="-663.132" rx="27" ry="18"/>
<text text-anchor="middle" x="1260.5" y="-660.632" font-family="Helvetica,sans-Serif" font-size="10.00" fill="#ffffff">config</text>
</g>
<!-- telereddit_config&#45;&gt;telereddit_helpers -->
<g id="edge16" class="edge"><title>telereddit_config&#45;&gt;telereddit_helpers</title><style>.edge>path:hover{stroke-width:8}</style>
<path fill="none" stroke="black" d="M1240.25,-650.885C1219.62,-639.422 1187.4,-621.521 1163.94,-608.489"/>
<polygon fill="#cb10f9" stroke="black" points="1165.55,-605.38 1155.11,-603.583 1162.15,-611.499 1165.55,-605.38"/>
</g>
<!-- telereddit_config&#45;&gt;telereddit_telereddit -->
<g id="edge21" class="edge"><title>telereddit_config&#45;&gt;telereddit_telereddit</title><style>.edge>path:hover{stroke-width:8}</style>
<path fill="none" stroke="black" d="M1269.37,-645.681C1282.73,-619.307 1306.5,-565.578 1306.5,-516.919 1306.5,-516.919 1306.5,-516.919 1306.5,-436.492 1306.5,-308.115 1301.96,-270.832 1346.5,-150.426 1350.68,-139.109 1357.42,-127.698 1363.94,-118.142"/>
<polygon fill="#cb10f9" stroke="black" points="1366.83,-120.118 1369.79,-109.944 1361.13,-116.053 1366.83,-120.118"/>
</g>
<!-- telereddit_config&#45;&gt;telereddit_services_imgur_service -->
<g id="edge20" class="edge"><title>telereddit_config&#45;&gt;telereddit_services_imgur_service</title><style>.edge>path:hover{stroke-width:8}</style>
<path fill="none" stroke="black" d="M1247.43,-647.275C1220.26,-616.805 1154.96,-545.815 1092.5,-494.706 1077.85,-482.723 1060.64,-470.861 1045.62,-461.144"/>
<polygon fill="#cb10f9" stroke="black" points="1047.38,-458.115 1037.07,-455.686 1043.62,-464.016 1047.38,-458.115"/>
</g>
<!-- telereddit_config&#45;&gt;telereddit_linker -->
<g id="edge17" class="edge"><title>telereddit_config&#45;&gt;telereddit_linker</title><style>.edge>path:hover{stroke-width:8}</style>
<path fill="none" stroke="black" d="M1279.5,-649.999C1292.92,-640.464 1310.26,-626.003 1320.5,-609.132 1379.7,-511.621 1382.5,-474.14 1382.5,-360.066 1382.5,-360.066 1382.5,-360.066 1382.5,-300.853 1382.5,-264.755 1382.5,-223.081 1382.5,-196.509"/>
<polygon fill="#cb10f9" stroke="black" points="1386,-196.439 1382.5,-186.439 1379,-196.439 1386,-196.439"/>
</g>
<!-- telereddit_config&#45;&gt;telereddit_reddit -->
<g id="edge18" class="edge"><title>telereddit_config&#45;&gt;telereddit_reddit</title><style>.edge>path:hover{stroke-width:8}</style>
<path fill="none" stroke="black" d="M1258.98,-645.063C1254.87,-604.102 1241.39,-497.604 1206.5,-416.279 1181.51,-358.024 1135.94,-298.627 1109.98,-267.272"/>
<polygon fill="#cb10f9" stroke="black" points="1112.62,-264.977 1103.52,-259.559 1107.26,-269.473 1112.62,-264.977"/>
</g>
<!-- telereddit_config&#45;&gt;telereddit_services_gfycat_service -->
<g id="edge19" class="edge"><title>telereddit_config&#45;&gt;telereddit_services_gfycat_service</title><style>.edge>path:hover{stroke-width:8}</style>
<path fill="none" stroke="black" d="M1233.4,-661.951C1148.21,-660.228 880.624,-645.938 697.497,-537.132 668.529,-519.92 644.261,-489.544 628.97,-467.034"/>
<polygon fill="#cb10f9" stroke="black" points="631.792,-464.956 623.365,-458.535 625.948,-468.81 631.792,-464.956"/>
</g>
<!-- telereddit_services_youtube_service&#45;&gt;telereddit_services_services_wrapper -->
<g id="edge64" class="edge"><title>telereddit_services_youtube_service&#45;&gt;telereddit_services_services_wrapper</title><style>.edge>path:hover{stroke-width:8}</style>
<path fill="none" stroke="black" d="M745.497,-416.012C745.497,-408.153 745.497,-399.009 745.497,-390.418"/>
<polygon fill="#8b35a1" stroke="black" points="748.998,-390.338 745.497,-380.338 741.998,-390.338 748.998,-390.338"/>
</g>
<!-- telereddit_reddit&#45;&gt;telereddit_linker -->
<g id="edge49" class="edge"><title>telereddit_reddit&#45;&gt;telereddit_linker</title><style>.edge>path:hover{stroke-width:8}</style>
<path fill="none" stroke="black" d="M1115.39,-236.397C1167.54,-223.322 1288.35,-193.032 1347.96,-178.086"/>
<polygon fill="#7d2493" stroke="black" points="1348.82,-181.48 1357.66,-175.653 1347.11,-174.69 1348.82,-181.48"/>
</g>
<!-- telereddit_reddit&#45;&gt;telereddit_tests_test_reddit -->
<g id="edge50" class="edge"><title>telereddit_reddit&#45;&gt;telereddit_tests_test_reddit</title><style>.edge>path:hover{stroke-width:8}</style>
<path fill="none" stroke="black" d="M1065.8,-235.876C981.957,-212.916 707.254,-137.689 595.959,-107.21"/>
<polygon fill="#7d2493" stroke="black" points="596.593,-103.755 586.024,-104.49 594.744,-110.507 596.593,-103.755"/>
</g>
<!-- telereddit_services_gfycat_service&#45;&gt;telereddit_services_services_wrapper -->
<g id="edge54" class="edge"><title>telereddit_services_gfycat_service&#45;&gt;telereddit_services_services_wrapper</title><style>.edge>path:hover{stroke-width:8}</style>
<path fill="none" stroke="black" d="M641.236,-419.531C660.177,-408.728 684.943,-394.603 705.584,-382.83"/>
<polygon fill="#7e3091" stroke="black" points="707.492,-385.771 714.445,-377.777 704.024,-379.691 707.492,-385.771"/>
</g>
<!-- telereddit_services_service&#45;&gt;telereddit_services_generic_service -->
<g id="edge56" class="edge"><title>telereddit_services_service&#45;&gt;telereddit_services_generic_service</title><style>.edge>path:hover{stroke-width:8}</style>
<path fill="none" stroke="black" d="M711.476,-505.397C672.002,-494.318 604.974,-475.406 547.497,-458.706 542.863,-457.359 538.054,-455.951 533.232,-454.532"/>
<polygon fill="#c50cf3" stroke="black" points="533.951,-451.095 523.369,-451.62 531.969,-457.808 533.951,-451.095"/>
</g>
<!-- telereddit_services_service&#45;&gt;telereddit_services_vreddit_service -->
<g id="edge59" class="edge"><title>telereddit_services_service&#45;&gt;telereddit_services_vreddit_service</title><style>.edge>path:hover{stroke-width:8}</style>
<path fill="none" stroke="black" d="M771.847,-500.002C791.675,-488.777 819.163,-473.215 841.529,-460.553"/>
<polygon fill="#c50cf3" stroke="black" points="843.471,-463.476 850.449,-455.504 840.022,-457.384 843.471,-463.476"/>
</g>
<!-- telereddit_services_service&#45;&gt;telereddit_services_imgur_service -->
<g id="edge58" class="edge"><title>telereddit_services_service&#45;&gt;telereddit_services_imgur_service</title><style>.edge>path:hover{stroke-width:8}</style>
<path fill="none" stroke="black" d="M779.768,-505.81C819.878,-495.039 888.234,-476.342 946.497,-458.706 950.52,-457.488 954.68,-456.198 958.853,-454.883"/>
<polygon fill="#c50cf3" stroke="black" points="960.09,-458.163 968.554,-451.79 957.963,-451.493 960.09,-458.163"/>
</g>
<!-- telereddit_services_service&#45;&gt;telereddit_services_youtube_service -->
<g id="edge60" class="edge"><title>telereddit_services_service&#45;&gt;telereddit_services_youtube_service</title><style>.edge>path:hover{stroke-width:8}</style>
<path fill="none" stroke="black" d="M745.497,-494.438C745.497,-486.579 745.497,-477.435 745.497,-468.845"/>
<polygon fill="#c50cf3" stroke="black" points="748.998,-468.765 745.497,-458.765 741.998,-468.765 748.998,-468.765"/>
</g>
<!-- telereddit_services_service&#45;&gt;telereddit_services_gfycat_service -->
<g id="edge57" class="edge"><title>telereddit_services_service&#45;&gt;telereddit_services_gfycat_service</title><style>.edge>path:hover{stroke-width:8}</style>
<path fill="none" stroke="black" d="M719.343,-500.002C699.662,-488.777 672.377,-473.215 650.177,-460.553"/>
<polygon fill="#c50cf3" stroke="black" points="651.744,-457.418 641.324,-455.504 648.276,-463.498 651.744,-457.418"/>
</g>
<!-- telereddit_services -->
<g id="node28" class="node"><title>telereddit_services</title><style>.edge>path:hover{stroke-width:8}</style>
<ellipse fill="#cb10f9" stroke="black" cx="270.497" cy="-359.066" rx="30.7213" ry="18"/>
<text text-anchor="middle" x="270.497" y="-356.566" font-family="Helvetica,sans-Serif" font-size="10.00" fill="#ffffff">services</text>
</g>
<!-- telereddit_services&#45;&gt;telereddit_tests_test_services -->
<g id="edge52" class="edge"><title>telereddit_services&#45;&gt;telereddit_tests_test_services</title><style>.edge>path:hover{stroke-width:8}</style>
<path fill="none" stroke="black" d="M265.941,-340.839C261.321,-323.37 254.076,-295.979 248.497,-274.885"/>
<polygon fill="#cb10f9" stroke="black" points="251.851,-273.879 245.911,-265.106 245.084,-275.669 251.851,-273.879"/>
</g>
<!-- telereddit_services&#45;&gt;telereddit_reddit -->
<g id="edge51" class="edge"><title>telereddit_services&#45;&gt;telereddit_reddit</title><style>.edge>path:hover{stroke-width:8}</style>
<path fill="none" stroke="black" d="M289.752,-344.724C310.584,-331.064 345.287,-310.51 378.497,-300.853 507.19,-263.432 926.234,-249.126 1053.51,-245.581"/>
<polygon fill="#cb10f9" stroke="black" points="1053.63,-249.079 1063.53,-245.307 1053.44,-242.081 1053.63,-249.079"/>
</g>
<!-- telegram -->
<g id="node29" class="node"><title>telegram</title><style>.edge>path:hover{stroke-width:8}</style>
<polygon fill="#3b76ce" stroke="black" points="1561.5,-991.411 1558.5,-995.411 1537.5,-995.411 1534.5,-991.411 1507.5,-991.411 1507.5,-955.411 1561.5,-955.411 1561.5,-991.411"/>
<text text-anchor="middle" x="1534.5" y="-970.911" font-family="Helvetica,sans-Serif" font-size="10.00" fill="#ffffff">telegram</text>
</g>
<!-- telegram&#45;&gt;telereddit_telereddit -->
<g id="edge15" class="edge"><title>telegram&#45;&gt;telereddit_telereddit</title><style>.edge>path:hover{stroke-width:8}</style>
<path fill="none" stroke="black" d="M1554.43,-954.994C1582.03,-928.844 1628.5,-876.525 1628.5,-820.772 1628.5,-820.772 1628.5,-820.772 1628.5,-242.64 1628.5,-148.462 1494.69,-112.466 1424.44,-100.057"/>
<polygon fill="#3b76ce" stroke="black" points="1424.6,-96.5341 1414.15,-98.3282 1423.44,-103.437 1424.6,-96.5341"/>
</g>
<!-- telegram&#45;&gt;telereddit_config_config -->
<g id="edge13" class="edge"><title>telegram&#45;&gt;telereddit_config_config</title><style>.edge>path:hover{stroke-width:8}</style>
<path fill="none" stroke="black" d="M1523.32,-955.273C1496.78,-914.584 1429.89,-812.015 1398.82,-764.377"/>
<polygon fill="#3b76ce" stroke="black" points="1401.68,-762.346 1393.28,-755.882 1395.81,-766.17 1401.68,-762.346"/>
</g>
<!-- telegram&#45;&gt;telereddit_linker -->
<g id="edge14" class="edge"><title>telegram&#45;&gt;telereddit_linker</title><style>.edge>path:hover{stroke-width:8}</style>
<path fill="none" stroke="black" d="M1534.5,-955.128C1534.5,-926.978 1534.5,-869.475 1534.5,-820.772 1534.5,-820.772 1534.5,-820.772 1534.5,-358.066 1534.5,-317.383 1447.69,-230.46 1405.28,-190.417"/>
<polygon fill="#3b76ce" stroke="black" points="1407.6,-187.792 1397.91,-183.507 1402.81,-192.9 1407.6,-187.792"/>
</g>
</g>
</svg>
