<?xml version="1.0" encoding="UTF-8" standalone="no"?>
<!DOCTYPE svg PUBLIC "-//W3C//DTD SVG 1.1//EN"
 "http://www.w3.org/Graphics/SVG/1.1/DTD/svg11.dtd">
<!-- Generated by graphviz version 2.38.0 (20140413.2041)
 -->
<!-- Title: G Pages: 1 -->
<svg width="1859pt" height="999pt"
 viewBox="0.00 0.00 1858.56 999.41" xmlns="http://www.w3.org/2000/svg" xmlns:xlink="http://www.w3.org/1999/xlink">
<g id="graph0" class="graph" transform="scale(1 1) rotate(0) translate(4 995.411)">
<title>G</title><style>.edge>path:hover{stroke-width:8}</style>
<polygon fill="white" stroke="none" points="-4,4 -4,-995.411 1854.56,-995.411 1854.56,4 -4,4"/>
<g id="clust1" class="cluster"><title>cluster_parameterized</title><style>.edge>path:hover{stroke-width:8}</style>
<polygon fill="none" stroke="black" points="57.6536,-637.132 57.6536,-790.558 187.654,-790.558 187.654,-637.132 57.6536,-637.132"/>
<text text-anchor="middle" x="122.654" y="-775.358" font-family="Times New Roman,serif" font-size="14.00">parameterized</text>
</g>
<g id="clust2" class="cluster"><title>cluster_requests</title><style>.edge>path:hover{stroke-width:8}</style>
<polygon fill="none" stroke="black" points="629.654,-712.345 629.654,-787.345 709.654,-787.345 709.654,-712.345 629.654,-712.345"/>
<text text-anchor="middle" x="669.654" y="-772.145" font-family="Times New Roman,serif" font-size="14.00">requests</text>
</g>
<g id="clust3" class="cluster"><title>cluster_sentrysdk</title><style>.edge>path:hover{stroke-width:8}</style>
<polygon fill="none" stroke="black" points="1406.65,-217.64 1406.65,-292.64 1498.65,-292.64 1498.65,-217.64 1406.65,-217.64"/>
<text text-anchor="middle" x="1452.65" y="-277.44" font-family="Times New Roman,serif" font-size="14.00">sentrysdk</text>
</g>
<!-- parameterized_parameterized -->
<g id="node1" class="node"><title>parameterized_parameterized</title><style>.edge>path:hover{stroke-width:8}</style>
<ellipse fill="#ce3b3b" stroke="black" cx="122.654" cy="-738.345" rx="57.0522" ry="21.4286"/>
<text text-anchor="middle" x="122.654" y="-741.345" font-family="Helvetica,sans-Serif" font-size="10.00" fill="#ffffff">parameterized.</text>
<text text-anchor="middle" x="122.654" y="-730.345" font-family="Helvetica,sans-Serif" font-size="10.00" fill="#ffffff">parameterized</text>
</g>
<!-- parameterized -->
<g id="node2" class="node"><title>parameterized</title><style>.edge>path:hover{stroke-width:8}</style>
<ellipse fill="#c04040" stroke="black" cx="133.654" cy="-663.132" rx="45.8316" ry="18"/>
<text text-anchor="middle" x="133.654" y="-660.632" font-family="Helvetica,sans-Serif" font-size="10.00" fill="#ffffff">parameterized</text>
</g>
<!-- parameterized_parameterized&#45;&gt;parameterized -->
<g id="edge3" class="edge"><title>parameterized_parameterized&#45;&gt;parameterized</title><style>.edge>path:hover{stroke-width:8}</style>
<path fill="none" stroke="black" d="M125.718,-716.951C126.898,-709.097 128.265,-699.996 129.529,-691.583"/>
<polygon fill="#000000" stroke="black" points="133.028,-691.851 131.053,-681.442 126.106,-690.811 133.028,-691.851"/>
</g>
<!-- telereddit_tests_test_services -->
<g id="node20" class="node"><title>telereddit_tests_test_services</title><style>.edge>path:hover{stroke-width:8}</style>
<ellipse fill="#7e3d8f" stroke="black" cx="383.654" cy="-243.64" rx="52.1524" ry="21.4286"/>
<text text-anchor="middle" x="383.654" y="-246.64" font-family="Helvetica,sans-Serif" font-size="10.00" fill="#ffffff">tests.</text>
<text text-anchor="middle" x="383.654" y="-235.64" font-family="Helvetica,sans-Serif" font-size="10.00" fill="#ffffff">test_services</text>
</g>
<!-- parameterized_parameterized&#45;&gt;telereddit_tests_test_services -->
<g id="edge5" class="edge"><title>parameterized_parameterized&#45;&gt;telereddit_tests_test_services</title><style>.edge>path:hover{stroke-width:8}</style>
<path fill="none" stroke="black" d="M57.9125,-692.553C29.1403,-667.031 1.65358,-632.172 1.65358,-592.132 1.65358,-592.132 1.65358,-592.132 1.65358,-514.919 1.65358,-470.273 -4.96074,-452.846 20.6536,-416.279 77.9961,-334.417 122.77,-342.443 213.654,-300.853 251.729,-283.429 296.803,-268.777 330.969,-258.805"/>
<polygon fill="#000000" stroke="black" points="332.108,-262.119 340.75,-255.991 330.172,-255.392 332.108,-262.119"/>
</g>
<!-- telereddit_tests_test_helpers -->
<g id="node25" class="node"><title>telereddit_tests_test_helpers</title><style>.edge>path:hover{stroke-width:8}</style>
<ellipse fill="#8b439d" stroke="black" cx="78.6536" cy="-437.492" rx="49.4949" ry="21.4286"/>
<text text-anchor="middle" x="78.6536" y="-440.492" font-family="Helvetica,sans-Serif" font-size="10.00" fill="#ffffff">tests.</text>
<text text-anchor="middle" x="78.6536" y="-429.492" font-family="Helvetica,sans-Serif" font-size="10.00" fill="#ffffff">test_helpers</text>
</g>
<!-- parameterized_parameterized&#45;&gt;telereddit_tests_test_helpers -->
<g id="edge4" class="edge"><title>parameterized_parameterized&#45;&gt;telereddit_tests_test_helpers</title><style>.edge>path:hover{stroke-width:8}</style>
<path fill="none" stroke="black" d="M67.8369,-637.169C57.6133,-574.269 65.8787,-506.734 72.4914,-468.834"/>
<polygon fill="#000000" stroke="black" points="75.986,-469.181 74.3428,-458.715 69.1003,-467.921 75.986,-469.181"/>
</g>
<!-- parameterized&#45;&gt;telereddit_tests_test_services -->
<g id="edge2" class="edge"><title>parameterized&#45;&gt;telereddit_tests_test_services</title><style>.edge>path:hover{stroke-width:8}</style>
<path fill="none" stroke="black" d="M133.721,-637.356C135.112,-579.018 145.97,-430.923 217.654,-337.853 246.813,-299.994 295.983,-275.166 333.261,-260.726"/>
<polygon fill="#000000" stroke="black" points="334.808,-263.885 342.947,-257.102 332.354,-257.329 334.808,-263.885"/>
</g>
<!-- parameterized&#45;&gt;telereddit_tests_test_helpers -->
<g id="edge1" class="edge"><title>parameterized&#45;&gt;telereddit_tests_test_helpers</title><style>.edge>path:hover{stroke-width:8}</style>
<path fill="none" stroke="black" d="M127.538,-637.263C117.372,-595.93 97.0357,-513.237 86.0695,-468.647"/>
<polygon fill="#000000" stroke="black" points="89.4632,-467.79 83.6763,-458.916 82.6658,-469.462 89.4632,-467.79"/>
</g>
<!-- requests -->
<g id="node3" class="node"><title>requests</title><style>.edge>path:hover{stroke-width:8}</style>
<ellipse fill="#c8f906" stroke="black" cx="669.654" cy="-738.345" rx="31.577" ry="18"/>
<text text-anchor="middle" x="669.654" y="-735.845" font-family="Helvetica,sans-Serif" font-size="10.00" fill="#000000">requests</text>
</g>
<!-- telereddit_services_gfycat_service -->
<g id="node5" class="node"><title>telereddit_services_gfycat_service</title><style>.edge>path:hover{stroke-width:8}</style>
<ellipse fill="#7e3091" stroke="black" cx="797.654" cy="-437.492" rx="55.3091" ry="21.4286"/>
<text text-anchor="middle" x="797.654" y="-440.492" font-family="Helvetica,sans-Serif" font-size="10.00" fill="#ffffff">services.</text>
<text text-anchor="middle" x="797.654" y="-429.492" font-family="Helvetica,sans-Serif" font-size="10.00" fill="#ffffff">gfycat_service</text>
</g>
<!-- requests&#45;&gt;telereddit_services_gfycat_service -->
<g id="edge8" class="edge"><title>requests&#45;&gt;telereddit_services_gfycat_service</title><style>.edge>path:hover{stroke-width:8}</style>
<path fill="none" stroke="black" d="M677.504,-712.403C687.991,-679.883 707.695,-621.452 728.654,-573.132 744.828,-535.842 766.662,-494.435 781.402,-467.515"/>
<polygon fill="#000000" stroke="black" points="784.539,-469.075 786.299,-458.628 778.408,-465.697 784.539,-469.075"/>
</g>
<!-- telereddit_reddit -->
<g id="node8" class="node"><title>telereddit_reddit</title><style>.edge>path:hover{stroke-width:8}</style>
<ellipse fill="#7d2493" stroke="black" cx="776.654" cy="-243.64" rx="27" ry="18"/>
<text text-anchor="middle" x="776.654" y="-241.14" font-family="Helvetica,sans-Serif" font-size="10.00" fill="#ffffff">reddit</text>
</g>
<!-- requests&#45;&gt;telereddit_reddit -->
<g id="edge7" class="edge"><title>requests&#45;&gt;telereddit_reddit</title><style>.edge>path:hover{stroke-width:8}</style>
<path fill="none" stroke="black" d="M629.843,-732.807C521.892,-719.404 231.654,-675.605 231.654,-592.132 231.654,-592.132 231.654,-592.132 231.654,-436.492 231.654,-337.736 316.468,-338.775 407.654,-300.853 422.995,-294.472 650.668,-262.225 740.548,-249.661"/>
<polygon fill="#000000" stroke="black" points="741.134,-253.113 750.554,-248.264 740.166,-246.18 741.134,-253.113"/>
</g>
<!-- telereddit_services_service -->
<g id="node16" class="node"><title>telereddit_services_service</title><style>.edge>path:hover{stroke-width:8}</style>
<ellipse fill="#c50cf3" stroke="black" cx="602.654" cy="-515.919" rx="38.7821" ry="21.4286"/>
<text text-anchor="middle" x="602.654" y="-518.919" font-family="Helvetica,sans-Serif" font-size="10.00" fill="#ffffff">services.</text>
<text text-anchor="middle" x="602.654" y="-507.919" font-family="Helvetica,sans-Serif" font-size="10.00" fill="#ffffff">service</text>
</g>
<!-- requests&#45;&gt;telereddit_services_service -->
<g id="edge10" class="edge"><title>requests&#45;&gt;telereddit_services_service</title><style>.edge>path:hover{stroke-width:8}</style>
<path fill="none" stroke="black" d="M662.087,-712.45C649.665,-671.585 625.005,-590.453 611.688,-546.64"/>
<polygon fill="#000000" stroke="black" points="615.029,-545.598 608.772,-537.048 608.332,-547.634 615.029,-545.598"/>
</g>
<!-- telereddit_services_vreddit_service -->
<g id="node17" class="node"><title>telereddit_services_vreddit_service</title><style>.edge>path:hover{stroke-width:8}</style>
<ellipse fill="#853399" stroke="black" cx="392.654" cy="-437.492" rx="56.6372" ry="21.4286"/>
<text text-anchor="middle" x="392.654" y="-440.492" font-family="Helvetica,sans-Serif" font-size="10.00" fill="#ffffff">services.</text>
<text text-anchor="middle" x="392.654" y="-429.492" font-family="Helvetica,sans-Serif" font-size="10.00" fill="#ffffff">vreddit_service</text>
</g>
<!-- requests&#45;&gt;telereddit_services_vreddit_service -->
<g id="edge11" class="edge"><title>requests&#45;&gt;telereddit_services_vreddit_service</title><style>.edge>path:hover{stroke-width:8}</style>
<path fill="none" stroke="black" d="M629.968,-732.609C566.172,-722.62 442.522,-692.921 388.654,-609.132 361.306,-566.594 372.197,-504.941 382.498,-468.56"/>
<polygon fill="#000000" stroke="black" points="385.974,-469.152 385.494,-458.568 379.269,-467.141 385.974,-469.152"/>
</g>
<!-- telereddit_helpers -->
<g id="node18" class="node"><title>telereddit_helpers</title><style>.edge>path:hover{stroke-width:8}</style>
<ellipse fill="#b005db" stroke="black" cx="836.654" cy="-591.132" rx="28.0137" ry="18"/>
<text text-anchor="middle" x="836.654" y="-588.632" font-family="Helvetica,sans-Serif" font-size="10.00" fill="#ffffff">helpers</text>
</g>
<!-- requests&#45;&gt;telereddit_helpers -->
<g id="edge6" class="edge"><title>requests&#45;&gt;telereddit_helpers</title><style>.edge>path:hover{stroke-width:8}</style>
<path fill="none" stroke="black" d="M709.35,-714.784C724.764,-705.249 742.16,-693.493 756.654,-681.132 780.063,-661.168 803.159,-634.52 818.471,-615.601"/>
<polygon fill="#000000" stroke="black" points="821.23,-617.755 824.733,-607.756 815.759,-613.388 821.23,-617.755"/>
</g>
<!-- telereddit_services_imgur_service -->
<g id="node24" class="node"><title>telereddit_services_imgur_service</title><style>.edge>path:hover{stroke-width:8}</style>
<ellipse fill="#7e3091" stroke="black" cx="924.654" cy="-437.492" rx="53.9813" ry="21.4286"/>
<text text-anchor="middle" x="924.654" y="-440.492" font-family="Helvetica,sans-Serif" font-size="10.00" fill="#ffffff">services.</text>
<text text-anchor="middle" x="924.654" y="-429.492" font-family="Helvetica,sans-Serif" font-size="10.00" fill="#ffffff">imgur_service</text>
</g>
<!-- requests&#45;&gt;telereddit_services_imgur_service -->
<g id="edge9" class="edge"><title>requests&#45;&gt;telereddit_services_imgur_service</title><style>.edge>path:hover{stroke-width:8}</style>
<path fill="none" stroke="black" d="M689.074,-712.434C696.195,-702.869 704.108,-691.707 710.654,-681.132 739.111,-635.158 733.005,-615.455 766.654,-573.132 802.526,-528.011 855.25,-486.715 889.765,-462.077"/>
<polygon fill="#000000" stroke="black" points="891.971,-464.803 898.126,-456.18 887.937,-459.083 891.971,-464.803"/>
</g>
<!-- sentry_sdk -->
<g id="node4" class="node"><title>sentry_sdk</title><style>.edge>path:hover{stroke-width:8}</style>
<ellipse fill="#40c073" stroke="black" cx="1452.65" cy="-243.64" rx="38.0276" ry="18"/>
<text text-anchor="middle" x="1452.65" y="-241.14" font-family="Helvetica,sans-Serif" font-size="10.00" fill="#000000">sentry_sdk</text>
</g>
<!-- telereddit_telereddit -->
<g id="node28" class="node"><title>telereddit_telereddit</title><style>.edge>path:hover{stroke-width:8}</style>
<ellipse fill="#632673" stroke="black" cx="1310.65" cy="-93.2132" rx="32.9303" ry="18"/>
<text text-anchor="middle" x="1310.65" y="-90.7132" font-family="Helvetica,sans-Serif" font-size="10.00" fill="#ffffff">telereddit</text>
</g>
<!-- sentry_sdk&#45;&gt;telereddit_telereddit -->
<g id="edge12" class="edge"><title>sentry_sdk&#45;&gt;telereddit_telereddit</title><style>.edge>path:hover{stroke-width:8}</style>
<path fill="none" stroke="black" d="M1442.71,-217.698C1433.87,-197.788 1419.44,-170.07 1400.65,-150.426 1384.72,-133.758 1362.85,-119.95 1344.66,-110.191"/>
<polygon fill="#000000" stroke="black" points="1346.02,-106.955 1335.53,-105.462 1342.8,-113.17 1346.02,-106.955"/>
</g>
<!-- telereddit_services_services_wrapper -->
<g id="node12" class="node"><title>telereddit_services_services_wrapper</title><style>.edge>path:hover{stroke-width:8}</style>
<ellipse fill="#84269b" stroke="black" cx="663.654" cy="-359.066" rx="64.1938" ry="21.4286"/>
<text text-anchor="middle" x="663.654" y="-362.066" font-family="Helvetica,sans-Serif" font-size="10.00" fill="#ffffff">services.</text>
<text text-anchor="middle" x="663.654" y="-351.066" font-family="Helvetica,sans-Serif" font-size="10.00" fill="#ffffff">services_wrapper</text>
</g>
<!-- telereddit_services_gfycat_service&#45;&gt;telereddit_services_services_wrapper -->
<g id="edge54" class="edge"><title>telereddit_services_gfycat_service&#45;&gt;telereddit_services_services_wrapper</title><style>.edge>path:hover{stroke-width:8}</style>
<path fill="none" stroke="black" d="M767.915,-419.531C748.974,-408.728 724.208,-394.603 703.567,-382.83"/>
<polygon fill="#7e3091" stroke="black" points="705.127,-379.691 694.706,-377.777 701.659,-385.771 705.127,-379.691"/>
</g>
<!-- telereddit___main__ -->
<g id="node6" class="node"><title>telereddit___main__</title><style>.edge>path:hover{stroke-width:8}</style>
<ellipse fill="#9849ac" stroke="black" cx="1310.65" cy="-18" rx="34.9638" ry="18"/>
<text text-anchor="middle" x="1310.65" y="-15.5" font-family="Helvetica,sans-Serif" font-size="10.00" fill="#ffffff">__main__</text>
</g>
<!-- telereddit_config -->
<g id="node7" class="node"><title>telereddit_config</title><style>.edge>path:hover{stroke-width:8}</style>
<ellipse fill="#cb10f9" stroke="black" cx="1139.65" cy="-663.132" rx="27" ry="18"/>
<text text-anchor="middle" x="1139.65" y="-660.632" font-family="Helvetica,sans-Serif" font-size="10.00" fill="#ffffff">config</text>
</g>
<!-- telereddit_config&#45;&gt;telereddit_services_gfycat_service -->
<g id="edge19" class="edge"><title>telereddit_config&#45;&gt;telereddit_services_gfycat_service</title><style>.edge>path:hover{stroke-width:8}</style>
<path fill="none" stroke="black" d="M1120.24,-650.369C1103.22,-639.912 1077.95,-624.019 1056.65,-609.132 987.925,-561.099 977.521,-539.523 906.654,-494.706 885.742,-481.481 861.357,-468.68 840.959,-458.643"/>
<polygon fill="#cb10f9" stroke="black" points="842.418,-455.461 831.895,-454.234 839.357,-461.756 842.418,-455.461"/>
</g>
<!-- telereddit_config&#45;&gt;telereddit_reddit -->
<g id="edge18" class="edge"><title>telereddit_config&#45;&gt;telereddit_reddit</title><style>.edge>path:hover{stroke-width:8}</style>
<path fill="none" stroke="black" d="M1141.21,-644.865C1145.43,-586.353 1150.55,-394.056 1046.65,-300.853 1012.64,-270.338 879.249,-254.077 813.581,-247.778"/>
<polygon fill="#cb10f9" stroke="black" points="813.554,-244.261 803.272,-246.818 812.905,-251.23 813.554,-244.261"/>
</g>
<!-- telereddit_linker -->
<g id="node9" class="node"><title>telereddit_linker</title><style>.edge>path:hover{stroke-width:8}</style>
<ellipse fill="#853399" stroke="black" cx="1234.65" cy="-168.426" rx="27" ry="18"/>
<text text-anchor="middle" x="1234.65" y="-165.926" font-family="Helvetica,sans-Serif" font-size="10.00" fill="#ffffff">linker</text>
</g>
<!-- telereddit_config&#45;&gt;telereddit_linker -->
<g id="edge17" class="edge"><title>telereddit_config&#45;&gt;telereddit_linker</title><style>.edge>path:hover{stroke-width:8}</style>
<path fill="none" stroke="black" d="M1156.2,-648.826C1183.42,-625.322 1234.65,-573.556 1234.65,-516.919 1234.65,-516.919 1234.65,-516.919 1234.65,-300.853 1234.65,-264.755 1234.65,-223.081 1234.65,-196.509"/>
<polygon fill="#cb10f9" stroke="black" points="1238.15,-196.439 1234.65,-186.439 1231.15,-196.439 1238.15,-196.439"/>
</g>
<!-- telereddit_config&#45;&gt;telereddit_helpers -->
<g id="edge16" class="edge"><title>telereddit_config&#45;&gt;telereddit_helpers</title><style>.edge>path:hover{stroke-width:8}</style>
<path fill="none" stroke="black" d="M1114.6,-656.344C1061.01,-643.964 935.076,-614.87 872.81,-600.485"/>
<polygon fill="#cb10f9" stroke="black" points="873.558,-597.066 863.027,-598.225 871.982,-603.886 873.558,-597.066"/>
</g>
<!-- telereddit_config&#45;&gt;telereddit_services_imgur_service -->
<g id="edge20" class="edge"><title>telereddit_config&#45;&gt;telereddit_services_imgur_service</title><style>.edge>path:hover{stroke-width:8}</style>
<path fill="none" stroke="black" d="M1126.03,-647.125C1099.07,-617.55 1036.86,-549.817 982.654,-494.706 972.702,-484.588 961.554,-473.685 951.711,-464.199"/>
<polygon fill="#cb10f9" stroke="black" points="954.118,-461.657 944.48,-457.257 949.27,-466.707 954.118,-461.657"/>
</g>
<!-- telereddit_config&#45;&gt;telereddit_telereddit -->
<g id="edge21" class="edge"><title>telereddit_config&#45;&gt;telereddit_telereddit</title><style>.edge>path:hover{stroke-width:8}</style>
<path fill="none" stroke="black" d="M1160.73,-651.59C1198.23,-631.166 1272.65,-582.387 1272.65,-516.919 1272.65,-516.919 1272.65,-516.919 1272.65,-358.066 1272.65,-270.723 1293.31,-168.761 1304.16,-121.204"/>
<polygon fill="#cb10f9" stroke="black" points="1307.59,-121.91 1306.44,-111.378 1300.77,-120.327 1307.59,-121.91"/>
</g>
<!-- telereddit_reddit&#45;&gt;telereddit_linker -->
<g id="edge49" class="edge"><title>telereddit_reddit&#45;&gt;telereddit_linker</title><style>.edge>path:hover{stroke-width:8}</style>
<path fill="none" stroke="black" d="M802.59,-238.494C880.042,-226.113 1109.77,-189.389 1198.82,-175.154"/>
<polygon fill="#7d2493" stroke="black" points="1199.4,-178.607 1208.72,-173.572 1198.29,-171.695 1199.4,-178.607"/>
</g>
<!-- telereddit_tests_test_reddit -->
<g id="node21" class="node"><title>telereddit_tests_test_reddit</title><style>.edge>path:hover{stroke-width:8}</style>
<ellipse fill="#9246a4" stroke="black" cx="320.654" cy="-93.2132" rx="43.6818" ry="21.4286"/>
<text text-anchor="middle" x="320.654" y="-96.2132" font-family="Helvetica,sans-Serif" font-size="10.00" fill="#ffffff">tests.</text>
<text text-anchor="middle" x="320.654" y="-85.2132" font-family="Helvetica,sans-Serif" font-size="10.00" fill="#ffffff">test_reddit</text>
</g>
<!-- telereddit_reddit&#45;&gt;telereddit_tests_test_reddit -->
<g id="edge50" class="edge"><title>telereddit_reddit&#45;&gt;telereddit_tests_test_reddit</title><style>.edge>path:hover{stroke-width:8}</style>
<path fill="none" stroke="black" d="M752.779,-234.869C680.213,-211.249 461.412,-140.03 365.981,-108.967"/>
<polygon fill="#7d2493" stroke="black" points="366.918,-105.591 356.325,-105.824 364.751,-112.248 366.918,-105.591"/>
</g>
<!-- telereddit_linker&#45;&gt;telereddit_telereddit -->
<g id="edge48" class="edge"><title>telereddit_linker&#45;&gt;telereddit_telereddit</title><style>.edge>path:hover{stroke-width:8}</style>
<path fill="none" stroke="black" d="M1249.67,-152.962C1260.56,-142.471 1275.48,-128.093 1287.84,-116.187"/>
<polygon fill="#853399" stroke="black" points="1290.37,-118.609 1295.15,-109.15 1285.52,-113.568 1290.37,-118.609"/>
</g>
<!-- telereddit_config_secret_github -->
<g id="node10" class="node"><title>telereddit_config_secret_github</title><style>.edge>path:hover{stroke-width:8}</style>
<ellipse fill="#8b439d" stroke="black" cx="1614.65" cy="-819.772" rx="53.066" ry="21.4286"/>
<text text-anchor="middle" x="1614.65" y="-822.772" font-family="Helvetica,sans-Serif" font-size="10.00" fill="#ffffff">config.</text>
<text text-anchor="middle" x="1614.65" y="-811.772" font-family="Helvetica,sans-Serif" font-size="10.00" fill="#ffffff">secret_github</text>
</g>
<!-- telereddit_config_secret_dev -->
<g id="node11" class="node"><title>telereddit_config_secret_dev</title><style>.edge>path:hover{stroke-width:8}</style>
<ellipse fill="#a02fbc" stroke="black" cx="1658.65" cy="-898.198" rx="44.5955" ry="21.4286"/>
<text text-anchor="middle" x="1658.65" y="-901.198" font-family="Helvetica,sans-Serif" font-size="10.00" fill="#ffffff">config.</text>
<text text-anchor="middle" x="1658.65" y="-890.198" font-family="Helvetica,sans-Serif" font-size="10.00" fill="#ffffff">secret_dev</text>
</g>
<!-- telereddit_config_secret_dev&#45;&gt;telereddit_config_secret_github -->
<g id="edge32" class="edge"><title>telereddit_config_secret_dev&#45;&gt;telereddit_config_secret_github</title><style>.edge>path:hover{stroke-width:8}</style>
<path fill="none" stroke="black" d="M1647.32,-877.516C1642.38,-868.936 1636.5,-858.711 1631.09,-849.32"/>
<polygon fill="#a02fbc" stroke="black" points="1634.12,-847.572 1626.1,-840.652 1628.06,-851.065 1634.12,-847.572"/>
</g>
<!-- telereddit_config_secret_prod -->
<g id="node23" class="node"><title>telereddit_config_secret_prod</title><style>.edge>path:hover{stroke-width:8}</style>
<ellipse fill="#8b439d" stroke="black" cx="1783.65" cy="-819.772" rx="48.1667" ry="21.4286"/>
<text text-anchor="middle" x="1783.65" y="-822.772" font-family="Helvetica,sans-Serif" font-size="10.00" fill="#ffffff">config.</text>
<text text-anchor="middle" x="1783.65" y="-811.772" font-family="Helvetica,sans-Serif" font-size="10.00" fill="#ffffff">secret_prod</text>
</g>
<!-- telereddit_config_secret_dev&#45;&gt;telereddit_config_secret_prod -->
<g id="edge33" class="edge"><title>telereddit_config_secret_dev&#45;&gt;telereddit_config_secret_prod</title><style>.edge>path:hover{stroke-width:8}</style>
<path fill="none" stroke="black" d="M1685.16,-880.99C1703.39,-869.845 1727.82,-854.911 1747.78,-842.704"/>
<polygon fill="#a02fbc" stroke="black" points="1749.61,-845.687 1756.32,-837.485 1745.96,-839.715 1749.61,-845.687"/>
</g>
<!-- telereddit_services_services_wrapper&#45;&gt;telereddit_reddit -->
<g id="edge61" class="edge"><title>telereddit_services_services_wrapper&#45;&gt;telereddit_reddit</title><style>.edge>path:hover{stroke-width:8}</style>
<path fill="none" stroke="black" d="M683.079,-338.567C703.086,-318.484 734.199,-287.255 754.99,-266.385"/>
<polygon fill="#84269b" stroke="black" points="757.565,-268.76 762.143,-259.205 752.605,-263.819 757.565,-268.76"/>
</g>
<!-- telereddit_services_services_wrapper&#45;&gt;telereddit_tests_test_services -->
<g id="edge62" class="edge"><title>telereddit_services_services_wrapper&#45;&gt;telereddit_tests_test_services</title><style>.edge>path:hover{stroke-width:8}</style>
<path fill="none" stroke="black" d="M624.426,-342.175C573.028,-321.354 483.081,-284.917 428.874,-262.958"/>
<polygon fill="#84269b" stroke="black" points="430.095,-259.677 419.513,-259.166 427.467,-266.164 430.095,-259.677"/>
</g>
<!-- telereddit_config_secret -->
<g id="node13" class="node"><title>telereddit_config_secret</title><style>.edge>path:hover{stroke-width:8}</style>
<ellipse fill="#c022e7" stroke="black" cx="1717.65" cy="-973.411" rx="42.2678" ry="18"/>
<text text-anchor="middle" x="1717.65" y="-970.911" font-family="Helvetica,sans-Serif" font-size="10.00" fill="#ffffff">config.secret</text>
</g>
<!-- telereddit_config_secret&#45;&gt;telereddit_config_secret_github -->
<g id="edge30" class="edge"><title>telereddit_config_secret&#45;&gt;telereddit_config_secret_github</title><style>.edge>path:hover{stroke-width:8}</style>
<path fill="none" stroke="black" d="M1679.38,-965.472C1653.43,-958.561 1620.98,-945.106 1604.65,-919.411 1591.72,-899.062 1595.94,-871.448 1602.4,-850.614"/>
<polygon fill="#c022e7" stroke="black" points="1605.77,-851.586 1605.7,-840.992 1599.15,-849.321 1605.77,-851.586"/>
</g>
<!-- telereddit_config_secret&#45;&gt;telereddit_config_secret_dev -->
<g id="edge28" class="edge"><title>telereddit_config_secret&#45;&gt;telereddit_config_secret_dev</title><style>.edge>path:hover{stroke-width:8}</style>
<path fill="none" stroke="black" d="M1704.56,-956.163C1697.43,-947.321 1688.44,-936.155 1680.3,-926.057"/>
<polygon fill="#c022e7" stroke="black" points="1683.01,-923.842 1674.01,-918.252 1677.56,-928.234 1683.01,-923.842"/>
</g>
<!-- telereddit_config_secret_generic -->
<g id="node19" class="node"><title>telereddit_config_secret_generic</title><style>.edge>path:hover{stroke-width:8}</style>
<ellipse fill="#9246a4" stroke="black" cx="1777.65" cy="-898.198" rx="56.6372" ry="21.4286"/>
<text text-anchor="middle" x="1777.65" y="-901.198" font-family="Helvetica,sans-Serif" font-size="10.00" fill="#ffffff">config.</text>
<text text-anchor="middle" x="1777.65" y="-890.198" font-family="Helvetica,sans-Serif" font-size="10.00" fill="#ffffff">secret_generic</text>
</g>
<!-- telereddit_config_secret&#45;&gt;telereddit_config_secret_generic -->
<g id="edge29" class="edge"><title>telereddit_config_secret&#45;&gt;telereddit_config_secret_generic</title><style>.edge>path:hover{stroke-width:8}</style>
<path fill="none" stroke="black" d="M1730.97,-956.163C1738.04,-947.54 1746.91,-936.707 1755.03,-926.81"/>
<polygon fill="#c022e7" stroke="black" points="1757.97,-928.738 1761.6,-918.785 1752.56,-924.301 1757.97,-928.738"/>
</g>
<!-- telereddit_config_secret&#45;&gt;telereddit_config_secret_prod -->
<g id="edge31" class="edge"><title>telereddit_config_secret&#45;&gt;telereddit_config_secret_prod</title><style>.edge>path:hover{stroke-width:8}</style>
<path fill="none" stroke="black" d="M1757.74,-967.263C1786.98,-961.18 1824.68,-947.976 1843.65,-919.411 1854.09,-903.704 1851.15,-894.286 1843.65,-876.985 1838.13,-864.252 1828.15,-853.083 1817.9,-844.127"/>
<polygon fill="#c022e7" stroke="black" points="1820.02,-841.345 1810.07,-837.72 1815.59,-846.762 1820.02,-841.345"/>
</g>
<!-- telereddit_services_youtube_service -->
<g id="node14" class="node"><title>telereddit_services_youtube_service</title><style>.edge>path:hover{stroke-width:8}</style>
<ellipse fill="#8b35a1" stroke="black" cx="663.654" cy="-437.492" rx="60.623" ry="21.4286"/>
<text text-anchor="middle" x="663.654" y="-440.492" font-family="Helvetica,sans-Serif" font-size="10.00" fill="#ffffff">services.</text>
<text text-anchor="middle" x="663.654" y="-429.492" font-family="Helvetica,sans-Serif" font-size="10.00" fill="#ffffff">youtube_service</text>
</g>
<!-- telereddit_services_youtube_service&#45;&gt;telereddit_services_services_wrapper -->
<g id="edge64" class="edge"><title>telereddit_services_youtube_service&#45;&gt;telereddit_services_services_wrapper</title><style>.edge>path:hover{stroke-width:8}</style>
<path fill="none" stroke="black" d="M663.654,-416.012C663.654,-408.153 663.654,-399.009 663.654,-390.418"/>
<polygon fill="#8b35a1" stroke="black" points="667.154,-390.338 663.654,-380.338 660.154,-390.338 667.154,-390.338"/>
</g>
<!-- telereddit_content_type -->
<g id="node15" class="node"><title>telereddit_content_type</title><style>.edge>path:hover{stroke-width:8}</style>
<ellipse fill="#cb10f9" stroke="black" cx="440.654" cy="-591.132" rx="42.9448" ry="18"/>
<text text-anchor="middle" x="440.654" y="-588.632" font-family="Helvetica,sans-Serif" font-size="10.00" fill="#ffffff">content_type</text>
</g>
<!-- telereddit_content_type&#45;&gt;telereddit_services_gfycat_service -->
<g id="edge36" class="edge"><title>telereddit_content_type&#45;&gt;telereddit_services_gfycat_service</title><style>.edge>path:hover{stroke-width:8}</style>
<path fill="none" stroke="black" d="M480.7,-584.24C523.983,-576.92 594.324,-562.227 650.654,-537.132 694.091,-517.78 738.721,-485.788 767.233,-463.504"/>
<polygon fill="#cb10f9" stroke="black" points="769.518,-466.159 775.189,-457.21 765.175,-460.67 769.518,-466.159"/>
</g>
<!-- telereddit_content_type&#45;&gt;telereddit_reddit -->
<g id="edge34" class="edge"><title>telereddit_content_type&#45;&gt;telereddit_reddit</title><style>.edge>path:hover{stroke-width:8}</style>
<path fill="none" stroke="black" d="M401.351,-583.653C374.456,-576.951 340.693,-563.557 323.654,-537.132 314.045,-522.231 313.6,-434.475 326.654,-416.279 425.597,-278.363 650.578,-251.247 739.497,-245.93"/>
<polygon fill="#cb10f9" stroke="black" points="739.851,-249.416 749.648,-245.384 739.475,-242.426 739.851,-249.416"/>
</g>
<!-- telereddit_content_type&#45;&gt;telereddit_services_youtube_service -->
<g id="edge39" class="edge"><title>telereddit_content_type&#45;&gt;telereddit_services_youtube_service</title><style>.edge>path:hover{stroke-width:8}</style>
<path fill="none" stroke="black" d="M457.106,-574.337C478.477,-554.311 517.465,-519.42 554.654,-494.706 574.631,-481.429 598.135,-468.951 618.193,-459.141"/>
<polygon fill="#cb10f9" stroke="black" points="619.945,-462.181 627.435,-454.688 616.907,-455.875 619.945,-462.181"/>
</g>
<!-- telereddit_content_type&#45;&gt;telereddit_services_vreddit_service -->
<g id="edge38" class="edge"><title>telereddit_content_type&#45;&gt;telereddit_services_vreddit_service</title><style>.edge>path:hover{stroke-width:8}</style>
<path fill="none" stroke="black" d="M435.241,-573.032C427.223,-547.701 412.073,-499.84 402.173,-468.565"/>
<polygon fill="#cb10f9" stroke="black" points="405.389,-467.129 399.035,-458.651 398.716,-469.241 405.389,-467.129"/>
</g>
<!-- telereddit_content_type&#45;&gt;telereddit_tests_test_services -->
<g id="edge41" class="edge"><title>telereddit_content_type&#45;&gt;telereddit_tests_test_services</title><style>.edge>path:hover{stroke-width:8}</style>
<path fill="none" stroke="black" d="M415.324,-576.372C376.736,-553.345 307.654,-503.1 307.654,-438.492 307.654,-438.492 307.654,-438.492 307.654,-358.066 307.654,-323.292 332.612,-291.124 353.923,-269.995"/>
<polygon fill="#cb10f9" stroke="black" points="356.441,-272.43 361.262,-262.996 351.61,-267.365 356.441,-272.43"/>
</g>
<!-- telereddit_content_type&#45;&gt;telereddit_tests_test_reddit -->
<g id="edge40" class="edge"><title>telereddit_content_type&#45;&gt;telereddit_tests_test_reddit</title><style>.edge>path:hover{stroke-width:8}</style>
<path fill="none" stroke="black" d="M404.549,-581.194C377.36,-573.1 340.337,-559.038 313.654,-537.132 216.299,-457.208 155.654,-427.812 155.654,-301.853 155.654,-301.853 155.654,-301.853 155.654,-242.64 155.654,-177.078 228.549,-133.097 277.437,-110.973"/>
<polygon fill="#cb10f9" stroke="black" points="279.112,-114.06 286.865,-106.84 276.301,-107.649 279.112,-114.06"/>
</g>
<!-- telereddit_services_generic_service -->
<g id="node22" class="node"><title>telereddit_services_generic_service</title><style>.edge>path:hover{stroke-width:8}</style>
<ellipse fill="#9238a8" stroke="black" cx="525.654" cy="-437.492" rx="58.8803" ry="21.4286"/>
<text text-anchor="middle" x="525.654" y="-440.492" font-family="Helvetica,sans-Serif" font-size="10.00" fill="#ffffff">services.</text>
<text text-anchor="middle" x="525.654" y="-429.492" font-family="Helvetica,sans-Serif" font-size="10.00" fill="#ffffff">generic_service</text>
</g>
<!-- telereddit_content_type&#45;&gt;telereddit_services_generic_service -->
<g id="edge35" class="edge"><title>telereddit_content_type&#45;&gt;telereddit_services_generic_service</title><style>.edge>path:hover{stroke-width:8}</style>
<path fill="none" stroke="black" d="M450.075,-573.325C464.395,-547.778 491.827,-498.839 509.407,-467.476"/>
<polygon fill="#cb10f9" stroke="black" points="512.466,-469.176 514.303,-458.742 506.36,-465.753 512.466,-469.176"/>
</g>
<!-- telereddit_content_type&#45;&gt;telereddit_services_imgur_service -->
<g id="edge37" class="edge"><title>telereddit_content_type&#45;&gt;telereddit_services_imgur_service</title><style>.edge>path:hover{stroke-width:8}</style>
<path fill="none" stroke="black" d="M480.973,-584.649C532.67,-577 624.706,-561.288 700.654,-537.132 736.062,-525.87 827.628,-483.962 882.101,-458.535"/>
<polygon fill="#cb10f9" stroke="black" points="883.588,-461.703 891.164,-454.297 880.623,-455.362 883.588,-461.703"/>
</g>
<!-- telereddit_services_service&#45;&gt;telereddit_services_gfycat_service -->
<g id="edge57" class="edge"><title>telereddit_services_service&#45;&gt;telereddit_services_gfycat_service</title><style>.edge>path:hover{stroke-width:8}</style>
<path fill="none" stroke="black" d="M633.552,-502.809C665.098,-490.445 714.463,-471.097 750.817,-456.849"/>
<polygon fill="#c50cf3" stroke="black" points="752.195,-460.068 760.229,-453.16 749.641,-453.551 752.195,-460.068"/>
</g>
<!-- telereddit_services_service&#45;&gt;telereddit_services_youtube_service -->
<g id="edge60" class="edge"><title>telereddit_services_service&#45;&gt;telereddit_services_youtube_service</title><style>.edge>path:hover{stroke-width:8}</style>
<path fill="none" stroke="black" d="M617.732,-496.027C624.899,-487.048 633.607,-476.138 641.505,-466.242"/>
<polygon fill="#c50cf3" stroke="black" points="644.395,-468.232 647.897,-458.233 638.924,-463.865 644.395,-468.232"/>
</g>
<!-- telereddit_services_service&#45;&gt;telereddit_services_vreddit_service -->
<g id="edge59" class="edge"><title>telereddit_services_service&#45;&gt;telereddit_services_vreddit_service</title><style>.edge>path:hover{stroke-width:8}</style>
<path fill="none" stroke="black" d="M570.759,-503.311C536.415,-490.812 481.356,-470.774 441.54,-456.284"/>
<polygon fill="#c50cf3" stroke="black" points="442.616,-452.951 432.022,-452.82 440.222,-459.529 442.616,-452.951"/>
</g>
<!-- telereddit_services_service&#45;&gt;telereddit_services_generic_service -->
<g id="edge56" class="edge"><title>telereddit_services_service&#45;&gt;telereddit_services_generic_service</title><style>.edge>path:hover{stroke-width:8}</style>
<path fill="none" stroke="black" d="M584.406,-496.807C574.722,-487.195 562.648,-475.211 551.969,-464.612"/>
<polygon fill="#c50cf3" stroke="black" points="554.408,-462.101 544.845,-457.541 549.477,-467.07 554.408,-462.101"/>
</g>
<!-- telereddit_services_service&#45;&gt;telereddit_services_imgur_service -->
<g id="edge58" class="edge"><title>telereddit_services_service&#45;&gt;telereddit_services_imgur_service</title><style>.edge>path:hover{stroke-width:8}</style>
<path fill="none" stroke="black" d="M638.952,-508.192C689.292,-498.602 782.993,-479.808 861.654,-458.706 866.015,-457.536 870.523,-456.248 875.029,-454.907"/>
<polygon fill="#c50cf3" stroke="black" points="876.293,-458.181 884.833,-451.91 874.247,-451.486 876.293,-458.181"/>
</g>
<!-- telereddit_services_vreddit_service&#45;&gt;telereddit_services_services_wrapper -->
<g id="edge63" class="edge"><title>telereddit_services_vreddit_service&#45;&gt;telereddit_services_services_wrapper</title><style>.edge>path:hover{stroke-width:8}</style>
<path fill="none" stroke="black" d="M434.547,-423.228C442.219,-420.866 450.166,-418.464 457.654,-416.279 506.968,-401.888 563.255,-386.606 604.515,-375.614"/>
<polygon fill="#853399" stroke="black" points="605.638,-378.937 614.403,-372.985 603.839,-372.172 605.638,-378.937"/>
</g>
<!-- telereddit_helpers&#45;&gt;telereddit_reddit -->
<g id="edge43" class="edge"><title>telereddit_helpers&#45;&gt;telereddit_reddit</title><style>.edge>path:hover{stroke-width:8}</style>
<path fill="none" stroke="black" d="M865.061,-590.299C905.506,-588.928 979.35,-580.198 1020.65,-537.132 1051.88,-504.569 1044.65,-483.611 1044.65,-438.492 1044.65,-438.492 1044.65,-438.492 1044.65,-358.066 1044.65,-259.107 887.77,-245.178 814.068,-244.094"/>
<polygon fill="#b005db" stroke="black" points="813.851,-240.593 803.826,-244.019 813.8,-247.593 813.851,-240.593"/>
</g>
<!-- telereddit_helpers&#45;&gt;telereddit_linker -->
<g id="edge42" class="edge"><title>telereddit_helpers&#45;&gt;telereddit_linker</title><style>.edge>path:hover{stroke-width:8}</style>
<path fill="none" stroke="black" d="M864.949,-588.673C931.257,-584.705 1094.13,-571.611 1134.65,-537.132 1198.16,-483.098 1196.65,-443.447 1196.65,-360.066 1196.65,-360.066 1196.65,-360.066 1196.65,-300.853 1196.65,-262.943 1211.42,-221.217 1222.55,-195.169"/>
<polygon fill="#b005db" stroke="black" points="1225.76,-196.557 1226.59,-185.994 1219.36,-193.732 1225.76,-196.557"/>
</g>
<!-- telereddit_helpers&#45;&gt;telereddit_services_youtube_service -->
<g id="edge45" class="edge"><title>telereddit_helpers&#45;&gt;telereddit_services_youtube_service</title><style>.edge>path:hover{stroke-width:8}</style>
<path fill="none" stroke="black" d="M820.688,-576.138C791.681,-550.713 729.931,-496.587 693.097,-464.301"/>
<polygon fill="#b005db" stroke="black" points="695.02,-461.332 685.193,-457.372 690.406,-466.596 695.02,-461.332"/>
</g>
<!-- telereddit_helpers&#45;&gt;telereddit_services_vreddit_service -->
<g id="edge44" class="edge"><title>telereddit_helpers&#45;&gt;telereddit_services_vreddit_service</title><style>.edge>path:hover{stroke-width:8}</style>
<path fill="none" stroke="black" d="M808.526,-588.208C756.741,-583.943 643.487,-571.215 554.654,-537.132 506.319,-518.588 456.252,-485.618 424.811,-462.935"/>
<polygon fill="#b005db" stroke="black" points="426.593,-459.902 416.453,-456.83 422.464,-465.555 426.593,-459.902"/>
</g>
<!-- telereddit_helpers&#45;&gt;telereddit_tests_test_helpers -->
<g id="edge47" class="edge"><title>telereddit_helpers&#45;&gt;telereddit_tests_test_helpers</title><style>.edge>path:hover{stroke-width:8}</style>
<path fill="none" stroke="black" d="M808.787,-587.128C747.135,-580.263 594.66,-562.07 468.654,-537.132 345.311,-512.722 202.571,-473.861 128.716,-452.947"/>
<polygon fill="#b005db" stroke="black" points="129.337,-449.485 118.762,-450.118 127.424,-456.218 129.337,-449.485"/>
</g>
<!-- telereddit_helpers&#45;&gt;telereddit_telereddit -->
<g id="edge46" class="edge"><title>telereddit_helpers&#45;&gt;telereddit_telereddit</title><style>.edge>path:hover{stroke-width:8}</style>
<path fill="none" stroke="black" d="M865.169,-590.744C909.395,-590.156 994.816,-582.67 1046.65,-537.132 1131.13,-462.923 1139.65,-414.294 1139.65,-301.853 1139.65,-301.853 1139.65,-301.853 1139.65,-242.64 1139.65,-172.248 1223.32,-127.712 1273.6,-107.3"/>
<polygon fill="#b005db" stroke="black" points="1275.15,-110.452 1283.18,-103.539 1272.59,-103.936 1275.15,-110.452"/>
</g>
<!-- telereddit_services_generic_service&#45;&gt;telereddit_services_services_wrapper -->
<g id="edge53" class="edge"><title>telereddit_services_generic_service&#45;&gt;telereddit_services_services_wrapper</title><style>.edge>path:hover{stroke-width:8}</style>
<path fill="none" stroke="black" d="M556.623,-419.341C576.232,-408.481 601.799,-394.322 623.028,-382.565"/>
<polygon fill="#9238a8" stroke="black" points="624.777,-385.597 631.83,-377.69 621.386,-379.474 624.777,-385.597"/>
</g>
<!-- telereddit_services_imgur_service&#45;&gt;telereddit_services_services_wrapper -->
<g id="edge55" class="edge"><title>telereddit_services_imgur_service&#45;&gt;telereddit_services_services_wrapper</title><style>.edge>path:hover{stroke-width:8}</style>
<path fill="none" stroke="black" d="M884.387,-423.349C876.847,-420.952 869.02,-418.506 861.654,-416.279 835.493,-408.371 769.906,-389.845 721.347,-376.212"/>
<polygon fill="#7e3091" stroke="black" points="722.146,-372.801 711.572,-373.469 720.254,-379.541 722.146,-372.801"/>
</g>
<!-- telereddit_config_config -->
<g id="node26" class="node"><title>telereddit_config_config</title><style>.edge>path:hover{stroke-width:8}</style>
<ellipse fill="#c806f9" stroke="black" cx="968.654" cy="-738.345" rx="41.5911" ry="18"/>
<text text-anchor="middle" x="968.654" y="-735.845" font-family="Helvetica,sans-Serif" font-size="10.00" fill="#ffffff">config.config</text>
</g>
<!-- telereddit_config_config&#45;&gt;telereddit_services_gfycat_service -->
<g id="edge25" class="edge"><title>telereddit_config_config&#45;&gt;telereddit_services_gfycat_service</title><style>.edge>path:hover{stroke-width:8}</style>
<path fill="none" stroke="black" d="M958.97,-720.421C930.879,-671.328 849.139,-528.472 814.011,-467.08"/>
<polygon fill="#c806f9" stroke="black" points="816.987,-465.234 808.983,-458.293 810.912,-468.71 816.987,-465.234"/>
</g>
<!-- telereddit_config_config&#45;&gt;telereddit_reddit -->
<g id="edge24" class="edge"><title>telereddit_config_config&#45;&gt;telereddit_reddit</title><style>.edge>path:hover{stroke-width:8}</style>
<path fill="none" stroke="black" d="M935.723,-727.068C910.238,-717.94 875.113,-702.688 849.654,-681.132 809.285,-646.953 773.738,-619.243 799.654,-573.132 826.539,-525.295 1006.65,-493.367 1006.65,-438.492 1006.65,-438.492 1006.65,-438.492 1006.65,-358.066 1006.65,-273.085 878.792,-251.772 813.736,-246.427"/>
<polygon fill="#c806f9" stroke="black" points="813.717,-242.917 803.488,-245.675 813.205,-249.898 813.717,-242.917"/>
</g>
<!-- telereddit_config_config&#45;&gt;telereddit_linker -->
<g id="edge23" class="edge"><title>telereddit_config_config&#45;&gt;telereddit_linker</title><style>.edge>path:hover{stroke-width:8}</style>
<path fill="none" stroke="black" d="M1010.59,-738.059C1101.91,-737.205 1310.65,-721.143 1310.65,-592.132 1310.65,-592.132 1310.65,-592.132 1310.65,-358.066 1310.65,-295.188 1273.88,-228.504 1251.49,-193.738"/>
<polygon fill="#c806f9" stroke="black" points="1254.29,-191.632 1245.87,-185.208 1248.45,-195.484 1254.29,-191.632"/>
</g>
<!-- telereddit_config_config&#45;&gt;telereddit_helpers -->
<g id="edge22" class="edge"><title>telereddit_config_config&#45;&gt;telereddit_helpers</title><style>.edge>path:hover{stroke-width:8}</style>
<path fill="none" stroke="black" d="M940.85,-724.612C921.97,-714.857 897.472,-699.897 880.654,-681.132 864.369,-662.962 852.64,-637.673 845.408,-618.695"/>
<polygon fill="#c806f9" stroke="black" points="848.646,-617.357 841.944,-609.151 842.066,-619.745 848.646,-617.357"/>
</g>
<!-- telereddit_config_config&#45;&gt;telereddit_services_imgur_service -->
<g id="edge26" class="edge"><title>telereddit_config_config&#45;&gt;telereddit_services_imgur_service</title><style>.edge>path:hover{stroke-width:8}</style>
<path fill="none" stroke="black" d="M966.098,-719.986C958.885,-670.997 938.303,-531.201 929.144,-468.99"/>
<polygon fill="#c806f9" stroke="black" points="932.593,-468.388 927.674,-459.004 925.668,-469.408 932.593,-468.388"/>
</g>
<!-- telereddit_config_config&#45;&gt;telereddit_telereddit -->
<g id="edge27" class="edge"><title>telereddit_config_config&#45;&gt;telereddit_telereddit</title><style>.edge>path:hover{stroke-width:8}</style>
<path fill="none" stroke="black" d="M1010.68,-738.123C1075.82,-737.64 1203.46,-729.847 1297.65,-681.132 1347.34,-655.434 1386.65,-648.072 1386.65,-592.132 1386.65,-592.132 1386.65,-592.132 1386.65,-242.64 1386.65,-194.103 1354.06,-145.48 1331.56,-117.701"/>
<polygon fill="#c806f9" stroke="black" points="1334.04,-115.211 1324.95,-109.772 1328.66,-119.694 1334.04,-115.211"/>
</g>
<!-- telereddit_services -->
<g id="node27" class="node"><title>telereddit_services</title><style>.edge>path:hover{stroke-width:8}</style>
<ellipse fill="#cb10f9" stroke="black" cx="776.654" cy="-359.066" rx="30.7213" ry="18"/>
<text text-anchor="middle" x="776.654" y="-356.566" font-family="Helvetica,sans-Serif" font-size="10.00" fill="#ffffff">services</text>
</g>
<!-- telereddit_services&#45;&gt;telereddit_reddit -->
<g id="edge51" class="edge"><title>telereddit_services&#45;&gt;telereddit_reddit</title><style>.edge>path:hover{stroke-width:8}</style>
<path fill="none" stroke="black" d="M776.654,-340.839C776.654,-322.495 776.654,-293.21 776.654,-271.765"/>
<polygon fill="#cb10f9" stroke="black" points="780.154,-271.657 776.654,-261.657 773.154,-271.657 780.154,-271.657"/>
</g>
<!-- telereddit_services&#45;&gt;telereddit_tests_test_services -->
<g id="edge52" class="edge"><title>telereddit_services&#45;&gt;telereddit_tests_test_services</title><style>.edge>path:hover{stroke-width:8}</style>
<path fill="none" stroke="black" d="M755.022,-346.097C749.17,-343.148 742.763,-340.174 736.654,-337.853 634.855,-299.182 510.709,-270.435 440.057,-255.707"/>
<polygon fill="#cb10f9" stroke="black" points="440.531,-252.232 430.03,-253.637 439.116,-259.087 440.531,-252.232"/>
</g>
<!-- telereddit_telereddit&#45;&gt;telereddit___main__ -->
<g id="edge65" class="edge"><title>telereddit_telereddit&#45;&gt;telereddit___main__</title><style>.edge>path:hover{stroke-width:8}</style>
<path fill="none" stroke="black" d="M1310.65,-74.8627C1310.65,-66.3831 1310.65,-55.9765 1310.65,-46.4531"/>
<polygon fill="#632673" stroke="black" points="1314.15,-46.2259 1310.65,-36.226 1307.15,-46.226 1314.15,-46.2259"/>
</g>
<!-- telegram -->
<g id="node29" class="node"><title>telegram</title><style>.edge>path:hover{stroke-width:8}</style>
<polygon fill="#266ed9" stroke="black" points="1451.65,-991.411 1448.65,-995.411 1427.65,-995.411 1424.65,-991.411 1397.65,-991.411 1397.65,-955.411 1451.65,-955.411 1451.65,-991.411"/>
<text text-anchor="middle" x="1424.65" y="-970.911" font-family="Helvetica,sans-Serif" font-size="10.00" fill="#ffffff">telegram</text>
</g>
<!-- telegram&#45;&gt;telereddit_linker -->
<g id="edge14" class="edge"><title>telegram&#45;&gt;telereddit_linker</title><style>.edge>path:hover{stroke-width:8}</style>
<path fill="none" stroke="black" d="M1424.65,-955.128C1424.65,-926.978 1424.65,-869.475 1424.65,-820.772 1424.65,-820.772 1424.65,-820.772 1424.65,-436.492 1424.65,-324.033 1371.95,-302.061 1297.65,-217.64 1287.4,-205.992 1273.97,-195.259 1262.15,-186.891"/>
<polygon fill="#266ed9" stroke="black" points="1264.12,-183.998 1253.89,-181.237 1260.16,-189.774 1264.12,-183.998"/>
</g>
<!-- telegram&#45;&gt;telereddit_config_config -->
<g id="edge13" class="edge"><title>telegram&#45;&gt;telereddit_config_config</title><style>.edge>path:hover{stroke-width:8}</style>
<path fill="none" stroke="black" d="M1397.49,-958.53C1318.87,-918.345 1091.11,-801.935 1003.53,-757.173"/>
<polygon fill="#266ed9" stroke="black" points="1005.03,-754.007 994.533,-752.573 1001.84,-760.24 1005.03,-754.007"/>
</g>
<!-- telegram&#45;&gt;telereddit_telereddit -->
<g id="edge15" class="edge"><title>telegram&#45;&gt;telereddit_telereddit</title><style>.edge>path:hover{stroke-width:8}</style>
<path fill="none" stroke="black" d="M1444.59,-954.994C1472.18,-928.844 1518.65,-876.525 1518.65,-820.772 1518.65,-820.772 1518.65,-820.772 1518.65,-242.64 1518.65,-161.073 1411.36,-120.108 1350.89,-103.498"/>
<polygon fill="#266ed9" stroke="black" points="1351.46,-100.028 1340.9,-100.857 1349.67,-106.796 1351.46,-100.028"/>
</g>
</g>
</svg>
