<?xml version="1.0" encoding="UTF-8" standalone="no"?>
<!DOCTYPE svg PUBLIC "-//W3C//DTD SVG 1.1//EN"
 "http://www.w3.org/Graphics/SVG/1.1/DTD/svg11.dtd">
<!-- Generated by graphviz version 2.40.1 (20161225.0304)
 -->
<!-- Title: G Pages: 1 -->
<svg width="1249pt" height="774pt"
 viewBox="0.00 0.00 1249.08 773.98" xmlns="http://www.w3.org/2000/svg" xmlns:xlink="http://www.w3.org/1999/xlink">
<g id="graph0" class="graph" transform="scale(1 1) rotate(0) translate(4 769.9848)">
<title>G</title><style>.edge>path:hover{stroke-width:8}</style>
<polygon fill="#ffffff" stroke="transparent" points="-4,4 -4,-769.9848 1245.0833,-769.9848 1245.0833,4 -4,4"/>
<!-- telereddit___main__ -->
<g id="node1" class="node">
<title>telereddit___main__</title><style>.edge>path:hover{stroke-width:8}</style>
<ellipse fill="#ac4949" stroke="#000000" cx="126" cy="-18" rx="34.9638" ry="18"/>
<text text-anchor="middle" x="126" y="-15.5" font-family="Helvetica,sans-Serif" font-size="10.00" fill="#ffffff">__main__</text>
</g>
<!-- telereddit_config -->
<g id="node2" class="node">
<title>telereddit_config</title><style>.edge>path:hover{stroke-width:8}</style>
<ellipse fill="#f91010" stroke="#000000" cx="118" cy="-672.7716" rx="27" ry="18"/>
<text text-anchor="middle" x="118" y="-670.2716" font-family="Helvetica,sans-Serif" font-size="10.00" fill="#ffffff">config</text>
</g>
<!-- telereddit_helpers -->
<g id="node10" class="node">
<title>telereddit_helpers</title><style>.edge>path:hover{stroke-width:8}</style>
<ellipse fill="#e50505" stroke="#000000" cx="174" cy="-594.3452" rx="28.0137" ry="18"/>
<text text-anchor="middle" x="174" y="-591.8452" font-family="Helvetica,sans-Serif" font-size="10.00" fill="#ffffff">helpers</text>
</g>
<!-- telereddit_config&#45;&gt;telereddit_helpers -->
<g id="edge1" class="edge">
<title>telereddit_config&#45;&gt;telereddit_helpers</title><style>.edge>path:hover{stroke-width:8}</style>
<path fill="none" stroke="#000000" d="M129.8762,-656.1394C137.5234,-645.4297 147.6048,-631.311 156.2005,-619.2729"/>
<polygon fill="#f91010" stroke="#000000" points="159.1782,-621.1257 162.141,-610.9535 153.4814,-617.0579 159.1782,-621.1257"/>
</g>
<!-- telereddit_linker -->
<g id="node11" class="node">
<title>telereddit_linker</title><style>.edge>path:hover{stroke-width:8}</style>
<ellipse fill="#a13535" stroke="#000000" cx="99" cy="-168.4264" rx="27" ry="18"/>
<text text-anchor="middle" x="99" y="-165.9264" font-family="Helvetica,sans-Serif" font-size="10.00" fill="#ffffff">linker</text>
</g>
<!-- telereddit_config&#45;&gt;telereddit_linker -->
<g id="edge2" class="edge">
<title>telereddit_config&#45;&gt;telereddit_linker</title><style>.edge>path:hover{stroke-width:8}</style>
<path fill="none" stroke="#000000" d="M119.6113,-654.5773C120.6442,-638.5998 121.2544,-614.7836 118,-594.3452"/>
</g>
<!-- telereddit_reddit -->
<g id="node12" class="node">
<title>telereddit_reddit</title><style>.edge>path:hover{stroke-width:8}</style>
<ellipse fill="#9b2626" stroke="#000000" cx="596" cy="-243.6396" rx="27" ry="18"/>
<text text-anchor="middle" x="596" y="-241.1396" font-family="Helvetica,sans-Serif" font-size="10.00" fill="#ffffff">reddit</text>
</g>
<!-- telereddit_config&#45;&gt;telereddit_reddit -->
<g id="edge3" class="edge">
<title>telereddit_config&#45;&gt;telereddit_reddit</title><style>.edge>path:hover{stroke-width:8}</style>
<path fill="none" stroke="#000000" d="M230,-594.3452C242.3152,-561.7371 224.0528,-550.2639 230,-515.9188"/>
</g>
<!-- telereddit_services_gfycat_service -->
<g id="node15" class="node">
<title>telereddit_services_gfycat_service</title><style>.edge>path:hover{stroke-width:8}</style>
<ellipse fill="#993333" stroke="#000000" cx="731" cy="-437.4924" rx="56.6372" ry="21.4286"/>
<text text-anchor="middle" x="731" y="-440.4924" font-family="Helvetica,sans-Serif" font-size="10.00" fill="#ffffff">services.</text>
<text text-anchor="middle" x="731" y="-429.4924" font-family="Helvetica,sans-Serif" font-size="10.00" fill="#ffffff">gfycat_service</text>
</g>
<!-- telereddit_config&#45;&gt;telereddit_services_gfycat_service -->
<g id="edge4" class="edge">
<title>telereddit_config&#45;&gt;telereddit_services_gfycat_service</title><style>.edge>path:hover{stroke-width:8}</style>
<path fill="none" stroke="#000000" d="M144.9634,-671.7613C272.4162,-666.7469 810.6004,-642.8158 866,-594.3452"/>
<path fill="none" stroke="#000000" d="M866,-594.3452C892.2329,-571.3934 886.8467,-543.8539 866,-515.9188"/>
<path fill="none" stroke="#000000" d="M866,-515.9188C845.1725,-488.0094 811.2483,-468.3605 782.6185,-455.7102"/>
<polygon fill="#f91010" stroke="#000000" points="783.7115,-452.3719 773.1388,-451.6865 780.9765,-458.8155 783.7115,-452.3719"/>
</g>
<!-- telereddit_services_imgur_service -->
<g id="node16" class="node">
<title>telereddit_services_imgur_service</title><style>.edge>path:hover{stroke-width:8}</style>
<ellipse fill="#993333" stroke="#000000" cx="860" cy="-437.4924" rx="54.3945" ry="21.4286"/>
<text text-anchor="middle" x="860" y="-440.4924" font-family="Helvetica,sans-Serif" font-size="10.00" fill="#ffffff">services.</text>
<text text-anchor="middle" x="860" y="-429.4924" font-family="Helvetica,sans-Serif" font-size="10.00" fill="#ffffff">imgur_service</text>
</g>
<!-- telereddit_config&#45;&gt;telereddit_services_imgur_service -->
<g id="edge5" class="edge">
<title>telereddit_config&#45;&gt;telereddit_services_imgur_service</title><style>.edge>path:hover{stroke-width:8}</style>
<path fill="none" stroke="#000000" d="M866,-594.3452C895.1501,-568.8411 909.2819,-554.2893 904,-515.9188"/>
<path fill="none" stroke="#000000" d="M904,-515.9188C901.5317,-497.9876 892.2746,-480.2124 882.8841,-466.1297"/>
<polygon fill="#f91010" stroke="#000000" points="885.6928,-464.0392 877.0793,-457.87 879.9657,-468.0641 885.6928,-464.0392"/>
</g>
<!-- telereddit_telereddit -->
<g id="node21" class="node">
<title>telereddit_telereddit</title><style>.edge>path:hover{stroke-width:8}</style>
<ellipse fill="#a13535" stroke="#000000" cx="126" cy="-93.2132" rx="32.9303" ry="18"/>
<text text-anchor="middle" x="126" y="-90.7132" font-family="Helvetica,sans-Serif" font-size="10.00" fill="#ffffff">telereddit</text>
</g>
<!-- telereddit_config&#45;&gt;telereddit_telereddit -->
<g id="edge6" class="edge">
<title>telereddit_config&#45;&gt;telereddit_telereddit</title><style>.edge>path:hover{stroke-width:8}</style>
<path fill="none" stroke="#000000" d="M142.5996,-664.9472C171.031,-654.2938 215.7423,-632.0965 230,-594.3452"/>
<path fill="none" stroke="#000000" d="M230,-594.3452C239.2492,-569.8553 222.1762,-562.5713 216,-537.132 205.2533,-492.8671 192,-483.0432 192,-437.4924 192,-437.4924 192,-437.4924 192,-301.3528 192,-239.9078 198.0199,-211.2953 154,-168.4264"/>
</g>
<!-- telereddit_config_config -->
<g id="node3" class="node">
<title>telereddit_config_config</title><style>.edge>path:hover{stroke-width:8}</style>
<ellipse fill="#f91010" stroke="#000000" cx="484" cy="-747.9848" rx="42.2678" ry="18"/>
<text text-anchor="middle" x="484" y="-745.4848" font-family="Helvetica,sans-Serif" font-size="10.00" fill="#ffffff">config.config</text>
</g>
<!-- telereddit_config_config&#45;&gt;telereddit_helpers -->
<g id="edge7" class="edge">
<title>telereddit_config_config&#45;&gt;telereddit_helpers</title><style>.edge>path:hover{stroke-width:8}</style>
<path fill="none" stroke="#000000" d="M63,-672.7716C59.379,-660.6437 72.3062,-659.6964 82,-651.5584 100.855,-635.7297 124.4789,-621.1309 143.0665,-610.6421"/>
<polygon fill="#f91010" stroke="#000000" points="144.9552,-613.5971 152.009,-605.6917 141.5649,-607.4729 144.9552,-613.5971"/>
</g>
<!-- telereddit_config_config&#45;&gt;telereddit_linker -->
<g id="edge8" class="edge">
<title>telereddit_config_config&#45;&gt;telereddit_linker</title><style>.edge>path:hover{stroke-width:8}</style>
<path fill="none" stroke="#000000" d="M441.6167,-745.9856C351.4414,-741.1427 143.7665,-726.6891 82,-693.9848 70.8143,-688.0622 66.621,-684.8995 63,-672.7716"/>
<path fill="none" stroke="#000000" d="M63,-672.7716C50.8203,-631.9778 124.6947,-636.3889 118,-594.3452"/>
<path fill="none" stroke="#000000" d="M118,-594.3452C106.2638,-520.64 48.7128,-527.1698 19,-458.7056 1.0521,-417.3501 0,-404.1482 0,-359.066 0,-359.066 0,-359.066 0,-301.3528 0,-253.1642 42.3665,-211.138 71.6693,-187.8337"/>
<polygon fill="#f91010" stroke="#000000" points="74.1206,-190.3638 79.9118,-181.4918 69.8519,-184.8159 74.1206,-190.3638"/>
</g>
<!-- telereddit_config_config&#45;&gt;telereddit_reddit -->
<g id="edge9" class="edge">
<title>telereddit_config_config&#45;&gt;telereddit_reddit</title><style>.edge>path:hover{stroke-width:8}</style>
<path fill="none" stroke="#000000" d="M904,-594.3452C943.8324,-527.9063 1019.6607,-504.034 980,-437.4924"/>
<path fill="none" stroke="#000000" d="M980,-437.4924C973.5804,-424.7859 968.9146,-422.2692 956,-416.2792 855.3606,-369.6009 806.7502,-432.7392 709,-380.2792 686.6953,-368.3089 691.2031,-353.1048 671,-337.8528 641.4133,-315.5168 589.2868,-337.8111 596,-301.3528"/>
</g>
<!-- telereddit_config_config&#45;&gt;telereddit_services_gfycat_service -->
<g id="edge10" class="edge">
<title>telereddit_config_config&#45;&gt;telereddit_services_gfycat_service</title><style>.edge>path:hover{stroke-width:8}</style>
<path fill="none" stroke="#000000" d="M524.3169,-741.9364C628.2395,-725.216 897.5885,-674.2541 904,-594.3452"/>
<path fill="none" stroke="#000000" d="M904,-594.3452C923.9162,-561.1258 889.1649,-546.9604 866,-515.9188"/>
</g>
<!-- telereddit_config_config&#45;&gt;telereddit_services_imgur_service -->
<g id="edge11" class="edge">
<title>telereddit_config_config&#45;&gt;telereddit_services_imgur_service</title><style>.edge>path:hover{stroke-width:8}</style>
<path fill="none" stroke="#000000" d="M904,-594.3452C921.9231,-564.4502 908.7533,-550.4494 904,-515.9188"/>
</g>
<!-- telereddit_config_config&#45;&gt;telereddit_telereddit -->
<g id="edge12" class="edge">
<title>telereddit_config_config&#45;&gt;telereddit_telereddit</title><style>.edge>path:hover{stroke-width:8}</style>
<path fill="none" stroke="#000000" d="M980,-437.4924C917.764,-314.3078 884.2083,-273.5185 756,-222.4264 631.2277,-172.7036 250.2029,-262.1574 154,-168.4264"/>
</g>
<!-- telereddit_config_secret -->
<g id="node4" class="node">
<title>telereddit_config_secret</title><style>.edge>path:hover{stroke-width:8}</style>
<ellipse fill="#e72222" stroke="#000000" cx="1087" cy="-747.9848" rx="42.9448" ry="18"/>
<text text-anchor="middle" x="1087" y="-745.4848" font-family="Helvetica,sans-Serif" font-size="10.00" fill="#ffffff">config.secret</text>
</g>
<!-- telereddit_config_secret_dev -->
<g id="node5" class="node">
<title>telereddit_config_secret_dev</title><style>.edge>path:hover{stroke-width:8}</style>
<ellipse fill="#bc2f2f" stroke="#000000" cx="1148" cy="-672.7716" rx="45.9239" ry="21.4286"/>
<text text-anchor="middle" x="1148" y="-675.7716" font-family="Helvetica,sans-Serif" font-size="10.00" fill="#ffffff">config.</text>
<text text-anchor="middle" x="1148" y="-664.7716" font-family="Helvetica,sans-Serif" font-size="10.00" fill="#ffffff">secret_dev</text>
</g>
<!-- telereddit_config_secret&#45;&gt;telereddit_config_secret_dev -->
<g id="edge13" class="edge">
<title>telereddit_config_secret&#45;&gt;telereddit_config_secret_dev</title><style>.edge>path:hover{stroke-width:8}</style>
<path fill="none" stroke="#000000" d="M1100.8418,-730.9178C1108.1089,-721.9575 1117.1959,-710.7532 1125.4483,-700.5779"/>
<polygon fill="#e72222" stroke="#000000" points="1128.2563,-702.6721 1131.837,-692.7007 1122.8196,-698.2628 1128.2563,-702.6721"/>
</g>
<!-- telereddit_config_secret_generic -->
<g id="node6" class="node">
<title>telereddit_config_secret_generic</title><style>.edge>path:hover{stroke-width:8}</style>
<ellipse fill="#a44646" stroke="#000000" cx="1027" cy="-672.7716" rx="56.6372" ry="21.4286"/>
<text text-anchor="middle" x="1027" y="-675.7716" font-family="Helvetica,sans-Serif" font-size="10.00" fill="#ffffff">config.</text>
<text text-anchor="middle" x="1027" y="-664.7716" font-family="Helvetica,sans-Serif" font-size="10.00" fill="#ffffff">secret_generic</text>
</g>
<!-- telereddit_config_secret&#45;&gt;telereddit_config_secret_generic -->
<g id="edge14" class="edge">
<title>telereddit_config_secret&#45;&gt;telereddit_config_secret_generic</title><style>.edge>path:hover{stroke-width:8}</style>
<path fill="none" stroke="#000000" d="M1073.084,-730.5404C1066.1603,-721.8612 1057.6139,-711.1478 1049.769,-701.3138"/>
<polygon fill="#e72222" stroke="#000000" points="1052.3675,-698.9587 1043.3953,-693.324 1046.8954,-703.324 1052.3675,-698.9587"/>
</g>
<!-- telereddit_config_secret_github -->
<g id="node7" class="node">
<title>telereddit_config_secret_github</title><style>.edge>path:hover{stroke-width:8}</style>
<ellipse fill="#9d4343" stroke="#000000" cx="1015" cy="-594.3452" rx="53.066" ry="21.4286"/>
<text text-anchor="middle" x="1015" y="-597.3452" font-family="Helvetica,sans-Serif" font-size="10.00" fill="#ffffff">config.</text>
<text text-anchor="middle" x="1015" y="-586.3452" font-family="Helvetica,sans-Serif" font-size="10.00" fill="#ffffff">secret_github</text>
</g>
<!-- telereddit_config_secret&#45;&gt;telereddit_config_secret_github -->
<g id="edge15" class="edge">
<title>telereddit_config_secret&#45;&gt;telereddit_config_secret_github</title><style>.edge>path:hover{stroke-width:8}</style>
<path fill="none" stroke="#000000" d="M1045.9744,-742.3166C1016.8548,-735.9169 979.7349,-722.397 961,-693.9848 950.6198,-678.2429 954.0364,-669.0817 961,-651.5584 965.65,-639.8572 973.9536,-629.1641 982.6764,-620.2704"/>
<polygon fill="#e72222" stroke="#000000" points="985.2207,-622.6802 990.0311,-613.2404 980.3839,-617.62 985.2207,-622.6802"/>
</g>
<!-- telereddit_config_secret_prod -->
<g id="node8" class="node">
<title>telereddit_config_secret_prod</title><style>.edge>path:hover{stroke-width:8}</style>
<ellipse fill="#9d4343" stroke="#000000" cx="1193" cy="-594.3452" rx="48.1667" ry="21.4286"/>
<text text-anchor="middle" x="1193" y="-597.3452" font-family="Helvetica,sans-Serif" font-size="10.00" fill="#ffffff">config.</text>
<text text-anchor="middle" x="1193" y="-586.3452" font-family="Helvetica,sans-Serif" font-size="10.00" fill="#ffffff">secret_prod</text>
</g>
<!-- telereddit_config_secret&#45;&gt;telereddit_config_secret_prod -->
<g id="edge16" class="edge">
<title>telereddit_config_secret&#45;&gt;telereddit_config_secret_prod</title><style>.edge>path:hover{stroke-width:8}</style>
<path fill="none" stroke="#000000" d="M1126.5697,-740.9236C1153.1566,-733.9001 1186.2816,-720.2087 1203,-693.9848 1216.0113,-673.5758 1211.9135,-645.8968 1205.4672,-624.8908"/>
<polygon fill="#e72222" stroke="#000000" points="1208.7003,-623.5257 1202.1787,-615.1759 1202.0698,-625.7702 1208.7003,-623.5257"/>
</g>
<!-- telereddit_config_secret_dev&#45;&gt;telereddit_config_secret_github -->
<g id="edge17" class="edge">
<title>telereddit_config_secret_dev&#45;&gt;telereddit_config_secret_github</title><style>.edge>path:hover{stroke-width:8}</style>
<path fill="none" stroke="#000000" d="M1119.4682,-655.9472C1100.2336,-644.6051 1074.6258,-629.5049 1053.578,-617.0936"/>
<polygon fill="#bc2f2f" stroke="#000000" points="1055.2603,-614.0224 1044.8685,-611.9579 1051.7046,-620.0522 1055.2603,-614.0224"/>
</g>
<!-- telereddit_config_secret_dev&#45;&gt;telereddit_config_secret_prod -->
<g id="edge18" class="edge">
<title>telereddit_config_secret_dev&#45;&gt;telereddit_config_secret_prod</title><style>.edge>path:hover{stroke-width:8}</style>
<path fill="none" stroke="#000000" d="M1159.8232,-652.166C1164.7961,-643.4992 1170.6749,-633.2536 1176.092,-623.8127"/>
<polygon fill="#bc2f2f" stroke="#000000" points="1179.1584,-625.501 1181.0995,-615.0855 1173.0869,-622.0173 1179.1584,-625.501"/>
</g>
<!-- telereddit_content_type -->
<g id="node9" class="node">
<title>telereddit_content_type</title><style>.edge>path:hover{stroke-width:8}</style>
<ellipse fill="#f91010" stroke="#000000" cx="663" cy="-594.3452" rx="42.9448" ry="18"/>
<text text-anchor="middle" x="663" y="-591.8452" font-family="Helvetica,sans-Serif" font-size="10.00" fill="#ffffff">content_type</text>
</g>
<!-- telereddit_content_type&#45;&gt;telereddit_reddit -->
<g id="edge19" class="edge">
<title>telereddit_content_type&#45;&gt;telereddit_reddit</title><style>.edge>path:hover{stroke-width:8}</style>
<path fill="none" stroke="#000000" d="M621.1638,-590.084C537.4625,-580.7884 353.3506,-556.2333 306,-515.9188"/>
<path fill="none" stroke="#000000" d="M306,-515.9188C269.043,-484.4535 215.737,-483.887 230,-437.4924"/>
</g>
<!-- telereddit_services_generic_service -->
<g id="node14" class="node">
<title>telereddit_services_generic_service</title><style>.edge>path:hover{stroke-width:8}</style>
<ellipse fill="#a83838" stroke="#000000" cx="596" cy="-437.4924" rx="60.2083" ry="21.4286"/>
<text text-anchor="middle" x="596" y="-440.4924" font-family="Helvetica,sans-Serif" font-size="10.00" fill="#ffffff">services.</text>
<text text-anchor="middle" x="596" y="-429.4924" font-family="Helvetica,sans-Serif" font-size="10.00" fill="#ffffff">generic_service</text>
</g>
<!-- telereddit_content_type&#45;&gt;telereddit_services_generic_service -->
<g id="edge20" class="edge">
<title>telereddit_content_type&#45;&gt;telereddit_services_generic_service</title><style>.edge>path:hover{stroke-width:8}</style>
<path fill="none" stroke="#000000" d="M562,-515.9188C550.3406,-500.9727 558.7811,-481.4164 570.1662,-465.5715"/>
<polygon fill="#f91010" stroke="#000000" points="572.9333,-467.7147 576.2974,-457.6681 567.4024,-463.424 572.9333,-467.7147"/>
</g>
<!-- telereddit_content_type&#45;&gt;telereddit_services_gfycat_service -->
<g id="edge21" class="edge">
<title>telereddit_content_type&#45;&gt;telereddit_services_gfycat_service</title><style>.edge>path:hover{stroke-width:8}</style>
<path fill="none" stroke="#000000" d="M693.6243,-581.7127C720.3792,-569.0582 758.1146,-546.9885 779,-515.9188"/>
<path fill="none" stroke="#000000" d="M779,-515.9188C790.4035,-498.9547 778.3905,-479.3399 763.5332,-463.9703"/>
<polygon fill="#f91010" stroke="#000000" points="765.7269,-461.2233 756.1012,-456.7964 760.8654,-466.2597 765.7269,-461.2233"/>
</g>
<!-- telereddit_content_type&#45;&gt;telereddit_services_imgur_service -->
<g id="edge22" class="edge">
<title>telereddit_content_type&#45;&gt;telereddit_services_imgur_service</title><style>.edge>path:hover{stroke-width:8}</style>
<path fill="none" stroke="#000000" d="M779,-515.9188C792.3258,-496.095 811.3527,-477.3499 827.6174,-463.1597"/>
<polygon fill="#f91010" stroke="#000000" points="830.0028,-465.7253 835.3429,-456.5747 825.462,-460.398 830.0028,-465.7253"/>
</g>
<!-- telereddit_services_vreddit_service -->
<g id="node19" class="node">
<title>telereddit_services_vreddit_service</title><style>.edge>path:hover{stroke-width:8}</style>
<ellipse fill="#a13535" stroke="#000000" cx="459" cy="-437.4924" rx="58.8803" ry="21.4286"/>
<text text-anchor="middle" x="459" y="-440.4924" font-family="Helvetica,sans-Serif" font-size="10.00" fill="#ffffff">services.</text>
<text text-anchor="middle" x="459" y="-429.4924" font-family="Helvetica,sans-Serif" font-size="10.00" fill="#ffffff">vreddit_service</text>
</g>
<!-- telereddit_content_type&#45;&gt;telereddit_services_vreddit_service -->
<g id="edge23" class="edge">
<title>telereddit_content_type&#45;&gt;telereddit_services_vreddit_service</title><style>.edge>path:hover{stroke-width:8}</style>
<path fill="none" stroke="#000000" d="M638.5915,-579.4412C621.6862,-568.6214 599.0638,-553.1288 581,-537.132 571.5245,-528.7408 569.785,-525.8984 562,-515.9188"/>
<path fill="none" stroke="#000000" d="M562,-515.9188C544.9443,-494.0553 520.4052,-475.05 499.5572,-461.226"/>
<polygon fill="#f91010" stroke="#000000" points="501.1807,-458.1082 490.8808,-455.6254 497.3843,-463.9893 501.1807,-458.1082"/>
</g>
<!-- telereddit_services_youtube_service -->
<g id="node20" class="node">
<title>telereddit_services_youtube_service</title><style>.edge>path:hover{stroke-width:8}</style>
<ellipse fill="#a13535" stroke="#000000" cx="320" cy="-437.4924" rx="62.4516" ry="21.4286"/>
<text text-anchor="middle" x="320" y="-440.4924" font-family="Helvetica,sans-Serif" font-size="10.00" fill="#ffffff">services.</text>
<text text-anchor="middle" x="320" y="-429.4924" font-family="Helvetica,sans-Serif" font-size="10.00" fill="#ffffff">youtube_service</text>
</g>
<!-- telereddit_content_type&#45;&gt;telereddit_services_youtube_service -->
<g id="edge24" class="edge">
<title>telereddit_content_type&#45;&gt;telereddit_services_youtube_service</title><style>.edge>path:hover{stroke-width:8}</style>
<path fill="none" stroke="#000000" d="M306,-515.9188C292.4429,-504.3763 296.061,-484.6103 303.0088,-467.8103"/>
<polygon fill="#f91010" stroke="#000000" points="306.3643,-468.8922 307.3796,-458.3461 300.0093,-465.9572 306.3643,-468.8922"/>
</g>
<!-- telereddit_tests_test_reddit -->
<g id="node23" class="node">
<title>telereddit_tests_test_reddit</title><style>.edge>path:hover{stroke-width:8}</style>
<ellipse fill="#a44646" stroke="#000000" cx="1018" cy="-93.2132" rx="43.6818" ry="21.4286"/>
<text text-anchor="middle" x="1018" y="-96.2132" font-family="Helvetica,sans-Serif" font-size="10.00" fill="#ffffff">tests.</text>
<text text-anchor="middle" x="1018" y="-85.2132" font-family="Helvetica,sans-Serif" font-size="10.00" fill="#ffffff">test_reddit</text>
</g>
<!-- telereddit_content_type&#45;&gt;telereddit_tests_test_reddit -->
<g id="edge25" class="edge">
<title>telereddit_content_type&#45;&gt;telereddit_tests_test_reddit</title><style>.edge>path:hover{stroke-width:8}</style>
<path fill="none" stroke="#000000" d="M942,-437.4924C961.5521,-314.7765 946.3873,-269.9799 1018,-168.4264"/>
</g>
<!-- telereddit_tests_test_services -->
<g id="node24" class="node">
<title>telereddit_tests_test_services</title><style>.edge>path:hover{stroke-width:8}</style>
<ellipse fill="#9d4343" stroke="#000000" cx="694" cy="-243.6396" rx="53.066" ry="21.4286"/>
<text text-anchor="middle" x="694" y="-246.6396" font-family="Helvetica,sans-Serif" font-size="10.00" fill="#ffffff">tests.</text>
<text text-anchor="middle" x="694" y="-235.6396" font-family="Helvetica,sans-Serif" font-size="10.00" fill="#ffffff">test_services</text>
</g>
<!-- telereddit_content_type&#45;&gt;telereddit_tests_test_services -->
<g id="edge26" class="edge">
<title>telereddit_content_type&#45;&gt;telereddit_tests_test_services</title><style>.edge>path:hover{stroke-width:8}</style>
<path fill="none" stroke="#000000" d="M705.1077,-590.2632C769.5345,-583.1607 888.254,-566.416 918,-537.132 950.4604,-505.1759 931.8108,-481.889 942,-437.4924"/>
<path fill="none" stroke="#000000" d="M942,-437.4924C958.1424,-387.7713 811.6474,-304.0985 736.5882,-264.99"/>
<polygon fill="#f91010" stroke="#000000" points="737.8581,-261.7065 727.3677,-260.2228 734.6432,-267.9246 737.8581,-261.7065"/>
</g>
<!-- telereddit_helpers&#45;&gt;telereddit_linker -->
<g id="edge27" class="edge">
<title>telereddit_helpers&#45;&gt;telereddit_linker</title><style>.edge>path:hover{stroke-width:8}</style>
<path fill="none" stroke="#000000" d="M154,-515.9188C112.1618,-402.3684 175.1008,-362.7987 154,-243.6396"/>
<path fill="none" stroke="#000000" d="M154,-243.6396C149.4571,-223.1777 135.4234,-204.1613 122.6699,-190.3688"/>
<polygon fill="#e50505" stroke="#000000" points="124.8702,-187.611 115.3902,-182.8803 119.8509,-192.4903 124.8702,-187.611"/>
</g>
<!-- telereddit_helpers&#45;&gt;telereddit_reddit -->
<g id="edge28" class="edge">
<title>telereddit_helpers&#45;&gt;telereddit_reddit</title><style>.edge>path:hover{stroke-width:8}</style>
<path fill="none" stroke="#000000" d="M190.9206,-579.5659C205.7261,-565.1328 225.5469,-541.6357 230,-515.9188"/>
<path fill="none" stroke="#000000" d="M230,-515.9188C235.9472,-481.5737 219.7573,-470.8097 230,-437.4924"/>
<path fill="none" stroke="#000000" d="M230,-437.4924C233.7193,-425.3943 238.4137,-423.2166 249,-416.2792 265.9854,-405.1484 589.3635,-320.5454 596,-301.3528"/>
<path fill="none" stroke="#000000" d="M596,-301.3528C597.7534,-291.8306 598.183,-281.2739 598.0385,-271.8204"/>
<polygon fill="#e50505" stroke="#000000" points="601.5328,-271.5959 597.6713,-261.7298 594.5374,-271.8505 601.5328,-271.5959"/>
</g>
<!-- telereddit_helpers&#45;&gt;telereddit_services_vreddit_service -->
<g id="edge29" class="edge">
<title>telereddit_helpers&#45;&gt;telereddit_services_vreddit_service</title><style>.edge>path:hover{stroke-width:8}</style>
<path fill="none" stroke="#000000" d="M195.9705,-582.5495C202.3485,-579.317 209.3801,-575.9346 216,-573.132 261.043,-554.0631 276.56,-559.6144 320,-537.132 359.6693,-516.6012 400.7162,-485.7917 427.8227,-463.8739"/>
<polygon fill="#e50505" stroke="#000000" points="430.2422,-466.4167 435.7705,-457.3785 425.8126,-460.9965 430.2422,-466.4167"/>
</g>
<!-- telereddit_helpers&#45;&gt;telereddit_services_youtube_service -->
<g id="edge30" class="edge">
<title>telereddit_helpers&#45;&gt;telereddit_services_youtube_service</title><style>.edge>path:hover{stroke-width:8}</style>
<path fill="none" stroke="#000000" d="M192.8428,-580.8578C207.5429,-569.8981 228.0708,-553.6058 244,-537.132 265.1726,-515.2356 285.9172,-487.489 300.3697,-466.8394"/>
<polygon fill="#e50505" stroke="#000000" points="303.3537,-468.6779 306.1613,-458.4618 297.5957,-464.6972 303.3537,-468.6779"/>
</g>
<!-- telereddit_helpers&#45;&gt;telereddit_telereddit -->
<g id="edge31" class="edge">
<title>telereddit_helpers&#45;&gt;telereddit_telereddit</title><style>.edge>path:hover{stroke-width:8}</style>
<path fill="none" stroke="#000000" d="M154,-243.6396C146.7548,-211.0061 177.9483,-191.7484 154,-168.4264"/>
<path fill="none" stroke="#000000" d="M154,-168.4264C141.1443,-155.9068 134.137,-136.9482 130.3473,-121.1978"/>
<polygon fill="#e50505" stroke="#000000" points="133.7726,-120.4782 128.2924,-111.4108 126.9219,-121.9166 133.7726,-120.4782"/>
</g>
<!-- telereddit_tests_test_helpers -->
<g id="node22" class="node">
<title>telereddit_tests_test_helpers</title><style>.edge>path:hover{stroke-width:8}</style>
<ellipse fill="#ac4949" stroke="#000000" cx="77" cy="-437.4924" rx="49.4949" ry="21.4286"/>
<text text-anchor="middle" x="77" y="-440.4924" font-family="Helvetica,sans-Serif" font-size="10.00" fill="#ffffff">tests.</text>
<text text-anchor="middle" x="77" y="-429.4924" font-family="Helvetica,sans-Serif" font-size="10.00" fill="#ffffff">test_helpers</text>
</g>
<!-- telereddit_helpers&#45;&gt;telereddit_tests_test_helpers -->
<g id="edge32" class="edge">
<title>telereddit_helpers&#45;&gt;telereddit_tests_test_helpers</title><style>.edge>path:hover{stroke-width:8}</style>
<path fill="none" stroke="#000000" d="M170.5021,-576.271C167.125,-560.1651 161.4328,-536.0918 154,-515.9188"/>
<path fill="none" stroke="#000000" d="M154,-515.9188C146.0063,-494.2236 128.3289,-475.4957 111.9258,-461.7867"/>
<polygon fill="#e50505" stroke="#000000" points="114.0199,-458.9799 104.0237,-455.4689 109.6487,-464.4473 114.0199,-458.9799"/>
</g>
<!-- telereddit_linker&#45;&gt;telereddit_telereddit -->
<g id="edge33" class="edge">
<title>telereddit_linker&#45;&gt;telereddit_telereddit</title><style>.edge>path:hover{stroke-width:8}</style>
<path fill="none" stroke="#000000" d="M105.3986,-150.6019C108.6266,-141.6097 112.6119,-130.508 116.2145,-120.4724"/>
<polygon fill="#a13535" stroke="#000000" points="119.5627,-121.5042 119.6473,-110.9097 112.9744,-119.1391 119.5627,-121.5042"/>
</g>
<!-- telereddit_reddit&#45;&gt;telereddit_linker -->
<g id="edge34" class="edge">
<title>telereddit_reddit&#45;&gt;telereddit_linker</title><style>.edge>path:hover{stroke-width:8}</style>
<path fill="none" stroke="#000000" d="M569.0019,-242.9569C497.643,-240.5773 298.6323,-230.2015 140,-186.4264 136.7777,-185.5372 133.4811,-184.4389 130.2262,-183.2268"/>
<polygon fill="#9b2626" stroke="#000000" points="131.2833,-179.8781 120.7019,-179.3444 128.641,-186.3603 131.2833,-179.8781"/>
</g>
<!-- telereddit_reddit&#45;&gt;telereddit_tests_test_reddit -->
<g id="edge35" class="edge">
<title>telereddit_reddit&#45;&gt;telereddit_tests_test_reddit</title><style>.edge>path:hover{stroke-width:8}</style>
<path fill="none" stroke="#000000" d="M615.1241,-230.4983C620.3928,-227.4081 626.2466,-224.4341 632,-222.4264 713.7773,-193.8903 968.0852,-239.2102 1018,-168.4264"/>
<path fill="none" stroke="#000000" d="M1018,-168.4264C1026.8409,-155.8892 1027.5672,-139.0185 1025.7649,-124.4323"/>
<polygon fill="#9b2626" stroke="#000000" points="1029.1751,-123.6019 1024.0855,-114.3096 1022.2695,-124.7477 1029.1751,-123.6019"/>
</g>
<!-- telereddit_services -->
<g id="node13" class="node">
<title>telereddit_services</title><style>.edge>path:hover{stroke-width:8}</style>
<ellipse fill="#f91010" stroke="#000000" cx="749" cy="-359.066" rx="31.3996" ry="18"/>
<text text-anchor="middle" x="749" y="-356.566" font-family="Helvetica,sans-Serif" font-size="10.00" fill="#ffffff">services</text>
</g>
<!-- telereddit_services&#45;&gt;telereddit_reddit -->
<g id="edge36" class="edge">
<title>telereddit_services&#45;&gt;telereddit_reddit</title><style>.edge>path:hover{stroke-width:8}</style>
<path fill="none" stroke="#000000" d="M733.3388,-343.1287C722.194,-331.6681 706.96,-315.7582 694,-301.3528"/>
<path fill="none" stroke="#000000" d="M694,-301.3528C694,-301.3528 654.1115,-277.8621 625.2311,-260.8541"/>
<polygon fill="#f91010" stroke="#000000" points="626.6986,-257.6565 616.3057,-255.5978 623.1464,-263.6883 626.6986,-257.6565"/>
</g>
<!-- telereddit_services&#45;&gt;telereddit_tests_test_services -->
<g id="edge37" class="edge">
<title>telereddit_services&#45;&gt;telereddit_tests_test_services</title><style>.edge>path:hover{stroke-width:8}</style>
<path fill="none" stroke="#000000" d="M694,-301.3528C687.6022,-294.2415 685.9763,-284.4079 686.4528,-274.8713"/>
<polygon fill="#f91010" stroke="#000000" points="689.9469,-275.1295 687.6687,-264.7825 682.9972,-274.2919 689.9469,-275.1295"/>
</g>
<!-- telereddit_services_services_wrapper -->
<g id="node18" class="node">
<title>telereddit_services_services_wrapper</title><style>.edge>path:hover{stroke-width:8}</style>
<ellipse fill="#9b2626" stroke="#000000" cx="596" cy="-359.066" rx="65.5227" ry="21.4286"/>
<text text-anchor="middle" x="596" y="-362.066" font-family="Helvetica,sans-Serif" font-size="10.00" fill="#ffffff">services.</text>
<text text-anchor="middle" x="596" y="-351.066" font-family="Helvetica,sans-Serif" font-size="10.00" fill="#ffffff">services_wrapper</text>
</g>
<!-- telereddit_services_generic_service&#45;&gt;telereddit_services_services_wrapper -->
<g id="edge38" class="edge">
<title>telereddit_services_generic_service&#45;&gt;telereddit_services_services_wrapper</title><style>.edge>path:hover{stroke-width:8}</style>
<path fill="none" stroke="#000000" d="M596,-416.0621C596,-408.1948 596,-399.1159 596,-390.5495"/>
<polygon fill="#a83838" stroke="#000000" points="599.5001,-390.4704 596,-380.4705 592.5001,-390.4705 599.5001,-390.4704"/>
</g>
<!-- telereddit_services_gfycat_service&#45;&gt;telereddit_services_services_wrapper -->
<g id="edge39" class="edge">
<title>telereddit_services_gfycat_service&#45;&gt;telereddit_services_services_wrapper</title><style>.edge>path:hover{stroke-width:8}</style>
<path fill="none" stroke="#000000" d="M700.0283,-419.4998C681.3126,-408.6272 657.2356,-394.64 636.959,-382.8606"/>
<polygon fill="#993333" stroke="#000000" points="638.6416,-379.7904 628.2367,-377.7935 635.1253,-385.8431 638.6416,-379.7904"/>
</g>
<!-- telereddit_services_imgur_service&#45;&gt;telereddit_services_services_wrapper -->
<g id="edge40" class="edge">
<title>telereddit_services_imgur_service&#45;&gt;telereddit_services_services_wrapper</title><style>.edge>path:hover{stroke-width:8}</style>
<path fill="none" stroke="#000000" d="M819.086,-423.4022C811.7518,-420.966 804.1642,-418.5036 797,-416.2792 750.0436,-401.6998 696.4765,-386.5236 656.4557,-375.4678"/>
<polygon fill="#993333" stroke="#000000" points="657.1555,-372.0303 646.585,-372.7487 655.2963,-378.7789 657.1555,-372.0303"/>
</g>
<!-- telereddit_services_service -->
<g id="node17" class="node">
<title>telereddit_services_service</title><style>.edge>path:hover{stroke-width:8}</style>
<ellipse fill="#f31616" stroke="#000000" cx="630" cy="-515.9188" rx="39.6962" ry="21.4286"/>
<text text-anchor="middle" x="630" y="-518.9188" font-family="Helvetica,sans-Serif" font-size="10.00" fill="#ffffff">services.</text>
<text text-anchor="middle" x="630" y="-507.9188" font-family="Helvetica,sans-Serif" font-size="10.00" fill="#ffffff">service</text>
</g>
<!-- telereddit_services_service&#45;&gt;telereddit_services_generic_service -->
<g id="edge41" class="edge">
<title>telereddit_services_service&#45;&gt;telereddit_services_generic_service</title><style>.edge>path:hover{stroke-width:8}</style>
<path fill="none" stroke="#000000" d="M620.8886,-494.902C617.3062,-486.6385 613.1232,-476.9897 609.2201,-467.9868"/>
<polygon fill="#f31616" stroke="#000000" points="612.3254,-466.35 605.1365,-458.5673 605.9029,-469.1344 612.3254,-466.35"/>
</g>
<!-- telereddit_services_service&#45;&gt;telereddit_services_gfycat_service -->
<g id="edge42" class="edge">
<title>telereddit_services_service&#45;&gt;telereddit_services_gfycat_service</title><style>.edge>path:hover{stroke-width:8}</style>
<path fill="none" stroke="#000000" d="M652.6664,-498.3184C666.1123,-487.8776 683.3868,-474.4641 698.2908,-462.8911"/>
<polygon fill="#f31616" stroke="#000000" points="700.5357,-465.5792 706.2876,-456.6816 696.2425,-460.0503 700.5357,-465.5792"/>
</g>
<!-- telereddit_services_service&#45;&gt;telereddit_services_imgur_service -->
<g id="edge43" class="edge">
<title>telereddit_services_service&#45;&gt;telereddit_services_imgur_service</title><style>.edge>path:hover{stroke-width:8}</style>
<path fill="none" stroke="#000000" d="M663.444,-504.515C701.6677,-491.4813 764.6577,-470.0026 809.0091,-454.8795"/>
<polygon fill="#f31616" stroke="#000000" points="810.3981,-458.1039 818.7333,-451.5637 808.1388,-451.4784 810.3981,-458.1039"/>
</g>
<!-- telereddit_services_service&#45;&gt;telereddit_services_vreddit_service -->
<g id="edge44" class="edge">
<title>telereddit_services_service&#45;&gt;telereddit_services_vreddit_service</title><style>.edge>path:hover{stroke-width:8}</style>
<path fill="none" stroke="#000000" d="M599.8223,-502.0783C573.5211,-490.0157 534.9801,-472.3395 504.8642,-458.5273"/>
<polygon fill="#f31616" stroke="#000000" points="505.9573,-455.1781 495.4086,-454.1906 503.0391,-461.5409 505.9573,-455.1781"/>
</g>
<!-- telereddit_services_service&#45;&gt;telereddit_services_youtube_service -->
<g id="edge45" class="edge">
<title>telereddit_services_service&#45;&gt;telereddit_services_youtube_service</title><style>.edge>path:hover{stroke-width:8}</style>
<path fill="none" stroke="#000000" d="M598.9252,-502.5982C591.5031,-499.7284 583.5434,-496.9014 576,-494.7056 495.5734,-471.295 472.3384,-478.7195 391,-458.7056 386.0519,-457.4881 380.9353,-456.1395 375.8208,-454.7296"/>
<polygon fill="#f31616" stroke="#000000" points="376.6077,-451.3149 366.0326,-451.9608 374.7024,-458.0506 376.6077,-451.3149"/>
</g>
<!-- telereddit_services_services_wrapper&#45;&gt;telereddit_reddit -->
<g id="edge46" class="edge">
<title>telereddit_services_services_wrapper&#45;&gt;telereddit_reddit</title><style>.edge>path:hover{stroke-width:8}</style>
<path fill="none" stroke="#000000" d="M592.7164,-337.6779C591.8179,-326.5545 592.0052,-312.9056 596,-301.3528"/>
</g>
<!-- telereddit_services_services_wrapper&#45;&gt;telereddit_tests_test_services -->
<g id="edge47" class="edge">
<title>telereddit_services_services_wrapper&#45;&gt;telereddit_tests_test_services</title><style>.edge>path:hover{stroke-width:8}</style>
<path fill="none" stroke="#000000" d="M613.5204,-338.4301C629.268,-319.8823 652.5379,-292.4745 670.0107,-271.8947"/>
<polygon fill="#9b2626" stroke="#000000" points="672.8271,-273.9852 676.6312,-264.0969 667.491,-269.4547 672.8271,-273.9852"/>
</g>
<!-- telereddit_services_vreddit_service&#45;&gt;telereddit_services_services_wrapper -->
<g id="edge48" class="edge">
<title>telereddit_services_vreddit_service&#45;&gt;telereddit_services_services_wrapper</title><style>.edge>path:hover{stroke-width:8}</style>
<path fill="none" stroke="#000000" d="M490.4306,-419.4998C509.4235,-408.6272 533.8573,-394.64 554.4342,-382.8606"/>
<polygon fill="#a13535" stroke="#000000" points="556.346,-385.7991 563.2857,-377.7935 552.8683,-379.7241 556.346,-385.7991"/>
</g>
<!-- telereddit_services_youtube_service&#45;&gt;telereddit_services_services_wrapper -->
<g id="edge49" class="edge">
<title>telereddit_services_youtube_service&#45;&gt;telereddit_services_services_wrapper</title><style>.edge>path:hover{stroke-width:8}</style>
<path fill="none" stroke="#000000" d="M366.9399,-423.3368C374.9597,-420.9558 383.2136,-418.5288 391,-416.2792 439.6999,-402.2095 495.0761,-386.7889 535.9873,-375.5059"/>
<polygon fill="#a13535" stroke="#000000" points="537.0889,-378.8329 545.8001,-372.8024 535.2296,-372.0843 537.0889,-378.8329"/>
</g>
<!-- telereddit_telereddit&#45;&gt;telereddit___main__ -->
<g id="edge50" class="edge">
<title>telereddit_telereddit&#45;&gt;telereddit___main__</title><style>.edge>path:hover{stroke-width:8}</style>
<path fill="none" stroke="#000000" d="M126,-75.0062C126,-66.3219 126,-55.737 126,-46.0563"/>
<polygon fill="#a13535" stroke="#000000" points="129.5001,-46.0393 126,-36.0393 122.5001,-46.0394 129.5001,-46.0393"/>
</g>
</g>
</svg>
