<?xml version="1.0" encoding="UTF-8" standalone="no"?>
<!DOCTYPE svg PUBLIC "-//W3C//DTD SVG 1.1//EN"
 "http://www.w3.org/Graphics/SVG/1.1/DTD/svg11.dtd">
<!-- Generated by graphviz version 2.38.0 (20140413.2041)
 -->
<!-- Title: G Pages: 1 -->
<svg width="1873pt" height="999pt"
 viewBox="0.00 0.00 1872.91 999.41" xmlns="http://www.w3.org/2000/svg" xmlns:xlink="http://www.w3.org/1999/xlink">
<g id="graph0" class="graph" transform="scale(1 1) rotate(0) translate(4 995.411)">
<title>G</title><style>.edge>path:hover{stroke-width:8}</style>
<polygon fill="white" stroke="none" points="-4,4 -4,-995.411 1868.91,-995.411 1868.91,4 -4,4"/>
<g id="clust1" class="cluster"><title>cluster_parameterized</title><style>.edge>path:hover{stroke-width:8}</style>
<polygon fill="none" stroke="black" points="8,-637.132 8,-790.558 138,-790.558 138,-637.132 8,-637.132"/>
<text text-anchor="middle" x="73" y="-775.358" font-family="Times New Roman,serif" font-size="14.00">parameterized</text>
</g>
<g id="clust3" class="cluster"><title>cluster_sentrysdk</title><style>.edge>path:hover{stroke-width:8}</style>
<polygon fill="none" stroke="black" points="1421,-217.64 1421,-292.64 1513,-292.64 1513,-217.64 1421,-217.64"/>
<text text-anchor="middle" x="1467" y="-277.44" font-family="Times New Roman,serif" font-size="14.00">sentrysdk</text>
</g>
<g id="clust2" class="cluster"><title>cluster_requests</title><style>.edge>path:hover{stroke-width:8}</style>
<polygon fill="none" stroke="black" points="703,-712.345 703,-787.345 783,-787.345 783,-712.345 703,-712.345"/>
<text text-anchor="middle" x="743" y="-772.145" font-family="Times New Roman,serif" font-size="14.00">requests</text>
</g>
<!-- parameterized_parameterized -->
<g id="node1" class="node"><title>parameterized_parameterized</title><style>.edge>path:hover{stroke-width:8}</style>
<ellipse fill="#ce3b3b" stroke="black" cx="73" cy="-738.345" rx="57.0522" ry="21.4286"/>
<text text-anchor="middle" x="73" y="-741.345" font-family="Helvetica,sans-Serif" font-size="10.00" fill="#ffffff">parameterized.</text>
<text text-anchor="middle" x="73" y="-730.345" font-family="Helvetica,sans-Serif" font-size="10.00" fill="#ffffff">parameterized</text>
</g>
<!-- parameterized -->
<g id="node2" class="node"><title>parameterized</title><style>.edge>path:hover{stroke-width:8}</style>
<ellipse fill="#c04040" stroke="black" cx="62" cy="-663.132" rx="45.8316" ry="18"/>
<text text-anchor="middle" x="62" y="-660.632" font-family="Helvetica,sans-Serif" font-size="10.00" fill="#ffffff">parameterized</text>
</g>
<!-- parameterized_parameterized&#45;&gt;parameterized -->
<g id="edge3" class="edge"><title>parameterized_parameterized&#45;&gt;parameterized</title><style>.edge>path:hover{stroke-width:8}</style>
<path fill="none" stroke="black" d="M69.9359,-716.951C68.7559,-709.097 67.3884,-699.996 66.1244,-691.583"/>
<polygon fill="#000000" stroke="black" points="69.5478,-690.811 64.6007,-681.442 62.6255,-691.851 69.5478,-690.811"/>
</g>
<!-- telereddit_tests_test_helpers -->
<g id="node7" class="node"><title>telereddit_tests_test_helpers</title><style>.edge>path:hover{stroke-width:8}</style>
<ellipse fill="#8b439d" stroke="black" cx="131" cy="-437.492" rx="49.4949" ry="21.4286"/>
<text text-anchor="middle" x="131" y="-440.492" font-family="Helvetica,sans-Serif" font-size="10.00" fill="#ffffff">tests.</text>
<text text-anchor="middle" x="131" y="-429.492" font-family="Helvetica,sans-Serif" font-size="10.00" fill="#ffffff">test_helpers</text>
</g>
<!-- parameterized_parameterized&#45;&gt;telereddit_tests_test_helpers -->
<g id="edge4" class="edge"><title>parameterized_parameterized&#45;&gt;telereddit_tests_test_helpers</title><style>.edge>path:hover{stroke-width:8}</style>
<path fill="none" stroke="black" d="M129.462,-637.442C142.473,-574.8 138.785,-507.057 134.904,-468.99"/>
<polygon fill="#000000" stroke="black" points="138.358,-468.382 133.789,-458.823 131.4,-469.145 138.358,-468.382"/>
</g>
<!-- telereddit_tests_test_services -->
<g id="node12" class="node"><title>telereddit_tests_test_services</title><style>.edge>path:hover{stroke-width:8}</style>
<ellipse fill="#7e3d8f" stroke="black" cx="590" cy="-243.64" rx="52.1524" ry="21.4286"/>
<text text-anchor="middle" x="590" y="-246.64" font-family="Helvetica,sans-Serif" font-size="10.00" fill="#ffffff">tests.</text>
<text text-anchor="middle" x="590" y="-235.64" font-family="Helvetica,sans-Serif" font-size="10.00" fill="#ffffff">test_services</text>
</g>
<!-- parameterized_parameterized&#45;&gt;telereddit_tests_test_services -->
<g id="edge5" class="edge"><title>parameterized_parameterized&#45;&gt;telereddit_tests_test_services</title><style>.edge>path:hover{stroke-width:8}</style>
<path fill="none" stroke="black" d="M138,-681.132C207.189,-578.012 148.052,-512.134 227,-416.279 306.477,-319.783 452.734,-274.254 533.21,-255.638"/>
<polygon fill="#000000" stroke="black" points="534.179,-259.008 543.165,-253.395 532.64,-252.179 534.179,-259.008"/>
</g>
<!-- parameterized&#45;&gt;telereddit_tests_test_helpers -->
<g id="edge1" class="edge"><title>parameterized&#45;&gt;telereddit_tests_test_helpers</title><style>.edge>path:hover{stroke-width:8}</style>
<path fill="none" stroke="black" d="M69.6793,-637.242C82.4683,-595.791 108.078,-512.785 121.807,-468.288"/>
<polygon fill="#000000" stroke="black" points="125.196,-469.174 124.8,-458.587 118.508,-467.11 125.196,-469.174"/>
</g>
<!-- parameterized&#45;&gt;telereddit_tests_test_services -->
<g id="edge2" class="edge"><title>parameterized&#45;&gt;telereddit_tests_test_services</title><style>.edge>path:hover{stroke-width:8}</style>
<path fill="none" stroke="black" d="M59.8135,-637.483C57.4448,-608.612 54,-559.334 54,-516.919 54,-516.919 54,-516.919 54,-358.066 54,-262.256 385.937,-246.997 527.378,-244.845"/>
<polygon fill="#000000" stroke="black" points="527.678,-248.341 537.63,-244.707 527.584,-241.342 527.678,-248.341"/>
</g>
<!-- requests -->
<g id="node3" class="node"><title>requests</title><style>.edge>path:hover{stroke-width:8}</style>
<ellipse fill="#c8f906" stroke="black" cx="743" cy="-738.345" rx="31.577" ry="18"/>
<text text-anchor="middle" x="743" y="-735.845" font-family="Helvetica,sans-Serif" font-size="10.00" fill="#000000">requests</text>
</g>
<!-- telereddit_services_imgur_service -->
<g id="node6" class="node"><title>telereddit_services_imgur_service</title><style>.edge>path:hover{stroke-width:8}</style>
<ellipse fill="#7e3091" stroke="black" cx="290" cy="-437.492" rx="53.9813" ry="21.4286"/>
<text text-anchor="middle" x="290" y="-440.492" font-family="Helvetica,sans-Serif" font-size="10.00" fill="#ffffff">services.</text>
<text text-anchor="middle" x="290" y="-429.492" font-family="Helvetica,sans-Serif" font-size="10.00" fill="#ffffff">imgur_service</text>
</g>
<!-- requests&#45;&gt;telereddit_services_imgur_service -->
<g id="edge9" class="edge"><title>requests&#45;&gt;telereddit_services_imgur_service</title><style>.edge>path:hover{stroke-width:8}</style>
<path fill="none" stroke="black" d="M703.376,-735.533C595.761,-730.209 304.219,-712.952 276,-681.132 223.244,-621.644 255.739,-518.266 276.566,-467.842"/>
<polygon fill="#000000" stroke="black" points="279.849,-469.064 280.547,-458.493 273.409,-466.322 279.849,-469.064"/>
</g>
<!-- telereddit_helpers -->
<g id="node13" class="node"><title>telereddit_helpers</title><style>.edge>path:hover{stroke-width:8}</style>
<ellipse fill="#b005db" stroke="black" cx="1001" cy="-591.132" rx="28.0137" ry="18"/>
<text text-anchor="middle" x="1001" y="-588.632" font-family="Helvetica,sans-Serif" font-size="10.00" fill="#ffffff">helpers</text>
</g>
<!-- requests&#45;&gt;telereddit_helpers -->
<g id="edge6" class="edge"><title>requests&#45;&gt;telereddit_helpers</title><style>.edge>path:hover{stroke-width:8}</style>
<path fill="none" stroke="black" d="M782.69,-724.573C811.442,-714.574 850.762,-699.335 883,-681.132 918.024,-661.356 954.398,-632.43 977.337,-612.974"/>
<polygon fill="#000000" stroke="black" points="979.842,-615.436 985.153,-606.269 975.284,-610.124 979.842,-615.436"/>
</g>
<!-- telereddit_services_vreddit_service -->
<g id="node23" class="node"><title>telereddit_services_vreddit_service</title><style>.edge>path:hover{stroke-width:8}</style>
<ellipse fill="#853399" stroke="black" cx="457" cy="-437.492" rx="56.6372" ry="21.4286"/>
<text text-anchor="middle" x="457" y="-440.492" font-family="Helvetica,sans-Serif" font-size="10.00" fill="#ffffff">services.</text>
<text text-anchor="middle" x="457" y="-429.492" font-family="Helvetica,sans-Serif" font-size="10.00" fill="#ffffff">vreddit_service</text>
</g>
<!-- requests&#45;&gt;telereddit_services_vreddit_service -->
<g id="edge11" class="edge"><title>requests&#45;&gt;telereddit_services_vreddit_service</title><style>.edge>path:hover{stroke-width:8}</style>
<path fill="none" stroke="black" d="M703.345,-720.512C642.407,-692.356 527.122,-629.549 473,-537.132 460.906,-516.48 457.2,-489.442 456.354,-468.897"/>
<polygon fill="#000000" stroke="black" points="459.851,-468.739 456.143,-458.814 452.853,-468.885 459.851,-468.739"/>
</g>
<!-- telereddit_services_service -->
<g id="node25" class="node"><title>telereddit_services_service</title><style>.edge>path:hover{stroke-width:8}</style>
<ellipse fill="#c50cf3" stroke="black" cx="590" cy="-515.919" rx="38.7821" ry="21.4286"/>
<text text-anchor="middle" x="590" y="-518.919" font-family="Helvetica,sans-Serif" font-size="10.00" fill="#ffffff">services.</text>
<text text-anchor="middle" x="590" y="-507.919" font-family="Helvetica,sans-Serif" font-size="10.00" fill="#ffffff">service</text>
</g>
<!-- requests&#45;&gt;telereddit_services_service -->
<g id="edge10" class="edge"><title>requests&#45;&gt;telereddit_services_service</title><style>.edge>path:hover{stroke-width:8}</style>
<path fill="none" stroke="black" d="M719.618,-712.476C696.875,-687.542 662.165,-647.45 637,-609.132 623.728,-588.924 611.425,-564.486 602.737,-545.846"/>
<polygon fill="#000000" stroke="black" points="605.885,-544.314 598.538,-536.68 599.521,-547.229 605.885,-544.314"/>
</g>
<!-- telereddit_services_gfycat_service -->
<g id="node27" class="node"><title>telereddit_services_gfycat_service</title><style>.edge>path:hover{stroke-width:8}</style>
<ellipse fill="#7e3091" stroke="black" cx="938" cy="-437.492" rx="55.3091" ry="21.4286"/>
<text text-anchor="middle" x="938" y="-440.492" font-family="Helvetica,sans-Serif" font-size="10.00" fill="#ffffff">services.</text>
<text text-anchor="middle" x="938" y="-429.492" font-family="Helvetica,sans-Serif" font-size="10.00" fill="#ffffff">gfycat_service</text>
</g>
<!-- requests&#45;&gt;telereddit_services_gfycat_service -->
<g id="edge8" class="edge"><title>requests&#45;&gt;telereddit_services_gfycat_service</title><style>.edge>path:hover{stroke-width:8}</style>
<path fill="none" stroke="black" d="M759.31,-712.349C795.32,-657.16 881.433,-525.186 919.437,-466.942"/>
<polygon fill="#000000" stroke="black" points="922.436,-468.751 924.969,-458.463 916.573,-464.925 922.436,-468.751"/>
</g>
<!-- telereddit_reddit -->
<g id="node28" class="node"><title>telereddit_reddit</title><style>.edge>path:hover{stroke-width:8}</style>
<ellipse fill="#7d2493" stroke="black" cx="1021" cy="-243.64" rx="27" ry="18"/>
<text text-anchor="middle" x="1021" y="-241.14" font-family="Helvetica,sans-Serif" font-size="10.00" fill="#ffffff">reddit</text>
</g>
<!-- requests&#45;&gt;telereddit_reddit -->
<g id="edge7" class="edge"><title>requests&#45;&gt;telereddit_reddit</title><style>.edge>path:hover{stroke-width:8}</style>
<path fill="none" stroke="black" d="M782.795,-735.953C871.684,-732.182 1083.18,-719.341 1142,-681.132 1173.65,-660.576 1176.6,-645.406 1187,-609.132 1226.19,-472.483 1096.91,-321.626 1043.25,-266.407"/>
<polygon fill="#000000" stroke="black" points="1045.43,-263.628 1035.91,-258.967 1040.45,-268.544 1045.43,-263.628"/>
</g>
<!-- sentry_sdk -->
<g id="node4" class="node"><title>sentry_sdk</title><style>.edge>path:hover{stroke-width:8}</style>
<ellipse fill="#40c073" stroke="black" cx="1467" cy="-243.64" rx="38.0276" ry="18"/>
<text text-anchor="middle" x="1467" y="-241.14" font-family="Helvetica,sans-Serif" font-size="10.00" fill="#000000">sentry_sdk</text>
</g>
<!-- telereddit_telereddit -->
<g id="node5" class="node"><title>telereddit_telereddit</title><style>.edge>path:hover{stroke-width:8}</style>
<ellipse fill="#632673" stroke="black" cx="1287" cy="-93.2132" rx="32.9303" ry="18"/>
<text text-anchor="middle" x="1287" y="-90.7132" font-family="Helvetica,sans-Serif" font-size="10.00" fill="#ffffff">telereddit</text>
</g>
<!-- sentry_sdk&#45;&gt;telereddit_telereddit -->
<g id="edge12" class="edge"><title>sentry_sdk&#45;&gt;telereddit_telereddit</title><style>.edge>path:hover{stroke-width:8}</style>
<path fill="none" stroke="black" d="M1458.38,-218.39C1450.05,-197.94 1435.63,-169.099 1415,-150.426 1389.76,-127.582 1353.75,-112.895 1326.35,-104.284"/>
<polygon fill="#000000" stroke="black" points="1327.26,-100.905 1316.68,-101.383 1325.25,-107.609 1327.26,-100.905"/>
</g>
<!-- telereddit___main__ -->
<g id="node11" class="node"><title>telereddit___main__</title><style>.edge>path:hover{stroke-width:8}</style>
<ellipse fill="#9849ac" stroke="black" cx="1287" cy="-18" rx="34.9638" ry="18"/>
<text text-anchor="middle" x="1287" y="-15.5" font-family="Helvetica,sans-Serif" font-size="10.00" fill="#ffffff">__main__</text>
</g>
<!-- telereddit_telereddit&#45;&gt;telereddit___main__ -->
<g id="edge65" class="edge"><title>telereddit_telereddit&#45;&gt;telereddit___main__</title><style>.edge>path:hover{stroke-width:8}</style>
<path fill="none" stroke="black" d="M1287,-74.8627C1287,-66.3831 1287,-55.9765 1287,-46.4531"/>
<polygon fill="#632673" stroke="black" points="1290.5,-46.2259 1287,-36.226 1283.5,-46.226 1290.5,-46.2259"/>
</g>
<!-- telereddit_services_services_wrapper -->
<g id="node8" class="node"><title>telereddit_services_services_wrapper</title><style>.edge>path:hover{stroke-width:8}</style>
<ellipse fill="#84269b" stroke="black" cx="590" cy="-359.066" rx="64.1938" ry="21.4286"/>
<text text-anchor="middle" x="590" y="-362.066" font-family="Helvetica,sans-Serif" font-size="10.00" fill="#ffffff">services.</text>
<text text-anchor="middle" x="590" y="-351.066" font-family="Helvetica,sans-Serif" font-size="10.00" fill="#ffffff">services_wrapper</text>
</g>
<!-- telereddit_services_imgur_service&#45;&gt;telereddit_services_services_wrapper -->
<g id="edge55" class="edge"><title>telereddit_services_imgur_service&#45;&gt;telereddit_services_services_wrapper</title><style>.edge>path:hover{stroke-width:8}</style>
<path fill="none" stroke="black" d="M334.266,-425.215C386.343,-411.949 473.016,-389.868 530.825,-375.141"/>
<polygon fill="#7e3091" stroke="black" points="531.729,-378.523 540.556,-372.662 530.001,-371.739 531.729,-378.523"/>
</g>
<!-- telereddit_services_services_wrapper&#45;&gt;telereddit_tests_test_services -->
<g id="edge62" class="edge"><title>telereddit_services_services_wrapper&#45;&gt;telereddit_tests_test_services</title><style>.edge>path:hover{stroke-width:8}</style>
<path fill="none" stroke="black" d="M590,-337.788C590,-320.395 590,-295.074 590,-275.221"/>
<polygon fill="#84269b" stroke="black" points="593.5,-275.125 590,-265.125 586.5,-275.125 593.5,-275.125"/>
</g>
<!-- telereddit_services_services_wrapper&#45;&gt;telereddit_reddit -->
<g id="edge61" class="edge"><title>telereddit_services_services_wrapper&#45;&gt;telereddit_reddit</title><style>.edge>path:hover{stroke-width:8}</style>
<path fill="none" stroke="black" d="M639.022,-345.165C727.104,-321.984 910.061,-273.836 986.387,-253.749"/>
<polygon fill="#84269b" stroke="black" points="987.648,-257.036 996.428,-251.106 985.866,-250.267 987.648,-257.036"/>
</g>
<!-- telereddit_config_config -->
<g id="node9" class="node"><title>telereddit_config_config</title><style>.edge>path:hover{stroke-width:8}</style>
<ellipse fill="#c806f9" stroke="black" cx="1287" cy="-738.345" rx="41.5911" ry="18"/>
<text text-anchor="middle" x="1287" y="-735.845" font-family="Helvetica,sans-Serif" font-size="10.00" fill="#ffffff">config.config</text>
</g>
<!-- telereddit_config_config&#45;&gt;telereddit_telereddit -->
<g id="edge27" class="edge"><title>telereddit_config_config&#45;&gt;telereddit_telereddit</title><style>.edge>path:hover{stroke-width:8}</style>
<path fill="none" stroke="black" d="M1309.52,-722.964C1342.75,-699.787 1401,-650.786 1401,-592.132 1401,-592.132 1401,-592.132 1401,-242.64 1401,-186.627 1349.3,-138.745 1315.54,-113.444"/>
<polygon fill="#c806f9" stroke="black" points="1317.53,-110.562 1307.38,-107.507 1313.41,-116.222 1317.53,-110.562"/>
</g>
<!-- telereddit_config_config&#45;&gt;telereddit_services_imgur_service -->
<g id="edge26" class="edge"><title>telereddit_config_config&#45;&gt;telereddit_services_imgur_service</title><style>.edge>path:hover{stroke-width:8}</style>
<path fill="none" stroke="black" d="M1245.31,-736.607C1119.34,-733.226 732.958,-714.356 435,-609.132 375.271,-588.039 349.335,-588.303 312,-537.132 297.58,-517.368 292.341,-489.869 290.561,-468.925"/>
<polygon fill="#c806f9" stroke="black" points="294.054,-468.698 289.927,-458.94 287.068,-469.142 294.054,-468.698"/>
</g>
<!-- telereddit_config_config&#45;&gt;telereddit_helpers -->
<g id="edge22" class="edge"><title>telereddit_config_config&#45;&gt;telereddit_helpers</title><style>.edge>path:hover{stroke-width:8}</style>
<path fill="none" stroke="black" d="M1245.82,-734.606C1199.63,-729.831 1124.12,-716.772 1070,-681.132 1045.65,-665.092 1026.25,-637.531 1014.3,-617.318"/>
<polygon fill="#c806f9" stroke="black" points="1017.33,-615.573 1009.34,-608.616 1011.25,-619.038 1017.33,-615.573"/>
</g>
<!-- telereddit_linker -->
<g id="node24" class="node"><title>telereddit_linker</title><style>.edge>path:hover{stroke-width:8}</style>
<ellipse fill="#853399" stroke="black" cx="1287" cy="-168.426" rx="27" ry="18"/>
<text text-anchor="middle" x="1287" y="-165.926" font-family="Helvetica,sans-Serif" font-size="10.00" fill="#ffffff">linker</text>
</g>
<!-- telereddit_config_config&#45;&gt;telereddit_linker -->
<g id="edge23" class="edge"><title>telereddit_config_config&#45;&gt;telereddit_linker</title><style>.edge>path:hover{stroke-width:8}</style>
<path fill="none" stroke="black" d="M1294.51,-720.289C1305.58,-693.534 1325,-639.821 1325,-592.132 1325,-592.132 1325,-592.132 1325,-300.853 1325,-262.943 1310.23,-221.217 1299.11,-195.169"/>
<polygon fill="#c806f9" stroke="black" points="1302.3,-193.732 1295.06,-185.994 1295.89,-196.557 1302.3,-193.732"/>
</g>
<!-- telereddit_config_config&#45;&gt;telereddit_services_gfycat_service -->
<g id="edge25" class="edge"><title>telereddit_config_config&#45;&gt;telereddit_services_gfycat_service</title><style>.edge>path:hover{stroke-width:8}</style>
<path fill="none" stroke="black" d="M1245.21,-736.688C1190.61,-734.07 1093.74,-723.253 1024,-681.132 988.344,-659.598 981.098,-647.116 964,-609.132 943.377,-563.318 938.615,-504.324 937.784,-469.063"/>
<polygon fill="#c806f9" stroke="black" points="941.282,-468.872 937.639,-458.923 934.283,-468.972 941.282,-468.872"/>
</g>
<!-- telereddit_config_config&#45;&gt;telereddit_reddit -->
<g id="edge24" class="edge"><title>telereddit_config_config&#45;&gt;telereddit_reddit</title><style>.edge>path:hover{stroke-width:8}</style>
<path fill="none" stroke="black" d="M1286.22,-720.185C1284.45,-689.884 1279,-625.184 1263,-573.132 1228.87,-462.062 1216.98,-432.087 1149,-337.853 1123.46,-302.447 1080.35,-275.097 1051.29,-259.434"/>
<polygon fill="#c806f9" stroke="black" points="1052.88,-256.312 1042.39,-254.763 1049.62,-262.51 1052.88,-256.312"/>
</g>
<!-- telereddit_tests_test_reddit -->
<g id="node10" class="node"><title>telereddit_tests_test_reddit</title><style>.edge>path:hover{stroke-width:8}</style>
<ellipse fill="#9246a4" stroke="black" cx="868" cy="-93.2132" rx="43.6818" ry="21.4286"/>
<text text-anchor="middle" x="868" y="-96.2132" font-family="Helvetica,sans-Serif" font-size="10.00" fill="#ffffff">tests.</text>
<text text-anchor="middle" x="868" y="-85.2132" font-family="Helvetica,sans-Serif" font-size="10.00" fill="#ffffff">test_reddit</text>
</g>
<!-- telereddit_helpers&#45;&gt;telereddit_telereddit -->
<g id="edge46" class="edge"><title>telereddit_helpers&#45;&gt;telereddit_telereddit</title><style>.edge>path:hover{stroke-width:8}</style>
<path fill="none" stroke="black" d="M1010.53,-573.76C1016.31,-563.453 1023.59,-549.756 1029,-537.132 1100.47,-370.492 1036.65,-284.247 1159,-150.426 1182.05,-125.22 1218.43,-110.74 1246.53,-102.81"/>
<polygon fill="#b005db" stroke="black" points="1247.69,-106.122 1256.46,-100.177 1245.9,-99.3552 1247.69,-106.122"/>
</g>
<!-- telereddit_helpers&#45;&gt;telereddit_tests_test_helpers -->
<g id="edge47" class="edge"><title>telereddit_helpers&#45;&gt;telereddit_tests_test_helpers</title><style>.edge>path:hover{stroke-width:8}</style>
<path fill="none" stroke="black" d="M972.978,-588.658C896.88,-584.331 680.201,-569.855 503,-537.132 385.266,-515.39 250.094,-475.758 179.576,-453.932"/>
<polygon fill="#b005db" stroke="black" points="180.239,-450.473 169.651,-450.846 178.161,-457.158 180.239,-450.473"/>
</g>
<!-- telereddit_services_youtube_service -->
<g id="node14" class="node"><title>telereddit_services_youtube_service</title><style>.edge>path:hover{stroke-width:8}</style>
<ellipse fill="#8b35a1" stroke="black" cx="728" cy="-437.492" rx="60.623" ry="21.4286"/>
<text text-anchor="middle" x="728" y="-440.492" font-family="Helvetica,sans-Serif" font-size="10.00" fill="#ffffff">services.</text>
<text text-anchor="middle" x="728" y="-429.492" font-family="Helvetica,sans-Serif" font-size="10.00" fill="#ffffff">youtube_service</text>
</g>
<!-- telereddit_helpers&#45;&gt;telereddit_services_youtube_service -->
<g id="edge45" class="edge"><title>telereddit_helpers&#45;&gt;telereddit_services_youtube_service</title><style>.edge>path:hover{stroke-width:8}</style>
<path fill="none" stroke="black" d="M980.481,-578.734C935.517,-553.759 827.607,-493.82 768.461,-460.967"/>
<polygon fill="#b005db" stroke="black" points="769.845,-457.732 759.404,-455.936 766.446,-463.851 769.845,-457.732"/>
</g>
<!-- telereddit_helpers&#45;&gt;telereddit_services_vreddit_service -->
<g id="edge44" class="edge"><title>telereddit_helpers&#45;&gt;telereddit_services_vreddit_service</title><style>.edge>path:hover{stroke-width:8}</style>
<path fill="none" stroke="black" d="M973.022,-588.122C879.271,-581.221 579.968,-557.775 542,-537.132 520.524,-525.456 522.903,-513.269 507,-494.706 498.785,-485.116 489.643,-474.752 481.447,-465.567"/>
<polygon fill="#b005db" stroke="black" points="483.813,-462.962 474.534,-457.847 478.598,-467.632 483.813,-462.962"/>
</g>
<!-- telereddit_helpers&#45;&gt;telereddit_linker -->
<g id="edge42" class="edge"><title>telereddit_helpers&#45;&gt;telereddit_linker</title><style>.edge>path:hover{stroke-width:8}</style>
<path fill="none" stroke="black" d="M1021.39,-578.325C1036.86,-568.657 1057.96,-553.878 1073,-537.132 1173.48,-425.233 1249.5,-258.731 1276.4,-195.266"/>
<polygon fill="#b005db" stroke="black" points="1279.65,-196.564 1280.3,-185.989 1273.2,-193.855 1279.65,-196.564"/>
</g>
<!-- telereddit_helpers&#45;&gt;telereddit_reddit -->
<g id="edge43" class="edge"><title>telereddit_helpers&#45;&gt;telereddit_reddit</title><style>.edge>path:hover{stroke-width:8}</style>
<path fill="none" stroke="black" d="M1004.76,-572.946C1010.56,-544.933 1021,-487.618 1021,-438.492 1021,-438.492 1021,-438.492 1021,-358.066 1021,-328.656 1021,-294.957 1021,-271.983"/>
<polygon fill="#b005db" stroke="black" points="1024.5,-271.934 1021,-261.934 1017.5,-271.934 1024.5,-271.934"/>
</g>
<!-- telereddit_services_youtube_service&#45;&gt;telereddit_services_services_wrapper -->
<g id="edge64" class="edge"><title>telereddit_services_youtube_service&#45;&gt;telereddit_services_services_wrapper</title><style>.edge>path:hover{stroke-width:8}</style>
<path fill="none" stroke="black" d="M696.686,-419.15C677.063,-408.283 651.576,-394.167 630.433,-382.459"/>
<polygon fill="#8b35a1" stroke="black" points="632.112,-379.387 621.668,-377.604 628.72,-385.511 632.112,-379.387"/>
</g>
<!-- telereddit_config -->
<g id="node15" class="node"><title>telereddit_config</title><style>.edge>path:hover{stroke-width:8}</style>
<ellipse fill="#cb10f9" stroke="black" cx="1106" cy="-663.132" rx="27" ry="18"/>
<text text-anchor="middle" x="1106" y="-660.632" font-family="Helvetica,sans-Serif" font-size="10.00" fill="#ffffff">config</text>
</g>
<!-- telereddit_config&#45;&gt;telereddit_telereddit -->
<g id="edge21" class="edge"><title>telereddit_config&#45;&gt;telereddit_telereddit</title><style>.edge>path:hover{stroke-width:8}</style>
<path fill="none" stroke="black" d="M1111.37,-645.455C1127.27,-594.545 1173,-436.411 1173,-301.853 1173,-301.853 1173,-301.853 1173,-242.64 1173,-186.627 1224.7,-138.745 1258.46,-113.444"/>
<polygon fill="#cb10f9" stroke="black" points="1260.59,-116.222 1266.62,-107.507 1256.47,-110.562 1260.59,-116.222"/>
</g>
<!-- telereddit_config&#45;&gt;telereddit_services_imgur_service -->
<g id="edge20" class="edge"><title>telereddit_config&#45;&gt;telereddit_services_imgur_service</title><style>.edge>path:hover{stroke-width:8}</style>
<path fill="none" stroke="black" d="M1078.88,-660.812C958.514,-654.488 473.199,-623.918 353,-537.132 329.034,-519.828 311.962,-490.339 301.688,-468.1"/>
<polygon fill="#cb10f9" stroke="black" points="304.81,-466.505 297.573,-458.766 298.405,-469.328 304.81,-466.505"/>
</g>
<!-- telereddit_config&#45;&gt;telereddit_helpers -->
<g id="edge16" class="edge"><title>telereddit_config&#45;&gt;telereddit_helpers</title><style>.edge>path:hover{stroke-width:8}</style>
<path fill="none" stroke="black" d="M1087.23,-649.617C1070.83,-638.686 1046.82,-622.68 1028.3,-610.331"/>
<polygon fill="#cb10f9" stroke="black" points="1030.23,-607.409 1019.96,-604.774 1026.34,-613.234 1030.23,-607.409"/>
</g>
<!-- telereddit_config&#45;&gt;telereddit_linker -->
<g id="edge17" class="edge"><title>telereddit_config&#45;&gt;telereddit_linker</title><style>.edge>path:hover{stroke-width:8}</style>
<path fill="none" stroke="black" d="M1127.94,-652.424C1145.96,-643.473 1171.02,-628.628 1187,-609.132 1262.62,-516.876 1287,-479.351 1287,-360.066 1287,-360.066 1287,-360.066 1287,-300.853 1287,-264.755 1287,-223.081 1287,-196.509"/>
<polygon fill="#cb10f9" stroke="black" points="1290.5,-196.439 1287,-186.439 1283.5,-196.439 1290.5,-196.439"/>
</g>
<!-- telereddit_config&#45;&gt;telereddit_services_gfycat_service -->
<g id="edge19" class="edge"><title>telereddit_config&#45;&gt;telereddit_services_gfycat_service</title><style>.edge>path:hover{stroke-width:8}</style>
<path fill="none" stroke="black" d="M1094.45,-646.76C1066.41,-609.429 994.4,-513.571 958.7,-466.049"/>
<polygon fill="#cb10f9" stroke="black" points="961.485,-463.928 952.68,-458.035 955.888,-468.132 961.485,-463.928"/>
</g>
<!-- telereddit_config&#45;&gt;telereddit_reddit -->
<g id="edge18" class="edge"><title>telereddit_config&#45;&gt;telereddit_reddit</title><style>.edge>path:hover{stroke-width:8}</style>
<path fill="none" stroke="black" d="M1102.97,-645.14C1093.68,-593.326 1064.38,-432.816 1035,-300.853 1032.87,-291.295 1030.34,-280.877 1028.01,-271.635"/>
<polygon fill="#cb10f9" stroke="black" points="1031.37,-270.636 1025.51,-261.809 1024.59,-272.363 1031.37,-270.636"/>
</g>
<!-- telereddit_config_secret_github -->
<g id="node16" class="node"><title>telereddit_config_secret_github</title><style>.edge>path:hover{stroke-width:8}</style>
<ellipse fill="#8b439d" stroke="black" cx="1629" cy="-819.772" rx="53.066" ry="21.4286"/>
<text text-anchor="middle" x="1629" y="-822.772" font-family="Helvetica,sans-Serif" font-size="10.00" fill="#ffffff">config.</text>
<text text-anchor="middle" x="1629" y="-811.772" font-family="Helvetica,sans-Serif" font-size="10.00" fill="#ffffff">secret_github</text>
</g>
<!-- telereddit_services -->
<g id="node17" class="node"><title>telereddit_services</title><style>.edge>path:hover{stroke-width:8}</style>
<ellipse fill="#cb10f9" stroke="black" cx="884" cy="-359.066" rx="30.7213" ry="18"/>
<text text-anchor="middle" x="884" y="-356.566" font-family="Helvetica,sans-Serif" font-size="10.00" fill="#ffffff">services</text>
</g>
<!-- telereddit_services&#45;&gt;telereddit_tests_test_services -->
<g id="edge52" class="edge"><title>telereddit_services&#45;&gt;telereddit_tests_test_services</title><style>.edge>path:hover{stroke-width:8}</style>
<path fill="none" stroke="black" d="M859.187,-348.493C810.041,-329.532 699.632,-286.936 636.544,-262.596"/>
<polygon fill="#cb10f9" stroke="black" points="637.431,-259.187 626.841,-258.853 634.911,-265.718 637.431,-259.187"/>
</g>
<!-- telereddit_services&#45;&gt;telereddit_reddit -->
<g id="edge51" class="edge"><title>telereddit_services&#45;&gt;telereddit_reddit</title><style>.edge>path:hover{stroke-width:8}</style>
<path fill="none" stroke="black" d="M901.074,-343.93C925.126,-324.017 969.111,-287.6 996.604,-264.837"/>
<polygon fill="#cb10f9" stroke="black" points="999.097,-267.318 1004.57,-258.245 994.632,-261.926 999.097,-267.318"/>
</g>
<!-- telereddit_config_secret_dev -->
<g id="node18" class="node"><title>telereddit_config_secret_dev</title><style>.edge>path:hover{stroke-width:8}</style>
<ellipse fill="#a02fbc" stroke="black" cx="1673" cy="-898.198" rx="44.5955" ry="21.4286"/>
<text text-anchor="middle" x="1673" y="-901.198" font-family="Helvetica,sans-Serif" font-size="10.00" fill="#ffffff">config.</text>
<text text-anchor="middle" x="1673" y="-890.198" font-family="Helvetica,sans-Serif" font-size="10.00" fill="#ffffff">secret_dev</text>
</g>
<!-- telereddit_config_secret_dev&#45;&gt;telereddit_config_secret_github -->
<g id="edge32" class="edge"><title>telereddit_config_secret_dev&#45;&gt;telereddit_config_secret_github</title><style>.edge>path:hover{stroke-width:8}</style>
<path fill="none" stroke="black" d="M1661.67,-877.516C1656.73,-868.936 1650.84,-858.711 1645.44,-849.32"/>
<polygon fill="#a02fbc" stroke="black" points="1648.47,-847.572 1640.45,-840.652 1642.4,-851.065 1648.47,-847.572"/>
</g>
<!-- telereddit_config_secret_prod -->
<g id="node21" class="node"><title>telereddit_config_secret_prod</title><style>.edge>path:hover{stroke-width:8}</style>
<ellipse fill="#8b439d" stroke="black" cx="1798" cy="-819.772" rx="48.1667" ry="21.4286"/>
<text text-anchor="middle" x="1798" y="-822.772" font-family="Helvetica,sans-Serif" font-size="10.00" fill="#ffffff">config.</text>
<text text-anchor="middle" x="1798" y="-811.772" font-family="Helvetica,sans-Serif" font-size="10.00" fill="#ffffff">secret_prod</text>
</g>
<!-- telereddit_config_secret_dev&#45;&gt;telereddit_config_secret_prod -->
<g id="edge33" class="edge"><title>telereddit_config_secret_dev&#45;&gt;telereddit_config_secret_prod</title><style>.edge>path:hover{stroke-width:8}</style>
<path fill="none" stroke="black" d="M1699.51,-880.99C1717.74,-869.845 1742.16,-854.911 1762.13,-842.704"/>
<polygon fill="#a02fbc" stroke="black" points="1763.96,-845.687 1770.66,-837.485 1760.31,-839.715 1763.96,-845.687"/>
</g>
<!-- telereddit_config_secret_generic -->
<g id="node19" class="node"><title>telereddit_config_secret_generic</title><style>.edge>path:hover{stroke-width:8}</style>
<ellipse fill="#9246a4" stroke="black" cx="1792" cy="-898.198" rx="56.6372" ry="21.4286"/>
<text text-anchor="middle" x="1792" y="-901.198" font-family="Helvetica,sans-Serif" font-size="10.00" fill="#ffffff">config.</text>
<text text-anchor="middle" x="1792" y="-890.198" font-family="Helvetica,sans-Serif" font-size="10.00" fill="#ffffff">secret_generic</text>
</g>
<!-- telereddit_config_secret -->
<g id="node20" class="node"><title>telereddit_config_secret</title><style>.edge>path:hover{stroke-width:8}</style>
<ellipse fill="#c022e7" stroke="black" cx="1732" cy="-973.411" rx="42.2678" ry="18"/>
<text text-anchor="middle" x="1732" y="-970.911" font-family="Helvetica,sans-Serif" font-size="10.00" fill="#ffffff">config.secret</text>
</g>
<!-- telereddit_config_secret&#45;&gt;telereddit_config_secret_github -->
<g id="edge30" class="edge"><title>telereddit_config_secret&#45;&gt;telereddit_config_secret_github</title><style>.edge>path:hover{stroke-width:8}</style>
<path fill="none" stroke="black" d="M1693.72,-965.472C1667.77,-958.561 1635.33,-945.106 1619,-919.411 1606.07,-899.062 1610.28,-871.448 1616.75,-850.614"/>
<polygon fill="#c022e7" stroke="black" points="1620.12,-851.586 1620.04,-840.992 1613.49,-849.321 1620.12,-851.586"/>
</g>
<!-- telereddit_config_secret&#45;&gt;telereddit_config_secret_dev -->
<g id="edge28" class="edge"><title>telereddit_config_secret&#45;&gt;telereddit_config_secret_dev</title><style>.edge>path:hover{stroke-width:8}</style>
<path fill="none" stroke="black" d="M1718.91,-956.163C1711.78,-947.321 1702.78,-936.155 1694.64,-926.057"/>
<polygon fill="#c022e7" stroke="black" points="1697.35,-923.842 1688.35,-918.252 1691.9,-928.234 1697.35,-923.842"/>
</g>
<!-- telereddit_config_secret&#45;&gt;telereddit_config_secret_generic -->
<g id="edge29" class="edge"><title>telereddit_config_secret&#45;&gt;telereddit_config_secret_generic</title><style>.edge>path:hover{stroke-width:8}</style>
<path fill="none" stroke="black" d="M1745.32,-956.163C1752.38,-947.54 1761.26,-936.707 1769.37,-926.81"/>
<polygon fill="#c022e7" stroke="black" points="1772.32,-928.738 1775.95,-918.785 1766.9,-924.301 1772.32,-928.738"/>
</g>
<!-- telereddit_config_secret&#45;&gt;telereddit_config_secret_prod -->
<g id="edge31" class="edge"><title>telereddit_config_secret&#45;&gt;telereddit_config_secret_prod</title><style>.edge>path:hover{stroke-width:8}</style>
<path fill="none" stroke="black" d="M1772.09,-967.263C1801.33,-961.18 1839.03,-947.976 1858,-919.411 1868.43,-903.704 1865.5,-894.286 1858,-876.985 1852.48,-864.252 1842.5,-853.083 1832.24,-844.127"/>
<polygon fill="#c022e7" stroke="black" points="1834.37,-841.345 1824.42,-837.72 1829.94,-846.762 1834.37,-841.345"/>
</g>
<!-- telereddit_content_type -->
<g id="node22" class="node"><title>telereddit_content_type</title><style>.edge>path:hover{stroke-width:8}</style>
<ellipse fill="#cb10f9" stroke="black" cx="689" cy="-591.132" rx="42.9448" ry="18"/>
<text text-anchor="middle" x="689" y="-588.632" font-family="Helvetica,sans-Serif" font-size="10.00" fill="#ffffff">content_type</text>
</g>
<!-- telereddit_content_type&#45;&gt;telereddit_services_imgur_service -->
<g id="edge37" class="edge"><title>telereddit_content_type&#45;&gt;telereddit_services_imgur_service</title><style>.edge>path:hover{stroke-width:8}</style>
<path fill="none" stroke="black" d="M646.692,-587.008C593.675,-581.883 500.922,-568.866 428,-537.132 386.153,-518.921 344.401,-486.612 317.963,-463.947"/>
<polygon fill="#cb10f9" stroke="black" points="320.108,-461.173 310.267,-457.249 315.512,-466.454 320.108,-461.173"/>
</g>
<!-- telereddit_content_type&#45;&gt;telereddit_tests_test_reddit -->
<g id="edge40" class="edge"><title>telereddit_content_type&#45;&gt;telereddit_tests_test_reddit</title><style>.edge>path:hover{stroke-width:8}</style>
<path fill="none" stroke="black" d="M702.571,-573.983C731.434,-539.606 796.425,-462.039 798,-458.706 817.07,-418.338 817,-404.712 817,-360.066 817,-360.066 817,-360.066 817,-242.64 817,-199.31 836.679,-152.538 851.589,-123.321"/>
<polygon fill="#cb10f9" stroke="black" points="854.873,-124.596 856.427,-114.115 848.677,-121.339 854.873,-124.596"/>
</g>
<!-- telereddit_content_type&#45;&gt;telereddit_tests_test_services -->
<g id="edge41" class="edge"><title>telereddit_content_type&#45;&gt;telereddit_tests_test_services</title><style>.edge>path:hover{stroke-width:8}</style>
<path fill="none" stroke="black" d="M646.507,-587.981C574.656,-581.648 432.883,-556.718 391,-458.706 353.77,-371.582 476.712,-297.671 545.983,-264.046"/>
<polygon fill="#cb10f9" stroke="black" points="547.855,-267.031 555.379,-259.572 544.845,-260.711 547.855,-267.031"/>
</g>
<!-- telereddit_content_type&#45;&gt;telereddit_services_youtube_service -->
<g id="edge39" class="edge"><title>telereddit_content_type&#45;&gt;telereddit_services_youtube_service</title><style>.edge>path:hover{stroke-width:8}</style>
<path fill="none" stroke="black" d="M693.398,-573.032C699.913,-547.701 712.222,-499.84 720.266,-468.565"/>
<polygon fill="#cb10f9" stroke="black" points="723.714,-469.208 722.815,-458.651 716.935,-467.464 723.714,-469.208"/>
</g>
<!-- telereddit_content_type&#45;&gt;telereddit_services_vreddit_service -->
<g id="edge38" class="edge"><title>telereddit_content_type&#45;&gt;telereddit_services_vreddit_service</title><style>.edge>path:hover{stroke-width:8}</style>
<path fill="none" stroke="black" d="M646.908,-587.197C607.137,-582.431 547.799,-569.928 508,-537.132 486.583,-519.483 473.126,-490.493 465.449,-468.497"/>
<polygon fill="#cb10f9" stroke="black" points="468.76,-467.362 462.321,-458.949 462.108,-469.541 468.76,-467.362"/>
</g>
<!-- telereddit_services_generic_service -->
<g id="node26" class="node"><title>telereddit_services_generic_service</title><style>.edge>path:hover{stroke-width:8}</style>
<ellipse fill="#9238a8" stroke="black" cx="590" cy="-437.492" rx="58.8803" ry="21.4286"/>
<text text-anchor="middle" x="590" y="-440.492" font-family="Helvetica,sans-Serif" font-size="10.00" fill="#ffffff">services.</text>
<text text-anchor="middle" x="590" y="-429.492" font-family="Helvetica,sans-Serif" font-size="10.00" fill="#ffffff">generic_service</text>
</g>
<!-- telereddit_content_type&#45;&gt;telereddit_services_generic_service -->
<g id="edge35" class="edge"><title>telereddit_content_type&#45;&gt;telereddit_services_generic_service</title><style>.edge>path:hover{stroke-width:8}</style>
<path fill="none" stroke="black" d="M681.37,-573.297C672.193,-553.724 655.787,-520.773 638,-494.706 631.119,-484.621 622.723,-474.269 614.889,-465.241"/>
<polygon fill="#cb10f9" stroke="black" points="617.451,-462.854 608.201,-457.687 612.21,-467.495 617.451,-462.854"/>
</g>
<!-- telereddit_content_type&#45;&gt;telereddit_services_gfycat_service -->
<g id="edge36" class="edge"><title>telereddit_content_type&#45;&gt;telereddit_services_gfycat_service</title><style>.edge>path:hover{stroke-width:8}</style>
<path fill="none" stroke="black" d="M720.629,-578.935C745.179,-569.546 779.543,-554.847 807,-537.132 830.925,-521.696 832.5,-512.153 855,-494.706 869.831,-483.205 886.895,-471.419 901.678,-461.629"/>
<polygon fill="#cb10f9" stroke="black" points="903.645,-464.525 910.085,-456.112 899.805,-458.672 903.645,-464.525"/>
</g>
<!-- telereddit_content_type&#45;&gt;telereddit_reddit -->
<g id="edge34" class="edge"><title>telereddit_content_type&#45;&gt;telereddit_reddit</title><style>.edge>path:hover{stroke-width:8}</style>
<path fill="none" stroke="black" d="M713.667,-576.182C730.14,-566.308 751.845,-552.187 769,-537.132 782.37,-525.399 860.861,-428.27 874,-416.279 894.226,-397.82 904.668,-399.673 924,-380.279 958.303,-345.866 989.32,-298.275 1006.62,-269.577"/>
<polygon fill="#cb10f9" stroke="black" points="1009.63,-271.348 1011.74,-260.964 1003.62,-267.771 1009.63,-271.348"/>
</g>
<!-- telereddit_services_vreddit_service&#45;&gt;telereddit_services_services_wrapper -->
<g id="edge63" class="edge"><title>telereddit_services_vreddit_service&#45;&gt;telereddit_services_services_wrapper</title><style>.edge>path:hover{stroke-width:8}</style>
<path fill="none" stroke="black" d="M486.848,-419.341C505.528,-408.607 529.82,-394.648 550.137,-382.973"/>
<polygon fill="#853399" stroke="black" points="551.938,-385.975 558.865,-377.957 548.45,-379.905 551.938,-385.975"/>
</g>
<!-- telereddit_linker&#45;&gt;telereddit_telereddit -->
<g id="edge48" class="edge"><title>telereddit_linker&#45;&gt;telereddit_telereddit</title><style>.edge>path:hover{stroke-width:8}</style>
<path fill="none" stroke="black" d="M1287,-150.076C1287,-141.596 1287,-131.19 1287,-121.666"/>
<polygon fill="#853399" stroke="black" points="1290.5,-121.439 1287,-111.439 1283.5,-121.439 1290.5,-121.439"/>
</g>
<!-- telereddit_services_service&#45;&gt;telereddit_services_imgur_service -->
<g id="edge58" class="edge"><title>telereddit_services_service&#45;&gt;telereddit_services_imgur_service</title><style>.edge>path:hover{stroke-width:8}</style>
<path fill="none" stroke="black" d="M555.293,-506.077C503.426,-492.864 405.249,-467.853 343.969,-452.241"/>
<polygon fill="#c50cf3" stroke="black" points="344.646,-448.802 334.092,-449.725 342.918,-455.585 344.646,-448.802"/>
</g>
<!-- telereddit_services_service&#45;&gt;telereddit_services_youtube_service -->
<g id="edge60" class="edge"><title>telereddit_services_service&#45;&gt;telereddit_services_youtube_service</title><style>.edge>path:hover{stroke-width:8}</style>
<path fill="none" stroke="black" d="M616.608,-500.183C636.798,-489.001 664.894,-473.441 687.818,-460.746"/>
<polygon fill="#c50cf3" stroke="black" points="689.59,-463.765 696.643,-455.859 686.199,-457.642 689.59,-463.765"/>
</g>
<!-- telereddit_services_service&#45;&gt;telereddit_services_vreddit_service -->
<g id="edge59" class="edge"><title>telereddit_services_service&#45;&gt;telereddit_services_vreddit_service</title><style>.edge>path:hover{stroke-width:8}</style>
<path fill="none" stroke="black" d="M564.041,-500.002C544.639,-488.853 517.794,-473.427 495.841,-460.812"/>
<polygon fill="#c50cf3" stroke="black" points="497.493,-457.724 487.078,-455.777 494.005,-463.794 497.493,-457.724"/>
</g>
<!-- telereddit_services_service&#45;&gt;telereddit_services_generic_service -->
<g id="edge56" class="edge"><title>telereddit_services_service&#45;&gt;telereddit_services_generic_service</title><style>.edge>path:hover{stroke-width:8}</style>
<path fill="none" stroke="black" d="M590,-494.438C590,-486.579 590,-477.435 590,-468.845"/>
<polygon fill="#c50cf3" stroke="black" points="593.5,-468.765 590,-458.765 586.5,-468.765 593.5,-468.765"/>
</g>
<!-- telereddit_services_service&#45;&gt;telereddit_services_gfycat_service -->
<g id="edge57" class="edge"><title>telereddit_services_service&#45;&gt;telereddit_services_gfycat_service</title><style>.edge>path:hover{stroke-width:8}</style>
<path fill="none" stroke="black" d="M625.607,-507.099C685.995,-493.837 808.97,-466.83 881.31,-450.942"/>
<polygon fill="#c50cf3" stroke="black" points="882.153,-454.341 891.17,-448.777 880.652,-447.504 882.153,-454.341"/>
</g>
<!-- telereddit_services_generic_service&#45;&gt;telereddit_services_services_wrapper -->
<g id="edge53" class="edge"><title>telereddit_services_generic_service&#45;&gt;telereddit_services_services_wrapper</title><style>.edge>path:hover{stroke-width:8}</style>
<path fill="none" stroke="black" d="M590,-416.012C590,-408.153 590,-399.009 590,-390.418"/>
<polygon fill="#9238a8" stroke="black" points="593.5,-390.338 590,-380.338 586.5,-390.338 593.5,-390.338"/>
</g>
<!-- telereddit_services_gfycat_service&#45;&gt;telereddit_services_services_wrapper -->
<g id="edge54" class="edge"><title>telereddit_services_gfycat_service&#45;&gt;telereddit_services_services_wrapper</title><style>.edge>path:hover{stroke-width:8}</style>
<path fill="none" stroke="black" d="M891.067,-426.185C829.265,-412.613 720.439,-388.713 651.939,-373.669"/>
<polygon fill="#7e3091" stroke="black" points="652.654,-370.242 642.136,-371.516 651.152,-377.08 652.654,-370.242"/>
</g>
<!-- telereddit_reddit&#45;&gt;telereddit_tests_test_reddit -->
<g id="edge50" class="edge"><title>telereddit_reddit&#45;&gt;telereddit_tests_test_reddit</title><style>.edge>path:hover{stroke-width:8}</style>
<path fill="none" stroke="black" d="M1006.33,-228.408C980.571,-203.419 926.879,-151.332 894.486,-119.907"/>
<polygon fill="#7d2493" stroke="black" points="896.745,-117.223 887.131,-112.772 891.871,-122.247 896.745,-117.223"/>
</g>
<!-- telereddit_reddit&#45;&gt;telereddit_linker -->
<g id="edge49" class="edge"><title>telereddit_reddit&#45;&gt;telereddit_linker</title><style>.edge>path:hover{stroke-width:8}</style>
<path fill="none" stroke="black" d="M1045.55,-235.883C1093.15,-222.78 1198.12,-193.89 1252.63,-178.886"/>
<polygon fill="#7d2493" stroke="black" points="1253.8,-182.195 1262.51,-176.167 1251.94,-175.446 1253.8,-182.195"/>
</g>
<!-- telegram -->
<g id="node29" class="node"><title>telegram</title><style>.edge>path:hover{stroke-width:8}</style>
<polygon fill="#4073c0" stroke="black" points="1466,-991.411 1463,-995.411 1442,-995.411 1439,-991.411 1412,-991.411 1412,-955.411 1466,-955.411 1466,-991.411"/>
<text text-anchor="middle" x="1439" y="-970.911" font-family="Helvetica,sans-Serif" font-size="10.00" fill="#ffffff">telegram</text>
</g>
<!-- telegram&#45;&gt;telereddit_telereddit -->
<g id="edge15" class="edge"><title>telegram&#45;&gt;telereddit_telereddit</title><style>.edge>path:hover{stroke-width:8}</style>
<path fill="none" stroke="black" d="M1458.93,-954.994C1486.53,-928.844 1533,-876.525 1533,-820.772 1533,-820.772 1533,-820.772 1533,-242.64 1533,-148.462 1399.19,-112.466 1328.95,-100.057"/>
<polygon fill="#4073c0" stroke="black" points="1329.1,-96.5341 1318.66,-98.3282 1327.94,-103.437 1329.1,-96.5341"/>
</g>
<!-- telegram&#45;&gt;telereddit_config_config -->
<g id="edge13" class="edge"><title>telegram&#45;&gt;telereddit_config_config</title><style>.edge>path:hover{stroke-width:8}</style>
<path fill="none" stroke="black" d="M1427.82,-955.273C1401.29,-914.584 1334.39,-812.015 1303.33,-764.377"/>
<polygon fill="#4073c0" stroke="black" points="1306.18,-762.346 1297.78,-755.882 1300.32,-766.17 1306.18,-762.346"/>
</g>
<!-- telegram&#45;&gt;telereddit_linker -->
<g id="edge14" class="edge"><title>telegram&#45;&gt;telereddit_linker</title><style>.edge>path:hover{stroke-width:8}</style>
<path fill="none" stroke="black" d="M1439,-955.128C1439,-926.978 1439,-869.475 1439,-820.772 1439,-820.772 1439,-820.772 1439,-662.132 1439,-557.154 1363,-543.47 1363,-438.492 1363,-438.492 1363,-438.492 1363,-300.853 1363,-261.229 1351.83,-251.349 1331,-217.64 1325.1,-208.096 1317.19,-198.723 1309.7,-190.816"/>
<polygon fill="#4073c0" stroke="black" points="1311.95,-188.114 1302.44,-183.446 1306.96,-193.027 1311.95,-188.114"/>
</g>
</g>
</svg>
