<?xml version="1.0" encoding="UTF-8" standalone="no"?>
<!DOCTYPE svg PUBLIC "-//W3C//DTD SVG 1.1//EN"
 "http://www.w3.org/Graphics/SVG/1.1/DTD/svg11.dtd">
<!-- Generated by graphviz version 2.38.0 (20140413.2041)
 -->
<!-- Title: G Pages: 1 -->
<svg width="1446pt" height="854pt"
 viewBox="0.00 0.00 1445.57 854.41" xmlns="http://www.w3.org/2000/svg" xmlns:xlink="http://www.w3.org/1999/xlink">
<g id="graph0" class="graph" transform="scale(1 1) rotate(0) translate(4 850.411)">
<title>G</title><style>.edge>path:hover{stroke-width:8}</style>
<polygon fill="white" stroke="none" points="-4,4 -4,-850.411 1441.57,-850.411 1441.57,4 -4,4"/>
<g id="clust1" class="cluster"><title>cluster_parameterized</title><style>.edge>path:hover{stroke-width:8}</style>
<polygon fill="none" stroke="black" points="36,-681.772 36,-838.411 166,-838.411 166,-681.772 36,-681.772"/>
<text text-anchor="middle" x="101" y="-823.211" font-family="Times New Roman,serif" font-size="14.00">parameterized</text>
</g>
<g id="clust3" class="cluster"><title>cluster_sentrysdk</title><style>.edge>path:hover{stroke-width:8}</style>
<polygon fill="none" stroke="black" points="1101,-217.64 1101,-292.64 1193,-292.64 1193,-217.64 1101,-217.64"/>
<text text-anchor="middle" x="1147" y="-277.44" font-family="Times New Roman,serif" font-size="14.00">sentrysdk</text>
</g>
<g id="clust2" class="cluster"><title>cluster_requests</title><style>.edge>path:hover{stroke-width:8}</style>
<polygon fill="none" stroke="black" points="623,-760.198 623,-835.198 703,-835.198 703,-760.198 623,-760.198"/>
<text text-anchor="middle" x="663" y="-819.998" font-family="Times New Roman,serif" font-size="14.00">requests</text>
</g>
<!-- parameterized_parameterized -->
<g id="node1" class="node"><title>parameterized_parameterized</title><style>.edge>path:hover{stroke-width:8}</style>
<ellipse fill="#ce3b3b" stroke="black" cx="101" cy="-786.198" rx="57.0522" ry="21.4286"/>
<text text-anchor="middle" x="101" y="-789.198" font-family="Helvetica,sans-Serif" font-size="10.00" fill="#ffffff">parameterized.</text>
<text text-anchor="middle" x="101" y="-778.198" font-family="Helvetica,sans-Serif" font-size="10.00" fill="#ffffff">parameterized</text>
</g>
<!-- parameterized -->
<g id="node2" class="node"><title>parameterized</title><style>.edge>path:hover{stroke-width:8}</style>
<ellipse fill="#c04040" stroke="black" cx="112" cy="-707.772" rx="45.8316" ry="18"/>
<text text-anchor="middle" x="112" y="-705.272" font-family="Helvetica,sans-Serif" font-size="10.00" fill="#ffffff">parameterized</text>
</g>
<!-- parameterized_parameterized&#45;&gt;parameterized -->
<g id="edge3" class="edge"><title>parameterized_parameterized&#45;&gt;parameterized</title><style>.edge>path:hover{stroke-width:8}</style>
<path fill="none" stroke="black" d="M103.948,-764.717C105.205,-755.979 106.692,-745.651 108.043,-736.263"/>
<polygon fill="#000000" stroke="black" points="111.531,-736.594 109.492,-726.198 104.603,-735.597 111.531,-736.594"/>
</g>
<!-- telereddit_tests_test_services -->
<g id="node8" class="node"><title>telereddit_tests_test_services</title><style>.edge>path:hover{stroke-width:8}</style>
<ellipse fill="#854096" stroke="black" cx="192" cy="-243.64" rx="52.1524" ry="21.4286"/>
<text text-anchor="middle" x="192" y="-246.64" font-family="Helvetica,sans-Serif" font-size="10.00" fill="#ffffff">tests.</text>
<text text-anchor="middle" x="192" y="-235.64" font-family="Helvetica,sans-Serif" font-size="10.00" fill="#ffffff">test_services</text>
</g>
<!-- parameterized_parameterized&#45;&gt;telereddit_tests_test_services -->
<g id="edge5" class="edge"><title>parameterized_parameterized&#45;&gt;telereddit_tests_test_services</title><style>.edge>path:hover{stroke-width:8}</style>
<path fill="none" stroke="black" d="M36.4655,-721.558C16.6702,-695.544 0,-663.727 0,-630.345 0,-630.345 0,-630.345 0,-393.066 0,-321.973 83.4158,-280.115 140.283,-259.839"/>
<polygon fill="#000000" stroke="black" points="141.552,-263.103 149.865,-256.535 139.27,-256.486 141.552,-263.103"/>
</g>
<!-- telereddit_tests_test_helpers -->
<g id="node20" class="node"><title>telereddit_tests_test_helpers</title><style>.edge>path:hover{stroke-width:8}</style>
<ellipse fill="#8b439d" stroke="black" cx="77" cy="-472.492" rx="49.4949" ry="21.4286"/>
<text text-anchor="middle" x="77" y="-475.492" font-family="Helvetica,sans-Serif" font-size="10.00" fill="#ffffff">tests.</text>
<text text-anchor="middle" x="77" y="-464.492" font-family="Helvetica,sans-Serif" font-size="10.00" fill="#ffffff">test_helpers</text>
</g>
<!-- parameterized_parameterized&#45;&gt;telereddit_tests_test_helpers -->
<g id="edge4" class="edge"><title>parameterized_parameterized&#45;&gt;telereddit_tests_test_helpers</title><style>.edge>path:hover{stroke-width:8}</style>
<path fill="none" stroke="black" d="M46.592,-682.414C38.4467,-614.988 55.4103,-542.732 67.121,-503.341"/>
<polygon fill="#000000" stroke="black" points="70.4813,-504.321 70.0689,-493.734 63.7893,-502.267 70.4813,-504.321"/>
</g>
<!-- parameterized&#45;&gt;telereddit_tests_test_services -->
<g id="edge2" class="edge"><title>parameterized&#45;&gt;telereddit_tests_test_services</title><style>.edge>path:hover{stroke-width:8}</style>
<path fill="none" stroke="black" d="M123.032,-682.127C135.475,-652.032 154,-599.277 154,-551.919 154,-551.919 154,-551.919 154,-393.066 154,-350.95 168.536,-304.154 179.627,-274.577"/>
<polygon fill="#000000" stroke="black" points="183.039,-275.459 183.377,-264.869 176.509,-272.936 183.039,-275.459"/>
</g>
<!-- parameterized&#45;&gt;telereddit_tests_test_helpers -->
<g id="edge1" class="edge"><title>parameterized&#45;&gt;telereddit_tests_test_helpers</title><style>.edge>path:hover{stroke-width:8}</style>
<path fill="none" stroke="black" d="M108.307,-682.155C101.869,-639.245 88.6092,-550.869 81.5908,-504.091"/>
<polygon fill="#000000" stroke="black" points="85.0147,-503.322 80.0696,-493.952 78.0922,-504.36 85.0147,-503.322"/>
</g>
<!-- requests -->
<g id="node3" class="node"><title>requests</title><style>.edge>path:hover{stroke-width:8}</style>
<ellipse fill="#c8f906" stroke="black" cx="663" cy="-786.198" rx="31.577" ry="18"/>
<text text-anchor="middle" x="663" y="-783.698" font-family="Helvetica,sans-Serif" font-size="10.00" fill="#000000">requests</text>
</g>
<!-- telereddit_services_service -->
<g id="node9" class="node"><title>telereddit_services_service</title><style>.edge>path:hover{stroke-width:8}</style>
<ellipse fill="#c50cf3" stroke="black" cx="544" cy="-550.919" rx="38.7821" ry="21.4286"/>
<text text-anchor="middle" x="544" y="-553.919" font-family="Helvetica,sans-Serif" font-size="10.00" fill="#ffffff">services.</text>
<text text-anchor="middle" x="544" y="-542.919" font-family="Helvetica,sans-Serif" font-size="10.00" fill="#ffffff">service</text>
</g>
<!-- requests&#45;&gt;telereddit_services_service -->
<g id="edge10" class="edge"><title>requests&#45;&gt;telereddit_services_service</title><style>.edge>path:hover{stroke-width:8}</style>
<path fill="none" stroke="black" d="M650.26,-760.223C628.019,-716.624 582.239,-626.88 558.695,-580.727"/>
<polygon fill="#000000" stroke="black" points="561.67,-578.856 554.009,-571.539 555.435,-582.037 561.67,-578.856"/>
</g>
<!-- telereddit_services_vreddit_service -->
<g id="node17" class="node"><title>telereddit_services_vreddit_service</title><style>.edge>path:hover{stroke-width:8}</style>
<ellipse fill="#8b35a1" stroke="black" cx="806" cy="-472.492" rx="56.6372" ry="21.4286"/>
<text text-anchor="middle" x="806" y="-475.492" font-family="Helvetica,sans-Serif" font-size="10.00" fill="#ffffff">services.</text>
<text text-anchor="middle" x="806" y="-464.492" font-family="Helvetica,sans-Serif" font-size="10.00" fill="#ffffff">vreddit_service</text>
</g>
<!-- requests&#45;&gt;telereddit_services_vreddit_service -->
<g id="edge11" class="edge"><title>requests&#45;&gt;telereddit_services_vreddit_service</title><style>.edge>path:hover{stroke-width:8}</style>
<path fill="none" stroke="black" d="M674.404,-760.341C700.545,-703.36 764.686,-563.547 792.628,-502.641"/>
<polygon fill="#000000" stroke="black" points="795.835,-504.044 796.824,-493.495 789.472,-501.125 795.835,-504.044"/>
</g>
<!-- telereddit_reddit -->
<g id="node19" class="node"><title>telereddit_reddit</title><style>.edge>path:hover{stroke-width:8}</style>
<ellipse fill="#922bac" stroke="black" cx="946" cy="-243.64" rx="27" ry="18"/>
<text text-anchor="middle" x="946" y="-241.14" font-family="Helvetica,sans-Serif" font-size="10.00" fill="#ffffff">reddit</text>
</g>
<!-- requests&#45;&gt;telereddit_reddit -->
<g id="edge7" class="edge"><title>requests&#45;&gt;telereddit_reddit</title><style>.edge>path:hover{stroke-width:8}</style>
<path fill="none" stroke="black" d="M702.973,-779.171C807.516,-762.289 1081,-710.47 1081,-630.345 1081,-630.345 1081,-630.345 1081,-393.066 1081,-330.858 1015.3,-283.211 975.567,-260.083"/>
<polygon fill="#000000" stroke="black" points="977.226,-257 966.798,-255.129 973.783,-263.095 977.226,-257"/>
</g>
<!-- telereddit_services_imgur_service -->
<g id="node21" class="node"><title>telereddit_services_imgur_service</title><style>.edge>path:hover{stroke-width:8}</style>
<ellipse fill="#9238a8" stroke="black" cx="274" cy="-472.492" rx="53.9813" ry="21.4286"/>
<text text-anchor="middle" x="274" y="-475.492" font-family="Helvetica,sans-Serif" font-size="10.00" fill="#ffffff">services.</text>
<text text-anchor="middle" x="274" y="-464.492" font-family="Helvetica,sans-Serif" font-size="10.00" fill="#ffffff">imgur_service</text>
</g>
<!-- requests&#45;&gt;telereddit_services_imgur_service -->
<g id="edge9" class="edge"><title>requests&#45;&gt;telereddit_services_imgur_service</title><style>.edge>path:hover{stroke-width:8}</style>
<path fill="none" stroke="black" d="M623.257,-770.844C597.893,-760.848 564.857,-746.24 538,-728.985 435.066,-662.851 338.166,-552.378 296.05,-501.144"/>
<polygon fill="#000000" stroke="black" points="298.567,-498.693 289.533,-493.157 293.142,-503.118 298.567,-498.693"/>
</g>
<!-- telereddit_helpers -->
<g id="node24" class="node"><title>telereddit_helpers</title><style>.edge>path:hover{stroke-width:8}</style>
<ellipse fill="#c006ef" stroke="black" cx="929" cy="-629.345" rx="28.0137" ry="18"/>
<text text-anchor="middle" x="929" y="-626.845" font-family="Helvetica,sans-Serif" font-size="10.00" fill="#ffffff">helpers</text>
</g>
<!-- requests&#45;&gt;telereddit_helpers -->
<g id="edge6" class="edge"><title>requests&#45;&gt;telereddit_helpers</title><style>.edge>path:hover{stroke-width:8}</style>
<path fill="none" stroke="black" d="M702.773,-768.207C726.261,-757.733 756.328,-743.553 782,-728.985 825.846,-704.104 873.855,-670.61 902.691,-649.757"/>
<polygon fill="#000000" stroke="black" points="904.971,-652.427 910.999,-643.714 900.853,-646.766 904.971,-652.427"/>
</g>
<!-- telereddit_services_gfycat_service -->
<g id="node25" class="node"><title>telereddit_services_gfycat_service</title><style>.edge>path:hover{stroke-width:8}</style>
<ellipse fill="#9238a8" stroke="black" cx="401" cy="-472.492" rx="55.3091" ry="21.4286"/>
<text text-anchor="middle" x="401" y="-475.492" font-family="Helvetica,sans-Serif" font-size="10.00" fill="#ffffff">services.</text>
<text text-anchor="middle" x="401" y="-464.492" font-family="Helvetica,sans-Serif" font-size="10.00" fill="#ffffff">gfycat_service</text>
</g>
<!-- requests&#45;&gt;telereddit_services_gfycat_service -->
<g id="edge8" class="edge"><title>requests&#45;&gt;telereddit_services_gfycat_service</title><style>.edge>path:hover{stroke-width:8}</style>
<path fill="none" stroke="black" d="M630.326,-760.308C583.791,-723.474 498.086,-650.329 444,-572.132 429.363,-550.971 418.03,-524.028 410.681,-503.649"/>
<polygon fill="#000000" stroke="black" points="413.895,-502.235 407.301,-493.942 407.284,-504.537 413.895,-502.235"/>
</g>
<!-- sentry_sdk -->
<g id="node4" class="node"><title>sentry_sdk</title><style>.edge>path:hover{stroke-width:8}</style>
<ellipse fill="#40c073" stroke="black" cx="1147" cy="-243.64" rx="38.0276" ry="18"/>
<text text-anchor="middle" x="1147" y="-241.14" font-family="Helvetica,sans-Serif" font-size="10.00" fill="#000000">sentry_sdk</text>
</g>
<!-- telereddit_telereddit -->
<g id="node7" class="node"><title>telereddit_telereddit</title><style>.edge>path:hover{stroke-width:8}</style>
<ellipse fill="#632673" stroke="black" cx="1060" cy="-93.2132" rx="32.9303" ry="18"/>
<text text-anchor="middle" x="1060" y="-90.7132" font-family="Helvetica,sans-Serif" font-size="10.00" fill="#ffffff">telereddit</text>
</g>
<!-- sentry_sdk&#45;&gt;telereddit_telereddit -->
<g id="edge12" class="edge"><title>sentry_sdk&#45;&gt;telereddit_telereddit</title><style>.edge>path:hover{stroke-width:8}</style>
<path fill="none" stroke="black" d="M1134.08,-218.274C1124.01,-199.542 1109.52,-173.116 1096,-150.426 1089.73,-139.908 1082.51,-128.497 1076.18,-118.721"/>
<polygon fill="#000000" stroke="black" points="1079.07,-116.743 1070.68,-110.276 1073.2,-120.565 1079.07,-116.743"/>
</g>
<!-- telereddit_services_services_wrapper -->
<g id="node5" class="node"><title>telereddit_services_services_wrapper</title><style>.edge>path:hover{stroke-width:8}</style>
<ellipse fill="#8b28a3" stroke="black" cx="533" cy="-394.066" rx="64.1938" ry="21.4286"/>
<text text-anchor="middle" x="533" y="-397.066" font-family="Helvetica,sans-Serif" font-size="10.00" fill="#ffffff">services.</text>
<text text-anchor="middle" x="533" y="-386.066" font-family="Helvetica,sans-Serif" font-size="10.00" fill="#ffffff">services_wrapper</text>
</g>
<!-- telereddit_services_services_wrapper&#45;&gt;telereddit_tests_test_services -->
<g id="edge47" class="edge"><title>telereddit_services_services_wrapper&#45;&gt;telereddit_tests_test_services</title><style>.edge>path:hover{stroke-width:8}</style>
<path fill="none" stroke="black" d="M495.532,-376.757C432.044,-349.123 303.646,-293.236 235.993,-263.788"/>
<polygon fill="#8b28a3" stroke="black" points="237.033,-260.424 226.467,-259.642 234.239,-266.842 237.033,-260.424"/>
</g>
<!-- telereddit_services_services_wrapper&#45;&gt;telereddit_reddit -->
<g id="edge46" class="edge"><title>telereddit_services_services_wrapper&#45;&gt;telereddit_reddit</title><style>.edge>path:hover{stroke-width:8}</style>
<path fill="none" stroke="black" d="M575.257,-377.879C657.724,-348.242 838.539,-283.26 912.978,-256.507"/>
<polygon fill="#8b28a3" stroke="black" points="914.527,-259.67 922.754,-252.994 912.16,-253.082 914.527,-259.67"/>
</g>
<!-- telereddit_config_secret -->
<g id="node6" class="node"><title>telereddit_config_secret</title><style>.edge>path:hover{stroke-width:8}</style>
<ellipse fill="#c022e7" stroke="black" cx="1259" cy="-786.198" rx="42.2678" ry="18"/>
<text text-anchor="middle" x="1259" y="-783.698" font-family="Helvetica,sans-Serif" font-size="10.00" fill="#ffffff">config.secret</text>
</g>
<!-- telereddit_config_secret_dev -->
<g id="node11" class="node"><title>telereddit_config_secret_dev</title><style>.edge>path:hover{stroke-width:8}</style>
<ellipse fill="#a731c4" stroke="black" cx="1223" cy="-707.772" rx="44.5955" ry="21.4286"/>
<text text-anchor="middle" x="1223" y="-710.772" font-family="Helvetica,sans-Serif" font-size="10.00" fill="#ffffff">config.</text>
<text text-anchor="middle" x="1223" y="-699.772" font-family="Helvetica,sans-Serif" font-size="10.00" fill="#ffffff">secret_dev</text>
</g>
<!-- telereddit_config_secret&#45;&gt;telereddit_config_secret_dev -->
<g id="edge15" class="edge"><title>telereddit_config_secret&#45;&gt;telereddit_config_secret_dev</title><style>.edge>path:hover{stroke-width:8}</style>
<path fill="none" stroke="black" d="M1251.01,-768.237C1246.79,-759.281 1241.5,-748.041 1236.65,-737.751"/>
<polygon fill="#c022e7" stroke="black" points="1239.8,-736.217 1232.37,-728.662 1233.46,-739.2 1239.8,-736.217"/>
</g>
<!-- telereddit_config_secret_prod -->
<g id="node13" class="node"><title>telereddit_config_secret_prod</title><style>.edge>path:hover{stroke-width:8}</style>
<ellipse fill="#9246a4" stroke="black" cx="1157" cy="-629.345" rx="48.1667" ry="21.4286"/>
<text text-anchor="middle" x="1157" y="-632.345" font-family="Helvetica,sans-Serif" font-size="10.00" fill="#ffffff">config.</text>
<text text-anchor="middle" x="1157" y="-621.345" font-family="Helvetica,sans-Serif" font-size="10.00" fill="#ffffff">secret_prod</text>
</g>
<!-- telereddit_config_secret&#45;&gt;telereddit_config_secret_prod -->
<g id="edge18" class="edge"><title>telereddit_config_secret&#45;&gt;telereddit_config_secret_prod</title><style>.edge>path:hover{stroke-width:8}</style>
<path fill="none" stroke="black" d="M1227.52,-773.853C1207.37,-764.879 1182.55,-750.277 1169,-728.985 1156.14,-708.784 1153.7,-681.49 1154.16,-660.734"/>
<polygon fill="#c022e7" stroke="black" points="1157.66,-660.697 1154.62,-650.548 1150.67,-660.378 1157.66,-660.697"/>
</g>
<!-- telereddit_config_secret_github -->
<g id="node18" class="node"><title>telereddit_config_secret_github</title><style>.edge>path:hover{stroke-width:8}</style>
<ellipse fill="#9246a4" stroke="black" cx="1289" cy="-629.345" rx="53.066" ry="21.4286"/>
<text text-anchor="middle" x="1289" y="-632.345" font-family="Helvetica,sans-Serif" font-size="10.00" fill="#ffffff">config.</text>
<text text-anchor="middle" x="1289" y="-621.345" font-family="Helvetica,sans-Serif" font-size="10.00" fill="#ffffff">secret_github</text>
</g>
<!-- telereddit_config_secret&#45;&gt;telereddit_config_secret_github -->
<g id="edge17" class="edge"><title>telereddit_config_secret&#45;&gt;telereddit_config_secret_github</title><style>.edge>path:hover{stroke-width:8}</style>
<path fill="none" stroke="black" d="M1265.37,-768.206C1269.27,-757.172 1274.06,-742.399 1277,-728.985 1281.95,-706.377 1285.01,-680.375 1286.8,-660.745"/>
<polygon fill="#c022e7" stroke="black" points="1290.3,-660.818 1287.66,-650.557 1283.33,-660.224 1290.3,-660.818"/>
</g>
<!-- telereddit_config_secret_generic -->
<g id="node22" class="node"><title>telereddit_config_secret_generic</title><style>.edge>path:hover{stroke-width:8}</style>
<ellipse fill="#9849ac" stroke="black" cx="1381" cy="-707.772" rx="56.6372" ry="21.4286"/>
<text text-anchor="middle" x="1381" y="-710.772" font-family="Helvetica,sans-Serif" font-size="10.00" fill="#ffffff">config.</text>
<text text-anchor="middle" x="1381" y="-699.772" font-family="Helvetica,sans-Serif" font-size="10.00" fill="#ffffff">secret_generic</text>
</g>
<!-- telereddit_config_secret&#45;&gt;telereddit_config_secret_generic -->
<g id="edge16" class="edge"><title>telereddit_config_secret&#45;&gt;telereddit_config_secret_generic</title><style>.edge>path:hover{stroke-width:8}</style>
<path fill="none" stroke="black" d="M1281.95,-770.823C1299.5,-759.824 1324.06,-744.439 1344.33,-731.741"/>
<polygon fill="#c022e7" stroke="black" points="1346.4,-734.577 1353.02,-726.302 1342.68,-728.645 1346.4,-734.577"/>
</g>
<!-- telereddit___main__ -->
<g id="node10" class="node"><title>telereddit___main__</title><style>.edge>path:hover{stroke-width:8}</style>
<ellipse fill="#9849ac" stroke="black" cx="1060" cy="-18" rx="34.9638" ry="18"/>
<text text-anchor="middle" x="1060" y="-15.5" font-family="Helvetica,sans-Serif" font-size="10.00" fill="#ffffff">__main__</text>
</g>
<!-- telereddit_telereddit&#45;&gt;telereddit___main__ -->
<g id="edge50" class="edge"><title>telereddit_telereddit&#45;&gt;telereddit___main__</title><style>.edge>path:hover{stroke-width:8}</style>
<path fill="none" stroke="black" d="M1060,-74.8627C1060,-66.3831 1060,-55.9765 1060,-46.4531"/>
<polygon fill="#632673" stroke="black" points="1063.5,-46.2259 1060,-36.226 1056.5,-46.226 1063.5,-46.2259"/>
</g>
<!-- telereddit_services_youtube_service -->
<g id="node12" class="node"><title>telereddit_services_youtube_service</title><style>.edge>path:hover{stroke-width:8}</style>
<ellipse fill="#9238a8" stroke="black" cx="671" cy="-472.492" rx="60.623" ry="21.4286"/>
<text text-anchor="middle" x="671" y="-475.492" font-family="Helvetica,sans-Serif" font-size="10.00" fill="#ffffff">services.</text>
<text text-anchor="middle" x="671" y="-464.492" font-family="Helvetica,sans-Serif" font-size="10.00" fill="#ffffff">youtube_service</text>
</g>
<!-- telereddit_services_service&#45;&gt;telereddit_services_youtube_service -->
<g id="edge45" class="edge"><title>telereddit_services_service&#45;&gt;telereddit_services_youtube_service</title><style>.edge>path:hover{stroke-width:8}</style>
<path fill="none" stroke="black" d="M569.395,-534.636C587.555,-523.708 612.313,-508.809 632.843,-496.455"/>
<polygon fill="#c50cf3" stroke="black" points="634.881,-499.313 641.644,-491.158 631.271,-493.316 634.881,-499.313"/>
</g>
<!-- telereddit_services_generic_service -->
<g id="node14" class="node"><title>telereddit_services_generic_service</title><style>.edge>path:hover{stroke-width:8}</style>
<ellipse fill="#993ab0" stroke="black" cx="533" cy="-472.492" rx="58.8803" ry="21.4286"/>
<text text-anchor="middle" x="533" y="-475.492" font-family="Helvetica,sans-Serif" font-size="10.00" fill="#ffffff">services.</text>
<text text-anchor="middle" x="533" y="-464.492" font-family="Helvetica,sans-Serif" font-size="10.00" fill="#ffffff">generic_service</text>
</g>
<!-- telereddit_services_service&#45;&gt;telereddit_services_generic_service -->
<g id="edge41" class="edge"><title>telereddit_services_service&#45;&gt;telereddit_services_generic_service</title><style>.edge>path:hover{stroke-width:8}</style>
<path fill="none" stroke="black" d="M541.052,-529.438C539.921,-521.579 538.605,-512.435 537.369,-503.845"/>
<polygon fill="#c50cf3" stroke="black" points="540.807,-503.164 535.918,-493.765 533.878,-504.161 540.807,-503.164"/>
</g>
<!-- telereddit_services_service&#45;&gt;telereddit_services_vreddit_service -->
<g id="edge44" class="edge"><title>telereddit_services_service&#45;&gt;telereddit_services_vreddit_service</title><style>.edge>path:hover{stroke-width:8}</style>
<path fill="none" stroke="black" d="M578.236,-540.413C617.589,-529.426 684.079,-510.674 741,-493.706 745.256,-492.437 749.663,-491.105 754.085,-489.756"/>
<polygon fill="#c50cf3" stroke="black" points="755.204,-493.074 763.737,-486.793 753.15,-486.382 755.204,-493.074"/>
</g>
<!-- telereddit_services_service&#45;&gt;telereddit_services_imgur_service -->
<g id="edge43" class="edge"><title>telereddit_services_service&#45;&gt;telereddit_services_imgur_service</title><style>.edge>path:hover{stroke-width:8}</style>
<path fill="none" stroke="black" d="M513.695,-537.557C506.334,-534.779 498.439,-531.982 491,-529.706 423.788,-509.135 404.742,-512.458 337,-493.706 332.648,-492.501 328.147,-491.19 323.645,-489.833"/>
<polygon fill="#c50cf3" stroke="black" points="324.434,-486.413 313.847,-486.813 322.373,-493.103 324.434,-486.413"/>
</g>
<!-- telereddit_services_service&#45;&gt;telereddit_services_gfycat_service -->
<g id="edge42" class="edge"><title>telereddit_services_service&#45;&gt;telereddit_services_gfycat_service</title><style>.edge>path:hover{stroke-width:8}</style>
<path fill="none" stroke="black" d="M517.103,-535.544C495.652,-524.079 465.285,-507.849 440.987,-494.863"/>
<polygon fill="#c50cf3" stroke="black" points="442.472,-491.689 432.003,-490.062 439.172,-497.862 442.472,-491.689"/>
</g>
<!-- telereddit_config_secret_dev&#45;&gt;telereddit_config_secret_prod -->
<g id="edge20" class="edge"><title>telereddit_config_secret_dev&#45;&gt;telereddit_config_secret_prod</title><style>.edge>path:hover{stroke-width:8}</style>
<path fill="none" stroke="black" d="M1206.69,-687.88C1198.73,-678.672 1189.03,-667.432 1180.31,-657.339"/>
<polygon fill="#a731c4" stroke="black" points="1182.77,-654.832 1173.59,-649.551 1177.47,-659.407 1182.77,-654.832"/>
</g>
<!-- telereddit_config_secret_dev&#45;&gt;telereddit_config_secret_github -->
<g id="edge19" class="edge"><title>telereddit_config_secret_dev&#45;&gt;telereddit_config_secret_github</title><style>.edge>path:hover{stroke-width:8}</style>
<path fill="none" stroke="black" d="M1239.31,-687.88C1247.27,-678.672 1256.97,-667.432 1265.69,-657.339"/>
<polygon fill="#a731c4" stroke="black" points="1268.53,-659.407 1272.41,-649.551 1263.23,-654.832 1268.53,-659.407"/>
</g>
<!-- telereddit_services_youtube_service&#45;&gt;telereddit_services_services_wrapper -->
<g id="edge49" class="edge"><title>telereddit_services_youtube_service&#45;&gt;telereddit_services_services_wrapper</title><style>.edge>path:hover{stroke-width:8}</style>
<path fill="none" stroke="black" d="M639.686,-454.15C620.063,-443.283 594.576,-429.167 573.433,-417.459"/>
<polygon fill="#9238a8" stroke="black" points="575.112,-414.387 564.668,-412.604 571.72,-420.511 575.112,-414.387"/>
</g>
<!-- telereddit_services_generic_service&#45;&gt;telereddit_services_services_wrapper -->
<g id="edge38" class="edge"><title>telereddit_services_generic_service&#45;&gt;telereddit_services_services_wrapper</title><style>.edge>path:hover{stroke-width:8}</style>
<path fill="none" stroke="black" d="M533,-451.012C533,-443.153 533,-434.009 533,-425.418"/>
<polygon fill="#993ab0" stroke="black" points="536.5,-425.338 533,-415.338 529.5,-425.338 536.5,-425.338"/>
</g>
<!-- telereddit_content_type -->
<g id="node15" class="node"><title>telereddit_content_type</title><style>.edge>path:hover{stroke-width:8}</style>
<ellipse fill="#cb10f9" stroke="black" cx="653" cy="-629.345" rx="42.9448" ry="18"/>
<text text-anchor="middle" x="653" y="-626.845" font-family="Helvetica,sans-Serif" font-size="10.00" fill="#ffffff">content_type</text>
</g>
<!-- telereddit_content_type&#45;&gt;telereddit_tests_test_services -->
<g id="edge28" class="edge"><title>telereddit_content_type&#45;&gt;telereddit_tests_test_services</title><style>.edge>path:hover{stroke-width:8}</style>
<path fill="none" stroke="black" d="M612.089,-623.525C499.265,-609.101 192,-561.721 192,-473.492 192,-473.492 192,-473.492 192,-393.066 192,-352.444 192,-305.569 192,-275.546"/>
<polygon fill="#cb10f9" stroke="black" points="195.5,-275.289 192,-265.289 188.5,-275.29 195.5,-275.289"/>
</g>
<!-- telereddit_content_type&#45;&gt;telereddit_services_youtube_service -->
<g id="edge26" class="edge"><title>telereddit_content_type&#45;&gt;telereddit_services_youtube_service</title><style>.edge>path:hover{stroke-width:8}</style>
<path fill="none" stroke="black" d="M654.995,-611.182C657.997,-585.359 663.719,-536.131 667.445,-504.072"/>
<polygon fill="#cb10f9" stroke="black" points="670.948,-504.254 668.626,-493.917 663.995,-503.446 670.948,-504.254"/>
</g>
<!-- telereddit_content_type&#45;&gt;telereddit_services_generic_service -->
<g id="edge22" class="edge"><title>telereddit_content_type&#45;&gt;telereddit_services_generic_service</title><style>.edge>path:hover{stroke-width:8}</style>
<path fill="none" stroke="black" d="M644.275,-611.427C633.391,-591.061 613.569,-556.285 592,-529.706 583.348,-519.043 572.776,-508.386 562.983,-499.262"/>
<polygon fill="#cb10f9" stroke="black" points="565.097,-496.453 555.349,-492.304 560.381,-501.627 565.097,-496.453"/>
</g>
<!-- telereddit_content_type&#45;&gt;telereddit_services_vreddit_service -->
<g id="edge25" class="edge"><title>telereddit_content_type&#45;&gt;telereddit_services_vreddit_service</title><style>.edge>path:hover{stroke-width:8}</style>
<path fill="none" stroke="black" d="M668.797,-612.357C695.092,-585.744 748.089,-532.105 779.97,-499.838"/>
<polygon fill="#cb10f9" stroke="black" points="782.667,-502.088 787.206,-492.514 777.688,-497.168 782.667,-502.088"/>
</g>
<!-- telereddit_content_type&#45;&gt;telereddit_reddit -->
<g id="edge21" class="edge"><title>telereddit_content_type&#45;&gt;telereddit_reddit</title><style>.edge>path:hover{stroke-width:8}</style>
<path fill="none" stroke="black" d="M695.914,-627.376C742.844,-624.176 817.898,-612.513 867,-572.132 958.385,-496.979 954.673,-336.098 949.094,-271.907"/>
<polygon fill="#cb10f9" stroke="black" points="952.561,-271.394 948.125,-261.772 945.592,-272.06 952.561,-271.394"/>
</g>
<!-- telereddit_content_type&#45;&gt;telereddit_services_imgur_service -->
<g id="edge24" class="edge"><title>telereddit_content_type&#45;&gt;telereddit_services_imgur_service</title><style>.edge>path:hover{stroke-width:8}</style>
<path fill="none" stroke="black" d="M614.635,-621.192C571.944,-612.514 501.415,-596.019 444,-572.132 394.402,-551.498 341.515,-518.938 308.141,-496.924"/>
<polygon fill="#cb10f9" stroke="black" points="309.942,-493.919 299.678,-491.291 306.063,-499.746 309.942,-493.919"/>
</g>
<!-- telereddit_tests_test_reddit -->
<g id="node23" class="node"><title>telereddit_tests_test_reddit</title><style>.edge>path:hover{stroke-width:8}</style>
<ellipse fill="#9246a4" stroke="black" cx="915" cy="-93.2132" rx="43.6818" ry="21.4286"/>
<text text-anchor="middle" x="915" y="-96.2132" font-family="Helvetica,sans-Serif" font-size="10.00" fill="#ffffff">tests.</text>
<text text-anchor="middle" x="915" y="-85.2132" font-family="Helvetica,sans-Serif" font-size="10.00" fill="#ffffff">test_reddit</text>
</g>
<!-- telereddit_content_type&#45;&gt;telereddit_tests_test_reddit -->
<g id="edge27" class="edge"><title>telereddit_content_type&#45;&gt;telereddit_tests_test_reddit</title><style>.edge>path:hover{stroke-width:8}</style>
<path fill="none" stroke="black" d="M686.142,-617.703C735.104,-600.165 825.931,-560.337 872,-493.706 897.39,-456.983 891,-439.712 891,-395.066 891,-395.066 891,-395.066 891,-242.64 891,-201.31 900.181,-154.327 907.186,-124.494"/>
<polygon fill="#cb10f9" stroke="black" points="910.607,-125.236 909.554,-114.694 903.803,-123.592 910.607,-125.236"/>
</g>
<!-- telereddit_content_type&#45;&gt;telereddit_services_gfycat_service -->
<g id="edge23" class="edge"><title>telereddit_content_type&#45;&gt;telereddit_services_gfycat_service</title><style>.edge>path:hover{stroke-width:8}</style>
<path fill="none" stroke="black" d="M615.92,-620.215C582.649,-611.767 533.44,-596.342 496,-572.132 466.435,-553.014 439.287,-523.009 421.651,-501.109"/>
<polygon fill="#cb10f9" stroke="black" points="424.315,-498.834 415.373,-493.151 418.82,-503.17 424.315,-498.834"/>
</g>
<!-- telereddit_linker -->
<g id="node16" class="node"><title>telereddit_linker</title><style>.edge>path:hover{stroke-width:8}</style>
<ellipse fill="#9238a8" stroke="black" cx="1060" cy="-168.426" rx="27" ry="18"/>
<text text-anchor="middle" x="1060" y="-165.926" font-family="Helvetica,sans-Serif" font-size="10.00" fill="#ffffff">linker</text>
</g>
<!-- telereddit_linker&#45;&gt;telereddit_telereddit -->
<g id="edge35" class="edge"><title>telereddit_linker&#45;&gt;telereddit_telereddit</title><style>.edge>path:hover{stroke-width:8}</style>
<path fill="none" stroke="black" d="M1060,-150.076C1060,-141.596 1060,-131.19 1060,-121.666"/>
<polygon fill="#9238a8" stroke="black" points="1063.5,-121.439 1060,-111.439 1056.5,-121.439 1063.5,-121.439"/>
</g>
<!-- telereddit_services_vreddit_service&#45;&gt;telereddit_services_services_wrapper -->
<g id="edge48" class="edge"><title>telereddit_services_vreddit_service&#45;&gt;telereddit_services_services_wrapper</title><style>.edge>path:hover{stroke-width:8}</style>
<path fill="none" stroke="black" d="M764.111,-458.213C756.438,-455.853 748.49,-453.455 741,-451.279 690.95,-436.74 633.768,-421.375 592.042,-410.391"/>
<polygon fill="#8b35a1" stroke="black" points="592.877,-406.992 582.316,-407.836 591.099,-413.762 592.877,-406.992"/>
</g>
<!-- telereddit_reddit&#45;&gt;telereddit_linker -->
<g id="edge36" class="edge"><title>telereddit_reddit&#45;&gt;telereddit_linker</title><style>.edge>path:hover{stroke-width:8}</style>
<path fill="none" stroke="black" d="M964.825,-230.55C983.307,-218.68 1011.7,-200.446 1032.67,-186.981"/>
<polygon fill="#922bac" stroke="black" points="1034.62,-189.883 1041.15,-181.534 1030.84,-183.993 1034.62,-189.883"/>
</g>
<!-- telereddit_reddit&#45;&gt;telereddit_tests_test_reddit -->
<g id="edge37" class="edge"><title>telereddit_reddit&#45;&gt;telereddit_tests_test_reddit</title><style>.edge>path:hover{stroke-width:8}</style>
<path fill="none" stroke="black" d="M942.444,-225.613C937.294,-200.956 927.681,-154.927 921.31,-124.423"/>
<polygon fill="#922bac" stroke="black" points="924.675,-123.415 919.204,-114.342 917.822,-124.846 924.675,-123.415"/>
</g>
<!-- telereddit_services_imgur_service&#45;&gt;telereddit_services_services_wrapper -->
<g id="edge40" class="edge"><title>telereddit_services_imgur_service&#45;&gt;telereddit_services_services_wrapper</title><style>.edge>path:hover{stroke-width:8}</style>
<path fill="none" stroke="black" d="M314.272,-458.366C321.811,-455.966 329.636,-453.516 337,-451.279 383.37,-437.195 436.196,-422.099 475.313,-411.101"/>
<polygon fill="#9238a8" stroke="black" points="476.268,-414.468 484.95,-408.396 474.376,-407.728 476.268,-414.468"/>
</g>
<!-- telereddit_helpers&#45;&gt;telereddit_telereddit -->
<g id="edge33" class="edge"><title>telereddit_helpers&#45;&gt;telereddit_telereddit</title><style>.edge>path:hover{stroke-width:8}</style>
<path fill="none" stroke="black" d="M942.238,-613.289C964.013,-586.916 1005,-529.794 1005,-473.492 1005,-473.492 1005,-473.492 1005,-242.64 1005,-200.795 1008.23,-189.186 1024,-150.426 1028.55,-139.249 1035.35,-127.865 1041.82,-118.29"/>
<polygon fill="#c006ef" stroke="black" points="1044.72,-120.26 1047.6,-110.065 1038.99,-116.237 1044.72,-120.26"/>
</g>
<!-- telereddit_helpers&#45;&gt;telereddit_services_youtube_service -->
<g id="edge32" class="edge"><title>telereddit_helpers&#45;&gt;telereddit_services_youtube_service</title><style>.edge>path:hover{stroke-width:8}</style>
<path fill="none" stroke="black" d="M909.184,-616.451C866.486,-590.824 765.17,-530.014 709.42,-496.552"/>
<polygon fill="#c006ef" stroke="black" points="710.926,-493.374 700.551,-491.229 707.324,-499.376 710.926,-493.374"/>
</g>
<!-- telereddit_helpers&#45;&gt;telereddit_linker -->
<g id="edge29" class="edge"><title>telereddit_helpers&#45;&gt;telereddit_linker</title><style>.edge>path:hover{stroke-width:8}</style>
<path fill="none" stroke="black" d="M952.969,-619.464C973.571,-610.597 1002.5,-594.98 1019,-572.132 1045.42,-535.558 1043,-518.611 1043,-473.492 1043,-473.492 1043,-473.492 1043,-317.853 1043,-275.349 1049.97,-226.44 1054.98,-196.744"/>
<polygon fill="#c006ef" stroke="black" points="1058.46,-197.171 1056.72,-186.719 1051.56,-195.972 1058.46,-197.171"/>
</g>
<!-- telereddit_helpers&#45;&gt;telereddit_services_vreddit_service -->
<g id="edge31" class="edge"><title>telereddit_helpers&#45;&gt;telereddit_services_vreddit_service</title><style>.edge>path:hover{stroke-width:8}</style>
<path fill="none" stroke="black" d="M916.757,-612.931C896.062,-586.878 853.894,-533.79 827.976,-501.159"/>
<polygon fill="#c006ef" stroke="black" points="830.404,-498.589 821.444,-492.936 824.923,-502.943 830.404,-498.589"/>
</g>
<!-- telereddit_helpers&#45;&gt;telereddit_reddit -->
<g id="edge30" class="edge"><title>telereddit_helpers&#45;&gt;telereddit_reddit</title><style>.edge>path:hover{stroke-width:8}</style>
<path fill="none" stroke="black" d="M935.97,-611.492C946.94,-583.396 967,-524.981 967,-473.492 967,-473.492 967,-473.492 967,-393.066 967,-350.186 958.301,-301.018 952.101,-271.419"/>
<polygon fill="#c006ef" stroke="black" points="955.48,-270.485 949.95,-261.447 948.637,-271.96 955.48,-270.485"/>
</g>
<!-- telereddit_helpers&#45;&gt;telereddit_tests_test_helpers -->
<g id="edge34" class="edge"><title>telereddit_helpers&#45;&gt;telereddit_tests_test_helpers</title><style>.edge>path:hover{stroke-width:8}</style>
<path fill="none" stroke="black" d="M901.24,-625.735C832.313,-619.037 647.952,-599.807 496,-572.132 361.958,-547.719 206.328,-508.05 127.842,-487.237"/>
<polygon fill="#c006ef" stroke="black" points="128.309,-483.739 117.745,-484.55 126.509,-490.504 128.309,-483.739"/>
</g>
<!-- telereddit_services_gfycat_service&#45;&gt;telereddit_services_services_wrapper -->
<g id="edge39" class="edge"><title>telereddit_services_gfycat_service&#45;&gt;telereddit_services_services_wrapper</title><style>.edge>path:hover{stroke-width:8}</style>
<path fill="none" stroke="black" d="M430.623,-454.341C449.163,-443.607 473.272,-429.648 493.437,-417.973"/>
<polygon fill="#9238a8" stroke="black" points="495.198,-420.997 502.099,-412.957 491.691,-414.939 495.198,-420.997"/>
</g>
<!-- telegram -->
<g id="node26" class="node"><title>telegram</title><style>.edge>path:hover{stroke-width:8}</style>
<polygon fill="#43679d" stroke="black" points="1201,-336.853 1198,-340.853 1177,-340.853 1174,-336.853 1147,-336.853 1147,-300.853 1201,-300.853 1201,-336.853"/>
<text text-anchor="middle" x="1174" y="-316.353" font-family="Helvetica,sans-Serif" font-size="10.00" fill="#ffffff">telegram</text>
</g>
<!-- telegram&#45;&gt;telereddit_telereddit -->
<g id="edge14" class="edge"><title>telegram&#45;&gt;telereddit_telereddit</title><style>.edge>path:hover{stroke-width:8}</style>
<path fill="none" stroke="black" d="M1192.42,-300.811C1194.28,-298.258 1195.89,-295.512 1197,-292.64 1209.05,-261.559 1210.55,-248.093 1197,-217.64 1175.58,-169.518 1125.11,-132.269 1091.77,-111.794"/>
<polygon fill="#43679d" stroke="black" points="1093.24,-108.595 1082.86,-106.469 1089.65,-114.604 1093.24,-108.595"/>
</g>
<!-- telegram&#45;&gt;telereddit_linker -->
<g id="edge13" class="edge"><title>telegram&#45;&gt;telereddit_linker</title><style>.edge>path:hover{stroke-width:8}</style>
<path fill="none" stroke="black" d="M1146.8,-315.259C1130.34,-312.313 1110.06,-306.031 1097,-292.64 1071.8,-266.812 1063.67,-224.512 1061.1,-196.817"/>
<polygon fill="#43679d" stroke="black" points="1064.58,-196.346 1060.35,-186.633 1057.6,-196.864 1064.58,-196.346"/>
</g>
</g>
</svg>
