<?xml version="1.0" encoding="UTF-8" standalone="no"?>
<!DOCTYPE svg PUBLIC "-//W3C//DTD SVG 1.1//EN"
 "http://www.w3.org/Graphics/SVG/1.1/DTD/svg11.dtd">
<!-- Generated by graphviz version 2.38.0 (20140413.2041)
 -->
<!-- Title: G Pages: 1 -->
<svg width="1346pt" height="1216pt"
 viewBox="0.00 0.00 1346.00 1215.98" xmlns="http://www.w3.org/2000/svg" xmlns:xlink="http://www.w3.org/1999/xlink">
<g id="graph0" class="graph" transform="scale(1 1) rotate(0) translate(4 1211.98)">
<title>G</title><style>.edge>path:hover{stroke-width:8}</style>
<polygon fill="white" stroke="none" points="-4,4 -4,-1211.98 1342,-1211.98 1342,4 -4,4"/>
<g id="clust1" class="cluster"><title>cluster_chardet</title><style>.edge>path:hover{stroke-width:8}</style>
<polygon fill="none" stroke="black" points="556,-749.132 556,-824.132 630,-824.132 630,-749.132 556,-749.132"/>
<text text-anchor="middle" x="593" y="-808.932" font-family="Times New Roman,serif" font-size="14.00">chardet</text>
</g>
<g id="clust4" class="cluster"><title>cluster_parameterized</title><style>.edge>path:hover{stroke-width:8}</style>
<polygon fill="none" stroke="black" points="1200,-411.492 1200,-568.132 1330,-568.132 1330,-411.492 1200,-411.492"/>
<text text-anchor="middle" x="1265" y="-552.932" font-family="Times New Roman,serif" font-size="14.00">parameterized</text>
</g>
<g id="clust2" class="cluster"><title>cluster_cryptography</title><style>.edge>path:hover{stroke-width:8}</style>
<polygon fill="none" stroke="black" points="497,-1124.98 497,-1199.98 599,-1199.98 599,-1124.98 497,-1124.98"/>
<text text-anchor="middle" x="548" y="-1184.78" font-family="Times New Roman,serif" font-size="14.00">cryptography</text>
</g>
<g id="clust3" class="cluster"><title>cluster_future</title><style>.edge>path:hover{stroke-width:8}</style>
<polygon fill="none" stroke="black" points="51,-1124.98 51,-1199.98 121,-1199.98 121,-1124.98 51,-1124.98"/>
<text text-anchor="middle" x="86" y="-1184.78" font-family="Times New Roman,serif" font-size="14.00">future</text>
</g>
<!-- chardet -->
<g id="node1" class="node"><title>chardet</title><style>.edge>path:hover{stroke-width:8}</style>
<ellipse fill="#b65353" stroke="black" cx="593" cy="-775.132" rx="28.6898" ry="18"/>
<text text-anchor="middle" x="593" y="-772.632" font-family="Helvetica,sans-Serif" font-size="10.00" fill="#ffffff">chardet</text>
</g>
<!-- requests -->
<g id="node28" class="node"><title>requests</title><style>.edge>path:hover{stroke-width:8}</style>
<polygon fill="#039565" stroke="black" points="715,-721.132 712,-725.132 691,-725.132 688,-721.132 661,-721.132 661,-685.132 715,-685.132 715,-721.132"/>
<text text-anchor="middle" x="688" y="-700.632" font-family="Helvetica,sans-Serif" font-size="10.00" fill="#ffffff">requests</text>
</g>
<!-- chardet&#45;&gt;requests -->
<g id="edge1" class="edge"><title>chardet&#45;&gt;requests</title><style>.edge>path:hover{stroke-width:8}</style>
<path fill="none" stroke="black" d="M626.65,-749.337C636.422,-742.137 647.051,-734.305 656.674,-727.214"/>
<polygon fill="#000000" stroke="black" points="658.843,-729.964 664.817,-721.214 654.691,-724.328 658.843,-729.964"/>
</g>
<!-- cryptography -->
<g id="node2" class="node"><title>cryptography</title><style>.edge>path:hover{stroke-width:8}</style>
<ellipse fill="#f3a60c" stroke="black" cx="548" cy="-1150.98" rx="42.9448" ry="18"/>
<text text-anchor="middle" x="548" y="-1148.48" font-family="Helvetica,sans-Serif" font-size="10.00" fill="#000000">cryptography</text>
</g>
<!-- cryptography&#45;&gt;requests -->
<g id="edge2" class="edge"><title>cryptography&#45;&gt;requests</title><style>.edge>path:hover{stroke-width:8}</style>
<path fill="none" stroke="black" d="M594.199,-1125C634.982,-1099.19 688,-1054.79 688,-998.345 688,-998.345 688,-998.345 688,-849.132 688,-808.283 688,-760.961 688,-731.784"/>
<polygon fill="#000000" stroke="black" points="691.5,-731.541 688,-721.542 684.5,-731.542 691.5,-731.541"/>
</g>
<!-- telegram -->
<g id="node30" class="node"><title>telegram</title><style>.edge>path:hover{stroke-width:8}</style>
<polygon fill="#030395" stroke="black" points="113,-940.132 110,-944.132 89,-944.132 86,-940.132 59,-940.132 59,-904.132 113,-904.132 113,-940.132"/>
<text text-anchor="middle" x="86" y="-919.632" font-family="Helvetica,sans-Serif" font-size="10.00" fill="#ffffff">telegram</text>
</g>
<!-- cryptography&#45;&gt;telegram -->
<g id="edge3" class="edge"><title>cryptography&#45;&gt;telegram</title><style>.edge>path:hover{stroke-width:8}</style>
<path fill="none" stroke="black" d="M497.101,-1124.99C403.084,-1078.83 204.331,-981.235 122.44,-941.025"/>
<polygon fill="#000000" stroke="black" points="123.719,-937.754 113.2,-936.488 120.634,-944.037 123.719,-937.754"/>
</g>
<!-- urllib3 -->
<g id="node31" class="node"><title>urllib3</title><style>.edge>path:hover{stroke-width:8}</style>
<polygon fill="#e90c9f" stroke="black" points="575,-868.132 572,-872.132 551,-872.132 548,-868.132 521,-868.132 521,-832.132 575,-832.132 575,-868.132"/>
<text text-anchor="middle" x="548" y="-847.632" font-family="Helvetica,sans-Serif" font-size="10.00" fill="#ffffff">urllib3</text>
</g>
<!-- cryptography&#45;&gt;urllib3 -->
<g id="edge4" class="edge"><title>cryptography&#45;&gt;urllib3</title><style>.edge>path:hover{stroke-width:8}</style>
<path fill="none" stroke="black" d="M548,-1125.02C548,-1069.48 548,-936.109 548,-878.451"/>
<polygon fill="#000000" stroke="black" points="551.5,-878.167 548,-868.167 544.5,-878.167 551.5,-878.167"/>
</g>
<!-- future -->
<g id="node3" class="node"><title>future</title><style>.edge>path:hover{stroke-width:8}</style>
<ellipse fill="#acf910" stroke="black" cx="86" cy="-1150.98" rx="27" ry="18"/>
<text text-anchor="middle" x="86" y="-1148.48" font-family="Helvetica,sans-Serif" font-size="10.00" fill="#000000">future</text>
</g>
<!-- future&#45;&gt;telegram -->
<g id="edge5" class="edge"><title>future&#45;&gt;telegram</title><style>.edge>path:hover{stroke-width:8}</style>
<path fill="none" stroke="black" d="M86,-1125.25C86,-1082.48 86,-995.06 86,-950.524"/>
<polygon fill="#000000" stroke="black" points="89.5001,-950.381 86,-940.381 82.5001,-950.381 89.5001,-950.381"/>
</g>
<!-- parameterized -->
<g id="node4" class="node"><title>parameterized</title><style>.edge>path:hover{stroke-width:8}</style>
<ellipse fill="#40c040" stroke="black" cx="1265" cy="-437.492" rx="45.8316" ry="18"/>
<text text-anchor="middle" x="1265" y="-434.992" font-family="Helvetica,sans-Serif" font-size="10.00" fill="#000000">parameterized</text>
</g>
<!-- telereddit_tests_test_helpers -->
<g id="node25" class="node"><title>telereddit_tests_test_helpers</title><style>.edge>path:hover{stroke-width:8}</style>
<ellipse fill="#7f439d" stroke="black" cx="1265" cy="-243.64" rx="49.4949" ry="21.4286"/>
<text text-anchor="middle" x="1265" y="-246.64" font-family="Helvetica,sans-Serif" font-size="10.00" fill="#ffffff">tests.</text>
<text text-anchor="middle" x="1265" y="-235.64" font-family="Helvetica,sans-Serif" font-size="10.00" fill="#ffffff">test_helpers</text>
</g>
<!-- parameterized&#45;&gt;telereddit_tests_test_helpers -->
<g id="edge6" class="edge"><title>parameterized&#45;&gt;telereddit_tests_test_helpers</title><style>.edge>path:hover{stroke-width:8}</style>
<path fill="none" stroke="black" d="M1265,-411.496C1265,-376.512 1265,-313.005 1265,-275.238"/>
<polygon fill="#000000" stroke="black" points="1268.5,-275.056 1265,-265.056 1261.5,-275.056 1268.5,-275.056"/>
</g>
<!-- telereddit_tests_test_services -->
<g id="node27" class="node"><title>telereddit_tests_test_services</title><style>.edge>path:hover{stroke-width:8}</style>
<ellipse fill="#794096" stroke="black" cx="988" cy="-243.64" rx="52.1524" ry="21.4286"/>
<text text-anchor="middle" x="988" y="-246.64" font-family="Helvetica,sans-Serif" font-size="10.00" fill="#ffffff">tests.</text>
<text text-anchor="middle" x="988" y="-235.64" font-family="Helvetica,sans-Serif" font-size="10.00" fill="#ffffff">test_services</text>
</g>
<!-- parameterized&#45;&gt;telereddit_tests_test_services -->
<g id="edge7" class="edge"><title>parameterized&#45;&gt;telereddit_tests_test_services</title><style>.edge>path:hover{stroke-width:8}</style>
<path fill="none" stroke="black" d="M1228.91,-411.499C1175.11,-374.234 1074.58,-304.603 1022.01,-268.193"/>
<polygon fill="#000000" stroke="black" points="1023.81,-265.183 1013.59,-262.366 1019.82,-270.937 1023.81,-265.183"/>
</g>
<!-- parameterized_parameterized -->
<g id="node5" class="node"><title>parameterized_parameterized</title><style>.edge>path:hover{stroke-width:8}</style>
<ellipse fill="#3bce3b" stroke="black" cx="1265" cy="-515.919" rx="57.0522" ry="21.4286"/>
<text text-anchor="middle" x="1265" y="-518.919" font-family="Helvetica,sans-Serif" font-size="10.00" fill="#000000">parameterized.</text>
<text text-anchor="middle" x="1265" y="-507.919" font-family="Helvetica,sans-Serif" font-size="10.00" fill="#000000">parameterized</text>
</g>
<!-- parameterized_parameterized&#45;&gt;parameterized -->
<g id="edge8" class="edge"><title>parameterized_parameterized&#45;&gt;parameterized</title><style>.edge>path:hover{stroke-width:8}</style>
<path fill="none" stroke="black" d="M1265,-494.438C1265,-485.7 1265,-475.372 1265,-465.984"/>
<polygon fill="#000000" stroke="black" points="1268.5,-465.918 1265,-455.918 1261.5,-465.918 1268.5,-465.918"/>
</g>
<!-- parameterized_parameterized&#45;&gt;telereddit_tests_test_helpers -->
<g id="edge9" class="edge"><title>parameterized_parameterized&#45;&gt;telereddit_tests_test_helpers</title><style>.edge>path:hover{stroke-width:8}</style>
<path fill="none" stroke="black" d="M1328.81,-411.496C1328.98,-359.091 1302.35,-304.832 1283.45,-272.938"/>
<polygon fill="#000000" stroke="black" points="1286.44,-271.116 1278.25,-264.394 1280.46,-274.756 1286.44,-271.116"/>
</g>
<!-- parameterized_parameterized&#45;&gt;telereddit_tests_test_services -->
<g id="edge10" class="edge"><title>parameterized_parameterized&#45;&gt;telereddit_tests_test_services</title><style>.edge>path:hover{stroke-width:8}</style>
<path fill="none" stroke="black" d="M1200.43,-446.863C1191.14,-434.156 1187.68,-425.528 1172,-411.492 1152.76,-394.271 1143.12,-396.464 1123,-380.279 1080.64,-346.205 1037.28,-300.279 1011.51,-271.57"/>
<polygon fill="#000000" stroke="black" points="1013.98,-269.09 1004.72,-263.954 1008.76,-273.748 1013.98,-269.09"/>
</g>
<!-- telereddit___main__ -->
<g id="node6" class="node"><title>telereddit___main__</title><style>.edge>path:hover{stroke-width:8}</style>
<ellipse fill="#8b49ac" stroke="black" cx="125" cy="-18" rx="34.9638" ry="18"/>
<text text-anchor="middle" x="125" y="-15.5" font-family="Helvetica,sans-Serif" font-size="10.00" fill="#ffffff">__main__</text>
</g>
<!-- telereddit_config_config -->
<g id="node7" class="node"><title>telereddit_config_config</title><style>.edge>path:hover{stroke-width:8}</style>
<ellipse fill="#a806f9" stroke="black" cx="190" cy="-703.132" rx="41.5911" ry="18"/>
<text text-anchor="middle" x="190" y="-700.632" font-family="Helvetica,sans-Serif" font-size="10.00" fill="#ffffff">config.config</text>
</g>
<!-- telereddit_helpers -->
<g id="node14" class="node"><title>telereddit_helpers</title><style>.edge>path:hover{stroke-width:8}</style>
<ellipse fill="#9b05e5" stroke="black" cx="314" cy="-594.132" rx="28.0137" ry="18"/>
<text text-anchor="middle" x="314" y="-591.632" font-family="Helvetica,sans-Serif" font-size="10.00" fill="#ffffff">helpers</text>
</g>
<!-- telereddit_config_config&#45;&gt;telereddit_helpers -->
<g id="edge21" class="edge"><title>telereddit_config_config&#45;&gt;telereddit_helpers</title><style>.edge>path:hover{stroke-width:8}</style>
<path fill="none" stroke="black" d="M207.766,-686.802C229.426,-668.111 266.114,-636.453 290.2,-615.669"/>
<polygon fill="#a806f9" stroke="black" points="292.56,-618.255 297.845,-609.072 287.987,-612.956 292.56,-618.255"/>
</g>
<!-- telereddit_linker -->
<g id="node15" class="node"><title>telereddit_linker</title><style>.edge>path:hover{stroke-width:8}</style>
<ellipse fill="#7d35a1" stroke="black" cx="125" cy="-168.426" rx="27" ry="18"/>
<text text-anchor="middle" x="125" y="-165.926" font-family="Helvetica,sans-Serif" font-size="10.00" fill="#ffffff">linker</text>
</g>
<!-- telereddit_config_config&#45;&gt;telereddit_linker -->
<g id="edge22" class="edge"><title>telereddit_config_config&#45;&gt;telereddit_linker</title><style>.edge>path:hover{stroke-width:8}</style>
<path fill="none" stroke="black" d="M160.035,-690.244C140.791,-681.343 116.416,-667.535 100,-649.132 82.5168,-629.533 76,-621.396 76,-595.132 76,-595.132 76,-595.132 76,-436.492 76,-347.089 102.894,-243.574 116.833,-195.926"/>
<polygon fill="#a806f9" stroke="black" points="120.258,-196.687 119.756,-186.104 113.549,-194.69 120.258,-196.687"/>
</g>
<!-- telereddit_reddit -->
<g id="node16" class="node"><title>telereddit_reddit</title><style>.edge>path:hover{stroke-width:8}</style>
<ellipse fill="#7a28a3" stroke="black" cx="342" cy="-243.64" rx="27" ry="18"/>
<text text-anchor="middle" x="342" y="-241.14" font-family="Helvetica,sans-Serif" font-size="10.00" fill="#ffffff">reddit</text>
</g>
<!-- telereddit_config_config&#45;&gt;telereddit_reddit -->
<g id="edge23" class="edge"><title>telereddit_config_config&#45;&gt;telereddit_reddit</title><style>.edge>path:hover{stroke-width:8}</style>
<path fill="none" stroke="black" d="M190,-685.083C190,-663.968 190,-626.898 190,-595.132 190,-595.132 190,-595.132 190,-514.919 190,-410.301 277.59,-308.768 319.789,-265.922"/>
<polygon fill="#a806f9" stroke="black" points="322.267,-268.394 326.87,-258.852 317.321,-263.441 322.267,-268.394"/>
</g>
<!-- telereddit_services_gfycat_service -->
<g id="node18" class="node"><title>telereddit_services_gfycat_service</title><style>.edge>path:hover{stroke-width:8}</style>
<ellipse fill="#7d35a1" stroke="black" cx="1108" cy="-437.492" rx="55.3091" ry="21.4286"/>
<text text-anchor="middle" x="1108" y="-440.492" font-family="Helvetica,sans-Serif" font-size="10.00" fill="#ffffff">services.</text>
<text text-anchor="middle" x="1108" y="-429.492" font-family="Helvetica,sans-Serif" font-size="10.00" fill="#ffffff">gfycat_service</text>
</g>
<!-- telereddit_config_config&#45;&gt;telereddit_services_gfycat_service -->
<g id="edge24" class="edge"><title>telereddit_config_config&#45;&gt;telereddit_services_gfycat_service</title><style>.edge>path:hover{stroke-width:8}</style>
<path fill="none" stroke="black" d="M230.19,-698.113C352.199,-685.657 716.938,-646.471 831,-612.132 877.106,-598.252 888.307,-592.218 930,-568.132 985.011,-536.353 1043.61,-491.205 1077.95,-463.435"/>
<polygon fill="#a806f9" stroke="black" points="1080.18,-466.133 1085.73,-457.107 1075.77,-460.703 1080.18,-466.133"/>
</g>
<!-- telereddit_services_imgur_service -->
<g id="node19" class="node"><title>telereddit_services_imgur_service</title><style>.edge>path:hover{stroke-width:8}</style>
<ellipse fill="#7d35a1" stroke="black" cx="981" cy="-437.492" rx="53.9813" ry="21.4286"/>
<text text-anchor="middle" x="981" y="-440.492" font-family="Helvetica,sans-Serif" font-size="10.00" fill="#ffffff">services.</text>
<text text-anchor="middle" x="981" y="-429.492" font-family="Helvetica,sans-Serif" font-size="10.00" fill="#ffffff">imgur_service</text>
</g>
<!-- telereddit_config_config&#45;&gt;telereddit_services_imgur_service -->
<g id="edge25" class="edge"><title>telereddit_config_config&#45;&gt;telereddit_services_imgur_service</title><style>.edge>path:hover{stroke-width:8}</style>
<path fill="none" stroke="black" d="M230.272,-698.119C360.75,-684.541 769.843,-637.275 881,-568.132 920.203,-543.747 949.914,-498.119 966.398,-468.02"/>
<polygon fill="#a806f9" stroke="black" points="969.674,-469.313 971.28,-458.84 963.494,-466.026 969.674,-469.313"/>
</g>
<!-- telereddit_telereddit -->
<g id="node24" class="node"><title>telereddit_telereddit</title><style>.edge>path:hover{stroke-width:8}</style>
<ellipse fill="#592673" stroke="black" cx="125" cy="-93.2132" rx="32.9303" ry="18"/>
<text text-anchor="middle" x="125" y="-90.7132" font-family="Helvetica,sans-Serif" font-size="10.00" fill="#ffffff">telereddit</text>
</g>
<!-- telereddit_config_config&#45;&gt;telereddit_telereddit -->
<g id="edge26" class="edge"><title>telereddit_config_config&#45;&gt;telereddit_telereddit</title><style>.edge>path:hover{stroke-width:8}</style>
<path fill="none" stroke="black" d="M170.032,-687.133C147.514,-668.342 114,-633.867 114,-595.132 114,-595.132 114,-595.132 114,-436.492 114,-324.798 94.5625,-297.982 89,-186.426 88.2032,-170.446 84.5045,-165.782 89,-150.426 92.3905,-138.845 98.9786,-127.386 105.602,-117.864"/>
<polygon fill="#a806f9" stroke="black" points="108.491,-119.844 111.604,-109.717 102.855,-115.692 108.491,-119.844"/>
</g>
<!-- telereddit_config_secret -->
<g id="node8" class="node"><title>telereddit_config_secret</title><style>.edge>path:hover{stroke-width:8}</style>
<ellipse fill="#a522e7" stroke="black" cx="871" cy="-1150.98" rx="42.2678" ry="18"/>
<text text-anchor="middle" x="871" y="-1148.48" font-family="Helvetica,sans-Serif" font-size="10.00" fill="#ffffff">config.secret</text>
</g>
<!-- telereddit_config_secret_dev -->
<g id="node9" class="node"><title>telereddit_config_secret_dev</title><style>.edge>path:hover{stroke-width:8}</style>
<ellipse fill="#9331c4" stroke="black" cx="930" cy="-1075.77" rx="44.5955" ry="21.4286"/>
<text text-anchor="middle" x="930" y="-1078.77" font-family="Helvetica,sans-Serif" font-size="10.00" fill="#ffffff">config.</text>
<text text-anchor="middle" x="930" y="-1067.77" font-family="Helvetica,sans-Serif" font-size="10.00" fill="#ffffff">secret_dev</text>
</g>
<!-- telereddit_config_secret&#45;&gt;telereddit_config_secret_dev -->
<g id="edge27" class="edge"><title>telereddit_config_secret&#45;&gt;telereddit_config_secret_dev</title><style>.edge>path:hover{stroke-width:8}</style>
<path fill="none" stroke="black" d="M884.094,-1133.74C891.22,-1124.89 900.218,-1113.73 908.355,-1103.63"/>
<polygon fill="#a522e7" stroke="black" points="911.096,-1105.81 914.645,-1095.83 905.645,-1101.42 911.096,-1105.81"/>
</g>
<!-- telereddit_config_secret_generic -->
<g id="node10" class="node"><title>telereddit_config_secret_generic</title><style>.edge>path:hover{stroke-width:8}</style>
<ellipse fill="#8b49ac" stroke="black" cx="811" cy="-1075.77" rx="56.6372" ry="21.4286"/>
<text text-anchor="middle" x="811" y="-1078.77" font-family="Helvetica,sans-Serif" font-size="10.00" fill="#ffffff">config.</text>
<text text-anchor="middle" x="811" y="-1067.77" font-family="Helvetica,sans-Serif" font-size="10.00" fill="#ffffff">secret_generic</text>
</g>
<!-- telereddit_config_secret&#45;&gt;telereddit_config_secret_generic -->
<g id="edge28" class="edge"><title>telereddit_config_secret&#45;&gt;telereddit_config_secret_generic</title><style>.edge>path:hover{stroke-width:8}</style>
<path fill="none" stroke="black" d="M857.684,-1133.74C850.617,-1125.11 841.74,-1114.28 833.628,-1104.38"/>
<polygon fill="#a522e7" stroke="black" points="836.097,-1101.87 827.052,-1096.36 830.683,-1106.31 836.097,-1101.87"/>
</g>
<!-- telereddit_config_secret_github -->
<g id="node11" class="node"><title>telereddit_config_secret_github</title><style>.edge>path:hover{stroke-width:8}</style>
<ellipse fill="#8546a4" stroke="black" cx="826" cy="-997.345" rx="53.066" ry="21.4286"/>
<text text-anchor="middle" x="826" y="-1000.35" font-family="Helvetica,sans-Serif" font-size="10.00" fill="#ffffff">config.</text>
<text text-anchor="middle" x="826" y="-989.345" font-family="Helvetica,sans-Serif" font-size="10.00" fill="#ffffff">secret_github</text>
</g>
<!-- telereddit_config_secret&#45;&gt;telereddit_config_secret_github -->
<g id="edge29" class="edge"><title>telereddit_config_secret&#45;&gt;telereddit_config_secret_github</title><style>.edge>path:hover{stroke-width:8}</style>
<path fill="none" stroke="black" d="M830.912,-1144.84C801.672,-1138.75 763.974,-1125.55 745,-1096.98 734.567,-1081.28 736.258,-1071.27 745,-1054.56 753.017,-1039.24 767.322,-1027.25 781.704,-1018.36"/>
<polygon fill="#a522e7" stroke="black" points="783.7,-1021.25 790.612,-1013.22 780.201,-1015.18 783.7,-1021.25"/>
</g>
<!-- telereddit_config_secret_prod -->
<g id="node12" class="node"><title>telereddit_config_secret_prod</title><style>.edge>path:hover{stroke-width:8}</style>
<ellipse fill="#8546a4" stroke="black" cx="966" cy="-997.345" rx="48.1667" ry="21.4286"/>
<text text-anchor="middle" x="966" y="-1000.35" font-family="Helvetica,sans-Serif" font-size="10.00" fill="#ffffff">config.</text>
<text text-anchor="middle" x="966" y="-989.345" font-family="Helvetica,sans-Serif" font-size="10.00" fill="#ffffff">secret_prod</text>
</g>
<!-- telereddit_config_secret&#45;&gt;telereddit_config_secret_prod -->
<g id="edge30" class="edge"><title>telereddit_config_secret&#45;&gt;telereddit_config_secret_prod</title><style>.edge>path:hover{stroke-width:8}</style>
<path fill="none" stroke="black" d="M909.278,-1143.05C935.228,-1136.13 967.671,-1122.68 984,-1096.98 997.219,-1076.18 990.311,-1048.22 981.496,-1027.38"/>
<polygon fill="#a522e7" stroke="black" points="984.58,-1025.71 977.236,-1018.07 978.214,-1028.62 984.58,-1025.71"/>
</g>
<!-- telereddit_config_secret_dev&#45;&gt;telereddit_config_secret_github -->
<g id="edge31" class="edge"><title>telereddit_config_secret_dev&#45;&gt;telereddit_config_secret_github</title><style>.edge>path:hover{stroke-width:8}</style>
<path fill="none" stroke="black" d="M906.66,-1057.62C892.512,-1047.22 874.247,-1033.8 858.676,-1022.36"/>
<polygon fill="#9331c4" stroke="black" points="860.477,-1019.34 850.346,-1016.24 856.332,-1024.98 860.477,-1019.34"/>
</g>
<!-- telereddit_config_secret_dev&#45;&gt;telereddit_config_secret_prod -->
<g id="edge32" class="edge"><title>telereddit_config_secret_dev&#45;&gt;telereddit_config_secret_prod</title><style>.edge>path:hover{stroke-width:8}</style>
<path fill="none" stroke="black" d="M939.459,-1054.69C943.386,-1046.35 948.019,-1036.52 952.306,-1027.42"/>
<polygon fill="#9331c4" stroke="black" points="955.51,-1028.83 956.605,-1018.29 949.177,-1025.85 955.51,-1028.83"/>
</g>
<!-- telereddit_content_type -->
<g id="node13" class="node"><title>telereddit_content_type</title><style>.edge>path:hover{stroke-width:8}</style>
<ellipse fill="#ac10f9" stroke="black" cx="611" cy="-594.132" rx="42.9448" ry="18"/>
<text text-anchor="middle" x="611" y="-591.632" font-family="Helvetica,sans-Serif" font-size="10.00" fill="#ffffff">content_type</text>
</g>
<!-- telereddit_content_type&#45;&gt;telereddit_reddit -->
<g id="edge33" class="edge"><title>telereddit_content_type&#45;&gt;telereddit_reddit</title><style>.edge>path:hover{stroke-width:8}</style>
<path fill="none" stroke="black" d="M569.176,-589.426C536.175,-585.736 493.524,-579.025 480,-568.132 430.813,-528.513 371.001,-341.666 349.86,-271.423"/>
<polygon fill="#ac10f9" stroke="black" points="353.13,-270.143 346.916,-261.562 346.423,-272.146 353.13,-270.143"/>
</g>
<!-- telereddit_services_generic_service -->
<g id="node17" class="node"><title>telereddit_services_generic_service</title><style>.edge>path:hover{stroke-width:8}</style>
<ellipse fill="#893ab0" stroke="black" cx="851" cy="-437.492" rx="58.8803" ry="21.4286"/>
<text text-anchor="middle" x="851" y="-440.492" font-family="Helvetica,sans-Serif" font-size="10.00" fill="#ffffff">services.</text>
<text text-anchor="middle" x="851" y="-429.492" font-family="Helvetica,sans-Serif" font-size="10.00" fill="#ffffff">generic_service</text>
</g>
<!-- telereddit_content_type&#45;&gt;telereddit_services_generic_service -->
<g id="edge34" class="edge"><title>telereddit_content_type&#45;&gt;telereddit_services_generic_service</title><style>.edge>path:hover{stroke-width:8}</style>
<path fill="none" stroke="black" d="M640.647,-580.881C648.472,-577.187 656.751,-572.847 664,-568.132 705.85,-540.916 708.027,-523.225 749,-494.706 767.54,-481.801 789.323,-469.454 807.989,-459.635"/>
<polygon fill="#ac10f9" stroke="black" points="809.608,-462.738 816.874,-455.027 806.385,-456.524 809.608,-462.738"/>
</g>
<!-- telereddit_content_type&#45;&gt;telereddit_services_gfycat_service -->
<g id="edge35" class="edge"><title>telereddit_content_type&#45;&gt;telereddit_services_gfycat_service</title><style>.edge>path:hover{stroke-width:8}</style>
<path fill="none" stroke="black" d="M653.548,-591.469C718.673,-588.54 839.857,-581.469 881,-568.132 941.927,-548.381 949.326,-526.369 1005,-494.706 1025.54,-483.022 1048.62,-470.383 1067.72,-460.054"/>
<polygon fill="#ac10f9" stroke="black" points="1069.6,-463.013 1076.74,-455.184 1066.28,-456.852 1069.6,-463.013"/>
</g>
<!-- telereddit_content_type&#45;&gt;telereddit_services_imgur_service -->
<g id="edge36" class="edge"><title>telereddit_content_type&#45;&gt;telereddit_services_imgur_service</title><style>.edge>path:hover{stroke-width:8}</style>
<path fill="none" stroke="black" d="M653.932,-593.087C712.691,-592.27 814.374,-587.923 845,-568.132 876.763,-547.606 861.445,-521.632 888,-494.706 902.195,-480.312 920.801,-468.119 937.638,-458.806"/>
<polygon fill="#ac10f9" stroke="black" points="939.596,-461.729 946.771,-453.933 936.301,-455.553 939.596,-461.729"/>
</g>
<!-- telereddit_services_vreddit_service -->
<g id="node22" class="node"><title>telereddit_services_vreddit_service</title><style>.edge>path:hover{stroke-width:8}</style>
<ellipse fill="#7d35a1" stroke="black" cx="718" cy="-437.492" rx="56.6372" ry="21.4286"/>
<text text-anchor="middle" x="718" y="-440.492" font-family="Helvetica,sans-Serif" font-size="10.00" fill="#ffffff">services.</text>
<text text-anchor="middle" x="718" y="-429.492" font-family="Helvetica,sans-Serif" font-size="10.00" fill="#ffffff">vreddit_service</text>
</g>
<!-- telereddit_content_type&#45;&gt;telereddit_services_vreddit_service -->
<g id="edge37" class="edge"><title>telereddit_content_type&#45;&gt;telereddit_services_vreddit_service</title><style>.edge>path:hover{stroke-width:8}</style>
<path fill="none" stroke="black" d="M620.757,-576.39C632.528,-556.5 653.208,-522.512 673,-494.706 679.882,-485.037 687.849,-474.808 695.149,-465.765"/>
<polygon fill="#ac10f9" stroke="black" points="698.003,-467.803 701.615,-457.843 692.58,-463.377 698.003,-467.803"/>
</g>
<!-- telereddit_services_youtube_service -->
<g id="node23" class="node"><title>telereddit_services_youtube_service</title><style>.edge>path:hover{stroke-width:8}</style>
<ellipse fill="#8338a8" stroke="black" cx="583" cy="-437.492" rx="60.623" ry="21.4286"/>
<text text-anchor="middle" x="583" y="-440.492" font-family="Helvetica,sans-Serif" font-size="10.00" fill="#ffffff">services.</text>
<text text-anchor="middle" x="583" y="-429.492" font-family="Helvetica,sans-Serif" font-size="10.00" fill="#ffffff">youtube_service</text>
</g>
<!-- telereddit_content_type&#45;&gt;telereddit_services_youtube_service -->
<g id="edge38" class="edge"><title>telereddit_content_type&#45;&gt;telereddit_services_youtube_service</title><style>.edge>path:hover{stroke-width:8}</style>
<path fill="none" stroke="black" d="M607.897,-575.992C603.227,-550.205 594.326,-501.044 588.529,-469.03"/>
<polygon fill="#ac10f9" stroke="black" points="591.919,-468.105 586.693,-458.889 585.031,-469.353 591.919,-468.105"/>
</g>
<!-- telereddit_tests_test_reddit -->
<g id="node26" class="node"><title>telereddit_tests_test_reddit</title><style>.edge>path:hover{stroke-width:8}</style>
<ellipse fill="#8546a4" stroke="black" cx="418" cy="-93.2132" rx="43.6818" ry="21.4286"/>
<text text-anchor="middle" x="418" y="-96.2132" font-family="Helvetica,sans-Serif" font-size="10.00" fill="#ffffff">tests.</text>
<text text-anchor="middle" x="418" y="-85.2132" font-family="Helvetica,sans-Serif" font-size="10.00" fill="#ffffff">test_reddit</text>
</g>
<!-- telereddit_content_type&#45;&gt;telereddit_tests_test_reddit -->
<g id="edge39" class="edge"><title>telereddit_content_type&#45;&gt;telereddit_tests_test_reddit</title><style>.edge>path:hover{stroke-width:8}</style>
<path fill="none" stroke="black" d="M568.165,-591.687C549.012,-588.878 527.529,-582.407 513,-568.132 478.804,-534.533 456,-408.007 456,-360.066 456,-360.066 456,-360.066 456,-242.64 456,-200.524 441.464,-153.728 430.373,-124.151"/>
<polygon fill="#ac10f9" stroke="black" points="433.491,-122.51 426.623,-114.443 426.961,-125.032 433.491,-122.51"/>
</g>
<!-- telereddit_content_type&#45;&gt;telereddit_tests_test_services -->
<g id="edge40" class="edge"><title>telereddit_content_type&#45;&gt;telereddit_tests_test_services</title><style>.edge>path:hover{stroke-width:8}</style>
<path fill="none" stroke="black" d="M591.576,-578.057C552.628,-545.991 472.084,-469.232 513,-411.492 608.002,-277.428 819.621,-250.285 925.355,-245.325"/>
<polygon fill="#ac10f9" stroke="black" points="925.711,-248.813 935.557,-244.9 925.42,-241.819 925.711,-248.813"/>
</g>
<!-- telereddit_helpers&#45;&gt;telereddit_linker -->
<g id="edge41" class="edge"><title>telereddit_helpers&#45;&gt;telereddit_linker</title><style>.edge>path:hover{stroke-width:8}</style>
<path fill="none" stroke="black" d="M288.28,-586.175C276.466,-582.159 262.73,-576.264 252,-568.132 194.006,-524.18 152,-511.26 152,-438.492 152,-438.492 152,-438.492 152,-300.853 152,-263.838 141.597,-222.136 133.706,-195.828"/>
<polygon fill="#9b05e5" stroke="black" points="137.029,-194.729 130.726,-186.212 130.343,-196.8 137.029,-194.729"/>
</g>
<!-- telereddit_helpers&#45;&gt;telereddit_reddit -->
<g id="edge42" class="edge"><title>telereddit_helpers&#45;&gt;telereddit_reddit</title><style>.edge>path:hover{stroke-width:8}</style>
<path fill="none" stroke="black" d="M312.166,-575.993C309.279,-547.491 304,-488.532 304,-438.492 304,-438.492 304,-438.492 304,-358.066 304,-326.588 317.321,-292.623 328.189,-270.151"/>
<polygon fill="#9b05e5" stroke="black" points="331.437,-271.481 332.801,-260.974 325.183,-268.337 331.437,-271.481"/>
</g>
<!-- telereddit_helpers&#45;&gt;telereddit_services_vreddit_service -->
<g id="edge43" class="edge"><title>telereddit_helpers&#45;&gt;telereddit_services_vreddit_service</title><style>.edge>path:hover{stroke-width:8}</style>
<path fill="none" stroke="black" d="M341.62,-589.174C366.241,-585.224 403.061,-578.276 434,-568.132 524.312,-538.523 624.153,-488.65 678.094,-460.167"/>
<polygon fill="#9b05e5" stroke="black" points="679.793,-463.227 686.984,-455.446 676.51,-457.045 679.793,-463.227"/>
</g>
<!-- telereddit_helpers&#45;&gt;telereddit_services_youtube_service -->
<g id="edge44" class="edge"><title>telereddit_helpers&#45;&gt;telereddit_services_youtube_service</title><style>.edge>path:hover{stroke-width:8}</style>
<path fill="none" stroke="black" d="M334.219,-581.509C378.639,-555.973 485.409,-494.594 543.589,-461.149"/>
<polygon fill="#9b05e5" stroke="black" points="545.567,-464.049 552.492,-456.031 542.078,-457.98 545.567,-464.049"/>
</g>
<!-- telereddit_helpers&#45;&gt;telereddit_telereddit -->
<g id="edge45" class="edge"><title>telereddit_helpers&#45;&gt;telereddit_telereddit</title><style>.edge>path:hover{stroke-width:8}</style>
<path fill="none" stroke="black" d="M302.11,-577.707C271.074,-535.85 190,-415.622 190,-301.853 190,-301.853 190,-301.853 190,-242.64 190,-195.679 162.361,-146.85 143.129,-118.558"/>
<polygon fill="#9b05e5" stroke="black" points="145.827,-116.308 137.226,-110.122 140.092,-120.322 145.827,-116.308"/>
</g>
<!-- telereddit_helpers&#45;&gt;telereddit_tests_test_helpers -->
<g id="edge46" class="edge"><title>telereddit_helpers&#45;&gt;telereddit_tests_test_helpers</title><style>.edge>path:hover{stroke-width:8}</style>
<path fill="none" stroke="black" d="M320.392,-576.506C330.631,-550.142 350.153,-501.066 356,-494.706 409.447,-436.566 439.638,-440.727 513,-411.492 760.654,-312.803 1078.62,-266.636 1207.21,-251.037"/>
<polygon fill="#9b05e5" stroke="black" points="1207.72,-254.501 1217.23,-249.836 1206.89,-247.55 1207.72,-254.501"/>
</g>
<!-- telereddit_linker&#45;&gt;telereddit_telereddit -->
<g id="edge47" class="edge"><title>telereddit_linker&#45;&gt;telereddit_telereddit</title><style>.edge>path:hover{stroke-width:8}</style>
<path fill="none" stroke="black" d="M125,-150.076C125,-141.596 125,-131.19 125,-121.666"/>
<polygon fill="#7d35a1" stroke="black" points="128.5,-121.439 125,-111.439 121.5,-121.439 128.5,-121.439"/>
</g>
<!-- telereddit_reddit&#45;&gt;telereddit_linker -->
<g id="edge48" class="edge"><title>telereddit_reddit&#45;&gt;telereddit_linker</title><style>.edge>path:hover{stroke-width:8}</style>
<path fill="none" stroke="black" d="M318.364,-234.665C279.639,-221.6 202.567,-195.597 158.316,-180.667"/>
<polygon fill="#7a28a3" stroke="black" points="159.201,-177.272 148.607,-177.391 156.963,-183.904 159.201,-177.272"/>
</g>
<!-- telereddit_reddit&#45;&gt;telereddit_tests_test_reddit -->
<g id="edge49" class="edge"><title>telereddit_reddit&#45;&gt;telereddit_tests_test_reddit</title><style>.edge>path:hover{stroke-width:8}</style>
<path fill="none" stroke="black" d="M350.278,-226.473C362.969,-201.688 387.418,-153.938 403.207,-123.104"/>
<polygon fill="#7a28a3" stroke="black" points="406.363,-124.619 407.806,-114.122 400.133,-121.428 406.363,-124.619"/>
</g>
<!-- telereddit_services_services_wrapper -->
<g id="node21" class="node"><title>telereddit_services_services_wrapper</title><style>.edge>path:hover{stroke-width:8}</style>
<ellipse fill="#7a28a3" stroke="black" cx="851" cy="-359.066" rx="64.1938" ry="21.4286"/>
<text text-anchor="middle" x="851" y="-362.066" font-family="Helvetica,sans-Serif" font-size="10.00" fill="#ffffff">services.</text>
<text text-anchor="middle" x="851" y="-351.066" font-family="Helvetica,sans-Serif" font-size="10.00" fill="#ffffff">services_wrapper</text>
</g>
<!-- telereddit_services_generic_service&#45;&gt;telereddit_services_services_wrapper -->
<g id="edge50" class="edge"><title>telereddit_services_generic_service&#45;&gt;telereddit_services_services_wrapper</title><style>.edge>path:hover{stroke-width:8}</style>
<path fill="none" stroke="black" d="M851,-416.012C851,-408.153 851,-399.009 851,-390.418"/>
<polygon fill="#893ab0" stroke="black" points="854.5,-390.338 851,-380.338 847.5,-390.338 854.5,-390.338"/>
</g>
<!-- telereddit_services_gfycat_service&#45;&gt;telereddit_services_services_wrapper -->
<g id="edge51" class="edge"><title>telereddit_services_gfycat_service&#45;&gt;telereddit_services_services_wrapper</title><style>.edge>path:hover{stroke-width:8}</style>
<path fill="none" stroke="black" d="M1071.7,-421.501C1062.72,-418.017 1053.07,-414.462 1044,-411.492 1000.44,-397.23 950.404,-383.985 912.197,-374.51"/>
<polygon fill="#7d35a1" stroke="black" points="912.798,-371.053 902.251,-372.062 911.125,-377.85 912.798,-371.053"/>
</g>
<!-- telereddit_services_imgur_service&#45;&gt;telereddit_services_services_wrapper -->
<g id="edge52" class="edge"><title>telereddit_services_imgur_service&#45;&gt;telereddit_services_services_wrapper</title><style>.edge>path:hover{stroke-width:8}</style>
<path fill="none" stroke="black" d="M952.149,-419.531C933.986,-408.853 910.301,-394.929 890.417,-383.239"/>
<polygon fill="#7d35a1" stroke="black" points="891.976,-380.096 881.582,-378.045 888.429,-386.13 891.976,-380.096"/>
</g>
<!-- telereddit_services_service -->
<g id="node20" class="node"><title>telereddit_services_service</title><style>.edge>path:hover{stroke-width:8}</style>
<ellipse fill="#a60cf3" stroke="black" cx="797" cy="-515.919" rx="38.7821" ry="21.4286"/>
<text text-anchor="middle" x="797" y="-518.919" font-family="Helvetica,sans-Serif" font-size="10.00" fill="#ffffff">services.</text>
<text text-anchor="middle" x="797" y="-507.919" font-family="Helvetica,sans-Serif" font-size="10.00" fill="#ffffff">service</text>
</g>
<!-- telereddit_services_service&#45;&gt;telereddit_services_generic_service -->
<g id="edge53" class="edge"><title>telereddit_services_service&#45;&gt;telereddit_services_generic_service</title><style>.edge>path:hover{stroke-width:8}</style>
<path fill="none" stroke="black" d="M810.626,-495.633C816.861,-486.809 824.369,-476.184 831.21,-466.502"/>
<polygon fill="#a60cf3" stroke="black" points="834.089,-468.491 837.001,-458.305 828.372,-464.452 834.089,-468.491"/>
</g>
<!-- telereddit_services_service&#45;&gt;telereddit_services_gfycat_service -->
<g id="edge54" class="edge"><title>telereddit_services_service&#45;&gt;telereddit_services_gfycat_service</title><style>.edge>path:hover{stroke-width:8}</style>
<path fill="none" stroke="black" d="M832.765,-506.95C896.214,-492.788 1023.73,-464.202 1044,-458.706 1048.36,-457.524 1052.86,-456.238 1057.36,-454.905"/>
<polygon fill="#a60cf3" stroke="black" points="1058.62,-458.182 1067.18,-451.935 1056.59,-451.482 1058.62,-458.182"/>
</g>
<!-- telereddit_services_service&#45;&gt;telereddit_services_imgur_service -->
<g id="edge55" class="edge"><title>telereddit_services_service&#45;&gt;telereddit_services_imgur_service</title><style>.edge>path:hover{stroke-width:8}</style>
<path fill="none" stroke="black" d="M827.384,-502.299C856.834,-490.066 901.873,-471.359 935.581,-457.358"/>
<polygon fill="#a60cf3" stroke="black" points="937.313,-460.428 945.206,-453.36 934.628,-453.964 937.313,-460.428"/>
</g>
<!-- telereddit_services_service&#45;&gt;telereddit_services_vreddit_service -->
<g id="edge56" class="edge"><title>telereddit_services_service&#45;&gt;telereddit_services_vreddit_service</title><style>.edge>path:hover{stroke-width:8}</style>
<path fill="none" stroke="black" d="M778.677,-497.193C768.678,-487.519 756.108,-475.359 745.006,-464.619"/>
<polygon fill="#a60cf3" stroke="black" points="747.225,-461.896 737.604,-457.458 742.358,-466.927 747.225,-461.896"/>
</g>
<!-- telereddit_services_service&#45;&gt;telereddit_services_youtube_service -->
<g id="edge57" class="edge"><title>telereddit_services_service&#45;&gt;telereddit_services_youtube_service</title><style>.edge>path:hover{stroke-width:8}</style>
<path fill="none" stroke="black" d="M764.962,-503.477C730.204,-491.064 674.236,-471.076 633.54,-456.542"/>
<polygon fill="#a60cf3" stroke="black" points="634.66,-453.225 624.065,-453.158 632.306,-459.818 634.66,-453.225"/>
</g>
<!-- telereddit_services_services_wrapper&#45;&gt;telereddit_reddit -->
<g id="edge58" class="edge"><title>telereddit_services_services_wrapper&#45;&gt;telereddit_reddit</title><style>.edge>path:hover{stroke-width:8}</style>
<path fill="none" stroke="black" d="M798.92,-346.46C695.199,-323.347 465.249,-272.105 377.221,-252.488"/>
<polygon fill="#7a28a3" stroke="black" points="377.729,-249.016 367.207,-250.257 376.207,-255.848 377.729,-249.016"/>
</g>
<!-- telereddit_services_services_wrapper&#45;&gt;telereddit_tests_test_services -->
<g id="edge59" class="edge"><title>telereddit_services_services_wrapper&#45;&gt;telereddit_tests_test_services</title><style>.edge>path:hover{stroke-width:8}</style>
<path fill="none" stroke="black" d="M873.931,-339.081C897.025,-319.96 932.768,-290.368 958.08,-269.411"/>
<polygon fill="#7a28a3" stroke="black" points="960.432,-272.008 965.903,-262.934 955.968,-266.616 960.432,-272.008"/>
</g>
<!-- telereddit_services_vreddit_service&#45;&gt;telereddit_services_services_wrapper -->
<g id="edge60" class="edge"><title>telereddit_services_vreddit_service&#45;&gt;telereddit_services_services_wrapper</title><style>.edge>path:hover{stroke-width:8}</style>
<path fill="none" stroke="black" d="M747.848,-419.341C766.528,-408.607 790.82,-394.648 811.137,-382.973"/>
<polygon fill="#7d35a1" stroke="black" points="812.938,-385.975 819.865,-377.957 809.45,-379.905 812.938,-385.975"/>
</g>
<!-- telereddit_services_youtube_service&#45;&gt;telereddit_services_services_wrapper -->
<g id="edge61" class="edge"><title>telereddit_services_youtube_service&#45;&gt;telereddit_services_services_wrapper</title><style>.edge>path:hover{stroke-width:8}</style>
<path fill="none" stroke="black" d="M622.917,-421.304C632.392,-417.901 642.506,-414.432 652,-411.492 697.722,-397.336 750.163,-383.897 789.73,-374.309"/>
<polygon fill="#8338a8" stroke="black" points="790.597,-377.7 799.5,-371.956 788.958,-370.894 790.597,-377.7"/>
</g>
<!-- telereddit_telereddit&#45;&gt;telereddit___main__ -->
<g id="edge62" class="edge"><title>telereddit_telereddit&#45;&gt;telereddit___main__</title><style>.edge>path:hover{stroke-width:8}</style>
<path fill="none" stroke="black" d="M125,-74.8627C125,-66.3831 125,-55.9765 125,-46.4531"/>
<polygon fill="#592673" stroke="black" points="128.5,-46.2259 125,-36.226 121.5,-46.226 128.5,-46.2259"/>
</g>
<!-- requests&#45;&gt;telereddit_helpers -->
<g id="edge11" class="edge"><title>requests&#45;&gt;telereddit_helpers</title><style>.edge>path:hover{stroke-width:8}</style>
<path fill="none" stroke="black" d="M660.874,-699.875C592.966,-693.879 417.409,-676.139 366,-649.132 352.319,-641.945 340.143,-629.809 331.019,-618.86"/>
<polygon fill="#039565" stroke="black" points="333.609,-616.494 324.661,-610.821 328.119,-620.835 333.609,-616.494"/>
</g>
<!-- requests&#45;&gt;telereddit_reddit -->
<g id="edge12" class="edge"><title>requests&#45;&gt;telereddit_reddit</title><style>.edge>path:hover{stroke-width:8}</style>
<path fill="none" stroke="black" d="M660.937,-698.656C585.779,-688.251 380,-654.357 380,-595.132 380,-595.132 380,-595.132 380,-514.919 380,-467.745 357.013,-330.455 346.796,-271.763"/>
<polygon fill="#039565" stroke="black" points="350.217,-271.005 345.045,-261.758 343.322,-272.212 350.217,-271.005"/>
</g>
<!-- requests&#45;&gt;telereddit_services_gfycat_service -->
<g id="edge13" class="edge"><title>requests&#45;&gt;telereddit_services_gfycat_service</title><style>.edge>path:hover{stroke-width:8}</style>
<path fill="none" stroke="black" d="M715.38,-702.675C778.954,-702.473 938.339,-693.352 1033,-612.132 1076.4,-574.898 1095.46,-507.981 1103.21,-468.987"/>
<polygon fill="#039565" stroke="black" points="1106.72,-469.248 1105.11,-458.777 1099.84,-467.969 1106.72,-469.248"/>
</g>
<!-- requests&#45;&gt;telereddit_services_imgur_service -->
<g id="edge14" class="edge"><title>requests&#45;&gt;telereddit_services_imgur_service</title><style>.edge>path:hover{stroke-width:8}</style>
<path fill="none" stroke="black" d="M715.233,-696.653C769.773,-684.181 892.44,-648.319 954,-568.132 975.848,-539.673 981.092,-497.734 981.857,-469.326"/>
<polygon fill="#039565" stroke="black" points="985.359,-469.191 981.956,-459.157 978.359,-469.123 985.359,-469.191"/>
</g>
<!-- requests&#45;&gt;telereddit_services_service -->
<g id="edge15" class="edge"><title>requests&#45;&gt;telereddit_services_service</title><style>.edge>path:hover{stroke-width:8}</style>
<path fill="none" stroke="black" d="M707.671,-684.886C717.952,-675.137 730.193,-662.291 739,-649.132 760.728,-616.665 777.498,-574.725 787.293,-546.88"/>
<polygon fill="#039565" stroke="black" points="790.644,-547.898 790.582,-537.303 784.023,-545.624 790.644,-547.898"/>
</g>
<!-- requests&#45;&gt;telereddit_services_vreddit_service -->
<g id="edge16" class="edge"><title>requests&#45;&gt;telereddit_services_vreddit_service</title><style>.edge>path:hover{stroke-width:8}</style>
<path fill="none" stroke="black" d="M689.968,-684.834C694.967,-640.909 708.2,-524.613 714.531,-468.98"/>
<polygon fill="#039565" stroke="black" points="718.047,-469.033 715.7,-458.701 711.092,-468.241 718.047,-469.033"/>
</g>
<!-- sentrysdk -->
<g id="node29" class="node"><title>sentrysdk</title><style>.edge>path:hover{stroke-width:8}</style>
<polygon fill="#0479b3" stroke="black" points="455.5,-721.132 452.5,-725.132 431.5,-725.132 428.5,-721.132 396.5,-721.132 396.5,-685.132 455.5,-685.132 455.5,-721.132"/>
<text text-anchor="middle" x="426" y="-700.632" font-family="Helvetica,sans-Serif" font-size="10.00" fill="#ffffff">sentrysdk</text>
</g>
<!-- sentrysdk&#45;&gt;telereddit_telereddit -->
<g id="edge17" class="edge"><title>sentrysdk&#45;&gt;telereddit_telereddit</title><style>.edge>path:hover{stroke-width:8}</style>
<path fill="none" stroke="black" d="M396.497,-691.971C362.652,-678.809 307.867,-652.632 277,-612.132 228.393,-548.356 228,-518.68 228,-438.492 228,-438.492 228,-438.492 228,-242.64 228,-189.086 182.182,-140.943 151.663,-114.816"/>
<polygon fill="#0479b3" stroke="black" points="153.818,-112.056 143.892,-108.351 149.341,-117.437 153.818,-112.056"/>
</g>
<!-- telegram&#45;&gt;telereddit_config_config -->
<g id="edge18" class="edge"><title>telegram&#45;&gt;telereddit_config_config</title><style>.edge>path:hover{stroke-width:8}</style>
<path fill="none" stroke="black" d="M94.1607,-904.104C112.273,-866.313 155.93,-775.22 177.504,-730.206"/>
<polygon fill="#030395" stroke="black" points="180.711,-731.611 181.877,-721.081 174.399,-728.586 180.711,-731.611"/>
</g>
<!-- telegram&#45;&gt;telereddit_linker -->
<g id="edge19" class="edge"><title>telegram&#45;&gt;telereddit_linker</title><style>.edge>path:hover{stroke-width:8}</style>
<path fill="none" stroke="black" d="M76.2865,-903.887C62.2607,-877.321 38,-824.393 38,-776.132 38,-776.132 38,-776.132 38,-358.066 38,-293.508 80.5368,-227.001 106.124,-192.835"/>
<polygon fill="#030395" stroke="black" points="109.227,-194.54 112.535,-184.475 103.672,-190.28 109.227,-194.54"/>
</g>
<!-- telegram&#45;&gt;telereddit_telereddit -->
<g id="edge20" class="edge"><title>telegram&#45;&gt;telereddit_telereddit</title><style>.edge>path:hover{stroke-width:8}</style>
<path fill="none" stroke="black" d="M67.3393,-903.888C42.046,-878.54 0,-828.522 0,-776.132 0,-776.132 0,-776.132 0,-242.64 0,-184.16 57.4711,-136.745 94.4753,-112.276"/>
<polygon fill="#030395" stroke="black" points="96.4174,-115.188 102.94,-106.839 92.6347,-109.298 96.4174,-115.188"/>
</g>
<!-- urllib3&#45;&gt;requests -->
<g id="edge63" class="edge"><title>urllib3&#45;&gt;requests</title><style>.edge>path:hover{stroke-width:8}</style>
<path fill="none" stroke="black" d="M575.248,-847.123C593.734,-844.461 617.686,-838.308 634,-824.132 648.704,-811.354 667.782,-762.345 678.881,-731.049"/>
<polygon fill="#e90c9f" stroke="black" points="682.195,-732.173 682.188,-721.578 675.587,-729.865 682.195,-732.173"/>
</g>
<!-- urllib3&#45;&gt;sentrysdk -->
<g id="edge64" class="edge"><title>urllib3&#45;&gt;sentrysdk</title><style>.edge>path:hover{stroke-width:8}</style>
<path fill="none" stroke="black" d="M533.526,-831.929C512.064,-806.421 471.683,-758.428 446.979,-729.066"/>
<polygon fill="#e90c9f" stroke="black" points="449.572,-726.711 440.455,-721.312 444.215,-731.218 449.572,-726.711"/>
</g>
</g>
</svg>
