<?xml version="1.0" encoding="UTF-8" standalone="no"?>
<!DOCTYPE svg PUBLIC "-//W3C//DTD SVG 1.1//EN"
 "http://www.w3.org/Graphics/SVG/1.1/DTD/svg11.dtd">
<!-- Generated by graphviz version 2.38.0 (20140413.2041)
 -->
<!-- Title: G Pages: 1 -->
<svg width="1971pt" height="999pt"
 viewBox="0.00 0.00 1970.57 999.41" xmlns="http://www.w3.org/2000/svg" xmlns:xlink="http://www.w3.org/1999/xlink">
<g id="graph0" class="graph" transform="scale(1 1) rotate(0) translate(4 995.411)">
<title>G</title><style>.edge>path:hover{stroke-width:8}</style>
<polygon fill="white" stroke="none" points="-4,4 -4,-995.411 1966.57,-995.411 1966.57,4 -4,4"/>
<g id="clust1" class="cluster"><title>cluster_parameterized</title><style>.edge>path:hover{stroke-width:8}</style>
<polygon fill="none" stroke="black" points="8,-637.132 8,-790.558 138,-790.558 138,-637.132 8,-637.132"/>
<text text-anchor="middle" x="73" y="-775.358" font-family="Times New Roman,serif" font-size="14.00">parameterized</text>
</g>
<g id="clust3" class="cluster"><title>cluster_sentrysdk</title><style>.edge>path:hover{stroke-width:8}</style>
<polygon fill="none" stroke="black" points="1494,-217.64 1494,-292.64 1586,-292.64 1586,-217.64 1494,-217.64"/>
<text text-anchor="middle" x="1540" y="-277.44" font-family="Times New Roman,serif" font-size="14.00">sentrysdk</text>
</g>
<g id="clust2" class="cluster"><title>cluster_requests</title><style>.edge>path:hover{stroke-width:8}</style>
<polygon fill="none" stroke="black" points="845,-712.345 845,-787.345 925,-787.345 925,-712.345 845,-712.345"/>
<text text-anchor="middle" x="885" y="-772.145" font-family="Times New Roman,serif" font-size="14.00">requests</text>
</g>
<!-- parameterized_parameterized -->
<g id="node1" class="node"><title>parameterized_parameterized</title><style>.edge>path:hover{stroke-width:8}</style>
<ellipse fill="#ce3b3b" stroke="black" cx="73" cy="-738.345" rx="57.0522" ry="21.4286"/>
<text text-anchor="middle" x="73" y="-741.345" font-family="Helvetica,sans-Serif" font-size="10.00" fill="#ffffff">parameterized.</text>
<text text-anchor="middle" x="73" y="-730.345" font-family="Helvetica,sans-Serif" font-size="10.00" fill="#ffffff">parameterized</text>
</g>
<!-- parameterized -->
<g id="node2" class="node"><title>parameterized</title><style>.edge>path:hover{stroke-width:8}</style>
<ellipse fill="#c04040" stroke="black" cx="62" cy="-663.132" rx="45.8316" ry="18"/>
<text text-anchor="middle" x="62" y="-660.632" font-family="Helvetica,sans-Serif" font-size="10.00" fill="#ffffff">parameterized</text>
</g>
<!-- parameterized_parameterized&#45;&gt;parameterized -->
<g id="edge3" class="edge"><title>parameterized_parameterized&#45;&gt;parameterized</title><style>.edge>path:hover{stroke-width:8}</style>
<path fill="none" stroke="black" d="M69.9359,-716.951C68.7559,-709.097 67.3884,-699.996 66.1244,-691.583"/>
<polygon fill="#000000" stroke="black" points="69.5478,-690.811 64.6007,-681.442 62.6255,-691.851 69.5478,-690.811"/>
</g>
<!-- telereddit_tests_test_services -->
<g id="node14" class="node"><title>telereddit_tests_test_services</title><style>.edge>path:hover{stroke-width:8}</style>
<ellipse fill="#7e3d8f" stroke="black" cx="272" cy="-243.64" rx="52.1524" ry="21.4286"/>
<text text-anchor="middle" x="272" y="-246.64" font-family="Helvetica,sans-Serif" font-size="10.00" fill="#ffffff">tests.</text>
<text text-anchor="middle" x="272" y="-235.64" font-family="Helvetica,sans-Serif" font-size="10.00" fill="#ffffff">test_services</text>
</g>
<!-- parameterized_parameterized&#45;&gt;telereddit_tests_test_services -->
<g id="edge5" class="edge"><title>parameterized_parameterized&#45;&gt;telereddit_tests_test_services</title><style>.edge>path:hover{stroke-width:8}</style>
<path fill="none" stroke="black" d="M137.83,-693.627C167.431,-668.095 196,-632.895 196,-592.132 196,-592.132 196,-592.132 196,-358.066 196,-323.292 220.958,-291.124 242.269,-269.995"/>
<polygon fill="#000000" stroke="black" points="244.787,-272.43 249.609,-262.996 239.956,-267.365 244.787,-272.43"/>
</g>
<!-- telereddit_tests_test_helpers -->
<g id="node22" class="node"><title>telereddit_tests_test_helpers</title><style>.edge>path:hover{stroke-width:8}</style>
<ellipse fill="#8b439d" stroke="black" cx="119" cy="-437.492" rx="49.4949" ry="21.4286"/>
<text text-anchor="middle" x="119" y="-440.492" font-family="Helvetica,sans-Serif" font-size="10.00" fill="#ffffff">tests.</text>
<text text-anchor="middle" x="119" y="-429.492" font-family="Helvetica,sans-Serif" font-size="10.00" fill="#ffffff">test_helpers</text>
</g>
<!-- parameterized_parameterized&#45;&gt;telereddit_tests_test_helpers -->
<g id="edge4" class="edge"><title>parameterized_parameterized&#45;&gt;telereddit_tests_test_helpers</title><style>.edge>path:hover{stroke-width:8}</style>
<path fill="none" stroke="black" d="M128.05,-637.213C138.67,-574.354 131.06,-506.786 124.839,-468.859"/>
<polygon fill="#000000" stroke="black" points="128.241,-467.992 123.093,-458.732 121.343,-469.181 128.241,-467.992"/>
</g>
<!-- parameterized&#45;&gt;telereddit_tests_test_services -->
<g id="edge2" class="edge"><title>parameterized&#45;&gt;telereddit_tests_test_services</title><style>.edge>path:hover{stroke-width:8}</style>
<path fill="none" stroke="black" d="M56.4579,-637.233C50.5389,-608.425 42,-559.488 42,-516.919 42,-516.919 42,-516.919 42,-358.066 42,-282.792 142.319,-257.471 210.45,-248.955"/>
<polygon fill="#000000" stroke="black" points="211.139,-252.399 220.67,-247.772 210.334,-245.445 211.139,-252.399"/>
</g>
<!-- parameterized&#45;&gt;telereddit_tests_test_helpers -->
<g id="edge1" class="edge"><title>parameterized&#45;&gt;telereddit_tests_test_helpers</title><style>.edge>path:hover{stroke-width:8}</style>
<path fill="none" stroke="black" d="M68.3385,-637.263C78.8732,-595.93 99.9494,-513.237 111.314,-468.647"/>
<polygon fill="#000000" stroke="black" points="114.716,-469.47 113.795,-458.916 107.933,-467.741 114.716,-469.47"/>
</g>
<!-- requests -->
<g id="node3" class="node"><title>requests</title><style>.edge>path:hover{stroke-width:8}</style>
<ellipse fill="#c8f906" stroke="black" cx="885" cy="-738.345" rx="31.577" ry="18"/>
<text text-anchor="middle" x="885" y="-735.845" font-family="Helvetica,sans-Serif" font-size="10.00" fill="#000000">requests</text>
</g>
<!-- telereddit_services_service -->
<g id="node5" class="node"><title>telereddit_services_service</title><style>.edge>path:hover{stroke-width:8}</style>
<ellipse fill="#c50cf3" stroke="black" cx="647" cy="-515.919" rx="38.7821" ry="21.4286"/>
<text text-anchor="middle" x="647" y="-518.919" font-family="Helvetica,sans-Serif" font-size="10.00" fill="#ffffff">services.</text>
<text text-anchor="middle" x="647" y="-507.919" font-family="Helvetica,sans-Serif" font-size="10.00" fill="#ffffff">service</text>
</g>
<!-- requests&#45;&gt;telereddit_services_service -->
<g id="edge10" class="edge"><title>requests&#45;&gt;telereddit_services_service</title><style>.edge>path:hover{stroke-width:8}</style>
<path fill="none" stroke="black" d="M845.397,-735.707C803.821,-731.879 739.164,-719.627 700,-681.132 663.443,-645.199 652.077,-583.938 648.559,-547.261"/>
<polygon fill="#000000" stroke="black" points="652.037,-546.846 647.73,-537.166 645.061,-547.419 652.037,-546.846"/>
</g>
<!-- telereddit_reddit -->
<g id="node12" class="node"><title>telereddit_reddit</title><style>.edge>path:hover{stroke-width:8}</style>
<ellipse fill="#7d2493" stroke="black" cx="1088" cy="-243.64" rx="27" ry="18"/>
<text text-anchor="middle" x="1088" y="-241.14" font-family="Helvetica,sans-Serif" font-size="10.00" fill="#ffffff">reddit</text>
</g>
<!-- requests&#45;&gt;telereddit_reddit -->
<g id="edge7" class="edge"><title>requests&#45;&gt;telereddit_reddit</title><style>.edge>path:hover{stroke-width:8}</style>
<path fill="none" stroke="black" d="M903.81,-712.384C946.743,-654.894 1049.73,-513.86 1069,-458.706 1091.36,-394.685 1091.55,-313.664 1089.78,-272.056"/>
<polygon fill="#000000" stroke="black" points="1093.26,-271.698 1089.27,-261.885 1086.27,-272.048 1093.26,-271.698"/>
</g>
<!-- telereddit_services_vreddit_service -->
<g id="node15" class="node"><title>telereddit_services_vreddit_service</title><style>.edge>path:hover{stroke-width:8}</style>
<ellipse fill="#853399" stroke="black" cx="750" cy="-437.492" rx="56.6372" ry="21.4286"/>
<text text-anchor="middle" x="750" y="-440.492" font-family="Helvetica,sans-Serif" font-size="10.00" fill="#ffffff">services.</text>
<text text-anchor="middle" x="750" y="-429.492" font-family="Helvetica,sans-Serif" font-size="10.00" fill="#ffffff">vreddit_service</text>
</g>
<!-- requests&#45;&gt;telereddit_services_vreddit_service -->
<g id="edge11" class="edge"><title>requests&#45;&gt;telereddit_services_vreddit_service</title><style>.edge>path:hover{stroke-width:8}</style>
<path fill="none" stroke="black" d="M873.753,-712.448C848.986,-657.619 789.828,-526.66 763.285,-467.902"/>
<polygon fill="#000000" stroke="black" points="766.431,-466.363 759.124,-458.691 760.051,-469.245 766.431,-466.363"/>
</g>
<!-- telereddit_services_gfycat_service -->
<g id="node18" class="node"><title>telereddit_services_gfycat_service</title><style>.edge>path:hover{stroke-width:8}</style>
<ellipse fill="#7e3091" stroke="black" cx="1005" cy="-437.492" rx="55.3091" ry="21.4286"/>
<text text-anchor="middle" x="1005" y="-440.492" font-family="Helvetica,sans-Serif" font-size="10.00" fill="#ffffff">services.</text>
<text text-anchor="middle" x="1005" y="-429.492" font-family="Helvetica,sans-Serif" font-size="10.00" fill="#ffffff">gfycat_service</text>
</g>
<!-- requests&#45;&gt;telereddit_services_gfycat_service -->
<g id="edge8" class="edge"><title>requests&#45;&gt;telereddit_services_gfycat_service</title><style>.edge>path:hover{stroke-width:8}</style>
<path fill="none" stroke="black" d="M889.395,-712.442C895.651,-679.689 908.562,-620.717 928,-573.132 943.827,-534.387 968.82,-493.058 986.014,-466.565"/>
<polygon fill="#000000" stroke="black" points="988.96,-468.455 991.522,-458.174 983.108,-464.614 988.96,-468.455"/>
</g>
<!-- telereddit_helpers -->
<g id="node25" class="node"><title>telereddit_helpers</title><style>.edge>path:hover{stroke-width:8}</style>
<ellipse fill="#b005db" stroke="black" cx="1074" cy="-591.132" rx="28.0137" ry="18"/>
<text text-anchor="middle" x="1074" y="-588.632" font-family="Helvetica,sans-Serif" font-size="10.00" fill="#ffffff">helpers</text>
</g>
<!-- requests&#45;&gt;telereddit_helpers -->
<g id="edge6" class="edge"><title>requests&#45;&gt;telereddit_helpers</title><style>.edge>path:hover{stroke-width:8}</style>
<path fill="none" stroke="black" d="M917.46,-712.406C954.5,-683.946 1014.33,-637.981 1048.29,-611.887"/>
<polygon fill="#000000" stroke="black" points="1050.69,-614.459 1056.48,-605.591 1046.42,-608.908 1050.69,-614.459"/>
</g>
<!-- telereddit_services_imgur_service -->
<g id="node26" class="node"><title>telereddit_services_imgur_service</title><style>.edge>path:hover{stroke-width:8}</style>
<ellipse fill="#7e3091" stroke="black" cx="878" cy="-437.492" rx="53.9813" ry="21.4286"/>
<text text-anchor="middle" x="878" y="-440.492" font-family="Helvetica,sans-Serif" font-size="10.00" fill="#ffffff">services.</text>
<text text-anchor="middle" x="878" y="-429.492" font-family="Helvetica,sans-Serif" font-size="10.00" fill="#ffffff">imgur_service</text>
</g>
<!-- requests&#45;&gt;telereddit_services_imgur_service -->
<g id="edge9" class="edge"><title>requests&#45;&gt;telereddit_services_imgur_service</title><style>.edge>path:hover{stroke-width:8}</style>
<path fill="none" stroke="black" d="M884.415,-712.365C883.14,-657.941 880.115,-528.792 878.723,-469.376"/>
<polygon fill="#000000" stroke="black" points="882.214,-468.92 878.48,-459.004 875.216,-469.084 882.214,-468.92"/>
</g>
<!-- sentry_sdk -->
<g id="node4" class="node"><title>sentry_sdk</title><style>.edge>path:hover{stroke-width:8}</style>
<ellipse fill="#40c073" stroke="black" cx="1540" cy="-243.64" rx="38.0276" ry="18"/>
<text text-anchor="middle" x="1540" y="-241.14" font-family="Helvetica,sans-Serif" font-size="10.00" fill="#000000">sentry_sdk</text>
</g>
<!-- telereddit_telereddit -->
<g id="node10" class="node"><title>telereddit_telereddit</title><style>.edge>path:hover{stroke-width:8}</style>
<ellipse fill="#632673" stroke="black" cx="1436" cy="-93.2132" rx="32.9303" ry="18"/>
<text text-anchor="middle" x="1436" y="-90.7132" font-family="Helvetica,sans-Serif" font-size="10.00" fill="#ffffff">telereddit</text>
</g>
<!-- sentry_sdk&#45;&gt;telereddit_telereddit -->
<g id="edge12" class="edge"><title>sentry_sdk&#45;&gt;telereddit_telereddit</title><style>.edge>path:hover{stroke-width:8}</style>
<path fill="none" stroke="black" d="M1528.23,-218.254C1518.52,-199.099 1503.82,-172.128 1488,-150.426 1479.26,-138.442 1468.26,-126.227 1458.64,-116.259"/>
<polygon fill="#000000" stroke="black" points="1461.11,-113.784 1451.6,-109.115 1456.12,-118.696 1461.11,-113.784"/>
</g>
<!-- telereddit_services_youtube_service -->
<g id="node6" class="node"><title>telereddit_services_youtube_service</title><style>.edge>path:hover{stroke-width:8}</style>
<ellipse fill="#8b35a1" stroke="black" cx="615" cy="-437.492" rx="60.623" ry="21.4286"/>
<text text-anchor="middle" x="615" y="-440.492" font-family="Helvetica,sans-Serif" font-size="10.00" fill="#ffffff">services.</text>
<text text-anchor="middle" x="615" y="-429.492" font-family="Helvetica,sans-Serif" font-size="10.00" fill="#ffffff">youtube_service</text>
</g>
<!-- telereddit_services_service&#45;&gt;telereddit_services_youtube_service -->
<g id="edge60" class="edge"><title>telereddit_services_service&#45;&gt;telereddit_services_youtube_service</title><style>.edge>path:hover{stroke-width:8}</style>
<path fill="none" stroke="black" d="M638.592,-494.839C635.165,-486.654 631.134,-477.025 627.382,-468.064"/>
<polygon fill="#c50cf3" stroke="black" points="630.553,-466.576 623.463,-458.704 624.096,-469.28 630.553,-466.576"/>
</g>
<!-- telereddit_services_service&#45;&gt;telereddit_services_vreddit_service -->
<g id="edge59" class="edge"><title>telereddit_services_service&#45;&gt;telereddit_services_vreddit_service</title><style>.edge>path:hover{stroke-width:8}</style>
<path fill="none" stroke="black" d="M669.349,-498.335C683.327,-487.964 701.577,-474.422 717.181,-462.844"/>
<polygon fill="#c50cf3" stroke="black" points="719.588,-465.416 725.533,-456.647 715.417,-459.795 719.588,-465.416"/>
</g>
<!-- telereddit_services_service&#45;&gt;telereddit_services_gfycat_service -->
<g id="edge57" class="edge"><title>telereddit_services_service&#45;&gt;telereddit_services_gfycat_service</title><style>.edge>path:hover{stroke-width:8}</style>
<path fill="none" stroke="black" d="M683.971,-509.276C739.994,-500.406 849.553,-481.805 941,-458.706 945.561,-457.553 950.276,-456.262 954.982,-454.904"/>
<polygon fill="#c50cf3" stroke="black" points="955.993,-458.255 964.577,-452.045 953.994,-451.546 955.993,-458.255"/>
</g>
<!-- telereddit_services_generic_service -->
<g id="node24" class="node"><title>telereddit_services_generic_service</title><style>.edge>path:hover{stroke-width:8}</style>
<ellipse fill="#9238a8" stroke="black" cx="477" cy="-437.492" rx="58.8803" ry="21.4286"/>
<text text-anchor="middle" x="477" y="-440.492" font-family="Helvetica,sans-Serif" font-size="10.00" fill="#ffffff">services.</text>
<text text-anchor="middle" x="477" y="-429.492" font-family="Helvetica,sans-Serif" font-size="10.00" fill="#ffffff">generic_service</text>
</g>
<!-- telereddit_services_service&#45;&gt;telereddit_services_generic_service -->
<g id="edge56" class="edge"><title>telereddit_services_service&#45;&gt;telereddit_services_generic_service</title><style>.edge>path:hover{stroke-width:8}</style>
<path fill="none" stroke="black" d="M617.776,-501.781C591.478,-489.958 552.426,-472.402 522.121,-458.777"/>
<polygon fill="#c50cf3" stroke="black" points="523.172,-455.412 512.616,-454.504 520.301,-461.797 523.172,-455.412"/>
</g>
<!-- telereddit_services_service&#45;&gt;telereddit_services_imgur_service -->
<g id="edge58" class="edge"><title>telereddit_services_service&#45;&gt;telereddit_services_imgur_service</title><style>.edge>path:hover{stroke-width:8}</style>
<path fill="none" stroke="black" d="M679.607,-504.131C718.305,-491.327 783.244,-469.842 828.235,-454.957"/>
<polygon fill="#c50cf3" stroke="black" points="829.403,-458.257 837.798,-451.793 827.205,-451.612 829.403,-458.257"/>
</g>
<!-- telereddit_services_services_wrapper -->
<g id="node20" class="node"><title>telereddit_services_services_wrapper</title><style>.edge>path:hover{stroke-width:8}</style>
<ellipse fill="#84269b" stroke="black" cx="750" cy="-359.066" rx="64.1938" ry="21.4286"/>
<text text-anchor="middle" x="750" y="-362.066" font-family="Helvetica,sans-Serif" font-size="10.00" fill="#ffffff">services.</text>
<text text-anchor="middle" x="750" y="-351.066" font-family="Helvetica,sans-Serif" font-size="10.00" fill="#ffffff">services_wrapper</text>
</g>
<!-- telereddit_services_youtube_service&#45;&gt;telereddit_services_services_wrapper -->
<g id="edge64" class="edge"><title>telereddit_services_youtube_service&#45;&gt;telereddit_services_services_wrapper</title><style>.edge>path:hover{stroke-width:8}</style>
<path fill="none" stroke="black" d="M645.634,-419.15C664.608,-408.408 689.189,-394.492 709.729,-382.864"/>
<polygon fill="#8b35a1" stroke="black" points="711.573,-385.842 718.551,-377.87 708.124,-379.751 711.573,-385.842"/>
</g>
<!-- telereddit___main__ -->
<g id="node7" class="node"><title>telereddit___main__</title><style>.edge>path:hover{stroke-width:8}</style>
<ellipse fill="#9849ac" stroke="black" cx="1436" cy="-18" rx="34.9638" ry="18"/>
<text text-anchor="middle" x="1436" y="-15.5" font-family="Helvetica,sans-Serif" font-size="10.00" fill="#ffffff">__main__</text>
</g>
<!-- telereddit_services -->
<g id="node8" class="node"><title>telereddit_services</title><style>.edge>path:hover{stroke-width:8}</style>
<ellipse fill="#cb10f9" stroke="black" cx="293" cy="-359.066" rx="30.7213" ry="18"/>
<text text-anchor="middle" x="293" y="-356.566" font-family="Helvetica,sans-Serif" font-size="10.00" fill="#ffffff">services</text>
</g>
<!-- telereddit_services&#45;&gt;telereddit_reddit -->
<g id="edge51" class="edge"><title>telereddit_services&#45;&gt;telereddit_reddit</title><style>.edge>path:hover{stroke-width:8}</style>
<path fill="none" stroke="black" d="M308.721,-343.4C324.432,-329.73 349.941,-310.105 376,-300.853 502.299,-256.012 922.992,-246.818 1050.83,-245.042"/>
<polygon fill="#cb10f9" stroke="black" points="1050.96,-248.541 1060.91,-244.909 1050.86,-241.541 1050.96,-248.541"/>
</g>
<!-- telereddit_services&#45;&gt;telereddit_tests_test_services -->
<g id="edge52" class="edge"><title>telereddit_services&#45;&gt;telereddit_tests_test_services</title><style>.edge>path:hover{stroke-width:8}</style>
<path fill="none" stroke="black" d="M289.811,-340.839C286.591,-323.449 281.551,-296.227 277.653,-275.173"/>
<polygon fill="#cb10f9" stroke="black" points="281.051,-274.302 275.789,-265.106 274.168,-275.576 281.051,-274.302"/>
</g>
<!-- telereddit_config_secret_prod -->
<g id="node9" class="node"><title>telereddit_config_secret_prod</title><style>.edge>path:hover{stroke-width:8}</style>
<ellipse fill="#8b439d" stroke="black" cx="1682" cy="-819.772" rx="48.1667" ry="21.4286"/>
<text text-anchor="middle" x="1682" y="-822.772" font-family="Helvetica,sans-Serif" font-size="10.00" fill="#ffffff">config.</text>
<text text-anchor="middle" x="1682" y="-811.772" font-family="Helvetica,sans-Serif" font-size="10.00" fill="#ffffff">secret_prod</text>
</g>
<!-- telereddit_telereddit&#45;&gt;telereddit___main__ -->
<g id="edge65" class="edge"><title>telereddit_telereddit&#45;&gt;telereddit___main__</title><style>.edge>path:hover{stroke-width:8}</style>
<path fill="none" stroke="black" d="M1436,-74.8627C1436,-66.3831 1436,-55.9765 1436,-46.4531"/>
<polygon fill="#632673" stroke="black" points="1439.5,-46.2259 1436,-36.226 1432.5,-46.226 1439.5,-46.2259"/>
</g>
<!-- telereddit_config -->
<g id="node11" class="node"><title>telereddit_config</title><style>.edge>path:hover{stroke-width:8}</style>
<ellipse fill="#cb10f9" stroke="black" cx="1211" cy="-663.132" rx="27" ry="18"/>
<text text-anchor="middle" x="1211" y="-660.632" font-family="Helvetica,sans-Serif" font-size="10.00" fill="#ffffff">config</text>
</g>
<!-- telereddit_config&#45;&gt;telereddit_telereddit -->
<g id="edge21" class="edge"><title>telereddit_config&#45;&gt;telereddit_telereddit</title><style>.edge>path:hover{stroke-width:8}</style>
<path fill="none" stroke="black" d="M1233.31,-652.89C1274.87,-634.011 1360,-586.813 1360,-516.919 1360,-516.919 1360,-516.919 1360,-436.492 1360,-316.154 1405.32,-177.554 1425.97,-120.663"/>
<polygon fill="#cb10f9" stroke="black" points="1429.35,-121.607 1429.52,-111.014 1422.78,-119.19 1429.35,-121.607"/>
</g>
<!-- telereddit_config&#45;&gt;telereddit_reddit -->
<g id="edge18" class="edge"><title>telereddit_config&#45;&gt;telereddit_reddit</title><style>.edge>path:hover{stroke-width:8}</style>
<path fill="none" stroke="black" d="M1211.66,-644.781C1212.93,-589.869 1210.7,-416.683 1139,-300.853 1131.15,-288.174 1120.28,-275.721 1110.59,-265.771"/>
<polygon fill="#cb10f9" stroke="black" points="1113.03,-263.265 1103.47,-258.688 1108.09,-268.225 1113.03,-263.265"/>
</g>
<!-- telereddit_linker -->
<g id="node16" class="node"><title>telereddit_linker</title><style>.edge>path:hover{stroke-width:8}</style>
<ellipse fill="#853399" stroke="black" cx="1322" cy="-168.426" rx="27" ry="18"/>
<text text-anchor="middle" x="1322" y="-165.926" font-family="Helvetica,sans-Serif" font-size="10.00" fill="#ffffff">linker</text>
</g>
<!-- telereddit_config&#45;&gt;telereddit_linker -->
<g id="edge17" class="edge"><title>telereddit_config&#45;&gt;telereddit_linker</title><style>.edge>path:hover{stroke-width:8}</style>
<path fill="none" stroke="black" d="M1229.58,-650C1261.18,-627.729 1322,-577.052 1322,-516.919 1322,-516.919 1322,-516.919 1322,-300.853 1322,-264.755 1322,-223.081 1322,-196.509"/>
<polygon fill="#cb10f9" stroke="black" points="1325.5,-196.439 1322,-186.439 1318.5,-196.439 1325.5,-196.439"/>
</g>
<!-- telereddit_config&#45;&gt;telereddit_services_gfycat_service -->
<g id="edge19" class="edge"><title>telereddit_config&#45;&gt;telereddit_services_gfycat_service</title><style>.edge>path:hover{stroke-width:8}</style>
<path fill="none" stroke="black" d="M1200.32,-646.447C1187.64,-628.206 1165.51,-597.488 1144,-573.132 1108.43,-532.846 1063.04,-490.338 1033.99,-464.113"/>
<polygon fill="#cb10f9" stroke="black" points="1036.03,-461.241 1026.25,-457.163 1031.36,-466.449 1036.03,-461.241"/>
</g>
<!-- telereddit_config&#45;&gt;telereddit_helpers -->
<g id="edge16" class="edge"><title>telereddit_config&#45;&gt;telereddit_helpers</title><style>.edge>path:hover{stroke-width:8}</style>
<path fill="none" stroke="black" d="M1190.19,-651.501C1167.39,-639.851 1130.6,-621.051 1104.53,-607.731"/>
<polygon fill="#cb10f9" stroke="black" points="1105.95,-604.528 1095.46,-603.095 1102.77,-610.762 1105.95,-604.528"/>
</g>
<!-- telereddit_config&#45;&gt;telereddit_services_imgur_service -->
<g id="edge20" class="edge"><title>telereddit_config&#45;&gt;telereddit_services_imgur_service</title><style>.edge>path:hover{stroke-width:8}</style>
<path fill="none" stroke="black" d="M1193.3,-649.352C1179.42,-639.042 1159.86,-623.877 1144,-609.132 1128.1,-594.352 1127.93,-586.719 1111,-573.132 1050.37,-524.464 970.114,-482.178 921.363,-458.54"/>
<polygon fill="#cb10f9" stroke="black" points="922.577,-455.24 912.048,-454.065 919.546,-461.55 922.577,-455.24"/>
</g>
<!-- telereddit_reddit&#45;&gt;telereddit_linker -->
<g id="edge49" class="edge"><title>telereddit_reddit&#45;&gt;telereddit_linker</title><style>.edge>path:hover{stroke-width:8}</style>
<path fill="none" stroke="black" d="M1112.16,-235.08C1154.13,-221.948 1240.59,-194.898 1288.39,-179.943"/>
<polygon fill="#7d2493" stroke="black" points="1289.47,-183.271 1297.97,-176.945 1287.38,-176.59 1289.47,-183.271"/>
</g>
<!-- telereddit_tests_test_reddit -->
<g id="node27" class="node"><title>telereddit_tests_test_reddit</title><style>.edge>path:hover{stroke-width:8}</style>
<ellipse fill="#9246a4" stroke="black" cx="546" cy="-93.2132" rx="43.6818" ry="21.4286"/>
<text text-anchor="middle" x="546" y="-96.2132" font-family="Helvetica,sans-Serif" font-size="10.00" fill="#ffffff">tests.</text>
<text text-anchor="middle" x="546" y="-85.2132" font-family="Helvetica,sans-Serif" font-size="10.00" fill="#ffffff">test_reddit</text>
</g>
<!-- telereddit_reddit&#45;&gt;telereddit_tests_test_reddit -->
<g id="edge50" class="edge"><title>telereddit_reddit&#45;&gt;telereddit_tests_test_reddit</title><style>.edge>path:hover{stroke-width:8}</style>
<path fill="none" stroke="black" d="M1063.3,-235.876C979.46,-212.916 704.756,-137.689 593.461,-107.21"/>
<polygon fill="#7d2493" stroke="black" points="594.096,-103.755 583.526,-104.49 592.247,-110.507 594.096,-103.755"/>
</g>
<!-- telereddit_config_secret_dev -->
<g id="node13" class="node"><title>telereddit_config_secret_dev</title><style>.edge>path:hover{stroke-width:8}</style>
<ellipse fill="#a02fbc" stroke="black" cx="1748" cy="-898.198" rx="44.5955" ry="21.4286"/>
<text text-anchor="middle" x="1748" y="-901.198" font-family="Helvetica,sans-Serif" font-size="10.00" fill="#ffffff">config.</text>
<text text-anchor="middle" x="1748" y="-890.198" font-family="Helvetica,sans-Serif" font-size="10.00" fill="#ffffff">secret_dev</text>
</g>
<!-- telereddit_config_secret_dev&#45;&gt;telereddit_config_secret_prod -->
<g id="edge33" class="edge"><title>telereddit_config_secret_dev&#45;&gt;telereddit_config_secret_prod</title><style>.edge>path:hover{stroke-width:8}</style>
<path fill="none" stroke="black" d="M1731.69,-878.306C1723.73,-869.098 1714.03,-857.859 1705.31,-847.765"/>
<polygon fill="#a02fbc" stroke="black" points="1707.77,-845.258 1698.59,-839.977 1702.47,-849.833 1707.77,-845.258"/>
</g>
<!-- telereddit_config_secret_github -->
<g id="node21" class="node"><title>telereddit_config_secret_github</title><style>.edge>path:hover{stroke-width:8}</style>
<ellipse fill="#8b439d" stroke="black" cx="1814" cy="-819.772" rx="53.066" ry="21.4286"/>
<text text-anchor="middle" x="1814" y="-822.772" font-family="Helvetica,sans-Serif" font-size="10.00" fill="#ffffff">config.</text>
<text text-anchor="middle" x="1814" y="-811.772" font-family="Helvetica,sans-Serif" font-size="10.00" fill="#ffffff">secret_github</text>
</g>
<!-- telereddit_config_secret_dev&#45;&gt;telereddit_config_secret_github -->
<g id="edge32" class="edge"><title>telereddit_config_secret_dev&#45;&gt;telereddit_config_secret_github</title><style>.edge>path:hover{stroke-width:8}</style>
<path fill="none" stroke="black" d="M1764.31,-878.306C1772.27,-869.098 1781.97,-857.859 1790.69,-847.765"/>
<polygon fill="#a02fbc" stroke="black" points="1793.53,-849.833 1797.41,-839.977 1788.23,-845.258 1793.53,-849.833"/>
</g>
<!-- telereddit_services_vreddit_service&#45;&gt;telereddit_services_services_wrapper -->
<g id="edge63" class="edge"><title>telereddit_services_vreddit_service&#45;&gt;telereddit_services_services_wrapper</title><style>.edge>path:hover{stroke-width:8}</style>
<path fill="none" stroke="black" d="M750,-416.012C750,-408.153 750,-399.009 750,-390.418"/>
<polygon fill="#853399" stroke="black" points="753.5,-390.338 750,-380.338 746.5,-390.338 753.5,-390.338"/>
</g>
<!-- telereddit_linker&#45;&gt;telereddit_telereddit -->
<g id="edge48" class="edge"><title>telereddit_linker&#45;&gt;telereddit_telereddit</title><style>.edge>path:hover{stroke-width:8}</style>
<path fill="none" stroke="black" d="M1340.82,-155.337C1358.75,-143.823 1386.01,-126.319 1406.76,-112.989"/>
<polygon fill="#853399" stroke="black" points="1408.69,-115.911 1415.21,-107.562 1404.91,-110.021 1408.69,-115.911"/>
</g>
<!-- telereddit_content_type -->
<g id="node17" class="node"><title>telereddit_content_type</title><style>.edge>path:hover{stroke-width:8}</style>
<ellipse fill="#cb10f9" stroke="black" cx="447" cy="-591.132" rx="42.9448" ry="18"/>
<text text-anchor="middle" x="447" y="-588.632" font-family="Helvetica,sans-Serif" font-size="10.00" fill="#ffffff">content_type</text>
</g>
<!-- telereddit_content_type&#45;&gt;telereddit_services_youtube_service -->
<g id="edge39" class="edge"><title>telereddit_content_type&#45;&gt;telereddit_services_youtube_service</title><style>.edge>path:hover{stroke-width:8}</style>
<path fill="none" stroke="black" d="M458.622,-573.664C473.313,-553.56 500.071,-519.217 528,-494.706 542.236,-482.212 559.485,-470.483 574.858,-461.005"/>
<polygon fill="#cb10f9" stroke="black" points="576.902,-463.859 583.655,-455.695 573.285,-457.866 576.902,-463.859"/>
</g>
<!-- telereddit_content_type&#45;&gt;telereddit_reddit -->
<g id="edge34" class="edge"><title>telereddit_content_type&#45;&gt;telereddit_reddit</title><style>.edge>path:hover{stroke-width:8}</style>
<path fill="none" stroke="black" d="M436.279,-573.616C419.767,-546.544 390,-490.523 390,-438.492 390,-438.492 390,-438.492 390,-358.066 390,-290.469 906.609,-255.23 1050.94,-246.704"/>
<polygon fill="#cb10f9" stroke="black" points="1051.29,-250.19 1061.07,-246.114 1050.88,-243.202 1051.29,-250.19"/>
</g>
<!-- telereddit_content_type&#45;&gt;telereddit_tests_test_services -->
<g id="edge41" class="edge"><title>telereddit_content_type&#45;&gt;telereddit_tests_test_services</title><style>.edge>path:hover{stroke-width:8}</style>
<path fill="none" stroke="black" d="M409.898,-581.782C348.872,-565.609 234,-523.831 234,-438.492 234,-438.492 234,-438.492 234,-358.066 234,-328.216 245.978,-296.13 256.485,-273.728"/>
<polygon fill="#cb10f9" stroke="black" points="259.769,-274.98 261.009,-264.458 253.478,-271.91 259.769,-274.98"/>
</g>
<!-- telereddit_content_type&#45;&gt;telereddit_services_vreddit_service -->
<g id="edge38" class="edge"><title>telereddit_content_type&#45;&gt;telereddit_services_vreddit_service</title><style>.edge>path:hover{stroke-width:8}</style>
<path fill="none" stroke="black" d="M467.847,-575.11C496.422,-554.979 549.825,-518.977 599,-494.706 630.889,-478.966 668.344,-464.996 697.973,-454.92"/>
<polygon fill="#cb10f9" stroke="black" points="699.334,-458.155 707.701,-451.655 697.107,-451.519 699.334,-458.155"/>
</g>
<!-- telereddit_content_type&#45;&gt;telereddit_services_gfycat_service -->
<g id="edge36" class="edge"><title>telereddit_content_type&#45;&gt;telereddit_services_gfycat_service</title><style>.edge>path:hover{stroke-width:8}</style>
<path fill="none" stroke="black" d="M488.169,-585.676C547.477,-578.658 660.046,-563.088 753,-537.132 828.458,-516.062 912.534,-480.589 961.985,-458.416"/>
<polygon fill="#cb10f9" stroke="black" points="963.428,-461.605 971.104,-454.302 960.549,-455.225 963.428,-461.605"/>
</g>
<!-- telereddit_content_type&#45;&gt;telereddit_services_generic_service -->
<g id="edge35" class="edge"><title>telereddit_content_type&#45;&gt;telereddit_services_generic_service</title><style>.edge>path:hover{stroke-width:8}</style>
<path fill="none" stroke="black" d="M446.038,-572.971C445.381,-553.659 445.577,-521.485 452,-494.706 454.19,-485.575 457.824,-476.086 461.653,-467.561"/>
<polygon fill="#cb10f9" stroke="black" points="464.866,-468.953 465.99,-458.418 458.542,-465.952 464.866,-468.953"/>
</g>
<!-- telereddit_content_type&#45;&gt;telereddit_services_imgur_service -->
<g id="edge37" class="edge"><title>telereddit_content_type&#45;&gt;telereddit_services_imgur_service</title><style>.edge>path:hover{stroke-width:8}</style>
<path fill="none" stroke="black" d="M487.497,-585.079C537.425,-578.038 624.341,-563.122 695,-537.132 749.023,-517.262 806.759,-483.866 842.615,-461.509"/>
<polygon fill="#cb10f9" stroke="black" points="844.645,-464.367 851.244,-456.078 840.917,-458.443 844.645,-464.367"/>
</g>
<!-- telereddit_content_type&#45;&gt;telereddit_tests_test_reddit -->
<g id="edge40" class="edge"><title>telereddit_content_type&#45;&gt;telereddit_tests_test_reddit</title><style>.edge>path:hover{stroke-width:8}</style>
<path fill="none" stroke="black" d="M428.683,-574.459C401.077,-548.983 352,-495.654 352,-438.492 352,-438.492 352,-438.492 352,-242.64 352,-168.877 441.559,-126.829 498.976,-107.452"/>
<polygon fill="#cb10f9" stroke="black" points="500.173,-110.743 508.595,-104.314 498.002,-104.088 500.173,-110.743"/>
</g>
<!-- telereddit_services_gfycat_service&#45;&gt;telereddit_services_services_wrapper -->
<g id="edge54" class="edge"><title>telereddit_services_gfycat_service&#45;&gt;telereddit_services_services_wrapper</title><style>.edge>path:hover{stroke-width:8}</style>
<path fill="none" stroke="black" d="M963.724,-423.325C956.173,-420.953 948.356,-418.523 941,-416.279 896.082,-402.578 845.046,-387.587 807.037,-376.534"/>
<polygon fill="#7e3091" stroke="black" points="807.752,-373.097 797.173,-373.669 805.8,-379.82 807.752,-373.097"/>
</g>
<!-- telereddit_config_secret -->
<g id="node19" class="node"><title>telereddit_config_secret</title><style>.edge>path:hover{stroke-width:8}</style>
<ellipse fill="#c022e7" stroke="black" cx="1784" cy="-973.411" rx="42.2678" ry="18"/>
<text text-anchor="middle" x="1784" y="-970.911" font-family="Helvetica,sans-Serif" font-size="10.00" fill="#ffffff">config.secret</text>
</g>
<!-- telereddit_config_secret&#45;&gt;telereddit_config_secret_prod -->
<g id="edge31" class="edge"><title>telereddit_config_secret&#45;&gt;telereddit_config_secret_prod</title><style>.edge>path:hover{stroke-width:8}</style>
<path fill="none" stroke="black" d="M1751.23,-961.623C1731.35,-953.307 1707.31,-939.738 1694,-919.411 1680.88,-899.379 1678.46,-872.072 1678.99,-851.267"/>
<polygon fill="#c022e7" stroke="black" points="1682.5,-851.215 1679.5,-841.053 1675.51,-850.867 1682.5,-851.215"/>
</g>
<!-- telereddit_config_secret&#45;&gt;telereddit_config_secret_dev -->
<g id="edge28" class="edge"><title>telereddit_config_secret&#45;&gt;telereddit_config_secret_dev</title><style>.edge>path:hover{stroke-width:8}</style>
<path fill="none" stroke="black" d="M1775.65,-955.431C1771.63,-947.257 1766.7,-937.23 1762.12,-927.917"/>
<polygon fill="#c022e7" stroke="black" points="1765.26,-926.368 1757.71,-918.938 1758.98,-929.456 1765.26,-926.368"/>
</g>
<!-- telereddit_config_secret&#45;&gt;telereddit_config_secret_github -->
<g id="edge30" class="edge"><title>telereddit_config_secret&#45;&gt;telereddit_config_secret_github</title><style>.edge>path:hover{stroke-width:8}</style>
<path fill="none" stroke="black" d="M1790.75,-955.483C1794.59,-945.203 1799.19,-931.728 1802,-919.411 1807.15,-896.847 1810.19,-870.843 1811.93,-851.202"/>
<polygon fill="#c022e7" stroke="black" points="1815.44,-851.259 1812.76,-841.006 1808.46,-850.688 1815.44,-851.259"/>
</g>
<!-- telereddit_config_secret_generic -->
<g id="node28" class="node"><title>telereddit_config_secret_generic</title><style>.edge>path:hover{stroke-width:8}</style>
<ellipse fill="#9246a4" stroke="black" cx="1906" cy="-898.198" rx="56.6372" ry="21.4286"/>
<text text-anchor="middle" x="1906" y="-901.198" font-family="Helvetica,sans-Serif" font-size="10.00" fill="#ffffff">config.</text>
<text text-anchor="middle" x="1906" y="-890.198" font-family="Helvetica,sans-Serif" font-size="10.00" fill="#ffffff">secret_generic</text>
</g>
<!-- telereddit_config_secret&#45;&gt;telereddit_config_secret_generic -->
<g id="edge29" class="edge"><title>telereddit_config_secret&#45;&gt;telereddit_config_secret_generic</title><style>.edge>path:hover{stroke-width:8}</style>
<path fill="none" stroke="black" d="M1807.52,-958.295C1824.7,-947.989 1848.34,-933.801 1868.15,-921.91"/>
<polygon fill="#c022e7" stroke="black" points="1870.18,-924.777 1876.95,-916.63 1866.58,-918.774 1870.18,-924.777"/>
</g>
<!-- telereddit_services_services_wrapper&#45;&gt;telereddit_reddit -->
<g id="edge61" class="edge"><title>telereddit_services_services_wrapper&#45;&gt;telereddit_reddit</title><style>.edge>path:hover{stroke-width:8}</style>
<path fill="none" stroke="black" d="M793.841,-343.354C862.368,-320.357 993.357,-276.4 1054.73,-255.805"/>
<polygon fill="#84269b" stroke="black" points="1055.94,-259.09 1064.31,-252.591 1053.71,-252.454 1055.94,-259.09"/>
</g>
<!-- telereddit_services_services_wrapper&#45;&gt;telereddit_tests_test_services -->
<g id="edge62" class="edge"><title>telereddit_services_services_wrapper&#45;&gt;telereddit_tests_test_services</title><style>.edge>path:hover{stroke-width:8}</style>
<path fill="none" stroke="black" d="M698.846,-345.927C607.871,-324.34 418.801,-279.474 325.896,-257.429"/>
<polygon fill="#84269b" stroke="black" points="326.67,-254.015 316.132,-255.112 325.054,-260.826 326.67,-254.015"/>
</g>
<!-- telereddit_config_config -->
<g id="node23" class="node"><title>telereddit_config_config</title><style>.edge>path:hover{stroke-width:8}</style>
<ellipse fill="#c806f9" stroke="black" cx="1284" cy="-738.345" rx="41.5911" ry="18"/>
<text text-anchor="middle" x="1284" y="-735.845" font-family="Helvetica,sans-Serif" font-size="10.00" fill="#ffffff">config.config</text>
</g>
<!-- telereddit_config_config&#45;&gt;telereddit_telereddit -->
<g id="edge27" class="edge"><title>telereddit_config_config&#45;&gt;telereddit_telereddit</title><style>.edge>path:hover{stroke-width:8}</style>
<path fill="none" stroke="black" d="M1318.85,-728.032C1373.7,-711.02 1474,-669.354 1474,-592.132 1474,-592.132 1474,-592.132 1474,-242.64 1474,-198.858 1458.29,-150.019 1447.07,-120.724"/>
<polygon fill="#c806f9" stroke="black" points="1450.25,-119.237 1443.33,-111.217 1443.74,-121.804 1450.25,-119.237"/>
</g>
<!-- telereddit_config_config&#45;&gt;telereddit_reddit -->
<g id="edge24" class="edge"><title>telereddit_config_config&#45;&gt;telereddit_reddit</title><style>.edge>path:hover{stroke-width:8}</style>
<path fill="none" stroke="black" d="M1284,-719.91C1284,-692.648 1284,-638.267 1284,-592.132 1284,-592.132 1284,-592.132 1284,-514.919 1284,-405.849 1236.12,-382.676 1164,-300.853 1150.39,-285.415 1131.88,-271.614 1116.54,-261.55"/>
<polygon fill="#c806f9" stroke="black" points="1118.24,-258.488 1107.93,-256.073 1114.49,-264.394 1118.24,-258.488"/>
</g>
<!-- telereddit_config_config&#45;&gt;telereddit_linker -->
<g id="edge23" class="edge"><title>telereddit_config_config&#45;&gt;telereddit_linker</title><style>.edge>path:hover{stroke-width:8}</style>
<path fill="none" stroke="black" d="M1306.52,-722.964C1339.75,-699.787 1398,-650.786 1398,-592.132 1398,-592.132 1398,-592.132 1398,-436.492 1398,-344.682 1355.94,-241.664 1334.4,-194.929"/>
<polygon fill="#c806f9" stroke="black" points="1337.55,-193.404 1330.13,-185.835 1331.21,-196.375 1337.55,-193.404"/>
</g>
<!-- telereddit_config_config&#45;&gt;telereddit_services_gfycat_service -->
<g id="edge25" class="edge"><title>telereddit_config_config&#45;&gt;telereddit_services_gfycat_service</title><style>.edge>path:hover{stroke-width:8}</style>
<path fill="none" stroke="black" d="M1245.76,-730.821C1187.91,-718.616 1080.29,-686.224 1037,-609.132 1012.12,-564.832 1006.13,-504.889 1004.94,-469.11"/>
<polygon fill="#c806f9" stroke="black" points="1008.44,-468.745 1004.71,-458.826 1001.44,-468.902 1008.44,-468.745"/>
</g>
<!-- telereddit_config_config&#45;&gt;telereddit_helpers -->
<g id="edge22" class="edge"><title>telereddit_config_config&#45;&gt;telereddit_helpers</title><style>.edge>path:hover{stroke-width:8}</style>
<path fill="none" stroke="black" d="M1255.6,-725.052C1232.95,-714.7 1200.85,-698.785 1175,-681.132 1145.53,-661 1115.27,-633.213 1095.66,-614.069"/>
<polygon fill="#c806f9" stroke="black" points="1098.01,-611.475 1088.44,-606.941 1093.1,-616.457 1098.01,-611.475"/>
</g>
<!-- telereddit_config_config&#45;&gt;telereddit_services_imgur_service -->
<g id="edge26" class="edge"><title>telereddit_config_config&#45;&gt;telereddit_services_imgur_service</title><style>.edge>path:hover{stroke-width:8}</style>
<path fill="none" stroke="black" d="M1242.54,-735.63C1193.86,-731.817 1112.46,-719.66 1055,-681.132 972.814,-626.028 915.212,-519.288 890.908,-467.746"/>
<polygon fill="#c806f9" stroke="black" points="894.004,-466.101 886.627,-458.497 887.652,-469.042 894.004,-466.101"/>
</g>
<!-- telereddit_services_generic_service&#45;&gt;telereddit_services_services_wrapper -->
<g id="edge53" class="edge"><title>telereddit_services_generic_service&#45;&gt;telereddit_services_services_wrapper</title><style>.edge>path:hover{stroke-width:8}</style>
<path fill="none" stroke="black" d="M520.855,-423.307C528.879,-420.937 537.184,-418.512 545,-416.279 594.336,-402.184 650.551,-386.818 691.62,-375.72"/>
<polygon fill="#9238a8" stroke="black" points="692.715,-379.049 701.457,-373.064 690.891,-372.291 692.715,-379.049"/>
</g>
<!-- telereddit_helpers&#45;&gt;telereddit_services_youtube_service -->
<g id="edge45" class="edge"><title>telereddit_helpers&#45;&gt;telereddit_services_youtube_service</title><style>.edge>path:hover{stroke-width:8}</style>
<path fill="none" stroke="black" d="M1045.7,-589.127C947.967,-585.367 628.945,-570.604 599,-537.132 582.274,-518.435 589.548,-489.389 599.046,-467.65"/>
<polygon fill="#b005db" stroke="black" points="602.244,-469.075 603.338,-458.536 595.911,-466.092 602.244,-469.075"/>
</g>
<!-- telereddit_helpers&#45;&gt;telereddit_telereddit -->
<g id="edge46" class="edge"><title>telereddit_helpers&#45;&gt;telereddit_telereddit</title><style>.edge>path:hover{stroke-width:8}</style>
<path fill="none" stroke="black" d="M1091.2,-576.793C1103.07,-566.879 1118.53,-552.465 1129,-537.132 1155.76,-497.919 1170,-485.969 1170,-438.492 1170,-438.492 1170,-438.492 1170,-242.64 1170,-141.498 1318.47,-108.637 1393.56,-98.4845"/>
<polygon fill="#b005db" stroke="black" points="1394.17,-101.935 1403.65,-97.1979 1393.29,-94.9914 1394.17,-101.935"/>
</g>
<!-- telereddit_helpers&#45;&gt;telereddit_reddit -->
<g id="edge43" class="edge"><title>telereddit_helpers&#45;&gt;telereddit_reddit</title><style>.edge>path:hover{stroke-width:8}</style>
<path fill="none" stroke="black" d="M1084.64,-574.078C1101.38,-547.213 1132,-490.919 1132,-438.492 1132,-438.492 1132,-438.492 1132,-358.066 1132,-325.723 1116.26,-291.49 1103.61,-269.2"/>
<polygon fill="#b005db" stroke="black" points="1106.52,-267.255 1098.43,-260.419 1100.49,-270.81 1106.52,-267.255"/>
</g>
<!-- telereddit_helpers&#45;&gt;telereddit_services_vreddit_service -->
<g id="edge44" class="edge"><title>telereddit_helpers&#45;&gt;telereddit_services_vreddit_service</title><style>.edge>path:hover{stroke-width:8}</style>
<path fill="none" stroke="black" d="M1051.98,-579.828C999.001,-555.031 863.592,-491.656 793.503,-458.853"/>
<polygon fill="#b005db" stroke="black" points="794.602,-455.503 784.062,-454.434 791.635,-461.843 794.602,-455.503"/>
</g>
<!-- telereddit_helpers&#45;&gt;telereddit_linker -->
<g id="edge42" class="edge"><title>telereddit_helpers&#45;&gt;telereddit_linker</title><style>.edge>path:hover{stroke-width:8}</style>
<path fill="none" stroke="black" d="M1100.08,-583.648C1124.8,-576.25 1161.41,-561.856 1184,-537.132 1208.38,-510.457 1287.01,-275.832 1313.33,-195.935"/>
<polygon fill="#b005db" stroke="black" points="1316.75,-196.735 1316.54,-186.142 1310.1,-194.549 1316.75,-196.735"/>
</g>
<!-- telereddit_helpers&#45;&gt;telereddit_tests_test_helpers -->
<g id="edge47" class="edge"><title>telereddit_helpers&#45;&gt;telereddit_tests_test_helpers</title><style>.edge>path:hover{stroke-width:8}</style>
<path fill="none" stroke="black" d="M1046.08,-588.083C971.243,-582.379 759.994,-564.885 586,-537.132 433.885,-512.869 256.447,-471.833 170.667,-451.176"/>
<polygon fill="#b005db" stroke="black" points="171.459,-447.766 160.916,-448.82 169.815,-454.571 171.459,-447.766"/>
</g>
<!-- telereddit_services_imgur_service&#45;&gt;telereddit_services_services_wrapper -->
<g id="edge55" class="edge"><title>telereddit_services_imgur_service&#45;&gt;telereddit_services_services_wrapper</title><style>.edge>path:hover{stroke-width:8}</style>
<path fill="none" stroke="black" d="M849.274,-419.341C831.377,-408.655 808.128,-394.773 788.628,-383.13"/>
<polygon fill="#7e3091" stroke="black" points="790.345,-380.079 779.965,-377.957 786.757,-386.089 790.345,-380.079"/>
</g>
<!-- telegram -->
<g id="node29" class="node"><title>telegram</title><style>.edge>path:hover{stroke-width:8}</style>
<polygon fill="#266ed9" stroke="black" points="1539,-991.411 1536,-995.411 1515,-995.411 1512,-991.411 1485,-991.411 1485,-955.411 1539,-955.411 1539,-991.411"/>
<text text-anchor="middle" x="1512" y="-970.911" font-family="Helvetica,sans-Serif" font-size="10.00" fill="#ffffff">telegram</text>
</g>
<!-- telegram&#45;&gt;telereddit_telereddit -->
<g id="edge15" class="edge"><title>telegram&#45;&gt;telereddit_telereddit</title><style>.edge>path:hover{stroke-width:8}</style>
<path fill="none" stroke="black" d="M1531.93,-954.994C1559.53,-928.844 1606,-876.525 1606,-820.772 1606,-820.772 1606,-820.772 1606,-242.64 1606,-172.483 1522.83,-127.853 1472.84,-107.364"/>
<polygon fill="#266ed9" stroke="black" points="1473.9,-104.02 1463.31,-103.587 1471.32,-110.527 1473.9,-104.02"/>
</g>
<!-- telegram&#45;&gt;telereddit_linker -->
<g id="edge14" class="edge"><title>telegram&#45;&gt;telereddit_linker</title><style>.edge>path:hover{stroke-width:8}</style>
<path fill="none" stroke="black" d="M1512,-955.128C1512,-926.978 1512,-869.475 1512,-820.772 1512,-820.772 1512,-820.772 1512,-436.492 1512,-324.916 1400.53,-227.581 1348.35,-188.131"/>
<polygon fill="#266ed9" stroke="black" points="1350.33,-185.242 1340.22,-182.088 1346.16,-190.861 1350.33,-185.242"/>
</g>
<!-- telegram&#45;&gt;telereddit_config_config -->
<g id="edge13" class="edge"><title>telegram&#45;&gt;telereddit_config_config</title><style>.edge>path:hover{stroke-width:8}</style>
<path fill="none" stroke="black" d="M1495.23,-955.273C1454.9,-914.047 1352.43,-809.294 1306.67,-762.518"/>
<polygon fill="#266ed9" stroke="black" points="1309.07,-759.967 1299.57,-755.266 1304.07,-764.862 1309.07,-759.967"/>
</g>
</g>
</svg>
